<svg width="64" height="65" viewBox="0 0 64 65" fill="none" xmlns="http://www.w3.org/2000/svg">
<g clip-path="url(#clip0_8072_116)">
<path d="M27.18 42.7701L-3.05176e-05 19.1801L15.63 6.33008L42.71 29.8201L27.18 42.7701ZM3.45999 19.2201L27.24 39.8701L39.33 29.7501L15.63 9.19006L3.45999 19.2201Z" fill="#545554"/>
<path d="M15.75 12.77L7.55997 19.33L26.95 36.18L34.95 29.46L15.75 12.77ZM16.75 23.77C16.1155 23.768 15.4959 23.5781 14.9693 23.2242C14.4428 22.8703 14.0329 22.3682 13.7915 21.7815C13.55 21.1948 13.4879 20.5497 13.6129 19.9277C13.7379 19.3057 14.0444 18.7346 14.4937 18.2867C14.943 17.8388 15.515 17.5341 16.1374 17.411C16.7598 17.288 17.4047 17.3521 17.9907 17.5953C18.5767 17.8386 19.0774 18.25 19.4297 18.7777C19.782 19.3054 19.97 19.9255 19.97 20.56C19.9622 21.401 19.6246 22.2053 19.0299 22.8C18.4353 23.3947 17.631 23.7322 16.79 23.74L16.75 23.77ZM25.49 31.3C24.8527 31.302 24.2292 31.1148 23.6983 30.7622C23.1675 30.4096 22.7532 29.9074 22.508 29.3192C22.2627 28.731 22.1975 28.0833 22.3206 27.458C22.4438 26.8327 22.7496 26.258 23.1996 25.8067C23.6495 25.3554 24.2232 25.0477 24.8481 24.9227C25.473 24.7976 26.121 24.8608 26.7099 25.1042C27.2989 25.3476 27.8024 25.7603 28.1566 26.29C28.5109 26.8198 28.7 27.4427 28.7 28.08C28.6948 28.921 28.3598 29.7264 27.767 30.3229C27.1742 30.9195 26.3709 31.2596 25.53 31.27L25.49 31.3Z" fill="#545554"/>
<path d="M37.08 45.4599L45.75 38.2099L43.93 36.6499L35.25 43.7599L37.08 45.4599Z" fill="#545554"/>
<path d="M42.51 35.4301L40.63 33.8201L32.18 40.9101L33.97 42.5801L42.51 35.4301Z" fill="#545554"/>
<path d="M48.89 40.9099L47.17 39.4299L38.35 46.6499L39.74 47.9399L40.35 51.7199L52.22 41.3199L48.89 40.9099Z" fill="#545554"/>
<path d="M5.17999 7.74L14.41 0V5.67L11.01 8.54L5.17999 7.74Z" fill="#545554"/>
<path d="M50.98 47.15C51.8901 46.715 52.8613 46.4216 53.86 46.28L54.86 47.28C54.2788 47.3787 53.7114 47.5465 53.17 47.78C52.4988 48.0565 51.853 48.3911 51.24 48.78C50.6196 49.1473 50.0426 49.5833 49.52 50.08C48.9968 50.5794 48.5275 51.1325 48.12 51.73C47.7079 52.3253 47.3467 52.9542 47.04 53.61C46.7847 54.1606 46.5902 54.7373 46.46 55.33L45.46 54.28C45.6521 53.2894 45.9891 52.3325 46.46 51.44C46.9671 50.5215 47.615 49.6881 48.38 48.97C49.1487 48.2343 50.0256 47.6205 50.98 47.15Z" fill="#545554"/>
<path d="M56.46 54.2001C55.5173 54.6245 54.4938 54.8394 53.46 54.8301C52.2375 54.8081 51.03 54.5571 49.9 54.0901L50.19 52.8301C51.1459 53.2229 52.1589 53.4593 53.19 53.5301C54.0608 53.5685 54.9299 53.4219 55.74 53.1001C56.5785 52.742 57.3443 52.2337 58 51.6001L58.16 51.4401L59.08 52.4401C58.3117 53.1698 57.426 53.7648 56.46 54.2001ZM54.23 61.4801L53.29 60.4801L61.22 52.9801L62.16 53.9801L54.23 61.4801ZM57.8 52.6101L54.68 49.3301L55.46 48.6001L58.56 51.8801L57.8 52.6101Z" fill="#545554"/>
<path d="M60.73 61.9599C59.9689 62.6852 59.0982 63.2858 58.15 63.7399C57.2344 64.1738 56.2611 64.4735 55.26 64.6299L54.26 63.6299C54.8436 63.5227 55.4137 63.3517 55.96 63.1199C56.6303 62.8414 57.2759 62.5069 57.89 62.1199C58.5096 61.7469 59.0893 61.3113 59.62 60.8199C60.1399 60.3202 60.6059 59.7672 61.01 59.1699C61.4219 58.578 61.7831 57.9524 62.09 57.2999C62.3446 56.7654 62.5423 56.2057 62.68 55.6299L63.68 56.6799C63.4913 57.6651 63.1541 58.6159 62.68 59.4999C62.1615 60.416 61.5036 61.246 60.73 61.9599Z" fill="#545554"/>
</g>
<defs>
<clipPath id="clip0_8072_116">
<rect width="63.68" height="64.63" fill="white"/>
</clipPath>
</defs>
</svg>
