<svg width="64" height="65" viewBox="0 0 64 65" fill="none" xmlns="http://www.w3.org/2000/svg">
<g clip-path="url(#clip0_8072_105)">
<path d="M27.18 42.7701L-3.05176e-05 19.1801L15.64 6.33008L42.71 29.7801L27.18 42.7701ZM3.42996 19.2201L27.21 39.8701L39.31 29.7501L15.6 9.19006L3.42996 19.2201Z" fill="#545554"/>
<path d="M15.71 12.77L7.55997 19.33L26.96 36.18L34.96 29.46L15.71 12.77ZM16.76 23.77C16.1251 23.77 15.5045 23.5818 14.9766 23.2291C14.4487 22.8763 14.0373 22.375 13.7943 21.7885C13.5514 21.2019 13.4878 20.5565 13.6117 19.9338C13.7355 19.3111 14.0413 18.7391 14.4902 18.2902C14.9391 17.8413 15.5111 17.5355 16.1338 17.4117C16.7564 17.2878 17.4019 17.3514 17.9884 17.5944C18.575 17.8373 19.0763 18.2487 19.429 18.7766C19.7817 19.3045 19.97 19.9251 19.97 20.56C19.9597 21.3985 19.6227 22.1998 19.0307 22.7937C18.4387 23.3876 17.6384 23.727 16.8 23.74L16.76 23.77ZM25.49 31.3C24.8532 31.3 24.2306 31.1111 23.7011 30.7573C23.1716 30.4035 22.7588 29.9006 22.5151 29.3123C22.2714 28.7239 22.2076 28.0765 22.3319 27.4518C22.4561 26.8272 22.7628 26.2535 23.2131 25.8032C23.6634 25.3528 24.2372 25.0461 24.8618 24.9219C25.4864 24.7976 26.1339 24.8614 26.7223 25.1051C27.3106 25.3488 27.8135 25.7616 28.1673 26.2911C28.5211 26.8206 28.71 27.4432 28.71 28.08C28.7022 28.9219 28.365 29.7273 27.7706 30.3235C27.1762 30.9198 26.3719 31.2596 25.53 31.27L25.49 31.3Z" fill="#545554"/>
<path d="M37.08 45.4599L45.75 38.2099L43.93 36.6499L35.25 43.7599L37.08 45.4599Z" fill="#545554"/>
<path d="M42.51 35.4301L40.63 33.8201L32.18 40.9101L33.97 42.5801L42.51 35.4301Z" fill="#545554"/>
<path d="M48.89 40.9099L47.17 39.4299L38.35 46.6499L39.74 47.9399L40.35 51.7199L52.22 41.3199L48.89 40.9099Z" fill="#545554"/>
<path d="M5.17999 7.74L14.41 0V5.67L11.01 8.54L5.17999 7.74Z" fill="#545554"/>
<path d="M50.99 47.15C51.8996 46.7137 52.8709 46.4202 53.87 46.28L54.87 47.28C54.2851 47.3771 53.7143 47.545 53.17 47.78C52.4997 48.0585 51.8541 48.393 51.24 48.78C50.6212 49.1497 50.0445 49.5856 49.52 50.08C48.9996 50.582 48.5305 51.1348 48.12 51.73C47.7079 52.3253 47.3467 52.9542 47.04 53.61C46.7796 54.1421 46.5816 54.7025 46.45 55.28L45.45 54.23C45.6424 53.2395 45.9793 52.2826 46.45 51.39C47.4807 49.5446 49.0509 48.0582 50.95 47.13L50.99 47.15Z" fill="#545554"/>
<path d="M55.81 61.12L48.97 53.89L49.76 53.14L56.6 60.37L55.81 61.12ZM51.94 55.99L51.02 54.99L53.83 52.34L54.75 53.34L51.94 55.99ZM53.81 57.99L52.9 56.99L55.71 54.33L56.62 55.33L53.81 57.99ZM59.81 54.62L55 49.54L55.79 48.79L60.6 53.88L59.81 54.62ZM59.28 56.42C58.95 56.71 58.56 57.04 58.1 57.42C57.64 57.8 57.1 58.13 56.56 58.49L55.75 57.49C56.28 57.14 56.75 56.8 57.22 56.49C57.69 56.18 58.05 55.83 58.38 55.49C58.71 55.15 59.09 54.84 59.52 54.43L60.34 53.66L61.26 54.66L60.45 55.43L59.28 56.42Z" fill="#545554"/>
<path d="M60.71 61.9599C59.9504 62.6824 59.0834 63.2828 58.14 63.7399C57.2204 64.1725 56.244 64.4722 55.24 64.6299L54.24 63.6299C54.8243 63.5255 55.3947 63.3543 55.94 63.1199C56.6103 62.8414 57.2559 62.5069 57.87 62.1199C58.4913 61.7494 59.0713 61.3136 59.6 60.8199C60.12 60.3202 60.5859 59.7672 60.99 59.1699C61.4019 58.578 61.7631 57.9524 62.07 57.2999C62.3289 56.7672 62.5269 56.207 62.66 55.6299L63.66 56.6799C63.4664 57.6637 63.1295 58.6139 62.66 59.4999C62.1448 60.4183 61.4866 61.2487 60.71 61.9599Z" fill="#545554"/>
</g>
<defs>
<clipPath id="clip0_8072_105">
<rect width="63.68" height="64.63" fill="white"/>
</clipPath>
</defs>
</svg>
