<svg width="64" height="65" viewBox="0 0 64 65" fill="none" xmlns="http://www.w3.org/2000/svg">
<g clip-path="url(#clip0_8071_24)">
<path d="M27.2 42.7701L-1.52588e-05 19.1801L15.63 6.33008L42.71 29.8201L27.2 42.7701ZM3.45 19.2201L27.2 39.8701L39.29 29.7501L15.59 9.19006L3.45 19.2201Z" fill="#545554"/>
<path d="M15.75 12.77L7.55998 19.33L26.95 36.18L34.95 29.46L15.75 12.77ZM16.75 23.77C16.1155 23.768 15.4959 23.5781 14.9693 23.2242C14.4428 22.8703 14.0329 22.3682 13.7915 21.7815C13.5501 21.1948 13.4879 20.5497 13.6129 19.9277C13.7379 19.3057 14.0444 18.7346 14.4937 18.2867C14.943 17.8388 15.515 17.5341 16.1374 17.411C16.7598 17.288 17.4047 17.3521 17.9907 17.5953C18.5767 17.8386 19.0774 18.25 19.4297 18.7777C19.782 19.3054 19.97 19.9255 19.97 20.56C19.9622 21.401 19.6246 22.2053 19.03 22.8C18.4353 23.3947 17.631 23.7322 16.79 23.74L16.75 23.77ZM25.49 31.3C24.8527 31.302 24.2292 31.1148 23.6983 30.7622C23.1675 30.4096 22.7532 29.9074 22.508 29.3192C22.2627 28.731 22.1976 28.0833 22.3207 27.458C22.4438 26.8327 22.7496 26.258 23.1996 25.8067C23.6495 25.3554 24.2232 25.0477 24.8481 24.9227C25.473 24.7976 26.121 24.8608 26.7099 25.1042C27.2989 25.3476 27.8023 25.7603 28.1566 26.29C28.5109 26.8198 28.7 27.4427 28.7 28.08C28.6948 28.921 28.3598 29.7264 27.767 30.3229C27.1742 30.9195 26.371 31.2596 25.53 31.27L25.49 31.3Z" fill="#545554"/>
<path d="M37.08 45.4599L45.75 38.2099L43.93 36.6499L35.25 43.7599L37.08 45.4599Z" fill="#545554"/>
<path d="M42.51 35.4301L40.63 33.8201L32.18 40.9101L33.97 42.5801L42.51 35.4301Z" fill="#545554"/>
<path d="M48.89 40.9099L47.17 39.4299L38.35 46.6499L39.74 47.9399L40.35 51.7199L52.22 41.3199L48.89 40.9099Z" fill="#545554"/>
<path d="M5.17999 7.74L14.41 0V5.67L11.01 8.54L5.17999 7.74Z" fill="#545554"/>
<path d="M50.98 47.15C51.8901 46.715 52.8613 46.4216 53.86 46.28L54.86 47.28C54.2787 47.3787 53.7113 47.5465 53.17 47.78C52.4987 48.0565 51.8529 48.3911 51.24 48.78C50.6196 49.1473 50.0426 49.5833 49.52 50.08C48.9968 50.5794 48.5275 51.1325 48.12 51.73C47.7079 52.3253 47.3467 52.9542 47.04 53.61C46.7812 54.1438 46.58 54.7036 46.44 55.28L45.44 54.23C45.6321 53.2394 45.9691 52.2825 46.44 51.39C46.9471 50.4715 47.595 49.6381 48.36 48.92C49.1383 48.2003 50.0218 47.6035 50.98 47.15Z" fill="#545554"/>
<path d="M57.5 59.5099L50.66 52.33L51.45 51.59L58.29 58.8199L57.5 59.5099ZM51.8 58.9299L50.89 57.9299L53.89 55.1299L54.8 56.1299L51.8 58.9299ZM56.8 53.1199C56.1268 53.2111 55.4417 53.1426 54.8 52.92C54.0421 52.6649 53.3348 52.279 52.71 51.78L53.13 50.6899C53.6476 51.1164 54.2321 51.4543 54.86 51.6899C55.3742 51.8948 55.9275 51.9836 56.48 51.95C56.9198 51.9222 57.3381 51.7499 57.67 51.46L57.94 51.2L58.75 52.0499L58.48 52.3099C58.0176 52.7535 57.4254 53.0373 56.79 53.1199H56.8ZM60.88 55.1199L55.29 49.21L56.06 48.48L61.65 54.39L60.88 55.1199ZM58.15 53.7999C58.0874 54.3492 58.1454 54.9054 58.32 55.4299C58.5296 56.0717 58.8401 56.676 59.24 57.22L58.15 57.59C57.6792 56.9389 57.324 56.2116 57.1 55.4399C56.9188 54.7887 56.888 54.1048 57.01 53.4399C57.1385 52.8239 57.4526 52.2621 57.91 51.83L58.18 51.5699L58.98 52.42L58.71 52.6799C58.4139 52.969 58.2147 53.3429 58.14 53.7499L58.15 53.7999Z" fill="#545554"/>
<path d="M60.73 61.9599C59.9689 62.6852 59.0982 63.2858 58.15 63.7399C57.2344 64.1738 56.2611 64.4735 55.26 64.6299L54.26 63.6299C54.8437 63.5227 55.4138 63.3517 55.96 63.1199C56.6303 62.8414 57.2759 62.5069 57.89 62.1199C58.5096 61.7469 59.0893 61.3113 59.62 60.8199C60.14 60.3202 60.6059 59.7672 61.01 59.1699C61.4239 58.588 61.7885 57.9725 62.1 57.3299C62.3546 56.7954 62.5523 56.2357 62.69 55.6599L63.69 56.7099C63.5013 57.6951 63.1641 58.6459 62.69 59.5299C62.1659 60.4361 61.5048 61.2558 60.73 61.9599Z" fill="#545554"/>
</g>
<defs>
<clipPath id="clip0_8071_24">
<rect width="63.68" height="64.63" fill="white"/>
</clipPath>
</defs>
</svg>
