<svg width="64" height="65" viewBox="0 0 64 65" fill="none" xmlns="http://www.w3.org/2000/svg">
<g clip-path="url(#clip0_8072_94)">
<path d="M27.18 42.7701L-1.52588e-05 19.1801L15.63 6.33008L42.71 29.8201L27.18 42.7701ZM3.41997 19.2201L27.21 39.8701L39.3 29.7501L15.59 9.19006L3.41997 19.2201Z" fill="#545554"/>
<path d="M15.75 12.77L7.54997 19.33L26.95 36.19L34.95 29.47L15.75 12.77ZM16.75 23.77C16.1151 23.77 15.4945 23.5818 14.9666 23.2291C14.4387 22.8763 14.0273 22.375 13.7843 21.7885C13.5414 21.2019 13.4778 20.5565 13.6017 19.9338C13.7255 19.3111 14.0313 18.7391 14.4802 18.2902C14.9291 17.8413 15.5011 17.5355 16.1238 17.4117C16.7464 17.2878 17.3919 17.3514 17.9784 17.5944C18.565 17.8373 19.0663 18.2487 19.419 18.7766C19.7717 19.3045 19.96 19.9251 19.96 20.56C19.9497 21.3985 19.6127 22.1998 19.0207 22.7937C18.4287 23.3876 17.6284 23.727 16.79 23.74L16.75 23.77ZM25.49 31.3C24.8527 31.302 24.2292 31.1148 23.6983 30.7622C23.1675 30.4096 22.7532 29.9074 22.508 29.3192C22.2627 28.731 22.1976 28.0833 22.3207 27.458C22.4438 26.8327 22.7496 26.258 23.1996 25.8067C23.6495 25.3554 24.2232 25.0477 24.8481 24.9227C25.473 24.7976 26.121 24.8608 26.7099 25.1042C27.2989 25.3476 27.8023 25.7603 28.1566 26.29C28.5109 26.8198 28.7 27.4427 28.7 28.08C28.6923 28.9202 28.3564 29.7241 27.7641 30.3201C27.1719 30.9161 26.3701 31.257 25.53 31.27L25.49 31.3Z" fill="#545554"/>
<path d="M37.08 45.4599L45.75 38.2099L43.93 36.6499L35.25 43.7599L37.08 45.4599Z" fill="#545554"/>
<path d="M42.51 35.4301L40.63 33.8201L32.18 40.9101L33.97 42.5801L42.51 35.4301Z" fill="#545554"/>
<path d="M48.89 40.9099L47.17 39.4299L38.35 46.6499L39.74 47.9399L40.35 51.7199L52.22 41.3199L48.89 40.9099Z" fill="#545554"/>
<path d="M5.17999 7.74L14.41 0V5.67L11.01 8.54L5.17999 7.74Z" fill="#545554"/>
<path d="M50.95 47.15C51.8601 46.715 52.8313 46.4216 53.83 46.28L54.83 47.28C54.2455 47.3785 53.6748 47.5463 53.13 47.78C52.462 48.0566 51.8195 48.3912 51.21 48.78C50.588 49.1495 50.008 49.5854 49.48 50.08C48.9596 50.582 48.4906 51.1348 48.08 51.73C47.6711 52.3255 47.3131 52.9544 47.01 53.61C46.7512 54.1438 46.5501 54.7036 46.41 55.28L45.41 54.23C45.6022 53.2394 45.9391 52.2825 46.41 51.39C47.4408 49.5446 49.0109 48.0582 50.91 47.13L50.95 47.15Z" fill="#545554"/>
<path d="M55.62 57.2501C55.8578 57.6814 55.9785 58.1676 55.97 58.6601C55.9447 59.0771 55.7582 59.468 55.45 59.7501C55.1496 60.0415 54.7486 60.2062 54.33 60.2101C53.8384 60.1915 53.3597 60.0469 52.94 59.7901C52.374 59.4471 51.859 59.0263 51.41 58.5401C50.9439 58.0632 50.5497 57.5207 50.24 56.9301C49.9992 56.4922 49.8752 55.9997 49.88 55.5001C49.8873 55.292 49.9362 55.0874 50.0238 54.8985C50.1113 54.7096 50.2359 54.5401 50.39 54.4001C50.6928 54.1072 51.0988 53.9455 51.52 53.9501C52.0168 53.9816 52.4979 54.1363 52.92 54.4001C54.0365 55.1187 54.9628 56.0964 55.62 57.2501ZM52.7301 55.5401C52.4898 55.366 52.2125 55.2496 51.92 55.2001C51.8129 55.1837 51.7035 55.1913 51.5997 55.2225C51.496 55.2536 51.4004 55.3074 51.32 55.3801C51.2433 55.457 51.184 55.5495 51.1461 55.6512C51.1081 55.753 51.0924 55.8617 51.1 55.9701C51.1339 56.2664 51.2366 56.5506 51.4 56.8C51.6215 57.1617 51.8832 57.4972 52.18 57.8C52.4778 58.1198 52.8136 58.402 53.18 58.6401C53.4148 58.8153 53.69 58.9288 53.9801 58.9701C54.0867 58.9836 54.1949 58.9733 54.2971 58.9401C54.3993 58.9069 54.4929 58.8515 54.5712 58.778C54.6495 58.7044 54.7106 58.6145 54.7502 58.5146C54.7898 58.4147 54.8067 58.3073 54.8 58.2001C54.7714 57.9103 54.6718 57.6321 54.51 57.3901C54.0521 56.663 53.4579 56.0314 52.76 55.5301L52.7301 55.5401ZM55.46 50.0701L57.21 51.9301L58.28 50.9301L59.21 51.9301L55.51 55.4201L51.95 51.6001L55.65 48.1001L56.56 49.1001L55.46 50.0701ZM55.36 53.6801L56.46 52.6801L54.7 50.8301L53.61 51.8301L55.36 53.6801ZM57.08 58.0701L56.16 57.0701L60.87 52.6101L61.79 53.6101L57.08 58.0701ZM60.08 57.2901L58.76 55.9001L59.58 55.1301L60.9 56.5101L60.08 57.2901Z" fill="#545554"/>
<path d="M60.72 61.9599C59.964 62.6868 59.0963 63.2877 58.15 63.7399C57.2339 64.1724 56.2607 64.4721 55.26 64.6299L54.26 63.6299C54.8443 63.5255 55.4147 63.3543 55.96 63.1199C56.6336 62.8415 57.2825 62.507 57.9 62.1199C58.5165 61.7468 59.0929 61.3112 59.62 60.8199C60.1432 60.3205 60.6125 59.7675 61.02 59.1699C61.4251 58.5756 61.7829 57.9503 62.09 57.2999C62.3473 56.7655 62.5483 56.2058 62.69 55.6299L63.69 56.6799C63.2711 58.7176 62.2215 60.5719 60.69 61.9799L60.72 61.9599Z" fill="#545554"/>
</g>
<defs>
<clipPath id="clip0_8072_94">
<rect width="63.68" height="64.63" fill="white"/>
</clipPath>
</defs>
</svg>
