<svg width="64" height="65" viewBox="0 0 64 65" fill="none" xmlns="http://www.w3.org/2000/svg">
<g clip-path="url(#clip0_8071_2)">
<path d="M27.18 42.7701L-3.8147e-06 19.1801L15.63 6.33008L42.69 29.7801L27.18 42.7701ZM3.42001 19.2201L27.21 39.8701L39.3 29.7501L15.59 9.19006L3.42001 19.2201Z" fill="#545554"/>
<path d="M15.75 12.77L7.54998 19.34L26.95 36.19L35 29.47L15.75 12.77ZM16.75 23.77C16.1151 23.77 15.4945 23.5818 14.9666 23.2291C14.4387 22.8763 14.0273 22.375 13.7844 21.7885C13.5414 21.2019 13.4778 20.5565 13.6017 19.9338C13.7255 19.3111 14.0313 18.7391 14.4802 18.2902C14.9291 17.8413 15.5011 17.5355 16.1237 17.4117C16.7464 17.2878 17.3919 17.3514 17.9784 17.5944C18.565 17.8373 19.0663 18.2487 19.419 18.7766C19.7717 19.3045 19.96 19.9251 19.96 20.56C19.9497 21.3985 19.6127 22.1998 19.0207 22.7937C18.4287 23.3876 17.6284 23.727 16.79 23.74L16.75 23.77ZM25.49 31.3C24.8527 31.302 24.2292 31.1148 23.6984 30.7622C23.1675 30.4096 22.7532 29.9074 22.508 29.3192C22.2627 28.731 22.1975 28.0833 22.3206 27.458C22.4438 26.8327 22.7497 26.258 23.1996 25.8067C23.6495 25.3554 24.2232 25.0477 24.8481 24.9227C25.473 24.7976 26.121 24.8608 26.7099 25.1042C27.2989 25.3476 27.8024 25.7603 28.1566 26.29C28.5109 26.8198 28.7 27.4427 28.7 28.08C28.6923 28.9202 28.3564 29.7241 27.7642 30.3201C27.1719 30.9161 26.3701 31.257 25.53 31.27L25.49 31.3Z" fill="#545554"/>
<path d="M37.08 45.4599L45.75 38.2099L43.93 36.6499L35.25 43.7599L37.08 45.4599Z" fill="#545554"/>
<path d="M42.51 35.4301L40.63 33.8201L32.18 40.9101L33.97 42.5801L42.51 35.4301Z" fill="#545554"/>
<path d="M48.89 40.9099L47.17 39.4299L38.35 46.6499L39.74 47.9399L40.35 51.7199L52.22 41.3199L48.89 40.9099Z" fill="#545554"/>
<path d="M5.18 7.74L14.41 0V5.67L11.01 8.54L5.18 7.74Z" fill="#545554"/>
<path d="M50.98 47.15C51.8901 46.715 52.8613 46.4216 53.86 46.28L54.86 47.28C54.2755 47.3785 53.7048 47.5463 53.16 47.78C52.492 48.0566 51.8495 48.3912 51.24 48.78C50.618 49.1495 50.038 49.5854 49.51 50.08C48.9896 50.582 48.5206 51.1348 48.11 51.73C47.7048 52.3278 47.347 52.9564 47.04 53.61C46.7812 54.1438 46.58 54.7036 46.44 55.28L45.44 54.23C45.6321 53.2394 45.9691 52.2825 46.44 51.39C47.4708 49.5446 49.0409 48.0582 50.94 47.13L50.98 47.15Z" fill="#545554"/>
<path d="M53.49 55.1301C54.0644 55.6609 54.6687 56.1583 55.3 56.6201L54.58 57.5101C53.9433 57.0441 53.3355 56.5399 52.76 56.0001C52.19 55.4601 51.54 54.8001 50.76 54.0001L50.15 53.3401L50.95 52.5801L51.57 53.2301C52.3 53.9801 52.92 54.6101 53.49 55.1301ZM58.15 52.8501L55.55 50.1101L51.55 53.9401L50.63 52.9401L55.47 48.3601L58.98 52.0801L58.15 52.8501ZM53.8 61.0901L52.88 60.0901L60.83 52.5701L61.75 53.5701L53.8 61.0901ZM59.09 58.4001L57.69 56.9601L58.49 56.2001L59.86 57.6401L59.09 58.4001Z" fill="#545554"/>
<path d="M60.69 61.9599C59.934 62.6868 59.0663 63.2877 58.12 63.7399C57.2038 64.1724 56.2307 64.4721 55.23 64.6299L54.23 63.6299C54.8143 63.5255 55.3847 63.3543 55.93 63.1199C56.6045 62.8436 57.2536 62.509 57.87 62.1199C58.4865 61.7468 59.0629 61.3112 59.59 60.8199C60.1132 60.3205 60.5824 59.7675 60.99 59.1699C61.404 58.5862 61.7718 57.971 62.09 57.3299C62.3513 56.7972 62.5525 56.2371 62.69 55.6599L63.69 56.7099C63.2822 58.7518 62.2308 60.6093 60.69 62.0099V61.9599Z" fill="#545554"/>
</g>
<defs>
<clipPath id="clip0_8071_2">
<rect width="63.68" height="64.63" fill="white"/>
</clipPath>
</defs>
</svg>
