<svg width="64" height="65" viewBox="0 0 64 65" fill="none" xmlns="http://www.w3.org/2000/svg">
<g clip-path="url(#clip0_8071_13)">
<path d="M27.18 42.7701L-1.14441e-05 19.1801L15.64 6.33008L42.71 29.8201L27.18 42.7701ZM3.45 19.2201L27.23 39.8701L39.32 29.7501L15.62 9.19006L3.45 19.2201Z" fill="#545554"/>
<path d="M15.75 12.77L7.55999 19.33L26.96 36.18L34.96 29.46L15.75 12.77ZM16.8 23.77C16.1651 23.77 15.5445 23.5818 15.0166 23.2291C14.4887 22.8763 14.0773 22.375 13.8343 21.7885C13.5914 21.2019 13.5278 20.5565 13.6517 19.9338C13.7755 19.3111 14.0813 18.7391 14.5302 18.2902C14.9791 17.8413 15.5511 17.5355 16.1738 17.4117C16.7964 17.2878 17.4418 17.3514 18.0284 17.5944C18.615 17.8373 19.1163 18.2487 19.469 18.7766C19.8217 19.3045 20.01 19.9251 20.01 20.56C19.9995 21.4053 19.657 22.2126 19.0564 22.8076C18.4558 23.4025 17.6454 23.7374 16.8 23.74V23.77ZM25.53 31.3C24.8931 31.3 24.2706 31.1111 23.7411 30.7573C23.2116 30.4035 22.7988 29.9006 22.5551 29.3123C22.3114 28.7239 22.2476 28.0765 22.3719 27.4518C22.4961 26.8272 22.8028 26.2535 23.2531 25.8032C23.7035 25.3528 24.2772 25.0461 24.9018 24.9219C25.5264 24.7976 26.1739 24.8614 26.7623 25.1051C27.3506 25.3488 27.8535 25.7616 28.2073 26.2911C28.5611 26.8206 28.75 27.4432 28.75 28.08C28.7421 28.9288 28.3994 29.7401 27.7963 30.3375C27.1933 30.9349 26.3788 31.2701 25.53 31.27V31.3Z" fill="#545554"/>
<path d="M37.08 45.4599L45.75 38.2099L43.93 36.6499L35.25 43.7599L37.08 45.4599Z" fill="#545554"/>
<path d="M42.51 35.4301L40.63 33.8201L32.18 40.9101L33.97 42.5801L42.51 35.4301Z" fill="#545554"/>
<path d="M48.89 40.9099L47.17 39.4299L38.35 46.6499L39.74 47.9399L40.35 51.7199L52.22 41.3199L48.89 40.9099Z" fill="#545554"/>
<path d="M5.18 7.74L14.41 0V5.67L11.01 8.54L5.18 7.74Z" fill="#545554"/>
<path d="M50.99 47.15C51.8996 46.7137 52.871 46.4202 53.87 46.28L54.87 47.28C54.2852 47.3771 53.7143 47.545 53.17 47.78C52.4997 48.0585 51.8541 48.393 51.24 48.78C50.6212 49.1497 50.0445 49.5856 49.52 50.08C48.9996 50.582 48.5306 51.1348 48.12 51.73C47.708 52.3253 47.3467 52.9542 47.04 53.61C46.7759 54.158 46.5779 54.7353 46.45 55.33L45.45 54.28C45.6582 53.2868 46.012 52.3298 46.5 51.44C47.5308 49.5946 49.1009 48.1082 51 47.18L50.99 47.15Z" fill="#545554"/>
<path d="M52.9 55.0699C53.67 55.8299 54.43 56.52 55.19 57.15L54.52 57.89C53.6681 57.2361 52.8535 56.535 52.08 55.79C51.27 55.01 50.45 54.1799 49.63 53.3099L50.32 52.47C51.26 53.45 52.12 54.3299 52.9 55.0699ZM52.39 55.2499L51.49 54.2499L54.17 51.71L55.08 52.71L52.39 55.2499ZM53.84 61.08L52.91 60.08L60.84 52.58L61.77 53.58L53.84 61.08ZM57.73 53.98C57.47 54.22 57.14 54.4999 56.73 54.8099C56.32 55.1199 55.88 55.4599 55.39 55.8099L54.56 54.7599C55.1547 54.3592 55.7287 53.9286 56.28 53.47C56.76 53.07 57.28 52.62 57.76 52.14L58.32 51.61L59.24 52.61L58.68 53.14L57.73 53.98ZM57.92 52.72L54.6 49.22L55.38 48.48L58.7 51.98L57.92 52.72ZM58.8 58.5499L57.45 57.1199L58.27 56.35L59.63 57.78L58.8 58.5499Z" fill="#545554"/>
<path d="M60.73 61.9599C59.9704 62.6824 59.1034 63.2828 58.16 63.7399C57.2404 64.1725 56.264 64.4722 55.26 64.6299L54.26 63.6299C54.8443 63.5255 55.4147 63.3543 55.96 63.1199C56.6303 62.8414 57.2759 62.5069 57.89 62.1199C58.5113 61.7494 59.0913 61.3136 59.62 60.8199C60.14 60.3202 60.6059 59.7672 61.01 59.1699C61.4219 58.578 61.7832 57.9524 62.09 57.2999C62.349 56.7672 62.5469 56.207 62.68 55.6299L63.68 56.6799C63.4864 57.6637 63.1495 58.6139 62.68 59.4999C62.1648 60.4183 61.5066 61.2487 60.73 61.9599Z" fill="#545554"/>
</g>
<defs>
<clipPath id="clip0_8071_13">
<rect width="63.68" height="64.63" fill="white"/>
</clipPath>
</defs>
</svg>
