<svg width="27" height="67" viewBox="0 0 27 67" fill="none" xmlns="http://www.w3.org/2000/svg">
<g clip-path="url(#clip0_8110_10)">
<path d="M19.43 59.65H7.28V12.1801C7.28 12.1801 8.56995 9.30005 13.36 9.30005C18.15 9.30005 19.43 12.1801 19.43 12.1801V59.65Z" fill="#FCAF17"/>
<path d="M19.43 44.6901H7.28V12.1801C7.28 12.1801 8.56995 9.30005 13.36 9.30005C18.15 9.30005 19.43 12.1801 19.43 12.1801V44.6901Z" fill="#CF1F25"/>
<path d="M23.36 66.5199H3.35001V62.7999L7.28001 59.6499H19.43L23.36 62.7999V66.5199Z" fill="#FCAF17"/>
<path d="M19.43 15.5701H7.28V18.1401H19.43V15.5701Z" fill="#FCAF17"/>
<path d="M19.43 20.27H7.28V22.84H19.43V20.27Z" fill="#FCAF17"/>
<path d="M19.43 37.3701H7.28V39.9401H19.43V37.3701Z" fill="#FCAF17"/>
<path d="M22.51 10.6H4.35995L6.08005 5.47998C6.17279 5.25461 6.32883 5.06093 6.52939 4.92249C6.72995 4.78404 6.96644 4.70676 7.21005 4.69995H19.54C19.8125 4.71067 20.0757 4.80186 20.2964 4.96204C20.517 5.12222 20.6854 5.34423 20.78 5.59998L22.51 10.6Z" fill="#CF1F25"/>
<path d="M22.51 10.6001H4.36V12.6501H22.51V10.6001Z" fill="#CF1F25"/>
<path d="M18.19 6.61011H8.66999C7.89127 6.61011 7.25999 7.24139 7.25999 8.02011C7.25999 8.79883 7.89127 9.43011 8.66999 9.43011H18.19C18.9687 9.43011 19.6 8.79883 19.6 8.02011C19.6 7.24139 18.9687 6.61011 18.19 6.61011Z" fill="#FCAF17"/>
<path d="M13.73 0.44C13.73 0.196995 13.533 0 13.29 0C13.047 0 12.85 0.196995 12.85 0.44V2.44C12.85 2.68301 13.047 2.88 13.29 2.88C13.533 2.88 13.73 2.68301 13.73 2.44V0.44Z" fill="#CF1F25"/>
<path d="M24.2781 3.52758C24.4499 3.35575 24.4498 3.07715 24.278 2.90532C24.1062 2.73349 23.8277 2.73349 23.6558 2.90532L22.2416 4.31954C22.0698 4.49137 22.0698 4.76988 22.2416 4.94171C22.4135 5.11354 22.692 5.11363 22.8639 4.94179L24.2781 3.52758Z" fill="#CF1F25"/>
<path d="M19.4246 1.10283C19.5062 0.873906 19.3866 0.622162 19.1577 0.540645C18.9288 0.459129 18.6771 0.578707 18.5956 0.807631L17.9247 2.69175C17.8432 2.92067 17.9627 3.17226 18.1916 3.25378C18.4205 3.33529 18.6722 3.21587 18.7537 2.98695L19.4246 1.10283Z" fill="#CF1F25"/>
<path d="M26.27 8.08997C26.513 8.08997 26.71 7.89291 26.71 7.6499C26.71 7.4069 26.513 7.20996 26.27 7.20996H24.27C24.027 7.20996 23.83 7.4069 23.83 7.6499C23.83 7.89291 24.027 8.08997 24.27 8.08997H26.27Z" fill="#CF1F25"/>
<path d="M3.84026 4.94032C4.01209 5.11215 4.2906 5.11215 4.46243 4.94032C4.63426 4.76849 4.63435 4.4899 4.46252 4.31806L3.04831 2.90385C2.87648 2.73202 2.59788 2.73211 2.42605 2.90394C2.25422 3.07577 2.25422 3.35428 2.42605 3.52611L3.84026 4.94032Z" fill="#CF1F25"/>
<path d="M7.83277 3.03786C7.91428 3.26679 8.16591 3.38636 8.39484 3.30485C8.62376 3.22333 8.7433 2.97159 8.66178 2.74266L7.99088 0.858547C7.90936 0.629622 7.65766 0.5102 7.42874 0.591717C7.19981 0.673233 7.08035 0.924821 7.16186 1.15375L7.83277 3.03786Z" fill="#CF1F25"/>
<path d="M2.44002 8.08997C2.68302 8.08997 2.87996 7.89303 2.87996 7.65002C2.87996 7.40702 2.68302 7.20996 2.44002 7.20996H0.440018C0.197012 7.20996 -4.57764e-05 7.40702 -4.57764e-05 7.65002C-4.57764e-05 7.89303 0.197012 8.08997 0.440018 8.08997H2.44002Z" fill="#CF1F25"/>
</g>
<defs>
<clipPath id="clip0_8110_10">
<rect width="26.71" height="66.52" fill="white"/>
</clipPath>
</defs>
</svg>
