<svg width="62" height="69" viewBox="0 0 62 69" fill="none" xmlns="http://www.w3.org/2000/svg">
<g clip-path="url(#clip0_8072_229)">
<path d="M2.08 51.97V64.4C2.08 66.19 2.95 66.46 4.08 66.57H57.28C58.7 66.35 59.18 66.19 59.18 63.8V51.8L31.64 4.06995C30.55 2.60995 29.35 2.92995 28.37 4.50995" fill="#004A9C"/>
<path d="M0.229996 51.28V65.33" stroke="#004A9C" stroke-width="0.45"/>
<path d="M0.230026 65.33C0.500026 67.39 1.64001 68 3.71001 68" stroke="#004A9C" stroke-width="0.45"/>
<path d="M3.71001 67.99H59.13" stroke="#004A9C" stroke-width="0.45"/>
<path d="M59.13 67.97C60.44 67.7 61.13 67.3701 61.13 64.8101" stroke="#004A9C" stroke-width="0.45"/>
<path d="M61.09 64.84V51.28L32.18 1.14001" stroke="#004A9C" stroke-width="0.45"/>
<path d="M32.18 1.13995C31.896 0.817452 31.5384 0.568287 31.1375 0.41357C30.7366 0.258852 30.3043 0.203177 29.8773 0.251277C29.4503 0.299377 29.0412 0.449852 28.6848 0.689876C28.3284 0.9299 28.0351 1.25235 27.83 1.62994" stroke="#004A9C" stroke-width="0.45"/>
<path d="M27.82 1.62L0.220001 51.28" stroke="#004A9C" stroke-width="0.45"/>
<path d="M15.36 44.44L10.62 51.12H16.82L19.22 44.44" fill="white"/>
<path d="M47.7 44.71L50.36 51.06H44.37L43.13 44.71" fill="white"/>
<path d="M35.01 44.61L35.45 51.0699H39.45L38.57 46.4C37.16 47.1 36.18 47.32 36.18 46.89C35.37 45.59 37.18 45.31 36.56 44.61" fill="white"/>
<path d="M35.88 44.6H33.65V51.06H35.88V44.6Z" fill="white"/>
<path d="M24.88 44.44L24.5 45.42L23.36 51.12H28.75L27.72 44.44" fill="white"/>
<path d="M38.66 43.79C38.17 42.87 35.66 37.72 35.12 36.52C34.12 33 33.6 32.29 33.55 31.85C33.5056 31.1762 33.5766 30.4998 33.76 29.85C33.6792 28.6965 33.4985 27.5523 33.22 26.43C33.06 26 32.94 25.43 33.33 25.35C33.72 25.27 34.63 25.62 35.5 26.87C36.244 28.0511 36.8672 29.304 37.36 30.61C37.2929 31.4998 37.3467 32.3946 37.52 33.27C38.28 34.46 38.82 33.33 38.82 32.73C38.7761 31.6251 38.5947 30.53 38.28 29.47C38.0024 28.8714 37.8169 28.2341 37.73 27.58C37.6926 26.6699 37.4544 25.7793 37.0326 24.9719C36.6108 24.1646 36.0157 23.4605 35.29 22.91C34.69 22.31 32.56 20.73 32.29 20.41C32.02 20.09 31.53 19.92 32.08 18.13C32.3157 17.5056 32.3366 16.8205 32.1391 16.1829C31.9417 15.5454 31.5373 14.9919 30.99 14.61C30.6009 14.3723 30.1446 14.2689 29.6911 14.3159C29.2376 14.3629 28.8121 14.5576 28.48 14.87C27.48 15.87 27.99 16.77 27.88 17.1L27.56 17.64L27.88 17.75C27.88 17.75 27.78 17.75 28.05 18.46C28.32 19.17 29.05 19.38 28.97 20.14C28.97 20.73 27.34 21.93 27.34 22.91C27.2621 23.6559 26.9966 24.3699 26.5681 24.9854C26.1397 25.601 25.5624 26.0979 24.89 26.43C24.02 26.98 21.13 28.28 20.64 28.71C20.15 29.14 20.7 29.64 21.3 29.47C22.9551 29.048 24.5873 28.5406 26.19 27.95C26.63 27.79 27.19 27.09 27.56 27.47C27.93 27.85 27.72 31.47 27.01 33C26.3 34.53 24.56 37.93 23.74 39.24C23.2424 40.2837 22.844 41.3718 22.55 42.49C22.33 43.04 22.17 43.58 21.95 44.01L19.95 45.1C19.68 45.43 19.68 46.02 20.49 45.81L22.84 45.54C23.11 45.43 24.2 45.7 24.25 44.99V44.97L24.2 44.86C24.5211 44.5191 24.7937 44.1355 25.01 43.72C25.56 42.86 28.66 37.32 29.01 36.72C29.36 36.12 30.01 35.31 30.42 35.31C30.83 35.31 33.2 38.56 33.53 39.37C33.86 40.18 36.31 44.64 36.36 45.13V45.45L36.25 45.56C35.82 46.05 35.43 46.48 35.93 46.81C36.09 47.13 36.8 46.81 37.29 46.48L38.54 45.72C38.6268 45.6874 38.7056 45.6367 38.7711 45.5711C38.8366 45.5056 38.8874 45.4268 38.92 45.34C39.73 45.18 39.08 44.75 38.59 43.82" fill="white"/>
<path d="M17.38 62.41V60.5099C17.81 60.7799 18.03 61.05 18.03 61.43C18.0345 61.6427 17.9749 61.8517 17.859 62.0301C17.7431 62.2084 17.5762 62.3478 17.38 62.43M17.38 60.09V53.97H17.43C17.76 53.97 17.92 53.97 17.98 54.02L18.03 54.18C18.0035 54.2297 17.9865 54.284 17.98 54.34C17.98 54.45 17.92 54.51 17.92 54.56V60.04L17.38 60.09ZM13.51 56.09C14.0498 56.0669 14.5884 56.159 15.09 56.36C15.2334 56.427 15.3552 56.5327 15.4418 56.6652C15.5284 56.7977 15.5763 56.9517 15.58 57.11C15.5847 57.2445 15.5516 57.3777 15.4844 57.4943C15.4173 57.611 15.3187 57.7065 15.2 57.77C14.8858 58.0084 14.5043 58.1414 14.11 58.15V58.8C14.4163 58.8211 14.7237 58.8211 15.03 58.8C15.26 58.8 15.63 58.74 16.03 58.74H16.14L16.25 59.66L13.74 59.83H13.47V57.5C13.676 57.5003 13.88 57.4594 14.07 57.3799C14.18 57.3299 14.23 57.28 14.23 57.16C14.23 57.04 14.18 57.06 14.07 57C13.8778 56.9291 13.6749 56.8918 13.47 56.89L13.51 56.09ZM17.38 60.09H16.72V53.97H17.38V60.09ZM17.38 60.53L17.27 60.47C16.499 60.1343 15.6592 59.9869 14.82 60.04C14.3804 60.017 13.9396 60.054 13.51 60.15V61.0699C13.9431 60.9988 14.3811 60.9621 14.82 60.96C15.3121 60.9588 15.8036 60.9956 16.29 61.0699C16.61 61.1799 16.78 61.34 16.78 61.5C16.78 61.66 16.61 61.7699 16.29 61.8799C15.8114 62.0105 15.3158 62.0679 14.82 62.05C14.3811 62.0479 13.9431 62.0111 13.51 61.9399V62.86C13.9437 62.9261 14.3813 62.9629 14.82 62.97C15.6577 62.9994 16.4923 62.8529 17.27 62.54L17.38 62.43V60.53ZM13.51 55.05H15.91V55.91H13.51V55.05ZM13.51 53.96H14.71V54.77H13.51V53.96ZM12.92 58.85V58.14C12.5624 58.0898 12.2207 57.9599 11.92 57.7599C11.8148 57.6857 11.7296 57.5866 11.672 57.4714C11.6145 57.3563 11.5863 57.2287 11.59 57.1C11.5879 56.9467 11.6279 56.7958 11.7054 56.6636C11.783 56.5314 11.8952 56.4229 12.03 56.35C12.4922 56.1463 12.9956 56.0538 13.5 56.08V56.83C13.3146 56.832 13.1314 56.8693 12.96 56.9399C12.79 56.9999 12.74 57.05 12.74 57.1C12.74 57.15 12.79 57.2699 12.96 57.3199C13.129 57.3991 13.3134 57.4401 13.5 57.4399V59.77L11.65 59.87H11.38L11.22 59.93C11.1 59.93 11 59.93 11 59.93C11 59.93 10.89 59.82 10.84 59.71L10.67 58.9L12.92 58.85ZM13.51 54.77H12.31V53.97H13.51V54.77ZM13.51 55.91H11.17V55.05H13.51V55.91ZM13.51 60.15V61.0699H13.35C13.08 61.1799 12.92 61.34 12.92 61.5C12.92 61.66 13.08 61.7699 13.35 61.8799L13.51 61.9399V62.86C13.1368 62.7902 12.7717 62.683 12.42 62.54C12.2064 62.4443 12.0227 62.2924 11.8888 62.1003C11.755 61.9083 11.6759 61.6835 11.66 61.45C11.6748 61.2272 11.7548 61.0137 11.8899 60.8359C12.025 60.6581 12.2093 60.5239 12.42 60.45C12.7617 60.2799 13.1307 60.1716 13.51 60.1299" fill="white"/>
<path d="M27.99 62.5699V61.43H28.7V62.5699M27.99 60.5099V53.97H28.32C28.3958 53.9728 28.4704 53.9898 28.54 54.02V54.1299V54.29V54.45C28.492 54.535 28.4711 54.6327 28.48 54.73V57H29.48V58.2H28.48V60.48L27.99 60.5099ZM26.19 54.43V55.5699H23.19V57.9H23.58C24.0697 57.9249 24.5603 57.9249 25.05 57.9C25.6173 57.862 26.1818 57.7886 26.74 57.68L26.84 58.8199C26.24 58.9299 25.59 59.03 24.84 59.09C24.09 59.15 23.59 59.09 22.99 59.09H21.99V54.43H26.19ZM27.99 54V60.5099H27.28V53.97H27.99V54ZM27.99 61.43H23.74V60.43L23.8 60.21V60.1C23.8 59.94 23.8 59.88 23.8 59.83C23.8 59.78 23.58 59.78 23.25 59.78H22.58V62.6H28.02L27.99 61.43Z" fill="white"/>
<path d="M39.58 54.59C39.58 54.59 39.58 54.7 39.58 54.81V59.09H37.02V59.15L36.97 59.2C36.97 59.31 36.97 59.37 36.91 59.42V60.56H40.4V61.76H36.4V57.97H38.31V56.87H36.4V55.79H38.31V54.54H39.01C39.1914 54.5023 39.3786 54.5023 39.56 54.54M36.4 61.71H32.4V60.51H35.72V59.04H33.32V54.49H34.04C34.2185 54.4564 34.4016 54.4564 34.58 54.49V54.66V54.76V55.69H36.48V56.77H34.58V57.97H36.48L36.4 61.71Z" fill="white"/>
<path d="M47.92 58.97C47.92 58.97 47.92 59.0701 47.92 59.1801C47.92 59.2901 47.86 59.35 47.86 59.4V60.55H51.29V61.7401H43.29V60.57H46.58V58.97H47.29C47.61 58.97 47.83 58.97 47.89 59.03M50.39 54.63V55.77H45.39V57.5001H50.58V58.65H44.22V54.65L50.39 54.63Z" fill="white"/>
</g>
<defs>
<clipPath id="clip0_8072_229">
<rect width="61.31" height="68.22" fill="white"/>
</clipPath>
</defs>
</svg>
