<svg width="78" height="68" viewBox="0 0 78 68" fill="none" xmlns="http://www.w3.org/2000/svg">
<g clip-path="url(#clip0_8063_6965)">
<path d="M75.9501 6.23999L42.1001 64.44C40.3301 67.61 36.9701 67.61 35.1001 64.44L1.01011 6.19C-0.939895 2.83 0.780076 0.25 4.73008 0.25H72.1301C76.4401 0.25 77.92 2.77 75.91 6.25" fill="white"/>
<path d="M75.9501 6.23999L42.1001 64.44C40.3301 67.61 36.9701 67.61 35.1001 64.44L1.01011 6.19C-0.939895 2.83 0.780076 0.25 4.73008 0.25H72.1301C76.4501 0.25 77.9601 2.81999 75.9501 6.23999Z" stroke="#D20D18" stroke-width="0.49"/>
<path d="M74.07 5.82001L40.86 63.02C39.68 65.08 37.56 65.08 36.32 62.96L3.00001 5.71002C1.76001 3.65002 2.99993 2 5.41993 2H71.4199C74.0699 2 75.1899 3.83001 74.0199 5.82001" fill="#D20D18"/>
<path d="M38.15 52.74L12.31 8.53H64.1" fill="white"/>
<path d="M30.6599 26.64H31.4199C31.4245 26.3311 31.339 26.0276 31.1739 25.7665C31.0087 25.5055 30.7711 25.2982 30.49 25.17C29.8849 24.918 29.2076 24.9002 28.59 25.12C28.2515 25.188 27.9524 25.3841 27.7549 25.6672C27.5574 25.9504 27.4768 26.2989 27.5299 26.64C27.5899 27.29 28.12 27.76 29.12 27.94C30.12 28.12 30.95 28.46 30.84 29.11C30.73 29.76 30.3099 30 29.4199 30C29.0639 29.999 28.721 29.8652 28.4584 29.6248C28.1958 29.3843 28.0324 29.0546 28 28.7H27.24C27.2292 29.183 27.4087 29.6509 27.7399 30.0026C28.0711 30.3544 28.5273 30.5618 29.01 30.58C29.3903 30.6894 29.7932 30.6932 30.1754 30.591C30.5577 30.4888 30.9049 30.2845 31.18 30C31.3927 29.7887 31.5362 29.5179 31.5916 29.2232C31.6469 28.9286 31.6115 28.6241 31.49 28.35C31.015 27.7824 30.3365 27.4234 29.6 27.35C28.6 27.17 28.1199 26.88 28.2999 26.23C28.5299 25.76 29.0699 25.59 29.8899 25.7C30.1115 25.7343 30.3128 25.8492 30.4549 26.0226C30.597 26.1961 30.67 26.416 30.6599 26.64Z" fill="#231916"/>
<path d="M32.66 25.05V30.58H36.02V29.88H33.37V25.05" fill="#231916"/>
<path d="M39.3299 24.99C39.8957 24.9559 40.4586 25.0926 40.9458 25.3821C41.433 25.6717 41.822 26.1008 42.0625 26.614C42.303 27.1272 42.3839 27.7008 42.2947 28.2605C42.2054 28.8202 41.9502 29.3401 41.562 29.7531C41.1738 30.1661 40.6706 30.453 40.1175 30.5766C39.5645 30.7003 38.987 30.6551 38.46 30.4468C37.9329 30.2385 37.4804 29.8768 37.1612 29.4085C36.8421 28.9401 36.6709 28.3867 36.6699 27.82C36.6271 27.4526 36.6651 27.0803 36.7812 26.729C36.8973 26.3778 37.0888 26.0562 37.3422 25.7867C37.5955 25.5171 37.9046 25.3062 38.2479 25.1686C38.5913 25.031 38.9606 24.97 39.3299 24.99Z" fill="#231916"/>
<path d="M39.27 25.64C39.5369 25.6442 39.8 25.7038 40.0427 25.8149C40.2854 25.926 40.5024 26.0862 40.68 26.2855C40.8576 26.4847 40.992 26.7186 41.0747 26.9724C41.1573 27.2262 41.1863 27.4944 41.16 27.76C41.1933 28.033 41.17 28.31 41.0914 28.5736C41.0128 28.8372 40.8807 29.0818 40.7033 29.292C40.5259 29.5022 40.3071 29.6737 40.0605 29.7955C39.8139 29.9173 39.5447 29.9869 39.27 30C38.9967 29.9894 38.7288 29.9209 38.484 29.7989C38.2392 29.6769 38.0231 29.5043 37.8501 29.2925C37.677 29.0807 37.551 28.8345 37.4803 28.5703C37.4096 28.3061 37.3959 28.0299 37.44 27.76C37.4109 27.4987 37.4361 27.2343 37.514 26.9832C37.5918 26.7321 37.7208 26.4997 37.8925 26.3007C38.0643 26.1017 38.2752 25.9404 38.5123 25.8267C38.7493 25.713 39.0073 25.6494 39.27 25.64Z" fill="white"/>
<path d="M42.33 25.05L43.75 30.58H44.7L46.11 25.7L47.64 30.58H48.47L49.88 25.05H49.11L48.05 29.82L46.64 25.05H45.58L44.22 29.82L43.1 25.05" fill="#231916"/>
<path d="M29.71 14.94V16.18H29.6V14.94M29.6 18.59C29.678 18.6002 29.7549 18.6169 29.83 18.64C29.7757 18.7553 29.6973 18.8576 29.6 18.94V18.59ZM29.6 21.64H32.37V22.94H29.6V21.64ZM29.6 17.88H30.84V20.53H32.25V13.71L32.36 13.53C32.36 13.41 32.36 13.35 32.43 13.3L32.36 13.18C32.26 13.1829 32.1606 13.1624 32.07 13.12H30.84V16.59H29.6V17.88ZM29.6 16.18H27.6C27.6548 16.6795 27.8606 17.1505 28.19 17.53C28.5458 18.0183 29.0408 18.3877 29.61 18.59V18.94L29.43 19.18C29.2815 19.3682 29.1445 19.5652 29.0199 19.77C28.535 19.5568 28.0942 19.2549 27.72 18.88C27.6 18.77 27.54 18.64 27.43 18.53V14.94H29.61L29.6 16.18ZM29.6 16.59H29.35V17.89H29.6V16.59ZM29.6 22.94H27.45V21.64H29.6301L29.6 22.94ZM27.42 13.24H28.3V14.35H27.45L27.42 13.24ZM27.42 18.53C27.1962 18.2865 27.0167 18.0055 26.8899 17.7C26.666 18.1258 26.3642 18.5057 26 18.82C25.5604 19.1594 25.0881 19.4542 24.59 19.7C24.4667 19.4951 24.3261 19.3011 24.17 19.12C24.0307 18.9101 23.8735 18.7127 23.7 18.53C24.4061 18.4149 25.0517 18.0621 25.53 17.53C25.9319 17.1897 26.1835 16.7046 26.23 16.18H24.11V14.94H27.45L27.42 18.53ZM27.42 14.35H25.35V13.23H27.45L27.42 14.35ZM27.42 21.64V22.94H24.99V19.82H25.83C26.0415 19.7804 26.2585 19.7804 26.47 19.82C26.53 19.88 26.53 19.94 26.47 20.12L26.41 20.29V21.64H27.42Z" fill="#231916"/>
<path d="M39.91 14.94V16.18H39.8V14.94M39.8 18.59C39.91 18.59 39.98 18.64 40.09 18.64C39.98 18.77 39.91 18.82 39.8 18.94V18.59ZM39.8 21.64H42.57V22.94H39.8V21.64ZM39.8 17.88H41.03V20.53H42.45V14.06C42.4405 13.9402 42.4611 13.8198 42.5101 13.71L42.57 13.53C42.57 13.41 42.6301 13.35 42.6301 13.3L42.57 13.18C42.4698 13.1845 42.3701 13.1639 42.28 13.12H41.03V16.59H39.8V17.88ZM39.8 16.18H37.85C37.8793 16.6748 38.0649 17.1475 38.3801 17.53C38.7393 18.0148 39.233 18.3834 39.8 18.59V18.94L39.62 19.18C39.5 19.41 39.3799 19.59 39.2699 19.77C38.7783 19.569 38.3352 19.2656 37.97 18.88L37.62 18.53V14.94H39.8V16.18ZM39.8 16.59H39.56V17.89H39.8V16.59ZM39.8 22.94H37.62V21.64H39.8V22.94ZM37.62 13.24H38.56V14.35H37.62V13.24ZM37.62 18.53C37.3967 18.2841 37.2144 18.0038 37.08 17.7C36.909 18.1551 36.6017 18.5462 36.2 18.82C35.7769 19.1875 35.2974 19.4847 34.78 19.7C34.6895 19.492 34.5718 19.297 34.43 19.12C34.25 18.88 34.07 18.7 33.96 18.53C34.6604 18.3986 35.301 18.0485 35.79 17.53C36.1542 17.1685 36.3807 16.6909 36.43 16.18H34.31V14.94H37.62V18.53ZM37.62 14.35H35.55V13.23H37.62V14.35ZM37.62 21.64V22.94H35.2V19.82H36.0199C36.2347 19.7792 36.4552 19.7792 36.67 19.82C36.73 19.88 36.73 19.94 36.67 20.12L36.61 20.29V21.64H37.62Z" fill="#231916"/>
<path d="M50.35 15.35V16.65H47.35V15.35M47.35 21.82V20.64H47.41C47.5602 20.6374 47.7077 20.5988 47.8399 20.5275C47.9721 20.4561 48.0853 20.3541 48.17 20.23C48.2622 20.1159 48.3308 19.9847 48.372 19.844C48.4132 19.7032 48.4261 19.5558 48.41 19.41C48.4231 19.1177 48.3387 18.8292 48.17 18.59C48.077 18.4784 47.9609 18.3884 47.8296 18.3262C47.6984 18.2641 47.5552 18.2312 47.41 18.23H47.35V17.06C47.687 17.0368 48.0249 17.0884 48.3395 17.2112C48.6542 17.3339 48.9377 17.5248 49.17 17.77C49.5932 18.2111 49.8298 18.7987 49.83 19.41C49.8395 20.044 49.6029 20.6569 49.17 21.12C48.9344 21.3601 48.65 21.5469 48.336 21.6677C48.022 21.7884 47.6858 21.8404 47.35 21.82ZM47.35 13.47H48.94V14.82H47.35V13.47ZM52.7699 13.18V13.41V13.59L52.71 13.83V23.23H51.35V13.12H52.18C52.3943 13.1279 52.608 13.1479 52.82 13.18M47.3999 16.65H44.57V15.36H47.3999V16.65ZM47.3999 14.77H45.92V13.47H47.3999V14.77ZM47.3999 17.06V18.23C47.253 18.2297 47.108 18.2619 46.9749 18.3241C46.8418 18.3863 46.7241 18.4771 46.6301 18.59C46.4642 18.8301 46.3831 19.1187 46.3999 19.41C46.3819 19.5551 46.3929 19.7023 46.4324 19.8431C46.4719 19.9839 46.5391 20.1154 46.6301 20.23C46.7109 20.3601 46.8247 20.4665 46.9599 20.5385C47.0951 20.6105 47.2469 20.6455 47.3999 20.64V21.82C47.0634 21.8337 46.7275 21.7787 46.4129 21.6584C46.0983 21.538 45.8115 21.3548 45.57 21.12C45.1615 20.6466 44.9503 20.0346 44.98 19.41C44.9592 18.808 45.1704 18.2209 45.57 17.77C45.8081 17.5299 46.0942 17.3426 46.4095 17.2203C46.7248 17.098 47.0622 17.0433 47.3999 17.06Z" fill="#231916"/>
</g>
<defs>
<clipPath id="clip0_8063_6965">
<rect width="77.08" height="67.06" fill="white"/>
</clipPath>
</defs>
</svg>
