<svg width="56" height="70" viewBox="0 0 56 70" fill="none" xmlns="http://www.w3.org/2000/svg">
<g clip-path="url(#clip0_8063_8576)">
<path d="M35.8567 7.16846H33.0592V69.8857H35.8567V7.16846Z" fill="white"/>
<path d="M33.0592 7.17566V69.8929" stroke="#231916" stroke-width="0.41"/>
<path d="M35.9646 7.17566V69.8929" stroke="#231916" stroke-width="0.41"/>
<path d="M21.6535 7.16846H18.8488V69.8857H21.6535V7.16846Z" fill="white"/>
<path d="M18.8488 7.17566V69.8929" stroke="#231916" stroke-width="0.41"/>
<path d="M21.7542 7.17566V69.8929" stroke="#231916" stroke-width="0.41"/>
<path d="M55.849 0V70" stroke="#231916" stroke-width="0.41"/>
<path d="M0.0791016 1.09961H2.76871" stroke="#231916" stroke-width="0.41"/>
<path d="M47.6291 1.09961H55.813" stroke="#231916" stroke-width="0.41"/>
<path d="M0.0791016 7.24707H2.76871" stroke="#231916" stroke-width="0.41"/>
<path d="M47.6651 7.24707H55.813" stroke="#231916" stroke-width="0.41"/>
<path d="M36.2163 1.09961H44.4002" stroke="#231916" stroke-width="0.41"/>
<path d="M36.2522 7.24707H44.4002" stroke="#231916" stroke-width="0.41"/>
<path d="M24.8034 1.09961H32.9873" stroke="#231916" stroke-width="0.41"/>
<path d="M24.8034 7.24707H32.9873" stroke="#231916" stroke-width="0.41"/>
<path d="M13.3546 1.09961H21.5385" stroke="#231916" stroke-width="0.41"/>
<path d="M13.3905 7.24707H21.5385" stroke="#231916" stroke-width="0.41"/>
<path d="M1.94888 1.09961H10.1256" stroke="#231916" stroke-width="0.41"/>
<path d="M1.97766 7.24707H10.1256" stroke="#231916" stroke-width="0.41"/>
<path d="M0.151016 1.09961V5.71201" stroke="#231916" stroke-width="0.41"/>
<path d="M2.62489 1.09961V5.71201" stroke="#231916" stroke-width="0.41"/>
<path d="M0.151016 6.71155V13.0661" stroke="#231916" stroke-width="0.41"/>
<path d="M2.62489 6.71155V13.0661" stroke="#231916" stroke-width="0.41"/>
<path d="M0.151016 15.2367V19.5992" stroke="#231916" stroke-width="0.41"/>
<path d="M2.62489 15.2367V19.5992" stroke="#231916" stroke-width="0.41"/>
<path d="M0.151016 21.7697V26.1393" stroke="#231916" stroke-width="0.41"/>
<path d="M2.62489 21.7697V26.1393" stroke="#231916" stroke-width="0.41"/>
<path d="M0.151016 28.3027V32.6724" stroke="#231916" stroke-width="0.41"/>
<path d="M2.62489 28.3027V32.6724" stroke="#231916" stroke-width="0.41"/>
<path d="M0.151016 34.8429V39.2054" stroke="#231916" stroke-width="0.41"/>
<path d="M2.62489 34.8429V39.2054" stroke="#231916" stroke-width="0.41"/>
<path d="M0.151016 41.376V45.7456" stroke="#231916" stroke-width="0.41"/>
<path d="M2.62489 41.376V45.7456" stroke="#231916" stroke-width="0.41"/>
<path d="M0.151016 47.9091V52.2787" stroke="#231916" stroke-width="0.41"/>
<path d="M2.62489 47.9091V52.2787" stroke="#231916" stroke-width="0.41"/>
<path d="M0.151016 54.442V58.8117" stroke="#231916" stroke-width="0.41"/>
<path d="M2.62489 54.442V58.8117" stroke="#231916" stroke-width="0.41"/>
<path d="M0.151016 60.9823V69.3574" stroke="#231916" stroke-width="0.41"/>
<path d="M2.62489 60.9823V69.3574" stroke="#231916" stroke-width="0.41"/>
</g>
<defs>
<clipPath id="clip0_8063_8576">
<rect width="56" height="70" fill="white"/>
</clipPath>
</defs>
</svg>
