<svg width="71" height="71" viewBox="0 0 71 71" fill="none" xmlns="http://www.w3.org/2000/svg">
<g clip-path="url(#clip0_8072_651)">
<path d="M5.83997 70.4001C5.10366 70.4094 4.37292 70.2717 3.69058 69.9948C3.00825 69.718 2.38808 69.3076 1.86646 68.7878C1.34484 68.2681 0.932284 67.6494 0.652986 66.968C0.373687 66.2867 0.233274 65.5564 0.239991 64.8201" stroke="#231F20" stroke-width="0.49" stroke-linecap="round" stroke-linejoin="round"/>
<path d="M0.25 64.7901V5.83008" stroke="#231F20" stroke-width="0.49" stroke-linecap="round" stroke-linejoin="round"/>
<path d="M0.240005 5.83C0.247557 4.36184 0.816427 2.95217 1.83 1.89C2.35464 1.36431 2.97827 0.947806 3.66484 0.664594C4.35141 0.381383 5.08732 0.237116 5.83 0.240034" stroke="#231F20" stroke-width="0.49" stroke-linecap="round" stroke-linejoin="round"/>
<path d="M5.85001 0.23999H65" stroke="#231F20" stroke-width="0.49" stroke-linecap="round" stroke-linejoin="round"/>
<path d="M64.98 0.23999C66.4594 0.247815 67.8762 0.837579 68.9241 1.88177C69.972 2.92597 70.5669 4.34064 70.58 5.81995" stroke="#231F20" stroke-width="0.49" stroke-linecap="round" stroke-linejoin="round"/>
<path d="M70.6 5.83008V64.7901" stroke="#231F20" stroke-width="0.49" stroke-linecap="round" stroke-linejoin="round"/>
<path d="M70.6 64.79C70.6037 65.5224 70.4595 66.248 70.1759 66.9233C69.8924 67.5987 69.4754 68.2098 68.95 68.72C68.4277 69.2489 67.8046 69.6674 67.1174 69.9509C66.4303 70.2343 65.6933 70.3768 64.95 70.37" stroke="#231F20" stroke-width="0.49" stroke-linecap="round" stroke-linejoin="round"/>
<path d="M65 70.3701H5.85001" stroke="#231F20" stroke-width="0.49" stroke-linecap="round" stroke-linejoin="round"/>
<path d="M5.83998 68.25C4.91396 68.2559 4.02294 67.8966 3.36 67.25C2.69749 66.5968 2.31701 65.7102 2.3 64.78" stroke="#231F20" stroke-width="0.49" stroke-linecap="round" stroke-linejoin="round"/>
<path d="M2.3 64.7901V5.83008" stroke="#231F20" stroke-width="0.49" stroke-linecap="round" stroke-linejoin="round"/>
<path d="M2.3 5.83005C2.31487 4.89938 2.69568 4.01204 3.36 3.36008C3.68702 3.0381 4.07448 2.78396 4.50011 2.61233C4.92573 2.44071 5.38109 2.355 5.83998 2.36008" stroke="#231F20" stroke-width="0.49" stroke-linecap="round" stroke-linejoin="round"/>
<path d="M5.85001 2.36011H65" stroke="#231F20" stroke-width="0.49" stroke-linecap="round" stroke-linejoin="round"/>
<path d="M64.98 2.40003C65.4376 2.39329 65.8918 2.47846 66.3159 2.65046C66.7399 2.82245 67.1251 3.0778 67.4487 3.40137C67.7723 3.72494 68.0276 4.11014 68.1996 4.53418C68.3716 4.95823 68.4568 5.41245 68.45 5.87" stroke="#231F20" stroke-width="0.49" stroke-linecap="round" stroke-linejoin="round"/>
<path d="M68.48 5.83008V64.7901" stroke="#231F20" stroke-width="0.49" stroke-linecap="round" stroke-linejoin="round"/>
<path d="M68.47 64.79C68.4754 65.2468 68.3892 65.6999 68.2166 66.1228C68.044 66.5457 67.7885 66.9297 67.4651 67.2522C67.1416 67.5747 66.7569 67.8291 66.3335 68.0005C65.9101 68.1719 65.4567 68.2567 65 68.25" stroke="#231F20" stroke-width="0.49" stroke-linecap="round" stroke-linejoin="round"/>
<path d="M65 68.25H5.85001" stroke="#231F20" stroke-width="0.49" stroke-linecap="round" stroke-linejoin="round"/>
<path d="M67.95 55.0901H2.84" stroke="#231F20" stroke-width="0.49" stroke-linecap="round" stroke-linejoin="round"/>
<path d="M25.72 59.2599V60.4H23.54V59.23M23.54 65.17V64.05C23.6517 64.0502 23.7609 64.0169 23.8536 63.9545C23.9462 63.8922 24.0181 63.8035 24.06 63.7C24.1936 63.4879 24.2599 63.2404 24.25 62.99C24.2502 62.7249 24.1849 62.4638 24.06 62.23C24.0073 62.1387 23.9315 62.0629 23.8402 62.0103C23.749 61.9576 23.6454 61.9299 23.54 61.93V60.7599C23.8134 60.7641 24.0823 60.8302 24.3265 60.9531C24.5707 61.0761 24.7839 61.2528 24.95 61.47C25.2809 61.9 25.4602 62.4274 25.4602 62.97C25.4602 63.5126 25.2809 64.0399 24.95 64.47C24.7789 64.6772 24.5632 64.8433 24.3192 64.9558C24.0751 65.0683 23.8088 65.1244 23.54 65.1199M23.54 57.47H24.83V58.65H23.54V57.47ZM29.38 57.24C29.43 57.24 29.43 57.35 29.38 57.47L29.32 57.66V66.53H27.98V62.4999H27.38V66.2599H26.09V57.4H26.98C27.28 57.4 27.39 57.4 27.45 57.47C27.51 57.54 27.52 57.47 27.45 57.65L27.39 57.8199V61.23H27.99V57.23H28.81C29.11 57.23 29.29 57.23 29.35 57.29M23.54 60.4H21.41V59.23H23.54V60.4ZM23.54 58.7H22.54V57.52H23.54V58.7ZM23.54 60.7599V61.93C23.4329 61.9281 23.3273 61.9549 23.2341 62.0077C23.1409 62.0604 23.0635 62.1372 23.01 62.23C22.8851 62.4638 22.8198 62.7249 22.82 62.99C22.8101 63.2404 22.8764 63.4879 23.01 63.7C23.0525 63.8051 23.1259 63.8949 23.2206 63.9574C23.3152 64.0199 23.4266 64.0522 23.54 64.05V65.17H23.47C23.2016 65.1723 22.936 65.1152 22.6922 65.0029C22.4485 64.8905 22.2325 64.7256 22.06 64.52C21.7445 64.073 21.5798 63.537 21.59 62.99C21.5709 62.4448 21.7365 61.9092 22.06 61.47C22.2182 61.2445 22.4298 61.0617 22.6758 60.9378C22.9218 60.8139 23.1947 60.7528 23.47 60.7599H23.54Z" fill="#231F20"/>
<path d="M46.66 58.02V59.26H46.59V58.02M46.59 63.73L46.95 64.08C46.83 64.2 46.71 64.3701 46.59 64.4901V63.73ZM46.59 61.73H47.3V66.4H48.54V57.81L48.6 57.64C48.6297 57.5956 48.6455 57.5435 48.6455 57.4901C48.6455 57.4367 48.6297 57.3844 48.6 57.34C48.4048 57.3074 48.2078 57.2874 48.01 57.28H47.3V60.45H46.59V61.73ZM50.37 57.32C50.43 57.32 50.43 57.44 50.37 57.56L50.31 57.73V66.61H48.98V57.26H49.81C50.11 57.26 50.28 57.26 50.34 57.32M46.56 59.26H45.33V59.85C45.3115 60.6673 45.4298 61.4818 45.68 62.26C45.8674 62.8061 46.1671 63.3069 46.56 63.73V64.4901L46.51 64.61C46.347 64.7533 46.2232 64.9357 46.15 65.14C45.7449 64.8544 45.421 64.4685 45.21 64.02C44.9532 63.5499 44.7933 63.033 44.74 62.5C44.5962 63.0191 44.3772 63.5144 44.09 63.97C43.8112 64.4388 43.4524 64.8551 43.03 65.2C42.8587 65.0587 42.7013 64.9013 42.56 64.73C42.432 64.5471 42.2729 64.388 42.09 64.26C42.7856 63.7583 43.3178 63.0626 43.62 62.26C43.9263 61.4758 44.0856 60.6419 44.09 59.8V59.21H42.73V57.97H46.56V59.26ZM46.56 60.4901H46.15V61.72H46.56V60.4901Z" fill="#231F20"/>
<path d="M2.55 49.7699L62.56 2.63989" stroke="#231F20" stroke-width="0.65" stroke-linecap="round" stroke-linejoin="round"/>
<path d="M2.75999 52.69L66.17 3.21997" stroke="#231F20" stroke-width="0.65" stroke-linecap="round" stroke-linejoin="round"/>
<path d="M4.71001 54.8101L68.09 5.08008" stroke="#231F20" stroke-width="0.65" stroke-linecap="round" stroke-linejoin="round"/>
<path d="M8.81 54.98L68.4 8.02002" stroke="#231F20" stroke-width="0.65" stroke-linecap="round" stroke-linejoin="round"/>
<path d="M16.3 40.7V49.01C16.3 50.2 16.89 50.38 17.65 50.46H53.19C54.19 50.31 54.46 50.2 54.46 48.61V40.56L36.09 8.71999C35.36 7.71999 34.53 7.95997 33.91 9.00997" fill="#0055A0"/>
<path d="M15.11 40.27V49.66" stroke="#0055A0" stroke-width="0.45"/>
<path d="M15.1 49.6599C15.28 51.0399 16.05 51.4299 17.39 51.4299" stroke="#0055A0" stroke-width="0.45"/>
<path d="M17.4 51.4399H54.43" stroke="#0055A0" stroke-width="0.45"/>
<path d="M54.43 51.4C55.3 51.21 55.73 50.99 55.73 49.29" stroke="#0055A0" stroke-width="0.45"/>
<path d="M55.74 49.33V40.27L36.46 6.76001" stroke="#0055A0" stroke-width="0.45"/>
<path d="M36.46 6.75992C36.2696 6.543 36.0295 6.37536 35.7603 6.27128C35.4911 6.16719 35.2006 6.12979 34.9138 6.16221C34.627 6.19462 34.3522 6.29589 34.113 6.45743C33.8738 6.61898 33.6772 6.83599 33.54 7.08994" stroke="#0055A0" stroke-width="0.45"/>
<path d="M33.55 7.09009L15.11 40.2701" stroke="#0055A0" stroke-width="0.45"/>
<path d="M44.82 35.3099L43.09 35.7L40.8 30.7H35.22L35.15 29.7H39.29V28.3H35.05L34.83 25.02H34.98C35.3144 25.0216 35.6422 24.928 35.9253 24.7501C36.2084 24.5722 36.435 24.3174 36.5785 24.0154C36.722 23.7134 36.7764 23.3768 36.7356 23.0449C36.6947 22.7131 36.5602 22.3998 36.3478 22.1416C36.1353 21.8834 35.8537 21.6912 35.5359 21.5872C35.2181 21.4833 34.8774 21.472 34.5534 21.5547C34.2295 21.6374 33.9357 21.8107 33.7067 22.0543C33.4776 22.2978 33.3227 22.6016 33.26 22.93C33.26 23.03 33.2 23.1 33.2 23.1L33.99 32.17H39.79L42.25 37.41L45.25 36.57" fill="white"/>
<path d="M35.58 40.3201C33.9408 40.3201 32.3684 39.671 31.2065 38.5148C30.0446 37.3585 29.3879 35.7892 29.38 34.1501C29.3756 33.0833 29.6502 32.034 30.1764 31.1061C30.7026 30.1782 31.4623 29.4039 32.38 28.8601L33.23 30.2601C32.5563 30.6607 31.9988 31.2304 31.613 31.9127C31.2271 32.595 31.0261 33.3662 31.03 34.1501C31.0393 35.1859 31.4011 36.1878 32.0557 36.9906C32.7103 37.7934 33.6188 38.3495 34.6316 38.5671C35.6443 38.7848 36.701 38.6512 37.6277 38.1882C38.5544 37.7253 39.2958 36.9606 39.73 36.0201L41.23 36.7001C40.7329 37.7805 39.9364 38.6957 38.935 39.3373C37.9336 39.9789 36.7693 40.32 35.58 40.3201Z" fill="white"/>
<path d="M25.16 43.1799V43.9099H24.16V44.0299C24.1673 44.1354 24.198 44.2378 24.25 44.3299C24.3172 44.4604 24.4012 44.5814 24.5 44.6899C24.6196 44.8224 24.7577 44.9369 24.91 45.0299C25.0765 45.1351 25.2588 45.2128 25.45 45.2599C25.3595 45.3608 25.276 45.4677 25.2 45.5799C25.1161 45.702 25.0393 45.8289 24.97 45.9599C24.6989 45.8356 24.4464 45.6741 24.22 45.4799C24.0304 45.3274 23.8796 45.132 23.78 44.9099C23.6739 45.1365 23.5205 45.3376 23.33 45.4999C23.0864 45.7139 22.8137 45.8924 22.52 46.0299C22.4424 45.913 22.3555 45.8027 22.26 45.6999L21.98 45.3999C22.1877 45.3659 22.3876 45.2948 22.57 45.1899C22.7357 45.0869 22.887 44.9625 23.02 44.8199C23.1385 44.694 23.2394 44.5528 23.32 44.3999C23.3892 44.2887 23.4272 44.1609 23.43 44.0299V43.9199H22.36V43.1899M26.1 46.6099C26.2443 46.6812 26.3662 46.7906 26.4526 46.9264C26.539 47.0622 26.5865 47.219 26.59 47.3799C26.5866 47.5447 26.5394 47.7056 26.4533 47.8462C26.3672 47.9868 26.2453 48.102 26.1 48.1799C25.6213 48.417 25.0942 48.5403 24.56 48.5403C24.0258 48.5403 23.4988 48.417 23.02 48.1799C22.8748 48.102 22.7528 47.9868 22.6667 47.8462C22.5806 47.7056 22.5334 47.5447 22.53 47.3799C22.5335 47.219 22.581 47.0622 22.6674 46.9264C22.7538 46.7906 22.8757 46.6812 23.02 46.6099C23.5026 46.3861 24.0281 46.2701 24.56 46.2701C25.0919 46.2701 25.6175 46.3861 26.1 46.6099ZM23.63 47.0399C23.44 47.1299 23.34 47.2399 23.34 47.3899C23.3453 47.4748 23.3757 47.5563 23.4273 47.6239C23.479 47.6915 23.5495 47.7424 23.63 47.7699C23.9282 47.8901 24.2488 47.9447 24.57 47.9299C24.8813 47.9422 25.1916 47.8876 25.48 47.7699C25.5605 47.7424 25.6311 47.6915 25.6827 47.6239C25.7343 47.5563 25.7647 47.4748 25.77 47.3899C25.77 47.2399 25.67 47.1299 25.48 47.0399C25.1887 46.9342 24.8796 46.8866 24.57 46.8999C24.2507 46.888 23.932 46.9354 23.63 47.0399ZM26.39 42.9099H26.54V42.9699V43.0799V43.1999V43.3599V44.3599H27.22V45.1199H26.54V46.3999H25.74V42.9299H26.43" fill="white"/>
<path d="M29.7 43.7801C29.9225 44.2688 30.0254 44.8036 30 45.3401C30.0263 45.883 29.9235 46.4245 29.7 46.9201C29.6263 47.0947 29.5044 47.2448 29.3486 47.3528C29.1927 47.4608 29.0094 47.5223 28.82 47.5301C28.6272 47.526 28.4396 47.4663 28.2799 47.3581C28.1202 47.2498 27.9952 47.0977 27.92 46.9201C27.7053 46.4221 27.6061 45.8819 27.63 45.3401C27.607 44.8048 27.7062 44.2713 27.92 43.7801C27.9967 43.6043 28.1223 43.4543 28.2819 43.3479C28.4415 43.2415 28.6283 43.1833 28.82 43.1801C29.0083 43.187 29.1908 43.247 29.3465 43.3532C29.5022 43.4593 29.6248 43.6073 29.7 43.7801ZM28.49 44.26C28.4068 44.6138 28.3698 44.9768 28.38 45.3401C28.3694 45.7099 28.4064 46.0796 28.49 46.44C28.57 46.68 28.68 46.8001 28.82 46.8001C28.95 46.8001 29.06 46.68 29.13 46.44C29.2179 46.0802 29.2582 45.7104 29.25 45.3401C29.2579 44.9763 29.2175 44.6132 29.13 44.26C29.06 44.02 28.95 43.9001 28.82 43.9001C28.69 43.9001 28.57 44.02 28.49 44.26ZM32.4 42.9301C32.4 42.9301 32.4 42.99 32.4 43.06V43.1701V48.45H31.62V46.01H31.23V48.2401H30.46V42.9901H30.98C31.0826 42.9724 31.1875 42.9724 31.29 42.9901C31.29 42.9901 31.29 43.05 31.29 43.12V43.2201V43.3501V45.26H31.68V42.8601H32.17C32.2821 42.836 32.398 42.836 32.51 42.8601" fill="white"/>
<path d="M35.55 43.48C35.7762 43.7637 35.8964 44.1173 35.89 44.48C35.9063 44.8625 35.7858 45.2383 35.55 45.54C35.4213 45.6906 35.2596 45.8095 35.0775 45.8875C34.8954 45.9656 34.6978 46.0007 34.5 45.99C34.2962 46.0016 34.0924 45.9671 33.9037 45.8892C33.715 45.8113 33.5463 45.692 33.41 45.54C33.1706 45.2397 33.0465 44.8638 33.06 44.48C33.0573 44.1162 33.181 43.7627 33.41 43.48C33.5463 43.328 33.715 43.2086 33.9037 43.1307C34.0924 43.0528 34.2962 43.0184 34.5 43.03C34.6978 43.0193 34.8954 43.0544 35.0775 43.1324C35.2596 43.2104 35.4213 43.3294 35.55 43.48ZM34.35 46.57C34.35 46.57 34.35 46.65 34.35 46.72V46.82V47.58H37.71V48.3H33.55V46.53H33.98C34.0953 46.5045 34.2147 46.5045 34.33 46.53M33.99 43.92C33.8804 44.0895 33.8246 44.2882 33.83 44.49C33.8225 44.6952 33.8784 44.8976 33.99 45.07C34.0442 45.148 34.1181 45.2104 34.2041 45.2508C34.2901 45.2912 34.3853 45.3082 34.48 45.3C34.5687 45.3051 34.6571 45.2864 34.7362 45.246C34.8153 45.2056 34.8822 45.1448 34.93 45.07C35.044 44.8991 35.0969 44.6947 35.08 44.49C35.0954 44.2886 35.0426 44.0878 34.93 43.92C34.8803 43.8477 34.8127 43.7895 34.7339 43.7509C34.655 43.7124 34.5676 43.6948 34.48 43.7C34.3864 43.6926 34.2925 43.709 34.2069 43.7474C34.1213 43.7858 34.0467 43.8452 33.99 43.92ZM37.64 42.92C37.64 42.92 37.64 42.98 37.64 43.05V43.14V46.98H36.85V42.88H37.33C37.4453 42.8545 37.5647 42.8545 37.68 42.88" fill="white"/>
<path d="M42.62 46.0301C42.62 46.0301 42.62 46.1101 42.62 46.1901V46.3001V46.4501V47.0401H44.86V47.7801H39.71V47.0401H41.83V46.0401H42.27C42.4021 46.0145 42.5379 46.0145 42.67 46.0401M44.34 43.2801C44.34 43.2801 44.34 43.2801 44.34 43.4101V43.4701V46.1101H40.28V43.2401H40.75C40.8626 43.2218 40.9774 43.2218 41.09 43.2401C41.09 43.2401 41.09 43.3001 41.09 43.3601V43.4301V44.0001H43.55V43.2101H43.98C44.0988 43.1858 44.2212 43.1858 44.34 43.2101M40.98 45.4001H43.44V44.7001H40.98V45.4001Z" fill="white"/>
<path d="M47.3 47.2V46.6H48.09V47.2H50.28V47.9H45.13V47.2M49.94 44.56H45.47V43.9301H49.98L49.94 44.56ZM46.38 46.45C46.233 46.3915 46.1063 46.2911 46.0157 46.1614C45.9251 46.0316 45.8744 45.8782 45.87 45.72C45.8729 45.5616 45.9217 45.4073 46.0104 45.276C46.0992 45.1447 46.2241 45.0419 46.37 44.98C46.7888 44.7853 47.2488 44.6961 47.71 44.72C48.1582 44.6977 48.6049 44.7871 49.01 44.98C49.1597 45.0388 49.2888 45.1403 49.3813 45.2719C49.4737 45.4034 49.5254 45.5593 49.53 45.72C49.5277 45.8774 49.479 46.0306 49.3901 46.1605C49.3012 46.2903 49.1759 46.391 49.03 46.45C48.6198 46.6376 48.1704 46.7234 47.72 46.7C47.2598 46.7239 46.8006 46.6383 46.38 46.45ZM48.79 43.64H46.64V43.01H48.79V43.64ZM46.92 45.4C46.75 45.47 46.67 45.57 46.67 45.7C46.67 45.83 46.75 45.9 46.92 45.97C47.1697 46.0444 47.4296 46.0782 47.69 46.07C47.9569 46.0779 48.2235 46.0442 48.48 45.97C48.65 45.9 48.74 45.82 48.74 45.71C48.74 45.6 48.65 45.47 48.48 45.4C48.2253 45.3166 47.9578 45.2794 47.69 45.29C47.4289 45.2809 47.1682 45.3181 46.92 45.4Z" fill="white"/>
</g>
<defs>
<clipPath id="clip0_8072_651">
<rect width="70.85" height="70.61" fill="white"/>
</clipPath>
</defs>
</svg>
