<svg width="76" height="67" viewBox="0 0 76 67" fill="none" xmlns="http://www.w3.org/2000/svg">
<g clip-path="url(#clip0_8110_2)">
<path d="M74.67 59.7799L41.41 2.54996C39.64 -0.570039 36.33 -0.570039 34.51 2.54996L1.06004 59.8999C-0.87996 63.1899 0.770074 65.7799 4.72007 65.7799H71.06C75.24 65.7799 76.7201 63.3099 74.7101 59.7799" fill="white"/>
<path d="M74.67 59.7799L41.41 2.54996C39.64 -0.570039 36.33 -0.570039 34.51 2.54996L1.06004 59.8999C-0.87996 63.1899 0.770074 65.7799 4.72007 65.7799H71.06C75.2 65.7799 76.68 63.3099 74.67 59.7799Z" stroke="#CF1F25" stroke-width="0.49"/>
<path d="M73.2 60.43L40.2 3.64002C39.02 1.64002 36.9 1.70001 35.72 3.70001L2.6 60.55C1.42 62.55 2.59999 64.19 4.96999 64.19H70.6C73.2 64.19 74.31 62.43 73.2 60.43Z" fill="#CF1F25"/>
<path d="M37.8 12.9299L11.86 57.7299H64.23" fill="#FCAF17"/>
<path d="M37.8 12.9299L11.86 57.7299H64.23L37.8 12.9299Z" stroke="#CF1F25" stroke-width="0.56"/>
<path d="M49.9999 44.9299H52.8701V41.2099L50.5099 37.4099C50.2523 37.0334 49.908 36.7243 49.506 36.5085C49.1041 36.2928 48.6562 36.1766 48.2 36.1699H27.61C27.1831 36.1756 26.763 36.2786 26.3818 36.4709C26.0006 36.6632 25.6682 36.9399 25.41 37.2799L22.93 41.4599V44.9299H25.93C25.9296 45.3186 26.0537 45.6973 26.284 46.0104C26.5143 46.3235 26.8388 46.5546 27.21 46.6699H22.89V47.5499H52.83V46.6799H48.68C49.0603 46.5713 49.3948 46.3417 49.633 46.0259C49.8712 45.7102 49.9999 45.3254 49.9999 44.9299ZM45.7599 37.4899H47.41V43.6099H45.7599V37.4899ZM40.47 37.4899H45.06V41.5499H40.47V37.4899ZM36.19 37.4899H39.78V41.5499H36.19V37.4899ZM30.91 37.4899H35.4999V41.5499H30.91V37.4899ZM28.6 37.4899H30.2499V43.6099H28.6V37.4899ZM27.69 41.5899H24.2599L26.45 37.4899H27.69V41.5899ZM28.34 46.6699C28.7085 46.5515 29.0299 46.3192 29.2581 46.0066C29.4863 45.6939 29.6096 45.317 29.61 44.9299H31.39C31.3895 45.3186 31.5136 45.6973 31.744 46.0104C31.9743 46.3235 32.2988 46.5546 32.67 46.6699H28.34ZM33.7499 46.6699C34.1211 46.5546 34.4458 46.3235 34.6761 46.0104C34.9064 45.6973 35.0304 45.3186 35.03 44.9299H40.94C40.9396 45.3186 41.0637 45.6973 41.294 46.0104C41.5243 46.3235 41.8488 46.5546 42.22 46.6699H33.7499ZM43.3 46.6699C43.6712 46.5546 43.9957 46.3235 44.226 46.0104C44.4563 45.6973 44.5804 45.3186 44.58 44.9299H46.36C46.3605 45.317 46.4837 45.6939 46.7119 46.0066C46.94 46.3192 47.2614 46.5515 47.6299 46.6699H43.3ZM48.3 41.5899V37.4899H49.54L51.73 41.5899H48.3Z" fill="#231F20"/>
</g>
<defs>
<clipPath id="clip0_8110_2">
<rect width="75.8" height="66.02" fill="white"/>
</clipPath>
</defs>
</svg>
