<svg width="76" height="67" viewBox="0 0 76 67" fill="none" xmlns="http://www.w3.org/2000/svg">
<g clip-path="url(#clip0_8063_6514)">
<path d="M1.12 59.88L34.44 2.62001C36.21 -0.549992 39.44 -0.549992 41.34 2.62001L74.78 59.94C76.72 63.23 75.07 65.82 71.18 65.82H4.84998C0.599976 65.82 -0.879995 63.35 1.13001 59.88" fill="white"/>
<path d="M1.12 59.88L34.44 2.62001C36.21 -0.549992 39.44 -0.549992 41.34 2.62001L74.78 59.94C76.72 63.23 75.07 65.82 71.18 65.82H4.84998C0.599983 65.82 -0.879997 63.35 1.12 59.88Z" stroke="#D20D18" stroke-width="0.49"/>
<path d="M2.59999 60.47L35.6 3.68002C36.78 1.63002 38.9 1.68002 40.08 3.68002L73.23 60.68C74.4 62.68 73.23 64.26 70.87 64.26H5.19002C2.60002 64.26 1.47999 62.56 2.59999 60.5" fill="#D20D18"/>
<path d="M38.05 12.97L64.06 57.83H11.56" fill="#F8B500"/>
<path d="M38.05 12.97L64.06 57.83H11.56L38.05 12.97Z" stroke="#D20D18" stroke-width="0.55"/>
<path d="M38.46 29.67L44.46 31.31L44.92 37.54L43.22 41.24C42.63 42.07 40.62 41.6 40.62 40.54L40.8 39.13L38.44 38.42V33.55L43.52 35.13V31.78L38.44 30.49M34.9 28.72L38.44 29.67V30.49L35.44 29.78L33.38 31.95L38.45 33.55V38.42L32.9 36.66L32.12 38.07C31.9046 38.2495 31.647 38.3711 31.3715 38.4234C31.096 38.4757 30.8118 38.4569 30.5456 38.3689C30.2794 38.2808 30.04 38.1263 29.85 37.9201C29.6601 37.7138 29.5259 37.4626 29.46 37.19V36.84L29.53 36.66L30 33.89L34.9 28.72Z" fill="#231916"/>
<path d="M33.03 43.27C33.03 43.27 27.61 44.91 27.14 45.27C26.67 45.63 26.08 46.27 27.08 46.91C28.08 47.55 30.03 48.44 30.03 48.44C30.26 48.61 30.09 49.32 29.56 49.49L23.01 53.61C25.9 54.2 26.25 54.2 28.73 54.61L32.98 50.67C33.2191 50.3293 33.3363 49.918 33.3127 49.5024C33.2892 49.0869 33.1261 48.6914 32.85 48.38C31.821 47.5385 30.7201 46.7889 29.56 46.14C29.03 45.73 28.73 45.62 28.84 45.32L33.27 43.56C33.27 43.56 33.38 43.14 33.03 43.27Z" fill="#231916"/>
<path d="M38.7 42.89C38.7 42.89 35.86 44.3 35.86 45.54C35.86 46.47 36.28 46.54 36.63 46.77L48.96 48.89C49.66 49.06 49.37 49.25 48.96 50.01L45.96 53.24H51.86L52.8 49.95C52.9019 49.7273 52.9568 49.486 52.9612 49.2411C52.9656 48.9963 52.9195 48.7531 52.8256 48.5269C52.7318 48.3007 52.5922 48.0963 52.4157 47.9265C52.2392 47.7567 52.0296 47.6251 51.8 47.54L38.52 45.35C37.94 45.25 37.64 45.01 37.82 44.48L39.12 43.27C39.42 42.51 39.12 42.68 38.66 42.86" fill="#231916"/>
</g>
<defs>
<clipPath id="clip0_8063_6514">
<rect width="75.85" height="66.07" fill="white"/>
</clipPath>
</defs>
</svg>
