<svg width="71" height="71" viewBox="0 0 71 71" fill="none" xmlns="http://www.w3.org/2000/svg">
<g clip-path="url(#clip0_8063_6957)">
<path d="M35.23 69.96C42.1198 69.9343 48.8476 67.8681 54.5641 64.0223C60.2807 60.1765 64.7298 54.7234 67.35 48.3512C69.9702 41.9791 70.644 34.9736 69.2863 28.2188C67.9286 21.4641 64.6003 15.263 59.7215 10.3982C54.8427 5.53331 48.632 2.22278 41.8734 0.884431C35.1149 -0.453919 28.1114 0.239918 21.7467 2.87833C15.3821 5.51674 9.94179 9.98147 6.11234 15.709C2.28289 21.4366 0.23599 28.1702 0.230015 35.06C0.235263 39.65 1.14489 44.1941 2.90689 48.4325C4.6689 52.6709 7.24874 56.5207 10.4991 59.7617C13.7494 63.0027 17.6065 65.5715 21.8499 67.3214C26.0933 69.0712 30.6399 69.9679 35.23 69.96Z" stroke="#D20D18" stroke-width="0.45"/>
<path d="M35.2301 2.34003C28.7545 2.35388 22.4283 4.28711 17.0511 7.89545C11.674 11.5038 7.48727 16.6253 5.02011 22.6125C2.55296 28.5997 1.91616 35.184 3.19016 41.5331C4.46415 47.8822 7.59176 53.7111 12.1777 58.283C16.7637 62.855 22.602 65.9648 28.9549 67.2194C35.3079 68.474 41.8902 67.8171 47.8698 65.3317C53.8495 62.8463 58.9582 58.6439 62.5501 53.2558C66.1421 47.8677 68.0559 41.5356 68.05 35.06C68.0288 26.3713 64.561 18.046 58.4078 11.9116C52.2546 5.77709 43.9188 2.33471 35.2301 2.34003ZM35.2301 60.62C30.1841 60.6101 25.2542 59.1052 21.0631 56.2952C16.8719 53.4853 13.6075 49.4964 11.682 44.8323C9.75646 40.1682 9.25619 35.038 10.2445 30.0898C11.2328 25.1416 13.6653 20.5972 17.2347 17.0306C20.8041 13.464 25.3504 11.035 30.2994 10.0506C35.2484 9.06618 40.3781 9.57041 45.0407 11.4996C49.7034 13.4287 53.6896 16.6964 56.4963 20.8897C59.303 25.0831 60.8041 30.0141 60.81 35.06C60.7968 41.8383 58.0969 48.335 53.302 53.1261C48.5071 57.9172 42.0084 60.6121 35.2301 60.62Z" fill="#D20D18"/>
<path d="M53.84 46.46H17.91V50.26H53.84V46.46Z" fill="#231916"/>
<path d="M53.84 46.46H17.91V50.26H53.84V46.46Z" stroke="#231916" stroke-width="0.39"/>
<path d="M33.98 32.67C34.2933 33.979 34.4212 35.3255 34.36 36.67V37.05C34.36 39.76 33.87 41.71 32.94 42.91C31.85 44.26 29.94 44.97 27.06 44.97C25.707 44.9933 24.3583 44.8112 23.06 44.43C22.1781 44.1646 21.3994 43.6339 20.83 42.91C20.3397 42.1885 19.9996 41.3757 19.83 40.52C19.7121 39.4743 19.6587 38.4223 19.67 37.37V35.37H23.53V38.62C23.4634 39.4622 23.678 40.3027 24.1401 41.01C24.5211 41.3096 24.9575 41.5309 25.4242 41.6613C25.891 41.7917 26.3789 41.8287 26.86 41.77C27.3862 41.8235 27.9165 41.7247 28.3881 41.4854C28.8597 41.246 29.2526 40.8763 29.5201 40.42C29.994 39.5763 30.2225 38.6168 30.18 37.65V35.91C30.18 34.5 29.75 33.53 28.82 33.09C27.4076 32.586 25.9057 32.3816 24.41 32.49V29.35H24.62C26.0479 29.4531 27.4831 29.3248 28.87 28.97C29.75 28.64 30.18 27.77 30.18 26.47V25.14C30.2069 24.7496 30.1474 24.3581 30.0057 23.9934C29.8639 23.6287 29.6435 23.2998 29.36 23.03C29.0357 22.7421 28.6574 22.5214 28.2471 22.3806C27.8369 22.2399 27.4028 22.1819 26.97 22.21C25.9827 22.1275 24.998 22.3967 24.19 22.97C23.7107 23.5449 23.4739 24.2837 23.53 25.03V27.14H19.67V25.02C19.67 22.8 20.22 21.22 21.31 20.35C22.4 19.48 24.03 19.16 26.47 19.16C29.36 19.16 31.37 19.65 32.47 20.63C33.57 21.61 34.1 23.29 34.1 25.78C34.1539 26.8036 33.9868 27.8268 33.61 28.78C33.1278 29.6539 32.3825 30.3537 31.48 30.78C32.0099 30.9003 32.5059 31.1378 32.9317 31.4753C33.3575 31.8128 33.702 32.2416 33.94 32.73" fill="#231916"/>
<path d="M50.9099 38.54C50.9099 40.82 50.47 42.44 49.49 43.42C48.51 44.4 46.7199 44.94 44.1599 44.94H44V41.94H44.1599C44.5796 41.9951 45.0066 41.9391 45.3979 41.7777C45.7892 41.6163 46.1313 41.355 46.39 41.02C46.8213 40.2614 47.0096 39.389 46.93 38.52V25.57C47.0152 24.7199 46.826 23.8648 46.39 23.13C46.1338 22.7916 45.7923 22.5273 45.4005 22.364C45.0088 22.2006 44.5807 22.144 44.1599 22.2H44V19.2C46.6 19.2 48.4 19.74 49.44 20.77C50.48 21.8 50.9099 23.32 50.9099 25.6M44 44.97C41.6 44.97 39.86 44.38 38.76 43.17C37.66 41.96 37.08 40.17 37.08 37.75V25.89C37.08 23.45 37.57 21.72 38.44 20.8C39.44 19.71 41.27 19.17 43.88 19.17H44V22.17C43.572 22.1332 43.1414 22.1982 42.7433 22.3599C42.3453 22.5215 41.9911 22.7752 41.71 23.1C41.2413 23.8228 41.0299 24.6824 41.11 25.54V38.45C41.0241 39.327 41.2354 40.2075 41.71 40.95C41.9916 41.2737 42.3461 41.5258 42.7442 41.6858C43.1423 41.8457 43.5728 41.9089 44 41.87V44.97Z" fill="#231916"/>
</g>
<defs>
<clipPath id="clip0_8063_6957">
<rect width="70.4" height="70.18" fill="white"/>
</clipPath>
</defs>
</svg>
