<svg width="69" height="69" viewBox="0 0 69 69" fill="none" xmlns="http://www.w3.org/2000/svg">
<g clip-path="url(#clip0_8063_7126)">
<path d="M67.9999 34.11C68.0019 40.8132 66.016 47.3665 62.2933 52.941C58.5706 58.5155 53.2784 62.8608 47.086 65.4274C40.8936 67.994 34.0791 68.6666 27.5045 67.36C20.9298 66.0535 14.8902 62.8266 10.1496 58.0874C5.409 53.3482 2.18036 47.3096 0.871896 40.7353C-0.436568 34.161 0.234016 27.3463 2.79878 21.1531C5.36354 14.96 9.70719 9.66652 15.2806 5.9422C20.854 2.21788 27.4067 0.229981 34.1099 0.22998C43.0964 0.22998 51.7149 3.79914 58.0703 10.1526C64.4256 16.506 67.9973 25.1235 67.9999 34.11Z" stroke="#004A9C" stroke-width="0.45"/>
<path d="M66.31 34.11C66.31 40.4785 64.4214 46.7041 60.8832 51.9993C57.3451 57.2946 52.3161 61.4217 46.4323 63.8589C40.5485 66.296 34.0743 66.9337 27.8281 65.6913C21.5819 64.4488 15.8444 61.3821 11.3411 56.8788C6.83788 52.3756 3.77108 46.6381 2.52863 40.3919C1.28619 34.1457 1.92389 27.6714 4.36103 21.7876C6.79817 15.9038 10.9254 10.8749 16.2206 7.33667C21.5159 3.79849 27.7414 1.90997 34.1099 1.90997C42.6491 1.91262 50.8378 5.30596 56.8759 11.3441C62.914 17.3822 66.3074 25.5708 66.31 34.11Z" fill="#004A9C"/>
<path d="M26.38 57.51L18.38 43.61C18.38 43.61 16.75 40.9 20.02 40.44H22.42V37.17C22.42 37.17 23.85 24.7 36.42 24.65C36.42 24.65 40.15 24.75 42.1 25.93C42.1 25.93 42.35 20.46 37.24 20.41C32.13 20.36 28.65 20.41 28.65 20.41V22.62C28.6753 22.9596 28.6133 23.3001 28.4701 23.6091C28.3269 23.9181 28.1072 24.1854 27.8318 24.3857C27.5564 24.586 27.2344 24.7126 26.8964 24.7536C26.5583 24.7946 26.2153 24.7486 25.9 24.62L11.54 16.44L26.05 8.01002C26.05 8.01002 28.3 7.29002 28.65 9.95002V12.42H37.55C37.55 12.42 49.97 12.56 49.97 25.33V57.48H42.04V38.48C42.04 38.48 42.04 32.48 36.22 32.48C35.4711 32.4244 34.7188 32.5202 34.0078 32.7617C33.2968 33.0033 32.6418 33.3855 32.0818 33.8858C31.5218 34.3861 31.0683 34.994 30.7484 35.6734C30.4285 36.3528 30.2488 37.0896 30.22 37.84V40.5H32.88C33.1873 40.5076 33.4882 40.5892 33.7572 40.7379C34.0262 40.8866 34.2554 41.098 34.4252 41.3542C34.595 41.6104 34.7005 41.9037 34.7327 42.2094C34.7648 42.5151 34.7227 42.824 34.61 43.11L26.38 57.51Z" fill="white"/>
</g>
<defs>
<clipPath id="clip0_8063_7126">
<rect width="68.22" height="68.22" fill="white"/>
</clipPath>
</defs>
</svg>
