<svg width="62" height="69" viewBox="0 0 62 69" fill="none" xmlns="http://www.w3.org/2000/svg">
<g clip-path="url(#clip0_8072_265)">
<path d="M2.03 51.97V64.4C2.03 66.19 2.9 66.46 4.03 66.57H57.22C58.69 66.35 59.12 66.19 59.12 63.8V51.8L31.64 4.06995C30.55 2.60995 29.3 2.92995 28.37 4.50995" fill="#004A9C"/>
<path d="M0.23 51.34V65.33" stroke="#004A9C" stroke-width="0.45"/>
<path d="M0.230015 65.33C0.500015 67.39 1.65001 68 3.66001 68" stroke="#004A9C" stroke-width="0.45"/>
<path d="M3.66 67.99H59.07" stroke="#004A9C" stroke-width="0.45"/>
<path d="M59.09 67.97C60.39 67.7 61.09 67.3701 61.09 64.8101" stroke="#004A9C" stroke-width="0.45"/>
<path d="M61.04 64.84V51.34L32.13 1.14001" stroke="#004A9C" stroke-width="0.45"/>
<path d="M32.09 1.13996C31.8112 0.817215 31.4579 0.567426 31.0606 0.412234C30.6634 0.257042 30.2343 0.201168 29.8106 0.249453C29.3869 0.297738 28.9813 0.448689 28.6292 0.689273C28.2771 0.929857 27.989 1.25276 27.79 1.62995" stroke="#004A9C" stroke-width="0.45"/>
<path d="M27.83 1.62L0.220001 51.34" stroke="#004A9C" stroke-width="0.45"/>
<path d="M14.28 59.2V59.42L14.22 59.53C14.178 59.5955 14.157 59.6723 14.16 59.7501V61.16H17.54V62.35H9.54001V61.16H12.97V59.16H13.78C13.9477 59.1645 14.1148 59.1812 14.28 59.21M11.71 54.76C11.77 54.82 11.77 54.87 11.71 54.98V55.14V55.36V57.69H16.88V58.89H10.51V54.76H11.76H11.71Z" fill="white"/>
<path d="M27.55 63.22V62.03H28.27V63.22M27.55 61V54.21H27.67C27.8497 54.1956 28.0303 54.1956 28.21 54.21C28.27 54.28 28.27 54.32 28.21 54.43C28.15 54.54 28.21 54.6 28.21 54.6V60.97L27.55 61ZM24.94 55.1899C25.2976 55.696 25.4897 56.3004 25.49 56.92C25.5003 57.5629 25.3079 58.1927 24.94 58.72C24.7435 58.9579 24.4932 59.1455 24.2097 59.2672C23.9262 59.389 23.6177 59.4413 23.31 59.42H23.25V58.28H23.31C23.4515 58.2861 23.5922 58.2541 23.7171 58.1873C23.842 58.1204 23.9466 58.0211 24.02 57.9C24.1969 57.5981 24.2739 57.2482 24.24 56.9C24.2617 56.5781 24.185 56.2572 24.02 55.98C23.9466 55.8588 23.842 55.7595 23.7171 55.6927C23.5922 55.6258 23.4515 55.5938 23.31 55.6H23.25V54.46H23.31C23.6188 54.4381 23.9283 54.4913 24.2121 54.6149C24.4959 54.7386 24.7456 54.929 24.94 55.17M27.55 60.98H26.9V54.1899H27.55V60.98ZM27.55 63.2H23.25V62.0099H27.55V63.2ZM23.25 59.4C22.9427 59.4165 22.6358 59.362 22.3531 59.2406C22.0704 59.1192 21.8196 58.9341 21.62 58.7C21.2526 58.1999 21.0657 57.59 21.09 56.97C21.0611 56.3478 21.2522 55.7353 21.63 55.24C21.8248 54.9996 22.0747 54.8097 22.3584 54.6861C22.642 54.5625 22.9513 54.509 23.26 54.53V55.67C23.1213 55.6722 22.9853 55.7079 22.8634 55.774C22.7415 55.8402 22.6374 55.9349 22.56 56.05C22.3774 56.3216 22.2832 56.6428 22.29 56.97C22.2696 57.3237 22.3643 57.6746 22.56 57.97C22.6273 58.0943 22.7293 58.1964 22.8536 58.2639C22.9779 58.3313 23.119 58.3612 23.26 58.35L23.25 59.4ZM23.25 62.0099V63.2H21.79V60.27H22.5C22.695 60.2341 22.895 60.2341 23.09 60.27C23.1068 60.3042 23.1155 60.3418 23.1155 60.3799C23.1155 60.4181 23.1068 60.4557 23.09 60.49C23.0797 60.5462 23.0797 60.6038 23.09 60.66V61.96L23.25 62.0099Z" fill="white"/>
<path d="M39.16 54.86C39.16 54.86 39.16 54.97 39.16 55.08V55.1899V59.53H36.6V59.6899L36.54 59.91C36.49 59.91 36.49 60.0199 36.49 60.1299V61.1299H39.97V62.3799H35.97V58.3799H37.88V57.24H35.99V56.1H37.9V54.8H38.6C38.93 54.8 39.1 54.8 39.16 54.8M35.99 62.29H31.99V61.04H35.3V59.47H32.86V54.75H33.62C33.89 54.75 34.06 54.75 34.11 54.75V54.92V55.08V56H36.01V57.14H34.09V58.28H35.99V62.29Z" fill="white"/>
<path d="M47.21 57.25C47.9026 57.2315 48.5892 57.3825 49.21 57.6899C49.4674 57.7915 49.6887 57.9675 49.8455 58.1956C50.0023 58.4236 50.0874 58.6933 50.09 58.97C50.0873 59.187 50.0311 59.4 49.9265 59.5901C49.8218 59.7802 49.6719 59.9416 49.49 60.06C48.9923 60.3481 48.4341 60.5159 47.86 60.55V61.41H51.24V62.56H47.24V59.56C47.6462 59.5758 48.0521 59.5216 48.44 59.4C48.71 59.29 48.82 59.18 48.82 58.96C48.8188 58.8492 48.7809 58.7419 48.7121 58.655C48.6433 58.5681 48.5476 58.5066 48.44 58.48C48.0566 58.3345 47.6501 58.2599 47.24 58.2599M47.24 55.98H50.67V56.98H47.24V55.98ZM47.24 54.46H48.93V55.46H47.24V54.46ZM46.59 61.4V60.54C46.0296 60.5175 45.4848 60.3486 45.01 60.05C44.8123 59.9442 44.6468 59.7872 44.5307 59.5954C44.4146 59.4036 44.3522 59.1841 44.35 58.96C44.3463 58.6948 44.4226 58.4347 44.5688 58.2136C44.7151 57.9924 44.9246 57.8204 45.17 57.72C45.8134 57.4055 46.5244 57.2544 47.24 57.28V58.28H47.18C46.7731 58.2786 46.3695 58.3533 45.99 58.5C45.71 58.61 45.6 58.77 45.6 58.98C45.6 59.19 45.71 59.31 45.99 59.42C46.3742 59.5427 46.777 59.5968 47.18 59.58H47.24V62.58H43.24V61.37L46.59 61.4ZM47.24 55.49H45.55V54.49H47.24V55.49ZM47.24 57.0099H43.75V56.0099H47.24V57.0099Z" fill="white"/>
<path d="M44.16 38.5299L43.94 41.1899H46.39L45.95 38.5299H45.47V38.0999C45.47 38.0999 46.07 37.4499 45.3 37.0999L45.14 36.7199L45.47 36.5C44.8006 34.7593 44.0362 33.0567 43.18 31.3999C43.18 31.3999 40.73 27.82 39.53 27.93L38.94 27.0099C39.4096 26.6746 39.7599 26.1982 39.94 25.6499C39.94 25.6499 40.54 25.2699 40.22 23.9699C40.0572 23.5677 39.782 23.2209 39.4273 22.9709C39.0727 22.7208 38.6536 22.5782 38.22 22.56C37.7298 22.6008 37.2699 22.8141 36.922 23.162C36.5742 23.5098 36.3608 23.9697 36.32 24.4599C36.3152 24.9856 36.4416 25.5042 36.6878 25.9687C36.934 26.4331 37.2923 26.8289 37.73 27.12L37.13 27.98C37.13 27.98 35.99 28.0299 34.85 29.7699C34.85 29.7699 31.47 34.9299 31.04 35.9599C31.04 35.9599 31.09 36.2299 30.93 36.3399C30.93 36.3399 30.44 36.45 30.44 36.61C30.3176 36.4601 30.142 36.3634 29.95 36.3399L30.16 36.12C30.16 36.12 28.04 30.8599 27.44 29.7199C27.3004 29.3035 27.0661 28.9251 26.7555 28.6145C26.4449 28.3039 26.0665 28.0696 25.65 27.93C25.65 27.93 24.29 27.39 24.07 26.93C24.0219 26.3443 24.1969 25.7621 24.56 25.3C24.7608 25.0877 24.9083 24.8306 24.99 24.55H26.25V24.11H24.99C24.9455 23.9106 24.8528 23.7252 24.72 23.5699C24.72 23.5699 24.61 22.3699 23.85 22.2699C23.5021 22.2073 23.1434 22.2826 22.85 22.48C22.6387 22.3466 22.3876 22.2906 22.1396 22.3216C21.8916 22.3526 21.662 22.4686 21.49 22.6499C21.1753 23.0719 21.0035 23.5835 21 24.11H19.7V24.55H21.06C21.1026 24.7713 21.1732 24.9863 21.27 25.1899C21.4761 25.5439 21.7138 25.8786 21.98 26.1899V27.0099C21.98 27.0099 21.16 27.3299 20.73 27.4399C20.73 27.4399 19.53 27.6599 19.36 27.7099C17.8773 29.0369 16.7876 30.7458 16.21 32.6499C15.8788 33.7036 15.73 34.8062 15.77 35.9099C15.6536 35.9368 15.5446 35.9893 15.4512 36.0637C15.3578 36.1381 15.2822 36.2325 15.23 36.3399C15.23 36.3399 14.85 36.8299 15.66 37.3399C15.4716 37.6705 15.3621 38.0401 15.34 38.42V50.68H15.99V38.48C15.99 38.48 16.26 37.4799 16.54 37.3899C16.54 37.3899 17.14 37.6599 17.3 37.3899C17.3 37.3899 17.46 37.06 16.97 36.74C16.9235 36.3079 16.9235 35.872 16.97 35.4399C16.97 35.4399 17.52 35.7099 17.57 34.8399C17.57 34.8399 17.85 31.8999 19.57 30.7099C19.57 30.7099 19.24 33.1499 18.81 34.9499C18.81 34.9499 17.66 38.58 19.03 38.74C19.03 38.74 18.92 39.7399 18.92 40.6399C18.8035 43.4827 18.8937 46.3302 19.19 49.1599H19.89C19.89 49.1599 19.73 49.7599 18.32 50.4699C18.32 50.4699 16.9 50.9499 17.39 51.3299C17.39 51.3299 17.93 51.7599 19.29 51.3899C19.6126 51.2716 19.9239 51.1243 20.22 50.9499C20.22 50.9499 20.28 51.4399 21.14 51.4399C21.14 51.4399 21.91 51.44 21.91 50.73C21.8475 50.5218 21.7566 50.3233 21.64 50.1399C21.5049 49.8497 21.4497 49.5286 21.48 49.2099H22.18C22.18 49.2099 21.91 47.2099 21.86 46.4399C21.86 46.4399 21.64 41.4399 22.4 40.9099C22.4 40.9099 23.16 40.54 23.16 44.98C23.16 44.98 23.11 45.9799 23 46.8299C22.8622 47.6005 22.8622 48.3894 23 49.1599H23.38C23.4021 49.5362 23.3263 49.9118 23.16 50.25C23.0855 50.3288 23.0287 50.4227 22.9935 50.5254C22.9583 50.628 22.9455 50.7369 22.9559 50.8449C22.9663 50.9529 22.9997 51.0575 23.0539 51.1515C23.1081 51.2455 23.1818 51.3268 23.27 51.3899C23.4932 51.5078 23.7503 51.5454 23.9979 51.4962C24.2455 51.447 24.4687 51.3142 24.63 51.12C24.63 51.12 24.63 50.9 25.07 51.12C25.07 51.12 26.64 52.1199 27.57 51.2799C27.57 51.2799 27.79 51 27.3 50.73C27.3 50.73 25.18 50.0299 25.01 49.2699H25.56C25.56 49.2699 25.83 47.1499 25.94 45.9599C25.94 45.9599 26.21 42.0599 26.27 38.6299H26.81C26.81 38.6299 26.37 32.5599 26.16 31.6899C26.16 31.6899 28.23 36.6899 28.39 37.0099H28.82C28.82 37.0099 28.82 38.0099 29.7 38.0099C29.7 38.0099 30.19 38.0699 30.35 37.8499C30.35 37.8499 31.16 38.3899 31.6 36.8499L31.87 36.5799L32.09 36.74C32.09 36.74 32.91 36.1399 35.36 32.0699C35.36 32.0699 35.09 34.5699 35.09 35.0699C35.09 35.0699 35.36 35.0699 35.3 35.4499C35.3 35.4499 33.18 46.4499 33.12 46.5699L34.87 47.11C35.1425 47.1558 35.3907 47.2943 35.5729 47.502C35.7551 47.7097 35.86 47.9739 35.87 48.25C35.9436 48.7162 35.9638 49.1892 35.93 49.6599C35.93 49.6599 33.8 50.3699 33.93 50.5899C34.1011 50.8121 34.3256 50.9872 34.5826 51.0992C34.8397 51.2111 35.1209 51.2561 35.4 51.23C35.8319 51.1706 36.2415 51.002 36.59 50.74L36.81 51.1299H37.41C37.41 51.1299 37.13 47.92 37.13 47.54H38.66C38.66 47.54 38.44 50.9599 38.49 51.1299H39.15L39.32 50.8C39.785 51.1012 40.3387 51.2352 40.89 51.18C40.89 51.18 41.89 50.91 41.89 50.48C41.89 50.48 41.79 50.1999 40.75 49.9399C40.75 49.9399 39.66 49.77 39.82 49.17L40.26 47.3299L43.48 46.5199C43.48 46.5199 42.09 37.97 41.88 37.17C41.88 37.17 41.6 35.28 41.55 35.11H41.98C41.8155 34.0994 41.5985 33.098 41.33 32.11L44.16 36.9399L44.43 37L44.54 37.3199C44.54 37.3199 44.05 38.0799 44.76 38.1899V38.5699" fill="white"/>
</g>
<defs>
<clipPath id="clip0_8072_265">
<rect width="61.26" height="68.22" fill="white"/>
</clipPath>
</defs>
</svg>
