<svg width="76" height="67" viewBox="0 0 76 67" fill="none" xmlns="http://www.w3.org/2000/svg">
<g clip-path="url(#clip0_8063_6375)">
<path d="M1.15992 59.88L34.48 2.63001C36.25 -0.54999 39.48 -0.54999 41.38 2.63001L74.82 60C76.82 63.29 75.17 65.88 71.21 65.88H4.87001C0.560007 65.88 -0.910086 63.4 1.14991 59.88" fill="white"/>
<path d="M1.15995 59.88L34.48 2.63001C36.25 -0.54999 39.48 -0.54999 41.38 2.63001L74.82 60C76.82 63.29 75.17 65.88 71.21 65.88H4.87004C0.570036 65.88 -0.900047 63.4 1.15995 59.88Z" stroke="#D20D18" stroke-width="0.49"/>
<path d="M2.63992 60.58L35.6399 3.67999C36.8099 1.67999 38.94 1.68 40.12 3.74L73.32 60.64C74.5 62.7 73.26 64.29 70.96 64.29H5.20999C2.60999 64.29 1.48001 62.59 2.61001 60.58" fill="#D20D18"/>
<path d="M38.08 12.97L64.09 57.82H11.6" fill="#F8B500"/>
<path d="M38.08 12.97L64.09 57.82H11.6L38.08 12.97Z" stroke="#D20D18" stroke-width="0.57"/>
<path d="M28.8199 33.42L33.36 25.66C34.07 25.08 34.0699 24.78 35.0699 25.66L39.5599 33.54C39.9699 34.6 39.85 35.54 38.73 35.84H36.61C36.61 40.54 35.9 46.89 40.49 42.3C45.4 37.48 51 38.24 51 47.07V56H45.2699V48.88C45.2699 44.88 44.33 45.65 42.62 47.48C38.62 51.59 31.13 50.89 31.13 41.18V35.84H29.23C27.99 35.43 28.2299 34.13 28.8199 33.42Z" fill="#231916"/>
</g>
<defs>
<clipPath id="clip0_8063_6375">
<rect width="75.93" height="66.12" fill="white"/>
</clipPath>
</defs>
</svg>
