<svg width="76" height="66" viewBox="0 0 76 66" fill="none" xmlns="http://www.w3.org/2000/svg">
<g clip-path="url(#clip0_8063_5757)">
<path d="M1.16993 59.76L34.36 2.61999C36.14 -0.550007 39.3599 -0.550007 41.2699 2.61999L74.6499 59.88C76.6499 63.11 74.9399 65.7 71.0499 65.7H4.81996C0.579957 65.7 -0.900068 63.22 1.16993 59.76Z" fill="white"/>
<path d="M1.17001 59.76L34.3601 2.61999C36.1401 -0.550007 39.36 -0.550007 41.27 2.61999L74.65 59.88C76.65 63.11 74.94 65.7 71.05 65.7H4.82003C0.570035 65.7 -0.89999 63.22 1.17001 59.76Z" stroke="#D20D18" stroke-width="0.49"/>
<path d="M2.56997 60.41L35.57 3.68001C36.75 1.62001 38.87 1.68 40.05 3.73L73.13 60.52C74.37 62.52 73.1299 64.17 70.7699 64.17H5.19998C2.59998 64.17 1.48 62.41 2.6 60.41" fill="#D20D18"/>
<path d="M37.97 12.91L63.92 57.7H11.55" fill="#F8B500"/>
<path d="M37.97 12.91L63.92 57.7H11.55L37.97 12.91Z" stroke="#D20D18" stroke-width="0.57"/>
<path d="M45.69 42.13C45.15 42.95 44.45 42.59 44.21 43.01C43.75 43.71 43.98 45.12 43.98 45.77C43.982 45.9539 43.9172 46.1322 43.7977 46.272C43.6781 46.4117 43.512 46.5034 43.33 46.53V52.76C43.8533 53.0533 44.4402 53.2146 45.04 53.23C45.93 53.3 46.87 52.82 47.7 50.88C48.52 50.88 49.8701 51.29 50.2401 50.71C51.1201 49.29 49.7 49.17 49.64 48.48C49.738 47.1738 49.9151 45.8748 50.17 44.59C50.35 42.71 49.23 42.83 47.46 42.83C47.11 42.13 48.17 42.13 48.05 40.59C48.11 40.3 46.28 40.01 43.33 39.95V41.77C44.51 41.77 45.58 41.83 45.69 42.13ZM43.33 36.48V32.3L43.39 32.37C43.6863 33.0164 43.8348 33.7207 43.8244 34.4318C43.814 35.1428 43.6451 35.8425 43.33 36.48ZM43.33 46.53C43.04 46.65 42.62 46.42 42.68 45.83C42.7527 45.021 42.6113 44.2071 42.27 43.47C41.68 42.59 40.86 43.07 41.09 41.83C41.68 41.83 42.56 41.77 43.33 41.77V39.95C41.98 39.95 40.33 40.01 38.61 40.13C37.97 40.54 38.2 41.18 39.08 41.83C39.26 42.65 39.14 42.89 38.32 43.07C36.67 43.42 36.32 41.66 34.9 43.3C34.78 43.12 34.3101 42.3 34.1301 42.24H33.96L32.96 41.89C32.02 41.71 31.96 42.06 31.42 42.24C31.13 41.66 31.19 41.18 32.73 40.95C33.43 40.83 32.85 40.54 33.61 39.89C34.5944 40.1938 35.6531 40.1514 36.61 39.77C38.02 39.19 37.7301 38.24 38.5001 38.07C39.2701 37.9 39.9101 38.54 41.5001 38.12C41.9202 38.0134 42.3093 37.8095 42.6359 37.5245C42.9625 37.2396 43.2175 36.8818 43.3801 36.48V32.3C42.9324 31.7448 42.3248 31.3406 41.6397 31.142C40.9547 30.9435 40.2252 30.9602 39.55 31.19C38.78 31.6 38.9 31.6 38.66 31.6C38.42 31.6 37.66 30.37 35.3 31.54C33.71 32.37 34.41 33.54 33.47 34.3C33 34.72 32.18 34.36 31.64 34.72C30.58 35.42 31.17 36.24 30.71 36.89C30.4 37.3 29.64 36.95 29.34 37.3C27.28 39.48 29.41 40.18 27.93 40.47C26.45 40.76 27.34 42.54 26.81 43.42C24.81 43.24 24.04 43.47 23.44 44.65C23.1776 45.627 23.0996 46.6444 23.21 47.65C23.15 48.77 23.87 49.24 23.57 49.53C22.63 50.3 23.21 51.17 23.57 51.24C24.15 51.41 25.2701 50.94 25.8701 51.47C27.3401 52.88 28.58 54.71 31.06 51.88C31.439 52.4066 31.9686 52.8061 32.5792 53.0256C33.1897 53.2452 33.8525 53.2746 34.48 53.11C35.19 52.94 35.83 51.88 36.19 51.29C36.78 51.06 36.95 51 37.07 51.29C37.5135 52.2742 38.3141 53.0534 39.31 53.47C41.08 53.82 41.37 52.24 42.31 52.18C42.66 52.12 42.9 52.47 43.43 52.76L43.33 46.53Z" fill="#231916"/>
</g>
<defs>
<clipPath id="clip0_8063_5757">
<rect width="75.72" height="65.95" fill="white"/>
</clipPath>
</defs>
</svg>
