<svg width="71" height="71" viewBox="0 0 71 71" fill="none" xmlns="http://www.w3.org/2000/svg">
<g clip-path="url(#clip0_8072_127)">
<path d="M35.28 70.0699C42.1797 70.054 48.9201 67.9946 54.6504 64.1515C60.3807 60.3083 64.844 54.8538 67.4771 48.4763C70.1102 42.0988 70.795 35.0842 69.4451 28.3178C68.0951 21.5514 64.7709 15.3366 59.8921 10.4578C55.0133 5.57899 48.7985 2.25484 42.0321 0.904896C35.2658 -0.44505 28.2512 0.239701 21.8737 2.87279C15.4961 5.50588 10.0416 9.96928 6.19843 15.6996C2.35529 21.4299 0.295854 28.1702 0.280029 35.0699C0.280029 44.3525 3.96754 53.2549 10.5313 59.8187C17.0951 66.3824 25.9975 70.0699 35.28 70.0699Z" stroke="#CF1F25" stroke-width="0.45"/>
<path d="M35.28 2.29006C43.9871 2.29006 52.3375 5.74891 58.4943 11.9057C64.6511 18.0625 68.11 26.413 68.11 35.1201C68.11 43.8271 64.6511 52.1776 58.4943 58.3344C52.3375 64.4912 43.9871 67.95 35.28 67.95V60.7301C38.6825 60.7973 42.0642 60.1853 45.2272 58.9297C48.3902 57.6742 51.271 55.8003 53.701 53.4179C56.131 51.0354 58.0614 48.1922 59.3793 45.0546C60.6971 41.9171 61.3759 38.5481 61.3759 35.145C61.3759 31.7419 60.6971 28.373 59.3793 25.2354C58.0614 22.0979 56.131 19.2547 53.701 16.8722C51.271 14.4898 48.3902 12.6159 45.2272 11.3604C42.0642 10.1048 38.6825 9.49281 35.28 9.56008M2.40002 35.1201C2.41592 26.4006 5.8936 18.0442 12.0686 11.888C18.2436 5.73172 26.6105 2.27944 35.33 2.29006V9.56008C31.9276 9.49281 28.5459 10.1048 25.3829 11.3604C22.2199 12.6159 19.3391 14.4898 16.9091 16.8722C14.479 19.2547 12.5486 22.0979 11.2308 25.2354C9.91294 28.373 9.23419 31.7419 9.23419 35.145C9.23419 38.5481 9.91294 41.9171 11.2308 45.0546C12.5486 48.1922 14.479 51.0354 16.9091 53.4179C19.3391 55.8003 22.2199 57.6742 25.3829 58.9297C28.5459 60.1853 31.9276 60.7973 35.33 60.7301V67.95C26.6105 67.9607 18.2436 64.5084 12.0686 58.3521C5.8936 52.1959 2.41592 43.8396 2.40002 35.1201Z" fill="#CF1F25"/>
<path d="M54.88 58.3399L58.69 54.7599L16.17 12.3799L12.36 15.9099" fill="#CF1F25"/>
<path d="M55.82 37.3299H52.66C52.58 36.0799 52.31 34.1399 51.35 33.1899C51.35 33.1899 49.35 30.8199 46.9 30.8199H25.31C25.31 30.8199 22.44 30.7699 19.63 27.6399C18.2423 26.0435 16.9405 24.3745 15.73 22.6399V42.2199C17.1963 40.1957 18.8722 38.332 20.73 36.6599C22.0707 35.4965 23.7501 34.7952 25.52 34.6599H46.4C47.148 34.7163 47.845 35.0603 48.3447 35.6197C48.8444 36.1791 49.108 36.9103 49.08 37.6599H27.7C27.2796 37.7009 26.8733 37.8342 26.5103 38.0502C26.1473 38.2663 25.8365 38.5598 25.6 38.9099C25.092 39.6279 24.829 40.4906 24.85 41.3699C24.8749 42.4385 25.2007 43.4783 25.79 44.3699C26.4814 45.106 27.4154 45.5677 28.42 45.6699H47.2C48.0191 45.5982 48.8093 45.3322 49.5049 44.8939C50.2006 44.4557 50.7817 43.8578 51.2 43.1499C51.6919 42.2796 52.094 41.3616 52.4 40.4099H55.67L57.33 41.2399V36.2399L55.82 37.3299ZM46.88 42.8199H28.98C28.98 42.8199 27.69 42.9899 27.48 40.3999H49.05C49.05 40.3999 48.29 42.8199 46.88 42.8199Z" fill="#231F20"/>
</g>
<defs>
<clipPath id="clip0_8072_127">
<rect width="70.51" height="70.29" fill="white"/>
</clipPath>
</defs>
</svg>
