<svg width="76" height="66" viewBox="0 0 76 66" fill="none" xmlns="http://www.w3.org/2000/svg">
<g clip-path="url(#clip0_8063_5737)">
<path d="M1.12999 59.76L34.3399 2.61999C36.1599 -0.550007 39.41 -0.550007 41.24 2.61999L74.68 59.88C76.62 63.11 74.97 65.7 71.08 65.7H4.78996C0.599959 65.7 -0.870014 63.22 1.12999 59.76Z" fill="white"/>
<path d="M1.12999 59.76L34.3399 2.61999C36.1599 -0.550007 39.41 -0.550007 41.24 2.61999L74.68 59.88C76.62 63.11 74.97 65.7 71.08 65.7H4.78996C0.599959 65.7 -0.870014 63.22 1.12999 59.76Z" stroke="#D20D18" stroke-width="0.49"/>
<path d="M2.61001 60.41L35.61 3.68001C36.79 1.62001 38.91 1.68 40.04 3.73L73.18 60.52C74.36 62.52 73.18 64.17 70.82 64.17H5.20004C2.61004 64.17 1.48001 62.41 2.61001 60.41Z" fill="#D20D18"/>
<path d="M37.93 12.91L63.88 57.7H11.57" fill="#F8B500"/>
<path d="M37.93 12.91L63.88 57.7H11.57L37.93 12.91Z" stroke="#D20D18" stroke-width="0.57"/>
<path d="M35.05 30.66L34.93 28.89C34.93 28.72 34.82 28.66 34.76 28.66H34.52L27.68 35.83L36.94 37.36C37.05 37.36 37.24 37.3 37.24 37.24V37.05L36.29 35.46C37.7853 35.2845 39.3001 35.5205 40.6711 36.1425C42.0422 36.7646 43.2174 37.7492 44.07 38.99L47.43 36.11C46.0534 34.1677 44.1733 32.6376 41.9919 31.6844C39.8105 30.7311 37.4104 30.3908 35.05 30.7" fill="#231916"/>
<path d="M28.79 50.77L27.37 51.83C27.26 51.88 27.19 52 27.26 52C27.33 52 27.37 52.23 27.37 52.23L36.99 54.35L33.63 45.65C33.56 45.53 33.3899 45.47 33.3399 45.53C33.2749 45.5374 33.2129 45.5615 33.16 45.6L32.2699 47.24C31.333 46.0722 30.7426 44.6649 30.5658 43.1782C30.389 41.6914 30.633 40.1849 31.2699 38.83L27.08 37.36C26.1211 39.5399 25.7736 41.9398 26.0749 44.3022C26.3761 46.6646 27.3147 48.9004 28.79 50.77Z" fill="#231916"/>
<path d="M48.79 45.89L50.44 46.59C50.61 46.65 50.67 46.65 50.67 46.59C50.7108 46.5682 50.7442 46.5346 50.7656 46.4935C50.787 46.4525 50.7954 46.4059 50.79 46.36L47.72 37.12L41.94 44.42C41.9148 44.4749 41.9018 44.5346 41.9018 44.595C41.9018 44.6554 41.9148 44.7151 41.94 44.77C42 44.77 42 44.83 42.12 44.83L44.01 44.77C43.4812 46.1786 42.5722 47.413 41.3842 48.3362C40.1962 49.2595 38.7755 49.8354 37.28 50L38.23 54.35C40.5938 54.0355 42.8268 53.0812 44.6879 51.5902C46.5489 50.0993 47.9673 48.1282 48.79 45.89Z" fill="#231916"/>
</g>
<defs>
<clipPath id="clip0_8063_5737">
<rect width="75.74" height="65.95" fill="white"/>
</clipPath>
</defs>
</svg>
