<svg width="67" height="67" viewBox="0 0 67 67" fill="none" xmlns="http://www.w3.org/2000/svg">
<g clip-path="url(#clip0_8063_7143)">
<path d="M33.33 66.1C39.8384 66.0684 46.1916 64.1094 51.5877 60.4703C56.9837 56.8312 61.1808 51.6751 63.6492 45.6528C66.1175 39.6306 66.7465 33.012 65.4567 26.6325C64.1669 20.2531 61.016 14.3988 56.402 9.80843C51.7879 5.21808 45.9175 2.09748 39.5315 0.840531C33.1455 -0.416423 26.5303 0.246611 20.5208 2.74593C14.5113 5.24524 9.37691 9.46881 5.76564 14.8836C2.15437 20.2983 0.228098 26.6615 0.229997 33.17C0.232585 37.508 1.09175 41.8028 2.7582 45.808C4.42464 49.8132 6.8656 53.4499 9.94093 56.5094C13.0163 59.569 16.6654 61.9911 20.6791 63.6369C24.6928 65.2827 28.992 66.1197 33.33 66.1Z" stroke="#004A9C" stroke-width="0.45"/>
<path d="M1.65 33.17C1.63615 26.9085 3.47985 20.7837 6.94785 15.5703C10.4158 10.3569 15.3522 6.28939 21.1325 3.88226C26.9128 1.47513 33.2772 0.836608 39.4205 2.04748C45.5638 3.25836 51.2099 6.26422 55.6444 10.6848C60.0789 15.1053 63.1026 20.7418 64.3329 26.8812C65.5631 33.0206 64.9448 39.387 62.556 45.1749C60.1672 50.9628 56.1152 55.9121 50.9128 59.3965C45.7104 62.881 39.5914 64.744 33.3299 64.75C29.1744 64.7632 25.0571 63.956 21.2141 62.3749C17.3711 60.7937 13.878 58.4696 10.9349 55.5358C7.99183 52.602 5.65662 49.1163 4.06333 45.2783C2.47003 41.4403 1.64997 37.3256 1.65 33.17Z" fill="#004A9C"/>
<path d="M21.02 10.81C21.02 10.81 21.4099 10.16 21.6799 10.16C21.9499 10.16 22.33 10.86 22.33 10.86L30.0599 24.59C30.2662 24.9165 30.3692 25.2977 30.3555 25.6837C30.3417 26.0696 30.2119 26.4426 29.9829 26.7536C29.7539 27.0646 29.4365 27.2994 29.072 27.4272C28.7075 27.555 28.313 27.5699 27.9399 27.47C25.1599 26.93 25.16 25.73 24.51 26.17C23.86 26.61 24.1799 28.5 24.1799 28.5C24.1984 30.291 24.6425 32.0519 25.4753 33.6376C26.3082 35.2232 27.5059 36.5882 28.97 37.62C33.21 40.62 32.97 40.28 33.37 41.25C34.09 39.73 37.08 37.84 38.23 37.4C39.9529 36.7128 41.4214 35.51 42.4346 33.9563C43.4477 32.4026 43.956 30.5737 43.89 28.72C43.89 26.39 43.67 26.06 43.12 26.39C42.12 27.47 40.12 28.29 39.12 27.39C38.7605 26.9898 38.5709 26.4653 38.5914 25.9277C38.612 25.3901 38.841 24.8816 39.23 24.51L47.51 11.98C47.51 11.98 47.99 11.38 48.26 11.38C48.53 11.38 48.86 12.04 48.86 12.04L55.9499 25.17C56.4799 26.42 56.16 28.97 53.49 27.88C52.8031 27.7353 52.1757 27.3868 51.6899 26.88C51.1499 26.34 50.5999 26.66 50.6899 27.42C50.6899 32.9 49.98 36.32 44.98 40.77C42.86 42.61 37.52 44.57 37.52 48.31V57.43H29.52V49.24C29.52 45.87 28.26 44.89 26.46 43.54C24.83 42.35 21.79 42.02 18.79 35.54C17.6556 32.8309 17.1364 29.9039 17.27 26.97C17.27 25.66 16.94 25.56 16.12 25.97C15.3 26.38 13.89 28.03 12.58 25.97C12.3549 25.5847 12.2651 25.1353 12.3249 24.6932C12.3847 24.251 12.5908 23.8416 12.91 23.53" fill="white"/>
</g>
<defs>
<clipPath id="clip0_8063_7143">
<rect width="66.53" height="66.33" fill="white"/>
</clipPath>
</defs>
</svg>
