<svg width="76" height="67" viewBox="0 0 76 67" fill="none" xmlns="http://www.w3.org/2000/svg">
<g clip-path="url(#clip0_8063_6455)">
<path d="M74.7 59.82L41.43 2.62001C39.61 -0.549992 36.36 -0.549992 34.53 2.62001L1.09001 59.94C-0.909986 63.23 0.73999 65.82 4.68999 65.82H70.98C75.23 65.82 76.7 63.35 74.7 59.82Z" fill="white"/>
<path d="M74.7 59.82L41.43 2.62001C39.61 -0.549992 36.36 -0.549992 34.53 2.62001L1.09001 59.94C-0.909986 63.23 0.73999 65.82 4.68999 65.82H70.98C75.23 65.82 76.7 63.35 74.7 59.82Z" stroke="#D20D18" stroke-width="0.49"/>
<path d="M72.99 60.35L40.2 3.86C39.01 1.8 36.89 1.86 35.77 3.86L2.77 60.47C1.59 62.47 2.82999 64.05 5.12999 64.05H70.48C73.08 64.05 74.2 62.35 73.02 60.35" fill="#D20D18"/>
<path d="M37.84 13.03L11.95 57.65H64.14" fill="#F8B500"/>
<path d="M37.84 13.03L11.95 57.65H64.14L37.84 13.03Z" stroke="#D20D18" stroke-width="0.57"/>
<path d="M44.33 30.37H39.38V54.41H44.33V30.37Z" fill="#231916"/>
<path d="M36.54 30.37V40.13L31.12 45.83V54.41H26.4V44.72L31.65 38.37V30.37" fill="#231916"/>
</g>
<defs>
<clipPath id="clip0_8063_6455">
<rect width="75.83" height="66.07" fill="white"/>
</clipPath>
</defs>
</svg>
