<svg width="71" height="71" viewBox="0 0 71 71" fill="none" xmlns="http://www.w3.org/2000/svg">
<g clip-path="url(#clip0_8068_5386)">
<path d="M20.06 35.74L28.06 19.52H30.74V25.13H29.14L24.06 35.47V35.67H35.46V39.79H20.06V35.74ZM29.28 38.54L29.34 36.76V19.52H33.06V44.14H29.29L29.28 38.54Z" fill="#231F20"/>
<path d="M39.75 43.0001C38.4891 41.8283 37.5786 40.3292 37.12 38.6701C35.9066 34.1908 35.9066 29.4694 37.12 24.9901C37.5872 23.3347 38.4964 21.8378 39.75 20.6601C40.8943 19.7032 42.3384 19.179 43.83 19.179C45.3216 19.179 46.7658 19.7032 47.91 20.6601C49.172 21.8367 50.0855 23.3383 50.55 25.0001C51.2059 27.2159 51.5163 29.5197 51.47 31.8301C51.5162 34.1464 51.2093 36.4562 50.56 38.6801C50.0949 40.3335 49.1853 41.8277 47.93 43.0001C46.7817 43.9567 45.3345 44.4805 43.84 44.4805C42.3455 44.4805 40.8983 43.9567 39.75 43.0001ZM45.75 39.3301C46.394 38.4996 46.8265 37.5249 47.01 36.4901C47.3261 34.9577 47.467 33.3943 47.43 31.8301C47.456 30.2686 47.3085 28.709 46.9901 27.1801C46.8077 26.1455 46.3826 25.1688 45.75 24.3301C45.525 24.0357 45.2353 23.7971 44.9032 23.6329C44.571 23.4687 44.2055 23.3833 43.835 23.3833C43.4645 23.3833 43.099 23.4687 42.7669 23.6329C42.4347 23.7971 42.1449 24.0357 41.92 24.3301C41.2917 25.1725 40.8642 26.1473 40.67 27.1801C40.3466 28.7083 40.1989 30.2684 40.23 31.8301C40.2008 33.3945 40.345 34.9574 40.66 36.4901C40.8524 37.5222 41.2839 38.4948 41.92 39.3301C42.1484 39.6193 42.4393 39.8531 42.771 40.0138C43.1027 40.1745 43.4665 40.258 43.835 40.258C44.2036 40.258 44.5673 40.1745 44.899 40.0138C45.2307 39.8531 45.5216 39.6193 45.75 39.3301Z" fill="#231F20"/>
<path d="M35.22 70.24C28.2817 70.2261 21.5032 68.1563 15.7407 64.292C9.97816 60.4276 5.4902 54.9421 2.84371 48.5284C0.197214 42.1146 -0.489076 35.0604 0.871539 28.2569C2.23215 21.4533 5.57864 15.2056 10.4882 10.303C15.3978 5.40034 21.6503 2.06275 28.4558 0.711818C35.2613 -0.639117 42.3145 0.05721 48.7244 2.71283C55.1344 5.36844 60.6135 9.8642 64.4697 15.6322C68.3258 21.4002 70.386 28.1817 70.39 35.12C70.3662 44.4357 66.6516 53.3624 60.0597 59.9449C53.4677 66.5275 44.5358 70.2294 35.22 70.24ZM35.22 0.49998C28.3686 0.513824 21.6751 2.55853 15.9855 6.37565C10.2959 10.1928 5.86568 15.611 3.25472 21.9454C0.643758 28.2798 -0.0306983 35.2461 1.31661 41.9637C2.66391 48.6813 5.97245 54.8488 10.8241 59.6865C15.6758 64.5242 21.8527 67.8149 28.5742 69.1429C35.2957 70.4708 42.26 69.7762 48.5869 67.147C54.9137 64.5178 60.3191 60.0719 64.1198 54.3714C67.9205 48.6708 69.9459 41.9714 69.94 35.12C69.9215 25.922 66.256 17.1067 59.7473 10.6074C53.2386 4.10809 44.418 0.455269 35.22 0.449993V0.49998Z" fill="#CF1F25"/>
<path d="M35.23 2.34988C28.7548 2.3657 22.4296 4.30065 17.0538 7.9102C11.678 11.5197 7.49284 16.6419 5.02721 22.6293C2.56159 28.6167 1.92617 35.2006 3.20129 41.549C4.47641 47.8974 7.60482 53.7254 12.1912 58.2963C16.7775 62.8673 22.6159 65.9762 28.9686 67.23C35.3212 68.4838 41.903 67.8263 47.8821 65.3406C53.8612 62.8549 58.9692 58.6525 62.5607 53.2646C66.1522 47.8767 68.0659 41.5451 68.06 35.0699C68.0441 26.3795 64.578 18.0512 58.4236 11.9156C52.2693 5.77993 43.9303 2.33926 35.24 2.34988M35.24 60.6199C30.1936 60.61 25.2634 59.1048 21.072 56.2944C16.8806 53.484 13.6161 49.4945 11.6909 44.8298C9.76568 40.1651 9.26608 35.0345 10.2552 30.086C11.2443 25.1375 13.6777 20.5931 17.2482 17.0269C20.8186 13.4607 25.3658 11.0326 30.3154 10.0493C35.2651 9.06597 40.3951 9.57161 45.0575 11.5023C49.72 13.433 53.7057 16.7022 56.5112 20.8968C59.3166 25.0915 60.816 30.0235 60.82 35.0699C60.8068 41.8473 58.1065 48.3429 53.3113 53.1324C48.5162 57.922 42.0174 60.6146 35.24 60.6199Z" fill="#CF1F25"/>
<path d="M53.16 46.46H17.23V50.26H53.16V46.46Z" fill="#231F20"/>
<path d="M53.35 50.45H17.06V46.24H53.3701L53.35 50.45ZM17.43 50.06H52.96V46.66H17.43V50.06Z" fill="#231F20"/>
</g>
<defs>
<clipPath id="clip0_8068_5386">
<rect width="70.39" height="70.18" fill="white"/>
</clipPath>
</defs>
</svg>
