<svg width="76" height="66" viewBox="0 0 76 66" fill="none" xmlns="http://www.w3.org/2000/svg">
<g clip-path="url(#clip0_8063_5705)">
<path d="M74.55 59.76L41.35 2.61999C39.52 -0.550007 36.35 -0.550007 34.45 2.61999L1.03999 59.88C-0.900011 63.11 0.689965 65.7 4.63996 65.7H70.87C75.11 65.7 76.53 63.22 74.52 59.76" fill="white"/>
<path d="M74.55 59.76L41.35 2.61999C39.52 -0.550007 36.35 -0.550007 34.45 2.61999L1.03999 59.88C-0.900011 63.11 0.689965 65.7 4.63996 65.7H70.87C75.14 65.7 76.56 63.22 74.55 59.76Z" stroke="#D20D18" stroke-width="0.49"/>
<path d="M73.04 60.23L40.14 3.5C38.95 1.5 36.83 1.5 35.66 3.5L2.56003 60.29C1.33003 62.34 2.62001 63.93 4.92001 63.93H70.44C73.04 63.93 74.17 62.23 73.04 60.23Z" fill="#D20D18"/>
<path d="M37.75 12.73L11.81 57.53H64.17" fill="#F8B500"/>
<path d="M37.75 12.73L11.81 57.53H64.17L37.75 12.73Z" stroke="#D20D18" stroke-width="0.57"/>
<path d="M37.23 25.08L32.33 29.72V54.24H42V43.95L49.55 53.88L53.09 50.24L42 35.78V29.72" fill="#231916"/>
</g>
<defs>
<clipPath id="clip0_8063_5705">
<rect width="75.7" height="65.95" fill="white"/>
</clipPath>
</defs>
</svg>
