<svg width="77" height="30" viewBox="0 0 77 30" fill="none" xmlns="http://www.w3.org/2000/svg">
<g clip-path="url(#clip0_8072_530)">
<path d="M5.79018 28.8801C5.0555 28.8791 4.32821 28.7328 3.65029 28.4496C2.97237 28.1665 2.35704 27.752 1.83999 27.23C1.32632 26.7141 0.921151 26.1006 0.648093 25.4257C0.375034 24.7507 0.239761 24.028 0.250143 23.3" stroke="#231F20" stroke-width="0.49"/>
<path d="M0.240005 23.2901V5.83008" stroke="#231F20" stroke-width="0.49"/>
<path d="M0.250143 5.78998C0.239761 5.06199 0.375034 4.33929 0.648093 3.66437C0.921151 2.98945 1.32632 2.37596 1.83999 1.85999C2.35704 1.33804 2.97237 0.923561 3.65029 0.640381C4.32821 0.357201 5.0555 0.210896 5.79018 0.209961" stroke="#231F20" stroke-width="0.49"/>
<path d="M5.78999 0.23999H70.48" stroke="#231F20" stroke-width="0.49"/>
<path d="M70.4801 0.250053C71.2241 0.237421 71.9628 0.377289 72.6507 0.661064C73.3386 0.944838 73.9613 1.36647 74.4801 1.90002C75.0032 2.41253 75.4192 3.02384 75.7042 3.69848C75.9891 4.37312 76.1373 5.09766 76.14 5.83001" stroke="#231F20" stroke-width="0.49"/>
<path d="M76.09 5.83008V23.2901" stroke="#231F20" stroke-width="0.49"/>
<path d="M76.0899 23.3C76.0869 24.0314 75.9397 24.7551 75.6566 25.4294C75.3734 26.1038 74.96 26.7157 74.44 27.23C73.9198 27.7617 73.2971 28.1821 72.6095 28.4658C71.9218 28.7494 71.1838 28.8903 70.44 28.8801" stroke="#231F20" stroke-width="0.49"/>
<path d="M70.48 28.8701H5.78999" stroke="#231F20" stroke-width="0.49"/>
<path d="M5.79015 26.79C4.87574 26.7675 4.00657 26.3868 3.36998 25.73C3.02863 25.4189 2.7576 25.0385 2.57482 24.6143C2.39203 24.1901 2.30165 23.7318 2.30992 23.27" stroke="#231F20" stroke-width="0.49"/>
<path d="M2.31 23.2901V5.83008" stroke="#231F20" stroke-width="0.49"/>
<path d="M2.30986 5.79004C2.30209 5.32682 2.39254 4.8672 2.57525 4.44147C2.75795 4.01573 3.02882 3.63357 3.36992 3.32007C4.01504 2.68349 4.88378 2.32458 5.79009 2.32007" stroke="#231F20" stroke-width="0.49"/>
<path d="M5.78999 2.36011H70.48" stroke="#231F20" stroke-width="0.49"/>
<path d="M70.4801 2.35992C71.4085 2.35455 72.3014 2.71617 72.9644 3.36609C73.6275 4.016 74.0069 4.90155 74.0201 5.82989" stroke="#231F20" stroke-width="0.49"/>
<path d="M74.02 5.83008V23.2901" stroke="#231F20" stroke-width="0.49"/>
<path d="M74.0201 23.3C73.9946 24.229 73.6129 25.1126 72.9539 25.7679C72.295 26.4231 71.4092 26.7999 70.4801 26.8201" stroke="#231F20" stroke-width="0.49"/>
<path d="M70.48 26.8201H5.78999" stroke="#231F20" stroke-width="0.49"/>
<path d="M21.2602 9.90009C21.7125 10.2691 22.0578 10.7525 22.2602 11.3001C22.7535 12.667 22.7535 14.1632 22.2602 15.5301C22.0604 16.0791 21.7147 16.5631 21.2602 16.9301C20.8265 17.2518 20.3001 17.4237 19.7602 17.4201C19.2163 17.4297 18.6848 17.2572 18.2502 16.9301C17.7941 16.5646 17.4481 16.08 17.2502 15.5301C16.7439 14.1655 16.7439 12.6647 17.2502 11.3001C17.4534 10.753 17.7985 10.2698 18.2502 9.90009C18.6866 9.58449 19.2115 9.41461 19.7502 9.41461C20.2888 9.41461 20.8137 9.58449 21.2502 9.90009H21.2602ZM19.0102 11.1301C18.7744 11.3769 18.6058 11.6797 18.5202 12.0101C18.4003 12.4669 18.343 12.9379 18.35 13.4101C18.3416 13.8824 18.399 14.3536 18.5202 14.8101C18.599 15.1431 18.7686 15.4478 19.0102 15.6901C19.212 15.8834 19.4808 15.9909 19.7602 15.9901C19.8975 15.9936 20.034 15.9688 20.1613 15.9172C20.2886 15.8656 20.404 15.7883 20.5002 15.6901C20.745 15.4486 20.918 15.144 21.0002 14.8101C21.1214 14.3536 21.1785 13.8824 21.1701 13.4101C21.1806 12.937 21.12 12.4651 20.9901 12.0101C20.909 11.678 20.7397 11.374 20.5002 11.1301C20.404 11.032 20.2886 10.9546 20.1613 10.903C20.034 10.8514 19.8975 10.8266 19.7602 10.8301C19.4808 10.8293 19.212 10.9369 19.0102 11.1301ZM24.84 12.2001H21.7101V10.9301H24.84V12.2001ZM24.84 15.6801H21.7101V14.4101H24.84V15.6801ZM26.1401 19.8901H24.58V8.61011H26.1401V19.8901Z" fill="#231F20"/>
<path d="M33.17 13.0801C32.8338 14.0899 32.2771 15.0122 31.5401 15.7801C30.6538 16.6839 29.6055 17.4132 28.45 17.9301L27.6199 16.6701C28.5764 16.2456 29.4553 15.6643 30.22 14.9501C30.8525 14.3502 31.3412 13.6153 31.65 12.8001C31.9553 11.9263 32.1041 11.0055 32.0899 10.0801V9.7901H33.66C33.6765 10.9061 33.511 12.0173 33.17 13.0801ZM32.8099 11.0801H28.22V9.7901H32.8099V11.0801ZM37.0201 19.9001H35.42V8.61011H37.0201V19.9001Z" fill="#231F20"/>
<path d="M48.7601 16.34H38.5001V15.1H48.7601V16.34ZM41.2501 10.34H45.97V9.05005H47.5499V14.05H39.69V9.05005H41.2501V10.34ZM45.97 12.7501V11.5701H41.2501V12.79L45.97 12.7501ZM44.38 19.85H42.8199V15.7H44.38V19.85Z" fill="#231F20"/>
<path d="M55.19 10.7901H51.5101V16.4201H49.92V9.52008H55.17L55.19 10.7901ZM53.47 15.9601C54.2204 15.9192 54.9681 15.8391 55.71 15.7201L55.8699 16.9901C55.0979 17.1096 54.3204 17.1897 53.5401 17.2301C52.7701 17.2301 51.8599 17.3001 50.8299 17.3001H49.92V16.0101H50.8099C51.8599 16.0601 52.74 16.0401 53.47 16.0001V15.9601ZM54.7801 13.9001H51.16V12.6601H54.7801V13.9001ZM57.5301 13.8101H55.3699V12.5901H57.5301V13.8101ZM58.9 19.8101H57.3399V8.61011H58.92L58.9 19.8101Z" fill="#231F20"/>
</g>
<defs>
<clipPath id="clip0_8072_530">
<rect width="76.33" height="29.12" fill="white"/>
</clipPath>
</defs>
</svg>
