<svg width="71" height="71" viewBox="0 0 71 71" fill="none" xmlns="http://www.w3.org/2000/svg">
<g clip-path="url(#clip0_8063_6919)">
<path d="M39.31 62.68V54.81H41.87C42.36 54.81 44.38 54.27 42.58 52.37L35.51 47.37L27.72 52.52C26.3 53.71 27.12 54.96 28.92 54.85C30.92 54.75 31.26 54.8 31.26 55.85V62.69" fill="#231916"/>
<path d="M31.7 6.25V15.63H29.14C28.59 15.63 26.63 16.18 28.37 18.03L35.51 23.12L43.2901 17.97C44.7101 16.77 43.8901 15.53 42.0901 15.63C40.0901 15.74 39.75 15.69 39.75 14.63V6.27997" fill="#231916"/>
<path d="M35.2 69.9C42.0859 69.8683 48.808 67.7969 54.5174 63.9473C60.2268 60.0976 64.6674 54.6424 67.2784 48.2706C69.8893 41.8988 70.5536 34.8962 69.1872 28.1471C67.8208 21.398 64.4851 15.2052 59.6013 10.3507C54.7175 5.49626 48.5048 2.19788 41.7476 0.872142C34.9904 -0.453598 27.9919 0.252795 21.636 2.90205C15.28 5.5513 9.85158 10.0246 6.03635 15.7571C2.22113 21.4895 0.190177 28.224 0.199987 35.11C0.202582 39.698 1.11085 44.2404 2.87265 48.4766C4.63446 52.7129 7.21514 56.5596 10.4668 59.7964C13.7184 63.0332 17.577 65.5963 21.8213 67.3386C26.0655 69.081 30.612 69.9684 35.2 69.95" stroke="#A03027" stroke-width="0.45"/>
<path d="M35.2 2.27997C28.7223 2.29579 22.3945 4.23048 17.0155 7.83979C11.6364 11.4491 7.44736 16.5712 4.97712 22.5595C2.50688 28.5477 1.86626 35.1335 3.13606 41.4856C4.40585 47.8377 7.52916 53.6711 12.1117 58.2495C16.6942 62.8278 22.5305 65.9458 28.8837 67.2098C35.2369 68.4738 41.8222 67.8271 47.8082 65.3514C53.7941 62.8757 58.9124 58.6819 62.5168 53.2996C66.1212 47.9173 68.0501 41.5877 68.06 35.11C68.0587 30.7965 67.2076 26.5256 65.5554 22.5411C63.9032 18.5567 61.4823 14.9367 58.4308 11.888C55.3793 8.83933 51.7572 6.42164 47.7712 4.77308C43.7852 3.12451 39.5135 2.27735 35.2 2.27997ZM35.2 60.62C30.1478 60.5963 25.2159 59.0758 21.0273 56.2506C16.8387 53.4255 13.5814 49.4223 11.6667 44.7469C9.75199 40.0715 9.26585 34.9335 10.2697 29.9819C11.2735 25.0304 13.7222 20.4873 17.3065 16.9267C20.8909 13.3661 25.4501 10.9476 30.4082 9.97669C35.3663 9.00579 40.501 9.52603 45.1636 11.4717C49.8262 13.4175 53.8076 16.7013 56.6049 20.9086C59.4021 25.1158 60.8898 30.0577 60.88 35.11C60.8535 41.897 58.1341 48.3959 53.319 53.1791C48.5039 57.9623 41.987 60.6386 35.2 60.62Z" fill="#D20D18"/>
<path d="M52.59 34.74C52.938 34.7549 53.2789 34.8435 53.59 35C53.958 35.1956 54.2735 35.4769 54.51 35.82C54.7479 36.1813 54.9017 36.5913 54.96 37.0199C55.0288 37.4867 55.0622 37.9581 55.06 38.43V44.3399H52.88V38.3399C52.8819 38.0503 52.8483 37.7615 52.78 37.48C52.6971 37.2835 52.5579 37.116 52.3799 36.9986C52.202 36.8811 51.9932 36.819 51.78 36.82C51.5181 36.8007 51.2573 36.8701 51.0397 37.0171C50.822 37.164 50.6601 37.3799 50.58 37.63C50.4565 37.9797 50.3988 38.3492 50.41 38.72V44.31H48.3V38.72C48.3356 38.3199 48.2983 37.9167 48.19 37.5299C48.1258 37.3174 47.9927 37.1322 47.8116 37.0036C47.6306 36.8751 47.4119 36.8105 47.19 36.82C46.9405 36.7955 46.6897 36.8511 46.4739 36.9788C46.2582 37.1065 46.0886 37.2995 45.99 37.5299C45.8636 37.8961 45.8093 38.2832 45.83 38.67V44.31H43.71V34.97H45.71V36.3299C45.8821 35.9576 46.1191 35.619 46.41 35.3299C46.8425 34.9394 47.4074 34.7285 47.99 34.74C48.2553 34.7198 48.522 34.7527 48.7744 34.8368C49.0268 34.921 49.2599 35.0546 49.46 35.23C49.7992 35.5316 50.0454 35.9235 50.17 36.36C50.3873 35.8624 50.7323 35.4312 51.17 35.11C51.6045 34.8777 52.0875 34.751 52.58 34.74" fill="#231916"/>
<path d="M21.4 44.45C20.5935 44.5213 19.7816 44.3957 19.0344 44.0839C18.2871 43.7721 17.6267 43.2834 17.11 42.66C16.2062 41.3749 15.7463 39.8302 15.8 38.26H17.98C17.9664 39.1657 18.1723 40.0612 18.58 40.87C18.8817 41.3667 19.3181 41.7675 19.8385 42.026C20.3589 42.2844 20.942 42.3898 21.52 42.33C22.5037 42.3596 23.4594 42.0003 24.18 41.33C24.5096 40.994 24.768 40.595 24.9398 40.1569C25.1116 39.7187 25.1933 39.2504 25.18 38.78C25.2479 38.2869 25.192 37.7847 25.0175 37.3186C24.8429 36.8525 24.5551 36.4372 24.18 36.11C23.3147 35.5262 22.2821 35.2418 21.24 35.3C21.0977 35.2756 20.9523 35.2756 20.81 35.3H20.38V33.24C20.59 33.24 20.76 33.3 20.92 33.3H21.41C22.0746 33.3407 22.737 33.1916 23.32 32.87C23.7789 32.6308 24.1545 32.2581 24.3973 31.801C24.6401 31.344 24.7386 30.8242 24.68 30.31C24.6903 29.9096 24.6185 29.5114 24.4688 29.1398C24.3192 28.7683 24.0949 28.4314 23.81 28.15C23.2323 27.6586 22.4984 27.3892 21.74 27.39C21.156 27.3283 20.567 27.4453 20.0509 27.7257C19.5349 28.006 19.1161 28.4364 18.85 28.96C18.4915 29.7232 18.307 30.5567 18.31 31.4H16.2C16.1771 30.1804 16.4372 28.9721 16.96 27.87C17.3629 27.031 18.0103 26.3336 18.8171 25.8695C19.6239 25.4055 20.5522 25.1964 21.48 25.27C22.9058 25.1787 24.3113 25.6449 25.4 26.57C25.8854 27.0379 26.2629 27.6059 26.5064 28.2345C26.7499 28.8631 26.8535 29.5372 26.81 30.21C26.8568 31.1947 26.5716 32.1667 26 32.97C25.6313 33.4053 25.1655 33.7478 24.64 33.97C25.4955 34.2291 26.2298 34.7861 26.71 35.54C27.224 36.3712 27.4879 37.3329 27.47 38.31C27.5326 39.9079 26.9652 41.4663 25.89 42.65C25.3039 43.2271 24.6032 43.6748 23.8333 43.9642C23.0633 44.2536 22.2411 44.3782 21.42 44.33" fill="#231916"/>
<path d="M32.56 40.54H34.47C34.4882 40.9886 34.6293 41.4237 34.878 41.7975C35.1267 42.1714 35.4733 42.4697 35.88 42.66C36.3428 42.8772 36.8488 42.9866 37.36 42.98C37.8088 43.0116 38.2588 42.9376 38.6738 42.7639C39.0889 42.5903 39.4574 42.3218 39.75 41.98C40.2764 41.3325 40.5657 40.5245 40.57 39.69C40.5884 39.2589 40.5161 38.8286 40.3576 38.4272C40.1991 38.0259 39.958 37.6622 39.65 37.36C39.0269 36.8263 38.2304 36.5383 37.41 36.55C36.8431 36.5345 36.2817 36.6654 35.78 36.93C35.3218 37.1659 34.9272 37.5089 34.63 37.93L33.11 37.83L34.2 30.11H41.66V31.85H35.56L34.91 35.85C35.2118 35.6015 35.5488 35.3993 35.91 35.25C36.5045 35.0279 37.1355 34.9193 37.77 34.93C39.0081 34.9118 40.209 35.3536 41.14 36.17C41.5862 36.5849 41.9383 37.0905 42.1729 37.6528C42.4075 38.2151 42.519 38.821 42.5 39.43C42.5381 40.7365 42.0931 42.0112 41.25 43.01C40.7492 43.5626 40.1279 43.9926 39.4343 44.2665C38.7406 44.5405 37.9933 44.6512 37.25 44.59C36.134 44.612 35.0428 44.26 34.15 43.59C33.6922 43.2312 33.3181 42.777 33.0539 42.2589C32.7897 41.7407 32.6416 41.1712 32.62 40.59" fill="#231916"/>
<path d="M30 45.11C30.3009 45.1025 30.5876 44.9803 30.8014 44.7684C31.0152 44.5565 31.1399 44.2708 31.15 43.97C31.156 43.7365 31.0919 43.5067 30.9661 43.3099C30.8403 43.1132 30.6586 42.9586 30.4442 42.866C30.2298 42.7735 29.9927 42.7471 29.7632 42.7905C29.5338 42.8338 29.3225 42.9449 29.1567 43.1093C28.9908 43.2736 28.878 43.4839 28.8326 43.713C28.7873 43.942 28.8115 44.1794 28.9022 44.3946C28.9929 44.6098 29.146 44.7929 29.3416 44.9204C29.5372 45.0478 29.7665 45.1139 30 45.11Z" fill="#231916"/>
</g>
<defs>
<clipPath id="clip0_8063_6919">
<rect width="70.4" height="70.12" fill="white"/>
</clipPath>
</defs>
</svg>
