<svg width="40" height="70" viewBox="0 0 40 70" fill="none" xmlns="http://www.w3.org/2000/svg">
<g clip-path="url(#clip0_8063_8631)">
<path d="M7.38817 0.185425H0.155945V7.34342H7.38817V0.185425Z" fill="white"/>
<path d="M7.38817 0.185425H0.155945V7.34342H7.38817V0.185425Z" stroke="#231916" stroke-width="0.41"/>
<path d="M7.38814 17.157H1.00983V24.8342H7.38814V17.157Z" fill="white"/>
<path d="M7.38814 17.157H1.00983V24.8342H7.38814V17.157Z" stroke="#231916" stroke-width="0.41"/>
<path d="M7.37331 34.4252H2.71024V42.1024H7.37331V34.4252Z" fill="white"/>
<path d="M7.37331 34.4252H2.71024V42.1024H7.37331V34.4252Z" stroke="#231916" stroke-width="0.41"/>
<path d="M7.38072 51.3298H3.41562V56.0845H7.38072V51.3298Z" fill="white"/>
<path d="M7.38072 51.3298H3.41562V56.0845H7.38072V51.3298Z" stroke="#231916" stroke-width="0.41"/>
<path d="M7.38073 64.9783H3.60126V69.733H7.38073V64.9783Z" fill="white"/>
<path d="M7.38073 64.9783H3.60126V69.733H7.38073V64.9783Z" stroke="#231916" stroke-width="0.41"/>
<path d="M39.8441 62.5824H32.649V69.7404H39.8441V62.5824Z" fill="white"/>
<path d="M39.8441 62.5824H32.649V69.7404H39.8441V62.5824Z" stroke="#231916" stroke-width="0.41"/>
<path d="M39.0273 45.0917H32.649V52.7689H39.0273V45.0917Z" fill="white"/>
<path d="M39.0273 45.0917H32.649V52.7689H39.0273V45.0917Z" stroke="#231916" stroke-width="0.41"/>
<path d="M37.3195 27.8235H32.649V35.5007H37.3195V27.8235Z" fill="white"/>
<path d="M37.3195 27.8235H32.649V35.5007H37.3195V27.8235Z" stroke="#231916" stroke-width="0.41"/>
<path d="M36.577 13.8413H32.649V18.5663H36.577V13.8413Z" fill="white"/>
<path d="M36.577 13.8413H32.649V18.5663H36.577V13.8413Z" stroke="#231916" stroke-width="0.41"/>
<path d="M36.4285 0.185425H32.649V4.91044H36.4285V0.185425Z" fill="white"/>
<path d="M36.4285 0.185425H32.649V4.91044H36.4285V0.185425Z" stroke="#231916" stroke-width="0.41"/>
<path d="M11.5612 0.155762H9.11826V69.8516H11.5612V0.155762Z" fill="white"/>
<path d="M11.5612 0.155762H9.11826V69.8516H11.5612V0.155762Z" stroke="#231916" stroke-width="0.41"/>
<path d="M31.0228 0.155762H28.5428V69.8516H31.0228V0.155762Z" fill="white"/>
<path d="M31.0228 0.155762H28.5428V69.8516H31.0228V0.155762Z" stroke="#231916" stroke-width="0.41"/>
</g>
<defs>
<clipPath id="clip0_8063_8631">
<rect width="40" height="70" fill="white"/>
</clipPath>
</defs>
</svg>
