<svg width="72" height="71" viewBox="0 0 72 71" fill="none" xmlns="http://www.w3.org/2000/svg">
<g clip-path="url(#clip0_8063_9077)">
<path d="M48.0577 2.37887C53.8468 4.37725 59.2334 7.38503 63.9664 11.2619L61.7092 14.302C57.4486 10.7869 52.5771 8.08055 47.3366 6.31731L46.738 8.00623L38.7043 2.37887L48.8005 0.222778" fill="white"/>
<path d="M48.0577 2.38607C53.8485 4.37735 59.2359 7.38315 63.9664 11.262L61.7164 14.302C57.4522 10.7882 52.5786 8.082 47.3366 6.31732L46.738 8.00624L38.7043 2.38607L48.8005 0.22998L48.0577 2.38607Z" stroke="#231916" stroke-width="0.49"/>
<path d="M2.46635 27.3536C4.14692 21.498 6.87058 15.9914 10.5072 11.0967L13.6515 13.1593C10.3751 17.5859 7.93171 22.568 6.43991 27.8638L8.17792 28.367L2.99282 36.6463L0.223572 26.8002" fill="white"/>
<path d="M2.46635 27.3536C4.14692 21.498 6.87058 15.9914 10.5072 11.0967L13.6515 13.1593C10.3751 17.5859 7.93171 22.568 6.43991 27.8638L8.17792 28.367L2.99282 36.6463L0.223572 26.8002L2.46635 27.3536Z" stroke="#231916" stroke-width="0.49"/>
<path d="M29.0914 68.542C23.1528 66.9855 17.5375 64.3943 12.5048 60.888L14.5457 57.7257C19.071 60.8972 24.1472 63.2049 29.5168 64.5317L29.9423 62.8356L38.4087 67.7803L28.5361 70.7413" fill="white"/>
<path d="M29.0914 68.542C23.1528 66.9855 17.5375 64.3943 12.5048 60.888L14.5457 57.7257C19.071 60.8972 24.1472 63.2049 29.5168 64.5317L29.9423 62.8356L38.4087 67.7803L28.5361 70.7413L29.0914 68.542Z" stroke="#231916" stroke-width="0.49"/>
<path d="M69.5336 46.0253C67.7753 51.8547 65.0023 57.3307 61.3413 62.2032L58.1899 60.0974C61.5031 55.7098 63.9838 50.7556 65.5096 45.4791L63.7716 44.9689L69.036 36.7253L71.7187 46.6218" fill="white"/>
<path d="M69.5336 46.0253C67.7753 51.8547 65.0023 57.3307 61.3413 62.2032L58.1899 60.0974C61.5031 55.7098 63.9838 50.7556 65.5096 45.4791L63.7716 44.9689L69.036 36.7253L71.7187 46.6218L69.5336 46.0253Z" stroke="#231916" stroke-width="0.49"/>
<path d="M47.9279 19.4551C50.9592 21.2209 53.4736 23.7469 55.2211 26.7819C56.9685 29.8169 57.8879 33.255 57.8879 36.7541C57.8879 40.2532 56.9685 43.6914 55.2211 46.7264C53.4736 49.7614 50.9592 52.2875 47.9279 54.0532V51.1784C49.8685 49.8124 51.5157 48.0736 52.7726 46.0644C54.0296 44.0551 54.8711 41.8158 55.2476 39.478L47.9279 46.7871V43.9555L55.4639 36.4379C55.4214 34.8177 55.1619 33.2104 54.6923 31.6586L47.9279 38.4215V35.597L53.9279 29.5959C53.19 27.9956 52.2179 26.5133 51.0433 25.1975L47.8918 28.3238V25.5353L49.637 23.7673C49.089 23.257 48.4904 22.7899 47.8918 22.3299M42.0721 17.2128C44.1186 17.6496 46.0827 18.4064 47.8918 19.4551V22.3299C47.1586 21.8268 46.3924 21.373 45.5986 20.9716L42.0721 24.4788V21.6759L43.5938 20.1594C43.089 19.987 42.577 19.8576 42.0721 19.6923V17.2128ZM47.8918 54.0532C46.0838 55.1026 44.1192 55.8571 42.0721 56.2883V53.8016C44.1552 53.285 46.127 52.3962 47.8918 51.1784V54.0532ZM47.8918 25.5353V28.3238L42.0721 34.1166V31.2848L47.8918 25.5353ZM47.8918 35.597V38.4215L42.0721 44.1711V41.3826L47.8918 35.597ZM47.8918 43.9555L42.0721 49.7841V52.6158L47.8918 46.7871V43.9555ZM35.7332 16.7887C36.3678 16.7887 37.0529 16.7097 37.6875 16.7097C39.1638 16.7056 40.6354 16.8745 42.0721 17.2128V19.6635C40.6359 19.3223 39.1639 19.1535 37.6875 19.1604H37.3053L35.7332 20.7631V16.7887ZM42.0721 56.317C40.6357 56.6577 39.1641 56.829 37.6875 56.8273C37.0529 56.8273 36.3678 56.777 35.7332 56.7411V54.2903C36.3245 54.3334 36.9231 54.3766 37.5216 54.3766L42.0721 49.8129V52.6445L40.5794 54.1681C41.0914 54.0819 41.6034 53.9525 42.0721 53.8303V56.317ZM42.0721 21.6759V24.5075L35.7332 30.8033V27.9789L42.0721 21.6759ZM42.0721 31.3136V34.1452L35.7332 40.4338V37.6525L42.0721 31.3136ZM42.0721 41.3754L35.7332 47.6712V50.5028L42.0721 44.1639V41.3754ZM33.4183 17.1768C34.1913 17.0021 34.9739 16.8725 35.7621 16.7887V20.7631L33.4183 23.1707V20.296L34.2332 19.491C33.957 19.5211 33.6843 19.5764 33.4183 19.6563V17.1768ZM35.7621 56.7051C34.974 56.6237 34.1915 56.4965 33.4183 56.3242V53.8375C34.1915 54.0184 34.9738 54.1575 35.7621 54.2544V56.7051ZM35.7621 27.9573V30.7818L33.4183 33.1534V30.3002L35.7621 27.9573ZM35.7621 37.6309V40.4123L33.4183 42.784V39.9452L35.7621 37.6309ZM35.7621 47.6927V50.5244L33.4183 52.8457V50.0212L35.7621 47.6927ZM27.2091 19.6635C29.1294 18.5132 31.2275 17.6876 33.4183 17.22V19.7067C31.1842 20.2632 29.0769 21.2389 27.2091 22.5814V19.6635ZM33.4183 56.3746C31.2262 55.9077 29.1276 55.0793 27.2091 53.9238V51.049C28.2671 51.7851 29.3923 52.4204 30.5697 52.9464L33.4183 50.0716V52.896L32.6106 53.701C32.863 53.7873 33.1659 53.8303 33.4183 53.9166V56.3746ZM33.4183 20.3463L27.2091 26.678V29.5097L33.4183 23.2139V20.3463ZM33.4183 30.3577V33.175L27.2091 39.3414V36.5098L33.4183 30.3577ZM33.4183 39.9811V42.82L27.2091 48.9791V46.1116L33.4183 39.9811ZM17.5529 36.8188C17.5549 33.3748 18.4438 29.9889 20.1345 26.9852C21.8252 23.9815 24.2611 21.4605 27.2091 19.6635V22.5814C23.5212 25.2925 21.0236 29.3157 20.2356 33.8147L27.2091 26.678V29.5097L19.9976 36.941C20.0031 38.9014 20.3471 40.8463 21.0144 42.6906L27.2236 36.5314V39.363L21.8654 44.6814C22.621 46.1475 23.564 47.51 24.6707 48.7348L27.2236 46.1618V48.9863L26.1202 50.0932C26.4591 50.4238 26.8414 50.7184 27.2236 51.0202V53.895C24.28 52.1055 21.8464 49.5932 20.1557 46.5984C18.465 43.6035 17.5738 40.2264 17.5673 36.7901" fill="white"/>
<path d="M17.5601 36.7685C17.5401 32.7843 18.7073 28.8838 20.9139 25.5613C23.1205 22.2388 26.267 19.6438 29.9549 18.1052C33.6428 16.5667 37.7059 16.1539 41.6295 16.9189C45.553 17.684 49.1604 19.5926 51.9944 22.4029C54.8285 25.2131 56.7617 28.7986 57.549 32.7049C58.3364 36.6112 57.9424 40.6625 56.4171 44.3455C54.8918 48.0284 52.3038 51.1772 48.9811 53.3929C45.6583 55.6085 41.7503 56.7913 37.7524 56.7914C32.4116 56.8009 27.2853 54.6977 23.4994 50.9435C19.7134 47.1893 17.5773 42.0911 17.5601 36.7685ZM49.6731 23.7601C48.462 22.648 47.1031 21.7073 45.6346 20.9644L21.8365 44.6239C22.5921 46.0918 23.5377 47.4545 24.649 48.6773L49.6731 23.7601ZM21.0072 42.6331L43.6298 20.1235C41.7285 19.4766 39.7326 19.1487 37.7235 19.1533H37.3413L19.9904 36.8907C19.9959 38.8512 20.3399 40.7961 21.0072 42.6403V42.6331ZM54.6923 31.6514L32.6178 53.6219C34.2184 54.0982 35.88 54.3403 37.5505 54.3406L55.4639 36.438C55.4213 34.8177 55.1619 33.2104 54.6923 31.6586V31.6514ZM40.6154 54.1323C44.2911 53.5314 47.6834 51.7913 50.3101 49.1593C52.9369 46.5273 54.6645 43.1373 55.2476 39.4708L40.6154 54.1323ZM53.9279 29.5816C53.19 27.9812 52.2179 26.499 51.0432 25.1832L26.0769 50.0284C27.413 51.1895 28.9181 52.1419 30.5408 52.853L53.9279 29.5816ZM34.2404 19.5198C30.732 20.2015 27.5142 21.9293 25.0132 24.4744C22.5122 27.0194 20.8461 30.2616 20.2356 33.7715L34.2404 19.5198Z" stroke="#231916" stroke-width="0.49"/>
</g>
<defs>
<clipPath id="clip0_8063_9077">
<rect width="72" height="71" fill="white"/>
</clipPath>
</defs>
</svg>
