<svg width="71" height="71" viewBox="0 0 71 71" fill="none" xmlns="http://www.w3.org/2000/svg">
<g clip-path="url(#clip0_8063_8221)">
<path d="M5.83995 70.38C5.10327 70.3907 4.3719 70.2539 3.68895 69.9775C3.00599 69.7012 2.38528 69.2908 1.86338 68.7708C1.34149 68.2507 0.928943 67.6315 0.650128 66.9496C0.371313 66.2676 0.231886 65.5368 0.239972 64.8" stroke="#231916" stroke-width="0.49" stroke-linecap="round" stroke-linejoin="round"/>
<path d="M0.25 64.79V5.82996" stroke="#231916" stroke-width="0.49" stroke-linecap="round" stroke-linejoin="round"/>
<path d="M0.240005 5.8299C0.247557 4.36174 0.816396 2.95214 1.82997 1.88996C2.35576 1.36653 2.97981 0.952172 3.66628 0.670724C4.35274 0.389275 5.08806 0.246267 5.82997 0.249947" stroke="#231916" stroke-width="0.49" stroke-linecap="round" stroke-linejoin="round"/>
<path d="M5.85001 0.23999H65" stroke="#231916" stroke-width="0.49" stroke-linecap="round" stroke-linejoin="round"/>
<path d="M64.98 0.25C66.4602 0.25523 67.8785 0.844163 68.927 1.88892C69.9755 2.93367 70.5695 4.34984 70.58 5.82996" stroke="#231916" stroke-width="0.49" stroke-linecap="round" stroke-linejoin="round"/>
<path d="M70.6 5.82996V64.79" stroke="#231916" stroke-width="0.49" stroke-linecap="round" stroke-linejoin="round"/>
<path d="M70.6 64.79C70.6039 65.524 70.4598 66.2511 70.1763 66.9281C69.8928 67.6051 69.4757 68.2179 68.95 68.73C68.4259 69.2557 67.8021 69.6715 67.1153 69.9531C66.4284 70.2347 65.6923 70.3764 64.95 70.37" stroke="#231916" stroke-width="0.49" stroke-linecap="round" stroke-linejoin="round"/>
<path d="M65 70.37H5.85001" stroke="#231916" stroke-width="0.49" stroke-linecap="round" stroke-linejoin="round"/>
<path d="M5.83998 68.26C5.38109 68.2651 4.92576 68.1793 4.50014 68.0077C4.07451 67.8361 3.68702 67.582 3.36 67.26C2.69749 66.6068 2.31695 65.7203 2.29994 64.79" stroke="#231916" stroke-width="0.49" stroke-linecap="round" stroke-linejoin="round"/>
<path d="M2.3 64.79V5.82996" stroke="#231916" stroke-width="0.49" stroke-linecap="round" stroke-linejoin="round"/>
<path d="M2.29994 5.82992C2.31695 4.89971 2.69749 4.01315 3.36 3.35995C3.68702 3.03798 4.07451 2.7839 4.50014 2.61227C4.92576 2.44065 5.38109 2.35488 5.83998 2.35995" stroke="#231916" stroke-width="0.49" stroke-linecap="round" stroke-linejoin="round"/>
<path d="M5.85001 2.35999H65" stroke="#231916" stroke-width="0.49" stroke-linecap="round" stroke-linejoin="round"/>
<path d="M64.98 2.38005C65.4384 2.37196 65.8937 2.45609 66.3189 2.62749C66.7441 2.79888 67.1306 3.05402 67.4552 3.37773C67.7799 3.70144 68.0362 4.08717 68.2088 4.51189C68.3814 4.9366 68.4668 5.39162 68.46 5.85002" stroke="#231916" stroke-width="0.49" stroke-linecap="round" stroke-linejoin="round"/>
<path d="M68.48 5.82996V64.79" stroke="#231916" stroke-width="0.49" stroke-linecap="round" stroke-linejoin="round"/>
<path d="M68.48 64.79C68.4882 65.2484 68.4037 65.7036 68.2315 66.1284C68.0592 66.5532 67.8029 66.9389 67.4778 67.2621C67.1527 67.5853 66.7657 67.8394 66.3399 68.0092C65.9141 68.1789 65.4583 68.2609 65 68.25" stroke="#231916" stroke-width="0.49" stroke-linecap="round" stroke-linejoin="round"/>
<path d="M65 68.25H5.85001" stroke="#231916" stroke-width="0.49" stroke-linecap="round" stroke-linejoin="round"/>
<path d="M67.95 55.09H2.84" stroke="#231916" stroke-width="0.49" stroke-linecap="round" stroke-linejoin="round"/>
<path d="M25.72 59.26V60.4401H23.5401V59.26M23.5401 65.2V64.08C23.6524 64.083 23.7628 64.0509 23.856 63.9882C23.9492 63.9254 24.0205 63.8352 24.06 63.73C24.1978 63.5236 24.2646 63.2778 24.25 63.03C24.256 62.7611 24.1903 62.4953 24.06 62.26C24.0068 62.1699 23.9306 62.0955 23.8393 62.0446C23.7479 61.9936 23.6447 61.9679 23.5401 61.97V60.79C23.813 60.7963 24.0811 60.8633 24.325 60.9861C24.5689 61.1089 24.7824 61.2844 24.95 61.5C25.2939 61.9358 25.481 62.4749 25.481 63.03C25.481 63.5852 25.2939 64.1242 24.95 64.5601C24.7783 64.766 24.5624 64.9306 24.3183 65.0414C24.0741 65.1522 23.8081 65.2064 23.5401 65.2ZM23.5401 57.5601H24.83V58.73H23.5401V57.5601ZM29.38 57.33C29.38 57.33 29.38 57.4401 29.38 57.5601L29.32 57.74V66.62H27.98V62.5H27.38V66.26H26.09V57.4401H26.98C27.27 57.4401 27.38 57.44 27.44 57.5C27.5 57.56 27.51 57.5601 27.44 57.6801L27.38 57.85V61.26H27.98V57.26H28.8C29.1 57.26 29.28 57.26 29.34 57.33M23.5 60.4401H21.37V59.26H23.5V60.4401ZM23.5 58.73H22.5V57.5601H23.5V58.73ZM23.5 60.79V61.97C23.3938 61.9661 23.2884 61.9909 23.1951 62.042C23.1018 62.093 23.024 62.1684 22.97 62.26C22.8442 62.4971 22.779 62.7616 22.7801 63.03C22.7703 63.2773 22.8366 63.5216 22.97 63.73C23.0113 63.836 23.0844 63.9266 23.1794 63.9893C23.2743 64.0519 23.3863 64.0836 23.5 64.08V65.2H23.43C23.1622 65.2042 22.8969 65.1491 22.6531 65.0385C22.4093 64.9278 22.1931 64.7644 22.0201 64.5601C21.7106 64.1101 21.5465 63.5761 21.55 63.03C21.5355 62.4824 21.7006 61.945 22.0201 61.5C22.1801 61.2765 22.392 61.0951 22.6376 60.9714C22.8832 60.8478 23.155 60.7855 23.43 60.79H23.5Z" fill="#231916"/>
<path d="M46.6601 58.03V59.26H46.59V58.03M46.59 63.73L46.95 64.08C46.83 64.2 46.71 64.37 46.59 64.49V63.73ZM46.59 61.73H47.3V66.4401H48.5401V57.85L48.6 57.6801C48.66 57.5601 48.66 57.44 48.6 57.39C48.4048 57.3574 48.2078 57.3373 48.01 57.33H47.3V60.5H46.59V61.73ZM50.37 57.33C50.43 57.33 50.43 57.4401 50.37 57.5601L50.31 57.74V66.61H48.98V57.27H49.81C50.11 57.27 50.28 57.27 50.34 57.33M46.56 59.26H45.33V59.85C45.3156 60.6669 45.4338 61.4809 45.68 62.26C45.8637 62.8078 46.1639 63.3093 46.56 63.73V64.49V64.62C46.4008 64.7626 46.2775 64.9408 46.2 65.14C45.7973 64.8518 45.4741 64.4666 45.26 64.02C45.0014 63.5507 44.8415 63.0334 44.7901 62.5C44.6463 63.0191 44.4273 63.5143 44.14 63.97C43.864 64.4407 43.5048 64.8575 43.08 65.2C42.9064 65.0612 42.7488 64.9036 42.61 64.73C42.4793 64.5494 42.3207 64.3907 42.14 64.26C42.8256 63.7736 43.3567 63.1 43.67 62.3199C43.9744 61.5317 44.1337 60.6949 44.14 59.85V59.26H42.7801V58.03H46.61L46.56 59.26ZM46.56 60.5H46.1501V61.73H46.56V60.5Z" fill="#231916"/>
<path d="M2.55 49.77L62.56 2.64001" stroke="#231916" stroke-width="0.65" stroke-linecap="round" stroke-linejoin="round"/>
<path d="M2.75999 52.69L66.17 3.21997" stroke="#231916" stroke-width="0.65" stroke-linecap="round" stroke-linejoin="round"/>
<path d="M4.71001 54.81L68.09 5.07996" stroke="#231916" stroke-width="0.65" stroke-linecap="round" stroke-linejoin="round"/>
<path d="M8.81 54.98L68.4 8.02002" stroke="#231916" stroke-width="0.65" stroke-linecap="round" stroke-linejoin="round"/>
</g>
<defs>
<clipPath id="clip0_8063_8221">
<rect width="70.85" height="70.61" fill="white"/>
</clipPath>
</defs>
</svg>
