<svg width="69" height="69" viewBox="0 0 69 69" fill="none" xmlns="http://www.w3.org/2000/svg">
<g clip-path="url(#clip0_8068_5346)">
<path d="M34.52 68.7199C27.7224 68.7041 21.0821 66.6735 15.4382 62.8849C9.79433 59.0962 5.40024 53.7195 2.81125 47.4343C0.222254 41.149 -0.445347 34.2373 0.892667 27.5727C2.23068 20.9081 5.51428 14.7897 10.3286 9.99081C15.1429 5.19188 21.2718 1.92781 27.9406 0.611113C34.6095 -0.705586 41.5189 -0.0158136 47.7959 2.59326C54.0728 5.20233 59.4354 9.6136 63.206 15.2696C66.9766 20.9255 68.986 27.5723 68.9801 34.3699C68.9483 43.4894 65.304 52.2246 58.8452 58.6628C52.3864 65.101 43.6395 68.7173 34.52 68.7199ZM34.52 0.409887C27.8152 0.423734 21.2649 2.42369 15.6959 6.15728C10.1269 9.89087 5.78886 15.1907 3.22946 21.3877C0.670059 27.5848 0.00409114 34.4012 1.31552 40.9764C2.62695 47.5517 5.85701 53.591 10.598 58.3319C15.339 63.0729 21.3782 66.303 27.9535 67.6144C34.5287 68.9259 41.3452 68.2598 47.5422 65.7004C53.7392 63.141 59.0391 58.803 62.7727 53.234C66.5063 47.665 68.5061 41.1146 68.52 34.4099C68.5094 25.3995 64.9227 16.7617 58.5476 10.3941C52.1725 4.02652 43.5304 0.449882 34.52 0.449888V0.409887Z" fill="#CF1F25"/>
<path d="M34.52 1.62989C28.0469 1.64373 21.7232 3.57547 16.3474 7.18117C10.9715 10.7869 6.78469 15.9048 4.31577 21.8885C1.84685 27.8722 1.20655 34.4534 2.47568 40.8009C3.74481 47.1483 6.86644 52.9773 11.4464 57.5517C16.0263 62.126 21.8591 65.2406 28.2081 66.502C34.5571 67.7634 41.1375 67.115 47.1183 64.6388C53.099 62.1626 58.2118 57.9696 61.8109 52.5893C65.41 47.2091 67.3341 40.883 67.3401 34.4099C67.3374 30.1025 66.4865 25.8379 64.8357 21.8594C63.1849 17.8809 60.7666 14.2665 57.719 11.2226C54.6714 8.17873 51.0541 5.76491 47.0736 4.11898C43.0931 2.47305 38.8274 1.62726 34.52 1.62989ZM34.52 59.9099C29.4719 59.898 24.5407 58.3899 20.3496 55.5761C16.1585 52.7623 12.8956 48.7691 10.9734 44.1013C9.05114 39.4336 8.55587 34.3007 9.55015 29.3515C10.5444 24.4023 12.9836 19.859 16.5594 16.2957C20.1352 12.7325 24.6872 10.3093 29.6399 9.3325C34.5925 8.35567 39.7235 8.86901 44.3845 10.8077C49.0455 12.7463 53.0271 16.0233 55.8261 20.2243C58.6252 24.4253 60.116 29.3618 60.1101 34.4099C60.0968 41.1844 57.3936 47.6764 52.5948 52.4583C47.7961 57.2402 41.2946 59.9205 34.52 59.9099Z" fill="#CF1F25"/>
<path d="M22.93 46.6301C21.8841 46.006 21.0297 45.1066 20.46 44.0301C19.8509 42.877 19.5284 41.5942 19.52 40.2901H23.34C23.3671 40.8812 23.5351 41.4572 23.83 41.9701C24.0946 42.4428 24.477 42.8389 24.94 43.1201C25.3938 43.3898 25.9121 43.5315 26.44 43.5301C27.066 43.541 27.6779 43.3441 28.18 42.9701C28.7117 42.5704 29.1261 42.035 29.3799 41.4201C29.6776 40.7045 29.824 39.935 29.81 39.1601C29.8275 38.3719 29.6811 37.5887 29.3799 36.8601C29.1169 36.2394 28.6964 35.6983 28.16 35.2901C27.6425 34.9154 27.0188 34.7157 26.3799 34.7201C25.742 34.6909 25.1115 34.8661 24.58 35.2201C24.0473 35.616 23.6408 36.1579 23.41 36.7801H19.83L20.83 22.6001H32.52V26.8001H24.08L23.56 33.0101H23.7C24.0801 32.3703 24.626 31.8452 25.28 31.4901C25.9646 31.1092 26.7365 30.9127 27.52 30.9201C28.6377 30.9071 29.7293 31.2581 30.6299 31.9201C31.6091 32.664 32.3636 33.6642 32.81 34.8101C33.3511 36.1427 33.6132 37.5722 33.58 39.0101C33.6142 40.5225 33.3066 42.0232 32.68 43.4001C32.124 44.6138 31.2453 45.6515 30.14 46.4001C29.0335 47.1361 27.7286 47.5164 26.4 47.4901C25.1871 47.5195 23.9887 47.2225 22.93 46.6301Z" fill="#231F20"/>
<path d="M38.02 46.0801C36.7635 44.9104 35.8565 43.4149 35.4 41.7601C34.1866 37.2808 34.1866 32.5593 35.4 28.0801C35.8535 26.4101 36.7644 24.9001 38.03 23.7201C39.1716 22.7576 40.6169 22.2297 42.1101 22.2297C43.6033 22.2297 45.0484 22.7576 46.19 23.7201C47.4456 24.8961 48.3552 26.3936 48.82 28.0501C49.4807 30.2649 49.7911 32.5694 49.7401 34.8801C49.7919 37.1967 49.4849 39.5073 48.83 41.7301C48.3742 43.3875 47.4631 44.884 46.2 46.0501C45.0518 47.0066 43.6046 47.5305 42.1101 47.5305C40.6156 47.5305 39.1682 47.0066 38.02 46.0501V46.0801ZM44.02 42.4101C44.6604 41.5823 45.0895 40.6109 45.27 39.5801C45.5861 38.0443 45.727 36.4776 45.69 34.9101C45.7178 33.349 45.5735 31.7896 45.26 30.2601C45.0706 29.2258 44.6426 28.2499 44.01 27.4101C43.7861 27.1158 43.4972 26.8772 43.1658 26.713C42.8345 26.5487 42.4698 26.4633 42.1001 26.4633C41.7303 26.4633 41.3655 26.5487 41.0341 26.713C40.7028 26.8772 40.4139 27.1158 40.19 27.4101C39.5574 28.2499 39.1294 29.2258 38.94 30.2601C38.6137 31.7879 38.4628 33.348 38.4901 34.9101C38.4636 36.4782 38.6111 38.0444 38.93 39.5801C39.1147 40.6097 39.5433 41.5801 40.18 42.4101C40.4097 42.7 40.7013 42.9349 41.0335 43.0976C41.3657 43.2602 41.7302 43.3465 42.1001 43.3501C42.4712 43.3458 42.8369 43.2593 43.1706 43.0968C43.5043 42.9343 43.7978 42.6997 44.03 42.4101H44.02Z" fill="#231F20"/>
</g>
<defs>
<clipPath id="clip0_8068_5346">
<rect width="68.98" height="68.77" fill="white"/>
</clipPath>
</defs>
</svg>
