<svg width="68" height="71" viewBox="0 0 68 71" fill="none" xmlns="http://www.w3.org/2000/svg">
<g clip-path="url(#clip0_8063_9043)">
<path d="M5.59516 30.4977L0.17691 29.2512L6.74826 0.178955L12.1731 1.42538" fill="white"/>
<path d="M5.59516 30.4977L0.17691 29.2512L6.74826 0.178955L12.1731 1.42538L5.59516 30.4977Z" stroke="#241D1E" stroke-width="0.45"/>
<path d="M65.1762 55.6186L58.9259 46.8671L61.5466 44.9576L67.7969 53.7158" fill="white"/>
<path d="M65.1762 55.6186L58.9259 46.8671L61.5466 44.9576L67.7969 53.7158L65.1762 55.6186Z" stroke="#241D1E" stroke-width="0.45"/>
<path d="M45.5015 70.7879L39.2446 62.0364L41.8653 60.127L48.1222 68.8851" fill="white"/>
<path d="M45.5015 70.7879L39.2446 62.0364L41.8653 60.127L48.1222 68.8851L45.5015 70.7879Z" stroke="#241D1E" stroke-width="0.45"/>
<path d="M36.4733 57.2428L29.7643 48.8361L32.2802 46.7941L38.9891 55.2008" fill="white"/>
<path d="M36.4733 57.2428L29.7643 48.8361L32.2802 46.7941L38.9891 55.2008L36.4733 57.2428Z" stroke="#241D1E" stroke-width="0.45"/>
<path d="M26.1019 44.1288L18.4299 36.6105L20.6771 34.2767L28.3492 41.7885" fill="white"/>
<path d="M26.1019 44.1288L18.4299 36.6105L20.6771 34.2767L28.3492 41.7885L26.1019 44.1288Z" stroke="#241D1E" stroke-width="0.45"/>
<path d="M15.5013 34.5751L5.59515 30.4977L6.81377 27.4811L16.7199 31.5519" fill="white"/>
<path d="M15.5013 34.5751L5.59515 30.4977L6.81377 27.4811L16.7199 31.5519L15.5013 34.5751Z" stroke="#241D1E" stroke-width="0.45"/>
<path d="M55.0146 41.7023L48.168 33.4016L50.6511 31.3264L57.4976 39.6138" fill="white"/>
<path d="M55.0146 41.7023L48.168 33.4016L50.6511 31.3264L57.4976 39.6138L55.0146 41.7023Z" stroke="#241D1E" stroke-width="0.45"/>
<path d="M44.7546 29.4768L37.0891 21.9518L39.3494 19.618L47.0084 27.143" fill="white"/>
<path d="M44.7546 29.4768L37.0891 21.9518L39.3494 19.618L47.0084 27.143L44.7546 29.4768Z" stroke="#241D1E" stroke-width="0.45"/>
<path d="M33.2302 18.0534L24.6147 11.6555L26.5278 9.03003L35.1433 15.4279" fill="white"/>
<path d="M33.2302 18.0534L24.6147 11.6555L26.5278 9.03003L35.1433 15.4279L33.2302 18.0534Z" stroke="#241D1E" stroke-width="0.45"/>
<path d="M20.8213 8.93056L11.1117 4.4222L12.4613 1.45862L22.1775 5.97361" fill="white"/>
<path d="M20.8213 8.93056L11.1117 4.4222L12.4613 1.45862L22.1775 5.97361L20.8213 8.93056Z" stroke="#241D1E" stroke-width="0.45"/>
</g>
<defs>
<clipPath id="clip0_8063_9043">
<rect width="68" height="71" fill="white"/>
</clipPath>
</defs>
</svg>
