<svg width="71" height="71" viewBox="0 0 71 71" fill="none" xmlns="http://www.w3.org/2000/svg">
<g clip-path="url(#clip0_8063_6749)">
<path d="M35.17 69.95C42.0654 69.9361 48.8018 67.8783 54.5278 64.0366C60.2538 60.1948 64.7123 54.7417 67.3396 48.3665C69.9669 41.9913 70.6451 34.9803 69.2884 28.2197C67.9318 21.4591 64.6013 15.2525 59.7179 10.3844C54.8345 5.51637 48.6174 2.20543 41.8525 0.870145C35.0877 -0.465137 28.0789 0.235192 21.712 2.8826C15.3451 5.53 9.90606 10.0056 6.08239 15.7437C2.25872 21.4818 0.222077 28.2247 0.229973 35.12C0.261721 44.3668 3.95669 53.2242 10.5055 59.7523C17.0543 66.2805 25.9232 69.9474 35.17 69.95Z" stroke="#D20D18" stroke-width="0.45"/>
<path d="M35.17 2.33998C39.5183 2.26399 43.8382 3.05483 47.8775 4.6663C51.9169 6.27777 55.5948 8.67762 58.6967 11.7258C61.7987 14.774 64.2625 18.4095 65.9443 22.4201C67.6261 26.4307 68.4923 30.736 68.4923 35.085C68.4923 39.4339 67.6261 43.7394 65.9443 47.75C64.2625 51.7605 61.7987 55.396 58.6967 58.4442C55.5948 61.4924 51.9169 63.8922 47.8775 65.5037C43.8382 67.1151 39.5183 67.906 35.17 67.83V60.62C38.5658 60.6872 41.941 60.0764 45.0979 58.8233C48.2548 57.5702 51.1299 55.7001 53.5553 53.3223C55.9806 50.9445 57.9073 48.1068 59.2226 44.9754C60.5379 41.8439 61.2153 38.4815 61.2153 35.085C61.2153 31.6885 60.5379 28.3261 59.2226 25.1947C57.9073 22.0632 55.9806 19.2255 53.5553 16.8477C51.1299 14.4699 48.2548 12.5997 45.0979 11.3467C41.941 10.0936 38.5658 9.48279 35.17 9.55M2.34995 35.12C2.35126 30.8123 3.20146 26.547 4.85178 22.5679C6.50209 18.5889 8.92023 14.974 11.9681 11.9298C15.016 8.88565 18.6339 6.47186 22.615 4.8264C26.596 3.18093 30.8623 2.33604 35.17 2.33998V9.55C31.7742 9.48279 28.399 10.0936 25.2422 11.3467C22.0853 12.5997 19.2101 14.4699 16.7848 16.8477C14.3594 19.2255 12.4327 22.0632 11.1174 25.1947C9.80211 28.3261 9.1246 31.6885 9.1246 35.085C9.1246 38.4815 9.80211 41.8439 11.1174 44.9754C12.4327 48.1068 14.3594 50.9445 16.7848 53.3223C19.2101 55.7001 22.0853 57.5702 25.2422 58.8233C28.399 60.0764 31.7742 60.6872 35.17 60.62V67.83C26.4806 67.8432 18.1417 64.4048 11.987 58.2708C5.83237 52.1367 2.36584 43.8094 2.34995 35.12Z" fill="#D20D18"/>
<path d="M54.77 58.23L58.58 54.71L16.12 12.38L12.31 15.9" fill="#D20D18"/>
<path d="M51.89 25.73C52.0143 25.7065 52.1423 25.7107 52.2647 25.7423C52.3872 25.7739 52.5012 25.8321 52.5986 25.9128C52.696 25.9935 52.7744 26.0947 52.8282 26.2091C52.882 26.3236 52.9099 26.4485 52.9099 26.575C52.9099 26.7015 52.882 26.8264 52.8282 26.9409C52.7744 27.0554 52.696 27.1566 52.5986 27.2373C52.5012 27.318 52.3872 27.3762 52.2647 27.4078C52.1423 27.4393 52.0143 27.4435 51.89 27.42C51.7713 27.433 51.6512 27.4207 51.5376 27.3841C51.4239 27.3476 51.3193 27.2875 51.2304 27.2077C51.1416 27.128 51.0704 27.0305 51.0217 26.9215C50.973 26.8125 50.948 26.6944 50.948 26.575C50.948 26.4556 50.973 26.3376 51.0217 26.2286C51.0704 26.1195 51.1416 26.022 51.2304 25.9422C51.3193 25.8625 51.4239 25.8024 51.5376 25.7658C51.6512 25.7293 51.7713 25.7171 51.89 25.73Z" fill="white"/>
<path d="M51.89 25.73C52.0143 25.7065 52.1423 25.7107 52.2647 25.7423C52.3872 25.7739 52.5012 25.8321 52.5986 25.9128C52.696 25.9935 52.7744 26.0947 52.8282 26.2091C52.882 26.3236 52.9099 26.4485 52.9099 26.575C52.9099 26.7015 52.882 26.8264 52.8282 26.9409C52.7744 27.0554 52.696 27.1566 52.5986 27.2373C52.5012 27.318 52.3872 27.3762 52.2647 27.4078C52.1423 27.4393 52.0143 27.4435 51.89 27.42C51.7713 27.433 51.6512 27.4207 51.5376 27.3841C51.4239 27.3476 51.3193 27.2875 51.2304 27.2077C51.1416 27.128 51.0704 27.0305 51.0217 26.9215C50.973 26.8125 50.948 26.6944 50.948 26.575C50.948 26.4556 50.973 26.3376 51.0217 26.2286C51.0704 26.1195 51.1416 26.022 51.2304 25.9422C51.3193 25.8625 51.4239 25.8024 51.5376 25.7658C51.6512 25.7293 51.7713 25.7171 51.89 25.73Z" stroke="white" stroke-width="0.86"/>
<path d="M40.02 25.73C40.1387 25.7171 40.2588 25.7293 40.3724 25.7658C40.4861 25.8024 40.5908 25.8625 40.6797 25.9422C40.7685 26.022 40.8396 26.1195 40.8883 26.2286C40.9369 26.3376 40.962 26.4556 40.962 26.575C40.962 26.6944 40.9369 26.8125 40.8883 26.9215C40.8396 27.0305 40.7685 27.128 40.6797 27.2077C40.5908 27.2875 40.4861 27.3476 40.3724 27.3841C40.2588 27.4207 40.1387 27.433 40.02 27.42C39.8957 27.4435 39.7678 27.4393 39.6454 27.4078C39.5229 27.3762 39.4088 27.318 39.3114 27.2373C39.214 27.1566 39.1356 27.0554 39.0818 26.9409C39.0279 26.8264 39.0001 26.7015 39.0001 26.575C39.0001 26.4485 39.0279 26.3236 39.0818 26.2091C39.1356 26.0947 39.214 25.9935 39.3114 25.9128C39.4088 25.8321 39.5229 25.7739 39.6454 25.7423C39.7678 25.7107 39.8957 25.7065 40.02 25.73Z" fill="white"/>
<path d="M40.02 25.73C40.1387 25.7171 40.2588 25.7293 40.3724 25.7658C40.4861 25.8024 40.5908 25.8625 40.6797 25.9422C40.7685 26.022 40.8396 26.1195 40.8883 26.2286C40.9369 26.3376 40.962 26.4556 40.962 26.575C40.962 26.6944 40.9369 26.8125 40.8883 26.9215C40.8396 27.0305 40.7685 27.128 40.6797 27.2077C40.5908 27.2875 40.4861 27.3476 40.3724 27.3841C40.2588 27.4207 40.1387 27.433 40.02 27.42C39.8957 27.4435 39.7678 27.4393 39.6454 27.4078C39.5229 27.3762 39.4088 27.318 39.3114 27.2373C39.214 27.1566 39.1356 27.0554 39.0818 26.9409C39.0279 26.8264 39.0001 26.7015 39.0001 26.575C39.0001 26.4485 39.0279 26.3236 39.0818 26.2091C39.1356 26.0947 39.214 25.9935 39.3114 25.9128C39.4088 25.8321 39.5229 25.7739 39.6454 25.7423C39.7678 25.7107 39.8957 25.7065 40.02 25.73Z" stroke="white" stroke-width="0.86"/>
<path d="M48.95 25.02H43.18V25.73H48.95V25.02Z" fill="white"/>
<path d="M48.95 25.02H43.18V25.73H48.95V25.02Z" stroke="white" stroke-width="0.86"/>
<path d="M48.95 26.27H43.18V26.98H48.95V26.27Z" fill="white"/>
<path d="M48.95 26.27H43.18V26.98H48.95V26.27Z" stroke="white" stroke-width="0.86"/>
<path d="M52.41 25.45C52.5355 25.4367 52.6624 25.45 52.7824 25.4889C52.9025 25.5278 53.0129 25.5916 53.1067 25.676C53.2005 25.7604 53.2755 25.8635 53.3269 25.9788C53.3782 26.0941 53.4048 26.2188 53.4048 26.345C53.4048 26.4712 53.3782 26.596 53.3269 26.7112C53.2755 26.8265 53.2005 26.9297 53.1067 27.0141C53.0129 27.0985 52.9025 27.1622 52.7824 27.2012C52.6624 27.2401 52.5355 27.2533 52.41 27.24C52.2788 27.2642 52.1438 27.2591 52.0147 27.2253C51.8857 27.1914 51.7656 27.1296 51.6631 27.0442C51.5605 26.9588 51.4781 26.852 51.4215 26.7311C51.3649 26.6103 51.3354 26.4785 51.3354 26.345C51.3354 26.2116 51.3649 26.0798 51.4215 25.959C51.4781 25.8381 51.5605 25.7312 51.6631 25.6458C51.7656 25.5604 51.8857 25.4986 52.0147 25.4648C52.1438 25.4309 52.2788 25.4259 52.41 25.45Z" fill="white"/>
<path d="M52.41 25.45C52.5355 25.4367 52.6624 25.45 52.7824 25.4889C52.9025 25.5278 53.0129 25.5916 53.1067 25.676C53.2005 25.7604 53.2755 25.8635 53.3269 25.9788C53.3782 26.0941 53.4048 26.2188 53.4048 26.345C53.4048 26.4712 53.3782 26.596 53.3269 26.7112C53.2755 26.8265 53.2005 26.9297 53.1067 27.0141C53.0129 27.0985 52.9025 27.1622 52.7824 27.2012C52.6624 27.2401 52.5355 27.2533 52.41 27.24C52.2788 27.2642 52.1438 27.2591 52.0147 27.2253C51.8857 27.1914 51.7656 27.1296 51.6631 27.0442C51.5605 26.9588 51.4781 26.852 51.4215 26.7311C51.3649 26.6103 51.3354 26.4785 51.3354 26.345C51.3354 26.2116 51.3649 26.0798 51.4215 25.959C51.4781 25.8381 51.5605 25.7312 51.6631 25.6458C51.7656 25.5604 51.8857 25.4986 52.0147 25.4648C52.1438 25.4309 52.2788 25.4259 52.41 25.45Z" stroke="white" stroke-width="0.86"/>
<path d="M40.02 25.45C40.1455 25.4367 40.2724 25.45 40.3924 25.4889C40.5125 25.5278 40.623 25.5916 40.7168 25.676C40.8106 25.7604 40.8855 25.8635 40.9369 25.9788C40.9882 26.0941 41.0147 26.2188 41.0147 26.345C41.0147 26.4712 40.9882 26.596 40.9369 26.7112C40.8855 26.8265 40.8106 26.9297 40.7168 27.0141C40.623 27.0985 40.5125 27.1622 40.3924 27.2012C40.2724 27.2401 40.1455 27.2533 40.02 27.24C39.8887 27.2642 39.7538 27.2591 39.6247 27.2253C39.4956 27.1914 39.3756 27.1296 39.273 27.0442C39.1705 26.9588 39.0881 26.852 39.0315 26.7311C38.9748 26.6103 38.9454 26.4785 38.9454 26.345C38.9454 26.2116 38.9748 26.0798 39.0315 25.959C39.0881 25.8381 39.1705 25.7312 39.273 25.6458C39.3756 25.5604 39.4956 25.4986 39.6247 25.4648C39.7538 25.4309 39.8887 25.4259 40.02 25.45Z" fill="white"/>
<path d="M40.02 25.45C40.1455 25.4367 40.2724 25.45 40.3924 25.4889C40.5125 25.5278 40.623 25.5916 40.7168 25.676C40.8106 25.7604 40.8855 25.8635 40.9369 25.9788C40.9882 26.0941 41.0147 26.2188 41.0147 26.345C41.0147 26.4712 40.9882 26.596 40.9369 26.7112C40.8855 26.8265 40.8106 26.9297 40.7168 27.0141C40.623 27.0985 40.5125 27.1622 40.3924 27.2012C40.2724 27.2401 40.1455 27.2533 40.02 27.24C39.8887 27.2642 39.7538 27.2591 39.6247 27.2253C39.4956 27.1914 39.3756 27.1296 39.273 27.0442C39.1705 26.9588 39.0881 26.852 39.0315 26.7311C38.9748 26.6103 38.9454 26.4785 38.9454 26.345C38.9454 26.2116 38.9748 26.0798 39.0315 25.959C39.0881 25.8381 39.1705 25.7312 39.273 25.6458C39.3756 25.5604 39.4956 25.4986 39.6247 25.4648C39.7538 25.4309 39.8887 25.4259 40.02 25.45Z" stroke="white" stroke-width="0.86"/>
<path d="M49.27 24.75H43.29V25.51H49.27V24.75Z" fill="white"/>
<path d="M49.27 24.75H43.29V25.51H49.27V24.75Z" stroke="white" stroke-width="0.86"/>
<path d="M49.27 26.05H43.29V26.76H49.27V26.05Z" fill="white"/>
<path d="M49.27 26.05H43.29V26.76H49.27V26.05Z" stroke="white" stroke-width="0.86"/>
<path d="M40.24 49.55C39.9925 48.6559 39.5049 47.8466 38.83 47.21L39.31 46.89C38.7633 46.5788 38.1784 46.3402 37.57 46.18C37.7692 46.0816 37.9446 45.9412 38.0844 45.7686C38.2243 45.596 38.3251 45.3952 38.38 45.18C37.8011 45.13 37.2189 45.13 36.64 45.18V48.18C36.9754 48.1693 37.3093 48.2309 37.6189 48.3605C37.9284 48.4902 38.2064 48.685 38.4341 48.9317C38.6617 49.1783 38.8337 49.4709 38.9382 49.7899C39.0428 50.1088 39.0775 50.4465 39.04 50.78C38.9602 51.3667 38.6755 51.9062 38.2363 52.3033C37.7971 52.7004 37.2317 52.9294 36.64 52.95V54.69C38.93 54.14 40.72 52.69 40.24 49.59M36.64 52.19V49.31C37.46 49.7 38.1101 50.18 37.8401 50.73C37.7711 51.0515 37.6261 51.3517 37.4173 51.6057C37.2086 51.8597 36.942 52.0601 36.64 52.19ZM36.64 45.19C35.7216 45.3049 34.8126 45.4853 33.92 45.73C34.0155 45.2789 33.9772 44.8097 33.81 44.38C33.7354 44.2896 33.6436 44.2148 33.54 44.16V46.44L33.5999 46.38C33.739 46.4469 33.8828 46.5037 34.03 46.55L33.92 46.6C33.8011 46.6595 33.6723 46.6968 33.54 46.71V53.82C34.3299 54.4792 35.3434 54.8087 36.37 54.74C36.48 54.74 36.53 54.69 36.64 54.69V52.95C35.9061 52.9991 35.1696 52.9075 34.4701 52.68C35.224 52.7118 35.9728 52.5427 36.64 52.19V49.31C35.8802 49.0138 35.0977 48.7797 34.3 48.61C35.0514 48.3402 35.8418 48.195 36.64 48.18V45.19ZM33.54 44.19C33.44 44.08 33.33 43.97 33.33 43.92C33.2058 43.7022 33.1307 43.4598 33.11 43.21C32.848 42.1388 32.4622 41.1018 31.9601 40.12C31.9601 39.96 31.8 39.63 31.75 39.52C31.7 39.41 31.25 39.14 31.15 39.04C31.0392 38.935 30.9625 38.7991 30.93 38.65C30.82 38.55 30.54 38.44 30.49 38.33C30.46 37.8771 30.46 37.4228 30.49 36.97C30.442 36.5708 30.2976 36.1893 30.0694 35.8583C29.8412 35.5274 29.536 35.2568 29.18 35.07V42.89H29.24C29.4854 43.3884 29.6669 43.916 29.78 44.46C29.84 44.89 29.61 45.17 29.18 45.38V47.99L29.94 47.39L29.24 50.27L29.18 50.05V52.73C30.54 52.73 32.61 52.78 32.61 52.78C32.8656 53.1231 33.1806 53.4177 33.54 53.65L33.5901 53.76V46.65C33.4398 46.7285 33.296 46.8188 33.16 46.92C33.27 46.76 33.4301 46.59 33.5901 46.38L33.54 44.19ZM29.13 35.07C28.9309 35.0426 28.7291 35.0426 28.53 35.07C28.2711 35.0548 28.0124 35.1052 27.7782 35.2166C27.5439 35.328 27.3416 35.4967 27.19 35.7072C27.0384 35.9176 26.9425 36.163 26.911 36.4205C26.8795 36.678 26.9135 36.9392 27.01 37.18L27.3401 37.78C27.7201 38.98 27.7701 38.49 28.5901 38.6C28.6696 38.7597 28.7014 38.9389 28.6819 39.1162C28.6624 39.2935 28.5923 39.4614 28.4799 39.6C28.3025 39.8612 28.139 40.1316 27.99 40.41C27.28 41.33 27.66 41.41 26.99 42.58C26.99 42.64 26.77 42.8 26.66 43.07L26.83 43.45H27.2101C27.5301 43.18 28.3 43.07 28.57 42.86C28.6491 42.8045 28.7434 42.7747 28.8401 42.7747C28.9367 42.7747 29.0309 42.8045 29.11 42.86L29.13 35.07ZM29.13 45.38V47.99L28.37 48.58C28.37 48.58 28.75 48.81 29.13 50.05V52.73H28.64L28.53 52.13L28.7 51.21C28.3186 50.0882 27.5676 49.1292 26.57 48.49L24.7201 46.92L24.62 47.73C25.4703 48.728 25.9131 50.01 25.86 51.32C25.6444 52.2267 25.1354 53.0368 24.4121 53.6245C23.6888 54.2122 22.7916 54.5446 21.86 54.57V53.22C22.1722 53.2057 22.4831 53.169 22.79 53.11C23.1367 52.9684 23.445 52.747 23.69 52.4638C23.935 52.1805 24.1098 51.8435 24.2 51.48C24.42 50.77 24.4201 49.2 23.7101 48.93H23.41C23.0018 49.6226 22.5079 50.2609 21.94 50.83H21.88V49.73C22.0081 49.3872 22.1585 49.0532 22.33 48.73C22.6 48.89 22.43 48.24 22.49 48.13C22.33 48.13 22.1 48.08 21.88 48.08V46.18C22.5315 46.1994 23.1774 46.307 23.8 46.5C23.95 46.12 24.5 44.98 24.61 44.76C24.72 44.54 23.9499 44.28 23.8499 44.22C23.7999 43.73 23.7999 43.73 23.7299 43.14H23.95C23.95 42.92 24.06 42.65 24.61 42.54C24.61 42.54 25.81 42.38 26.08 42.6C26.2173 42.6934 26.3447 42.8006 26.4601 42.92C26.673 43.3757 26.7291 43.889 26.62 44.38C26.4672 44.4331 26.3225 44.5071 26.19 44.6C25.9197 44.7353 25.6648 44.8996 25.43 45.09C25.2645 45.2295 25.1486 45.419 25.0999 45.63C25.3954 45.9297 25.7321 46.1855 26.0999 46.39C26.9199 46.88 27.1 46.99 27.79 46.34L28.17 45.96L28.27 45.58C28.6 45.63 28.7099 45.42 28.9799 45.36L29.2 45.25M21.9 46.18C21.4204 46.112 20.9317 46.1541 20.4708 46.3031C20.0099 46.4521 19.589 46.7041 19.24 47.04C17.38 49.32 18.6901 47.8 18.5901 48.78C18.5901 49.05 18.1499 49.98 18.0999 50.25V50.84C18.1102 51.6217 18.3686 52.3801 18.8377 53.0055C19.3068 53.631 19.9624 54.0913 20.7101 54.32C21.0906 54.462 21.4938 54.5331 21.9 54.53V53.18C21.3465 53.1673 20.8125 52.9733 20.3799 52.6279C19.9472 52.2826 19.6397 51.8048 19.5046 51.268C19.3695 50.7311 19.4143 50.1647 19.632 49.6557C19.8498 49.1466 20.2285 48.7231 20.7101 48.45L21.03 48.13C21.3179 48.0873 21.6091 48.0705 21.9 48.08V46.18ZM21.9 49.7V50.84C21.26 51.39 21.36 51.17 21.31 51.17C21.53 50.73 21.69 50.25 21.9 49.7Z" fill="#231916"/>
<path d="M36.2101 27.89C35.9901 28 36.5901 29.14 37.2101 29.63V31.21C37.2607 31.4183 37.3768 31.6048 37.5414 31.742C37.706 31.8793 37.9103 31.9601 38.1243 31.9724C38.3382 31.9847 38.5506 31.928 38.7299 31.8105C38.9091 31.6931 39.0458 31.5211 39.12 31.32L39.23 29.74H51.3101L51.37 31.37C51.4482 31.5389 51.5719 31.6825 51.7273 31.7849C51.8827 31.8872 52.0635 31.9442 52.2495 31.9494C52.4355 31.9546 52.6193 31.9078 52.7802 31.8143C52.941 31.7208 53.0726 31.5842 53.16 31.42L53.3201 29.63C53.4901 29.63 54.52 28 54.25 27.89" fill="#231916"/>
<path d="M35.89 26.65H43.4999V27.73H36.21C35.9681 27.4248 35.8533 27.0378 35.89 26.65Z" fill="#231916"/>
<path d="M43.89 26.59H47.4799C47.6399 26.59 47.64 26.59 47.64 26.76V27.73C47.64 27.84 47.6399 27.84 47.4799 27.84H43.89C43.72 27.84 43.7201 27.84 43.7201 27.73V26.73C43.7201 26.56 43.72 26.56 43.89 26.56" fill="#231916"/>
<path d="M47.81 26.59H54.66C54.6899 26.8013 54.677 27.0164 54.622 27.2226C54.5671 27.4287 54.4712 27.6217 54.3401 27.79H47.81" fill="#231916"/>
<path d="M35.89 24.32H45.74V26.54H35.74C35.6054 25.7977 35.664 25.0332 35.91 24.32" fill="#231916"/>
<path d="M45.52 24.32H54.66C54.964 25.0013 55.0032 25.7714 54.77 26.48H45.52" fill="#231916"/>
<path d="M45.14 17.42H49.82C50.47 17.42 50.69 17.48 51.01 18.18L52.65 21.6C53.405 22.3546 54.0482 23.2133 54.56 24.15H45.14V21.55H51.62L50.53 18.78C50.4629 18.5511 50.3161 18.3537 50.1162 18.2235C49.9163 18.0933 49.6765 18.0389 49.44 18.07H45.14M36.05 24.15C36.3668 23.15 36.9679 22.2639 37.78 21.6L38.83 18.4C38.8886 18.0924 39.0613 17.8184 39.3136 17.6329C39.5658 17.4474 39.879 17.3642 40.19 17.4H45.19V18.05H40.56C39.63 18.05 39.69 18.05 39.42 18.87L38.76 21.53H45.19V24.13L36.05 24.15Z" fill="#231916"/>
<path d="M37.57 24.53C37.6843 24.53 37.7974 24.5525 37.9029 24.5962C38.0085 24.6399 38.1044 24.704 38.1852 24.7848C38.2659 24.8656 38.33 24.9615 38.3737 25.0671C38.4175 25.1726 38.44 25.2858 38.44 25.4C38.44 25.5143 38.4175 25.6274 38.3737 25.7329C38.33 25.8385 38.2659 25.9344 38.1852 26.0152C38.1044 26.096 38.0085 26.16 37.9029 26.2038C37.7974 26.2475 37.6843 26.27 37.57 26.27C37.3393 26.27 37.118 26.1783 36.9548 26.0152C36.7916 25.852 36.7 25.6308 36.7 25.4C36.7 25.1693 36.7916 24.948 36.9548 24.7848C37.118 24.6217 37.3393 24.53 37.57 24.53Z" fill="white"/>
<path d="M39.74 24.58C39.9707 24.58 40.192 24.6717 40.3552 24.8348C40.5184 24.998 40.61 25.2193 40.61 25.45C40.61 25.6808 40.5184 25.9021 40.3552 26.0652C40.192 26.2284 39.9707 26.32 39.74 26.32C39.5092 26.32 39.288 26.2284 39.1248 26.0652C38.9617 25.9021 38.87 25.6808 38.87 25.45C38.87 25.2193 38.9617 24.998 39.1248 24.8348C39.288 24.6717 39.5092 24.58 39.74 24.58Z" fill="white"/>
<path d="M50.9601 24.53C51.1905 24.5598 51.4035 24.6689 51.5622 24.8386C51.721 25.0083 51.8157 25.2281 51.83 25.46C51.83 25.6908 51.7383 25.912 51.5752 26.0752C51.412 26.2383 51.1908 26.33 50.9601 26.33C50.7293 26.33 50.508 26.2383 50.3448 26.0752C50.1817 25.912 50.0901 25.6908 50.0901 25.46C50.1044 25.2281 50.1991 25.0083 50.3579 24.8386C50.5166 24.6689 50.7296 24.5598 50.9601 24.53Z" fill="white"/>
<path d="M53.14 24.48C53.3735 24.4974 53.5922 24.6014 53.7531 24.7715C53.9141 24.9417 54.0056 25.1659 54.01 25.4C53.9925 25.6194 53.8934 25.8242 53.7324 25.9741C53.5714 26.124 53.36 26.2082 53.14 26.21C52.911 26.2188 52.6873 26.1399 52.5145 25.9893C52.3417 25.8388 52.2328 25.6281 52.2101 25.4C52.2287 25.1605 52.333 24.9358 52.5038 24.7668C52.6745 24.5979 52.9003 24.4961 53.14 24.48Z" fill="white"/>
</g>
<defs>
<clipPath id="clip0_8063_6749">
<rect width="70.4" height="70.18" fill="white"/>
</clipPath>
</defs>
</svg>
