<svg width="71" height="71" viewBox="0 0 71 71" fill="none" xmlns="http://www.w3.org/2000/svg">
<g clip-path="url(#clip0_8102_1200)">
<path d="M35.1699 69.9301C42.0648 69.9163 48.8011 67.8587 54.5269 64.0174C60.2526 60.1761 64.711 54.7235 67.3386 48.3489C69.9662 41.9743 70.6451 34.9638 69.2893 28.2035C67.9335 21.4432 64.6039 15.2365 59.7214 10.3681C54.839 5.49963 48.6228 2.1879 41.8587 0.851482C35.0945 -0.484931 28.0859 0.213943 21.7189 2.85981C15.3518 5.50568 9.91216 9.97978 6.08729 15.7165C2.26242 21.4533 0.224075 28.1952 0.229993 35.0901C0.259101 44.3386 3.95288 53.1986 10.502 59.7289C17.051 66.2592 25.9214 69.9275 35.1699 69.9301Z" stroke="#CF1F25" stroke-width="0.45"/>
<path d="M35.1699 2.34011C43.8558 2.34011 52.1858 5.79055 58.3276 11.9324C64.4695 18.0742 67.9199 26.4043 67.9199 35.0901C67.9199 43.776 64.4695 52.106 58.3276 58.2479C52.1858 64.3897 43.8558 67.8401 35.1699 67.8401V60.6201C41.9409 60.6201 48.4346 57.9303 53.2224 53.1425C58.0102 48.3547 60.7 41.8611 60.7 35.0901C60.7 28.3191 58.0102 21.8255 53.2224 17.0377C48.4346 12.2499 41.9409 9.56011 35.1699 9.56011M2.34998 35.1201C2.34997 30.812 3.19915 26.5462 4.849 22.5665C6.49885 18.5868 8.91707 14.9714 11.9652 11.927C15.0134 8.88257 18.6317 6.46884 22.6134 4.82385C26.5951 3.17885 30.8618 2.33486 35.1699 2.34011V9.56011C28.3989 9.56011 21.9054 12.2499 17.1176 17.0377C12.3298 21.8255 9.64001 28.3191 9.64001 35.0901C9.64001 41.8611 12.3298 48.3547 17.1176 53.1425C21.9054 57.9303 28.3989 60.6201 35.1699 60.6201V67.8401C30.8665 67.8467 26.604 67.0055 22.6256 65.3648C18.6473 63.724 15.0311 61.3157 11.9835 58.2774C8.9359 55.239 6.51656 51.6302 4.86365 47.6569C3.21074 43.6835 2.35654 39.4235 2.34998 35.1201Z" fill="#CF1F25"/>
<path d="M54.77 58.2299L58.58 54.7099L16.12 12.3799L12.31 15.8999" fill="#CF1F25"/>
<path d="M40.24 49.5601C39.9925 48.666 39.5049 47.8567 38.8301 47.2201L39.3101 46.8901C38.7611 46.5859 38.1767 46.3508 37.5701 46.1901C37.7692 46.0917 37.9447 45.9514 38.0845 45.7788C38.2243 45.6062 38.3252 45.4053 38.3801 45.1901C37.8017 45.1301 37.2183 45.1301 36.6399 45.1901V48.1901C36.9758 48.1809 37.3098 48.2438 37.6194 48.3746C37.9289 48.5055 38.2069 48.7012 38.4343 48.9486C38.6618 49.1959 38.8335 49.4892 38.938 49.8086C39.0425 50.128 39.0773 50.4661 39.04 50.8001C38.9602 51.3868 38.6755 51.9263 38.2363 52.3234C37.7972 52.7205 37.2316 52.9496 36.6399 52.9701V54.7001C38.9299 54.1601 40.72 52.7001 40.24 49.6101M36.6399 52.2101V49.3301C37.4499 49.7201 38.1101 50.2001 37.8401 50.7501C37.7711 51.0716 37.626 51.3718 37.4172 51.6258C37.2085 51.8798 36.9419 52.0802 36.6399 52.2101ZM36.6399 45.2101C35.7213 45.3239 34.8123 45.5044 33.9199 45.7501C34.0156 45.2957 33.9775 44.8232 33.8101 44.3901C33.7321 44.3058 33.6409 44.2349 33.54 44.1801V46.4601L33.6001 46.4001C33.7377 46.4676 33.8817 46.5212 34.03 46.5601L33.9199 46.6201C33.801 46.6796 33.6724 46.7169 33.54 46.7301V53.8401C34.33 54.4993 35.3436 54.8288 36.3701 54.7601C36.4801 54.7601 36.5299 54.7001 36.6399 54.7001V52.9301C35.906 52.9792 35.1695 52.8876 34.47 52.6601C35.2238 52.6909 35.9724 52.5218 36.6399 52.1701V49.2901C35.8795 48.9929 35.0973 48.7556 34.3 48.5801C35.0527 48.3151 35.8422 48.17 36.6399 48.1501V45.2101ZM33.54 44.2101C33.43 44.1001 33.3301 43.9801 33.3301 43.9301C33.2061 43.7158 33.131 43.4768 33.1101 43.2301C32.8481 42.1589 32.4621 41.1219 31.96 40.1401C31.8992 39.9357 31.8258 39.7353 31.74 39.5401C31.64 39.4301 31.2499 39.1601 31.1499 39.0601C31.0409 38.9537 30.9646 38.8184 30.9299 38.6701C30.8199 38.5601 30.54 38.4601 30.49 38.3501C30.4434 37.8984 30.4266 37.444 30.4399 36.9901C30.3919 36.5909 30.2477 36.2094 30.0195 35.8784C29.7913 35.5474 29.4861 35.2769 29.1301 35.0901V42.9101H29.1899C29.4369 43.408 29.6185 43.9356 29.73 44.4801C29.78 44.9101 29.5601 45.1801 29.1301 45.4001V47.9301L29.8899 47.3401L29.1899 50.2101L29.1301 50.0001V52.7601C30.4901 52.7601 32.5601 52.8201 32.5601 52.8201C32.8185 53.1608 33.1329 53.4549 33.49 53.6901L33.54 53.8001V46.6901C33.3898 46.7687 33.2461 46.8589 33.1101 46.9601C33.2201 46.8001 33.38 46.6301 33.54 46.4201V44.2101ZM29.1301 35.0901C28.9334 35.046 28.7314 35.0292 28.53 35.0401C28.2711 35.0249 28.0126 35.0753 27.7783 35.1867C27.5441 35.2981 27.3416 35.4668 27.1899 35.6773C27.0383 35.8878 26.9424 36.1331 26.9109 36.3906C26.8794 36.6481 26.9136 36.9093 27.01 37.1501L27.3401 37.7501C27.7101 38.9401 27.7701 38.4601 28.5901 38.5601C28.6617 38.7216 28.6892 38.8993 28.6699 39.0749C28.6506 39.2506 28.585 39.418 28.48 39.5601C28.3026 39.8213 28.139 40.0917 27.99 40.3701C27.28 41.2901 27.66 41.3701 26.99 42.5401C26.8631 42.6914 26.7524 42.8556 26.6599 43.0301L26.8301 43.4101L27.2 43.4601C27.53 43.1901 28.3001 43.0801 28.5701 42.8701C28.6486 42.8132 28.7431 42.7825 28.8401 42.7825C28.9371 42.7825 29.0316 42.8132 29.1101 42.8701L29.1301 35.0901ZM29.1301 45.4001V47.9301L28.3701 48.5301C28.3701 48.5301 28.7501 48.7501 29.1301 50.0001V52.7601H28.6399L28.53 52.1701L28.7 51.2501C28.3185 50.1283 27.5677 49.1693 26.5701 48.5301L24.72 46.9601L24.61 47.7701C25.4686 48.76 25.9158 50.0409 25.86 51.3501C25.6432 52.2571 25.1342 53.0676 24.4114 53.6567C23.6885 54.2458 22.792 54.5808 21.86 54.6101V53.2501C22.172 53.2394 22.4829 53.206 22.79 53.1501C23.1359 53.0071 23.4434 52.7853 23.6882 52.5023C23.9331 52.2193 24.1083 51.8829 24.2 51.5201C24.42 50.8101 24.42 49.2401 23.71 48.9701H23.39C22.9781 49.6602 22.4846 50.2981 21.92 50.8701L21.86 50.9201V49.7801C21.9884 49.4375 22.1388 49.1035 22.3101 48.7801C22.5701 48.9501 22.41 48.2901 22.47 48.1901C22.31 48.1901 22.08 48.1301 21.86 48.1301V46.2301C22.512 46.2526 23.1579 46.3636 23.78 46.5601C23.93 46.1801 24.48 45.0401 24.59 44.8201C24.7 44.6001 23.93 44.3301 23.83 44.2801C23.83 43.7901 23.83 43.7901 23.71 43.2001H23.9301C23.9301 42.9801 24.04 42.7001 24.59 42.6001C24.59 42.6001 25.7901 42.4401 26.0601 42.6501C26.1957 42.7493 26.3227 42.8596 26.4399 42.9801C26.6529 43.4358 26.7093 43.9491 26.6001 44.4401C26.4455 44.4891 26.3 44.5634 26.1699 44.6601C25.8966 44.7956 25.6385 44.9599 25.4 45.1501C25.2382 45.2911 25.1259 45.4804 25.08 45.6901C25.3782 45.9866 25.7146 46.2421 26.0801 46.4501C26.9001 46.9401 27.08 47.0501 27.76 46.4501L28.1499 46.0701L28.25 45.6901C28.58 45.6901 28.69 45.5201 28.96 45.4701L29.1799 45.3601M21.88 46.2801C21.3998 46.2164 20.9114 46.2614 20.4509 46.412C19.9905 46.5626 19.5697 46.8149 19.22 47.1501C17.36 49.4301 18.6701 47.9101 18.5701 48.8901C18.5701 49.1601 18.13 50.0801 18.08 50.3601V50.9301C18.0892 51.7109 18.3474 52.4684 18.8168 53.0925C19.2862 53.7165 19.9424 54.1746 20.6901 54.4001C21.0701 54.5451 21.4733 54.6196 21.88 54.6201V53.2601C21.3297 53.2438 20.7997 53.0485 20.3705 52.7037C19.9413 52.3589 19.6363 51.8836 19.5017 51.3497C19.3671 50.8159 19.4103 50.2527 19.6248 49.7457C19.8392 49.2386 20.2133 48.8153 20.6901 48.5401L21.01 48.2201C21.297 48.1689 21.5887 48.1488 21.88 48.1601V46.2801ZM21.88 49.8101V50.9301C21.23 51.4701 21.34 51.2601 21.29 51.2601C21.51 50.8201 21.67 50.3401 21.88 49.7901" fill="#231F20"/>
<path d="M50.9099 32.1899C50.63 32.19 50.3569 32.2751 50.1265 32.4341C49.8961 32.593 49.7195 32.8183 49.6201 33.0799H47.01V30.7399C46.9325 30.2983 46.747 29.8826 46.47 29.5299V27.3999C46.5216 26.7666 46.6734 26.1456 46.9199 25.5599C47.4493 24.8731 47.837 24.0879 48.0601 23.2499C48.1371 22.375 48.1371 21.4949 48.0601 20.6199C48.1062 19.994 48.0205 19.3653 47.8086 18.7745C47.5967 18.1837 47.2634 17.644 46.8301 17.1899V16.2999C47.1201 16.0999 47.1499 15.3999 47.1499 15.3999H47.5801C47.5801 13.9699 45.8801 14.1 45.8801 14.1C45.679 14.0832 45.4766 14.1087 45.2859 14.1747C45.0952 14.2406 44.9202 14.3457 44.7725 14.4831C44.6247 14.6206 44.5074 14.7873 44.4277 14.9727C44.3481 15.1581 44.308 15.3582 44.3101 15.5599H44.79C44.72 16.6899 45.24 16.9599 45.24 16.9599H45.76V17.4599C45.6479 17.8203 45.5807 18.1931 45.5601 18.57C45.3845 19.2716 45.0414 19.9201 44.5601 20.4599C43.495 21.3499 42.3386 22.1242 41.1101 22.7699C41.041 22.8514 40.9836 22.9423 40.9399 23.0399H39.6899V24.0399H40.76V32.2999C40.5446 32.3817 40.353 32.5162 40.2029 32.691C40.0528 32.8658 39.949 33.0754 39.9006 33.3007C39.8523 33.526 39.861 33.7598 39.9263 33.9808C39.9915 34.2018 40.1112 34.4029 40.2742 34.5659C40.4371 34.7288 40.6381 34.8483 40.8591 34.9136C41.0801 34.9788 41.314 34.9877 41.5393 34.9394C41.7646 34.8911 41.9741 34.7871 42.1489 34.637C42.3237 34.4868 42.4582 34.2953 42.54 34.0799H49.6201C49.7095 34.3152 49.8614 34.5215 50.0596 34.6766C50.2577 34.8317 50.4946 34.9297 50.7444 34.9599C50.9942 34.9902 51.2474 34.9515 51.4768 34.8482C51.7062 34.7448 51.9032 34.5807 52.0461 34.3735C52.189 34.1664 52.2725 33.9241 52.2876 33.673C52.3027 33.4218 52.2488 33.1712 52.1318 32.9484C52.0149 32.7256 51.8391 32.539 51.6238 32.4089C51.4084 32.2787 51.1616 32.2099 50.9099 32.2099V32.1899ZM42.54 33.0799C42.4714 32.8973 42.3645 32.7315 42.2266 32.5935C42.0886 32.4555 41.9226 32.3486 41.74 32.2799V23.1799L41.8801 23.13C43.1467 22.8395 44.328 22.2573 45.3301 21.4299V23.9299L45.1301 24.1499V25.9199C44.7401 26.4899 45.1301 28.0099 45.1301 28.0099L45.4399 29.4399L45.72 31.32C45.6 32 44.6399 32.41 44.6399 32.41C44.2486 32.5982 43.8798 32.8296 43.54 33.1L42.54 33.0799Z" fill="#231F20"/>
</g>
<defs>
<clipPath id="clip0_8102_1200">
<rect width="70.4" height="70.18" fill="white"/>
</clipPath>
</defs>
</svg>
