<svg width="76" height="67" viewBox="0 0 76 67" fill="none" xmlns="http://www.w3.org/2000/svg">
<g clip-path="url(#clip0_8063_6542)">
<path d="M74.61 59.78L41.3999 2.57999C39.5699 -0.54001 36.33 -0.54001 34.5 2.57999L1.05998 59.9C-0.880022 63.19 0.769953 65.77 4.65995 65.77H70.95C75.2 65.77 76.67 63.31 74.61 59.77" fill="white"/>
<path d="M74.61 59.78L41.3999 2.57999C39.5699 -0.54001 36.33 -0.54001 34.5 2.57999L1.05998 59.9C-0.880022 63.19 0.769953 65.77 4.65995 65.77H70.95C75.2 65.77 76.69 63.31 74.61 59.78Z" stroke="#D20D18" stroke-width="0.49"/>
<path d="M73.14 60.43L40.14 3.64002C38.97 1.64002 36.8401 1.70001 35.7201 3.70001L2.59007 60.55C1.41007 62.55 2.65007 64.19 4.96007 64.19H70.54C73.19 64.19 74.25 62.43 73.14 60.43Z" fill="#D20D18"/>
<path d="M37.8 12.93L11.8 57.73H64.22" fill="#F8B500"/>
<path d="M37.8 12.93L11.8 57.73H64.22L37.8 12.93Z" stroke="#D20D18" stroke-width="0.56"/>
<path d="M21.29 51.73V46.55H24.69C28.3961 43.3975 33.0946 41.6519 37.96 41.62C42.9912 41.6209 47.8671 43.3628 51.7599 46.55H54.59V51.85" fill="#231916"/>
</g>
<defs>
<clipPath id="clip0_8063_6542">
<rect width="75.77" height="66.02" fill="white"/>
</clipPath>
</defs>
</svg>
