<svg width="76" height="67" viewBox="0 0 76 67" fill="none" xmlns="http://www.w3.org/2000/svg">
<g clip-path="url(#clip0_8063_6492)">
<path d="M74.66 59.83L41.4 2.62998C39.63 -0.55002 36.4 -0.55002 34.5 2.62998L1.06003 59.94C-0.889968 63.24 0.760005 65.82 4.72001 65.82H71C75.25 65.82 76.72 63.35 74.66 59.82" fill="white"/>
<path d="M74.66 59.83L41.4 2.62998C39.63 -0.55002 36.4 -0.55002 34.5 2.62998L1.06003 59.94C-0.889968 63.24 0.760005 65.82 4.72001 65.82H71C75.28 65.82 76.72 63.35 74.66 59.83Z" stroke="#D20D18" stroke-width="0.49"/>
<path d="M73.0099 60.35L40.22 3.86C39.03 1.86 36.91 1.86 35.8 3.86L2.79999 60.47C1.62999 62.47 2.85997 64.06 5.15997 64.06H70.5099C73.1099 64.06 74.17 62.35 73.05 60.35" fill="#D20D18"/>
<path d="M37.8 13.03L11.97 57.65H64.1" fill="#F8B500"/>
<path d="M37.8 13.03L11.97 57.65H64.1L37.8 13.03Z" stroke="#D20D18" stroke-width="0.57"/>
<path d="M40.45 56.36H34.67C34.67 52.65 35.14 48.48 37.67 48.48C40.2 48.48 40.44 54 40.44 56.36" fill="#231916"/>
<path d="M29.42 50.01L33.91 42.25C34.67 40.9 34.14 40.25 33.14 40.25H32.14C32.14 34.78 35.62 37.72 35.62 28.61H30.62C30.62 36.66 27.26 33.49 27.26 40.43H26.44C25.49 40.43 25.02 40.96 25.61 42.54C26.2 44.12 28.33 50.07 28.33 50.07C28.56 50.89 29.03 50.77 29.44 50.01" fill="#231916"/>
<path d="M44.28 29.02L47.99 36.02C48.76 37.37 48.23 38.02 47.22 38.02H46.22C46.22 43.54 49.65 41.66 49.65 50.36H44.65C44.65 42.89 41.35 45.25 41.35 37.84H40.52C39.58 37.84 38.87 37.19 39.7 35.66C40.53 34.13 43.18 28.96 43.18 28.96C43.65 28.14 43.88 28.26 44.3 29.02" fill="#231916"/>
</g>
<defs>
<clipPath id="clip0_8063_6492">
<rect width="75.83" height="66.06" fill="white"/>
</clipPath>
</defs>
</svg>
