<svg width="71" height="71" viewBox="0 0 71 71" fill="none" xmlns="http://www.w3.org/2000/svg">
<g clip-path="url(#clip0_8102_1194)">
<path d="M35.1701 69.9301C42.0646 69.9143 48.7994 67.855 54.5239 64.0125C60.2483 60.17 64.7054 54.7168 67.3315 48.342C69.9576 41.9672 70.635 34.957 69.278 28.1973C67.9211 21.4377 64.5908 15.232 59.708 10.3646C54.8251 5.49709 48.6088 2.18636 41.8449 0.850758C35.081 -0.484848 28.0732 0.214607 21.7067 2.86077C15.3403 5.50693 9.90104 9.98101 6.07661 15.7175C2.25218 21.4541 0.214009 28.1956 0.219922 35.0901C0.249036 44.3404 3.94407 53.2018 10.4953 59.7324C17.0466 66.263 25.9198 69.9302 35.1701 69.9301Z" stroke="#CF1F25" stroke-width="0.45"/>
<path d="M35.1701 2.34011C43.8559 2.34011 52.186 5.79055 58.3278 11.9324C64.4696 18.0742 67.9201 26.4043 67.9201 35.0901C67.9201 43.776 64.4696 52.106 58.3278 58.2479C52.186 64.3897 43.8559 67.8401 35.1701 67.8401V60.6201C41.9411 60.6201 48.4345 57.9303 53.2224 53.1425C58.0102 48.3547 60.6999 41.8611 60.6999 35.0901C60.6999 28.3191 58.0102 21.8255 53.2224 17.0377C48.4345 12.2499 41.9411 9.56011 35.1701 9.56011M2.35004 35.1201C2.35003 30.812 3.19921 26.5462 4.84906 22.5665C6.49891 18.5868 8.91713 14.9714 11.9653 11.927C15.0134 8.88257 18.6315 6.46884 22.6132 4.82385C26.5949 3.17885 30.862 2.33486 35.1701 2.34011V9.56011C28.3991 9.56011 21.9054 12.2499 17.1176 17.0377C12.3298 21.8255 9.64008 28.3191 9.64008 35.0901C9.64008 41.8611 12.3298 48.3547 17.1176 53.1425C21.9054 57.9303 28.3991 60.6201 35.1701 60.6201V67.8401C30.8667 67.8467 26.604 67.0055 22.6257 65.3648C18.6473 63.724 15.031 61.3157 11.9833 58.2774C8.93572 55.239 6.51638 51.6302 4.86346 47.6569C3.21055 43.6835 2.3566 39.4235 2.35004 35.1201Z" fill="#CF1F25"/>
<path d="M54.77 58.2299L58.58 54.7099L16.12 12.3799L12.31 15.8999" fill="#CF1F25"/>
<path d="M44.6601 48.0001C44.1183 48.0005 43.5895 48.1664 43.1445 48.4756C42.6995 48.7847 42.3595 49.2224 42.1701 49.73H37.1701V45.21C37.0191 44.3643 36.658 43.57 36.1201 42.9001V38.8C36.2212 37.5836 36.5182 36.3916 36.9999 35.27C38.0158 33.9468 38.7569 32.4338 39.1799 30.8201C39.3339 29.1369 39.3339 27.4432 39.1799 25.76C39.1799 21.13 36.82 19.17 36.82 19.17V17.4701C37.39 17.0801 37.4299 15.73 37.4299 15.73H38.2599C38.2599 12.98 34.9899 13.24 34.9899 13.24C34.6056 13.208 34.2189 13.2566 33.8544 13.3826C33.49 13.5087 33.1559 13.7094 32.8735 13.9721C32.5911 14.2347 32.3667 14.5534 32.2145 14.9078C32.0624 15.2622 31.9858 15.6444 31.9899 16.0301H32.9101C32.7801 18.2101 33.78 18.74 33.78 18.74H34.78V19.74C34.5572 20.4299 34.4262 21.146 34.3901 21.8701C34.2601 23.4401 32.4699 25.49 32.4699 25.49C31.1199 27.06 25.84 29.9401 25.84 29.9401C25.7065 30.099 25.5985 30.2779 25.52 30.4701H23.05V32.3401H25.05V48.2201C24.6322 48.3753 24.2602 48.6331 23.968 48.9697C23.6758 49.3063 23.4726 49.711 23.3776 50.1465C23.2826 50.582 23.2986 51.0344 23.424 51.4621C23.5495 51.8898 23.7805 52.2792 24.0956 52.5944C24.4108 52.9095 24.8002 53.1405 25.228 53.2659C25.6557 53.3914 26.1081 53.4073 26.5436 53.3123C26.9791 53.2173 27.3838 53.0144 27.7204 52.7222C28.057 52.43 28.3146 52.0579 28.4699 51.64H42.09C42.2615 52.0939 42.5537 52.4923 42.9352 52.792C43.3168 53.0916 43.7732 53.2813 44.2548 53.3403C44.7364 53.3993 45.2248 53.3255 45.6674 53.1269C46.1101 52.9282 46.4901 52.6122 46.7661 52.2132C47.0421 51.8142 47.2036 51.3472 47.2333 50.863C47.2631 50.3787 47.1599 49.8955 46.9348 49.4657C46.7096 49.0359 46.371 48.6759 45.956 48.4246C45.541 48.1733 45.0652 48.0403 44.58 48.04L44.6601 48.0001ZM28.55 49.73C28.42 49.3761 28.2149 49.0544 27.9492 48.7869C27.6834 48.5194 27.3631 48.3124 27.0099 48.18V30.6901L27.29 30.6001C30.29 30.2901 33.9201 27.33 33.9201 27.33V32.08L33.53 32.52V35.92C32.79 37.01 33.53 39.92 33.53 39.92L34.1401 42.67L34.6601 46.29C34.4401 47.6 32.59 48.39 32.59 48.39C31.8362 48.7533 31.125 49.1994 30.4699 49.7201L28.55 49.73Z" fill="#231F20"/>
</g>
<defs>
<clipPath id="clip0_8102_1194">
<rect width="70.4" height="70.18" fill="white"/>
</clipPath>
</defs>
</svg>
