<svg width="69" height="69" viewBox="0 0 69 69" fill="none" xmlns="http://www.w3.org/2000/svg">
<g clip-path="url(#clip0_8063_7153)">
<path d="M34.25 68C40.9498 67.9782 47.4928 65.9711 53.0524 62.2323C58.6119 58.4934 62.9385 53.1906 65.4855 46.9938C68.0325 40.797 68.6856 33.9843 67.3623 27.4165C66.039 20.8487 62.7988 14.8204 58.0508 10.0934C53.3029 5.36644 47.2603 2.15276 40.6867 0.858515C34.113 -0.435727 27.3033 0.247509 21.1178 2.82189C14.9323 5.39628 9.6487 9.74629 5.93447 15.3223C2.22024 20.8983 0.242151 27.4502 0.250023 34.15C0.259205 38.6053 1.14601 43.0151 2.85976 47.1276C4.57352 51.2401 7.08061 54.9747 10.2379 58.1181C13.3953 61.2615 17.141 63.7521 21.261 65.4477C25.381 67.1432 29.7947 68.0105 34.25 68Z" stroke="#004A9C" stroke-width="0.45"/>
<path d="M2.28004 34.14C2.24043 27.8026 4.08341 21.5962 7.57545 16.3076C11.0675 11.019 16.0513 6.88635 21.8949 4.43365C27.7385 1.98095 34.1789 1.31865 40.3994 2.5307C46.6199 3.74275 52.3404 6.77455 56.8357 11.2418C61.331 15.709 64.3986 21.4104 65.6497 27.6232C66.9007 33.836 66.2788 40.2803 63.8628 46.1392C61.4468 51.9981 57.3455 57.0077 52.0789 60.5328C46.8123 64.058 40.6175 65.9399 34.28 65.94C30.0909 65.9532 25.9402 65.141 22.0648 63.55C18.1895 61.9591 14.6655 59.6204 11.694 56.6675C8.72251 53.7146 6.36173 50.2053 4.74647 46.34C3.13122 42.4748 2.29316 38.3292 2.28004 34.14Z" fill="#004A9C"/>
<path d="M22.6501 32.79L18.8901 49.5C18.5101 51.08 17.9701 52.27 20.5301 51.62L37.1801 47.55C40.5101 46.79 41.18 43.86 38.11 43.37C35.33 42.94 33.21 42.37 34.57 41.04L55.97 19.71L50.9001 14.71L29.34 35.98C28.69 36.63 27.6001 36.63 27.0601 34.08C26.5201 31.53 24.3901 28.6 22.6501 32.78" fill="white"/>
</g>
<defs>
<clipPath id="clip0_8063_7153">
<rect width="68.44" height="68.22" fill="white"/>
</clipPath>
</defs>
</svg>
