<svg width="67" height="66" viewBox="0 0 67 66" fill="none" xmlns="http://www.w3.org/2000/svg">
<g clip-path="url(#clip0_8063_7158)">
<path d="M2.28998 58.12C2.29129 58.7985 2.42641 59.47 2.68756 60.0962C2.94871 60.7224 3.33081 61.2909 3.81195 61.7693C4.29309 62.2476 4.86382 62.6264 5.49152 62.884C6.11921 63.1415 6.79157 63.2726 7.47003 63.27H59.06C60.4349 63.2754 61.7562 62.7371 62.7359 61.7724C63.7156 60.8077 64.2742 59.4949 64.29 58.12V7.65001C64.2874 6.96768 64.1498 6.29262 63.8851 5.66374C63.6203 5.03486 63.2337 4.46457 62.7475 3.98582C62.2613 3.50707 61.6852 3.12933 61.0523 2.87431C60.4194 2.6193 59.7423 2.49206 59.06 2.49998H7.50995C6.83039 2.49335 6.15629 2.62182 5.52679 2.87791C4.8973 3.134 4.32502 3.51265 3.84308 3.9918C3.36114 4.47095 2.97916 5.04105 2.71942 5.66905C2.45968 6.29705 2.32734 6.97042 2.33002 7.65001" fill="#004A9C"/>
<path d="M5.83 65.56H60.65" stroke="#004A9C" stroke-width="0.45"/>
<path d="M0.230042 60.01C0.233971 60.7415 0.381912 61.465 0.665466 62.1393C0.949021 62.8136 1.36262 63.4254 1.88263 63.9398C2.40264 64.4543 3.01881 64.8612 3.69611 65.1375C4.3734 65.4138 5.09855 65.554 5.83002 65.55" stroke="#004A9C" stroke-width="0.45"/>
<path d="M60.65 65.55C61.3823 65.5553 62.1085 65.4161 62.7869 65.1404C63.4654 64.8648 64.0827 64.458 64.6038 63.9434C65.1249 63.4289 65.5394 62.8165 65.8235 62.1416C66.1077 61.4667 66.256 60.7423 66.2599 60.01" stroke="#004A9C" stroke-width="0.45"/>
<path d="M66.25 60.02V5.76001" stroke="#004A9C" stroke-width="0.45"/>
<path d="M66.2599 5.75002C66.2467 4.27358 65.649 2.86259 64.5975 1.82607C63.546 0.789555 62.1264 0.212055 60.65 0.220053" stroke="#004A9C" stroke-width="0.45"/>
<path d="M60.65 0.22998H5.83" stroke="#004A9C" stroke-width="0.45"/>
<path d="M5.83002 0.220052C4.35448 0.212067 2.93609 0.789883 1.88617 1.82668C0.836248 2.86348 0.240616 4.2745 0.230042 5.75002" stroke="#004A9C" stroke-width="0.45"/>
<path d="M0.229996 5.76001V60.02" stroke="#004A9C" stroke-width="0.45"/>
<path d="M25.92 7.38H24.94V16.55H25.92V7.38Z" fill="white"/>
<path d="M25.92 21.99H24.94V31.21H25.92V21.99Z" fill="white"/>
<path d="M25.92 36.42H24.94V45.65H25.92V36.42Z" fill="white"/>
<path d="M25.92 50.47H24.94V59.7H25.92V50.47Z" fill="white"/>
<path d="M4.62999 7.38H3.64999V16.55H4.62999V7.38Z" fill="white"/>
<path d="M4.62999 21.99H3.64999V31.21H4.62999V21.99Z" fill="white"/>
<path d="M4.62999 36.42H3.64999V45.65H4.62999V36.42Z" fill="white"/>
<path d="M4.62999 50.47H3.64999V59.7H4.62999V50.47Z" fill="white"/>
<path d="M41.48 7.38H40.5V16.55H41.48V7.38Z" fill="white"/>
<path d="M41.48 21.99H40.5V31.21H41.48V21.99Z" fill="white"/>
<path d="M41.48 36.42H40.5V45.65H41.48V36.42Z" fill="white"/>
<path d="M41.48 50.47H40.5V59.7H41.48V50.47Z" fill="white"/>
<path d="M62.77 7.38H61.79V16.55H62.77V7.38Z" fill="white"/>
<path d="M62.77 21.99H61.79V31.21H62.77V21.99Z" fill="white"/>
<path d="M62.77 36.42H61.79V45.65H62.77V36.42Z" fill="white"/>
<path d="M62.77 50.47H61.79V59.7H62.77V50.47Z" fill="white"/>
<path d="M11.66 16.44L6.49005 21.6L11.55 28V24.53C15.19 23.77 16.23 25.53 16.23 28V51.9301H21.06V27.52C21.06 22.79 19.0599 20.19 15.4999 20.19H11.7V16.82" fill="white"/>
<path d="M48.06 14.65L42.46 23.17H45.72V51.72H50.19L50.46 38.26C50.46 37.39 51.33 33.81 54.54 33.59V37.66L60.69 32.29L54.98 25.23L54.65 28.8701C51.87 28.8701 50.3 31.3101 50.3 32.1801L50.19 23.1801H53.45" fill="white"/>
<path d="M33.7 14.33L27.88 23.07H31.14V51.72H35.94V23.39H39.04" fill="white"/>
</g>
<defs>
<clipPath id="clip0_8063_7158">
<rect width="66.48" height="65.78" fill="white"/>
</clipPath>
</defs>
</svg>
