<svg width="67" height="67" viewBox="0 0 67 67" fill="none" xmlns="http://www.w3.org/2000/svg">
<g clip-path="url(#clip0_8063_7106)">
<path d="M33.22 66.1C39.7328 66.0881 46.0959 64.1459 51.5052 60.5187C56.9144 56.8916 61.1271 51.7423 63.6107 45.7217C66.0944 39.7011 66.7376 33.0794 65.459 26.6933C64.1804 20.3073 61.0375 14.4436 56.4273 9.84324C51.8172 5.2429 45.9469 2.1124 39.5581 0.847388C33.1694 -0.417624 26.549 0.239623 20.5337 2.73606C14.5183 5.2325 9.37807 9.45606 5.76242 14.873C2.14678 20.29 0.218036 26.6572 0.220003 33.17C0.238542 41.91 3.7235 50.2857 9.91019 56.4593C16.0969 62.6328 24.48 66.1 33.22 66.1Z" stroke="#004A9C" stroke-width="0.45"/>
<path d="M1.59999 33.17C1.58415 26.9036 3.42828 20.7734 6.89881 15.5558C10.3693 10.3382 15.3102 6.26776 21.0957 3.8601C26.8811 1.45243 33.2509 0.815819 39.3984 2.03081C45.5459 3.2458 51.1946 6.25776 55.6292 10.6853C60.0637 15.1128 63.0846 20.7567 64.3093 26.9023C65.534 33.0479 64.9075 39.4187 62.509 45.208C60.1105 50.9972 56.048 55.9445 50.8358 59.4233C45.6237 62.9021 39.4964 64.7559 33.23 64.75C29.0783 64.7579 24.9658 63.9468 21.1279 62.3631C17.2901 60.7795 13.8023 58.4544 10.8643 55.521C7.92623 52.5877 5.59569 49.1036 4.00599 45.2682C2.41629 41.4329 1.59866 37.3217 1.59999 33.17Z" fill="#004A9C"/>
<path d="M28.26 52.49H19.39V34.49C19.39 29.55 24.39 22.88 29.74 22.88H38.74C39.45 22.88 40.05 22.55 39.18 21.88C38.31 21.21 37.54 19.0099 38.47 18.0899C39.4 17.1699 39.93 17.22 41.57 18.31L54.52 27.8C55.34 28.39 55.02 28.39 54.42 28.73L41.35 36.81C40.64 37.13 39.82 38.06 38.84 36.7C38.03 35.51 38.84 34.1 39.77 33.12C40.7 32.14 41.03 31.6 39.34 31.71H32.86C30.95 31.6 28.28 33.01 28.28 38V52.55" fill="white"/>
</g>
<defs>
<clipPath id="clip0_8063_7106">
<rect width="66.49" height="66.33" fill="white"/>
</clipPath>
</defs>
</svg>
