<svg width="76" height="67" viewBox="0 0 76 67" fill="none" xmlns="http://www.w3.org/2000/svg">
<g clip-path="url(#clip0_8063_6464)">
<path d="M74.67 59.83L41.41 2.62998C39.64 -0.55002 36.41 -0.55002 34.51 2.62998L1.07 59.94C-0.879999 63.24 0.780005 65.82 4.73 65.82H71.02C75.21 65.82 76.74 63.35 74.67 59.82" fill="white"/>
<path d="M74.67 59.83L41.41 2.62998C39.64 -0.55002 36.41 -0.55002 34.51 2.62998L1.07 59.94C-0.879999 63.24 0.780005 65.82 4.73 65.82H71.02C75.2 65.82 76.73 63.35 74.67 59.83Z" stroke="#D20D18" stroke-width="0.49"/>
<path d="M73.01 60.35L40.22 3.86C39.04 1.86 36.92 1.86 35.74 3.86L2.77003 60.52C1.59003 62.52 2.83002 64.11 5.13002 64.11H70.47C73.07 64.11 74.13 62.4 73.01 60.4" fill="#D20D18"/>
<path d="M37.8 13.03L11.97 57.65H64.11" fill="#F8B500"/>
<path d="M37.8 13.03L11.97 57.65H64.11L37.8 13.03Z" stroke="#D20D18" stroke-width="0.57"/>
<path d="M29.72 29.2H35.72C35.72 33.49 35.19 38.31 32.65 38.31C30.11 38.31 29.76 31.9 29.76 29.2" fill="#231916"/>
<path d="M41.4 31.9L37.21 39.95C36.33 41.48 36.92 42.25 38.1 42.25H39.45C39.45 47.83 34.97 46.71 34.97 55.12H40.11C40.11 48.25 44.41 48.95 44.41 42.02H45.67C46.74 42.02 47.57 41.3 46.67 39.55C45.77 37.8 42.67 31.78 42.67 31.78C42.08 30.85 41.85 31.02 41.37 31.9" fill="#231916"/>
</g>
<defs>
<clipPath id="clip0_8063_6464">
<rect width="75.82" height="66.06" fill="white"/>
</clipPath>
</defs>
</svg>
