<svg width="70" height="69" viewBox="0 0 70 69" fill="none" xmlns="http://www.w3.org/2000/svg">
<g clip-path="url(#clip0_8063_7027)">
<path d="M34.5701 68.71C41.3395 68.6883 47.9506 66.6604 53.5679 62.8827C59.1852 59.1049 63.5567 53.7468 66.1299 47.4855C68.7031 41.2242 69.3626 34.3406 68.0249 27.7046C66.6873 21.0686 63.4127 14.978 58.6148 10.2024C53.8169 5.42687 47.7111 2.18072 41.0689 0.874108C34.4267 -0.432508 27.5463 0.259065 21.297 2.86147C15.0478 5.46388 9.71014 9.8603 5.95865 15.4952C2.20717 21.1301 0.210157 27.7506 0.220007 34.52C0.235907 43.6152 3.86362 52.3317 10.3052 58.7527C16.7468 65.1737 25.4749 68.7733 34.5701 68.76" stroke="#D20D18" stroke-width="0.45"/>
<path d="M34.5701 2.29004C43.1047 2.29004 51.2898 5.68041 57.3247 11.7153C63.3596 17.7503 66.75 25.9354 66.75 34.47C66.75 43.0047 63.3596 51.1898 57.3247 57.2247C51.2898 63.2597 43.1047 66.65 34.5701 66.65V59.52C37.9077 59.5866 41.2251 58.9868 44.3281 57.7556C47.4311 56.5244 50.2574 54.6866 52.6414 52.3497C55.0254 50.0128 56.9193 47.2238 58.2122 44.146C59.5051 41.0682 60.171 37.7634 60.171 34.425C60.171 31.0867 59.5051 27.7819 58.2122 24.704C56.9193 21.6262 55.0254 18.8373 52.6414 16.5004C50.2574 14.1635 47.4311 12.3256 44.3281 11.0944C41.2251 9.86321 37.9077 9.26339 34.5701 9.33002M2.39001 34.52C2.39133 30.2902 3.22626 26.1022 4.84705 22.1953C6.46783 18.2883 8.84271 14.7391 11.8359 11.7505C14.8292 8.76197 18.3821 6.39261 22.2915 4.77789C26.2009 3.16317 30.3902 2.33477 34.62 2.34003V9.40002C31.2823 9.33339 27.9649 9.93321 24.8619 11.1644C21.7589 12.3956 18.9327 14.2335 16.5487 16.5704C14.1647 18.9073 12.2708 21.6962 10.9779 24.774C9.685 27.8519 9.01904 31.1567 9.01904 34.495C9.01904 37.8333 9.685 41.1381 10.9779 44.2159C12.2708 47.2938 14.1647 50.0827 16.5487 52.4196C18.9327 54.7565 21.7589 56.5943 24.8619 57.8256C27.9649 59.0568 31.2823 59.6567 34.62 59.59V66.7C26.0799 66.7027 17.8882 63.3148 11.8447 57.2807C5.80129 51.2466 2.40062 43.0601 2.39001 34.52Z" fill="#D20D18"/>
<path d="M52.65 58.13L56.57 54.81L17.05 11.19L13.13 14.5" fill="#D20D18"/>
<path d="M34.6801 35.18H41.21C41.5607 35.1499 41.9122 35.2301 42.2152 35.4094C42.5182 35.5887 42.7576 35.8581 42.9 36.18C42.9 36.18 47.2 43.4001 47.9 44.1101H34.67V40.9001H44.58L42.58 37.1601C42.4807 36.8334 42.2679 36.553 41.98 36.3696C41.692 36.1862 41.348 36.1119 41.01 36.1601H34.6901M21.6901 44.1601C22.2401 42.8001 25.6 36.51 25.6 36.51C25.7289 36.097 26.0016 35.7439 26.3685 35.5146C26.7354 35.2852 27.1722 35.195 27.6 35.26H34.73V36.18H27.92C26.62 36.18 26.73 36.18 26.24 37.32L24.77 40.95H34.77V44.1601H21.6901Z" fill="#231916"/>
<path d="M32.55 47.71H37.24C37.4 47.71 37.4 47.71 37.4 47.98V49.45C37.4 49.72 37.4 49.72 37.24 49.72H32.55C32.39 49.72 32.39 49.72 32.39 49.45V47.98C32.39 47.71 32.39 47.71 32.55 47.71Z" fill="white"/>
<path d="M38.77 44.28H30.82V47.43H38.77V44.28Z" fill="white"/>
<path d="M21.94 49.94H47.64C48.07 49.77 46.16 52.06 45.95 52.38C45.0511 52.5284 44.141 52.5987 43.2299 52.59H26.2299C25.2422 52.6346 24.2531 52.5438 23.29 52.32C22.41 51.57 21.6599 50.05 21.9799 49.94" fill="#231916"/>
<path d="M45.89 52.7L45.79 54.93C45.4 56.07 43.56 55.85 43.23 54.93V52.93C44.12 52.9532 45.0102 52.8963 45.89 52.76" fill="#231916"/>
<path d="M26.14 52.87L26.02 54.87C25.89 55.1224 25.6891 55.3314 25.4421 55.4714C25.1952 55.6114 24.9127 55.6764 24.6294 55.6583C24.3461 55.6403 24.0742 55.54 23.8469 55.3698C23.6197 55.1996 23.447 54.9668 23.35 54.7V52.64C24.2684 52.8205 25.2046 52.8943 26.14 52.86" fill="#231916"/>
<path d="M22.27 40.65C19.87 38.65 19.27 35.18 17.97 32.65C18.9013 33.0017 19.8664 33.2564 20.85 33.41C19.6 28.2 20.36 29.72 20.14 25.92C22.54 26.79 23.14 26.03 24.55 27.39C22.9956 25.0512 22.267 22.2602 22.48 19.46C22.71 18.81 23.57 19.14 24.48 19.95C25.39 20.76 26.06 22.28 28.13 23.48C28.24 20.06 30.85 14.48 32.98 11.97C33.52 11.54 34.5 10.67 35.05 11.97C35.6 13.27 36.9501 22.07 36.9501 22.07C38.1501 19.57 41.31 17.73 41.63 15.45C42.51 16.97 43.48 22.4 43.63 26.79C45.37 22.79 47.21 22.79 47.54 19.57C48.6847 23.682 48.9471 27.9895 48.3101 32.21C49.9255 30.7143 51.0131 28.7355 51.41 26.57C52.1195 28.3262 52.307 30.2499 51.9501 32.11C51.4101 33.52 49.07 39.49 46.35 40.47L44.28 36.93C44.28 36.93 44.7101 34.17 44.8201 33.74C44.9301 33.31 42.82 34.93 41.66 33.85C41.168 33.316 40.7963 32.6825 40.5703 31.9924C40.3443 31.3023 40.2691 30.5717 40.35 29.85C39.59 30.39 37.74 31.69 36.76 31.47C35.78 31.25 34.32 28.22 34.53 26.05C33.44 26.49 32.2501 28.87 31.8101 30.18C30.5001 28.87 30.07 29.85 28.87 27.89C28.3242 29.326 27.9581 30.8241 27.78 32.35C26.47 31.15 24.84 32.67 24.08 32.13C24.0175 33.7457 24.2375 35.3599 24.73 36.9L22.55 40.9" fill="#D20D18"/>
<path d="M48.02 44.29H46.28V44.84C46.5626 44.8666 46.8252 44.9977 47.0163 45.2076C47.2074 45.4175 47.3133 45.6912 47.3133 45.975C47.3133 46.2589 47.2074 46.5326 47.0163 46.7425C46.8252 46.9524 46.5626 47.0835 46.28 47.11V47.44H48.28C48.5488 46.3938 48.4717 45.2887 48.06 44.29M46.32 44.29H43.92V44.84C44.2026 44.8666 44.4652 44.9977 44.6563 45.2076C44.8474 45.4175 44.9533 45.6912 44.9533 45.975C44.9533 46.2589 44.8474 46.5326 44.6563 46.7425C44.4652 46.9524 44.2026 47.0835 43.92 47.11V47.44H46.32V47.11C46.0237 47.0938 45.7434 46.97 45.5317 46.762C45.32 46.554 45.1914 46.276 45.17 45.98C45.1824 45.68 45.3079 45.3957 45.5212 45.1843C45.7345 44.9728 46.0198 44.8499 46.32 44.84V44.29ZM43.92 44.29H25.52V44.84H25.57C25.8526 44.8666 26.1151 44.9977 26.3062 45.2076C26.4973 45.4175 26.6033 45.6912 26.6033 45.975C26.6033 46.2589 26.4973 46.5326 26.3062 46.7425C26.1151 46.9524 25.8526 47.0835 25.57 47.11H25.52V47.44H43.92V47.11C43.6247 47.0936 43.3456 46.9695 43.1356 46.7613C42.9255 46.5531 42.7991 46.2752 42.78 45.98C42.79 45.6809 42.9133 45.3967 43.1249 45.185C43.3366 44.9733 43.6208 44.85 43.92 44.84V44.29ZM25.52 44.29H23.1199V44.84H23.19C23.4726 44.8666 23.7351 44.9977 23.9262 45.2076C24.1173 45.4175 24.2233 45.6912 24.2233 45.975C24.2233 46.2589 24.1173 46.5326 23.9262 46.7425C23.7351 46.9524 23.4726 47.0835 23.19 47.11H23.1199V47.44H25.52V47.11C25.2247 47.0936 24.9457 46.9695 24.7357 46.7613C24.5256 46.5531 24.399 46.2752 24.3799 45.98C24.3899 45.6809 24.5133 45.3967 24.7249 45.185C24.9366 44.9733 25.2208 44.85 25.52 44.84V44.29ZM23.1199 44.29H21.5999C21.2051 45.2926 21.1283 46.3923 21.3799 47.44H23.1199V47.11C22.8247 47.0936 22.5457 46.9695 22.3356 46.7613C22.1256 46.5531 21.999 46.2752 21.9799 45.98C21.9899 45.6809 22.1132 45.3967 22.3249 45.185C22.5366 44.9733 22.8208 44.85 23.1199 44.84V44.29Z" fill="#231916"/>
<path d="M39.3901 47.71H34.9301V47.88H37.6501V49.45H34.9301V49.61H47.9301C48.2906 49.0462 48.4426 48.3741 48.36 47.71M34.9201 47.71H21.3901C21.3263 48.3826 21.5035 49.056 21.8901 49.61H34.9501V49.45H32.23V47.88H34.9501L34.9201 47.71Z" fill="#231916"/>
</g>
<defs>
<clipPath id="clip0_8063_7027">
<rect width="69.16" height="68.93" fill="white"/>
</clipPath>
</defs>
</svg>
