<svg width="52" height="71" viewBox="0 0 52 71" fill="none" xmlns="http://www.w3.org/2000/svg">
<g clip-path="url(#clip0_8063_9436)">
<path d="M41.2177 49.8656C40.2872 49.8653 39.3607 49.9873 38.4619 50.2285L36.7537 46.4588L36.6775 46.3251C36.5911 46.0965 36.4372 45.8997 36.2364 45.7609C36.0356 45.6221 35.7974 45.5479 35.5536 45.5483H19.2151L21.7551 40.2121H26.1048C26.2631 40.2121 26.4149 40.149 26.5269 40.0368C26.6388 39.9245 26.7017 39.7723 26.7017 39.6135V37.7478C26.7017 37.5891 26.6388 37.4368 26.5269 37.3246C26.4149 37.2123 26.2631 37.1492 26.1048 37.1492H20.6819C20.4419 37.1346 20.2028 37.1915 19.9949 37.3127C19.787 37.4339 19.6195 37.6142 19.5135 37.8306L13.7223 49.8974L13.6715 50.0248C12.6887 49.7298 11.6684 49.5796 10.6426 49.579C8.1282 49.582 5.69873 50.4916 3.79766 52.1418C1.89658 53.792 0.650692 56.0728 0.287415 58.5677C-0.0758613 61.0627 0.467707 63.6055 1.81889 65.7319C3.17007 67.8583 5.23875 69.4265 7.64731 70.1503C10.0559 70.8741 12.6437 70.7052 14.9383 69.6744C17.233 68.6436 19.0815 66.8196 20.1464 64.5355C21.2113 62.2514 21.4215 59.6595 20.7388 57.2328C20.056 54.8061 18.5258 52.7065 16.4274 51.3174L16.4655 51.2537L17.7355 48.6302H34.3534L35.6234 51.483C33.4768 52.8246 31.8858 54.8988 31.1436 57.3237C30.4013 59.7485 30.5578 62.3606 31.5842 64.6789C32.6105 66.9972 34.4376 68.8656 36.729 69.9399C39.0204 71.0142 41.6217 71.2221 44.0538 70.5252C46.4859 69.8284 48.585 68.2738 49.9646 66.1477C51.3441 64.0217 51.9112 61.4674 51.5612 58.9553C51.2113 56.4432 49.968 54.1424 48.0603 52.4768C46.1527 50.8112 43.7091 49.8929 41.1796 49.891M18.2181 60.0794C18.2276 61.6713 17.7411 63.2264 16.8265 64.5275C15.9118 65.8287 14.6148 66.8109 13.1165 67.337C11.6182 67.8631 9.99352 67.9068 8.46926 67.462C6.94499 67.0172 5.59732 66.1062 4.61444 64.8561C3.63157 63.606 3.06259 62.0793 2.98695 60.4892C2.91132 58.8991 3.3328 57.325 4.19255 55.9868C5.05231 54.6485 6.30741 53.6129 7.78254 53.0247C9.25766 52.4364 10.8792 52.3249 12.4206 52.7056L9.24558 59.519C9.12175 59.8792 9.13597 60.2727 9.28544 60.6229C9.43492 60.9732 9.70898 61.2552 10.0543 61.4141C10.3996 61.5729 10.7915 61.5973 11.1538 61.4824C11.516 61.3675 11.8227 61.1216 12.0142 60.7926L15.1892 53.9855C16.1311 54.689 16.8961 55.6034 17.423 56.6559C17.95 57.7084 18.2245 58.8699 18.2245 60.0476M41.186 67.9244C39.5707 67.9336 37.9949 67.424 36.6894 66.4701C35.3839 65.5162 34.4172 64.1683 33.931 62.6236C33.4448 61.0789 33.4645 59.4187 33.9873 57.886C34.51 56.3534 35.5085 55.0289 36.8363 54.1065L39.9541 61.0027C40.0375 61.1867 40.1562 61.3524 40.3034 61.4903C40.4507 61.6283 40.6236 61.7358 40.8123 61.8068C41.001 61.8777 41.2018 61.9107 41.4032 61.9039C41.6046 61.897 41.8026 61.8505 41.9861 61.7668C42.1695 61.6832 42.3348 61.5642 42.4724 61.4165C42.61 61.2688 42.7172 61.0955 42.7879 60.9063C42.8587 60.7171 42.8916 60.5157 42.8847 60.3137C42.8779 60.1118 42.8315 59.9132 42.7481 59.7292L39.6429 52.8648C40.1506 52.7598 40.6676 52.7065 41.186 52.7056C43.1952 52.7056 45.122 53.506 46.5427 54.9306C47.9634 56.3553 48.7615 58.2875 48.7615 60.3022C48.7615 62.317 47.9634 64.2492 46.5427 65.6739C45.122 67.0986 43.1952 67.8989 41.186 67.8989" fill="white"/>
<path d="M41.2177 49.8656C40.2872 49.8653 39.3607 49.9873 38.4619 50.2285L36.7537 46.4588L36.6775 46.3251C36.5911 46.0965 36.4372 45.8997 36.2364 45.7609C36.0356 45.6221 35.7974 45.5479 35.5536 45.5483H19.2151L21.7551 40.2121H26.1048C26.2631 40.2121 26.4149 40.149 26.5269 40.0368C26.6388 39.9245 26.7017 39.7723 26.7017 39.6135V37.7478C26.7017 37.5891 26.6388 37.4368 26.5269 37.3246C26.4149 37.2123 26.2631 37.1492 26.1048 37.1492H20.6819C20.4419 37.1346 20.2028 37.1915 19.9949 37.3127C19.787 37.4339 19.6195 37.6142 19.5135 37.8306L13.7223 49.8974L13.6715 50.0248C12.6887 49.7298 11.6684 49.5796 10.6426 49.579C8.1282 49.582 5.69873 50.4916 3.79766 52.1418C1.89658 53.792 0.650692 56.0728 0.287415 58.5677C-0.0758613 61.0627 0.467707 63.6055 1.81889 65.7319C3.17007 67.8583 5.23875 69.4265 7.64731 70.1503C10.0559 70.8741 12.6437 70.7052 14.9383 69.6744C17.233 68.6436 19.0815 66.8196 20.1464 64.5355C21.2113 62.2514 21.4215 59.6595 20.7388 57.2328C20.056 54.8061 18.5258 52.7065 16.4274 51.3174L16.4655 51.2537L17.7355 48.6302H34.3534L35.6234 51.483C33.4768 52.8246 31.8858 54.8988 31.1436 57.3237C30.4013 59.7485 30.5578 62.3606 31.5842 64.6789C32.6105 66.9972 34.4376 68.8656 36.729 69.9399C39.0204 71.0142 41.6217 71.2221 44.0538 70.5252C46.4859 69.8284 48.585 68.2738 49.9646 66.1477C51.3441 64.0217 51.9112 61.4674 51.5612 58.9553C51.2113 56.4432 49.968 54.1424 48.0603 52.4768C46.1527 50.8112 43.7091 49.8929 41.1796 49.891L41.2177 49.8656ZM18.2562 60.054C18.2657 61.6458 17.7792 63.201 16.8646 64.5021C15.9499 65.8033 14.6529 66.7854 13.1546 67.3115C11.6563 67.8376 10.0316 67.8814 8.50736 67.4366C6.98309 66.9918 5.63542 66.0808 4.65254 64.8307C3.66967 63.5806 3.10069 62.0538 3.02505 60.4637C2.94942 58.8736 3.37092 57.2995 4.23067 55.9613C5.09043 54.623 6.34551 53.5874 7.82064 52.9992C9.29576 52.4109 10.9173 52.2994 12.4587 52.6801L9.28368 59.4936C9.15985 59.8538 9.17407 60.2473 9.32354 60.5975C9.47302 60.9478 9.74708 61.2297 10.0924 61.3886C10.4377 61.5474 10.8296 61.5718 11.1919 61.4569C11.5541 61.342 11.8608 61.0962 12.0523 60.7671L15.2273 53.96C16.1741 54.6686 16.9415 55.5905 17.4677 56.6513C17.9938 57.712 18.2639 58.8819 18.2562 60.0666V60.054ZM41.2177 67.9308C39.6025 67.94 38.0267 67.4303 36.7212 66.4765C35.4157 65.5226 34.449 64.1746 33.9628 62.63C33.4765 61.0853 33.4962 59.425 34.019 57.8924C34.5418 56.3598 35.5402 55.0353 36.868 54.1128L39.9858 61.0091C40.0692 61.1931 40.1879 61.3588 40.3352 61.4967C40.4824 61.6347 40.6553 61.7422 40.844 61.8132C41.0327 61.8841 41.2335 61.9171 41.4349 61.9102C41.6363 61.9034 41.8344 61.8568 42.0178 61.7732C42.2013 61.6896 42.3665 61.5705 42.5041 61.4229C42.6417 61.2752 42.7489 61.1019 42.8197 60.9126C42.8904 60.7234 42.9233 60.5221 42.9165 60.3201C42.9097 60.1181 42.8632 59.9195 42.7798 59.7356L39.6747 52.8712C40.1824 52.7662 40.6994 52.7129 41.2177 52.712C43.2269 52.712 45.1538 53.5123 46.5745 54.9369C47.9951 56.3616 48.7933 58.2938 48.7933 60.3086C48.7933 62.3234 47.9951 64.2556 46.5745 65.6803C45.1538 67.1049 43.2269 67.9053 41.2177 67.9053V67.9308Z" stroke="#231916" stroke-width="0.53"/>
<path d="M40.0049 41.4856L31.261 41.4347C31.0275 41.4862 30.8151 41.6074 30.6518 41.7825C30.4886 41.9576 30.3821 42.1782 30.3466 42.4153C30.3296 42.6628 30.3919 42.9094 30.5244 43.119C30.6569 43.3286 30.8527 43.4903 31.0832 43.5806L36.6076 44.3128C36.6076 44.3128 39.3064 44.7459 40.0049 41.4856Z" fill="white"/>
<path d="M40.0049 41.4856L31.261 41.4347C31.0275 41.4862 30.8151 41.6074 30.6518 41.7825C30.4886 41.9576 30.3821 42.1782 30.3466 42.4153C30.3296 42.6628 30.3919 42.9094 30.5244 43.119C30.6569 43.3286 30.8527 43.4903 31.0832 43.5806L36.6076 44.3128C36.6076 44.3128 39.3064 44.7459 40.0049 41.4856Z" stroke="#231916" stroke-width="0.53"/>
<path d="M26.1429 0.203735L0.723907 17.7086V22.6818L26.1429 5.11961L51.8349 22.8664V17.8996L26.1429 0.203735Z" fill="white"/>
<path d="M26.1429 0.203735L0.723907 17.7086V22.6818L26.1429 5.11961L51.8349 22.8664V17.8996L26.1429 0.203735Z" stroke="#231916" stroke-width="0.53"/>
<path d="M26.1429 10.6978L0.723907 28.209V33.1758L26.1429 15.62L51.8349 33.3668V28.3936L26.1429 10.6978Z" fill="white"/>
<path d="M26.1429 10.6978L0.723907 28.209V33.1758L26.1429 15.62L51.8349 33.3668V28.3936L26.1429 10.6978Z" stroke="#231916" stroke-width="0.53"/>
</g>
<defs>
<clipPath id="clip0_8063_9436">
<rect width="52" height="71" fill="white"/>
</clipPath>
</defs>
</svg>
