<svg width="71" height="71" viewBox="0 0 71 71" fill="none" xmlns="http://www.w3.org/2000/svg">
<g clip-path="url(#clip0_8063_6826)">
<path d="M35.2299 70.07C42.1317 70.0542 48.8741 67.9935 54.6055 64.1481C60.3369 60.3028 64.8003 54.8453 67.4319 48.4648C70.0636 42.0844 70.7454 35.0673 69.3914 28.2996C68.0374 21.5318 64.7083 15.3171 59.8245 10.4403C54.9407 5.56341 48.7211 2.24318 41.9515 0.89887C35.1818 -0.445441 28.1657 0.246463 21.789 2.88721C15.4123 5.52796 9.96122 9.99912 6.12408 15.736C2.28695 21.4729 0.235867 28.2182 0.229919 35.12C0.243168 44.3939 3.93662 53.2835 10.499 59.8364C17.0613 66.3894 25.956 70.07 35.2299 70.07Z" stroke="#D20D18" stroke-width="0.45"/>
<path d="M35.2299 2.28999C43.937 2.28999 52.2875 5.74886 58.4443 11.9057C64.6011 18.0625 68.06 26.4129 68.06 35.12C68.06 43.8271 64.6011 52.1775 58.4443 58.3343C52.2875 64.4911 43.937 67.95 35.2299 67.95V60.73C38.6324 60.7973 42.014 60.1852 45.1771 58.9296C48.3401 57.6741 51.2209 55.8002 53.6509 53.4178C56.081 51.0353 58.0113 48.1922 59.3292 45.0546C60.647 41.917 61.3259 38.5481 61.3259 35.145C61.3259 31.7419 60.647 28.373 59.3292 25.2354C58.0113 22.0978 56.081 19.2546 53.6509 16.8722C51.2209 14.4897 48.3401 12.6159 45.1771 11.3603C42.014 10.1048 38.6324 9.49271 35.2299 9.55998M2.35004 35.12C2.35135 30.8049 3.20305 26.5323 4.85651 22.5465C6.50996 18.5607 8.93268 14.9398 11.9863 11.8909C15.0399 8.84197 18.6644 6.42474 22.6526 4.77735C26.6409 3.12997 30.9148 2.28473 35.2299 2.28999V9.55998C31.8275 9.49271 28.4459 10.1048 25.2829 11.3603C22.1199 12.6159 19.239 14.4897 16.809 16.8722C14.379 19.2546 12.4486 22.0978 11.1308 25.2354C9.81297 28.373 9.13409 31.7419 9.13409 35.145C9.13409 38.5481 9.81297 41.917 11.1308 45.0546C12.4486 48.1922 14.379 51.0353 16.809 53.4178C19.239 55.8002 22.1199 57.6741 25.2829 58.9296C28.4459 60.1852 31.8275 60.7973 35.2299 60.73V67.95C30.9152 67.9539 26.6419 67.1078 22.6542 65.46C18.6665 63.8121 15.0425 61.3948 11.9892 58.3461C8.93588 55.2975 6.51311 51.6771 4.85919 47.6919C3.20527 43.7067 2.35266 39.4348 2.35004 35.12Z" fill="#D20D18"/>
<path d="M54.88 58.34L58.69 54.76L16.12 12.38L12.3 15.9" fill="#D20D18"/>
<path d="M46.82 32.18C46.0835 32.1866 45.3508 32.2874 44.6399 32.48L43.27 29.48L43.21 29.37C43.1355 29.1939 43.012 29.0428 42.8543 28.9347C42.6966 28.8266 42.5111 28.7659 42.32 28.76H29.32L31.32 24.53H34.77C34.8955 24.53 35.0162 24.4809 35.1059 24.393C35.1956 24.3051 35.2473 24.1856 35.2499 24.06V22.58C35.2499 22.4527 35.1994 22.3306 35.1094 22.2406C35.0194 22.1506 34.8973 22.1 34.77 22.1H30.54C30.3523 22.0931 30.1665 22.1391 30.0038 22.2328C29.8411 22.3266 29.708 22.4642 29.6199 22.63L25.0099 32.21V32.31C22.9988 31.726 20.8413 31.9247 18.9708 32.8663C17.1002 33.8079 15.6552 35.4226 14.9263 37.3858C14.1975 39.3491 14.2386 41.5154 15.0416 43.4496C15.8445 45.3837 17.3497 46.9423 19.2547 47.8122C21.1597 48.682 23.3233 48.7986 25.3107 48.1387C27.2982 47.4787 28.9622 46.0909 29.9684 44.2543C30.9747 42.4177 31.2485 40.2684 30.7349 38.2381C30.2214 36.2079 28.9585 34.4473 27.2 33.31L28.2 31.23H41.41L42.41 33.5C40.7128 34.569 39.4589 36.2151 38.8792 38.1352C38.2995 40.0554 38.4329 42.1203 39.2549 43.9499C40.077 45.7794 41.5323 47.2505 43.353 48.0921C45.1736 48.9337 47.237 49.0893 49.1633 48.5302C51.0895 47.9711 52.749 46.735 53.8361 45.0494C54.9232 43.3638 55.3648 41.3422 55.0795 39.3568C54.7943 37.3714 53.8014 35.5559 52.2837 34.2445C50.7661 32.9332 48.8258 32.2142 46.82 32.22M28.54 40.27C28.54 41.4567 28.188 42.6167 27.5287 43.6034C26.8695 44.5901 25.9325 45.3592 24.8361 45.8133C23.7398 46.2674 22.5333 46.3862 21.3694 46.1547C20.2056 45.9232 19.1364 45.3518 18.2973 44.5127C17.4582 43.6736 16.8867 42.6044 16.6552 41.4405C16.4237 40.2766 16.5425 39.0703 16.9966 37.9739C17.4508 36.8776 18.2199 35.9405 19.2066 35.2812C20.1933 34.6219 21.3533 34.27 22.54 34.27C23.0246 34.2754 23.5073 34.3324 23.9799 34.44L21.45 39.85C21.3369 40.1385 21.3387 40.4593 21.4551 40.7464C21.5716 41.0336 21.7937 41.2651 22.0757 41.3933C22.3578 41.5215 22.6784 41.5366 22.9712 41.4355C23.2641 41.3345 23.507 41.1249 23.65 40.85L26.17 35.45C26.9202 36.0078 27.5297 36.7332 27.9499 37.5683C28.37 38.4035 28.5892 39.3251 28.59 40.26M46.84 46.5C45.5387 46.5317 44.2623 46.1394 43.2035 45.3821C42.1448 44.6249 41.361 43.5438 40.9704 42.3021C40.5798 41.0604 40.6036 39.7253 41.0383 38.4983C41.4729 37.2713 42.2948 36.219 43.3799 35.5L45.8599 40.97C45.9256 41.1164 46.0195 41.2485 46.1362 41.3586C46.2529 41.4688 46.3901 41.5549 46.5401 41.612C46.6901 41.6691 46.8498 41.6961 47.0102 41.6915C47.1706 41.6869 47.3286 41.6507 47.475 41.585C47.6215 41.5193 47.7534 41.4255 47.8636 41.3088C47.9737 41.1921 48.0599 41.0549 48.117 40.9049C48.1741 40.7549 48.2011 40.5952 48.1965 40.4348C48.1918 40.2744 48.1557 40.1164 48.09 39.97L45.6199 34.53C46.0204 34.4407 46.4297 34.3971 46.84 34.4C48.4313 34.4 49.9574 35.0322 51.0826 36.1574C52.2078 37.2826 52.84 38.8087 52.84 40.4C52.84 41.9913 52.2078 43.5175 51.0826 44.6427C49.9574 45.7679 48.4313 46.4 46.84 46.4" fill="#231916"/>
<path d="M45.8599 25.54H38.8599C38.6753 25.5823 38.5078 25.6794 38.3793 25.8186C38.2509 25.9578 38.1674 26.1326 38.14 26.32C38.1223 26.5145 38.1685 26.7093 38.2713 26.8753C38.3741 27.0412 38.5281 27.1692 38.71 27.24L43.1099 27.82C43.4353 27.8559 43.7645 27.8258 44.0781 27.7318C44.3916 27.6377 44.6831 27.4816 44.935 27.2726C45.1869 27.0636 45.3942 26.806 45.5445 26.5152C45.6948 26.2245 45.7851 25.9064 45.81 25.58" fill="#231916"/>
</g>
<defs>
<clipPath id="clip0_8063_6826">
<rect width="70.51" height="70.29" fill="white"/>
</clipPath>
</defs>
</svg>
