<svg width="62" height="69" viewBox="0 0 62 69" fill="none" xmlns="http://www.w3.org/2000/svg">
<g clip-path="url(#clip0_8072_280)">
<path d="M2.01999 51.96V64.38C2.01999 66.17 2.89999 66.4401 4.01999 66.5501H57.2C58.68 66.3401 59.11 66.17 59.11 63.78V51.78L31.64 4.06C30.55 2.6 29.3 2.93001 28.37 4.50001" fill="#004899"/>
<path d="M0.229996 51.28V65.33" stroke="#004899" stroke-width="0.45"/>
<path d="M0.230011 65.33C0.500011 67.39 1.63999 67.9901 3.64999 67.9901" stroke="#004899" stroke-width="0.45"/>
<path d="M3.64999 67.99H59.08" stroke="#004899" stroke-width="0.45"/>
<path d="M59.08 67.96C60.38 67.69 61.08 67.36 61.08 64.81" stroke="#004899" stroke-width="0.45"/>
<path d="M61.03 64.84V51.28L32.18 1.14001" stroke="#004899" stroke-width="0.45"/>
<path d="M32.16 1.12999C31.8762 0.805386 31.518 0.554361 31.116 0.398357C30.714 0.242352 30.2803 0.186017 29.8518 0.234172C29.4233 0.282327 29.0129 0.43357 28.6555 0.674907C28.2982 0.916244 28.0047 1.24048 27.8 1.61998" stroke="#004899" stroke-width="0.45"/>
<path d="M27.82 1.63L0.229996 51.28" stroke="#004899" stroke-width="0.45"/>
<path d="M44.7 43.86L42.11 44.44L38.68 36.94H30.33L30.22 35.47H36.43V33.36H30.08L29.74 28.46H29.97C30.4688 28.4604 30.9575 28.3189 31.379 28.052C31.8005 27.7852 32.1373 27.404 32.3503 26.9529C32.5633 26.5018 32.6436 25.9994 32.5818 25.5044C32.5201 25.0094 32.3188 24.5421 32.0015 24.1572C31.6842 23.7723 31.2639 23.4855 30.7898 23.3304C30.3157 23.1752 29.8073 23.1582 29.3238 23.2812C28.8404 23.4041 28.4018 23.662 28.0594 24.0248C27.717 24.3876 27.4848 24.8402 27.39 25.33C27.3617 25.4186 27.3383 25.5088 27.32 25.6L28.49 39.17H37.16L40.83 47L45.35 45.76" fill="white"/>
<path d="M30.87 51.36C28.4149 51.3601 26.0601 50.3861 24.3222 48.652C22.5843 46.9178 21.6053 44.5651 21.6 42.11C21.5938 40.5157 22.0038 38.9473 22.7895 37.5601C23.5752 36.1728 24.7094 35.0146 26.08 34.2L27.35 36.3C26.0807 37.0677 25.0978 38.23 24.5514 39.6091C24.005 40.9882 23.9253 42.5083 24.3244 43.937C24.7235 45.3656 25.5795 46.6243 26.7616 47.5206C27.9436 48.4168 29.3866 48.9013 30.87 48.9C32.1789 48.8952 33.459 48.516 34.5594 47.8073C35.6597 47.0985 36.5343 46.0897 37.08 44.9L39.32 45.9C38.5791 47.519 37.389 48.8913 35.8911 49.8539C34.3932 50.8164 32.6505 51.3288 30.87 51.33" fill="white"/>
<path d="M15.28 55.63V56.73H13.77V56.96C13.7771 57.1182 13.8216 57.2724 13.9 57.41C14.0026 57.6058 14.1304 57.7873 14.28 57.95C14.4569 58.1465 14.6626 58.3151 14.89 58.45C15.1356 58.6143 15.4106 58.7298 15.7 58.79C15.5644 58.9463 15.4375 59.1098 15.32 59.28C15.1936 59.4585 15.08 59.6456 14.98 59.84C14.5691 59.6643 14.1905 59.4209 13.86 59.12C13.5766 58.8937 13.3476 58.6067 13.19 58.28C13.0358 58.6201 12.8067 58.9209 12.52 59.16C12.1608 59.4855 11.7525 59.7521 11.31 59.95C11.1959 59.7746 11.0653 59.6106 10.92 59.46C10.75 59.29 10.6 59.13 10.45 59C10.7567 58.9406 11.051 58.829 11.32 58.67C11.5706 58.5185 11.7994 58.3334 12 58.12C12.1804 57.9334 12.332 57.7212 12.45 57.4901C12.5479 57.3257 12.6061 57.1408 12.62 56.95V56.78H11.01V55.68M16.6 60.8C16.8181 60.9067 17.0025 61.0713 17.1331 61.276C17.2636 61.4807 17.3352 61.7173 17.34 61.96C17.3363 62.2069 17.2654 62.448 17.135 62.6577C17.0047 62.8673 16.8197 63.0375 16.6 63.15C15.906 63.5402 15.1149 63.7241 14.32 63.68C13.5123 63.7235 12.7087 63.5399 12 63.15C11.7817 63.0358 11.5979 62.8652 11.4677 62.6559C11.3376 62.4467 11.2658 62.2064 11.26 61.96C11.2669 61.7178 11.3394 61.482 11.4698 61.2778C11.6001 61.0735 11.7833 60.9084 12 60.8C12.7154 60.4306 13.516 60.2581 14.32 60.3C15.111 60.2599 15.8984 60.4326 16.6 60.8ZM12.92 61.44C12.63 61.58 12.48 61.75 12.48 61.97C12.4877 62.0982 12.5337 62.2211 12.6122 62.3228C12.6907 62.4244 12.798 62.5001 12.92 62.54C13.3649 62.7158 13.8422 62.7942 14.32 62.77C14.7846 62.7919 15.2485 62.7134 15.68 62.54C15.8111 62.5065 15.9281 62.4323 16.0143 62.3281C16.1005 62.2239 16.1516 62.095 16.16 61.96C16.16 61.74 16.01 61.57 15.73 61.43C15.293 61.2794 14.8318 61.2116 14.37 61.23C13.8917 61.2098 13.4138 61.2776 12.96 61.43M17.09 55.25C17.1629 55.2386 17.2371 55.2386 17.31 55.25L17.37 55.35V55.5L17.31 55.69V55.92V57.4H18.31V58.54H17.31V60.38H16.12V55.2H17.12" fill="white"/>
<path d="M22.08 56.5301C22.4041 57.2625 22.5547 58.0599 22.52 58.8601C22.5573 59.6734 22.4067 60.4843 22.08 61.2301C21.9727 61.494 21.7906 61.7208 21.556 61.8825C21.3215 62.0442 21.0448 62.1337 20.76 62.14C20.4706 62.1369 20.1886 62.0491 19.9486 61.8874C19.7087 61.7256 19.5214 61.4971 19.41 61.2301C18.8237 59.7182 18.8237 58.0419 19.41 56.5301C19.5229 56.2649 19.7108 56.0384 19.9506 55.8786C20.1905 55.7187 20.4717 55.6323 20.76 55.63C21.0436 55.6356 21.3196 55.7236 21.554 55.8834C21.7885 56.0433 21.9712 56.268 22.08 56.5301ZM20.26 57.25C20.1397 57.7779 20.086 58.3188 20.1 58.8601C20.0846 59.4146 20.1383 59.9688 20.26 60.51C20.38 60.88 20.54 61.06 20.75 61.06C20.96 61.06 21.11 60.88 21.22 60.51C21.3504 59.9701 21.4076 59.4152 21.39 58.8601C21.4063 58.3182 21.3491 57.7765 21.22 57.25C21.11 56.89 20.95 56.71 20.75 56.71C20.55 56.71 20.38 56.89 20.26 57.25ZM26.11 55.25C26.11 55.25 26.11 55.35 26.11 55.46L26.05 55.62V63.5301H24.89V59.87H24.3V63.2H23.16V55.3501H23.95C24.1051 55.3372 24.2612 55.3542 24.41 55.4C24.41 55.4 24.41 55.49 24.41 55.59L24.36 55.7401V55.94V58.7901H24.95V55.2H25.68C25.8456 55.1731 26.0144 55.1731 26.18 55.2" fill="white"/>
<path d="M30.82 56.08C31.1802 56.5257 31.3651 57.0876 31.34 57.66C31.3654 58.2295 31.1803 58.7884 30.82 59.23C30.6302 59.4589 30.3892 59.6397 30.1164 59.7579C29.8436 59.876 29.5468 59.9281 29.2501 59.91C28.9444 59.929 28.6385 59.8776 28.3559 59.7597C28.0733 59.6418 27.8216 59.4606 27.62 59.23C27.2646 58.7857 27.0801 58.2287 27.1 57.66C27.0795 57.0882 27.2639 56.5279 27.62 56.08C27.8257 55.8553 28.0784 55.6787 28.3602 55.5629C28.6419 55.447 28.9458 55.3949 29.2501 55.41C29.5455 55.3946 29.8405 55.4469 30.1127 55.563C30.3848 55.6792 30.6267 55.856 30.82 56.08ZM29.04 60.71C29.04 60.71 29.04 60.82 29.04 60.93V61.08V62.22H34.04V63.3H27.82V60.65H28.52C28.7022 60.6351 28.8856 60.6554 29.0601 60.71M28.54 56.8C28.3891 57.0615 28.3096 57.3581 28.3096 57.66C28.3096 57.962 28.3891 58.2585 28.54 58.52C28.6217 58.6358 28.7317 58.7288 28.8595 58.79C28.9873 58.8513 29.1286 58.8788 29.27 58.87C29.4055 58.8767 29.5405 58.848 29.6615 58.7866C29.7825 58.7252 29.8854 58.6333 29.96 58.52C30.1044 58.2564 30.1802 57.9606 30.1802 57.66C30.1802 57.3594 30.1044 57.0637 29.96 56.8C29.8811 56.6925 29.7768 56.606 29.6564 56.5485C29.5361 56.4909 29.4033 56.4639 29.27 56.47C29.1307 56.4617 28.9914 56.4873 28.8643 56.5448C28.7371 56.6023 28.6258 56.6899 28.54 56.8ZM34.0001 55.25C34.0001 55.25 34.0001 55.35 34.0001 55.46V55.59V55.77V61.33H32.82V55.2H33.54C33.7122 55.1713 33.8879 55.1713 34.0601 55.2" fill="white"/>
<path d="M41.41 59.9001C41.41 59.9001 41.41 60.02 41.41 60.14V60.31V60.5301V61.4101H44.77V62.52H37.06V61.4101H40.16V59.8401H40.82C41.022 59.8237 41.2253 59.844 41.42 59.9001M43.91 55.77C43.91 55.77 43.91 55.8501 43.91 55.9601V56.06V59.9601H37.84V55.6701H38.54C38.7124 55.645 38.8876 55.645 39.06 55.6701C39.06 55.6701 39.06 55.7701 39.06 55.8601V55.9601V56.81H42.75V55.63H43.42C43.5989 55.6082 43.7805 55.6288 43.95 55.69M39.01 58.9601H42.69V57.9601H39.01V58.9601Z" fill="white"/>
<path d="M48.42 61.66V60.75H49.6V61.66H52.87V62.66H45.16V61.66M52.35 57.66H45.66V56.72H52.35V57.66ZM47.03 60.4901C46.8089 60.4039 46.6181 60.2546 46.4812 60.0608C46.3443 59.867 46.2673 59.6372 46.26 59.4C46.2632 59.1595 46.337 58.9251 46.4721 58.7261C46.6072 58.527 46.7977 58.3719 47.02 58.28C47.6469 57.9958 48.3326 57.8656 49.02 57.9C49.7076 57.862 50.3942 57.9924 51.02 58.28C51.242 58.3736 51.4325 58.5288 51.5689 58.7273C51.7054 58.9258 51.7822 59.1593 51.79 59.4C51.7856 59.6352 51.7122 59.8639 51.5788 60.0577C51.4455 60.2515 51.2581 60.4019 51.04 60.4901C50.4131 60.7734 49.7268 60.9004 49.04 60.86C48.3536 60.8946 47.6686 60.7679 47.04 60.4901M50.64 56.28H47.42V55.34H50.64V56.28ZM47.85 58.96C47.59 59.07 47.47 59.22 47.47 59.41C47.47 59.6 47.59 59.71 47.85 59.81C48.2216 59.9271 48.6109 59.9779 49 59.96C49.399 59.9775 49.7981 59.9268 50.18 59.81C50.43 59.72 50.56 59.59 50.56 59.42C50.56 59.25 50.43 59.07 50.18 58.96C49.7998 58.8349 49.3998 58.7807 49 58.8C48.6101 58.7812 48.22 58.8354 47.85 58.96Z" fill="white"/>
</g>
<defs>
<clipPath id="clip0_8072_280">
<rect width="61.26" height="68.22" fill="white"/>
</clipPath>
</defs>
</svg>
