<svg width="67" height="67" viewBox="0 0 67 67" fill="none" xmlns="http://www.w3.org/2000/svg">
<g clip-path="url(#clip0_8072_179)">
<path d="M61.75 66.3701C62.3812 66.3754 63.0072 66.2561 63.5922 66.0191C64.1772 65.7821 64.7099 65.4321 65.1594 64.989C65.609 64.5459 65.9667 64.0186 66.2122 63.4371C66.4577 62.8556 66.5861 62.2313 66.59 61.6001" stroke="#0054A0" stroke-width="0.45"/>
<path d="M66.58 61.6001V5.06006" stroke="#0054A0" stroke-width="0.45"/>
<path d="M66.59 5.11005C66.5847 3.82895 66.0727 2.60197 65.1659 1.69702C64.2591 0.792076 63.0311 0.28266 61.75 0.280029" stroke="#0054A0" stroke-width="0.45"/>
<path d="M61.74 0.22998H5.02" stroke="#0054A0" stroke-width="0.45"/>
<path d="M5.02009 0.22998C4.38843 0.232601 3.76343 0.35961 3.18086 0.60376C2.59828 0.847909 2.0695 1.20445 1.62471 1.65295C1.17991 2.10146 0.82787 2.63319 0.588573 3.21777C0.349277 3.80236 0.227421 4.42834 0.230053 5.06" stroke="#0054A0" stroke-width="0.45"/>
<path d="M0.229996 5.06006V61.6001" stroke="#0054A0" stroke-width="0.45"/>
<path d="M0.230054 61.6001C0.227384 62.2289 0.34965 62.8521 0.589673 63.4333C0.829696 64.0145 1.18266 64.5423 1.62825 64.986C2.07384 65.4298 2.60314 65.7806 3.18538 66.0182C3.76761 66.2558 4.39127 66.3754 5.02009 66.3701" stroke="#0054A0" stroke-width="0.45"/>
<path d="M5.02 66.3701H61.74" stroke="#0054A0" stroke-width="0.45"/>
<path d="M60.06 64.4201C61.2623 64.4121 62.4125 63.9276 63.258 63.0727C64.1035 62.2178 64.5753 61.0624 64.57 59.8601V6.74009C64.5713 6.14793 64.4555 5.56135 64.2292 5.01414C64.0029 4.46692 63.6706 3.96987 63.2514 3.55161C62.8322 3.13336 62.3345 2.80215 61.7868 2.57707C61.2391 2.35198 60.6521 2.23745 60.06 2.24009H6.76004C5.55767 2.2321 4.40122 2.70139 3.54446 3.54502C2.6877 4.38866 2.20054 5.53774 2.18997 6.74009V59.8601C2.19786 61.0688 2.68225 62.2256 3.53787 63.0793C4.39349 63.9331 5.55134 64.4148 6.76004 64.4201" fill="#0054A0"/>
<path d="M12.2 8.58008H7.36V57.9101H12.2V8.58008Z" fill="white"/>
<path d="M59.13 8.58008H54.29V57.9101H59.13V8.58008Z" fill="white"/>
<path d="M28.16 42.71H37.84V47.32H45.3L33.55 57.2L21.24 47.65H28.05" fill="white"/>
<path d="M28.07 36.1101C27.6677 35.9573 27.298 35.73 26.98 35.4401C26.6471 35.1495 26.3575 34.8128 26.12 34.4401C25.9674 34.8586 25.7048 35.2282 25.36 35.5101C24.9912 35.8561 24.5733 36.1459 24.12 36.3701L23.46 35.6701C24.2412 35.4158 24.8981 34.8767 25.3 34.1601C25.4915 33.7646 25.6102 33.3377 25.6501 32.9001V32.6701H24.0201V31.8801H28.22V32.6701H26.6V32.9001C26.6403 33.3026 26.7592 33.6934 26.95 34.0501C27.3069 34.6782 27.8898 35.1467 28.58 35.3601M24.95 39.4501V36.8101H25.83V38.6601H30.76V39.4501H24.95ZM29.7 37.3501V34.1101H28.1501V33.2701H29.7V31.3501H30.58V37.3501H29.7Z" fill="white"/>
<path d="M34.47 36.1099V35.3199H36.5301V34.2599C36.1925 34.148 35.8871 33.9558 35.64 33.7C35.4428 33.4926 35.335 33.216 35.34 32.9299C35.3509 32.69 35.4276 32.4577 35.5617 32.2584C35.6957 32.0591 35.8819 31.9005 36.1 31.7999C36.8078 31.5032 37.5675 31.3503 38.335 31.3503C39.1024 31.3503 39.8622 31.5032 40.57 31.7999C40.79 31.9017 40.9781 32.0617 41.1138 32.2626C41.2495 32.4636 41.3277 32.6978 41.34 32.9399C41.3409 33.0808 41.314 33.2204 41.2608 33.3508C41.2076 33.4812 41.1292 33.5999 41.0301 33.7C40.7869 33.9557 40.4847 34.148 40.15 34.2599V35.3199H42.15V36.1099M40.56 39.3699C39.847 39.6998 39.0645 39.8509 38.2801 39.8099C37.4957 39.8489 36.7135 39.6979 36 39.3699C35.7744 39.2751 35.5799 39.119 35.4385 38.9193C35.2971 38.7195 35.2145 38.4842 35.2 38.2399C35.2109 37.9947 35.2921 37.7578 35.434 37.5574C35.5758 37.3571 35.7724 37.2017 36 37.1099C36.7158 36.7898 37.4968 36.6425 38.2801 36.6799C39.0633 36.6425 39.8442 36.7898 40.56 37.1099C40.7876 37.2017 40.9842 37.3571 41.126 37.5574C41.2678 37.7578 41.3491 37.9947 41.36 38.2399C41.3455 38.4842 41.2629 38.7195 41.1215 38.9193C40.9801 39.119 40.7855 39.2751 40.56 39.3699ZM36.77 37.6099C36.39 37.7599 36.2 37.9699 36.2 38.2299C36.2 38.4899 36.39 38.6899 36.77 38.8399C37.7488 39.1311 38.7912 39.1311 39.77 38.8399C40.15 38.6866 40.34 38.4866 40.34 38.2399C40.34 37.9799 40.15 37.7799 39.77 37.6199C39.2877 37.4556 38.7793 37.381 38.27 37.3999C37.7584 37.3825 37.2475 37.4536 36.76 37.6099M39.76 32.2999C39.2844 32.0933 38.7681 31.9976 38.25 32.0199C37.734 31.9991 37.2194 32.0877 36.74 32.2799C36.38 32.4466 36.2 32.6566 36.2 32.9099C36.2 33.1599 36.38 33.3699 36.75 33.5399C37.2247 33.7362 37.737 33.825 38.25 33.7999C38.7609 33.8185 39.2705 33.737 39.75 33.5599C40.13 33.3899 40.32 33.1899 40.32 32.9399C40.32 32.6899 40.13 32.4799 39.76 32.2999ZM39.18 34.45L38.74 34.4999H37.74L37.2999 34.45V35.3199H39.15L39.18 34.45Z" fill="white"/>
<path d="M47.55 22.0199H50.94V17.6299L48.1601 13.14C47.8548 12.6961 47.4476 12.3319 46.9726 12.0779C46.4976 11.8239 45.9686 11.6874 45.43 11.6799H21.12C20.617 11.6864 20.1221 11.8079 19.6732 12.0349C19.2244 12.262 18.8334 12.5886 18.5301 12.9899L15.61 17.9199V22.0199H19.19C19.1905 22.4779 19.3373 22.9237 19.6089 23.2925C19.8805 23.6612 20.2628 23.9336 20.7 24.0699H15.61V25.0699H50.94V24.0699H46.0399C46.4788 23.9364 46.863 23.6647 47.135 23.2953C47.4071 22.926 47.5526 22.4786 47.55 22.0199ZM42.55 13.2399H44.55V20.4599H42.55V13.2399ZM36.3 13.2399H41.72V18.1099H36.3V13.2399ZM31.3 13.2399H35.5399V18.1099H31.3V13.2399ZM25.08 13.2399H30.49V18.1099H25.08V13.2399ZM22.34 13.2399H24.34V20.4599H22.34V13.2399ZM21.2701 18.0699H17.2701L19.85 13.2399H21.32L21.2701 18.0699ZM22.0301 24.0699C22.4673 23.9336 22.8495 23.6612 23.1211 23.2925C23.3927 22.9237 23.5394 22.4779 23.5399 22.0199H25.64C25.6383 22.477 25.783 22.9227 26.0529 23.2916C26.3228 23.6605 26.7039 23.9332 27.14 24.0699H22.0301ZM28.43 24.0699C28.8661 23.9332 29.2472 23.6605 29.5171 23.2916C29.787 22.9227 29.9317 22.477 29.93 22.0199H36.93C36.9273 22.4786 37.0729 22.926 37.345 23.2953C37.6171 23.6647 38.0011 23.9364 38.44 24.0699H28.43ZM39.7 24.0699C40.1372 23.9336 40.5194 23.6612 40.791 23.2925C41.0627 22.9237 41.2095 22.4779 41.21 22.0199H43.3C43.3005 22.4779 43.4473 22.9237 43.7189 23.2925C43.9905 23.6612 44.3728 23.9336 44.81 24.0699H39.7ZM45.57 18.0699V13.2399H47.0399L49.62 18.0699H45.57Z" fill="white"/>
</g>
<defs>
<clipPath id="clip0_8072_179">
<rect width="66.81" height="66.6" fill="white"/>
</clipPath>
</defs>
</svg>
