<svg width="69" height="69" viewBox="0 0 69 69" fill="none" xmlns="http://www.w3.org/2000/svg">
<g clip-path="url(#clip0_8063_6951)">
<path d="M32.83 21.82V24.97H23.09V31.26C23.3572 30.6289 23.8153 30.0974 24.4001 29.74C25.4336 29.3218 26.5468 29.1374 27.6599 29.2C28.5191 29.1388 29.3817 29.2516 30.1962 29.5317C31.0107 29.8118 31.7603 30.2534 32.4001 30.83C33.007 31.5148 33.4695 32.3149 33.7599 33.1827C34.0503 34.0504 34.1626 34.9678 34.09 35.88V39.24C34.09 42.05 33.6 44.17 32.56 45.47C31.42 47 29.5601 47.76 26.9001 47.76C23.9701 47.76 21.9 47.1 20.8 45.76C19.7 44.42 19.34 42.56 19.34 39.76V38.76H23.34V40.01C23.2353 41.195 23.4822 42.3846 24.05 43.43C24.3762 43.8431 24.8035 44.165 25.2904 44.3647C25.7774 44.5644 26.3077 44.6351 26.83 44.57C27.3731 44.6016 27.9138 44.4759 28.3874 44.2081C28.8609 43.9403 29.2472 43.5417 29.5 43.06C29.9122 42.1147 30.1135 41.091 30.09 40.06V35.61C30.1161 35.1633 30.0396 34.7165 29.8662 34.3039C29.6929 33.8913 29.4274 33.524 29.09 33.23C28.3074 32.6342 27.3431 32.3269 26.36 32.36C25.5442 32.3711 24.7652 32.7014 24.19 33.28C23.6836 33.7645 23.389 34.4294 23.37 35.13H19.51V21.82" fill="#231916"/>
<path d="M49.76 41.19C49.76 43.58 49.27 45.19 48.34 46.19C47.41 47.19 45.46 47.76 42.85 47.76H42.68V44.67H42.85C43.277 44.7119 43.7077 44.6492 44.105 44.4871C44.5023 44.3251 44.8542 44.0686 45.13 43.74C45.5578 42.9617 45.7489 42.0754 45.68 41.19V27.95C45.7373 27.0701 45.532 26.193 45.09 25.43C44.8131 25.1032 44.4609 24.8486 44.0636 24.6884C43.6664 24.5281 43.2361 24.4669 42.81 24.51H42.64V21.43C45.31 21.43 47.16 21.97 48.25 23.05C49.34 24.13 49.72 25.65 49.72 27.99M42.64 47.8C40.2 47.8 38.39 47.2 37.31 46.01C36.23 44.82 35.56 43.01 35.56 40.41V28.28C35.56 25.78 36.06 24.05 36.98 23.01C37.9 21.97 39.87 21.39 42.54 21.39H42.64V24.48C42.2067 24.4549 41.7729 24.5242 41.3689 24.683C40.9649 24.8419 40.6002 25.0864 40.3 25.4C39.8104 26.1561 39.5821 27.0518 39.6501 27.95V41.19C39.5894 42.0876 39.817 42.981 40.3 43.74C40.5927 44.0639 40.956 44.3162 41.3617 44.4774C41.7674 44.6387 42.2048 44.7046 42.64 44.67V47.8Z" fill="#231916"/>
<path d="M34.5101 68.54C41.2628 68.5142 47.8564 66.4877 53.458 62.7164C59.0595 58.945 63.4176 53.5981 65.9816 47.3511C68.5457 41.104 69.2007 34.2371 67.864 27.618C66.5272 20.9988 63.2586 14.9243 58.4711 10.162C53.6836 5.39961 47.592 2.16304 40.9659 0.861125C34.3398 -0.440792 27.4766 0.250342 21.2431 2.84727C15.0096 5.4442 9.68561 9.8304 5.9438 15.4517C2.20198 21.073 0.210206 27.6772 0.220041 34.43C0.243883 43.5022 3.86934 52.1937 10.2994 58.5937C16.7294 64.9938 25.4378 68.5786 34.5101 68.56" stroke="#D20D18" stroke-width="0.45"/>
<path d="M34.5101 1.63C28.0383 1.64582 21.7162 3.57874 16.3421 7.18475C10.968 10.7908 6.78284 15.9082 4.31486 21.8909C1.84689 27.8737 1.20675 34.4535 2.47539 40.7997C3.74403 47.146 6.86457 52.9741 11.4429 57.5482C16.0213 62.1224 21.8522 65.2375 28.1996 66.5004C34.547 67.7632 41.1262 67.1171 47.1067 64.6437C53.0872 62.1702 58.2008 57.9804 61.8019 52.603C65.403 47.2256 67.3301 40.9018 67.34 34.43C67.3387 30.1214 66.4883 25.8553 64.8373 21.8756C63.1864 17.8959 60.7672 14.2806 57.7183 11.2363C54.6694 8.19197 51.0504 5.77842 47.0682 4.13354C43.0859 2.48867 38.8186 1.64471 34.5101 1.64996M34.5101 59.93C29.4616 59.9201 24.5293 58.4136 20.3368 55.601C16.1444 52.7884 12.88 48.796 10.9562 44.1284C9.03247 39.4608 8.5357 34.3276 9.52885 29.3777C10.522 24.4279 12.9605 19.8836 16.5359 16.3193C20.1114 12.7551 24.6632 10.331 29.6161 9.35333C34.5691 8.37569 39.7007 8.88842 44.3622 10.8268C49.0238 12.7651 53.006 16.0421 55.8055 20.2433C58.6049 24.4446 60.0959 29.3815 60.09 34.43C60.0741 41.2037 57.37 47.6941 52.5718 52.4755C47.7736 57.2568 41.2738 59.938 34.5 59.93" fill="#D20D18"/>
</g>
<defs>
<clipPath id="clip0_8063_6951">
<rect width="68.98" height="68.77" fill="white"/>
</clipPath>
</defs>
</svg>
