<svg width="60" height="68" viewBox="0 0 60 68" fill="none" xmlns="http://www.w3.org/2000/svg">
<g clip-path="url(#clip0_8063_7462)">
<path d="M1.70004 60.2299C1.71062 61.7081 2.3073 63.1217 3.3591 64.1603C4.4109 65.199 5.83184 65.7779 7.31003 65.77H52.07C53.5465 65.7753 54.9649 65.1952 56.0145 64.1568C57.0641 63.1184 57.6594 61.7064 57.67 60.2299V7.54993C57.67 6.06471 57.08 4.64035 56.0298 3.59015C54.9796 2.53995 53.5553 1.94995 52.07 1.94995H7.31003C5.82389 1.94995 4.39844 2.53962 3.34665 3.58954C2.29486 4.63946 1.70269 6.0638 1.70004 7.54993" fill="#004A9C"/>
<path d="M0.229958 61.65C0.2273 63.2131 0.845059 64.7133 1.94749 65.8214C3.04992 66.9294 4.54692 67.5547 6.10996 67.56" stroke="#004A9C" stroke-width="0.45"/>
<path d="M6.11 67.5699H53.26" stroke="#004A9C" stroke-width="0.45"/>
<path d="M53.26 67.56C54.8293 67.56 56.3346 66.938 57.4461 65.8302C58.5577 64.7224 59.1847 63.2193 59.19 61.65" stroke="#004A9C" stroke-width="0.45"/>
<path d="M59.19 61.65V6.08997" stroke="#004A9C" stroke-width="0.45"/>
<path d="M59.19 6.08003C59.1861 5.3057 59.0295 4.5397 58.7292 3.82594C58.429 3.11218 57.9909 2.46465 57.4402 1.92036C56.8894 1.37608 56.2367 0.945771 55.5194 0.654006C54.8021 0.36224 54.0343 0.214716 53.26 0.219985" stroke="#004A9C" stroke-width="0.45"/>
<path d="M53.26 0.22998H6.11" stroke="#004A9C" stroke-width="0.45"/>
<path d="M6.10996 0.219987C5.33837 0.216029 4.57359 0.364765 3.85972 0.657609C3.14584 0.950452 2.49695 1.38167 1.95042 1.92635C1.40388 2.47102 0.970545 3.11844 0.675271 3.83131C0.379997 4.54419 0.228629 5.30843 0.229959 6.08003" stroke="#004A9C" stroke-width="0.45"/>
<path d="M0.23 6.07996V61.65" stroke="#004A9C" stroke-width="0.45"/>
<path d="M51.85 23.18C51.02 22.18 42.7001 8.90001 42.7001 8.90001C42.2001 8.20001 42.2001 8.09001 41.7001 8.90001C41.2001 9.71001 32.39 23.55 32.39 23.55C32.39 23.55 32.0101 24.15 32.3301 24.55C32.4452 24.7411 32.6208 24.8882 32.8292 24.9679C33.0376 25.0477 33.2667 25.0554 33.48 24.99L38.55 23.25V61.51H45.4601V27.63L45.24 22.85L50.36 25.18C50.36 25.18 51.83 26.05 52.16 25.02C52.16 25.02 52.76 24.32 51.89 23.18" fill="white"/>
<path d="M9.38001 47.75C9.82001 48.23 14.01 54.91 14.01 54.91C14.23 55.23 14.23 55.29 14.5 54.91C14.77 54.53 19.1801 47.54 19.1801 47.54C19.1801 47.54 19.4001 47.26 19.1801 47.04C19.1232 46.9398 19.0329 46.8629 18.9251 46.8227C18.8172 46.7825 18.6986 46.7815 18.5901 46.82L16.03 47.69V45.69V28.98H12.49V45.53L12.66 47.92L10.04 46.72C10.04 46.72 9.33006 46.29 9.18006 46.83C9.18006 46.83 8.85003 47.16 9.28003 47.76" fill="#D20D18"/>
</g>
<defs>
<clipPath id="clip0_8063_7462">
<rect width="59.41" height="67.79" fill="white"/>
</clipPath>
</defs>
</svg>
