<svg width="77" height="30" viewBox="0 0 77 30" fill="none" xmlns="http://www.w3.org/2000/svg">
<g clip-path="url(#clip0_8063_7911)">
<path d="M5.84998 28.8099C4.36186 28.8137 2.92945 28.2443 1.84998 27.22C1.32159 26.6968 0.90269 26.0737 0.617683 25.387C0.332675 24.7002 0.187353 23.9635 0.19007 23.22" stroke="#231916" stroke-width="0.49"/>
<path d="M0.240002 23.23V5.82996" stroke="#231916" stroke-width="0.49"/>
<path d="M0.239983 5.82994C0.237822 5.08647 0.383475 4.35 0.66845 3.66331C0.953426 2.97663 1.37207 2.35342 1.90002 1.82994C2.42661 1.31098 3.05196 0.902847 3.73901 0.629746C4.42605 0.356644 5.16085 0.224092 5.90002 0.239914" stroke="#231916" stroke-width="0.49"/>
<path d="M5.85 0.23999H70.55" stroke="#231916" stroke-width="0.49"/>
<path d="M70.53 0.239914C71.2692 0.224092 72.004 0.356644 72.691 0.629746C73.3781 0.902847 74.0034 1.31098 74.53 1.82994C75.0566 2.35391 75.4737 2.97738 75.7569 3.66411C76.0402 4.35084 76.184 5.08709 76.18 5.82994" stroke="#231916" stroke-width="0.49"/>
<path d="M76.15 5.82996V23.23" stroke="#231916" stroke-width="0.49"/>
<path d="M76.15 23.1899C76.154 23.9328 76.0102 24.669 75.7269 25.3557C75.4436 26.0424 75.0266 26.666 74.5 27.1899C73.4205 28.2143 71.9881 28.7836 70.5 28.7799" stroke="#231916" stroke-width="0.49"/>
<path d="M70.55 28.8101H5.85" stroke="#231916" stroke-width="0.49"/>
<path d="M5.84995 26.75C5.39006 26.7625 4.93263 26.6801 4.50595 26.5081C4.07927 26.336 3.69252 26.078 3.36996 25.75C2.72854 25.0878 2.36992 24.2019 2.36996 23.2799" stroke="#231916" stroke-width="0.49"/>
<path d="M2.31 23.23V5.82996" stroke="#231916" stroke-width="0.49"/>
<path d="M2.31003 5.83004C2.32656 4.8968 2.70685 4.00687 3.36996 3.35C3.69252 3.02196 4.07927 2.76393 4.50595 2.59188C4.93263 2.41983 5.39006 2.33746 5.84995 2.35" stroke="#231916" stroke-width="0.49"/>
<path d="M5.85 2.30005H70.55" stroke="#231916" stroke-width="0.49"/>
<path d="M70.53 2.28992C71.4575 2.30306 72.3426 2.68078 72.9939 3.34137C73.6451 4.00195 74.0101 4.89233 74.01 5.81995" stroke="#231916" stroke-width="0.49"/>
<path d="M74.03 5.82996V23.23" stroke="#231916" stroke-width="0.49"/>
<path d="M74.03 23.1899C74.0275 24.1158 73.6613 25.0037 73.0103 25.6621C72.3594 26.3205 71.4758 26.6968 70.55 26.71" stroke="#231916" stroke-width="0.49"/>
<path d="M70.55 26.76H5.85" stroke="#231916" stroke-width="0.49"/>
<path d="M15.4601 14.3499V15.7599H10.53V14.3499M10.53 20.5199V19.35C11.211 19.4081 11.8961 19.3053 12.53 19.0499C12.94 18.9399 13.18 18.6999 13.18 18.3999C13.18 18.0999 12.94 17.9399 12.53 17.8099C11.8805 17.6245 11.2043 17.5502 10.53 17.59V16.35C11.6227 16.2773 12.7162 16.4801 13.7101 16.9399C13.9908 17.0733 14.2312 17.2787 14.4068 17.5352C14.5825 17.7916 14.6871 18.0899 14.7101 18.3999C14.6885 18.7128 14.5846 19.0145 14.409 19.2744C14.2334 19.5343 13.9924 19.7432 13.7101 19.8799C12.7122 20.3313 11.6248 20.5502 10.53 20.5199ZM10.53 11.52V9.45996H10.65C11 9.45996 11.24 9.45996 11.29 9.51996C11.34 9.57996 11.35 9.74993 11.29 9.98993C11.3196 10.2101 11.4216 10.4142 11.58 10.5699C11.7803 10.8404 12.0195 11.0797 12.29 11.28C12.676 11.5297 13.0928 11.728 13.53 11.8699C14.0256 12.033 14.5396 12.1338 15.06 12.1699C14.94 12.3399 14.82 12.5799 14.65 12.8099C14.48 13.0399 14.41 13.28 14.29 13.58C13.4795 13.4443 12.7003 13.1631 11.99 12.7499C11.42 12.471 10.9338 12.0468 10.58 11.52M10.58 15.75H5.58005V14.34H10.58V15.75ZM10.58 9.45996V11.52L10.51 11.46C10.1371 12.0037 9.63557 12.4468 9.05002 12.7499C8.37015 13.1552 7.63123 13.4521 6.85995 13.6299C6.67995 13.3999 6.55998 13.1599 6.38998 12.9299C6.22824 12.7015 6.05114 12.4844 5.85995 12.28C6.86165 12.2269 7.82535 11.879 8.62997 11.28C8.94614 11.0855 9.21229 10.8195 9.40683 10.5034C9.60137 10.1872 9.71885 9.82984 9.74997 9.45996H10.58ZM10.58 16.34V17.58H10.53C9.85585 17.5457 9.18057 17.6199 8.53 17.7999C8.12 17.9299 7.94003 18.1599 7.94003 18.3899C7.94003 18.6199 8.12 18.9299 8.53 19.0399C9.16616 19.287 9.84933 19.3896 10.53 19.34H10.5999V20.5099H10.53C9.43392 20.5558 8.34292 20.3364 7.34995 19.87C7.07358 19.732 6.84015 19.5213 6.67453 19.2605C6.50891 18.9997 6.41744 18.6987 6.41 18.3899C6.41775 18.0837 6.50948 17.7857 6.67526 17.5282C6.84105 17.2707 7.07445 17.0637 7.34995 16.9299C8.34777 16.4826 9.43813 16.2804 10.53 16.34H10.58Z" fill="#231916"/>
<path d="M22.78 13.35V13.59L22.7199 13.7V14.7H25.53V16.1101H20.53V14.7H21.24V13.59H20.53V12.29C21.2051 12.3352 21.8828 12.2573 22.53 12.06C22.94 11.94 23.12 11.76 23.12 11.53C23.12 11.3 22.94 11.06 22.53 10.94C21.8828 10.7427 21.2051 10.6648 20.53 10.71V9.40999C21.5918 9.36381 22.648 9.58746 23.5999 10.06C23.8941 10.1776 24.1465 10.3803 24.3247 10.6422C24.5028 10.9041 24.5987 11.2133 24.5999 11.53C24.5931 11.9208 24.4479 12.2964 24.19 12.59C23.7985 12.922 23.337 13.1613 22.8401 13.29L22.78 13.35ZM20.53 20.46V19.3501H20.5901C21.2937 19.4015 22 19.2991 22.66 19.05C22.8163 19.0219 22.9588 18.943 23.0655 18.8254C23.1722 18.7078 23.237 18.5582 23.25 18.4C23.25 18.17 23.02 17.94 22.66 17.81C21.99 17.6038 21.2907 17.5091 20.5901 17.53L20.53 17.59V16.3501H20.5901C21.7046 16.2904 22.8176 16.4924 23.8401 16.94C24.1142 17.0756 24.3463 17.283 24.5118 17.5401C24.6773 17.7972 24.7701 18.0944 24.78 18.4C24.7704 18.7083 24.6782 19.0084 24.5128 19.2688C24.3474 19.5291 24.1151 19.7402 23.8401 19.88C22.8167 20.3238 21.7038 20.5225 20.5901 20.46H20.53ZM20.53 16.1101H15.53V14.7H18.24V13.29C17.7205 13.1734 17.2369 12.9334 16.83 12.59C16.5575 12.3004 16.3916 11.9265 16.36 11.53C16.3736 11.2163 16.4745 10.9126 16.6511 10.6529C16.8277 10.3933 17.0732 10.1879 17.36 10.06C18.3303 9.58899 19.4022 9.36565 20.4799 9.40999V10.71C19.8051 10.6749 19.1292 10.7526 18.4799 10.94C18.1199 11.06 17.88 11.23 17.88 11.53C17.88 11.83 18.1199 11.94 18.4799 12.06C19.1292 12.2475 19.8051 12.3252 20.4799 12.29V13.59H19.7199V14.7H20.4799L20.53 16.1101ZM20.53 16.3501V17.59C19.8558 17.5524 19.1799 17.6267 18.53 17.81C18.17 17.94 17.93 18.17 17.93 18.4C17.9451 18.5591 18.0119 18.7088 18.1203 18.8263C18.2287 18.9437 18.3726 19.0223 18.53 19.05C19.165 19.3015 19.8492 19.4042 20.53 19.3501V20.46C19.439 20.5224 18.3487 20.3235 17.3499 19.88C17.0736 19.742 16.8401 19.5313 16.6745 19.2706C16.5089 19.0098 16.4174 18.7088 16.41 18.4C16.4178 18.0938 16.5095 17.7958 16.6753 17.5383C16.841 17.2808 17.0745 17.0738 17.3499 16.94C18.3478 16.4927 19.4381 16.2905 20.53 16.3501Z" fill="#231916"/>
<path d="M32.27 11.71V13.19H30.15C30.1574 14.0474 30.3591 14.8918 30.74 15.66C31.0779 16.4145 31.6588 17.0341 32.39 17.42L31.8 18.01C31.62 18.25 31.5 18.49 31.39 18.66C30.89 18.3226 30.4673 17.883 30.15 17.3701C30.2645 17.2034 30.3313 17.0086 30.3431 16.8067C30.355 16.6049 30.3114 16.4035 30.2173 16.2246C30.1231 16.0456 29.9818 15.8958 29.8087 15.7913C29.6356 15.6868 29.4372 15.6317 29.235 15.6317C29.0327 15.6317 28.8345 15.6868 28.6613 15.7913C28.4882 15.8958 28.347 16.0456 28.2528 16.2246C28.1586 16.4035 28.1151 16.6049 28.1269 16.8067C28.1388 17.0086 28.2056 17.2034 28.32 17.3701C27.8828 17.8986 27.3862 18.375 26.8401 18.79C26.7068 18.5573 26.5492 18.3394 26.37 18.14C26.14 17.91 25.96 17.6701 25.79 17.5001C26.6382 17.1241 27.3404 16.4815 27.79 15.67C28.2856 14.9187 28.5531 14.04 28.56 13.14H26.26V11.68M30.79 11.09H27.67V9.72999H30.79V11.09ZM34.45 9.44001C34.51 9.50001 34.51 9.55999 34.45 9.72999C34.39 9.89999 34.4001 9.91004 34.3401 9.97004V14.19H35.63V15.66H34.3401V20.3701H32.8V9.43H33.63C33.9047 9.40187 34.1823 9.42217 34.45 9.49" fill="#231916"/>
<path d="M41.53 13.1099V9.58998H42.41C42.6325 9.56973 42.8565 9.60762 43.06 9.69997C43.06 9.69997 43.06 9.81996 43.06 9.93996V10.1199V10.2899V20.19H41.53V14.5399H40.7101C40.7224 15.5408 40.4997 16.5307 40.06 17.4299C39.9234 17.7558 39.6943 18.0346 39.4011 18.2318C39.1079 18.4291 38.7634 18.5362 38.41 18.5399V17.1299C38.64 17.1299 38.88 16.8899 38.99 16.4299C39.1827 15.7202 39.2637 14.9847 39.23 14.25C39.2678 13.5349 39.1867 12.8185 38.99 12.13C38.88 11.67 38.64 11.4199 38.41 11.4199V9.95998C38.7201 9.95755 39.025 10.039 39.2926 10.1956C39.5601 10.3523 39.7804 10.5784 39.93 10.8499C40.3473 11.5421 40.5941 12.3236 40.65 13.13M45.31 9.48994C45.37 9.48994 45.37 9.60999 45.31 9.71999C45.268 9.79281 45.2472 9.87594 45.25 9.95998L45.19 10.2V20.36H43.7101V9.42995H44.7101C44.9286 9.40673 45.1494 9.42712 45.36 9.48994M38.4601 18.49C38.0936 18.4715 37.7392 18.3525 37.4359 18.1461C37.1325 17.9398 36.8918 17.654 36.74 17.32C35.9528 15.3144 35.9528 13.0855 36.74 11.08C36.8918 10.7459 37.1325 10.4601 37.4359 10.2537C37.7392 10.0474 38.0936 9.92842 38.4601 9.90993V11.3699C38.1601 11.3699 37.98 11.62 37.8 12.08C37.6636 12.778 37.6065 13.4892 37.63 14.2C37.6095 14.9306 37.6665 15.6613 37.8 16.3799C37.98 16.8399 38.1601 17.08 38.4601 17.08V18.49Z" fill="#231916"/>
<path d="M56.75 20.0499V18.6399H57.69V20.0499M56.75 17.46V9.45996H57.16C57.34 9.45996 57.4 9.45996 57.45 9.51996L57.57 9.63995C57.57 9.69995 57.51 9.74993 57.51 9.86993L57.45 10.1099C57.4033 10.2025 57.3858 10.3072 57.4 10.4099V13.1899H58.69V14.6599H57.4V17.48L56.75 17.46ZM55.33 12.3499H52.2V11.1099H55.33V12.3499ZM56.75 9.40991V17.4099H55.86V9.40991H56.75ZM56.75 20.0499H52.2V18.6399H56.75V20.0499ZM52.2 16.47V15.35C52.491 15.3401 52.7754 15.2612 53.03 15.1199C53.1103 15.0448 53.1734 14.9532 53.2148 14.8513C53.2562 14.7495 53.2751 14.6398 53.27 14.53C53.2757 14.42 53.2573 14.3102 53.2158 14.2082C53.1743 14.1062 53.1108 14.0146 53.03 13.9399C52.7726 13.8119 52.4874 13.7501 52.2 13.7599V12.65C52.9055 12.6018 53.6074 12.7843 54.2 13.1699C54.3995 13.3362 54.5601 13.5441 54.6706 13.7791C54.7812 14.014 54.839 14.2703 54.8401 14.53C54.8389 14.7882 54.781 15.0429 54.6704 15.2762C54.5598 15.5095 54.3992 15.7156 54.2 15.8799C53.603 16.2627 52.9092 16.4674 52.2 16.47ZM52.2 9.52997H53.8V10.7599H52.2V9.52997ZM52.2 12.3499H49.14V11.1099H52.2V12.3499ZM52.2 10.7599H50.67V9.52997H52.2V10.7599ZM52.2 12.65V13.7599C51.9313 13.743 51.6634 13.8056 51.43 13.9399C51.3445 14.0137 51.2747 14.104 51.2248 14.2054C51.175 14.3068 51.1462 14.4172 51.14 14.53C51.1547 14.7573 51.259 14.9694 51.43 15.1199C51.6594 15.2686 51.9267 15.3485 52.2 15.35V16.47H52.15C51.4702 16.4795 50.8048 16.2728 50.25 15.8799C50.0607 15.7108 49.9107 15.5024 49.8105 15.2692C49.7103 15.036 49.6624 14.7837 49.67 14.53C49.6623 14.2748 49.7101 14.0209 49.8103 13.7861C49.9104 13.5512 50.0604 13.341 50.25 13.1699C50.8126 12.8005 51.4777 12.6185 52.15 12.65H52.2ZM52.2 18.6499V20.0599H50.14V16.8799H51.02C51.2627 16.8658 51.5054 16.9069 51.7299 17C51.7899 17 51.7899 17.1199 51.7299 17.2999L51.67 17.4199V18.6499H52.2Z" fill="#231916"/>
<path d="M65.3499 11V12.19H62.29V10.96M62.29 19.96V18.72H65.89V17.55H62.29V16.26H67.42V20.26H65.89V19.96H62.29ZM62.29 15.9V14.9C62.5582 14.9105 62.8243 14.8483 63.06 14.72C63.1397 14.6575 63.2031 14.5766 63.2448 14.4844C63.2866 14.3921 63.3056 14.2911 63.3 14.19C63.3046 14.0975 63.2848 14.0055 63.2426 13.923C63.2005 13.8406 63.1376 13.7706 63.06 13.72C62.8233 13.5953 62.5573 13.5365 62.29 13.55V12.43C62.9605 12.3994 63.6231 12.5853 64.18 12.96C64.3828 13.0941 64.5486 13.277 64.6622 13.492C64.7758 13.7069 64.8335 13.9469 64.83 14.19C64.8334 14.4345 64.7756 14.6758 64.6621 14.8923C64.5486 15.1089 64.3829 15.2937 64.18 15.43C63.622 15.8012 62.9594 15.9835 62.29 15.95M62.29 9.43001H63.82V10.66H62.29V9.43001ZM67.29 9.37001C67.3939 9.35436 67.5001 9.37558 67.5901 9.43001L67.65 9.53999C67.6534 9.62408 67.6326 9.70743 67.5901 9.78004L67.53 10.02C67.4755 10.1062 67.4541 10.2093 67.4699 10.31V12.9H68.77V14.37H67.4699V15.95H65.94V9.37001H67.29ZM62.29 12.19H59.17V10.96H62.29V12.19ZM62.29 10.67H60.7V9.43001H62.29V10.67ZM62.29 12.43V13.55H62.2299C61.9652 13.5277 61.6999 13.587 61.4699 13.72C61.3924 13.7706 61.3294 13.8406 61.2873 13.923C61.2452 14.0055 61.2254 14.0975 61.2299 14.19C61.2244 14.2911 61.2433 14.3921 61.2851 14.4844C61.3269 14.5766 61.3903 14.6575 61.4699 14.72C61.6986 14.8571 61.9641 14.92 62.2299 14.9H62.29V15.9H62.2299C61.544 15.9415 60.8632 15.759 60.29 15.38C60.1024 15.233 59.9515 15.0446 59.8491 14.8294C59.7467 14.6143 59.6958 14.3783 59.7 14.14C59.6958 13.9032 59.7468 13.6686 59.8492 13.4551C59.9516 13.2415 60.1026 13.0549 60.29 12.91C60.862 12.5274 61.5429 12.3414 62.2299 12.38L62.29 12.43ZM62.29 16.31V17.6H61.58V18.77H62.29V20.01H61.58V20.31H60.05V16.31H62.29Z" fill="#231916"/>
</g>
<defs>
<clipPath id="clip0_8063_7911">
<rect width="76.39" height="29.06" fill="white"/>
</clipPath>
</defs>
</svg>
