<svg width="76" height="66" viewBox="0 0 76 66" fill="none" xmlns="http://www.w3.org/2000/svg">
<g clip-path="url(#clip0_8063_6502)">
<path d="M1.12995 59.66L34.34 2.58002C36.16 -0.539979 39.41 -0.539979 41.24 2.58002L74.62 59.78C76.62 63.07 74.91 65.66 71.02 65.66H4.84998C0.599985 65.66 -0.870047 63.19 1.12995 59.66Z" fill="white"/>
<path d="M1.12995 59.66L34.34 2.58002C36.16 -0.539979 39.41 -0.539979 41.24 2.58002L74.62 59.78C76.62 63.07 74.91 65.66 71.02 65.66H4.84998C0.599985 65.66 -0.870047 63.19 1.12995 59.66Z" stroke="#D20D18" stroke-width="0.49"/>
<path d="M2.66001 60.41L35.57 3.74C36.76 1.62 38.81 1.74 40 3.74L73.08 60.41C74.27 62.46 73.02 64.05 70.72 64.05H5.19998C2.60998 64.05 1.48001 62.35 2.66001 60.35" fill="#D20D18"/>
<path d="M37.93 12.93L63.88 57.67H11.57" fill="#F8B500"/>
<path d="M37.93 12.93L63.88 57.67H11.57L37.93 12.93Z" stroke="#D20D18" stroke-width="0.54"/>
<path d="M44.24 50.55C44.2453 51.165 44.1291 51.7749 43.898 52.3448C43.6669 52.9147 43.3255 53.4334 42.8935 53.871C42.4614 54.3086 41.9472 54.6566 41.3803 54.895C40.8134 55.1334 40.205 55.2574 39.59 55.26H35.9301C34.6959 55.2442 33.5183 54.7394 32.6559 53.8564C31.7935 52.9733 31.3167 51.7842 31.33 50.55V30.41C31.3234 29.7993 31.4372 29.1934 31.6648 28.6267C31.8924 28.06 32.2294 27.5437 32.6566 27.1072C33.0837 26.6708 33.5926 26.3228 34.1543 26.083C34.716 25.8433 35.3194 25.7165 35.9301 25.71H39.59C40.2045 25.7113 40.8127 25.8341 41.3796 26.0714C41.9464 26.3087 42.4607 26.6557 42.8929 27.0925C43.3251 27.5294 43.6666 28.0474 43.8978 28.6167C44.129 29.1861 44.2453 29.7955 44.24 30.41" fill="white"/>
<path d="M44.24 50.55C44.2453 51.165 44.1291 51.7749 43.898 52.3448C43.6669 52.9147 43.3255 53.4334 42.8935 53.871C42.4614 54.3086 41.9472 54.6566 41.3803 54.895C40.8134 55.1334 40.205 55.2574 39.59 55.26H35.9301C34.6959 55.2442 33.5183 54.7394 32.6559 53.8564C31.7935 52.9733 31.3167 51.7842 31.33 50.55V30.41C31.3234 29.7993 31.4372 29.1934 31.6648 28.6267C31.8924 28.06 32.2294 27.5437 32.6566 27.1072C33.0837 26.6708 33.5926 26.3228 34.1543 26.083C34.716 25.8433 35.3194 25.7165 35.9301 25.71H39.59C40.2045 25.7113 40.8127 25.8341 41.3796 26.0714C41.9464 26.3087 42.4607 26.6557 42.8929 27.0925C43.3251 27.5294 43.6666 28.0474 43.8978 28.6167C44.129 29.1861 44.2453 29.7955 44.24 30.41V50.55Z" stroke="#231916" stroke-width="0.62"/>
<path d="M37.81 28.41C38.833 28.402 39.8175 28.7993 40.5483 29.5152C41.2791 30.231 41.6968 31.2071 41.71 32.23C41.6969 33.2584 41.2812 34.2408 40.5521 34.9662C39.823 35.6916 38.8385 36.1022 37.81 36.11C36.7889 36.0995 35.8132 35.6857 35.0958 34.9589C34.3784 34.2321 33.9773 33.2512 33.98 32.23C33.98 31.7275 34.0792 31.23 34.2718 30.7658C34.4644 30.3017 34.7466 29.8801 35.1024 29.5253C35.4582 29.1704 35.8805 28.8893 36.3451 28.6979C36.8097 28.5065 37.3076 28.4087 37.81 28.41Z" fill="#DC0011"/>
<path d="M37.81 45.41C38.833 45.402 39.8175 45.7993 40.5483 46.5152C41.2791 47.231 41.6968 48.2071 41.71 49.23C41.6969 50.2575 41.2809 51.2388 40.5515 51.9626C39.8221 52.6864 38.8376 53.0948 37.81 53.1C36.7898 53.0921 35.8141 52.6805 35.0964 51.9553C34.3787 51.2301 33.9774 50.2503 33.98 49.23C33.98 48.7275 34.0792 48.23 34.2718 47.7658C34.4644 47.3017 34.7466 46.8801 35.1024 46.5253C35.4582 46.1704 35.8805 45.8893 36.3451 45.6979C36.8097 45.5065 37.3076 45.4087 37.81 45.41Z" fill="#009944"/>
<path d="M37.81 36.97C38.8322 36.9646 39.8152 37.3628 40.5455 38.0781C41.2757 38.7934 41.6942 39.7679 41.71 40.79C41.6995 41.8192 41.2846 42.8031 40.5549 43.529C39.8252 44.255 38.8393 44.6648 37.81 44.67C36.7889 44.6595 35.8132 44.2457 35.0958 43.5189C34.3784 42.7921 33.9773 41.8112 33.98 40.79C33.98 40.2875 34.0792 39.7899 34.2718 39.3258C34.4644 38.8617 34.7466 38.4402 35.1024 38.0853C35.4582 37.7305 35.8805 37.4493 36.3451 37.2579C36.8097 37.0665 37.3076 36.9687 37.81 36.97Z" fill="#FFD900"/>
</g>
<defs>
<clipPath id="clip0_8063_6502">
<rect width="75.68" height="65.9" fill="white"/>
</clipPath>
</defs>
</svg>
