<svg width="66" height="65" viewBox="0 0 66 65" fill="none" xmlns="http://www.w3.org/2000/svg">
<g clip-path="url(#clip0_8063_7236)">
<path d="M1.83002 56.44C1.8353 57.9704 2.44629 59.4365 3.52939 60.5177C4.61249 61.5989 6.0796 62.2073 7.61002 62.21H57.61C58.3725 62.2152 59.1286 62.0701 59.8349 61.7829C60.5413 61.4956 61.1841 61.072 61.7265 60.536C62.2689 60.0001 62.7004 59.3625 62.9961 58.6596C63.2918 57.9568 63.4461 57.2025 63.45 56.44V7.82997C63.4448 7.0683 63.2896 6.31511 62.9933 5.61342C62.6969 4.91173 62.2653 4.2753 61.723 3.74043C61.1807 3.20557 60.5383 2.78279 59.8326 2.49617C59.1269 2.20955 58.3717 2.06469 57.61 2.06996H7.61002C6.08133 2.07258 4.61572 2.67967 3.5329 3.75874C2.45008 4.83782 1.83794 6.3013 1.83002 7.82997" fill="#004A9C"/>
<path d="M58.87 64.03C59.6769 64.038 60.4772 63.8853 61.2245 63.5808C61.9717 63.2763 62.6509 62.8262 63.2224 62.2565C63.7938 61.6869 64.2462 61.0092 64.5531 60.263C64.8601 59.5168 65.0154 58.7169 65.01 57.91" stroke="#004A9C" stroke-width="0.49"/>
<path d="M0.23999 6.29999V57.91" stroke="#004A9C" stroke-width="0.49"/>
<path d="M6.39001 64.03H58.88" stroke="#004A9C" stroke-width="0.49"/>
<path d="M0.25 57.92C0.251312 58.7237 0.410924 59.5193 0.719696 60.2613C1.02847 61.0033 1.48037 61.6773 2.04959 62.2446C2.61881 62.812 3.29422 63.2616 4.03723 63.568C4.78025 63.8743 5.57631 64.0313 6.38 64.03" stroke="#004A9C" stroke-width="0.49"/>
<path d="M65.01 57.91V6.29999" stroke="#004A9C" stroke-width="0.49"/>
<path d="M6.38 0.219981C4.76389 0.20933 3.2096 0.840422 2.05841 1.97474C0.907217 3.10906 0.253233 4.65388 0.240021 6.26997" stroke="#004A9C" stroke-width="0.49"/>
<path d="M65 6.29996C64.9987 5.49907 64.8387 4.70636 64.5292 3.96769C64.2197 3.22902 63.7669 2.55902 63.1968 1.99644C62.6268 1.43385 61.9509 0.989813 61.2083 0.690041C60.4656 0.390268 59.6709 0.240725 58.87 0.249977" stroke="#004A9C" stroke-width="0.49"/>
<path d="M58.87 0.23999H6.38" stroke="#004A9C" stroke-width="0.49"/>
<path d="M14.75 49.14V50.3101H13.15V50.61C13.1384 51.471 13.2911 52.3263 13.6 53.13C13.825 53.8463 14.3055 54.455 14.95 54.84C14.7711 54.9663 14.6183 55.1259 14.5 55.3101C14.34 55.4539 14.2195 55.6364 14.15 55.84C13.747 55.4881 13.4085 55.0685 13.15 54.6C12.8485 54.0736 12.642 53.4981 12.54 52.9C12.424 53.5002 12.204 54.0755 11.89 54.6C11.6161 55.1182 11.2422 55.577 10.79 55.95C10.6727 55.7649 10.5388 55.5909 10.39 55.4301C10.2574 55.2543 10.1029 55.0963 9.93002 54.96C10.6148 54.5036 11.142 53.8471 11.44 53.08C11.8104 52.3098 11.9986 51.4647 11.99 50.61V50.3101H10.44V49.14M16.44 48.4301C16.49 48.4901 16.49 48.55 16.44 48.72L16.39 48.9L16.33 49.14V52.22H17.33V53.4H16.33V57.22H15.23V48.4H15.83C16.0344 48.4066 16.2382 48.4266 16.44 48.46" fill="white"/>
<path d="M24.54 52.67H24.7L24.55 52.84M24.55 55.78H26.91V56.95H24.55V55.78ZM24.55 51.54H25.65V54.78H26.81V48.9L26.91 48.73C26.9328 48.6807 26.9402 48.6258 26.9313 48.5723C26.9224 48.5188 26.8975 48.4692 26.86 48.43C26.6785 48.3956 26.4946 48.3755 26.31 48.37H25.65V50.43H24.55V51.54ZM24.55 48.84V50.02H23.1V50.31C23.0666 50.8121 23.2079 51.3102 23.5 51.72C23.7227 52.1481 24.0719 52.4972 24.5 52.72V52.89C24.5 53.01 24.35 53.13 24.3 53.24L24 53.77C23.622 53.577 23.2962 53.2957 23.05 52.95C22.7623 52.676 22.5519 52.3311 22.44 51.95C22.2857 52.2902 22.0837 52.6067 21.84 52.89C21.4936 53.2286 21.1075 53.5241 20.69 53.77C20.5592 53.6244 20.442 53.4671 20.34 53.3C20.2184 53.1152 20.0621 52.9556 19.88 52.83C20.17 52.7613 20.4447 52.6392 20.69 52.47C20.9337 52.3093 21.1527 52.1139 21.34 51.89C21.5247 51.6808 21.6764 51.4448 21.79 51.1899C21.8748 50.9828 21.9255 50.7633 21.94 50.54V50.0699H20.44V48.89L24.55 48.84ZM24.55 50.43H24.4V51.54H24.55V50.43ZM24.55 55.78V56.95H20.99V54.1299H21.64C21.8084 54.1382 21.9758 54.1617 22.14 54.2C22.19 54.2 22.19 54.31 22.14 54.43C22.09 54.55 22.14 54.55 22.09 54.6V55.78H24.55Z" fill="white"/>
<path d="M33.7 49.14C33.7528 50.5872 33.4972 52.0292 32.95 53.37C32.3693 54.4142 31.5673 55.3186 30.6 56.02C30.44 55.84 30.34 55.6 30.19 55.43L29.74 54.9C30.1692 54.7546 30.5637 54.5224 30.8992 54.2179C31.2347 53.9134 31.5039 53.5431 31.69 53.13C32.206 52.2812 32.4696 51.3031 32.45 50.31H30.09V49.14M36.36 48.43H36.56L36.61 48.55L36.56 48.72L36.51 48.9V57.22H35.36V52.82H34.05V51.64H35.36V48.4H35.91C36.0627 48.3829 36.2172 48.4035 36.36 48.46" fill="white"/>
<path d="M46.08 54.67H43.45V57.42H42.39V54.67H39.81V53.67H46.08M45.64 48.9V49.9H43.43C43.4309 50.1642 43.496 50.4242 43.6197 50.6577C43.7434 50.8911 43.9219 51.0909 44.14 51.2401C44.6835 51.6232 45.3111 51.8701 45.97 51.96L45.57 52.72C44.9852 52.6235 44.4187 52.438 43.89 52.17C43.4828 51.9594 43.138 51.6456 42.89 51.26C42.637 51.6413 42.2934 51.954 41.89 52.17C41.3873 52.4326 40.8479 52.618 40.29 52.72L39.89 51.96C40.5466 51.8719 41.1697 51.6172 41.7 51.22C41.9139 51.0753 42.0888 50.88 42.2091 50.6515C42.3295 50.423 42.3916 50.1683 42.39 49.91H40.28V48.91L45.64 48.9Z" fill="white"/>
<path d="M46.08 53.58H39.7V54.77H42.28V57.53H43.52V54.77H46.14V53.58M45.97 53.78V54.5699H43.34V57.3199H42.45V54.5699H39.87V53.78H45.97Z" fill="white"/>
<path d="M45.64 48.81H40.18V49.98H42.25C42.24 50.2018 42.1789 50.4184 42.0713 50.6127C41.9638 50.807 41.8127 50.9737 41.63 51.1C41.1107 51.4815 40.5069 51.7319 39.87 51.83H39.75L40.24 52.77H40.3C40.8646 52.6692 41.4108 52.4838 41.92 52.22C42.3124 52.0057 42.6535 51.7089 42.92 51.35C43.1771 51.7149 43.5207 52.0104 43.92 52.21C44.4581 52.4828 45.0348 52.6717 45.63 52.77H45.69L46.18 51.77H46.05C45.402 51.6803 44.7848 51.4369 44.25 51.06C44.0657 50.9291 43.9128 50.7589 43.8021 50.5618C43.6915 50.3647 43.6259 50.1455 43.61 49.92H45.7V48.75M45.53 48.96V49.72H43.32V49.8199C43.32 50.0984 43.3884 50.3727 43.5191 50.6185C43.6499 50.8644 43.8391 51.0744 44.07 51.23C44.5889 51.595 45.1838 51.8377 45.81 51.9399L45.51 52.52C44.9512 52.4195 44.4093 52.2411 43.9 51.99C43.4932 51.7925 43.1476 51.4884 42.9 51.11L42.83 51L42.76 51.11C42.5023 51.4795 42.1593 51.7814 41.76 51.99C41.2785 52.2378 40.7629 52.413 40.23 52.5099L39.93 51.93C40.5474 51.8231 41.1322 51.5769 41.64 51.21C41.8657 51.0552 42.0501 50.8477 42.1774 50.6055C42.3046 50.3632 42.3707 50.0936 42.37 49.8199V49.72H40.26V48.96H45.53Z" fill="white"/>
<path d="M52.21 48.58H51.06V49.39H49.63V50.55H51.07V50.6801C51.1075 51.888 50.9176 53.0923 50.51 54.23C50.2646 54.9277 49.8446 55.5508 49.29 56.04L49.21 56.11L49.8 56.9301L49.87 56.88C50.281 56.5619 50.6389 56.1806 50.93 55.7501C51.2603 55.2056 51.5 54.6112 51.64 53.9901C51.7811 54.6016 52.0066 55.1906 52.31 55.7401C52.589 56.1889 52.9524 56.5794 53.38 56.89H53.43L54.07 56.07L53.99 56.0001C53.4353 55.5272 53.0203 54.9116 52.79 54.22C52.4292 53.0688 52.2603 51.8661 52.29 50.66V50.51H53.77V49.35H52.3V48.54M52.12 48.7401V49.55H53.6V50.3101H52.12V50.67C52.0837 51.9002 52.2561 53.1276 52.63 54.3C52.8663 54.989 53.2762 55.6055 53.82 56.09L53.41 56.6201C53.0247 56.3431 52.687 56.0054 52.41 55.6201C52.0611 54.9987 51.8209 54.3223 51.7 53.6201H51.53C51.3958 54.3292 51.1313 55.0073 50.75 55.6201C50.4722 56.0047 50.1346 56.3423 49.75 56.6201L49.38 56.1C49.96 55.6246 50.4134 55.0131 50.7 54.32C51.1118 53.1521 51.3017 51.9177 51.26 50.6801V50.35H49.8V49.59H51.23V48.78L52.12 48.7401Z" fill="white"/>
<path d="M51.15 49.4901V48.6801H52.21V49.4901H53.7V50.4901H52.22C52.1627 51.7926 52.3319 53.0953 52.72 54.34C52.955 55.0482 53.3806 55.6779 53.95 56.16L53.43 56.84C53.0312 56.5308 52.6923 56.1512 52.43 55.72C52.0781 55.0982 51.8314 54.4224 51.7 53.72C51.5623 54.4297 51.2944 55.1078 50.91 55.72C50.637 56.1431 50.2996 56.521 49.91 56.84L49.43 56.16C49.9998 55.666 50.4307 55.0317 50.68 54.32C51.1143 53.092 51.3046 51.791 51.24 50.4901H49.7V49.4901M55.37 48.73V52.22H56.1V53.22H55.37V57.4H54.28V48.71L55.37 48.73Z" fill="white"/>
<path d="M55.38 48.63H54.21V57.53H55.46V53.33H56.19V52.15H55.46V48.63M55.29 48.83V52.35H56.02V53.13H55.29V57.32H54.38V48.83H55.29Z" fill="white"/>
<path d="M10.76 6.41998H11.45C12.1745 6.36694 12.9012 6.48817 13.5692 6.77349C14.2373 7.05881 14.8273 7.49994 15.29 8.05999C15.9071 8.93658 16.2261 9.9883 16.2 11.06C16.2345 12.0601 15.9316 13.0428 15.34 13.85C14.8494 14.3824 14.2445 14.7967 13.5707 15.0617C12.8969 15.3267 12.1719 15.4355 11.45 15.3799H10.76V13.48H11.33C11.9193 13.4883 12.4914 13.2821 12.94 12.9C13.2064 12.6655 13.416 12.3735 13.5528 12.046C13.6897 11.7186 13.7503 11.3643 13.73 11.0099C13.7586 10.6593 13.7138 10.3067 13.5985 9.97436C13.4831 9.64205 13.2997 9.3374 13.06 9.07995C12.8449 8.8517 12.5842 8.67139 12.2947 8.55078C12.0052 8.43016 11.6935 8.37193 11.38 8.37994H10.76M5.30002 20.81V6.41998H10.76V8.34997H7.76001V13.4499H10.76V15.35H7.76001V20.78L5.30002 20.81Z" fill="white"/>
<path d="M46.1 26.4499C45.2757 26.4516 44.4552 26.5626 43.66 26.7799L42.14 23.43L42.06 23.3C41.9821 23.0992 41.8444 22.9273 41.6656 22.8074C41.4867 22.6876 41.2753 22.6256 41.06 22.6299H26.58L28.85 17.9099H32.7C32.8432 17.9099 32.9806 17.8531 33.0819 17.7518C33.1831 17.6505 33.24 17.5132 33.24 17.37V15.7199C33.2299 15.5838 33.1686 15.4565 33.0684 15.3637C32.9682 15.2709 32.8366 15.2196 32.7 15.2199H27.88C27.6745 15.2129 27.4711 15.2646 27.294 15.3691C27.1168 15.4736 26.9732 15.6266 26.88 15.81L21.7 26.48V26.5999C19.4531 25.9204 17.0323 26.1167 14.9242 27.1493C12.8161 28.1819 11.1771 29.9742 10.3366 32.166C9.49616 34.3578 9.51661 36.7864 10.3938 38.9638C11.271 41.1411 12.94 42.9056 15.0651 43.9026C17.1903 44.8996 19.6141 45.0551 21.8492 44.3379C24.0843 43.6207 25.9651 42.084 27.1134 40.0366C28.2617 37.9892 28.5923 35.583 28.0389 33.3018C27.4854 31.0206 26.0889 29.0335 24.13 27.74V27.6899L25.25 25.3799H40L41.15 27.8999C39.2451 29.0877 37.8335 30.9239 37.1753 33.0701C36.5171 35.2163 36.6565 37.5282 37.5679 39.5797C38.4793 41.6313 40.1013 43.2844 42.1352 44.2347C44.169 45.185 46.4778 45.3684 48.6362 44.7511C50.7945 44.1338 52.6571 42.7573 53.881 40.8753C55.1048 38.9934 55.6074 36.7326 55.2962 34.5094C54.985 32.2861 53.881 30.2502 52.1874 28.7766C50.4939 27.303 48.3249 26.4909 46.08 26.49M25.7 35.49C25.704 36.8258 25.3115 38.1328 24.5722 39.2455C23.8329 40.3581 22.7801 41.2264 21.547 41.7404C20.314 42.2543 18.9561 42.3908 17.6455 42.1327C16.3348 41.8745 15.1302 41.2332 14.1842 40.29C13.2382 39.3468 12.5933 38.1441 12.3312 36.8342C12.0691 35.5243 12.2017 34.1661 12.712 32.9315C13.2223 31.6969 14.0874 30.6415 15.1979 29.8989C16.3083 29.1563 17.6142 28.7599 18.95 28.7599C19.4929 28.7605 20.0335 28.8277 20.56 28.9599L17.73 34.9599C17.6537 35.1201 17.6098 35.2938 17.6007 35.471C17.5915 35.6482 17.6175 35.8254 17.6769 35.9926C17.7363 36.1598 17.8282 36.3136 17.9471 36.4453C18.066 36.5769 18.2098 36.6838 18.37 36.7599C18.6965 36.9148 19.0709 36.9345 19.4118 36.8146C19.7527 36.6947 20.0324 36.4451 20.19 36.12L23.01 30.12C23.8448 30.7446 24.5225 31.555 24.9894 32.4872C25.4563 33.4193 25.6996 34.4474 25.7 35.49ZM46.08 42.49C44.6363 42.5081 43.2251 42.0601 42.0563 41.2124C40.8874 40.3647 40.0232 39.1626 39.5919 37.7846C39.1607 36.4066 39.1854 34.9262 39.6625 33.5634C40.1396 32.2006 41.0435 31.0281 42.24 30.2199L45.01 36.3299C45.1676 36.6422 45.4394 36.8818 45.769 36.9989C46.0986 37.116 46.4606 37.1016 46.7799 36.9587C47.0991 36.8158 47.3511 36.5554 47.4833 36.2316C47.6156 35.9078 47.618 35.5455 47.49 35.2199L44.7 29.1399C45.1508 29.0473 45.6098 29.0004 46.07 29C46.975 28.9651 47.8777 29.1132 48.724 29.4354C49.5704 29.7576 50.343 30.2474 50.9956 30.8753C51.6482 31.5032 52.1674 32.2564 52.522 33.0897C52.8766 33.923 53.0594 34.8193 53.0594 35.7249C53.0594 36.6306 52.8766 37.5269 52.522 38.3602C52.1674 39.1935 51.6482 39.9467 50.9956 40.5746C50.343 41.2025 49.5704 41.6923 48.724 42.0145C47.8777 42.3367 46.975 42.4848 46.07 42.4499" fill="white"/>
<path d="M45.03 19.03H37.27C37.0628 19.0769 36.8759 19.1885 36.7364 19.3488C36.5969 19.5091 36.5121 19.7097 36.4943 19.9214C36.4765 20.1331 36.5265 20.345 36.6372 20.5264C36.7479 20.7077 36.9135 20.8491 37.11 20.93L42.01 21.5699C42.01 21.5699 44.41 21.9499 45.01 19.0699" fill="white"/>
</g>
<defs>
<clipPath id="clip0_8063_7236">
<rect width="65.25" height="64.27" fill="white"/>
</clipPath>
</defs>
</svg>
