<svg width="76" height="67" viewBox="0 0 76 67" fill="none" xmlns="http://www.w3.org/2000/svg">
<g clip-path="url(#clip0_8063_6590)">
<path d="M1.16993 59.9L34.4299 2.58C36.2599 -0.529999 39.51 -0.529999 41.33 2.58L74.82 60.02C76.82 63.31 75.13 65.9 71.23 65.9H4.81996C0.579957 65.9 -0.900068 63.37 1.16993 59.9Z" fill="white"/>
<path d="M1.16993 59.9L34.4299 2.58C36.2599 -0.529999 39.51 -0.529999 41.33 2.58L74.82 60.02C76.82 63.31 75.13 65.9 71.23 65.9H4.81996C0.579957 65.9 -0.900068 63.37 1.16993 59.9Z" stroke="#D20D18" stroke-width="0.49"/>
<path d="M2.59005 60.6L35.67 3.70002C36.85 1.64003 38.9101 1.70002 40.0901 3.76002L73.3 60.67C74.47 62.72 73.24 64.31 70.93 64.31H5.18002C2.59002 64.31 1.47005 62.55 2.59005 60.6Z" fill="#D20D18"/>
<path d="M38.03 12.99L64.04 57.84H11.55" fill="#F8B500"/>
<path d="M38.03 12.99L64.04 57.84H11.55L38.03 12.99Z" stroke="#D20D18" stroke-width="0.55"/>
<path d="M19.86 54.67H25.46L27.65 48.61H24.11" fill="#231916"/>
<path d="M53.01 48.61L48.99 48.91L50.12 54.61H55.55" fill="#231916"/>
<path d="M42.92 50.55C42.8226 50.4074 42.7546 50.2468 42.7199 50.0775C42.6853 49.9083 42.6847 49.7339 42.7182 49.5645C42.7517 49.395 42.8186 49.234 42.9151 49.0907C43.0116 48.9474 43.1356 48.8248 43.28 48.73H42.6301L39.85 48.61V54.61H45.46L44.69 50.31C43.93 51.08 42.92 50.91 42.92 50.55Z" fill="#231916"/>
<path d="M45.9901 48.31L44.8701 47.31L43.1001 44.96L42.6301 42.79L41.9801 39.37C42.04 39.0595 42.0801 38.7456 42.1001 38.43C42.0092 36.637 41.6276 34.8706 40.9701 33.2C41.5101 32.85 42.1001 34.26 42.1001 34.91C42.1001 34.91 42.3901 35.91 42.6301 36.79C42.7587 37.1509 42.8556 37.5223 42.92 37.9C42.92 37.9 42.5701 39.2 42.6901 39.2C44.6901 39.84 44.16 37.79 44.16 37.79C44.16 34.32 43.4501 32.67 42.6301 31.79C41.8101 30.91 40.7401 30.73 40.2101 30.15C40.4992 28.9669 40.3721 27.7203 39.8501 26.62C39.681 26.3195 39.4312 26.0723 39.129 25.9062C38.8269 25.7401 38.4843 25.6618 38.14 25.68C37.8244 25.6358 37.5034 25.7063 37.2355 25.8788C36.9675 26.0514 36.7704 26.3144 36.6801 26.62C36.6801 26.62 36.32 29.79 37.02 30.15C37.44 30.26 36.8401 30.44 36.6801 30.79L36.0901 32.67C35.2501 33.5 35.09 34.26 34.02 34.73L33.4901 34.91L30.89 35.67C29.83 36.49 30.3001 36.79 31.1901 37.14C31.9713 37.1038 32.7445 36.966 33.4901 36.73C33.7125 36.6766 33.9275 36.596 34.1301 36.49C35.2501 35.91 35.2501 36.02 36.2001 35.55V38.73C35.3201 39.97 34.2001 41.43 33.4901 42.49C33.3101 42.79 33.0701 43.01 32.9501 43.2C32.6601 43.84 31.7201 46.55 31.0701 48.14L29.0001 49.25C28.7101 49.6 28.71 50.19 29.54 50.02L32.01 49.72C32.37 49.6 34.0101 50.02 33.3101 48.48C33.3701 48.37 33.4301 48.19 33.4901 48.08C34.0201 46.72 34.7901 44.6 35.2501 44.2C36.3807 42.8705 37.6703 41.6849 39.0901 40.67C39.5777 42.3244 40.1483 43.9531 40.8 45.55C41.3159 46.2445 41.9328 46.8579 42.6301 47.37C43.1259 47.771 43.5967 48.2018 44.04 48.66L43.5801 49.08C43.1001 49.6 42.69 50.02 43.28 50.37C43.45 50.72 44.1601 50.37 44.6901 50.02L45.9901 49.25C46.1101 49.25 46.9401 48.78 45.9901 48.31Z" fill="#231916"/>
<path d="M34.14 48.73C34.1128 48.9894 34.0264 49.2391 33.8873 49.4597C33.7482 49.6803 33.5601 49.8659 33.3377 50.0023C33.1154 50.1386 32.8646 50.2219 32.6049 50.2458C32.3452 50.2697 32.0835 50.2335 31.84 50.14L31.07 54.61H35.9L35.3801 48.61" fill="#231916"/>
</g>
<defs>
<clipPath id="clip0_8063_6590">
<rect width="75.89" height="66.14" fill="white"/>
</clipPath>
</defs>
</svg>
