<svg width="73" height="42" viewBox="0 0 73 42" fill="none" xmlns="http://www.w3.org/2000/svg">
<g clip-path="url(#clip0_8063_9116)">
<path d="M56.6327 4.23768L48.1314 13.8377L60.0975 11.6091L59.134 8.9554C63.0977 6.89826 69.3849 5.80107 72.8018 5.65021L72.3439 2.80457C72.3439 2.80457 63.084 3.42169 57.8492 6.72683" fill="white"/>
<path d="M56.6327 4.23768L48.1314 13.8377L60.0975 11.6091L59.134 8.9554C63.0977 6.89826 69.3849 5.80107 72.8018 5.65021L72.3439 2.80457C72.3439 2.80457 63.084 3.42169 57.8492 6.72683L56.6327 4.23768Z" stroke="#231916" stroke-width="0.47"/>
<path d="M24.8003 25.536L14.4264 18.0823L17.8092 29.7394L20.3788 28.5052C22.839 32.1943 24.568 38.3452 25.1078 41.7669L27.8414 41.0057C27.8414 41.0057 26.2286 31.8103 22.4221 27.0034" fill="white"/>
<path d="M24.8003 25.536L14.4264 18.0823L17.8092 29.7394L20.3788 28.5052C22.839 32.1943 24.568 38.3452 25.1078 41.7669L27.8414 41.0057C27.8414 41.0057 26.2286 31.8103 22.4221 27.0034L24.8003 25.536Z" stroke="#231916" stroke-width="0.47"/>
<path d="M41.8304 0.164551H61.3619C54.5963 2.74284 47.7486 5.43088 41.8304 10.9235V7.66631C43.7989 6.09144 45.8522 4.62635 47.981 3.27772H41.8304M36.4112 0.164551H41.8304V3.27772H40.9079L36.4112 12.5417V4.62856L37.0946 3.25713L36.4112 3.29831V0.164551ZM41.8304 10.9235V7.66631C39.8385 9.23417 38.0216 11.0137 36.4112 12.9737V17.2732C37.9886 14.9701 39.8051 12.8416 41.8304 10.9235ZM31.2174 0.164551H36.4112V3.3189L31.2174 3.43542V0.164551ZM36.4112 17.3074C34.2848 20.4447 32.5411 23.8266 31.2174 27.3806V14.3863L36.4112 4.66288V12.5486L35.7278 14.0092C35.9278 13.6485 36.1564 13.3046 36.4112 12.9806V17.3074ZM26.2628 0.164551H31.2174V3.43542H31.1422L26.2628 12.9258V4.43662L27.1854 2.81835H26.2628V0.164551ZM31.2174 27.3463C30.6844 28.7177 30.1855 30.0892 29.7276 31.6183C29.0552 28.0447 27.889 24.5828 26.2628 21.3326V16.1829C27.1632 17.2498 27.8584 18.475 28.313 19.7966L31.231 14.3108L31.2174 27.3463ZM23.3447 0.164551H26.2628V2.81835H23.3447V0.164551ZM26.2628 21.3463C25.4113 19.6752 24.4359 18.0706 23.3447 16.5463V9.42856L26.2628 4.43662V12.9258L25.2992 14.7772C25.6887 15.3532 25.9826 15.8126 26.2628 16.1966V21.3463ZM15.9572 0.164551H23.3447V2.81835H22.4973L19.4972 8.16C21.2262 9.936 21.0348 9.73715 22.3469 11.1634L23.3447 9.42856V16.5463C21.2465 13.5986 18.7616 10.9484 15.9572 8.66742V5.08802C16.3877 5.47202 16.8046 5.81488 17.1531 6.12345L19.2033 2.81835H15.9709L15.9572 0.164551ZM0.0410004 0.164551H15.9572V2.81835H12.7726C13.9374 3.41737 15.0099 4.18177 15.9572 5.08802V8.66742C9.88184 3.62057 3.43063 1.00798 0.0410004 0.164551Z" fill="white"/>
<path d="M0.0410004 0.164551H61.3619C49.0608 4.85484 36.4863 9.89492 29.7276 31.6183C25.8049 10.5463 6.77242 1.89255 0.0410004 0.164551ZM17.1258 6.12345L19.176 2.81835H12.7589C14.5016 3.63435 16.0324 5.16345 17.1531 6.12345H17.1258ZM19.4698 8.18059C21.1988 9.94974 21.0075 9.75774 22.3196 11.184L27.158 2.83885H22.47L19.4698 8.18059ZM25.2718 14.7978C26.8847 17.3349 27.4655 17.4857 28.2719 19.8309L37.0809 3.29831L31.1149 3.45601L25.2718 14.7978ZM35.6936 14.0229C38.0376 10.2172 44.1471 5.6846 47.9947 3.29831H40.9147L35.6936 14.0229Z" stroke="#231916" stroke-width="0.47"/>
</g>
<defs>
<clipPath id="clip0_8063_9116">
<rect width="73" height="42" fill="white"/>
</clipPath>
</defs>
</svg>
