<svg width="58" height="68" viewBox="0 0 58 68" fill="none" xmlns="http://www.w3.org/2000/svg">
<g clip-path="url(#clip0_8063_7406)">
<path d="M0.23999 61.6899C0.245274 63.215 0.85412 64.676 1.93347 65.7535C3.01282 66.831 4.47489 67.4373 6 67.4399" stroke="#004A9C" stroke-width="0.47"/>
<path d="M6 67.4399H51.88" stroke="#004A9C" stroke-width="0.47"/>
<path d="M51.88 67.4399C53.3963 67.4268 54.846 66.8151 55.9136 65.7382C56.9811 64.6613 57.58 63.2063 57.58 61.6899" stroke="#004A9C" stroke-width="0.47"/>
<path d="M57.58 61.69V5.98999" stroke="#004A9C" stroke-width="0.47"/>
<path d="M57.58 5.97998C57.5853 4.46201 56.9881 3.00395 55.9194 1.9259C54.8508 0.847854 53.398 0.237919 51.88 0.22998" stroke="#004A9C" stroke-width="0.47"/>
<path d="M51.88 0.23999H6" stroke="#004A9C" stroke-width="0.47"/>
<path d="M6.00004 0.229998C5.24335 0.226032 4.49334 0.372006 3.79337 0.659442C3.0934 0.946877 2.45731 1.37008 1.92179 1.90468C1.38626 2.43928 0.961905 3.07465 0.673253 3.77413C0.384601 4.4736 0.237374 5.22331 0.240025 5.98" stroke="#004A9C" stroke-width="0.47"/>
<path d="M0.23999 5.97998V61.69" stroke="#004A9C" stroke-width="0.47"/>
<path d="M1.68994 60.29C1.70315 61.7328 2.287 63.1118 3.31384 64.1255C4.34069 65.1393 5.72712 65.7053 7.17004 65.7H50.71C52.1441 65.6947 53.5182 65.1234 54.5332 64.1102C55.5482 63.0971 56.1221 61.7241 56.13 60.29V7.36997C56.1195 5.93759 55.5444 4.56719 54.5297 3.55619C53.5149 2.54519 52.1424 1.97524 50.71 1.97001H7.17004C5.72884 1.96464 4.34394 2.5293 3.31738 3.54087C2.29082 4.55244 1.70577 5.92884 1.68994 7.36997" fill="#004A9C"/>
<path d="M14.12 48.92H16.25V43.69C16.236 43.4302 16.2913 43.1714 16.41 42.94C16.4598 42.8814 16.5208 42.8335 16.5896 42.7991C16.6583 42.7648 16.7332 42.7446 16.8099 42.74C16.9599 42.74 17.05 42.81 17.17 43.01C17.2503 43.1023 17.3097 43.2108 17.3442 43.3282C17.3787 43.4455 17.3875 43.5689 17.37 43.69V57.39C17.3953 57.86 17.3096 58.3293 17.12 58.76C17.0644 58.8893 16.9702 58.9981 16.8502 59.0715C16.7302 59.145 16.5903 59.1793 16.4499 59.17H14.12V57.6H15.8399C15.9899 57.6 16.1 57.6 16.15 57.53C16.2377 57.3863 16.273 57.2167 16.25 57.05V50.5H14.12M19.86 59.65V43.12C19.847 42.8614 19.8985 42.6037 20.01 42.37C20.0533 42.3081 20.1109 42.2576 20.178 42.2227C20.245 42.1878 20.3194 42.1696 20.395 42.1696C20.4706 42.1696 20.545 42.1878 20.612 42.2227C20.6791 42.2576 20.7367 42.3081 20.78 42.37C20.8915 42.6037 20.943 42.8614 20.93 43.12V59.58C20.942 59.8611 20.8907 60.1414 20.78 60.4C20.7356 60.4723 20.6758 60.5339 20.605 60.5805C20.5341 60.6272 20.4539 60.6577 20.37 60.67C20.22 60.67 20.12 60.6 20.01 60.4C19.8918 60.1686 19.8399 59.9091 19.86 59.65ZM11.98 48.92H14.12V50.5H11.98V56.78C11.9631 56.9942 12.0158 57.2081 12.13 57.39C12.162 57.4571 12.2134 57.5131 12.2776 57.5505C12.3418 57.588 12.4158 57.6052 12.49 57.6H14.12V59.17H11.88C11.7274 59.1815 11.5746 59.149 11.4399 59.0764C11.3052 59.0037 11.1942 58.8939 11.12 58.76C10.948 58.3741 10.8758 57.9512 10.91 57.53V43.53C10.8878 43.2901 10.9401 43.0491 11.0599 42.84C11.1599 42.71 11.27 42.57 11.42 42.57C11.5061 42.5698 11.5902 42.5955 11.6615 42.6436C11.7328 42.6917 11.7879 42.7602 11.8199 42.84C11.9398 43.0236 11.996 43.2414 11.98 43.46V48.92Z" fill="white"/>
<path d="M29.75 54.25C29.8076 54.2523 29.8629 54.273 29.9079 54.309C29.9528 54.3449 29.9851 54.3944 30 54.45C30.1105 54.6116 30.1666 54.8043 30.1601 55V58.28H34.7801C34.8611 58.2737 34.9423 58.29 35.0147 58.3271C35.0871 58.3642 35.1477 58.4205 35.19 58.49C35.2939 58.6509 35.3495 58.8384 35.35 59.03C35.358 59.2259 35.3018 59.419 35.19 59.58C35.1734 59.6594 35.129 59.7302 35.0649 59.7797C35.0007 59.8292 34.9209 59.8541 34.84 59.85H29.75M29.75 53.16V51.59H32.95C33.0164 51.5929 33.0827 51.5819 33.1447 51.5578C33.2067 51.5337 33.2629 51.497 33.31 51.45C33.46 51.31 33.5201 51.11 33.5201 50.7V47.9H29.75V46.33H33.5201V43.87C33.5005 43.6334 33.5528 43.3964 33.6701 43.19C33.7701 43.05 33.8701 42.91 34.0201 42.91C34.1044 42.9247 34.1847 42.9573 34.2554 43.0056C34.3261 43.0539 34.3857 43.1168 34.4301 43.19C34.5346 43.4011 34.586 43.6345 34.58 43.87V51.45C34.6163 51.893 34.5479 52.3384 34.38 52.75C34.3222 52.8775 34.2274 52.9848 34.1079 53.0579C33.9885 53.131 33.8499 53.1665 33.71 53.16H29.75ZM24.51 58.28H29.12V55C29.1163 54.8074 29.1647 54.6174 29.26 54.45C29.3008 54.3891 29.3557 54.339 29.4202 54.3041C29.4847 54.2693 29.5567 54.2507 29.63 54.25H29.7801V59.85H24.5401C24.4524 59.8583 24.3646 59.8359 24.2917 59.7867C24.2187 59.7374 24.1651 59.6644 24.14 59.58C24.018 59.4241 23.9606 59.2271 23.98 59.03C23.972 58.8373 24.0283 58.6473 24.14 58.49C24.1844 58.4248 24.244 58.3716 24.3138 58.335C24.3835 58.2984 24.4613 58.2795 24.5401 58.28M29.7801 46.28V47.85H25.96V50.72C25.9533 50.9112 26.0057 51.0997 26.11 51.26C26.21 51.4 26.37 51.54 26.47 51.54H29.7801V53.11H26.01C25.3 53.11 24.89 52.63 24.89 51.61V43.82C24.8782 43.5828 24.9337 43.3471 25.0501 43.14C25.0924 43.0671 25.1501 43.0042 25.2192 42.9559C25.2882 42.9075 25.367 42.8748 25.45 42.86C25.61 42.86 25.7 43 25.81 43.14C25.9398 43.3414 25.9931 43.5827 25.96 43.82V46.28H29.7801Z" fill="white"/>
<path d="M43.0201 48.2399C44.2075 48.1589 45.3884 48.4718 46.38 49.1299C46.8334 49.4824 47.1948 49.9393 47.4334 50.4617C47.6719 50.9841 47.7806 51.5565 47.75 52.1299C47.7657 52.6665 47.6648 53.2001 47.4541 53.6939C47.2435 54.1877 46.9282 54.6299 46.5301 54.9899C45.7266 55.6814 44.6889 56.0392 43.63 55.9899V58.2399H48.26C48.3342 58.2347 48.4082 58.252 48.4724 58.2894C48.5367 58.3269 48.5881 58.3828 48.62 58.45C48.7244 58.6102 48.7768 58.7988 48.7701 58.9899C48.7745 59.1839 48.7223 59.375 48.62 59.5399C48.62 59.7399 48.46 59.8099 48.32 59.8099H43.0201V54.4099H43.1801C44.0095 54.4335 44.8313 54.2478 45.57 53.8699C45.9072 53.714 46.1924 53.4641 46.391 53.1501C46.5897 52.8361 46.6935 52.4714 46.69 52.0999C46.6908 51.7045 46.5744 51.3177 46.3555 50.9885C46.1366 50.6592 45.8249 50.4022 45.46 50.2499C44.7001 49.887 43.8608 49.7219 43.0201 49.77M43.0201 46.9V45.33H47.5401C47.6204 45.3287 47.6998 45.3471 47.7713 45.3837C47.8428 45.4203 47.9041 45.474 47.95 45.5399C48.0174 45.7123 48.0546 45.895 48.06 46.08C48.0546 46.2682 48.0174 46.4541 47.95 46.6299C47.9162 46.7106 47.8592 46.7794 47.7862 46.8275C47.7131 46.8755 47.6275 46.9008 47.5401 46.9H43.0201ZM43.0201 43.6199V42.09H44.8001C44.8724 42.088 44.9437 42.1068 45.0057 42.144C45.0676 42.1812 45.1177 42.2353 45.1501 42.2999C45.2248 42.4704 45.2656 42.6539 45.2701 42.84C45.2677 43.0295 45.2269 43.2166 45.1501 43.39C45.1267 43.4754 45.0736 43.5496 45.0002 43.5991C44.9268 43.6487 44.838 43.6702 44.75 43.6599L43.0201 43.6199ZM42.51 55.9899C41.6094 55.9265 40.7377 55.6451 39.97 55.1699C39.4558 54.8467 39.0379 54.3912 38.7599 53.8511C38.482 53.3111 38.3542 52.7062 38.39 52.0999C38.3526 51.518 38.4535 50.9354 38.6847 50.4C38.9159 49.8646 39.2707 49.3917 39.72 49.02C40.7092 48.413 41.8618 48.1266 43.0201 48.2V49.77H42.97C42.1627 49.7386 41.3598 49.9032 40.63 50.2499C40.2741 50.3727 39.9653 50.6033 39.7466 50.9099C39.5279 51.2164 39.4103 51.5834 39.4101 51.96C39.3902 52.3835 39.5015 52.8028 39.7288 53.1608C39.9561 53.5187 40.2883 53.7978 40.6801 53.96C41.4183 54.2797 42.2157 54.4399 43.0201 54.4299V59.83H37.89C37.8029 59.8295 37.7177 59.8037 37.6449 59.7558C37.5722 59.7079 37.5149 59.6398 37.48 59.5599C37.4095 59.3853 37.3755 59.1982 37.38 59.0099C37.3824 58.8256 37.4162 58.643 37.48 58.47C37.5271 58.4053 37.5887 58.3525 37.6599 58.316C37.7312 58.2796 37.81 58.2603 37.89 58.2599H42.51V55.9899ZM43.0201 42.0499V43.6899H41.2901C41.2037 43.6915 41.119 43.6664 41.0474 43.6181C40.9758 43.5698 40.9209 43.5006 40.89 43.4199C40.8206 43.245 40.7866 43.0581 40.7901 42.8699C40.7754 42.6843 40.8099 42.498 40.89 42.33C40.925 42.2674 40.9756 42.2151 41.037 42.1783C41.0984 42.1414 41.1684 42.1213 41.24 42.1199L43.0201 42.0499ZM43.0201 45.33V46.9H38.5C38.34 46.9 38.24 46.8299 38.14 46.6299C38.0377 46.465 37.9856 46.274 37.99 46.08C37.9833 45.8888 38.0357 45.7002 38.14 45.5399C38.1648 45.4799 38.2062 45.4283 38.2593 45.3911C38.3125 45.3539 38.3751 45.3327 38.44 45.33H43.0201Z" fill="white"/>
<path d="M34.98 36.4999H42.3199V21.5899C42.3199 16.7699 39.85 11.9799 33.76 11.9799H26.38C25.79 11.9799 25.3 11.7199 25.97 11.1299C26.64 10.5399 27.3599 8.75991 26.5599 7.98991C25.7599 7.21991 25.38 7.2699 23.99 8.1699L13.3099 16.0299C12.5899 16.5199 12.91 16.5199 13.41 16.7899L24.22 23.4799C24.8 23.7499 25.48 24.4799 26.28 23.3899C27.08 22.2999 26.28 21.2299 25.48 20.3899C24.68 19.5499 24.4799 19.1299 25.8399 19.2199H31.1999C32.7799 19.1299 34.98 20.2899 34.98 24.4299V36.4299" fill="white"/>
</g>
<defs>
<clipPath id="clip0_8063_7406">
<rect width="57.82" height="67.68" fill="white"/>
</clipPath>
</defs>
</svg>
