<svg width="57" height="69" viewBox="0 0 57 69" fill="none" xmlns="http://www.w3.org/2000/svg">
<g clip-path="url(#clip0_8063_8872)">
<path d="M0.147614 0V69" stroke="#231916" stroke-width="0.43"/>
<path d="M56.8524 0V69" stroke="#231916" stroke-width="0.43"/>
<path d="M5.98517 0.00671387H3.70383V69H5.98517V0.00671387Z" fill="#F8B500"/>
<path d="M6.04556 0V69" stroke="#231916" stroke-width="0.43"/>
<path d="M3.68369 0V69" stroke="#231916" stroke-width="0.43"/>
<path d="M10.5546 0.00671387H8.27322V69H10.5546V0.00671387Z" fill="#F8B500"/>
<path d="M10.5814 0V69" stroke="#231916" stroke-width="0.43"/>
<path d="M8.27322 0V69" stroke="#231916" stroke-width="0.43"/>
<path d="M48.2571 0.00671387H45.9757V69H48.2571V0.00671387Z" fill="#F8B500"/>
<path d="M48.3175 0V69" stroke="#231916" stroke-width="0.43"/>
<path d="M45.9556 0V69" stroke="#231916" stroke-width="0.43"/>
<path d="M52.8265 0.00671387H50.5451V69H52.8265V0.00671387Z" fill="#F8B500"/>
<path d="M52.8533 0V69" stroke="#231916" stroke-width="0.43"/>
<path d="M50.5451 0V69" stroke="#231916" stroke-width="0.43"/>
<path d="M27.5506 3.33374V6.45371" stroke="#231916" stroke-width="0.43"/>
<path d="M27.5506 9.84766V12.9676" stroke="#231916" stroke-width="0.43"/>
<path d="M27.5506 16.3615V19.4881" stroke="#231916" stroke-width="0.43"/>
<path d="M27.5506 22.882V25.9685" stroke="#231916" stroke-width="0.43"/>
<path d="M27.5506 29.3691V32.4891" stroke="#231916" stroke-width="0.43"/>
<path d="M27.5506 35.8829V39.0029" stroke="#231916" stroke-width="0.43"/>
<path d="M27.5506 42.4034V45.5234" stroke="#231916" stroke-width="0.43"/>
<path d="M27.5506 48.924V52.0439" stroke="#231916" stroke-width="0.43"/>
<path d="M27.5506 55.4044V58.5244" stroke="#231916" stroke-width="0.43"/>
<path d="M27.5506 61.9183V65.045" stroke="#231916" stroke-width="0.43"/>
<path d="M29.7044 3.33374V6.45371" stroke="#231916" stroke-width="0.43"/>
<path d="M29.7044 9.84766V12.9676" stroke="#231916" stroke-width="0.43"/>
<path d="M29.7044 16.3615V19.4881" stroke="#231916" stroke-width="0.43"/>
<path d="M29.7044 22.882V25.9685" stroke="#231916" stroke-width="0.43"/>
<path d="M29.7044 29.3691V32.4891" stroke="#231916" stroke-width="0.43"/>
<path d="M29.7044 35.8829V39.0029" stroke="#231916" stroke-width="0.43"/>
<path d="M29.7044 42.4034V45.5234" stroke="#231916" stroke-width="0.43"/>
<path d="M29.7044 48.924V52.0439" stroke="#231916" stroke-width="0.43"/>
<path d="M29.7044 55.4044V58.5244" stroke="#231916" stroke-width="0.43"/>
<path d="M29.7044 61.9183V65.045" stroke="#231916" stroke-width="0.43"/>
<path d="M38.4608 3.2937V9.53363" stroke="#231916" stroke-width="0.43"/>
<path d="M38.4608 14.5042V20.7441" stroke="#231916" stroke-width="0.43"/>
<path d="M38.4608 25.7213V31.9212" stroke="#231916" stroke-width="0.43"/>
<path d="M38.4608 36.9052V43.1384" stroke="#231916" stroke-width="0.43"/>
<path d="M38.4608 48.1156V54.3221" stroke="#231916" stroke-width="0.43"/>
<path d="M38.4608 59.2927V65.5327" stroke="#231916" stroke-width="0.43"/>
<path d="M18.1165 3.2937V9.53363" stroke="#231916" stroke-width="0.43"/>
<path d="M18.1165 14.5042V20.7441" stroke="#231916" stroke-width="0.43"/>
<path d="M18.1165 25.7213V31.9212" stroke="#231916" stroke-width="0.43"/>
<path d="M18.1165 36.9052V43.1384" stroke="#231916" stroke-width="0.43"/>
<path d="M18.1165 48.1156V54.3221" stroke="#231916" stroke-width="0.43"/>
<path d="M18.1165 59.2927V65.5327" stroke="#231916" stroke-width="0.43"/>
</g>
<defs>
<clipPath id="clip0_8063_8872">
<rect width="57" height="69" fill="white"/>
</clipPath>
</defs>
</svg>
