<svg width="76" height="67" viewBox="0 0 76 67" fill="none" xmlns="http://www.w3.org/2000/svg">
<g clip-path="url(#clip0_8063_6534)">
<path d="M74.6701 59.78L41.41 2.57999C39.64 -0.54001 36.33 -0.54001 34.51 2.57999L1.06007 59.9C-0.87993 63.19 0.770105 65.77 4.7201 65.77H71.01C75.2 65.77 76.6801 63.31 74.6701 59.77" fill="white"/>
<path d="M74.6701 59.78L41.41 2.57999C39.64 -0.54001 36.33 -0.54001 34.51 2.57999L1.06007 59.9C-0.87993 63.19 0.770105 65.77 4.7201 65.77H71.01C75.17 65.77 76.6801 63.31 74.6701 59.78Z" stroke="#D20D18" stroke-width="0.49"/>
<path d="M73.17 60.43L40.17 3.64002C38.99 1.64002 36.8701 1.70001 35.6801 3.70001L2.54004 60.55C1.36004 62.55 2.54003 64.19 4.90003 64.19H70.54C73.13 64.19 74.25 62.43 73.13 60.43" fill="#D20D18"/>
<path d="M37.8 12.93L11.86 57.73H64.23" fill="#F8B500"/>
<path d="M37.8 12.93L11.86 57.73H64.23L37.8 12.93Z" stroke="#D20D18" stroke-width="0.56"/>
<path d="M23.01 46.32V50.43H53.0901V46.32H51.02C50.9725 45.101 50.6908 43.9025 50.19 42.79C49.7027 41.8326 48.946 41.0385 48.0133 40.5055C47.0805 39.9725 46.0123 39.7238 44.94 39.79C43.8973 39.6993 42.8493 39.891 41.9062 40.3449C40.9631 40.7989 40.1596 41.4984 39.58 42.37C38.9004 43.5939 38.4401 44.9274 38.2201 46.31H38.05C37.833 44.9427 37.4152 43.6151 36.81 42.37C36.1 41.19 34.92 39.79 31.5 39.79C28.08 39.79 26.61 41.31 25.89 42.9C25.455 43.9837 25.2375 45.1423 25.25 46.31" fill="#231916"/>
</g>
<defs>
<clipPath id="clip0_8063_6534">
<rect width="75.8" height="66.02" fill="white"/>
</clipPath>
</defs>
</svg>
