<svg width="77" height="67" viewBox="0 0 77 67" fill="none" xmlns="http://www.w3.org/2000/svg">
<g clip-path="url(#clip0_8063_7004)">
<path d="M75.25 6.23999L41.75 63.91C39.92 67.09 36.62 67.09 34.85 63.91L1.04997 6.17999C-0.890029 2.82999 0.770005 0.23999 4.71001 0.23999H71.5301C75.8301 0.23999 77.25 2.76999 75.25 6.23999Z" fill="white"/>
<path d="M75.25 6.23999L41.75 63.91C39.92 67.09 36.62 67.09 34.85 63.91L1.04997 6.17999C-0.890029 2.82999 0.770005 0.23999 4.71001 0.23999H71.5301C75.8301 0.23999 77.25 2.76999 75.25 6.23999Z" stroke="#D20D18" stroke-width="0.49"/>
<path d="M73.71 5.65997L40.51 62.91C39.38 64.97 37.21 64.97 35.97 62.85L2.58998 5.53998C1.40998 3.47998 2.65002 1.82996 5.01002 1.82996H71.1799C73.8299 1.82996 74.89 3.64997 73.71 5.65997Z" fill="#D20D18"/>
<path d="M37.8 52.68L11.97 8.41H63.75" fill="white"/>
<path d="M26.71 25.52H27.71L29.31 27.99L30.9 25.52H31.85L29.66 28.7V31.05H28.89V28.7" fill="#231916"/>
<path d="M33.32 25.53H32.55V31.05H33.32V25.53Z" fill="#231916"/>
<path d="M34.62 25.52V31.05H38.8V30.34H35.44V28.52H38.51V27.82H35.44V26.23H38.75V25.52" fill="#231916"/>
<path d="M39.75 25.52V31.05H43.17V30.34H40.52V25.52" fill="#231916"/>
<path d="M44.05 25.52V31.05H46.47C46.8267 31.0265 47.1725 30.918 47.4787 30.7336C47.7848 30.5492 48.0425 30.2943 48.23 29.99C48.4736 29.4989 48.6054 28.9599 48.6158 28.4117C48.6261 27.8636 48.5149 27.32 48.2901 26.82C48.1673 26.4798 47.9546 26.1792 47.6746 25.9503C47.3946 25.7214 47.0578 25.5726 46.7 25.52" fill="#231916"/>
<path d="M44.76 26.23V30.36H46.35C46.6027 30.3427 46.8473 30.2645 47.0633 30.1322C47.2792 29.9999 47.4599 29.8173 47.59 29.6C47.8797 28.8228 47.8797 27.9672 47.59 27.19C47.35 26.72 47.23 26.37 46.59 26.25" fill="white"/>
<path d="M31.36 21.47V18.76C31.5937 18.8854 31.7894 19.0713 31.9266 19.2982C32.0638 19.5251 32.1376 19.7848 32.1401 20.05C32.1482 20.3347 32.0802 20.6164 31.9431 20.866C31.8059 21.1156 31.6047 21.3241 31.36 21.47ZM31.36 18.23V11.95C31.6051 11.9352 31.8505 11.9726 32.08 12.06C32.14 12.06 32.14 12.17 32.08 12.35L32.0201 12.53C32.0201 12.59 31.96 12.6499 31.96 12.7699V13.53H33.19V14.82H31.98V15.88H33.21V17.17H31.98V18.23H31.36ZM28.72 13C29.1306 13.4957 29.341 14.127 29.31 14.7699C29.3496 15.411 29.138 16.0423 28.72 16.53C28.4807 16.7918 28.186 16.9968 27.8572 17.1301C27.5285 17.2633 27.1741 17.3213 26.82 17.3V16.06C26.9761 16.0706 27.1325 16.0445 27.2767 15.9837C27.4208 15.9229 27.5488 15.8291 27.6501 15.71C27.8539 15.4398 27.9597 15.1083 27.95 14.7699C27.9613 14.4314 27.8554 14.0994 27.6501 13.8299C27.5498 13.7089 27.4223 13.6133 27.2781 13.5508C27.1339 13.4882 26.9769 13.4605 26.82 13.47V12.17C27.1787 12.1568 27.5358 12.2245 27.8647 12.3682C28.1936 12.5119 28.486 12.7278 28.72 13ZM31.36 12V18.28H30.61V12H31.36ZM31.36 18.81L31.2501 18.75C30.4256 18.2843 29.4858 18.0624 28.5401 18.11C27.9582 18.0953 27.3776 18.1729 26.82 18.34V19.5199H26.8801C27.4265 19.302 28.0121 19.1998 28.6 19.22C29.146 19.1973 29.6898 19.2999 30.19 19.5199C30.3373 19.5519 30.4693 19.6334 30.5639 19.7507C30.6585 19.8681 30.7101 20.0142 30.7101 20.165C30.7101 20.3157 30.6585 20.4619 30.5639 20.5793C30.4693 20.6966 30.3373 20.778 30.19 20.81C29.6744 21.0479 29.1059 21.1478 28.5401 21.1C27.9713 21.1424 27.4008 21.0428 26.8801 20.81H26.82V22.05C27.3859 22.1664 27.9624 22.2234 28.5401 22.22C29.4855 22.2643 30.4244 22.0425 31.2501 21.5799L31.36 21.5199V18.81ZM26.82 17.35C26.4743 17.3713 26.128 17.319 25.8039 17.1966C25.4798 17.0742 25.1854 16.8845 24.94 16.64C24.5218 16.1289 24.3112 15.4792 24.35 14.82C24.319 14.1771 24.5294 13.5457 24.94 13.05C25.1714 12.78 25.4605 12.5653 25.7858 12.4216C26.1112 12.278 26.4645 12.2091 26.82 12.22V13.5199C26.6664 13.5137 26.5135 13.5429 26.373 13.6053C26.2325 13.6678 26.1083 13.7618 26.0101 13.88C25.8206 14.1547 25.7355 14.4881 25.7701 14.82C25.7372 15.1518 25.8222 15.4846 26.0101 15.76C26.1093 15.8764 26.2339 15.9685 26.3743 16.0292C26.5148 16.0898 26.6672 16.1175 26.82 16.11V17.35ZM26.82 18.35V19.53C26.6965 19.5848 26.5919 19.6747 26.519 19.7884C26.4461 19.9022 26.4083 20.0349 26.4101 20.17C26.4124 20.3055 26.4517 20.4377 26.524 20.5524C26.5963 20.667 26.6987 20.7596 26.82 20.82V22.06C26.4732 21.9337 26.1385 21.7764 25.82 21.59C25.5555 21.4431 25.3347 21.2288 25.1801 20.9688C25.0255 20.7088 24.9427 20.4125 24.94 20.11C24.9551 19.8275 25.0445 19.5539 25.199 19.3169C25.3535 19.0799 25.5676 18.8879 25.82 18.76C26.1281 18.5685 26.4661 18.4299 26.82 18.35Z" fill="#231916"/>
<path d="M49.83 12.65C49.89 12.65 49.89 12.71 49.89 12.88L49.83 13V17.76H46.98V17.82L46.92 17.94L46.86 18.11V19.47H50.86V20.82H46.32V16.52H48.5V15.23H46.32V14H48.5V12.53H49.32C49.5276 12.5063 49.7374 12.5483 49.92 12.65M46.32 20.82H41.7801V19.47H45.5V17.76H42.7801V12.53H43.61C43.8045 12.5364 43.9983 12.5565 44.19 12.59C44.26 12.65 44.26 12.71 44.19 12.83V12.94V14H46.37V15.23H44.19V16.52H46.37L46.32 20.82Z" fill="#231916"/>
</g>
<defs>
<clipPath id="clip0_8063_7004">
<rect width="76.39" height="66.54" fill="white"/>
</clipPath>
</defs>
</svg>
