<svg width="43" height="77" viewBox="0 0 43 77" fill="none" xmlns="http://www.w3.org/2000/svg">
<g clip-path="url(#clip0_8063_9596)">
<path d="M16.9113 0.582886L7.07178 17.3965L16.9113 32.7328V21.8897C20.8842 22.0455 24.195 26.2676 24.195 30.2931V49.2212H27.5057V28.382C27.5057 18.9755 21.6523 15.1127 17.0835 12.5239" fill="white"/>
<path d="M16.9113 0.582886L7.07178 17.3965L16.9113 32.7328V21.8897C20.8842 22.0455 24.195 26.2676 24.195 30.2931V49.2212H27.5057V28.382C27.5057 18.9755 21.6523 15.1127 17.0835 12.5239L16.9113 0.582886Z" stroke="#231916" stroke-width="0.49"/>
<path d="M3.98616 63.7238H5.231V58.3022H7.8796V75.9901H4.01267V73.6453H5.33697V66.1161H4.01267M0.192053 58.3022H2.80088V63.7238H4.01267V66.1161H2.72806V73.6453H4.01267V75.9901H0.185425L0.192053 58.3022Z" fill="white"/>
<path d="M0.185425 58.3022H2.79426V63.7238H5.25089V58.3022H7.89948V75.9901H0.185425V58.3022ZM2.72143 73.6453H5.33034V66.1161H2.72143V73.6453Z" stroke="#231916" stroke-width="0.49"/>
<path d="M13.1635 57.5162H10.4686V76.6341H13.1635V57.5162Z" fill="white"/>
<path d="M13.1635 57.5162H10.4686V76.6341H13.1635V57.5162Z" stroke="#231916" stroke-width="0.49"/>
<path d="M21.3742 60.9725H24.6849V57.584H27.3335V69.464H21.3742V67.1124H24.7312V63.3647H21.3742M15.481 57.584H18.0634V60.9725H21.3742V63.3647H17.984V67.1124H21.3742V69.464H15.481V57.584Z" fill="white"/>
<path d="M15.4678 57.584H18.0634V60.9725H24.6849V57.584H27.3335V69.464H15.5406L15.4678 57.584ZM17.9707 67.1124H24.7181V63.3647H17.9707V67.1124Z" stroke="#231916" stroke-width="0.49"/>
<path d="M19.9572 70.8601H22.9633V74.2418H27.7308V76.8306H14.9579V74.3231H19.9572" fill="white"/>
<path d="M19.9572 70.8601H22.9633V74.2418H27.7308V76.8306H14.9579V74.3231H19.9572V70.8601Z" stroke="#231916" stroke-width="0.49"/>
<path d="M34.604 71.3345H37.6101V74.2418H42.7616V76.8306H30.0285V74.3231H34.604" fill="white"/>
<path d="M34.604 71.3345H37.6101V74.2418H42.7616V76.8306H30.0285V74.3231H34.604V71.3345Z" stroke="#231916" stroke-width="0.49"/>
<path d="M34.445 57.1909H37.4512V58.8648H42.7616V61.4604H30.0285V58.9462H34.445" fill="white"/>
<path d="M34.445 57.1909H37.4512V58.8648H42.7616V61.4604H30.0285V58.9462H34.445V57.1909Z" stroke="#231916" stroke-width="0.49"/>
<path d="M36.5176 62.8497H39.8746C41.3578 62.8497 42.8411 64.6795 42.8411 66.4347C42.8343 67.3679 42.4708 68.2613 41.8286 68.9237C41.1863 69.5861 40.3162 69.9649 39.4045 69.979H36.5176V67.6274H38.8946C40.0667 67.6274 40.0666 65.3572 39.0536 65.3572H36.5176M33.7034 62.8497H36.5176V65.3572H34.7232C32.9618 65.3572 32.7367 67.6274 34.4516 67.6274H36.5176V70.013H33.3922C32.4882 70.0148 31.6201 69.6513 30.9766 69.0015C30.333 68.3518 29.9661 67.4683 29.9556 66.5432C29.956 66.0477 30.0546 65.5574 30.2452 65.102C30.4359 64.6465 30.7148 64.2354 31.0651 63.8933C31.4154 63.5513 31.8298 63.2854 32.2833 63.1119C32.7367 62.9383 33.2198 62.8607 33.7034 62.8836" fill="white"/>
<path d="M33.7034 62.8497H39.8746C41.3578 62.8497 42.8411 64.6795 42.8411 66.4347C42.8343 67.3679 42.4708 68.2613 41.8286 68.9237C41.1863 69.5861 40.3162 69.9649 39.4045 69.9791H33.3922C32.4882 69.9809 31.6201 69.6175 30.9766 68.9677C30.333 68.318 29.9661 67.4344 29.9556 66.5092C29.956 66.0138 30.0546 65.5235 30.2452 65.0681C30.4359 64.6126 30.7148 64.2015 31.0651 63.8594C31.4154 63.5174 31.8298 63.2515 32.2833 63.078C32.7367 62.9044 33.2198 62.8268 33.7034 62.8497ZM34.4516 67.5936H38.8946C40.0667 67.5936 40.0666 65.3233 39.0536 65.3233H34.7232C32.9618 65.3572 32.7301 67.6275 34.4516 67.6275V67.5936Z" stroke="#231916" stroke-width="0.49"/>
</g>
<defs>
<clipPath id="clip0_8063_9596">
<rect width="43" height="77" fill="white"/>
</clipPath>
</defs>
</svg>
