<svg width="77" height="30" viewBox="0 0 77 30" fill="none" xmlns="http://www.w3.org/2000/svg">
<g clip-path="url(#clip0_8072_552)">
<path d="M5.79003 28.8801C5.04719 28.8841 4.31099 28.7402 3.62426 28.457C2.93753 28.1737 2.314 27.7566 1.79003 27.23C1.27819 26.7127 0.874245 26.099 0.601312 25.4244C0.32838 24.7498 0.19204 24.0277 0.200189 23.3" stroke="#231F20" stroke-width="0.49"/>
<path d="M0.240002 23.2901V5.83008" stroke="#231F20" stroke-width="0.49"/>
<path d="M0.239984 5.79006C0.231835 5.06238 0.368174 4.34034 0.641107 3.66573C0.91404 2.99112 1.31823 2.37737 1.83007 1.86007C2.35404 1.33348 2.97757 0.916414 3.6643 0.633139C4.35103 0.349864 5.08722 0.206018 5.83007 0.210043" stroke="#231F20" stroke-width="0.49"/>
<path d="M5.79 0.23999H70.48" stroke="#231F20" stroke-width="0.49"/>
<path d="M70.4801 0.25C71.9563 0.254946 73.3718 0.837389 74.424 1.87274C75.4761 2.90809 76.0813 4.31411 76.11 5.78998" stroke="#231F20" stroke-width="0.49"/>
<path d="M76.09 5.83008V23.2901" stroke="#231F20" stroke-width="0.49"/>
<path d="M76.11 23.3C76.1051 24.0321 75.9561 24.7559 75.6713 25.4302C75.3864 26.1046 74.9715 26.7162 74.4501 27.23C73.9306 27.7626 73.3078 28.1836 72.62 28.4673C71.9322 28.7511 71.194 28.8915 70.4501 28.8801" stroke="#231F20" stroke-width="0.49"/>
<path d="M70.48 28.8701H5.79" stroke="#231F20" stroke-width="0.49"/>
<path d="M5.78997 26.79C4.87231 26.769 3.9997 26.3883 3.36004 25.73C3.02152 25.4172 2.75291 25.0363 2.57195 24.6123C2.39099 24.1883 2.30173 23.7309 2.30999 23.27" stroke="#231F20" stroke-width="0.49"/>
<path d="M2.31 23.2901V5.83008" stroke="#231F20" stroke-width="0.49"/>
<path d="M2.30986 5.79004C2.3027 5.32784 2.39244 4.86926 2.57329 4.44385C2.75413 4.01843 3.02212 3.63563 3.35991 3.32007C4.00929 2.68378 4.88071 2.32515 5.78984 2.32007" stroke="#231F20" stroke-width="0.49"/>
<path d="M5.79 2.36011H70.48" stroke="#231F20" stroke-width="0.49"/>
<path d="M70.4801 2.35992C71.4085 2.35455 72.3015 2.71617 72.9645 3.36609C73.6275 4.016 74.0067 4.90155 74.0199 5.82989" stroke="#231F20" stroke-width="0.49"/>
<path d="M74.02 5.83008V23.2901" stroke="#231F20" stroke-width="0.49"/>
<path d="M74.0199 23.3C74.0139 23.7597 73.9174 24.2136 73.7355 24.6358C73.5536 25.058 73.2901 25.44 72.9601 25.76C72.3057 26.4267 71.4143 26.8078 70.4801 26.8201" stroke="#231F20" stroke-width="0.49"/>
<path d="M70.48 26.8201H5.79" stroke="#231F20" stroke-width="0.49"/>
<path d="M22.2499 13.0801C21.906 14.0886 21.3464 15.01 20.61 15.7801C19.7237 16.6839 18.6754 17.4132 17.5199 17.9301L16.6901 16.6701C17.6465 16.2456 18.5252 15.6643 19.2899 14.9501C19.9224 14.3502 20.4114 13.6153 20.7201 12.8001C21.0302 11.9275 21.1792 11.0059 21.16 10.0801V9.7901H22.7301C22.7448 10.9052 22.5826 12.0156 22.2499 13.0801ZM21.89 11.0801H17.2899V9.7901H21.89V11.0801ZM26.09 19.9001H24.4999V8.61011H26.11L26.09 19.9001Z" fill="#231F20"/>
<path d="M33.34 10.7901H29.61V16.4001H28.0199V9.51007H33.34V10.7901ZM31.6701 15.9401C32.4401 15.8901 33.2299 15.8101 34.0399 15.6801L34.1801 16.9501C33.3901 17.0701 32.6 17.1501 31.82 17.1901C31.04 17.2301 30.0801 17.2601 28.9701 17.2701H27.9701V16.0101H28.9701C30.0001 16.0501 30.9001 16.0301 31.6701 15.9801V15.9401ZM33.1701 13.8901H29.2301V12.6901H33.1701V13.8901ZM36.4401 19.8201H34.86V8.61011H36.4401V19.8201ZM38.1 14.1601H36.1V12.8901H38.1V14.1601Z" fill="#231F20"/>
<path d="M48.7699 18.61H38.4999V17.35H48.7699V18.61ZM47.91 10.79H39.2999V9.52002H47.91V10.79ZM47.86 15.22H39.35V13.95H47.86V15.22ZM42.4301 14.14H40.85V10.5601H42.4301V14.14ZM42.63 17.77H41.0499V14.72H42.63V17.77ZM46.1701 17.77H44.59V14.71H46.1701V17.77ZM46.33 14.1201H44.7799V10.54H46.33V14.1201Z" fill="#231F20"/>
<path d="M53.11 14.2101C52.8738 14.9802 52.5011 15.7016 52.0099 16.3401C51.5514 16.9429 50.9546 17.4265 50.2699 17.7501L49.37 16.5101C49.9685 16.2378 50.4983 15.8345 50.9201 15.3301C51.3555 14.8226 51.6945 14.2397 51.9201 13.6101C52.1354 12.9896 52.2435 12.3369 52.2399 11.6801V10.3701H53.5199V11.6801C53.5125 12.5394 53.3744 13.3925 53.11 14.2101ZM56.1701 11.0001H49.82V9.71008H56.11L56.1701 11.0001ZM54.1701 13.5101C54.3911 14.1118 54.7313 14.6628 55.1701 15.1301C55.5891 15.6111 56.1172 15.9848 56.7101 16.2201L55.86 17.4601C55.1717 17.1654 54.5646 16.7092 54.09 16.1301C53.6058 15.5384 53.2392 14.8595 53.0099 14.1301C52.7655 13.3435 52.6442 12.5238 52.65 11.7001V10.3901H53.89V11.7001C53.8606 12.3115 53.935 12.9235 54.11 13.5101H54.1701ZM58.9 19.8601H57.2999V8.61011H58.9V19.8601Z" fill="#231F20"/>
</g>
<defs>
<clipPath id="clip0_8072_552">
<rect width="76.33" height="29.12" fill="white"/>
</clipPath>
</defs>
</svg>
