<svg width="51" height="75" viewBox="0 0 51 75" fill="none" xmlns="http://www.w3.org/2000/svg">
<g clip-path="url(#clip0_8063_9536)">
<path d="M50.8243 72.7832V18.893C50.8243 10.8624 45.3122 8.30229 42.2469 6.95075V0.607788L34.2039 13.5941L41.9376 23.9774L42.0992 17.5057C45.6708 17.5057 47.0207 21.0812 47.0207 22.1252V39.1519C40.1307 37.3069 35.4061 43.1136 35.4061 48.5698V58.4525H32.0525L37.6137 74.4708L42.9992 58.4525H39.6385V51.8091C39.6385 50.0786 41.2977 47.6901 43.4913 47.6901C44.4449 47.7346 45.3444 48.1538 46.0002 48.8594C46.6559 49.5651 47.0167 50.5021 47.0066 51.4731V72.9262" fill="white"/>
<path d="M50.8243 72.7832V18.893C50.8243 10.8624 45.3122 8.30229 42.2469 6.95075V0.607788L34.2039 13.5941L41.9376 23.9774L42.0992 17.5057C45.6708 17.5057 47.0207 21.0812 47.0207 22.1252V39.1519C40.1307 37.3069 35.4061 43.1136 35.4061 48.5698V58.4525H32.0525L37.6137 74.4708L42.9992 58.4525H39.6385V51.8091C39.6385 50.0786 41.2977 47.6901 43.4913 47.6901C44.4449 47.7346 45.3444 48.1538 46.0002 48.8594C46.6559 49.5651 47.0167 50.5021 47.0066 51.4731V72.9262L50.8243 72.7832Z" stroke="#231916" stroke-width="0.49"/>
<path d="M19.2287 72.9548H16.0439V15.8109C16.0439 11.1842 13.1753 10.8481 11.3122 10.8481C9.44908 10.8481 6.39081 12.1925 6.39081 14.5881V21.9464H9.75142L4.7316 50.4076L0.168747 22.111H3.68405L3.51528 10.8481C3.51528 5.88528 7.07979 2.14526 11.7692 2.14526C16.4586 2.14526 19.5029 5.38465 19.5029 10.3403" fill="white"/>
<path d="M19.2287 72.9548H16.0439V15.8109C16.0439 11.1842 13.1753 10.8481 11.3122 10.8481C9.44908 10.8481 6.39081 12.1925 6.39081 14.5881V21.9464H9.75142L4.7316 50.4076L0.168747 22.111H3.68405L3.51528 10.8481C3.51528 5.88528 7.07979 2.14526 11.7692 2.14526C16.4586 2.14526 19.5029 5.38465 19.5029 10.3403L19.2287 72.9548Z" stroke="#231916" stroke-width="0.49"/>
</g>
<defs>
<clipPath id="clip0_8063_9536">
<rect width="51" height="75" fill="white"/>
</clipPath>
</defs>
</svg>
