<svg width="43" height="67" viewBox="0 0 43 67" fill="none" xmlns="http://www.w3.org/2000/svg">
<g clip-path="url(#clip0_8063_8920)">
<path d="M11.7948 2.67529H16.9741V48.7475H20.0641V55.339H16.6771V66.6995H10.5965V55.6588H8.29899V48.7863H10.8837V27.2478L8.29899 37.988V16.8082M8.29899 55.6588H0.316895V48.3017L8.29899 16.8082V37.988L5.62503 48.7863H8.29899V55.6588Z" fill="white"/>
<path d="M11.7947 2.67529H16.9741V48.7475H20.0641V55.339H16.6771V66.6995H10.5965V55.6588H0.297058V48.3017L11.7947 2.67529ZM10.8639 48.7475V27.2091L5.6052 48.7475H10.8639Z" stroke="#231916" stroke-width="0.6"/>
<path d="M37.5333 12.8339V56.2599C37.5333 58.9158 35.0872 60.1856 32.5817 59.9724V66.3215C35.4536 65.9532 42.7128 63.714 42.7128 57.0547V9.55756C42.7128 5.34098 38.4048 0.232624 33.2254 0.232624C33.0085 0.220531 32.791 0.243521 32.5817 0.300543V7.80314C33.2465 7.79055 33.9069 7.9115 34.522 8.15859C35.1371 8.40568 35.6939 8.77369 36.158 9.23974C36.622 9.70579 36.9835 10.2601 37.2201 10.8683C37.4567 11.4765 37.5632 12.1257 37.5333 12.7758M32.5817 59.9143C31.2262 59.8342 29.9562 59.2391 29.0424 58.2559C28.1286 57.2727 27.6432 55.9791 27.6895 54.6507V12.5044C27.6666 11.8735 27.7781 11.2448 28.017 10.6585C28.2559 10.0721 28.6171 9.54095 29.0773 9.09869C29.5376 8.65643 30.0868 8.31277 30.6901 8.08972C31.2935 7.86668 31.9377 7.76909 32.5817 7.80314V0.407155C27.5508 0.610714 22.2229 4.1197 22.2229 9.0245V56.3084C22.2229 64.3635 29.8484 66.4087 32.0073 66.4087H32.5817V59.9143Z" fill="white"/>
<path d="M37.5333 12.8338V56.2598C37.5333 61.5814 27.6301 61.3003 27.6301 54.7089V12.5625C27.6796 6.32002 37.5333 6.31993 37.5333 12.8338ZM22.213 8.95651V56.2404C22.213 64.2955 29.8385 66.3311 31.9974 66.3311C34.1564 66.3311 42.7029 64.2955 42.7029 57.074V9.57689C42.7029 5.36031 38.3949 0.251953 33.2155 0.251953C28.0361 0.251953 22.213 3.92571 22.213 8.97591V8.95651Z" stroke="#231916" stroke-width="0.6"/>
</g>
<defs>
<clipPath id="clip0_8063_8920">
<rect width="43" height="67" fill="white"/>
</clipPath>
</defs>
</svg>
