<svg width="72" height="71" viewBox="0 0 72 71" fill="none" xmlns="http://www.w3.org/2000/svg">
<g clip-path="url(#clip0_8063_6979)">
<path d="M23.09 2.09003H49.28L69.28 22.55V49.14L49.28 69.21H23.09L1.86 49.14V22.55C1.86 22.55 23.58 2.09003 23.09 2.09003Z" fill="#D20D18"/>
<path d="M22.5 0.290009H49.88L70.83 21.73V49.62L49.88 70.62H22.5L0.229996 49.62V21.73" stroke="#D20D18" stroke-width="0.45"/>
<path d="M0.219986 21.73C0.219986 21.73 22.99 0.299988 22.5 0.299988" stroke="#A03027" stroke-width="0.59"/>
<path d="M52.0599 47.73V50.38C54.6699 50.38 56.25 48.27 56.25 45.61C56.25 43.76 55.49 40.99 52.01 40.73V43.6C52.5033 43.6521 52.9595 43.8855 53.2903 44.2551C53.6211 44.6247 53.8028 45.1041 53.8 45.6C53.91 46.9 52.98 47.45 52.01 47.72" fill="white"/>
<path d="M52.0599 43.6V40.73C51.8646 40.6774 51.6619 40.657 51.46 40.67H47.74V56.14H50.14V50.38H52.05V47.73C51.4573 47.8493 50.8485 47.8662 50.25 47.78V43.45C50.8521 43.4336 51.4545 43.4704 52.05 43.56" fill="white"/>
<path d="M38.88 53.69V56.45C44.16 56.39 45.74 51.89 46.01 48.96C46.45 45.81 43.78 40.55 39.01 40.55H38.84V43.37H39.01C40.2431 43.5086 41.3762 44.1147 42.176 45.0634C42.9759 46.012 43.3817 47.2312 43.3099 48.47C43.3099 51.07 41.24 53.63 38.84 53.73" fill="white"/>
<path d="M38.88 43.33V40.51C37.2569 40.558 35.7009 41.1689 34.4786 42.2379C33.2563 43.307 32.4437 44.7677 32.1799 46.37V50.66C32.8899 53.26 34.85 56.41 38.77 56.41H38.88V53.7H38.74C37 53.7 34.6099 52.34 34.4399 48.7C34.6099 44.58 36.83 43.38 38.85 43.33" fill="white"/>
<path d="M32.45 40.67H32.18V43.33H32.45V40.67Z" fill="white"/>
<path d="M16.34 44.79C16.3063 44.2348 16.3834 43.6784 16.567 43.1533C16.7506 42.6281 17.037 42.1448 17.4093 41.7315C17.7817 41.3182 18.2326 40.9832 18.7357 40.746C19.2389 40.5088 19.7842 40.3742 20.34 40.35C21.15 40.35 24 40.83 24.34 44.79H21.63C21.35 42.3 18.46 43.17 18.9 45.12C19.5 47.4 24.62 46.91 24.62 51.74C24.663 52.3423 24.5804 52.947 24.3775 53.5157C24.1745 54.0845 23.8557 54.6049 23.4411 55.0439C23.0265 55.483 22.5252 55.8311 21.969 56.0662C21.4128 56.3014 20.8138 56.4185 20.21 56.41C17.81 56.41 15.9101 54.67 15.8001 51.74H18.46C18.4185 52.1997 18.5523 52.6581 18.8345 53.0233C19.1167 53.3885 19.5264 53.6337 19.9817 53.7095C20.437 53.7854 20.9042 53.6865 21.2896 53.4325C21.675 53.1785 21.9501 52.7883 22.06 52.34C22.82 48.27 16.5 50.54 16.34 44.79Z" fill="white"/>
<path d="M32.18 43.33V40.67H25.05V43.33H27.5V56.14H30.06V43.33" fill="white"/>
<path d="M32.1799 50.65V46.37C32.0019 47.1339 31.9115 47.9156 31.91 48.7C31.9276 49.3745 32.018 50.045 32.1799 50.7" fill="white"/>
<path d="M16.34 44.79L16.39 44.3L16.45 43.87L16.56 43.43L16.67 43.06L16.83 42.68L17.05 42.3L17.27 41.97L17.48 41.65L17.81 41.32L18.08 41.1L18.41 40.88L18.79 40.67L19.17 40.51L19.55 40.4L19.93 40.35H20.37H20.53H20.75L21.02 40.4L21.3 40.51L21.62 40.56L21.89 40.73L22.22 40.88L22.55 41.1L22.87 41.32L23.14 41.65L23.41 42.03L23.69 42.41L23.9 42.89L24.08 43.43L24.23 44.09L24.34 44.79H21.62L21.57 44.36L21.4 44.03L21.24 43.71L21.02 43.49L20.81 43.38L20.53 43.28H20.26H19.99L19.77 43.38L19.5 43.49L19.28 43.66L19.12 43.87L18.96 44.14L18.9 44.41L18.85 44.74L18.9 45.12L18.96 45.34L19.06 45.5L19.17 45.72L19.33 45.88L19.5 46.04L19.66 46.15L19.82 46.31L20.04 46.48L20.26 46.59L20.48 46.7L20.75 46.85L20.97 46.97L21.24 47.08L21.46 47.19L21.73 47.35L22 47.46L22.22 47.62L22.5 47.78L22.71 47.94L22.98 48.1L23.2 48.32L23.41 48.54L23.64 48.76L23.8 48.97L23.96 49.24L24.13 49.52L24.29 49.84L24.4 50.17L24.51 50.49L24.57 50.87L24.62 51.3V51.74V52.34L24.51 52.94L24.4 53.42L24.18 53.91L23.96 54.34L23.69 54.73L23.41 55.05L23.09 55.38L22.77 55.64L22.38 55.86L22.06 56.03L21.68 56.19L21.3 56.3L20.92 56.35L20.58 56.41H20.21H19.77L19.33 56.35L18.9 56.24L18.52 56.08L18.14 55.92L17.81 55.7L17.43 55.49L17.16 55.16L16.89 54.84L16.61 54.51L16.39 54.12L16.18 53.69L16.07 53.26L15.9 52.77L15.85 52.28L15.79 51.74H18.46L18.52 52.23L18.69 52.61L18.85 52.94L19.06 53.2L19.33 53.42L19.61 53.59L19.93 53.64L20.21 53.69H20.53L20.81 53.59L21.14 53.47L21.4 53.31L21.62 53.15L21.84 52.94L21.95 52.66L22.06 52.34L22.11 52.01V51.63L22.06 51.36L22 51.09L21.95 50.87L21.84 50.6L21.68 50.44L21.51 50.27L21.3 50.11L21.08 49.95L20.86 49.79L20.64 49.68L20.37 49.57L20.09 49.46L19.82 49.3L19.55 49.19L19.28 49.08L18.96 48.91L18.69 48.81L18.41 48.65L18.14 48.43L17.86 48.27L17.64 48.05L17.43 47.83L17.21 47.56L17 47.29L16.83 46.97L16.67 46.59L16.56 46.2L16.45 45.77L16.39 45.28L16.34 44.79Z" stroke="white" stroke-width="0.39"/>
<path d="M25.05 43.33V40.67H32.46V43.33H30.06V56.14H27.5V43.33H25.05Z" stroke="white" stroke-width="0.39"/>
<path d="M31.91 48.7L31.97 48.15V47.62L32.07 47.08L32.13 46.59L32.23 46.09L32.4 45.66L32.51 45.23L32.67 44.79L32.89 44.42L33.06 44.03L33.27 43.71L33.49 43.38L33.7 43.06L33.97 42.79L34.2 42.52L34.47 42.3L34.74 42.03L35.02 41.86L35.29 41.65L35.56 41.48L35.89 41.32L36.16 41.16L36.43 41.05L36.75 40.94L37.03 40.83L37.35 40.73L37.63 40.67L37.95 40.62L38.22 40.56H38.49L38.76 40.51H39.04H39.48L39.91 40.56L40.3 40.67L40.73 40.78L41.1 40.88L41.49 41.05L41.82 41.21L42.21 41.38L42.53 41.59L42.85 41.81L43.12 42.08L43.46 42.35L43.72 42.62L43.99 42.89L44.22 43.22L44.43 43.54L44.65 43.87L44.86 44.2L45.09 44.52L45.25 44.85L45.41 45.23L45.52 45.56L45.69 45.94L45.79 46.26L45.85 46.64L45.95 46.97L46.01 47.29L46.06 47.62V48V48.27V48.59L46.01 48.91V49.19L45.95 49.46L45.9 49.79L45.85 50.06L45.79 50.38L45.73 50.71L45.63 50.98L45.52 51.31L45.41 51.63L45.3 51.95L45.19 52.28L45.03 52.61L44.86 52.88L44.7 53.2L44.54 53.48L44.32 53.75L44.11 54.07L43.89 54.34L43.62 54.56L43.35 54.84L43.07 55.05L42.8 55.27L42.47 55.49L42.14 55.64L41.76 55.86L41.44 55.97L41 56.14L40.62 56.24L40.18 56.3L39.75 56.35L39.26 56.41H38.76H38.34L37.84 56.35L37.46 56.3L37.03 56.19L36.65 56.08L36.27 55.92L35.94 55.76L35.62 55.6L35.29 55.38L34.96 55.16L34.69 54.89L34.42 54.62L34.15 54.4L33.92 54.07L33.7 53.8L33.44 53.48L33.27 53.2L33.11 52.88L32.89 52.55L32.78 52.23L32.62 51.91L32.51 51.58L32.4 51.31L32.3 50.98L32.18 50.65L32.13 50.33L32.07 50.06L32.02 49.79L31.97 49.46L31.91 49.19V48.97V48.7Z" stroke="white" stroke-width="0.39"/>
<path d="M34.47 48.7L34.52 49.35L34.63 49.95L34.8 50.55L34.96 51.03L35.18 51.47L35.46 51.91L35.72 52.23L35.99 52.55L36.37 52.83L36.65 53.04L37.03 53.26L37.35 53.42L37.73 53.53L38.06 53.59L38.44 53.64L38.77 53.69L39.2 53.64L39.64 53.53L40.07 53.42L40.51 53.2L40.9 52.99L41.28 52.72L41.6 52.39L41.93 52.01L42.26 51.63L42.53 51.25L42.75 50.82L42.96 50.33L43.12 49.9L43.23 49.4L43.28 48.91L43.35 48.43L43.28 47.94L43.23 47.5L43.12 47.02L43.02 46.59L42.85 46.15L42.69 45.77L42.42 45.34L42.21 45.01L41.87 44.63L41.6 44.36L41.22 44.09L40.84 43.82L40.46 43.66L40.02 43.49L39.53 43.38L39.04 43.33H38.66L38.28 43.38L37.9 43.44L37.52 43.54L37.14 43.71L36.75 43.92L36.37 44.14L36.05 44.42L35.72 44.74L35.46 45.12L35.18 45.56L34.96 46.09L34.8 46.64L34.63 47.23L34.52 47.94L34.47 48.7Z" stroke="white" stroke-width="0.39"/>
<path d="M47.75 56.14V40.67H51.46L52.16 40.73L52.81 40.83L53.36 40.99L53.91 41.16L54.34 41.43L54.72 41.7L55.05 42.03L55.37 42.41L55.59 42.79L55.81 43.17L55.97 43.6L56.08 44.03L56.19 44.42L56.24 44.85L56.3 45.23V45.61L56.24 46.09L56.19 46.59L56.13 47.02L56.02 47.45L55.87 47.89L55.64 48.27L55.43 48.65L55.16 48.97L54.89 49.3L54.61 49.57L54.24 49.79L53.85 50L53.47 50.17L53.03 50.27L52.6 50.33L52.11 50.38H50.15V56.14H47.75Z" stroke="white" stroke-width="0.39"/>
<path d="M50.26 47.77H50.47L50.75 47.83H51.02L51.3 47.77H51.62L51.89 47.73L52.22 47.67L52.48 47.56L52.81 47.46L53.09 47.29L53.3 47.13L53.52 46.91L53.69 46.64L53.79 46.37L53.85 45.98V45.61V45.23L53.74 44.9L53.63 44.63L53.47 44.36L53.3 44.2L53.09 43.98L52.81 43.87L52.6 43.76L52.27 43.66L52 43.6L51.72 43.55L51.4 43.49H51.13H50.86H50.53H50.26V47.77Z" stroke="white" stroke-width="0.39"/>
<path d="M14.11 15.45H23.91V18.27H20.53C20.64 19.73 20.53 20.27 21.35 21.09C22.5227 22.1255 23.7585 23.0873 25.0501 23.97L22.99 25.6C21.2546 24.9229 19.7825 23.7065 18.7901 22.13C17.6303 23.5266 16.2278 24.7022 14.65 25.6L12.31 24.4C13.517 23.5608 14.648 22.6172 15.69 21.58C16.4957 20.6567 16.9739 19.4931 17.0501 18.27H14.11" fill="white"/>
<path d="M39.86 15.98H50.59V18.91H47.1C47.37 24.5 48.03 25.04 51.24 29.44L49.5 31.23C47.6373 29.8239 46.2036 27.9261 45.36 25.75C44.82 27.59 42.7999 29.33 40.6799 31.61L38.55 29.76C42.36 24.83 42.91 25.48 43.46 18.91H39.86" fill="white"/>
<path d="M56.46 15.05H53.25V33.61H56.46V15.05Z" fill="white"/>
<path d="M26.85 14.95L26.74 19.51L24.46 19.67V22.06H26.74L26.85 26.61H29.68V14.95" fill="white"/>
<path d="M21.89 25.97C26.2 25.97 29.69 27.7 29.69 29.82C29.69 31.94 26.2 33.56 21.89 33.56C17.43 33.56 14 31.88 14 29.82C14 27.76 17.43 25.97 21.89 25.97Z" fill="white"/>
<path d="M21.84 28.13C24.4 28.13 26.36 28.9 26.36 29.76C26.36 30.62 24.36 31.5 21.84 31.5C19.32 31.5 17.32 30.69 17.32 29.76C17.32 28.83 19.32 28.13 21.84 28.13Z" fill="#D20D18"/>
</g>
<defs>
<clipPath id="clip0_8063_6979">
<rect width="71.06" height="70.85" fill="white"/>
</clipPath>
</defs>
</svg>
