<svg width="51" height="65" viewBox="0 0 51 65" fill="none" xmlns="http://www.w3.org/2000/svg">
<g clip-path="url(#clip0_8063_9029)">
<path d="M5.70138 55.1781L4.17841 64.7801L0.218689 64.1285L1.73385 54.5265" fill="white"/>
<path d="M5.70138 55.1781L4.17841 64.7801L0.218689 64.1285L1.73385 54.5265L5.70138 55.1781Z" stroke="#231916" stroke-width="0.49"/>
<path d="M11.8714 38.5571L8.09909 47.5153L4.41272 45.9451L8.19281 36.9948" fill="white"/>
<path d="M8.18851 37.0178L4.41217 45.9741L8.09388 47.5428L11.8702 38.5865L8.18851 37.0178Z" stroke="#231916" stroke-width="0.49"/>
<path d="M21.8683 23.9304L16.0654 31.6795L12.8398 29.2849L18.6427 21.528" fill="white"/>
<path d="M21.8683 23.9304L16.0654 31.6795L12.8398 29.2849L18.6427 21.528L21.8683 23.9304Z" stroke="#231916" stroke-width="0.49"/>
<path d="M35.0908 12.1615L27.5775 18.254L25.047 15.1685L32.5525 9.021" fill="white"/>
<path d="M35.0908 12.1615L27.5775 18.254L25.047 15.1685L32.5525 9.021L35.0908 12.1615Z" stroke="#231916" stroke-width="0.49"/>
<path d="M50.7501 3.89417L41.9481 8.0082L40.2455 4.35739L49.0475 0.251221" fill="white"/>
<path d="M50.7501 3.89417L41.9481 8.0082L40.2455 4.35739L49.0475 0.251221L50.7501 3.89417Z" stroke="#231916" stroke-width="0.49"/>
</g>
<defs>
<clipPath id="clip0_8063_9029">
<rect width="51" height="65" fill="white"/>
</clipPath>
</defs>
</svg>
