<svg width="71" height="71" viewBox="0 0 71 71" fill="none" xmlns="http://www.w3.org/2000/svg">
<g clip-path="url(#clip0_8063_6900)">
<path d="M35.39 63.82C41.0684 63.7962 46.6124 62.0903 51.3219 58.9177C56.0313 55.7451 59.6949 51.2482 61.8502 45.9946C64.0054 40.7411 64.5555 34.9667 63.431 29.4008C62.3065 23.8348 59.5579 18.7269 55.5322 14.7222C51.5065 10.7174 46.3843 7.99539 40.8126 6.89991C35.2408 5.80444 29.4694 6.38463 24.2272 8.56721C18.985 10.7498 14.5071 14.4369 11.3591 19.1628C8.21107 23.8887 6.53411 29.4415 6.53999 35.1199C6.54786 38.8993 7.30054 42.64 8.75502 46.1283C10.2095 49.6166 12.3373 52.784 15.0166 55.4494C17.696 58.1148 20.8744 60.2261 24.3703 61.6624C27.8661 63.0986 31.6107 63.8318 35.39 63.82Z" fill="#004A9C"/>
<path d="M35.39 70.33C42.322 70.3082 49.092 68.232 54.8444 64.3637C60.5968 60.4954 65.0734 55.0086 67.7084 48.5969C70.3433 42.1851 71.0184 35.1362 69.6484 28.3408C68.2783 21.5455 64.9246 15.3088 60.011 10.419C55.0974 5.52919 48.8445 2.20566 42.0427 0.868538C35.2408 -0.468586 28.1951 0.240678 21.7962 2.90668C15.3973 5.57269 9.93229 10.0758 6.09191 15.8469C2.25153 21.6179 0.208132 28.3979 0.219961 35.33C0.257012 44.6306 3.97975 53.5372 10.5723 60.0978C17.1648 66.6585 26.0893 70.338 35.39 70.33Z" stroke="#D20D18" stroke-width="0.45"/>
<path d="M35.39 2.32999C28.8777 2.34185 22.515 4.28379 17.1059 7.91049C11.6969 11.5372 7.48421 16.6859 5.00026 22.7059C2.51631 28.7259 1.87252 35.3472 3.15028 41.7329C4.42805 48.1187 7.56997 53.9825 12.1791 58.5832C16.7882 63.184 22.6577 66.3152 29.0458 67.5814C35.4339 68.8475 42.0539 68.1917 48.0694 65.6968C54.0849 63.2019 59.2259 58.9799 62.8428 53.5642C66.4596 48.1486 68.39 41.7823 68.39 35.27C68.3741 26.5282 64.8903 18.1499 58.7033 11.9742C52.5163 5.79848 44.1318 2.32997 35.39 2.32999ZM35.39 60.99C30.3075 60.9801 25.342 59.4634 21.1214 56.6317C16.9007 53.8 13.6145 49.7803 11.6782 45.0811C9.74185 40.3818 9.24241 35.214 10.2429 30.2309C11.2435 25.2478 13.6991 20.6732 17.2993 17.0856C20.8995 13.498 25.4826 11.0584 30.4691 10.0753C35.4557 9.09228 40.6218 9.60983 45.3142 11.5626C50.0067 13.5154 54.0147 16.8157 56.8317 21.0462C59.6486 25.2767 61.1479 30.2474 61.14 35.33C61.1321 42.1541 58.4156 48.696 53.5874 53.5186C48.7592 58.3412 42.2142 61.05 35.39 61.05" fill="#D20D18"/>
<path d="M32.78 28.93L16.23 12.44L12.37 16.02L25.38 28.93" fill="#D20D18"/>
<path d="M45.03 41.14H37.62L55.1 58.56L58.91 54.98" fill="#D20D18"/>
<path d="M21.94 35.33V36.47H18.62V39.33H17.42V36.4H14.16V35.33M21.16 31.1V32.18H18.71C18.7249 32.3492 18.8035 32.5065 18.93 32.62C19.1302 32.8084 19.3517 32.9729 19.59 33.11C19.85 33.22 20.18 33.32 20.51 33.43C20.886 33.5109 21.2668 33.5678 21.65 33.6C21.5083 33.7475 21.381 33.9082 21.27 34.08C21.168 34.2537 21.0778 34.4341 21 34.62C20.3652 34.552 19.7519 34.351 19.2 34.03C18.7383 33.8363 18.3276 33.5386 18 33.16C17.7418 33.5731 17.3605 33.8948 16.91 34.08C16.3342 34.4011 15.709 34.6241 15.06 34.74C14.9956 34.5638 14.9046 34.3985 14.79 34.25C14.6614 34.0559 14.514 33.8751 14.35 33.71C14.7198 33.7081 15.0872 33.6508 15.44 33.54C15.7431 33.4458 16.0349 33.3183 16.31 33.16C16.5484 33.0269 16.7699 32.8657 16.97 32.68C17.0457 32.6185 17.1086 32.5427 17.1549 32.4569C17.2012 32.3711 17.2302 32.277 17.24 32.18H14.85V31.1H21.16Z" fill="white"/>
<path d="M31.31 32.57V33.66H29.62C29.6281 34.3394 29.7959 35.0075 30.11 35.61C30.3453 36.2139 30.7886 36.7139 31.36 37.02C31.1925 37.1566 31.0474 37.3185 30.93 37.5C30.7841 37.6536 30.6534 37.821 30.54 38C30.1828 37.7169 29.8724 37.3794 29.62 37C29.3017 36.5839 29.0796 36.1023 28.97 35.59C28.7772 36.1024 28.5001 36.579 28.15 37C27.8394 37.4267 27.4529 37.7928 27.01 38.08C26.8988 37.9025 26.768 37.7382 26.62 37.59C26.472 37.4151 26.3079 37.2544 26.13 37.11C26.8122 36.8452 27.3742 36.3402 27.71 35.69C28.1161 35.0998 28.345 34.4059 28.37 33.69H26.51V32.6M30.16 32.11H27.66V31.02H30.16V32.11ZM32.99 30.81C33.05 30.81 33.05 30.91 32.99 31.02C32.9722 31.0922 32.9722 31.1677 32.99 31.24C32.9662 31.3284 32.9662 31.4215 32.99 31.51V34.51H33.99V35.7H32.99V39.33H31.79V30.73H32.5C32.698 30.705 32.8991 30.7221 33.09 30.78" fill="white"/>
<path d="M45.79 35.01H41.92V33.93H43.39C43.4568 33.6006 43.4936 33.2659 43.5 32.93C43.5447 32.6456 43.5648 32.3578 43.56 32.07H41.92V30.93H44.92C44.92 31.36 44.86 31.85 44.86 32.4C44.8176 32.9107 44.7442 33.4183 44.64 33.92H45.79M41.92 39.12V38.12H43.77V36.94H41.92V35.94H44.92V39.33H43.72V39.11L41.92 39.12ZM41.92 35H38V33.93H41.92V35ZM41.92 32.07H38.82V30.93H41.92V32.07ZM41.92 35.92V36.92H40.02V38.1H41.92V39.1H40.02V39.33H38.82V35.93L41.92 35.92Z" fill="white"/>
<path d="M55.04 31.4299V32.57H53.31V32.89C53.2959 33.7323 53.463 34.5678 53.8 35.34C54.0559 36.0495 54.5557 36.6449 55.21 37.02C55.0425 37.1565 54.8974 37.3185 54.78 37.4999C54.637 37.6535 54.5097 37.821 54.4 37.9999C53.9546 37.683 53.5828 37.2737 53.31 36.7999C52.9774 36.2965 52.7716 35.7201 52.71 35.1199C52.5543 35.7298 52.3154 36.3153 52 36.86C51.6861 37.3455 51.2822 37.7664 50.81 38.1C50.6774 37.9245 50.5302 37.7606 50.37 37.61C50.2194 37.4528 50.0554 37.3089 49.88 37.1799C50.5931 36.741 51.1603 36.1008 51.51 35.34C51.8814 34.575 52.0858 33.7399 52.11 32.89V32.57H50.41V31.4299M57.16 30.78C57.22 30.78 57.22 30.7799 57.16 30.9399L57.11 31.1V39.33H55.91V30.73H56.62C56.8015 30.7082 56.9855 30.7252 57.16 30.78Z" fill="white"/>
</g>
<defs>
<clipPath id="clip0_8063_6900">
<rect width="70.78" height="70.56" fill="white"/>
</clipPath>
</defs>
</svg>
