<svg width="72" height="48" viewBox="0 0 72 48" fill="none" xmlns="http://www.w3.org/2000/svg">
<g clip-path="url(#clip0_8063_9420)">
<path d="M57.2355 18.1721C55.945 18.1724 54.6602 18.3444 53.4134 18.6838L51.0375 13.3488C51.0375 13.2811 50.9637 13.2284 50.9342 13.1682C50.8144 12.8437 50.6005 12.5641 50.3211 12.3665C50.0417 12.1689 49.7099 12.0627 49.3699 12.062H26.6735L30.2299 4.53731H36.2656C36.4861 4.53535 36.6971 4.44522 36.853 4.28618C37.009 4.12714 37.0974 3.91201 37.0994 3.68711V1.05347C37.0994 0.827955 37.0115 0.611649 36.8552 0.452189C36.6988 0.292729 36.4867 0.203172 36.2656 0.203172H28.7247C28.3914 0.178223 28.0584 0.255976 27.769 0.426378C27.4795 0.59678 27.2469 0.85189 27.1014 1.15873L19.0514 18.2172L18.9776 18.3978C15.457 17.3221 11.6676 17.6449 8.37075 19.3014C5.0739 20.9579 2.51388 23.8254 1.20499 27.3277C-0.103903 30.83 -0.0646813 34.7077 1.31477 38.1817C2.69423 41.6558 5.3117 44.4687 8.64135 46.0555C11.971 47.6423 15.7661 47.8853 19.2643 46.7357C22.7624 45.5862 25.7044 43.1292 27.4991 39.8584C29.2939 36.5877 29.8084 32.7455 28.9394 29.1037C28.0704 25.4619 25.8822 22.2904 22.8145 20.2264V20.1812L22.8735 20.0984L24.6222 16.3887H47.7171L49.5101 20.4145C46.5262 22.3143 44.316 25.2497 43.2866 28.68C42.2572 32.1103 42.478 35.8044 43.9082 39.0818C45.3384 42.3593 47.8818 44.9993 51.0698 46.5156C54.2578 48.0318 57.8757 48.3222 61.2571 47.3332C64.6384 46.3442 67.5555 44.1424 69.4708 41.1335C71.3862 38.1245 72.1709 34.5112 71.6803 30.9589C71.1898 27.4066 69.4571 24.1547 66.8013 21.8022C64.1456 19.4498 60.7458 18.1553 57.2281 18.1571M25.3306 32.5668C25.3379 34.6995 24.7244 36.7865 23.5678 38.5635C22.4113 40.3404 20.7636 41.7274 18.8336 42.5488C16.9035 43.3701 14.7779 43.5888 12.7258 43.1773C10.6738 42.7658 8.78765 41.7425 7.30626 40.2371C5.82487 38.7316 4.81488 36.8117 4.40418 34.7205C3.99349 32.6292 4.20056 30.4608 4.99919 28.4897C5.79782 26.5185 7.15208 24.8334 8.89045 23.6477C10.6288 22.4621 12.6731 21.8291 14.7645 21.8291C15.61 21.8341 16.4519 21.9401 17.2732 22.1451L12.846 31.7767C12.725 32.0329 12.6549 32.311 12.6399 32.595C12.6249 32.8789 12.6652 33.1631 12.7585 33.4311C12.8518 33.6991 12.9962 33.9455 13.1835 34.1562C13.3708 34.3669 13.5972 34.5377 13.8495 34.6587C14.3598 34.9016 14.9434 34.9297 15.4738 34.7367C16.0042 34.5438 16.4387 34.1453 16.6829 33.6278L21.11 24.0038C22.4183 24.9978 23.4811 26.2895 24.2138 27.776C24.9464 29.2626 25.3289 30.903 25.3306 32.5668ZM57.2281 43.6958C54.9754 43.7166 52.7757 42.9989 50.9531 41.6485C49.1305 40.2981 47.7814 38.3865 47.1046 36.1952C46.4277 34.0039 46.4589 31.6488 47.1935 29.477C47.9282 27.3051 49.3274 25.4313 51.1851 24.1316L55.5237 33.9137C55.631 34.1828 55.7903 34.4271 55.992 34.6321C56.1937 34.8372 56.4338 34.9988 56.698 35.1073C56.9622 35.2158 57.2451 35.2691 57.5299 35.2639C57.8147 35.2587 58.0955 35.1952 58.3558 35.0772C58.616 34.9591 58.8503 34.7889 59.0448 34.5766C59.2392 34.3644 59.3898 34.1145 59.4877 33.8417C59.5856 33.5689 59.6286 33.2789 59.6144 32.9888C59.6001 32.6987 59.5289 32.4144 59.4048 32.153L55.0883 22.4461C55.7919 22.2947 56.5091 22.219 57.2281 22.2203C58.6338 22.1824 60.0327 22.432 61.3422 22.9543C62.6518 23.4767 63.8455 24.2613 64.8529 25.2618C65.8603 26.2623 66.6609 27.4584 67.2076 28.7796C67.7544 30.1008 68.036 31.5203 68.036 32.9543C68.036 34.3883 67.7544 35.8079 67.2076 37.1291C66.6609 38.4503 65.8603 39.6464 64.8529 40.6469C63.8455 41.6474 62.6518 42.432 61.3422 42.9544C60.0327 43.4767 58.6338 43.7263 57.2281 43.6883" fill="white"/>
<path d="M57.2355 18.1721C55.945 18.1724 54.6602 18.3444 53.4134 18.6838L51.0375 13.3488C51.0375 13.2811 50.9637 13.2284 50.9342 13.1682C50.8144 12.8437 50.6005 12.5641 50.3211 12.3665C50.0417 12.1689 49.7099 12.0627 49.3699 12.062H26.6735L30.2299 4.53731H36.2656C36.4861 4.53535 36.6971 4.44522 36.853 4.28618C37.009 4.12714 37.0974 3.91201 37.0994 3.68711V1.05347C37.0994 0.827955 37.0115 0.611649 36.8552 0.452189C36.6988 0.292729 36.4867 0.203172 36.2656 0.203172H28.7247C28.3914 0.178223 28.0584 0.255976 27.769 0.426378C27.4795 0.59678 27.2469 0.85189 27.1014 1.15873L19.0514 18.2172L18.9776 18.3978C15.457 17.3221 11.6676 17.6449 8.37075 19.3014C5.0739 20.9579 2.51388 23.8254 1.20499 27.3277C-0.103903 30.83 -0.0646813 34.7077 1.31477 38.1817C2.69423 41.6558 5.3117 44.4687 8.64135 46.0555C11.971 47.6423 15.7661 47.8853 19.2643 46.7357C22.7624 45.5862 25.7044 43.1292 27.4991 39.8584C29.2939 36.5877 29.8084 32.7455 28.9394 29.1037C28.0704 25.4619 25.8822 22.2904 22.8145 20.2264V20.1812L22.8735 20.0984L24.6222 16.3887H47.7171L49.5101 20.4145C46.5262 22.3143 44.316 25.2497 43.2866 28.68C42.2572 32.1103 42.478 35.8044 43.9082 39.0818C45.3384 42.3593 47.8818 44.9993 51.0698 46.5156C54.2578 48.0318 57.8757 48.3222 61.2571 47.3332C64.6384 46.3442 67.5555 44.1424 69.4708 41.1335C71.3862 38.1245 72.1709 34.5112 71.6803 30.9589C71.1898 27.4066 69.4571 24.1547 66.8013 21.8022C64.1456 19.4498 60.7458 18.1553 57.2281 18.1571L57.2355 18.1721ZM25.338 32.5818C25.3453 34.7146 24.7318 36.8016 23.5752 38.5785C22.4186 40.3555 20.771 41.7425 18.8409 42.5638C16.9109 43.3851 14.7853 43.6039 12.7332 43.1924C10.6812 42.7809 8.79502 41.7576 7.31364 40.2521C5.83225 38.7467 4.82225 36.8268 4.41156 34.7355C4.00086 32.6443 4.20795 30.4758 5.00657 28.5047C5.8052 26.5336 7.15945 24.8484 8.89783 23.6627C10.6362 22.477 12.6805 21.8441 14.7719 21.8441C15.6173 21.849 16.4593 21.9551 17.2806 22.1602L12.8534 31.7918C12.7324 32.048 12.6623 32.3261 12.6473 32.61C12.6322 32.894 12.6725 33.1782 12.7659 33.4462C12.8592 33.7142 13.0036 33.9606 13.1909 34.1713C13.3782 34.382 13.6045 34.5528 13.8569 34.6737C14.3672 34.9167 14.9508 34.9448 15.4812 34.7518C16.0116 34.5588 16.4461 34.1603 16.6903 33.6429L21.1174 24.0187C22.4257 25.0128 23.4884 26.3045 24.2211 27.7911C24.9538 29.2777 25.3362 30.9181 25.338 32.5818ZM57.2355 43.7109C54.9827 43.7316 52.7831 43.0139 50.9605 41.6636C49.1379 40.3132 47.7888 38.4016 47.1119 36.2103C46.4351 34.019 46.4663 31.6639 47.2009 29.4921C47.9355 27.3202 49.3347 25.4464 51.1924 24.1467L55.531 33.9288C55.6383 34.1978 55.7976 34.4422 55.9994 34.6472C56.2011 34.8522 56.4412 35.0138 56.7054 35.1223C56.9696 35.2309 57.2525 35.2841 57.5373 35.279C57.8221 35.2738 58.1029 35.2103 58.3631 35.0922C58.6234 34.9742 58.8577 34.8039 59.0521 34.5917C59.2466 34.3795 59.3972 34.1295 59.4951 33.8567C59.5929 33.5839 59.636 33.2939 59.6218 33.0038C59.6075 32.7137 59.5362 32.4295 59.4121 32.168L55.0957 22.4612C55.7992 22.3097 56.5164 22.2341 57.2355 22.2354C58.6411 22.1974 60.04 22.447 61.3496 22.9694C62.6592 23.4918 63.8529 24.2764 64.8603 25.2769C65.8676 26.2774 66.6683 27.4735 67.215 28.7947C67.7617 30.1159 68.0434 31.5354 68.0434 32.9694C68.0434 34.4034 67.7617 35.8229 67.215 37.1441C66.6683 38.4653 65.8676 39.6615 64.8603 40.662C63.8529 41.6625 62.6592 42.447 61.3496 42.9694C60.04 43.4917 58.6411 43.7413 57.2355 43.7034V43.7109Z" stroke="#231916" stroke-width="0.53"/>
<path d="M55.5384 6.32828L43.3785 6.25305C43.0547 6.32738 42.7606 6.50028 42.5353 6.74888C42.31 6.99748 42.164 7.31002 42.1168 7.6451C42.0944 7.99324 42.1809 8.33967 42.3639 8.63446C42.5469 8.92925 42.8169 9.15723 43.1351 9.28552L50.8161 10.3164C50.8161 10.3164 54.5644 10.9334 55.5384 6.32828Z" fill="white"/>
<path d="M55.5384 6.32828L43.3785 6.25305C43.0547 6.32738 42.7606 6.50028 42.5353 6.74888C42.31 6.99748 42.164 7.31002 42.1168 7.6451C42.0944 7.99324 42.1809 8.33967 42.3639 8.63446C42.5469 8.92925 42.8169 9.15723 43.1351 9.28552L50.8161 10.3164C50.8161 10.3164 54.5866 10.9334 55.5384 6.32828Z" stroke="#231916" stroke-width="0.53"/>
</g>
<defs>
<clipPath id="clip0_8063_9420">
<rect width="72" height="48" fill="white"/>
</clipPath>
</defs>
</svg>
