<svg width="76" height="67" viewBox="0 0 76 67" fill="none" xmlns="http://www.w3.org/2000/svg">
<g clip-path="url(#clip0_8063_6351)">
<path d="M1.15003 59.88L34.41 2.61999C36.18 -0.550007 39.4101 -0.550007 41.3101 2.61999L74.75 60.01C76.75 63.23 75.11 65.82 71.16 65.82H4.81007C0.560067 65.82 -0.919967 63.35 1.15003 59.88Z" fill="white"/>
<path d="M1.15003 59.88L34.41 2.61999C36.18 -0.550007 39.4101 -0.550007 41.3101 2.61999L74.75 60.01C76.75 63.23 75.11 65.82 71.16 65.82H4.81006C0.580062 65.82 -0.849972 63.35 1.15003 59.88Z" stroke="#D20D18" stroke-width="0.49"/>
<path d="M2.63994 60.53L35.6399 3.68C36.8199 1.63 38.9399 1.68 40.1099 3.74L73.27 60.65C74.51 62.65 73.27 64.23 70.9 64.23H5.26995C2.60995 64.23 1.49997 62.53 2.66997 60.53" fill="#D20D18"/>
<path d="M38.03 12.97L64.04 57.83H11.54" fill="#F8B500"/>
<path d="M38.03 12.97L64.04 57.83H11.54L38.03 12.97Z" stroke="#D20D18" stroke-width="0.55"/>
<path d="M26.82 55.09H32.82V43.01C32.82 39.13 34.4699 39.13 36.3499 39.13V40.49C36.6499 41.71 37.71 41.83 38.77 41.37L46.8499 36.31C47.7999 35.25 47.4399 35.25 46.8499 34.48L38.95 30.43C38.18 29.78 36.8299 29.55 36.3499 30.9V32.78C32.1699 32.78 26.86 33.49 26.86 40.89V55.09" fill="#231916"/>
</g>
<defs>
<clipPath id="clip0_8063_6351">
<rect width="75.84" height="66.07" fill="white"/>
</clipPath>
</defs>
</svg>
