<svg width="71" height="70" viewBox="0 0 71 70" fill="none" xmlns="http://www.w3.org/2000/svg">
<g clip-path="url(#clip0_8063_6782)">
<path d="M35.02 69.58C41.8611 69.5642 48.5439 67.5208 54.224 63.7079C59.904 59.8951 64.3263 54.484 66.932 48.1586C69.5376 41.8331 70.2096 34.8772 68.8631 28.1699C67.5166 21.4626 64.2121 15.3051 59.367 10.4754C54.522 5.64567 48.3538 2.36064 41.6423 1.03545C34.9308 -0.289734 27.9771 0.404419 21.66 3.03014C15.3429 5.65587 9.94585 10.0953 6.15109 15.7875C2.35633 21.4796 0.334142 28.1689 0.340055 35.01C0.363892 44.1903 4.02873 52.9861 10.5305 59.4672C17.0322 65.9483 25.8397 69.5853 35.02 69.58Z" stroke="#D20D18" stroke-width="0.68"/>
<path d="M35.02 2.46002C39.3558 2.35245 43.6693 3.11353 47.7065 4.69845C51.7437 6.28338 55.4228 8.66011 58.5274 11.6887C61.632 14.7172 64.0993 18.3364 65.7839 22.333C67.4685 26.3296 68.3363 30.6229 68.3363 34.96C68.3363 39.2972 67.4685 43.5904 65.7839 47.587C64.0993 51.5837 61.632 55.2028 58.5274 58.2314C55.4228 61.2599 51.7437 63.6366 47.7065 65.2216C43.6693 66.8065 39.3558 67.5676 35.02 67.46V60.29C38.3477 60.29 41.6428 59.6346 44.7172 58.3611C47.7916 57.0877 50.585 55.2211 52.9381 52.8681C55.2911 50.5151 57.1577 47.7216 58.4311 44.6472C59.7046 41.5728 60.3599 38.2777 60.3599 34.95C60.3599 31.6223 59.7046 28.3272 58.4311 25.2528C57.1577 22.1784 55.2911 19.385 52.9381 17.0319C50.585 14.6789 47.7916 12.8124 44.7172 11.5389C41.6428 10.2655 38.3477 9.61001 35.02 9.61001M2.47005 34.95C2.47267 30.6786 3.31672 26.4495 4.95406 22.5044C6.59139 18.5592 8.98985 14.9752 12.0125 11.9572C15.0352 8.93918 18.6228 6.54618 22.5705 4.91492C26.5182 3.28365 30.7485 2.44607 35.02 2.45001V9.58002C31.6923 9.58002 28.3972 10.2355 25.3228 11.5089C22.2484 12.7824 19.4549 14.6489 17.1019 17.0019C14.7488 19.355 12.8823 22.1484 11.6088 25.2228C10.3354 28.2972 9.68001 31.5923 9.68001 34.92C9.68001 38.2477 10.3354 41.5428 11.6088 44.6172C12.8823 47.6916 14.7488 50.485 17.1019 52.8381C19.4549 55.1911 22.2484 57.0577 25.3228 58.3311C28.3972 59.6046 31.6923 60.26 35.02 60.26V67.43C26.3949 67.4274 18.1233 64.0027 12.0207 57.9076C5.91812 51.8125 2.48329 43.5451 2.47005 34.92" fill="#D20D18"/>
<path d="M54.45 57.91L58.26 54.39L16.12 12.38L12.38 15.91" fill="#D20D18"/>
<path d="M38.36 28.89C38.2354 28.89 38.1136 28.927 38.01 28.9962C37.9064 29.0654 37.8256 29.1638 37.778 29.2789C37.7303 29.394 37.7179 29.5207 37.7422 29.6429C37.7665 29.7651 37.8265 29.8774 37.9146 29.9655C38.0027 30.0536 38.115 30.1136 38.2372 30.1379C38.3594 30.1622 38.486 30.1497 38.6011 30.102C38.7162 30.0543 38.8147 29.9736 38.8839 29.87C38.9531 29.7664 38.99 29.6446 38.99 29.52C38.99 29.3529 38.9237 29.1926 38.8056 29.0745C38.6874 28.9563 38.5271 28.89 38.36 28.89Z" fill="#070000"/>
<path d="M49.79 27C49.5155 27.0019 49.2477 27.0852 49.0205 27.2391C48.7932 27.393 48.6166 27.6108 48.5129 27.865C48.4092 28.1191 48.3832 28.3983 48.438 28.6673C48.4927 28.9362 48.6259 29.183 48.8207 29.3764C49.0154 29.5698 49.2631 29.7011 49.5324 29.7539C49.8018 29.8068 50.0808 29.7787 50.3342 29.6732C50.5876 29.5677 50.8041 29.3895 50.9564 29.1612C51.1087 28.9328 51.19 28.6645 51.19 28.39C51.1874 28.0204 51.0387 27.6669 50.7765 27.4065C50.5142 27.1461 50.1596 27 49.79 27ZM49.79 29.46C49.5062 29.46 49.2341 29.3472 49.0334 29.1466C48.8328 28.9459 48.7201 28.6738 48.7201 28.39C48.7201 28.1062 48.8328 27.8341 49.0334 27.6334C49.2341 27.4327 49.5062 27.32 49.79 27.32C50.0738 27.32 50.3459 27.4327 50.5466 27.6334C50.7473 27.8341 50.86 28.1062 50.86 28.39C50.86 28.6738 50.7473 28.9459 50.5466 29.1466C50.3459 29.3472 50.0738 29.46 49.79 29.46Z" fill="#070000"/>
<path d="M49.79 27.67C49.5991 27.67 49.4159 27.7459 49.2809 27.8809C49.1458 28.0159 49.07 28.199 49.07 28.39C49.07 28.5809 49.1458 28.7641 49.2809 28.8991C49.4159 29.0341 49.5991 29.11 49.79 29.11C49.981 29.11 50.1641 29.0341 50.2992 28.8991C50.4342 28.7641 50.51 28.5809 50.51 28.39C50.51 28.199 50.4342 28.0159 50.2992 27.8809C50.1641 27.7459 49.981 27.67 49.79 27.67Z" fill="#070000"/>
<path d="M54.79 24.14L54.62 23.72L54.49 23.6L54.0901 23.43L53.77 23.3L53.65 23.02V22.12V22.03L53.49 21.62L53.36 21.49L52.95 21.32H52.7201L52.44 21.2L52.33 20.92V18.28H52.45L52.61 18.11V17.88L52.55 17.81L51.87 17.23L51.77 17.18H51.55L50.86 17.76L50.78 17.87V18.1L50.95 18.25H51.03V20.89L50.92 21.17L50.64 21.29H50.16L49.88 21.17L49.77 20.89V20.65V20.57L49.5901 20.16L49.4701 20.03L49.06 19.86H47.15L46.74 20.03L46.61 20.16L46.44 20.57V20.89L46.32 21.17L46.04 21.29H35.99L35.17 21.63L35.04 21.75L34.7 22.58V22.67V28.33V28.42L35.04 29.24L35.17 29.36L35.99 29.7H36.08H36.51C36.5967 30.1576 36.8406 30.5707 37.1993 30.8678C37.558 31.1649 38.0093 31.3275 38.4751 31.3275C38.9409 31.3275 39.392 31.1649 39.7507 30.8678C40.1094 30.5707 40.3533 30.1576 40.44 29.7H47.16C47.4088 30.1992 47.7919 30.6192 48.2662 30.9128C48.7405 31.2063 49.2873 31.3618 49.8451 31.3618C50.4029 31.3618 50.9495 31.2063 51.4238 30.9128C51.8981 30.6192 52.2812 30.1992 52.53 29.7H52.93H53.02L53.43 29.53L53.56 29.4L53.7201 29V28.91V26.12L53.8401 25.84L54.16 25.71L54.56 25.54L54.69 25.41L54.86 25V24.92V24.19V24.11M38.44 30.48C38.2423 30.48 38.0489 30.4213 37.8845 30.3114C37.72 30.2016 37.5918 30.0454 37.5161 29.8626C37.4404 29.6799 37.4206 29.4789 37.4592 29.2849C37.4978 29.0909 37.593 28.9127 37.7329 28.7729C37.8727 28.633 38.051 28.5378 38.245 28.4992C38.4389 28.4606 38.64 28.4804 38.8227 28.5561C39.0054 28.6318 39.1616 28.76 39.2715 28.9244C39.3813 29.0889 39.44 29.2822 39.44 29.48C39.44 29.7452 39.3346 29.9996 39.1471 30.1871C38.9595 30.3746 38.7052 30.48 38.44 30.48ZM49.82 30.19C49.4585 30.188 49.1056 30.079 48.806 29.8767C48.5064 29.6745 48.2734 29.3879 48.1364 29.0534C47.9995 28.7188 47.9646 28.3512 48.0363 27.9969C48.1081 27.6425 48.2832 27.3174 48.5395 27.0625C48.7958 26.8075 49.1219 26.6342 49.4767 26.5644C49.8314 26.4946 50.1988 26.5315 50.5326 26.6703C50.8664 26.8091 51.1516 27.0436 51.3523 27.3443C51.5529 27.6451 51.66 27.9985 51.66 28.36C51.66 28.6012 51.6123 28.8399 51.5197 29.0626C51.4272 29.2853 51.2914 29.4875 51.1205 29.6576C50.9495 29.8276 50.7466 29.9622 50.5234 30.0536C50.3002 30.1449 50.0612 30.1913 49.82 30.19Z" fill="#070000"/>
<path d="M30.79 48.58C30.9586 48.13 31.2605 47.7422 31.6555 47.4684C32.0504 47.1947 32.5194 47.048 33 47.048C33.4805 47.048 33.9496 47.1947 34.3446 47.4684C34.7395 47.7422 35.0415 48.13 35.21 48.58H38.93V42.99H28.31V45.74H27.53C27.3296 45.7267 27.1286 45.7565 26.9406 45.8271C26.7526 45.8978 26.5819 46.0079 26.4399 46.1499C26.2979 46.2919 26.1878 46.4627 26.1171 46.6507C26.0464 46.8387 26.0167 47.0396 26.03 47.24H22.03L20.52 45.87H15.21V50.03H17.3501C17.3501 49.6083 17.5176 49.2039 17.8158 48.9057C18.1139 48.6075 18.5183 48.44 18.94 48.44C19.3617 48.44 19.7661 48.6075 20.0643 48.9057C20.3625 49.2039 20.53 49.6083 20.53 50.03H29.09V49.16C29.0841 49.0797 29.0954 48.999 29.1235 48.9235C29.1515 48.848 29.1956 48.7794 29.2525 48.7225C29.3095 48.6655 29.3779 48.6215 29.4534 48.5935C29.529 48.5655 29.6097 48.554 29.69 48.56" fill="#070000"/>
<path d="M27.22 42.01L28.07 45.37L26.83 45.39L25.78 46.06L25.25 47.17" stroke="#070000" stroke-width="0.15" stroke-linecap="round" stroke-linejoin="round"/>
<path d="M27.42 42.77L24.76 43.8" stroke="#070000" stroke-width="0.15" stroke-linecap="round" stroke-linejoin="round"/>
<path d="M19.8501 50.06C19.8521 50.2443 19.7992 50.4252 19.6983 50.5794C19.5973 50.7336 19.4527 50.8544 19.283 50.9263C19.1132 50.9982 18.9259 51.0181 18.7449 50.9833C18.5638 50.9486 18.3971 50.8609 18.266 50.7312C18.1349 50.6015 18.0454 50.4359 18.0087 50.2552C17.972 50.0745 17.9899 49.887 18.06 49.7165C18.13 49.546 18.2492 49.4001 18.4024 49.2975C18.5555 49.1948 18.7357 49.14 18.9201 49.14C19.0417 49.1387 19.1624 49.1615 19.2752 49.2071C19.3879 49.2528 19.4905 49.3204 19.577 49.4059C19.6635 49.4915 19.7322 49.5933 19.7791 49.7056C19.8259 49.8179 19.8501 49.9383 19.8501 50.06Z" fill="#070000"/>
<path d="M34.58 49.4C34.5814 49.6105 34.5408 49.8191 34.4609 50.0138C34.381 50.2085 34.2632 50.3855 34.1143 50.5343C33.9655 50.6832 33.7886 50.801 33.5938 50.8809C33.3991 50.9608 33.1904 51.0013 32.9799 51C32.5556 51 32.1487 50.8314 31.8486 50.5313C31.5485 50.2313 31.38 49.8243 31.38 49.4C31.38 48.9756 31.5485 48.5686 31.8486 48.2686C32.1487 47.9685 32.5556 47.8 32.9799 47.8C33.1904 47.7986 33.3991 47.8392 33.5938 47.9191C33.7886 47.999 33.9655 48.1168 34.1143 48.2657C34.2632 48.4145 34.381 48.5914 34.4609 48.7861C34.5408 48.9808 34.5814 49.1895 34.58 49.4Z" fill="#070000"/>
<path d="M20.25 46.09L23.71 44.54" stroke="#070000" stroke-width="0.15" stroke-linecap="round" stroke-linejoin="round"/>
<path d="M24.88 44.14C24.8774 44.3053 24.8099 44.463 24.692 44.579C24.5741 44.695 24.4154 44.76 24.25 44.76C24.125 44.76 24.0029 44.7228 23.899 44.6531C23.7952 44.5834 23.7145 44.4844 23.6671 44.3687C23.6197 44.253 23.6078 44.1258 23.6329 44.0033C23.6581 43.8809 23.7191 43.7686 23.8082 43.681C23.8973 43.5933 24.0106 43.5341 24.1334 43.5109C24.2563 43.4877 24.3832 43.5017 24.4982 43.5509C24.6131 43.6001 24.7108 43.6824 24.7788 43.7873C24.8468 43.8922 24.882 44.015 24.88 44.14Z" stroke="#070000" stroke-width="0.15" stroke-linecap="round" stroke-linejoin="round"/>
<path d="M27.65 41.3C27.6474 41.4653 27.5799 41.623 27.462 41.739C27.3441 41.855 27.1854 41.9201 27.02 41.92C26.8546 41.9201 26.6958 41.855 26.578 41.739C26.4601 41.623 26.3926 41.4653 26.39 41.3C26.3926 41.1337 26.4598 40.975 26.5774 40.8574C26.695 40.7398 26.8537 40.6726 27.02 40.67C27.1871 40.67 27.3474 40.7364 27.4655 40.8546C27.5837 40.9727 27.65 41.1329 27.65 41.3Z" stroke="#070000" stroke-width="0.15" stroke-linecap="round" stroke-linejoin="round"/>
</g>
<defs>
<clipPath id="clip0_8063_6782">
<rect width="70.09" height="69.87" fill="white"/>
</clipPath>
</defs>
</svg>
