<svg width="69" height="68" viewBox="0 0 69 68" fill="none" xmlns="http://www.w3.org/2000/svg">
<g clip-path="url(#clip0_8063_8012)">
<path d="M57.44 38.2099H24.23C23.31 38.2099 22.23 38.2099 22.82 39.2099C23.42 39.7499 25.05 41.6 23.96 42.63C22.87 43.66 22.27 43.5 21.02 42.63L9.01999 35.3599C8.14999 34.9199 8.52999 34.44 9.01999 34.16L21.27 27.05C22.8 26.29 24.92 26.67 24.05 29.05C23.7816 30.0067 23.2559 30.8714 22.53 31.55C22.53 31.55 22.25 32.14 23.4 32.03C24.55 31.92 57.4 32.03 57.4 32.03" fill="#D20D18"/>
<path d="M5.4 67.6801C4.72139 67.6802 4.04947 67.5459 3.42301 67.285C2.79655 67.0242 2.22794 66.6418 1.75001 66.16C1.26124 65.6889 0.873523 65.1232 0.610481 64.4974C0.347438 63.8716 0.214582 63.1988 0.220008 62.52" stroke="#231916" stroke-width="0.45"/>
<path d="M0.230011 62.52V5.38" stroke="#231916" stroke-width="0.45"/>
<path d="M0.230022 5.38C0.225697 4.69483 0.357875 4.01562 0.618847 3.38208C0.879819 2.74854 1.26435 2.17328 1.75001 1.68994C2.73576 0.754061 4.04078 0.228508 5.40001 0.219971" stroke="#231916" stroke-width="0.45"/>
<path d="M5.39999 0.22998H62.78" stroke="#231916" stroke-width="0.45"/>
<path d="M62.78 0.22998C64.1346 0.237346 65.4358 0.759205 66.42 1.68994C66.907 2.17278 67.2931 2.74772 67.5558 3.38123C67.8185 4.01473 67.9525 4.69421 67.95 5.38" stroke="#231916" stroke-width="0.45"/>
<path d="M67.95 5.38V62.52" stroke="#231916" stroke-width="0.45"/>
<path d="M67.95 62.52C67.959 63.1993 67.8277 63.8732 67.5645 64.4995C67.3012 65.1258 66.9116 65.6911 66.42 66.16C65.9421 66.6418 65.3735 67.0242 64.747 67.285C64.1205 67.5459 63.4486 67.6802 62.77 67.6801" stroke="#231916" stroke-width="0.45"/>
<path d="M62.78 67.6801H5.39999" stroke="#231916" stroke-width="0.45"/>
<path d="M5.39998 65.78C4.96931 65.7845 4.54258 65.6976 4.14788 65.5253C3.75317 65.3529 3.39944 65.099 3.10997 64.78C2.81343 64.4797 2.57942 64.1236 2.4215 63.7322C2.26357 63.3408 2.1849 62.922 2.18999 62.5" stroke="#231916" stroke-width="0.45"/>
<path d="M2.19 62.52V5.38" stroke="#231916" stroke-width="0.45"/>
<path d="M2.19 5.38005C2.18546 4.95812 2.26441 4.53941 2.4223 4.14811C2.5802 3.75682 2.81389 3.40063 3.10999 3.10002C3.39945 2.78109 3.75319 2.52714 4.14789 2.35478C4.54259 2.18242 4.96932 2.09556 5.4 2.10002" stroke="#231916" stroke-width="0.45"/>
<path d="M5.39999 2.12H62.78" stroke="#231916" stroke-width="0.45"/>
<path d="M62.78 2.12C63.208 2.12302 63.631 2.2132 64.023 2.38513C64.415 2.55706 64.7678 2.80714 65.06 3.12C65.3579 3.41979 65.5935 3.77566 65.7531 4.16699C65.9127 4.55833 65.9932 4.9774 65.99 5.40002" stroke="#231916" stroke-width="0.45"/>
<path d="M65.99 5.38V62.52" stroke="#231916" stroke-width="0.45"/>
<path d="M65.99 62.52C65.9932 62.9426 65.9127 63.3617 65.7531 63.7531C65.5935 64.1444 65.3579 64.5003 65.06 64.8C64.7678 65.1129 64.415 65.3629 64.023 65.5348C63.631 65.7067 63.208 65.797 62.78 65.8" stroke="#231916" stroke-width="0.45"/>
<path d="M62.78 65.78H5.39999" stroke="#231916" stroke-width="0.45"/>
<path d="M21.5 53.13C21.447 52.5999 21.5179 52.0647 21.7071 51.5667C21.8962 51.0686 22.1985 50.6213 22.59 50.26C23.0289 49.8848 23.593 49.6885 24.17 49.71C24.9099 49.695 25.6268 49.9674 26.17 50.47C26.7268 51.0994 27.0172 51.9205 26.98 52.76C26.9912 53.4556 26.785 54.1373 26.39 54.71C26.0746 55.148 25.7087 55.5475 25.3 55.9L24.86 56.28C24.37 56.66 24.05 56.98 23.86 57.09C23.6873 57.2695 23.5393 57.4713 23.42 57.69H26.95V59.38H21.35C21.3707 58.767 21.4818 58.1604 21.68 57.58C22.0659 56.7822 22.6223 56.079 23.31 55.52L23.42 55.41C23.9402 54.994 24.4313 54.5429 24.89 54.0599C25.1992 53.6763 25.3559 53.192 25.33 52.7C25.3683 52.3431 25.2681 51.9851 25.05 51.7C24.9586 51.5551 24.829 51.4384 24.6755 51.3626C24.522 51.2867 24.3505 51.2547 24.18 51.27C23.9656 51.2566 23.7526 51.3125 23.5725 51.4296C23.3924 51.5466 23.2548 51.7187 23.18 51.9201C23.0534 52.3034 22.9992 52.7068 23.02 53.11" fill="#231916"/>
<path d="M31.15 49.7099C31.5779 49.7046 31.9996 49.813 32.372 50.0238C32.7444 50.2346 33.0543 50.5404 33.27 50.91C34.2162 53.3136 34.2162 55.9864 33.27 58.39C33.0653 58.7692 32.7578 59.083 32.3828 59.2953C32.0078 59.5075 31.5805 59.6097 31.15 59.5899V58.0699C31.3647 58.0589 31.5701 57.9792 31.7358 57.8423C31.9015 57.7054 32.0187 57.5186 32.07 57.3099C32.2874 56.4408 32.3783 55.545 32.34 54.65C32.3818 53.7549 32.2908 52.8585 32.07 51.99C32.0283 51.772 31.9152 51.5741 31.7487 51.4275C31.5821 51.2808 31.3715 51.1938 31.15 51.18M29.02 50.91C29.2272 50.5308 29.5367 50.2172 29.9132 50.0051C30.2898 49.793 30.7183 49.6907 31.15 49.7099V51.18C30.9268 51.1917 30.7138 51.2777 30.5453 51.4245C30.3767 51.5714 30.2622 51.7704 30.22 51.99C29.9267 53.7512 29.9267 55.5487 30.22 57.3099C30.2583 57.527 30.3732 57.7232 30.5439 57.8626C30.7146 58.0021 30.9297 58.0757 31.15 58.0699V59.62C30.7179 59.6416 30.2884 59.5404 29.9115 59.328C29.5345 59.1156 29.2254 58.8008 29.02 58.42C28.0866 56.014 28.0866 53.3459 29.02 50.9399" fill="#231916"/>
<path d="M38.11 49.71C38.5367 49.7174 38.9549 49.831 39.3268 50.0405C39.6987 50.25 40.0125 50.5489 40.24 50.91C41.107 53.328 41.107 55.9721 40.24 58.39C40.0242 58.7618 39.713 59.0692 39.3385 59.2802C38.964 59.4912 38.5398 59.5981 38.11 59.59V58.07C38.54 58.07 38.82 57.8 39.04 57.31C39.2287 56.4366 39.3027 55.5425 39.26 54.65C39.3059 53.7575 39.2319 52.8629 39.04 51.99C38.9837 51.7775 38.865 51.5868 38.6992 51.4424C38.5334 51.298 38.3282 51.2067 38.11 51.1801M35.94 50.91C36.1541 50.5412 36.4622 50.2357 36.8329 50.0249C37.2036 49.8141 37.6236 49.7054 38.05 49.71H38.11V51.1801H38.05C37.63 51.1801 37.3 51.45 37.13 51.99C36.8508 53.7523 36.8508 55.5476 37.13 57.31C37.1699 57.5244 37.2839 57.7181 37.452 57.8571C37.6202 57.996 37.8319 58.0713 38.05 58.07H38.11V59.62H38.05C37.6232 59.6266 37.2024 59.5189 36.8313 59.3079C36.4603 59.0968 36.1525 58.7903 35.94 58.4201C34.9938 56.0165 34.9938 53.3435 35.94 50.94" fill="#231916"/>
<path d="M51.23 59.38H49.66V55.14C49.6807 54.7597 49.5829 54.3823 49.38 54.0599C49.3132 53.9679 49.2239 53.8948 49.1205 53.8475C49.0171 53.8002 48.9033 53.7804 48.79 53.79C48.6224 53.764 48.4509 53.7859 48.2952 53.8531C48.1395 53.9204 48.006 54.0302 47.91 54.17C47.7223 54.469 47.6283 54.8172 47.64 55.17V59.36H46.06V55.12C46.0666 54.8097 46.0296 54.4999 45.95 54.1999C45.8702 54.0468 45.7441 53.9229 45.5896 53.8457C45.4352 53.7685 45.2604 53.742 45.09 53.77C44.9388 53.7536 44.7861 53.7806 44.6497 53.8479C44.5133 53.9152 44.399 54.02 44.32 54.15C44.1355 54.4488 44.0579 54.8014 44.1 55.15V59.39H42.5V52.39H44.08V53.39C44.2021 53.0973 44.3864 52.8345 44.62 52.62C44.9546 52.3359 45.3811 52.183 45.82 52.1899C46.1713 52.1905 46.5162 52.2837 46.82 52.4599C47.1058 52.6936 47.332 52.9917 47.48 53.3299C47.5932 53.0768 47.7605 52.8516 47.97 52.67C48.1135 52.5289 48.284 52.418 48.4713 52.3441C48.6585 52.2702 48.8588 52.2348 49.06 52.24C49.3413 52.2273 49.6221 52.2743 49.8841 52.3777C50.146 52.4811 50.3831 52.6386 50.58 52.8399C50.7962 53.0698 50.9615 53.3427 51.0648 53.6409C51.1682 53.939 51.2075 54.2556 51.18 54.5699" fill="#231916"/>
<path d="M19.44 14.39H14.98V19.39H13.4V14.39H9.04001V12.87H16.23C16.34 12.38 16.39 11.87 16.45 11.35C16.5115 10.8622 16.5482 10.3715 16.56 9.88H10.02V8.35999H18.35C18.35 9.17999 18.3 9.95001 18.24 10.64C18.1853 11.3905 18.075 12.1358 17.91 12.87H19.44" fill="#231916"/>
<path d="M30.82 19.11V17.6201H31.82V19.1401M30.82 16.3701V7.91009H31.26C31.3498 7.90057 31.4403 7.90057 31.53 7.91009C31.63 7.97009 31.63 8.02001 31.63 8.07001C31.6276 8.14587 31.6106 8.22066 31.58 8.2901C31.5445 8.35784 31.5273 8.43364 31.53 8.51007C31.4805 8.61263 31.4598 8.72662 31.47 8.84002V11.84H32.83V13.36H31.5V16.36L30.82 16.3701ZM28.53 8.50006C28.5454 9.86073 28.1288 11.1913 27.34 12.3001C26.3962 13.5757 25.1097 14.557 23.63 15.1301C23.52 14.9101 23.36 14.64 23.2 14.36C23.04 14.08 22.82 13.82 22.65 13.61C23.2075 13.5314 23.7442 13.3445 24.23 13.06C24.695 12.7877 25.1192 12.451 25.49 12.06C25.8069 11.7454 26.0643 11.3761 26.25 10.97C26.429 10.6673 26.5223 10.3217 26.52 9.97003H23.14V8.50006H28.53ZM30.82 7.91009V16.3701H29.82V7.91009H30.82ZM30.82 17.6201H25.5V16.0501C25.5 15.9901 25.5 15.94 25.5 15.83C25.5 15.72 25.56 15.5601 25.5 15.5101C25.2529 15.4415 24.9948 15.4211 24.74 15.45H23.81V19.1401H30.73L30.82 17.6201Z" fill="#231916"/>
<path d="M39.91 8.68996C39.97 8.68996 39.97 8.90996 39.86 9.06996C39.8622 9.13055 39.8446 9.19025 39.81 9.24001C39.81 9.34001 39.75 9.38997 39.75 9.44997C39.7 9.66997 39.7 9.87998 39.64 10.21V11.2901C39.6837 12.3079 39.9829 13.2983 40.51 14.1701C40.934 15.1285 41.6293 15.9419 42.51 16.51C42.277 16.6694 42.0594 16.8502 41.86 17.0501C41.6241 17.25 41.4215 17.4863 41.26 17.75C40.6628 17.1948 40.1506 16.5546 39.74 15.85C39.3543 15.2135 39.0772 14.5174 38.92 13.7901C38.7235 14.4698 38.4483 15.1241 38.1 15.74C37.7369 16.4912 37.2386 17.1692 36.63 17.74L36.03 17.15C35.81 16.98 35.59 16.7701 35.43 16.6601C36.3591 15.832 37.07 14.7879 37.5 13.62C38.0317 12.0077 38.2886 10.3175 38.26 8.62001H39.19C39.4484 8.59714 39.7087 8.63479 39.95 8.73M45.34 7.96999C45.3794 8.00134 45.4068 8.04524 45.4177 8.09438C45.4286 8.14351 45.4224 8.19493 45.4 8.24001C45.3591 8.30597 45.3382 8.38238 45.34 8.45998C45.28 8.45998 45.28 8.62 45.28 8.73V19.4201H43.65V7.92006H44.65C44.8864 7.90425 45.1236 7.90425 45.36 7.92006" fill="#231916"/>
<path d="M55.5 8.46997V10H53.5V10.26C53.5184 10.4721 53.5761 10.6789 53.67 10.87C53.8208 11.1429 54.0019 11.3978 54.21 11.63C54.4462 11.9036 54.7227 12.1396 55.03 12.33C55.3585 12.5494 55.7302 12.696 56.12 12.76C55.96 12.98 55.74 13.2 55.58 13.46C55.4027 13.6978 55.2549 13.9564 55.14 14.23C54.5913 13.96 54.0775 13.6242 53.61 13.23C53.235 12.8912 52.9235 12.4883 52.69 12.04C52.5102 12.5066 52.21 12.9171 51.82 13.23C51.3337 13.6856 50.7848 14.0695 50.19 14.37C50.0259 14.1222 49.842 13.8881 49.64 13.67C49.4402 13.4489 49.2192 13.2478 48.98 13.0699C49.403 12.9602 49.8098 12.7955 50.19 12.58C50.5322 12.373 50.8421 12.1169 51.11 11.8199C51.3414 11.5529 51.5426 11.2612 51.71 10.95C51.8544 10.7228 51.9307 10.4591 51.93 10.1899V9.97998H49.75V8.44995M58.13 14.91V19.36H56.5V16.4301H50.19V14.91H58.13ZM57.92 7.91003C58.02 7.91003 58.13 7.91003 58.19 7.91003L58.29 8.06995C58.2614 8.14004 58.2445 8.21446 58.24 8.29004C58.19 8.40004 58.19 8.45001 58.13 8.51001V10.9H59.5V12.47H58.14V14.37H56.5V7.85999H57.92V7.91003Z" fill="#231916"/>
</g>
<defs>
<clipPath id="clip0_8063_8012">
<rect width="68.18" height="67.9" fill="white"/>
</clipPath>
</defs>
</svg>
