<svg width="76" height="67" viewBox="0 0 76 67" fill="none" xmlns="http://www.w3.org/2000/svg">
<g clip-path="url(#clip0_8063_6612)">
<path d="M1.12995 59.9L34.45 2.58C36.22 -0.529999 39.52 -0.529999 41.35 2.58L74.85 60.02C76.85 63.31 75.1399 65.9 71.2499 65.9H4.84003C0.600035 65.9 -0.870048 63.37 1.12995 59.9Z" fill="white"/>
<path d="M1.12995 59.9L34.45 2.58C36.22 -0.529999 39.52 -0.529999 41.35 2.58L74.85 60.02C76.85 63.31 75.1399 65.9 71.2499 65.9H4.84003C0.600035 65.9 -0.870048 63.37 1.12995 59.9Z" stroke="#D20D18" stroke-width="0.49"/>
<path d="M2.60003 60.54L35.6 3.70002C36.78 1.64002 38.9 1.70002 40.08 3.70002L73.28 60.7C74.47 62.76 73.22 64.35 70.92 64.35H5.16997C2.56997 64.35 1.45 62.58 2.57 60.58" fill="#D20D18"/>
<path d="M38.05 12.93L64.05 57.84H11.56" fill="#F8B500"/>
<path d="M38.05 12.93L64.05 57.84H11.56L38.05 12.93Z" stroke="#D20D18" stroke-width="0.55"/>
<path d="M40.2299 35.1C41.4477 35.4051 42.6385 35.8098 43.79 36.31C44.44 37.13 43.8999 38.24 44.3799 39.42C44.6199 40.13 45.85 40.31 45.97 41.19C46.03 41.77 45.5599 42.36 45.3799 42.77H44.97C44.7503 43.4174 44.6092 44.0889 44.55 44.77C44.4708 48.2791 44.7488 51.7872 45.3799 55.24H46.32C46.96 54.12 49.32 50.89 51.1 53.06C51.45 53.47 51.33 54.12 51.69 54.65C51.81 54.76 51.7499 55 51.8599 55.24H56.05C56.1837 55.3474 56.2943 55.4807 56.3751 55.6319C56.4558 55.7832 56.5051 55.9492 56.52 56.12C56.52 57 56.23 57.47 55.58 57.47H40.19V55.12C41.0011 55.175 41.8088 55.2718 42.6099 55.41C42.4299 54.53 42.6099 53.94 42.3699 53.06C42.0799 51.89 41.02 50.53 40.78 49.3C40.54 47.77 40.95 47.12 40.78 45.77L40.19 45.54M32.58 32.54C34.47 32.48 35.4699 34.54 36.2399 35.66C36.8299 35.48 37.2999 35.54 38.0099 35.31C38.1199 35.25 38.78 34.72 38.83 34.72C39.2991 34.7697 39.7577 34.8911 40.19 35.08V45.54C39.336 46.1866 38.5458 46.9132 37.83 47.71C37.8057 48.1116 37.867 48.5138 38.0099 48.89C38.4799 51.24 40.0099 52.53 39.2399 55C39.5399 55.06 39.8299 55.06 40.2399 55.12V57.47H32.6299V55.06C33.9465 54.9865 35.251 54.7685 36.52 54.41C36.41 54.29 36.58 53.76 36.52 53.65C36.0972 53.4811 35.6863 53.284 35.29 53.06C34.75 52.18 34.93 51 34.52 50.06C34.4 49.88 33.8099 49.34 33.7499 49.11C33.5799 48.7 33.7499 48.41 33.5099 48.11L33.16 47.88L32.6299 48.23V46.31C33.2356 45.7597 33.7341 45.102 34.1 44.37C34.87 42.25 33.04 41.43 32.93 40.02C33.0001 39.4165 33.1377 38.8228 33.34 38.25C33.0879 38.1181 32.8499 37.9606 32.6299 37.78L32.58 32.54ZM32.52 32.54H32.58V37.77C31.46 36.95 30.34 35.6 30.93 33.9C31.0436 33.5486 31.2522 33.2355 31.5329 32.9955C31.8135 32.7554 32.1552 32.5978 32.52 32.54ZM32.58 57.47H18.66C18.25 56.94 18.25 56.71 18.55 56C18.66 55.71 23.55 48.65 23.79 48.3L23.97 48.12C25.21 47.47 26.3299 48.77 26.7499 49.47C26.8599 49.66 26.7499 50 26.9799 50.07C27.2099 50.14 27.45 50 27.57 50.07C28.57 49.3 29.69 48.53 30.69 47.71C30.93 47.54 31.04 47.07 31.28 46.95C31.52 46.83 31.8099 46.95 32.1099 46.71C32.2807 46.5904 32.4384 46.453 32.58 46.3V48.31C32.04 48.78 31.6399 49.31 31.1099 49.78C30.3399 50.37 29.4599 50.78 28.7499 51.37C28.9943 52.378 29.329 53.362 29.7499 54.31C30.2199 55.01 31.34 55.19 32.58 55.13V57.47Z" fill="#231916"/>
<path d="M35.79 42.73C35.7864 43.5789 35.7061 44.4256 35.55 45.26C35.55 45.26 37.14 44.14 37.2 43.79C36.7753 43.3802 36.3017 43.0242 35.79 42.73Z" fill="#FFD900"/>
<path d="M40.64 38.15L42.4701 39.91C42.4701 39.91 42.9401 37.44 40.4701 37.91" fill="#FFD900"/>
</g>
<defs>
<clipPath id="clip0_8063_6612">
<rect width="75.91" height="66.14" fill="white"/>
</clipPath>
</defs>
</svg>
