<svg width="77" height="30" viewBox="0 0 77 30" fill="none" xmlns="http://www.w3.org/2000/svg">
<g clip-path="url(#clip0_8063_7564)">
<path d="M5.78999 28.87C5.04715 28.874 4.31095 28.7302 3.62422 28.4469C2.9375 28.1636 2.31396 27.7466 1.78999 27.22C1.27724 26.7033 0.87256 26.0897 0.599565 25.4149C0.32657 24.7402 0.190768 24.0178 0.200029 23.2899" stroke="#231916" stroke-width="0.49"/>
<path d="M0.240005 23.29V5.82996" stroke="#231916" stroke-width="0.49"/>
<path d="M0.239969 5.82001C0.23182 5.09233 0.368159 4.37029 0.641092 3.69568C0.914025 3.02107 1.31815 2.40732 1.83 1.89001C2.3543 1.36388 2.97788 0.947123 3.66453 0.66388C4.35118 0.380636 5.08723 0.236581 5.83 0.240051" stroke="#231916" stroke-width="0.49"/>
<path d="M5.78999 0.23999H70.48" stroke="#231916" stroke-width="0.49"/>
<path d="M70.48 0.219959C71.2155 0.215289 71.9444 0.359 72.6231 0.642505C73.3018 0.926011 73.9163 1.34351 74.43 1.86998C74.9531 2.3825 75.3693 2.9938 75.6542 3.66845C75.9392 4.34309 76.0873 5.06762 76.09 5.79998" stroke="#231916" stroke-width="0.49"/>
<path d="M76.09 5.82996V23.29" stroke="#231916" stroke-width="0.49"/>
<path d="M76.09 23.2899C76.0769 24.7709 75.4806 26.1872 74.4305 27.2317C73.3804 28.2762 71.9611 28.8648 70.48 28.87" stroke="#231916" stroke-width="0.49"/>
<path d="M70.48 28.87H5.78999" stroke="#231916" stroke-width="0.49"/>
<path d="M5.78995 26.8199C4.87157 26.7931 3.99985 26.4093 3.35996 25.75C3.02144 25.4371 2.75289 25.0562 2.57194 24.6322C2.39098 24.2082 2.30172 23.7508 2.30997 23.2899" stroke="#231916" stroke-width="0.49"/>
<path d="M2.31 23.29V5.82996" stroke="#231916" stroke-width="0.49"/>
<path d="M2.31001 5.81995C2.30425 5.35942 2.39465 4.90278 2.57545 4.47919C2.75626 4.0556 3.02347 3.67441 3.36 3.35999C4.00698 2.72007 4.88001 2.3608 5.78999 2.35999" stroke="#231916" stroke-width="0.49"/>
<path d="M5.78999 2.35999H70.48" stroke="#231916" stroke-width="0.49"/>
<path d="M70.48 2.35003C71.4084 2.34467 72.3014 2.70628 72.9644 3.3562C73.6274 4.00611 74.0068 4.89166 74.02 5.82001" stroke="#231916" stroke-width="0.49"/>
<path d="M74.02 5.82996V23.29" stroke="#231916" stroke-width="0.49"/>
<path d="M74.02 23.2899C74.0146 23.7497 73.9181 24.2039 73.7362 24.6261C73.5543 25.0483 73.2904 25.4303 72.96 25.75C72.3066 26.4195 71.4153 26.804 70.48 26.8199" stroke="#231916" stroke-width="0.49"/>
<path d="M70.48 26.8199H5.78999" stroke="#231916" stroke-width="0.49"/>
<path d="M15.69 9.22003C15.75 9.28003 15.75 9.39 15.63 9.57L15.57 9.75006L15.52 9.92004C15.46 10.1 15.46 10.33 15.4 10.63V11.69C15.4542 12.6511 15.7575 13.5816 16.28 14.39C16.7613 15.3029 17.4754 16.0723 18.35 16.6201C18.0884 16.7606 17.8491 16.9392 17.64 17.1501C17.4114 17.3354 17.2124 17.5545 17.05 17.8C16.4212 17.2872 15.8837 16.672 15.46 15.98C15.0442 15.3913 14.7423 14.7299 14.57 14.03C14.3625 14.6866 14.0877 15.3199 13.75 15.92C13.3433 16.6443 12.8 17.2827 12.15 17.8C11.9707 17.6086 11.7767 17.4315 11.57 17.2701C11.3618 17.0582 11.1223 16.8794 10.86 16.74C11.8664 15.9883 12.6423 14.9699 13.1 13.8C13.6523 12.2966 13.9104 10.7009 13.86 9.10003H14.86C15.1388 9.07954 15.4187 9.1205 15.68 9.22003M21.34 8.51001C21.4 8.51001 21.4 8.63005 21.34 8.74005L21.29 8.92004V19.3801H19.58V8.45001H20.58C20.8349 8.42109 21.0929 8.44146 21.34 8.51001Z" fill="#231916"/>
<path d="M27.9 9.35004C27.9302 9.39238 27.9464 9.44308 27.9464 9.49506C27.9464 9.54703 27.9302 9.59767 27.9 9.64001C27.904 9.70856 27.8826 9.77618 27.84 9.83002V15.59H29.61L31.09 15.41L31.26 16.82C30.5796 16.9447 29.8912 17.0216 29.2 17.05C28.49 17.11 27.72 17.11 27.07 17.11H26.13V9.30005H27.25C27.4665 9.28707 27.6836 9.28707 27.9 9.30005M35.8 8.48004C35.87 8.54004 35.87 8.60002 35.8 8.77002L35.74 8.95001V19.35H34.09V14.54H33.21V18.8801H31.62V8.60004H32.74C32.9624 8.58284 33.1856 8.6206 33.39 8.71002C33.39 8.71002 33.39 8.77001 33.33 8.95001L33.26 9.13C33.26 9.25 33.26 9.30004 33.26 9.42004V13.1201H34.14V8.42004H35.14C35.56 8.42004 35.79 8.42004 35.85 8.48004" fill="#231916"/>
<path d="M45.95 13.7099C46.0289 13.729 46.1111 13.729 46.19 13.7099C46.12 13.7699 46.07 13.8899 45.95 13.9499M45.95 17.5899H49.48V19.0599H45.95V17.5899ZM45.95 12.3H47.66V16.36H49.31V9.41995C49.31 9.29995 49.37 9.18992 49.37 9.06992C49.3938 8.96565 49.4307 8.86486 49.48 8.76993C49.5151 8.72981 49.5345 8.67832 49.5345 8.62497C49.5345 8.57162 49.5151 8.52007 49.48 8.47995C49.1718 8.41058 48.8545 8.39033 48.54 8.41995H47.66V10.9499H45.95V12.3ZM45.95 8.94992V10.42H43.82V10.7699C43.7751 11.4299 43.9865 12.0818 44.41 12.5899C44.8015 13.0961 45.3391 13.4696 45.95 13.6599V13.9499C45.89 14.0599 45.77 14.18 45.65 14.36C45.53 14.54 45.36 14.77 45.18 15.06C44.6422 14.8024 44.1598 14.4424 43.76 14C43.3778 13.6615 43.077 13.241 42.88 12.7699C42.674 13.2043 42.3733 13.587 42 13.8899C41.4823 14.3513 40.9076 14.7446 40.29 15.06C40.11 14.83 39.93 14.66 39.76 14.42C39.59 14.18 39.28 13.9999 39.11 13.8299C39.5267 13.7734 39.928 13.634 40.29 13.42C40.6702 13.2352 41.0101 12.9768 41.29 12.6599C41.5228 12.3755 41.7399 12.0783 41.94 11.7699C42.09 11.5449 42.17 11.2804 42.17 11.0099V10.42H39.87V8.94992H45.95ZM45.95 10.9499H45.77V12.3H45.95V10.9499ZM45.95 17.5899V19.0599H40.64V15.5399H41.64C41.9016 15.5216 42.1641 15.5592 42.41 15.65C42.47 15.71 42.47 15.7699 42.41 15.9499L42.35 16.13L42.29 16.36V17.5899H45.95Z" fill="#231916"/>
<path d="M59.04 9.58995C59.4995 10.1319 59.7517 10.8194 59.7517 11.53C59.7517 12.2405 59.4995 12.928 59.04 13.47C58.4048 14.0247 57.5828 14.3177 56.74 14.29V12.8799C57.1063 12.8988 57.4654 12.7731 57.74 12.53C57.8631 12.3953 57.9583 12.2377 58.0201 12.066C58.0819 11.8944 58.109 11.7122 58.1 11.53C58.1108 11.3476 58.0845 11.1649 58.0226 10.993C57.9607 10.8211 57.8645 10.6636 57.74 10.53C57.6091 10.3983 57.4532 10.2942 57.2815 10.2238C57.1097 10.1534 56.9256 10.1181 56.74 10.12V8.76994C57.5828 8.74219 58.4048 9.03525 59.04 9.58995ZM56.74 16.76V15.2899H63.38V19.4H61.67V16.76H56.74ZM63.47 8.52995C63.4954 8.57587 63.5087 8.62751 63.5087 8.67998C63.5087 8.73245 63.4954 8.78402 63.47 8.82994L63.4 8.99998C63.3759 9.09852 63.3759 9.20143 63.4 9.29997V14.6399H61.69V13.47H59.86V12.06H61.69V11.06H59.86V9.65996H61.69V8.41997H62.69C62.9515 8.39488 63.2154 8.41517 63.47 8.47996M56.74 14.24H56.68C55.8356 14.2781 55.0098 13.9837 54.38 13.42C53.9205 12.878 53.6683 12.1905 53.6683 11.48C53.6683 10.7694 53.9205 10.0819 54.38 9.53996C54.6845 9.24966 55.0466 9.02663 55.4428 8.88536C55.8391 8.74409 56.2606 8.68774 56.68 8.71995H56.74V10.0699H56.68C56.4945 10.0691 56.3108 10.105 56.1392 10.1753C55.9676 10.2457 55.8115 10.3492 55.68 10.48C55.5554 10.6136 55.4593 10.7711 55.3975 10.943C55.3356 11.1149 55.3092 11.2976 55.32 11.48C55.3109 11.6622 55.3381 11.8443 55.3999 12.016C55.4617 12.1876 55.5569 12.3453 55.68 12.48C55.9557 12.7213 56.314 12.8466 56.68 12.8299H56.74V14.24ZM56.74 16.7099H54.5V15.24H56.74V16.7099Z" fill="#231916"/>
</g>
<defs>
<clipPath id="clip0_8063_7564">
<rect width="76.33" height="29.12" fill="white"/>
</clipPath>
</defs>
</svg>
