<svg width="75" height="67" viewBox="0 0 75 67" fill="none" xmlns="http://www.w3.org/2000/svg">
<g clip-path="url(#clip0_8063_5685)">
<path d="M73.54 59.89L40.7599 2.58C38.9799 -0.530002 35.76 -0.530002 33.98 2.58L1.06995 60.02C-0.930052 63.31 0.769978 65.89 4.59998 65.89H69.8799C74.0699 65.89 75.5 63.42 73.54 59.89Z" fill="white"/>
<path d="M73.54 59.89L40.7599 2.58C38.9799 -0.530002 35.76 -0.530002 33.98 2.58L1.06995 60.02C-0.930052 63.31 0.769978 65.89 4.59998 65.89H69.8799C74.0699 65.89 75.5 63.42 73.54 59.89Z" stroke="#D20D18" stroke-width="0.49"/>
<path d="M72.07 60.37L39.57 3.52C38.45 1.4 36.33 1.52 35.2 3.52L2.53999 60.52C1.35999 62.52 2.59998 64.17 4.89998 64.17H69.53C72.13 64.17 73.19 62.41 72.07 60.41" fill="#D20D18"/>
<path d="M37.22 12.75L11.68 57.66H63.28" fill="#F8B500"/>
<path d="M37.22 12.75L11.68 57.66H63.28L37.22 12.75Z" stroke="#D20D18" stroke-width="0.56"/>
<path d="M32.85 30.44L37.28 26.1L41.76 30.44V38.32H47.9V45.9H41.7V54.49H32.85V45.9H26.72V38.32H32.85" fill="#231916"/>
<path d="M40.34 34.38V34.8H37.34V37.5H37.11V34.38M37.11 33.56V33.14C37.619 33.1891 38.1309 33.0846 38.58 32.84C38.7069 32.7817 38.8173 32.6926 38.9011 32.5809C38.9849 32.4691 39.0395 32.3382 39.06 32.2C39.0491 32.05 38.999 31.9056 38.9148 31.781C38.8305 31.6564 38.7151 31.5561 38.58 31.49C38.1281 31.254 37.6177 31.1533 37.11 31.2V30.79C37.7441 30.741 38.3782 30.8839 38.93 31.2C39.1194 31.2914 39.2801 31.4329 39.3947 31.6092C39.5093 31.7855 39.5734 31.9898 39.58 32.2C39.565 32.4003 39.4968 32.593 39.3826 32.7583C39.2683 32.9235 39.1121 33.0553 38.93 33.14C38.3765 33.4516 37.7437 33.5942 37.11 33.55M37.11 37.49H36.97V34.79H33.97V34.37H37.15L37.11 37.49ZM37.11 30.79V31.2C36.5992 31.1547 36.0859 31.2553 35.63 31.49C35.4961 31.5566 35.3822 31.6573 35.2997 31.7819C35.2172 31.9066 35.169 32.0508 35.16 32.2C35.1777 32.3378 35.2301 32.4688 35.3123 32.5807C35.3946 32.6926 35.5038 32.7819 35.63 32.84C36.0832 33.0831 36.5979 33.1874 37.11 33.14V33.55C36.4731 33.595 35.8369 33.4524 35.28 33.14C35.1058 33.0514 34.9589 32.9171 34.855 32.7516C34.7511 32.5861 34.6941 32.3954 34.69 32.2C34.6853 31.9949 34.7381 31.7926 34.8423 31.6159C34.9466 31.4391 35.0982 31.2951 35.28 31.2C35.8351 30.8831 36.4727 30.7402 37.11 30.79Z" fill="white"/>
<path d="M38.04 49.67C38.0869 49.6683 38.1334 49.6784 38.1753 49.6994C38.2173 49.7204 38.2532 49.7515 38.28 49.79L38.04 50.02M38.04 52.31H40.22V52.72H38.04V52.31ZM38.04 48.38H39.51V51.14H40.05V46.32V46.2H39.46V47.96H37.99L38.04 48.38ZM36.63 46.49H36.74L36.68 46.67L36.63 46.79V46.96C36.5705 47.541 36.7156 48.1245 37.04 48.61C37.3259 49.0053 37.6621 49.3616 38.04 49.67V50.02L37.92 50.2C37.5656 49.9306 37.2494 49.6144 36.98 49.26C36.6643 48.8837 36.4416 48.4384 36.33 47.96C36.1844 48.448 35.9237 48.8938 35.57 49.26C35.2229 49.6483 34.8222 49.985 34.38 50.26L34.02 49.85C34.6618 49.5631 35.2021 49.0891 35.57 48.49C35.9602 47.8964 36.1655 47.2004 36.16 46.49H36.63ZM38.04 47.96H37.81V48.37H38.04V47.96ZM38.04 52.31V52.72H35.39V50.61H35.8H35.98L35.92 50.68V52.26L38.04 52.31Z" fill="white"/>
</g>
<defs>
<clipPath id="clip0_8063_5685">
<rect width="74.65" height="66.14" fill="white"/>
</clipPath>
</defs>
</svg>
