<svg width="71" height="71" viewBox="0 0 71 71" fill="none" xmlns="http://www.w3.org/2000/svg">
<g clip-path="url(#clip0_8072_613)">
<path d="M5.84999 70.4001C5.11285 70.4108 4.38101 70.274 3.69751 69.9977C3.01401 69.7215 2.39266 69.3113 1.86997 68.7914C1.34728 68.2715 0.933821 67.6524 0.653903 66.9704C0.373985 66.2884 0.233265 65.5573 0.240008 64.8201" stroke="#231F20" stroke-width="0.49" stroke-linecap="round" stroke-linejoin="round"/>
<path d="M0.25 64.7901V5.83008" stroke="#231F20" stroke-width="0.49" stroke-linecap="round" stroke-linejoin="round"/>
<path d="M0.240005 5.82996C0.247557 4.3618 0.816427 2.95214 1.83 1.88996C2.35563 1.36561 2.97944 0.949997 3.66579 0.666878C4.35213 0.38376 5.08756 0.238725 5.83 0.239999" stroke="#231F20" stroke-width="0.49" stroke-linecap="round" stroke-linejoin="round"/>
<path d="M5.85001 0.23999H65" stroke="#231F20" stroke-width="0.49" stroke-linecap="round" stroke-linejoin="round"/>
<path d="M65 0.23999C66.4793 0.247815 67.8962 0.837579 68.9441 1.88177C69.992 2.92597 70.5869 4.34064 70.6 5.81995" stroke="#231F20" stroke-width="0.49" stroke-linecap="round" stroke-linejoin="round"/>
<path d="M70.6 5.83008V64.7901" stroke="#231F20" stroke-width="0.49" stroke-linecap="round" stroke-linejoin="round"/>
<path d="M70.6 64.79C70.6037 65.5224 70.4594 66.248 70.1759 66.9233C69.8924 67.5987 69.4754 68.2098 68.95 68.72C68.4336 69.2429 67.8186 69.6579 67.1405 69.9412C66.4624 70.2244 65.7348 70.3702 65 70.37" stroke="#231F20" stroke-width="0.49" stroke-linecap="round" stroke-linejoin="round"/>
<path d="M65 70.3701H5.85001" stroke="#231F20" stroke-width="0.49" stroke-linecap="round" stroke-linejoin="round"/>
<path d="M5.84999 68.25C5.3911 68.2551 4.93574 68.1694 4.51012 67.9977C4.08449 67.8261 3.69701 67.572 3.37 67.25C2.70109 66.6003 2.31643 65.7124 2.3 64.78" stroke="#231F20" stroke-width="0.49" stroke-linecap="round" stroke-linejoin="round"/>
<path d="M2.3 64.7901V5.83008" stroke="#231F20" stroke-width="0.49" stroke-linecap="round" stroke-linejoin="round"/>
<path d="M2.3 5.83009C2.30706 5.36823 2.40519 4.91234 2.58881 4.48848C2.77242 4.06463 3.03789 3.68117 3.37 3.36012C3.69669 3.0377 4.0841 2.7833 4.5098 2.61165C4.9355 2.44 5.39102 2.3545 5.84999 2.36012" stroke="#231F20" stroke-width="0.49" stroke-linecap="round" stroke-linejoin="round"/>
<path d="M5.85001 2.36011H65" stroke="#231F20" stroke-width="0.49" stroke-linecap="round" stroke-linejoin="round"/>
<path d="M65 2.39995C65.4584 2.39185 65.9137 2.47599 66.3389 2.64738C66.7641 2.81878 67.1505 3.07392 67.4752 3.39763C67.7998 3.72134 68.0561 4.107 68.2287 4.53172C68.4013 4.95644 68.4868 5.41151 68.48 5.86992" stroke="#231F20" stroke-width="0.49" stroke-linecap="round" stroke-linejoin="round"/>
<path d="M68.48 5.83008V64.7901" stroke="#231F20" stroke-width="0.49" stroke-linecap="round" stroke-linejoin="round"/>
<path d="M68.48 64.79C68.4854 65.2476 68.399 65.7016 68.2257 66.1251C68.0525 66.5487 67.7961 66.9332 67.4716 67.2558C67.1471 67.5784 66.7611 67.8327 66.3366 68.0035C65.912 68.1743 65.4575 68.2581 65 68.25" stroke="#231F20" stroke-width="0.49" stroke-linecap="round" stroke-linejoin="round"/>
<path d="M65 68.25H5.85001" stroke="#231F20" stroke-width="0.49" stroke-linecap="round" stroke-linejoin="round"/>
<path d="M67.95 55.0901H2.84" stroke="#231F20" stroke-width="0.49" stroke-linecap="round" stroke-linejoin="round"/>
<path d="M25.72 59.2599V60.4H23.54V59.23M23.54 65.17V64.05C23.6517 64.0502 23.7609 64.0169 23.8536 63.9545C23.9462 63.8922 24.0181 63.8035 24.06 63.7C24.198 63.4898 24.2646 63.2409 24.25 62.99C24.2546 62.7244 24.1891 62.4622 24.06 62.23C24.0073 62.1387 23.9315 62.0629 23.8402 62.0103C23.7489 61.9576 23.6454 61.9299 23.54 61.93V60.7599C23.8134 60.7641 24.0823 60.8302 24.3265 60.9531C24.5707 61.0761 24.7839 61.2528 24.95 61.47C25.2808 61.9 25.4602 62.4274 25.4602 62.97C25.4602 63.5126 25.2808 64.0399 24.95 64.47C24.7789 64.6772 24.5632 64.8433 24.3191 64.9558C24.075 65.0683 23.8087 65.1244 23.54 65.1199M23.54 57.47H24.83V58.65H23.54V57.47ZM29.38 57.24C29.38 57.24 29.38 57.35 29.38 57.47L29.32 57.66V66.53H28.02V62.4999H27.43V66.2599H26.13V57.4H27.02C27.31 57.4 27.43 57.4 27.49 57.47C27.55 57.54 27.55 57.47 27.49 57.65L27.43 57.8199V61.23H28.02V57.23H28.84C29.14 57.23 29.32 57.23 29.38 57.29M23.54 60.4H21.41V59.23H23.54V60.4ZM23.54 58.7H22.54V57.52H23.54V58.7ZM23.54 60.7599V61.93C23.4331 61.9292 23.3279 61.9564 23.2349 62.0091C23.1419 62.0617 23.0643 62.1379 23.01 62.23C22.8885 62.4647 22.8267 62.7257 22.83 62.99C22.8171 63.2394 22.8799 63.4868 23.01 63.7C23.0536 63.8043 23.1273 63.8933 23.2217 63.9556C23.3161 64.018 23.4269 64.0508 23.54 64.05V65.17H23.47C23.2016 65.1723 22.936 65.1152 22.6922 65.0029C22.4484 64.8905 22.2325 64.7256 22.06 64.52C21.7488 64.0709 21.5846 63.5363 21.59 62.99C21.5755 62.4455 21.7406 61.9113 22.06 61.47C22.2182 61.2445 22.4298 61.0617 22.6758 60.9378C22.9218 60.8139 23.1947 60.7528 23.47 60.7599H23.54Z" fill="#231F20"/>
<path d="M46.66 58.02V59.26H46.59V58.02M46.59 63.73L46.95 64.08C46.83 64.2 46.71 64.3701 46.59 64.4901V63.73ZM46.59 61.73H47.31V66.4H48.55V57.81L48.6 57.64C48.6297 57.5956 48.6455 57.5435 48.6455 57.4901C48.6455 57.4367 48.6297 57.3844 48.6 57.34C48.405 57.3061 48.2078 57.286 48.01 57.28H47.31V60.45H46.59V61.73ZM50.37 57.32C50.43 57.32 50.43 57.44 50.37 57.56L50.31 57.73V66.61H49.01V57.26H49.85C50.14 57.26 50.31 57.26 50.37 57.32ZM46.59 59.26H45.36V59.85C45.3465 60.6669 45.4647 61.4807 45.71 62.26C45.8973 62.8061 46.1971 63.3069 46.59 63.73V64.4901V64.61C46.4304 64.7563 46.3071 64.9377 46.23 65.14C45.8273 64.8518 45.504 64.4666 45.29 64.02C45.0414 63.5465 44.8821 63.0312 44.82 62.5C44.6762 63.0191 44.4572 63.5144 44.17 63.97C43.8912 64.4388 43.5324 64.8551 43.11 65.2C42.9387 65.0587 42.7813 64.9013 42.64 64.73C42.5148 64.5448 42.3553 64.3852 42.17 64.26C42.8656 63.7583 43.3978 63.0626 43.7 62.26C44.0063 61.4758 44.1656 60.6419 44.17 59.8V59.21H42.81V57.97H46.64L46.59 59.26ZM46.59 60.4901H46.18V61.72H46.59V60.4901Z" fill="#231F20"/>
<path d="M2.55 49.7699L62.56 2.63989" stroke="#231F20" stroke-width="0.65" stroke-linecap="round" stroke-linejoin="round"/>
<path d="M2.75999 52.69L66.17 3.21997" stroke="#231F20" stroke-width="0.65" stroke-linecap="round" stroke-linejoin="round"/>
<path d="M4.71001 54.8101L68.09 5.08008" stroke="#231F20" stroke-width="0.65" stroke-linecap="round" stroke-linejoin="round"/>
<path d="M8.81 54.98L68.4 8.02002" stroke="#231F20" stroke-width="0.65" stroke-linecap="round" stroke-linejoin="round"/>
<path d="M16.31 40.7V49.01C16.31 50.2 16.89 50.38 17.65 50.46H53.19C54.19 50.31 54.47 50.2 54.47 48.61V40.56L36.1 8.71999C35.37 7.71999 34.53 7.95997 33.91 9.00997" fill="#0054A0"/>
<path d="M15.11 40.3101V49.6601" stroke="#0054A0" stroke-width="0.45"/>
<path d="M15.11 49.6599C15.29 51.0299 16.05 51.4399 17.4 51.4399" stroke="#0054A0" stroke-width="0.45"/>
<path d="M17.4 51.4399H54.43" stroke="#0054A0" stroke-width="0.45"/>
<path d="M54.43 51.4C55.3 51.21 55.74 50.99 55.74 49.29" stroke="#0054A0" stroke-width="0.45"/>
<path d="M55.74 49.33V40.31L36.43 6.76001" stroke="#0054A0" stroke-width="0.45"/>
<path d="M36.42 6.75999C36.2336 6.54498 35.9975 6.37872 35.7323 6.27555C35.467 6.17238 35.1807 6.13544 34.8979 6.16795C34.6152 6.20046 34.3447 6.3014 34.1098 6.46208C33.8749 6.62275 33.6828 6.8383 33.55 7.09001" stroke="#0054A0" stroke-width="0.45"/>
<path d="M33.55 7.09009L15.11 40.3101" stroke="#0054A0" stroke-width="0.45"/>
<path d="M24.49 45.5601V45.7101V45.7801C24.4793 45.8261 24.4793 45.874 24.49 45.9201V46.9201H26.75V47.7101H21.4V46.9201H23.69V45.5701H24.23C24.3398 45.56 24.4502 45.56 24.56 45.5701M22.85 42.5701C22.85 42.5701 22.85 42.6401 22.85 42.7101V42.8201V42.9701V44.5201H26.3V45.3201H21.92V42.5701H22.75H22.85Z" fill="white"/>
<path d="M33.37 48.2499V47.4499H33.84V48.2499M33.37 46.7599V42.2199H33.44C33.5631 42.2089 33.6869 42.2089 33.81 42.2199C33.81 42.2199 33.81 42.2899 33.81 42.3699C33.81 42.4499 33.81 42.4799 33.81 42.4799V46.7199L33.37 46.7599ZM31.62 42.8799C31.8573 43.2199 31.9831 43.6253 31.98 44.0399C31.9895 44.4648 31.8634 44.8816 31.62 45.2299C31.4908 45.3923 31.3241 45.5208 31.1342 45.6044C30.9444 45.6881 30.737 45.7242 30.53 45.7099V44.9399C30.6238 44.9455 30.7173 44.9252 30.8002 44.8811C30.8831 44.837 30.9523 44.7708 31 44.6899C31.1173 44.4945 31.1698 44.267 31.15 44.0399C31.169 43.8224 31.1163 43.6047 31 43.4199C30.9523 43.339 30.8831 43.2728 30.8002 43.2287C30.7173 43.1846 30.6238 43.1643 30.53 43.1699V42.3999C30.7362 42.3835 30.9433 42.4178 31.1333 42.4997C31.3233 42.5816 31.4903 42.7087 31.62 42.8699M33.37 46.7499H32.92V42.2199H33.36L33.37 46.7499ZM33.37 48.2399H30.49V47.4399H33.37V48.2399ZM30.49 45.6999C30.2831 45.7134 30.076 45.6768 29.8863 45.5932C29.6966 45.5096 29.5297 45.3816 29.4 45.2199C29.144 44.8778 29.0166 44.4565 29.04 44.0299C29.0211 43.6131 29.1485 43.2028 29.4 42.8699C29.5308 42.71 29.698 42.5839 29.8877 42.5021C30.0774 42.4203 30.284 42.3853 30.49 42.3999V43.1599C30.3976 43.1618 30.3068 43.1855 30.2252 43.2289C30.1436 43.2723 30.0733 43.3343 30.02 43.4099C29.8931 43.591 29.8298 43.809 29.84 44.0299C29.8284 44.2603 29.8915 44.4883 30.02 44.6799C30.0669 44.7616 30.1358 44.8285 30.219 44.8727C30.3021 44.9169 30.3961 44.9368 30.49 44.9299V45.6999ZM30.49 47.4399V48.2399H29.49V46.2399H29.97C30.102 46.213 30.238 46.213 30.37 46.2399C30.3876 46.2884 30.3876 46.3414 30.37 46.3899C30.3618 46.4261 30.3618 46.4637 30.37 46.4999V47.3699L30.49 47.4399Z" fill="white"/>
<path d="M41.12 42.6599C41.12 42.6599 41.12 42.7299 41.12 42.7999V42.8799V45.7799H39.41V45.8899V46.0299C39.41 46.0299 39.41 46.0999 39.41 46.1799V46.8299H41.74V47.6599H39.08V45.0199H40.36V44.2599H39.08V43.4899H40.36V42.6199H40.83C41.05 42.6199 41.16 42.6199 41.2 42.6199M39.08 47.6199H36.39V46.7899H38.61V45.7899H36.92V42.6299H37.43C37.62 42.6299 37.73 42.6299 37.76 42.6299V42.7399V42.8499V43.4599H39.03V44.2299H37.76V44.9899H39.03L39.08 47.6199Z" fill="white"/>
<path d="M46.5 44.2601C46.9637 44.2454 47.4239 44.3451 47.84 44.5501C48.0016 44.6211 48.1395 44.7371 48.237 44.8843C48.3345 45.0315 48.3876 45.2035 48.39 45.3801C48.3871 45.5236 48.3492 45.6643 48.2794 45.7898C48.2097 45.9153 48.1104 46.0218 47.99 46.1001C47.6609 46.2804 47.2949 46.383 46.92 46.4001V46.9801H49.18V47.7401H46.52V45.7401C46.791 45.7489 47.0615 45.7117 47.32 45.6301C47.5 45.5601 47.57 45.4801 47.57 45.3401C47.5688 45.2656 47.544 45.1935 47.499 45.1342C47.4541 45.0748 47.3913 45.0313 47.32 45.0101C47.0637 44.9163 46.7929 44.8689 46.52 44.8701M46.52 43.3501H48.81V44.0401H46.52V43.3501ZM46.52 42.3501H47.65V43.0401H46.52V42.3501ZM46.08 46.9901V46.4001C45.7246 46.3739 45.3812 46.2605 45.08 46.0701C44.949 46.0004 44.8391 45.8968 44.7617 45.7701C44.6843 45.6435 44.6423 45.4985 44.64 45.3501C44.6385 45.1727 44.6901 44.9988 44.7881 44.851C44.8861 44.7031 45.026 44.5879 45.19 44.5201C45.6194 44.3121 46.0932 44.2126 46.57 44.2301V44.8801C46.2971 44.8789 46.0263 44.9263 45.77 45.0201C45.6987 45.0413 45.6359 45.0848 45.591 45.1442C45.546 45.2035 45.5212 45.2757 45.52 45.3501C45.52 45.4601 45.59 45.5701 45.77 45.6401C46.0285 45.7217 46.299 45.7588 46.57 45.7501V47.7501H43.88V46.9901H46.08ZM46.52 42.9901H45.39V42.4001H46.52V42.9901ZM46.52 43.9901H44.19V43.4001H46.52V43.9901Z" fill="white"/>
<path d="M44.46 31.7501L44.32 33.5201H45.92L45.63 31.7501H45.31V31.4601C45.31 31.4601 45.71 31.0201 45.2 30.8101L45.09 30.5501L45.31 30.4001C44.8622 29.2365 44.3514 28.0982 43.78 26.9901C43.78 26.9901 42.14 24.6001 41.34 24.6701L40.94 24.0601C41.2493 23.8349 41.4774 23.5157 41.59 23.1501C41.59 23.1501 41.99 22.9001 41.78 22.0301C41.6699 21.7597 41.4839 21.5269 41.2443 21.3601C41.0046 21.1933 40.7218 21.0995 40.43 21.0901C40.1016 21.1154 39.793 21.2573 39.5601 21.4902C39.3272 21.7231 39.1853 22.0317 39.16 22.3601C39.154 22.7106 39.2371 23.0569 39.4015 23.3664C39.5659 23.676 39.8063 23.9388 40.1 24.1301L39.7 24.7101C39.7 24.7101 38.94 24.7101 38.18 25.9101C38.18 25.9101 35.92 29.3501 35.63 30.0401C35.63 30.0401 35.63 30.2201 35.56 30.3001C35.49 30.3801 35.23 30.3701 35.23 30.4801C35.1469 30.3803 35.0289 30.3159 34.9 30.3001L35.05 30.1501C35.05 30.1501 33.63 26.6301 33.23 25.8701C33.1353 25.5915 32.9778 25.3384 32.7698 25.1303C32.5617 24.9222 32.3086 24.7648 32.03 24.6701C32.03 24.6701 31.12 24.3101 30.97 24.0201C30.9403 23.6314 31.0581 23.2458 31.3 22.9401C31.4367 22.7962 31.5363 22.6212 31.59 22.4301H32.43V22.1401H31.59C31.5608 22.007 31.499 21.8833 31.41 21.7801C31.41 21.7801 31.34 20.9801 30.83 20.9101C30.6002 20.8683 30.3631 20.9186 30.17 21.0501C30.0292 20.9599 29.8613 20.9215 29.6952 20.9416C29.5292 20.9617 29.3753 21.0389 29.26 21.1601C29.0505 21.4513 28.9385 21.8013 28.94 22.1601H28.07V22.4001H28.97C29.002 22.5491 29.0524 22.6935 29.12 22.8301C29.2561 23.064 29.4135 23.285 29.59 23.4901V24.0301C29.3151 24.141 29.0348 24.2378 28.75 24.3201L27.84 24.5001C26.8517 25.3876 26.1254 26.5289 25.74 27.8001C25.5191 28.5049 25.4177 29.2418 25.44 29.9801C25.44 29.9801 25.15 30.0501 25.08 30.2701C25.08 30.2701 24.83 30.5901 25.37 30.9201C25.2408 31.1393 25.1654 31.3861 25.15 31.6401V39.8401H25.59V31.6801C25.59 31.6801 25.77 31.0301 25.95 30.9601C25.95 30.9601 26.35 31.1401 26.46 30.9601C26.46 30.9601 26.57 30.7401 26.24 30.5301C26.2078 30.241 26.2078 29.9492 26.24 29.6601C26.24 29.6601 26.6 29.8401 26.64 29.2601C26.7301 28.2039 27.2116 27.2195 27.99 26.5001C27.99 26.5001 27.77 28.1301 27.48 29.3301C27.48 29.3301 26.71 31.7601 27.62 31.8601C27.62 31.8601 27.55 32.5501 27.55 33.1301C27.4702 35.0286 27.5303 36.9304 27.73 38.8201H28.2C28.2 38.8201 28.1 39.2301 27.2 39.7001C27.2 39.7001 26.2 40.0201 26.58 40.2801C26.58 40.2801 26.95 40.5701 27.85 40.2801C28.0649 40.1981 28.2723 40.0977 28.47 39.9801C28.47 39.9801 28.47 40.3101 29.09 40.3101C29.09 40.3101 29.6 40.3101 29.6 39.8401C29.5599 39.6986 29.4993 39.5639 29.42 39.4401C29.3283 39.247 29.2903 39.0329 29.31 38.8201H29.78C29.78 38.8201 29.6 37.5201 29.57 36.9701C29.57 36.9701 29.42 33.6401 29.93 33.2701C29.93 33.2701 30.44 33.0201 30.44 35.9901C30.44 35.9901 30.44 36.6801 30.33 37.2301C30.2383 37.7427 30.2383 38.2675 30.33 38.7801H30.58C30.5995 39.0316 30.5511 39.2836 30.44 39.5101C30.3889 39.5628 30.3498 39.6259 30.3254 39.6951C30.3009 39.7643 30.2917 39.838 30.2984 39.9111C30.305 39.9842 30.3274 40.055 30.3639 40.1187C30.4004 40.1824 30.4502 40.2374 30.51 40.2801C30.6606 40.3572 30.833 40.3804 30.9986 40.3458C31.1641 40.3112 31.3129 40.221 31.42 40.0901C31.42 40.0901 31.42 39.9501 31.71 40.0901C31.71 40.0901 32.76 40.7401 33.39 40.2001C33.39 40.2001 33.53 40.0201 33.2 39.8401C33.2 39.8401 31.78 39.3701 31.68 38.8401H32.04C32.04 38.8401 32.22 37.4201 32.29 36.6301C32.29 36.6301 32.47 34.0201 32.51 31.7301H32.92C32.92 31.7301 32.62 27.6701 32.48 27.0901C32.48 27.0901 33.86 30.4301 33.97 30.6501H34.26C34.26 30.6501 34.26 31.2901 34.84 31.2901C34.84 31.2901 35.17 31.2901 35.28 31.1901C35.39 31.0901 35.83 31.5501 36.12 30.5001L36.3 30.3201L36.44 30.4301C37.3136 29.4987 38.0509 28.4482 38.63 27.3101C38.63 27.3101 38.45 28.9801 38.45 29.3101C38.45 29.3101 38.63 29.3101 38.59 29.5701C38.59 29.5701 37.17 36.8901 37.13 37.0001L38.3 37.3601C38.4851 37.3876 38.655 37.4783 38.7808 37.6168C38.9065 37.7554 38.9805 37.9332 38.99 38.1201C39.0318 38.4521 39.0318 38.788 38.99 39.1201C38.99 39.1201 37.57 39.5901 37.68 39.7301C37.7932 39.8849 37.9453 40.0071 38.1209 40.0844C38.2965 40.1617 38.4893 40.1912 38.68 40.1701C38.9686 40.1235 39.2424 40.0105 39.48 39.8401L39.62 40.0901H40.03C40.03 40.0901 39.84 37.9501 39.84 37.7001H40.84C40.84 37.7001 40.7 39.9801 40.73 40.0901H41.17L41.28 39.8701C41.5878 40.0792 41.9602 40.1714 42.33 40.1301C42.33 40.1301 42.99 39.9501 42.99 39.6601C42.99 39.6601 42.92 39.4801 42.22 39.3001C42.22 39.3001 41.49 39.1901 41.6 38.7801L41.9 37.5501L44.04 37.0101C44.04 37.0101 43.04 31.3501 42.92 30.8101C42.92 30.8101 42.73 29.5401 42.7 29.4301H42.99C42.8769 28.7565 42.7301 28.089 42.55 27.4301C42.55 27.4301 44.3 30.4301 44.44 30.6601H44.63L44.7 30.8701C44.7 30.8701 44.37 31.3801 44.85 31.4501V31.7101" fill="white"/>
</g>
<defs>
<clipPath id="clip0_8072_613">
<rect width="70.85" height="70.61" fill="white"/>
</clipPath>
</defs>
</svg>
