<svg width="77" height="67" viewBox="0 0 77 67" fill="none" xmlns="http://www.w3.org/2000/svg">
<g clip-path="url(#clip0_8063_6359)">
<path d="M1.11993 60.23L34.6199 2.62001C36.4499 -0.549992 39.6899 -0.549992 41.6199 2.62001L75.2 60.3C77.2 63.6 75.5499 66.19 71.6099 66.19H4.84002C0.590023 66.19 -0.88007 63.71 1.11993 60.19" fill="white"/>
<path d="M1.11993 60.23L34.6199 2.62001C36.4499 -0.549992 39.6899 -0.549992 41.6199 2.62001L75.2 60.3C77.2 63.6 75.5499 66.19 71.6099 66.19H4.84002C0.590023 66.23 -0.88007 63.75 1.11993 60.23Z" stroke="#D20D18" stroke-width="0.49"/>
<path d="M2.60009 60.87L35.8 3.74001C37.04 1.62001 39.1601 1.68001 40.3401 3.74001L73.7201 60.99C74.9101 63.05 73.72 64.64 71.3 64.64H5.19006C2.60006 64.64 1.48009 62.88 2.60009 60.87Z" fill="#D20D18"/>
<path d="M38.22 13.03L64.41 58.18H11.62" fill="#F8B500"/>
<path d="M38.22 13.03L64.41 58.18H11.62L38.22 13.03Z" stroke="#D20D18" stroke-width="0.55"/>
<path d="M49.43 55.7H43.3501V43.48C43.3501 39.6 41.64 39.54 39.75 39.54V40.95C39.46 42.19 38.4001 42.3 37.3401 41.83L29.07 36.66C28.13 35.6 28.49 35.6 29.07 34.83L37.16 30.72C37.93 30.07 39.28 29.83 39.75 31.19V33.13C44.06 33.13 49.43 33.83 49.43 41.36V55.7Z" fill="#231916"/>
</g>
<defs>
<clipPath id="clip0_8063_6359">
<rect width="76.3" height="66.47" fill="white"/>
</clipPath>
</defs>
</svg>
