<svg width="71" height="71" viewBox="0 0 71 71" fill="none" xmlns="http://www.w3.org/2000/svg">
<g clip-path="url(#clip0_8068_5394)">
<path d="M24.34 43.54C23.2891 42.919 22.4308 42.0191 21.86 40.94C21.2544 39.786 20.9353 38.5033 20.93 37.2H24.74C24.772 37.7916 24.9433 38.3672 25.24 38.88C25.5046 39.3527 25.887 39.7488 26.35 40.03C26.8009 40.3076 27.3206 40.4531 27.85 40.45C28.4753 40.4565 29.0859 40.26 29.59 39.89C30.1201 39.4844 30.5339 38.9464 30.79 38.33C31.0885 37.6182 31.235 36.8518 31.22 36.08C31.2385 35.2876 31.0884 34.5002 30.7799 33.77C30.52 33.1503 30.0987 32.6117 29.56 32.21C29.0478 31.8322 28.4263 31.6321 27.79 31.64C27.1531 31.6079 26.5227 31.7795 25.99 32.13C25.457 32.5298 25.0507 33.075 24.82 33.7H21.24L22.24 19.52H33.93V23.72H25.49L24.97 29.92H25.11C25.4922 29.288 26.0335 28.7673 26.68 28.41C27.3655 28.0213 28.1419 27.8212 28.93 27.83C30.0482 27.8133 31.141 28.1647 32.04 28.83C33.014 29.5749 33.7676 30.5703 34.22 31.71C34.7592 33.0432 35.0212 34.4723 34.99 35.91C35.024 37.4256 34.7164 38.9295 34.09 40.31C33.5353 41.5246 32.6564 42.5626 31.55 43.31C30.4444 44.049 29.1396 44.4327 27.81 44.41C26.5958 44.4404 25.3962 44.1396 24.34 43.54Z" fill="#231F20"/>
<path d="M39.34 43.0001C38.0823 41.8274 37.1753 40.3283 36.72 38.6701C35.4935 34.1926 35.4935 29.4676 36.72 24.9901C37.1795 23.3314 38.0899 21.8326 39.35 20.6601C40.4942 19.7032 41.9383 19.179 43.4299 19.179C44.9215 19.179 46.3658 19.7032 47.51 20.6601C48.7656 21.8402 49.675 23.3409 50.14 25.0001C51.3612 29.4783 51.3612 34.2019 50.14 38.6801C49.6749 40.3335 48.7653 41.8277 47.51 43.0001C46.3617 43.9567 44.9144 44.4805 43.4199 44.4805C41.9254 44.4805 40.4782 43.9567 39.33 43.0001H39.34ZM45.34 39.3301C45.9764 38.4962 46.4049 37.5226 46.59 36.4901C46.9061 34.9577 47.047 33.3943 47.01 31.8301C47.0388 30.269 46.8946 28.7095 46.58 27.1801C46.3946 26.1446 45.9662 25.1679 45.33 24.3301C45.11 24.0277 44.8232 23.7801 44.4919 23.6067C44.1607 23.4332 43.7938 23.3386 43.4199 23.3301C43.0456 23.3363 42.678 23.4299 42.3463 23.6036C42.0147 23.7772 41.7283 24.026 41.51 24.3301C40.8741 25.1692 40.4427 26.145 40.25 27.1801C39.9315 28.709 39.7839 30.2686 39.8099 31.8301C39.7784 33.3951 39.9261 34.9586 40.25 36.4901C40.4351 37.5226 40.8636 38.4962 41.5 39.3301C41.7302 39.6187 42.0221 39.8521 42.3544 40.0131C42.6866 40.174 43.0507 40.2584 43.4199 40.2601C43.7887 40.2563 44.1522 40.171 44.4841 40.0102C44.8161 39.8494 45.1084 39.6171 45.34 39.3301Z" fill="#231F20"/>
<path d="M35.22 70.24C28.2817 70.2261 21.5032 68.1563 15.7407 64.292C9.97814 60.4276 5.49017 54.9421 2.84368 48.5284C0.197187 42.1146 -0.489103 35.0604 0.871513 28.2569C2.23213 21.4533 5.57861 15.2056 10.4882 10.303C15.3978 5.40034 21.6502 2.06275 28.4557 0.711818C35.2612 -0.639117 42.3145 0.05721 48.7244 2.71283C55.1344 5.36844 60.6135 9.8642 64.4697 15.6322C68.3258 21.4002 70.3861 28.1817 70.3901 35.12C70.3663 44.4357 66.6516 53.3624 60.0596 59.9449C53.4677 66.5275 44.5358 70.2294 35.22 70.24ZM35.22 0.49998C28.3686 0.513824 21.6751 2.55853 15.9855 6.37565C10.2959 10.1928 5.86565 15.611 3.25469 21.9454C0.643731 28.2798 -0.030725 35.2461 1.31658 41.9637C2.66389 48.6813 5.97248 54.8488 10.8241 59.6865C15.6758 64.5242 21.8528 67.8149 28.5743 69.1429C35.2958 70.4708 42.2601 69.7762 48.587 67.147C54.9138 64.5178 60.3191 60.0719 64.1198 54.3714C67.9205 48.6708 69.9459 41.9714 69.94 35.12C69.9215 25.922 66.2559 17.1067 59.7472 10.6074C53.2386 4.10809 44.4181 0.455269 35.22 0.449993V0.49998Z" fill="#CF1F25"/>
<path d="M35.2301 2.34988C28.7545 2.36372 22.4283 4.297 17.0511 7.90534C11.674 11.5137 7.48727 16.6351 5.02011 22.6224C2.55296 28.6096 1.91616 35.1939 3.19016 41.5429C4.46415 47.892 7.59176 53.7209 12.1777 58.2929C16.7637 62.8648 22.602 65.9746 28.9549 67.2293C35.3079 68.4839 41.8902 67.827 47.8698 65.3415C53.8495 62.8561 58.9582 58.6538 62.5501 53.2657C66.1421 47.8775 68.0559 41.5455 68.05 35.0699C68.0341 26.3795 64.568 18.0512 58.4137 11.9156C52.2593 5.77993 43.9204 2.33926 35.2301 2.34988ZM35.2301 60.6199C30.1837 60.61 25.2535 59.1048 21.0621 56.2944C16.8707 53.484 13.6062 49.4945 11.681 44.8298C9.75578 40.1651 9.25611 35.0345 10.2452 30.086C11.2343 25.1375 13.6678 20.5931 17.2383 17.0269C20.8087 13.4607 25.3559 11.0326 30.3055 10.0493C35.2552 9.06597 40.3851 9.57161 45.0476 11.5023C49.71 13.433 53.6957 16.7022 56.5012 20.8968C59.3067 25.0915 60.8061 30.0235 60.81 35.0699C60.7968 41.8473 58.0965 48.3429 53.3014 53.1324C48.5062 57.922 42.0075 60.6146 35.2301 60.6199Z" fill="#CF1F25"/>
<path d="M53.16 46.46H17.23V50.26H53.16V46.46Z" fill="#231F20"/>
<path d="M53.34 50.45H17.04V46.24H53.34V50.45ZM17.42 50.06H52.95V46.66H17.42V50.06Z" fill="#231F20"/>
</g>
<defs>
<clipPath id="clip0_8068_5394">
<rect width="70.39" height="70.18" fill="white"/>
</clipPath>
</defs>
</svg>
