<svg width="71" height="71" viewBox="0 0 71 71" fill="none" xmlns="http://www.w3.org/2000/svg">
<g clip-path="url(#clip0_8063_6721)">
<path d="M35.2901 70.07C42.1893 70.0424 48.9256 67.9715 54.6491 64.119C60.3725 60.2665 64.8265 54.8049 67.449 48.4235C70.0714 42.042 70.7448 35.0268 69.384 28.2631C68.0233 21.4993 64.6895 15.2902 59.8034 10.4193C54.9172 5.54848 48.6976 2.2342 41.9296 0.894731C35.1616 -0.444743 28.1485 0.250633 21.7753 2.89311C15.4021 5.53559 9.95452 10.0067 6.12001 15.7423C2.2855 21.4778 0.235978 28.2207 0.229996 35.12C0.236556 39.7171 1.14872 44.2679 2.91432 48.5124C4.67993 52.7569 7.2644 56.6121 10.5202 59.8576C13.7759 63.1032 17.6391 65.6756 21.8892 67.4278C26.1392 69.1801 30.6929 70.0779 35.2901 70.07Z" stroke="#D20D18" stroke-width="0.45"/>
<path d="M35.2901 2.33998C39.6463 2.26392 43.9739 3.05624 48.0206 4.6707C52.0674 6.28515 55.752 8.68941 58.8595 11.7432C61.9671 14.7969 64.4353 18.439 66.1201 22.457C67.805 26.4749 68.6727 30.7881 68.6727 35.145C68.6727 39.5018 67.805 43.8151 66.1201 47.833C64.4353 51.8509 61.9671 55.493 58.8595 58.5468C55.752 61.6005 52.0674 64.0048 48.0206 65.6193C43.9739 67.2337 39.6463 68.026 35.2901 67.95V60.73C38.6925 60.7973 42.0741 60.1852 45.2371 58.9296C48.4001 57.6741 51.2809 55.8002 53.711 53.4178C56.141 51.0353 58.0713 48.1922 59.3892 45.0546C60.707 41.917 61.3859 38.5481 61.3859 35.145C61.3859 31.7419 60.707 28.373 59.3892 25.2354C58.0713 22.0978 56.141 19.2546 53.711 16.8722C51.2809 14.4897 48.4001 12.6159 45.2371 11.3603C42.0741 10.1048 38.6925 9.49271 35.2901 9.55998M2.34999 35.12C2.35522 30.8033 3.21202 26.53 4.87123 22.5448C6.53044 18.5597 8.95949 14.9411 12.0193 11.8961C15.0791 8.85115 18.7096 6.43973 22.7028 4.79994C26.6959 3.16015 30.9733 2.32419 35.2901 2.33998V9.55998C31.8876 9.49271 28.5059 10.1048 25.3429 11.3603C22.1799 12.6159 19.2991 14.4897 16.869 16.8722C14.439 19.2546 12.5086 22.0978 11.1908 25.2354C9.87298 28.373 9.19411 31.7419 9.19411 35.145C9.19411 38.5481 9.87298 41.917 11.1908 45.0546C12.5086 48.1922 14.439 51.0353 16.869 53.4178C19.2991 55.8002 22.1799 57.6741 25.3429 58.9296C28.5059 60.1852 31.8876 60.7973 35.2901 60.73V67.95C30.971 67.9592 26.6924 67.1171 22.699 65.4719C18.7055 63.8266 15.0754 61.4105 12.0163 58.3615C8.95709 55.3126 6.52885 51.6906 4.87025 47.7027C3.21165 43.7148 2.35524 39.4391 2.34999 35.12Z" fill="#D20D18"/>
<path d="M54.88 58.34L58.69 54.76L16.17 12.32L12.36 15.91" fill="#D20D18"/>
<path d="M22.61 37.07C23.5674 37.07 24.4856 37.4503 25.1626 38.1273C25.8396 38.8044 26.22 39.7226 26.22 40.68C26.22 41.6375 25.8396 42.5556 25.1626 43.2326C24.4856 43.9096 23.5674 44.29 22.61 44.29C21.6526 44.29 20.7344 43.9096 20.0574 43.2326C19.3804 42.5556 19 41.6375 19 40.68C19 39.7226 19.3804 38.8044 20.0574 38.1273C20.7344 37.4503 21.6526 37.07 22.61 37.07Z" fill="#231916"/>
<path d="M47.76 37.0701C48.471 37.078 49.1637 37.2956 49.7515 37.6957C50.3392 38.0958 50.7956 38.6606 51.0636 39.3191C51.3316 39.9777 51.3992 40.7008 51.2578 41.3976C51.1164 42.0944 50.7725 42.7339 50.269 43.2359C49.7656 43.738 49.125 44.0803 48.4278 44.2197C47.7307 44.3592 47.0079 44.2896 46.3501 44.0198C45.6923 43.75 45.1287 43.292 44.7302 42.7032C44.3317 42.1144 44.1159 41.421 44.11 40.71C44.087 40.2251 44.1658 39.7407 44.3413 39.288C44.5168 38.8353 44.785 38.4244 45.1288 38.0816C45.4725 37.7388 45.8842 37.4717 46.3374 37.2975C46.7905 37.1233 47.2751 37.0458 47.76 37.0701Z" fill="#231916"/>
<path d="M26.41 39.3C26.5991 39.7446 26.678 40.2283 26.64 40.71H30.86V24.26L26.45 24.15V26.15C27.1745 26.0712 27.9055 26.0712 28.63 26.15L28.47 29.84H26.47V31.09H27.07V31.69H26.47M26.31 24.19C25.7589 24.1117 25.1973 24.1612 24.6685 24.3346C24.1396 24.508 23.6577 24.8007 23.26 25.19V31.05H26.47V29.79H24.35C24.35 27.19 25.35 26.37 26.47 26.15V24.15L26.31 24.19ZM23.2 36.79C23.8337 36.8719 24.4396 37.1009 24.9691 37.4585C25.4987 37.8162 25.9373 38.2927 26.25 38.85C26.25 39.01 26.36 39.12 26.41 39.29V31.64H23.2V36.79ZM23.2 25.18C22.711 25.6458 22.3408 26.2218 22.12 26.86L21.51 29.86H18.14C16.07 29.86 15.31 31.22 15.14 33.44L14.14 40.72H18.71C18.56 40.72 18.83 39.03 18.83 39.03C19.2102 38.2218 19.8501 37.5642 20.6475 37.1619C21.4449 36.7596 22.354 36.6357 23.23 36.81V31.66H19.36V31.06H23.23L23.2 25.18Z" fill="#231916"/>
<path d="M31.48 40.87H43.62C44 38.43 44.43 38.53 45.2 37.5C45.6272 37.2069 46.1108 37.0059 46.62 36.91H31.48" fill="#231916"/>
<path d="M32.99 31.86H33.27H35.72V32.4H33.54V36.31H37.63V31.86H37.95H40.4V32.4H38.23V36.31H41.76V31.86H42.04H44.54V32.4H42.36V36.31H46.39V31.86H46.67H49.12V32.4H46.94V36.31H50.91V31.86H51.17H53.63V32.4H51.45V36.31H57.17V29.85H32.83V24.27H31.47V36.31H32.99" fill="#231916"/>
<path d="M49.34 36.91C49.814 37.0582 50.2554 37.2958 50.64 37.61C51.0245 38.0264 51.3231 38.5145 51.5187 39.0465C51.7143 39.5784 51.8032 40.1437 51.78 40.71H55.4299C55.7599 37.83 57.4999 39.08 57.1799 37.07V36.91" fill="#231916"/>
<path d="M32.29 35.93H32.18V36.37H32.29V35.93Z" fill="#231916"/>
<path d="M53.03 35.93H52.98V36.37H53.03V35.93Z" fill="#231916"/>
</g>
<defs>
<clipPath id="clip0_8063_6721">
<rect width="70.51" height="70.29" fill="white"/>
</clipPath>
</defs>
</svg>
