<svg width="76" height="66" viewBox="0 0 76 66" fill="none" xmlns="http://www.w3.org/2000/svg">
<g clip-path="url(#clip0_8063_6383)">
<path d="M1.12996 59.82L34.39 2.62001C36.17 -0.489994 39.39 -0.489994 41.3 2.62001L74.68 59.94C76.62 63.17 74.97 65.76 71.07 65.76H4.84993C0.60993 65.76 -0.880042 63.29 1.12996 59.82Z" fill="white"/>
<path d="M1.12996 59.82L34.39 2.62001C36.17 -0.489994 39.39 -0.489994 41.3 2.62001L74.68 59.94C76.62 63.17 74.97 65.76 71.07 65.76H4.84993C0.60993 65.72 -0.880042 63.25 1.12996 59.82Z" stroke="#D20D18" stroke-width="0.49"/>
<path d="M2.60999 60.43L35.61 3.70001C36.8 1.64001 38.92 1.70001 40.1 3.70001L73.1901 60.55C74.4301 62.55 73.1201 64.19 70.8201 64.19H5.24C2.65 64.19 1.53003 62.43 2.65003 60.43" fill="#D20D18"/>
<path d="M37.99 12.93L63.94 57.72H11.57" fill="#F8B500"/>
<path d="M37.99 12.93L63.94 57.72H11.57L37.99 12.93Z" stroke="#D20D18" stroke-width="0.57"/>
<path d="M31.09 28.86H36.87V45.91H39.35L33.98 54.73L28.43 45.91H31.09" fill="#231916"/>
<path d="M46.43 55.55H40.53V38.79H38.1L43.48 29.92L49.01 38.79H46.43" fill="#231916"/>
</g>
<defs>
<clipPath id="clip0_8063_6383">
<rect width="75.74" height="65.96" fill="white"/>
</clipPath>
</defs>
</svg>
