<svg width="12" height="73" viewBox="0 0 12 73" fill="none" xmlns="http://www.w3.org/2000/svg">
<g clip-path="url(#clip0_8063_8740)">
<path d="M7.27681 58.9741H4.67603V72.8504H7.27681V58.9741Z" fill="white"/>
<path d="M7.27681 58.9741H4.67603V72.8504H7.27681V58.9741Z" stroke="#231916" stroke-width="0.45"/>
<path d="M11.5418 43.5061H9.22403L5.66648 48.9682L2.55362 43.6898H0.276245L4.75014 51.1448L0.276245 58.1986H2.33127L5.77428 52.7365L9.22403 58.6067H11.7237L6.83885 50.8524" fill="white"/>
<path d="M11.5418 43.5061H9.22403L5.66648 48.9682L2.55362 43.6898H0.276245L4.75014 51.1448L0.276245 58.1986H2.33127L5.77428 52.7365L9.22403 58.6067H11.7237L6.83885 50.8524L11.5418 43.5061Z" stroke="#231916" stroke-width="0.45"/>
<path d="M7.35766 28.7456V42.4382H4.52779V28.6708H1.63054L6.65693 0.0272217L10.4031 28.6708" fill="white"/>
<path d="M7.35766 28.7456V42.4382H4.52779V28.6708H1.63054L6.65693 0.0272217L10.4031 28.6708L7.35766 28.7456Z" stroke="#231916" stroke-width="0.45"/>
</g>
<defs>
<clipPath id="clip0_8063_8740">
<rect width="12" height="73" fill="white"/>
</clipPath>
</defs>
</svg>
