<svg width="71" height="71" viewBox="0 0 71 71" fill="none" xmlns="http://www.w3.org/2000/svg">
<g clip-path="url(#clip0_8063_6817)">
<path d="M35.2801 70.11C42.1882 70.0882 48.9349 68.0198 54.6681 64.1658C60.4013 60.3118 64.8638 54.8452 67.492 48.4564C70.1201 42.0677 70.796 35.0434 69.4342 28.2708C68.0725 21.4981 64.7342 15.2809 59.841 10.4044C54.9478 5.528 48.7192 2.21103 41.9419 0.872497C35.1647 -0.466036 28.1427 0.233924 21.763 2.88394C15.3833 5.53396 9.932 10.0152 6.09769 15.7616C2.26338 21.508 0.21806 28.2618 0.220003 35.17C0.227875 39.7663 1.14094 44.316 2.90714 48.5594C4.67333 52.8028 7.25808 56.6567 10.5137 59.9012C13.7693 63.1457 17.6321 65.7171 21.8815 67.4688C26.1309 69.2204 30.6838 70.1179 35.2801 70.11Z" stroke="#D20D18" stroke-width="0.45" stroke-linecap="round" stroke-linejoin="round"/>
<path d="M2.34995 35.16C2.32817 28.64 4.24181 22.2603 7.84848 16.8286C11.4552 11.397 16.5926 7.15788 22.6102 4.64814C28.6278 2.13841 35.255 1.47094 41.6522 2.7303C48.0494 3.98966 53.929 7.11918 58.5464 11.7225C63.1637 16.3258 66.3111 22.1959 67.5899 28.5893C68.8687 34.9827 68.2215 41.6117 65.7301 47.637C63.2387 53.6622 59.0152 58.8126 53.5946 62.4357C48.1739 66.0589 41.8 67.9919 35.28 67.99C30.9621 67.9966 26.6852 67.1526 22.6935 65.5063C18.7018 63.86 15.0734 61.4436 12.0156 58.395C8.95776 55.3465 6.53036 51.7255 4.87192 47.7388C3.21348 43.7522 2.35651 39.4778 2.34995 35.16Z" fill="#D20D18"/>
<path d="M64.31 28.77H7.14001V42.23H64.31V28.77Z" fill="white"/>
<path d="M18.95 39.73V38.53H19.6601V39.73M18.95 37.61V30.93H19.01C19.39 30.93 19.6101 30.93 19.6601 30.99C19.7101 31.05 19.6601 31.04 19.6601 31.2V31.31V37.61H18.95ZM11.88 31.37V32.56H13.72V32.81C13.7137 33.0538 13.6629 33.2945 13.57 33.52C13.4027 33.8154 13.1976 34.0876 12.96 34.33C12.7314 34.5919 12.4768 34.8297 12.2 35.04C11.8838 35.2078 11.5478 35.3354 11.2 35.42C11.3919 35.5477 11.5726 35.6916 11.74 35.85C11.891 36.0408 12.0547 36.2213 12.23 36.39C12.7327 36.1366 13.2056 35.828 13.64 35.47C14.0066 35.1643 14.2917 34.7727 14.47 34.33C14.6628 34.7448 14.9385 35.1158 15.2801 35.42C15.686 35.751 16.1249 36.0391 16.59 36.28C16.6979 36.0718 16.8251 35.8743 16.97 35.69C17.0856 35.5043 17.2309 35.3387 17.4001 35.2C16.7596 35.0598 16.1852 34.7075 15.7701 34.2C15.5813 34.0369 15.4267 33.8381 15.3151 33.615C15.2035 33.3919 15.1372 33.1489 15.12 32.9V32.57H17.0201V31.38L11.88 31.37ZM18.95 37.61H18.19V30.93H18.95V37.61ZM18.95 38.53H13.72V37.53L13.7801 37.36V37.2C13.7801 37.04 13.7801 36.99 13.7801 36.93C13.5854 36.8732 13.3813 36.8562 13.18 36.88H12.37V39.76H18.95V38.53Z" fill="#231916"/>
<path d="M28.86 31.81C29.0606 32.0198 29.217 32.2678 29.3201 32.5392C29.4231 32.8106 29.4707 33.0999 29.46 33.39C29.4735 33.9897 29.2591 34.5722 28.86 35.02C28.3307 35.4744 27.6466 35.7072 26.95 35.67V34.53C27.2511 34.5504 27.5486 34.4537 27.78 34.26C27.8802 34.1402 27.9548 34.0013 27.9995 33.8517C28.0442 33.7022 28.0579 33.5451 28.0399 33.39C28.0537 33.2444 28.0377 33.0975 27.9931 32.9583C27.9484 32.8191 27.876 32.6904 27.78 32.58C27.6767 32.4644 27.5479 32.3745 27.4038 32.3172C27.2598 32.2599 27.1044 32.2369 26.95 32.25V31.11C27.2994 31.0881 27.6496 31.1391 27.9784 31.2596C28.3072 31.3801 28.6074 31.5675 28.86 31.81ZM26.95 39.74V38.74H31.1V38.09H26.91V37.09H31.1V36.16H32.03C32.2131 36.146 32.3969 36.146 32.58 36.16C32.58 36.22 32.58 36.28 32.58 36.39L32.52 36.49V36.66V39.97H31.1V39.81L26.95 39.74ZM32.62 30.89C32.62 30.95 32.62 31 32.62 31.11L32.5599 31.27V31.49V35.99H31.1V30.89H32.58H32.62ZM26.95 35.67C26.2569 35.7036 25.5772 35.4711 25.0499 35.02C24.6551 34.5697 24.4414 33.9889 24.45 33.39C24.4327 32.8047 24.6485 32.2364 25.0499 31.81C25.3017 31.5693 25.6004 31.3829 25.9273 31.2625C26.2541 31.1421 26.6022 31.0901 26.95 31.11V32.25C26.7988 32.24 26.6473 32.2645 26.507 32.3217C26.3666 32.3789 26.2412 32.4672 26.14 32.58C25.9605 32.8121 25.8621 33.0966 25.86 33.39C25.8541 33.7031 25.9527 34.0091 26.14 34.26C26.3638 34.4534 26.6549 34.5505 26.95 34.53V35.67ZM26.95 37.03V38.03H26.7899V38.68H26.95V39.68H26.7899V39.9H25.38V36.04H26.2999C26.483 36.026 26.6669 36.026 26.85 36.04V36.21L26.74 36.37V36.92L26.95 37.03Z" fill="#231916"/>
<path d="M46.17 35.44H41.6501V34.24H43.34C43.4541 33.9193 43.5084 33.5803 43.5 33.24C43.559 32.9361 43.5991 32.6289 43.62 32.32H41.62V31.12H45.1C45.109 31.6274 45.0889 32.1349 45.0399 32.64C45.0399 33.24 44.88 33.78 44.83 34.21H46.13M41.61 39.75V38.66H43.7899V37.47H41.61V36.41H45.21V40H43.7899V39.81L41.61 39.75ZM41.61 35.41H37.1V34.21H41.67L41.61 35.41ZM41.61 32.32H37.96V31.12H41.61V32.32ZM41.61 36.38V37.47H39.44V38.66H41.61V39.81H39.44V40.03H38.1V36.41L41.61 36.38Z" fill="#231916"/>
<path d="M55.97 31.69V32.81H53.97V33.19C53.9515 34.0713 54.14 34.9447 54.5201 35.74C54.8126 36.5243 55.3965 37.1655 56.1501 37.53C55.9548 37.6611 55.7708 37.8083 55.6 37.97C55.4364 38.1328 55.292 38.3141 55.17 38.51C54.6718 38.1803 54.2437 37.7555 53.9101 37.26C53.5546 36.7406 53.3157 36.1504 53.21 35.53C53.0361 36.1642 52.7591 36.7656 52.39 37.31C52.029 37.8471 51.5671 38.3089 51.0301 38.67C50.8796 38.4787 50.7158 38.2982 50.5399 38.13C50.3705 37.9325 50.1674 37.7666 49.94 37.64C50.7974 37.226 51.4759 36.5156 51.85 35.64C52.2764 34.8726 52.5193 34.017 52.56 33.14V32.81H50.56V31.67M58.4001 30.91C58.4001 30.97 58.4001 31.02 58.4001 31.13L58.34 31.29V39.98H56.93V30.91H58.4001Z" fill="#231916"/>
</g>
<defs>
<clipPath id="clip0_8063_6817">
<rect width="70.57" height="70.34" fill="white"/>
</clipPath>
</defs>
</svg>
