<svg width="76" height="67" viewBox="0 0 76 67" fill="none" xmlns="http://www.w3.org/2000/svg">
<g clip-path="url(#clip0_8063_6446)">
<path d="M1.12999 59.88L34.46 2.62001C36.22 -0.549992 39.53 -0.549992 41.35 2.62001L74.85 60C76.8 63.29 75.15 65.88 71.19 65.88H4.84999C0.599991 65.88 -0.87001 63.41 1.12999 59.88Z" fill="white"/>
<path d="M1.12999 59.88L34.46 2.62001C36.22 -0.549992 39.53 -0.549992 41.35 2.62001L74.85 60C76.8 63.29 75.15 65.88 71.19 65.88H4.84999C0.599991 65.88 -0.87001 63.41 1.12999 59.88Z" stroke="#D20D18" stroke-width="0.49"/>
<path d="M2.77999 60.41L35.69 3.8C36.81 1.8 38.93 1.86 40.12 3.86L73.12 60.53C74.3 62.53 73.07 64.11 70.76 64.11H5.39999C2.79999 64.11 1.67998 62.41 2.79998 60.41" fill="#D20D18"/>
<path d="M38.05 13.03L63.94 57.71H11.74" fill="#F8B500"/>
<path d="M38.05 13.03L63.94 57.71H11.74L38.05 13.03Z" stroke="#D20D18" stroke-width="0.57"/>
<path d="M36.64 30.08H31.68V54.42H36.64V30.08Z" fill="#231916"/>
<path d="M39.46 30.08V40.13L44.88 45.84V54.42H49.61V44.72L44.36 38.37V30.08" fill="#231916"/>
</g>
<defs>
<clipPath id="clip0_8063_6446">
<rect width="75.91" height="66.12" fill="white"/>
</clipPath>
</defs>
</svg>
