<svg width="74" height="60" viewBox="0 0 74 60" fill="none" xmlns="http://www.w3.org/2000/svg">
<g clip-path="url(#clip0_8063_8487)">
<path d="M25.0489 19.3932V1.67825L23.2107 1.1947V19.3932" fill="#2EA7E0"/>
<path d="M25.0489 19.3932V1.67825L23.2107 1.1947V19.3932H25.0489Z" stroke="#231916" stroke-width="0.41" stroke-linecap="round" stroke-linejoin="round"/>
<path d="M25.0201 25.9581H23.1819V32.8928H25.0201V25.9581Z" fill="#2EA7E0"/>
<path d="M25.0201 25.9581H23.1819V32.8928H25.0201V25.9581Z" stroke="#231916" stroke-width="0.41" stroke-linecap="round" stroke-linejoin="round"/>
<path d="M25.0201 39.3154H23.1819V46.2501H25.0201V39.3154Z" fill="#2EA7E0"/>
<path d="M25.0201 39.3154H23.1819V46.2501H25.0201V39.3154Z" stroke="#231916" stroke-width="0.41" stroke-linecap="round" stroke-linejoin="round"/>
<path d="M25.0201 58.8111V52.6444H23.1819V58.0431" fill="#2EA7E0"/>
<path d="M25.0201 58.8111V52.6444H23.1819V58.0431L25.0201 58.8111Z" stroke="#231916" stroke-width="0.41" stroke-linecap="round" stroke-linejoin="round"/>
<path d="M0.12101 0.802124V59.5165" stroke="#231916" stroke-width="0.41" stroke-linecap="round" stroke-linejoin="round"/>
<path d="M33.0758 0.432373V59.5165" stroke="#231916" stroke-width="0.41" stroke-linecap="round" stroke-linejoin="round"/>
<path d="M0.12101 58.5265C5.30712 57.7927 3.53806 59.8805 6.3328 59.8805C7.88863 59.8805 9.00653 59.1466 10.0149 59.1466C11.0234 59.1466 13.4724 58.299 14.9302 58.4128C16.3881 58.5265 17.7768 60.4778 18.8083 59.6302C19.8397 58.7825 21.9718 57.4172 23.787 58.299C27.0888 59.8293 26.0285 59.1466 27.2444 58.4128C28.4602 57.6789 29.2036 58.7825 30.1255 58.9816C31.0475 59.1808 31.8542 58.7541 32.7993 58.8622" stroke="#231916" stroke-width="0.41" stroke-linecap="round" stroke-linejoin="round"/>
<path d="M8.80486 4.84692V9.51745" stroke="#231916" stroke-width="0.41" stroke-linecap="round" stroke-linejoin="round"/>
<path d="M0.12101 1.27999C4.20075 2.01954 4.80578 0.176392 6.3328 0.176392C7.85982 0.176392 9.51939 1.88304 10.5278 1.88304C11.5362 1.88304 12.0548 1.14351 13.4897 1.25728C14.9245 1.37106 16.1345 2.13336 17.1775 1.25728C18.2205 0.381203 19.3038 -0.449373 22.6633 0.893189C26.0227 2.23575 26.0285 1.88301 27.2732 1.14346C28.5178 0.403917 29.2324 1.51329 30.1543 1.76929C31.0763 2.02529 31.7908 0.893189 32.7128 1.03541" stroke="#231916" stroke-width="0.41" stroke-linecap="round" stroke-linejoin="round"/>
<path d="M8.80486 17.1859V21.8564" stroke="#231916" stroke-width="0.41" stroke-linecap="round" stroke-linejoin="round"/>
<path d="M8.80486 29.525V34.1899" stroke="#231916" stroke-width="0.41" stroke-linecap="round" stroke-linejoin="round"/>
<path d="M8.80486 41.864V46.5573" stroke="#231916" stroke-width="0.41" stroke-linecap="round" stroke-linejoin="round"/>
<path d="M8.80486 54.2258V58.8907" stroke="#231916" stroke-width="0.41" stroke-linecap="round" stroke-linejoin="round"/>
<path d="M49.3199 4.84692V9.51745" stroke="#231916" stroke-width="0.41" stroke-linecap="round" stroke-linejoin="round"/>
<path d="M49.3199 17.1859V21.8564" stroke="#231916" stroke-width="0.41" stroke-linecap="round" stroke-linejoin="round"/>
<path d="M49.3199 29.525V34.1899" stroke="#231916" stroke-width="0.41" stroke-linecap="round" stroke-linejoin="round"/>
<path d="M49.3199 41.864V46.5573" stroke="#231916" stroke-width="0.41" stroke-linecap="round" stroke-linejoin="round"/>
<path d="M49.3199 54.2258V58.8907" stroke="#231916" stroke-width="0.41" stroke-linecap="round" stroke-linejoin="round"/>
<path d="M64.0139 1.4791V19.3932H65.829V0.716797" fill="#0092DB"/>
<path d="M64.0139 1.4791V19.3932H65.829V0.716797" fill="#2EA7E0"/>
<path d="M64.0139 1.4791V19.3932H65.829V0.716797" stroke="#231916" stroke-width="0.41" stroke-linecap="round" stroke-linejoin="round"/>
<path d="M65.8232 25.9581H63.9851V32.8928H65.8232V25.9581Z" fill="#2EA7E0"/>
<path d="M65.8232 25.9581H63.9851V32.8928H65.8232V25.9581Z" stroke="#231916" stroke-width="0.41" stroke-linecap="round" stroke-linejoin="round"/>
<path d="M65.8232 39.3154H63.9851V46.2501H65.8232V39.3154Z" fill="#2EA7E0"/>
<path d="M65.8232 39.3154H63.9851V46.2501H65.8232V39.3154Z" stroke="#231916" stroke-width="0.41" stroke-linecap="round" stroke-linejoin="round"/>
<path d="M65.829 58.8111V52.6444H63.9851V58.0431" fill="#2EA7E0"/>
<path d="M65.829 58.8111V52.6444H63.9851V58.0431" stroke="#231916" stroke-width="0.41" stroke-linecap="round" stroke-linejoin="round"/>
<path d="M66.8662 0.233276V19.3932H68.7044V0.802159" fill="#0092DB"/>
<path d="M68.6756 58.1341V52.6444H66.8374V59.0955" fill="#0092DB"/>
<path d="M66.8662 0.233276V19.3932H68.7044V0.802159" fill="#2EA7E0"/>
<path d="M66.8662 0.233276V19.3932H68.7044V0.802159" stroke="#231916" stroke-width="0.41" stroke-linecap="round" stroke-linejoin="round"/>
<path d="M68.6698 25.9581H66.8316V32.8928H68.6698V25.9581Z" fill="#2EA7E0"/>
<path d="M68.6698 25.9581H66.8316V32.8928H68.6698V25.9581Z" stroke="#231916" stroke-width="0.41" stroke-linecap="round" stroke-linejoin="round"/>
<path d="M68.6698 39.3154H66.8316V46.2501H68.6698V39.3154Z" fill="#2EA7E0"/>
<path d="M68.6698 39.3154H66.8316V46.2501H68.6698V39.3154Z" stroke="#231916" stroke-width="0.41" stroke-linecap="round" stroke-linejoin="round"/>
<path d="M68.6756 58.1341V52.6444H66.8374V59.0955" fill="#2EA7E0"/>
<path d="M68.6756 58.1341V52.6444H66.8374V59.0955" stroke="#231916" stroke-width="0.41" stroke-linecap="round" stroke-linejoin="round"/>
<path d="M40.9242 0.802124V59.5165" stroke="#231916" stroke-width="0.41" stroke-linecap="round" stroke-linejoin="round"/>
<path d="M73.879 0.432373V59.5165" stroke="#231916" stroke-width="0.41" stroke-linecap="round" stroke-linejoin="round"/>
<path d="M40.9242 58.9475C45.8106 56.9963 44.2894 59.0102 47.3088 59.0102C48.2251 59.0102 48.7148 58.4981 49.3545 58.5266C49.7809 58.5266 50.4147 59.0955 50.8181 59.1524C52.6851 59.4312 55.1283 57.1158 56.5804 57.2239C58.0325 57.332 58.1305 59.232 59.1677 58.3617C59.5403 58.0017 60.0409 57.8001 60.5622 57.8001C61.0835 57.8001 61.5841 58.0017 61.9567 58.3617C62.7634 59.1808 63.3685 57.679 64.6016 58.2706C67.9092 59.8009 66.849 59.1239 68.059 58.3844C69.2691 57.6448 69.3844 58.4982 70.3063 58.7541C71.2283 59.0101 71.4588 58.0146 73.5563 58.8623" stroke="#231916" stroke-width="0.41" stroke-linecap="round" stroke-linejoin="round"/>
<path d="M73.4468 1.27992C69.3613 2.01947 68.762 0.176324 67.2062 0.176324C65.6504 0.176324 64.0484 1.88297 63.04 1.88297C62.0316 1.88297 60.5104 -0.0398543 59.0698 0.102366C57.6292 0.244587 54.6731 2.47464 53.6359 1.627C52.5987 0.779367 51.7919 0.802122 50.6395 1.48478C47.4241 3.27107 47.5105 1.88294 46.3062 1.1434C45.1019 0.403849 44.7503 0.238865 43.8284 0.494862C42.8689 0.847234 41.8919 1.15109 40.9011 1.40513" stroke="#231916" stroke-width="0.41" stroke-linecap="round" stroke-linejoin="round"/>
<path d="M1.32534 0.802124V59.5165" stroke="#231916" stroke-width="0.41" stroke-linecap="round" stroke-linejoin="round"/>
<path d="M42.1343 0.802124V59.5165" stroke="#231916" stroke-width="0.41" stroke-linecap="round" stroke-linejoin="round"/>
</g>
<defs>
<clipPath id="clip0_8063_8487">
<rect width="74" height="60" fill="white"/>
</clipPath>
</defs>
</svg>
