<svg width="77" height="30" viewBox="0 0 77 30" fill="none" xmlns="http://www.w3.org/2000/svg">
<g clip-path="url(#clip0_8063_7586)">
<path d="M5.84999 28.87C5.11801 28.8709 4.39325 28.7253 3.71834 28.4419C3.04342 28.1585 2.43199 27.7431 1.92 27.22C1.39911 26.7063 0.985119 26.0946 0.70192 25.42C0.41872 24.7455 0.271898 24.0215 0.269974 23.2899" stroke="#231916" stroke-width="0.49"/>
<path d="M0.240002 23.29V5.82996" stroke="#231916" stroke-width="0.49"/>
<path d="M0.250015 5.82001C0.253035 5.08861 0.40029 4.36499 0.683426 3.69061C0.966562 3.01624 1.37998 2.40436 1.89998 1.89002C2.41432 1.36447 3.029 0.947626 3.70753 0.664187C4.38607 0.380748 5.11464 0.236523 5.84999 0.240054" stroke="#231916" stroke-width="0.49"/>
<path d="M5.84 0.23999H70.48" stroke="#231916" stroke-width="0.49"/>
<path d="M70.48 0.219999C71.2226 0.217632 71.9584 0.362173 72.6449 0.645353C73.3313 0.928534 73.955 1.34478 74.48 1.87002C75.4903 2.93025 76.0589 4.33552 76.07 5.80002" stroke="#231916" stroke-width="0.49"/>
<path d="M76.09 5.82996V23.29" stroke="#231916" stroke-width="0.49"/>
<path d="M76.09 23.2899C76.0784 24.7573 75.5101 26.1656 74.5 27.23C73.4362 28.2844 71.9978 28.8741 70.5 28.87" stroke="#231916" stroke-width="0.49"/>
<path d="M70.48 28.87H5.85" stroke="#231916" stroke-width="0.49"/>
<path d="M5.84999 26.8199C5.38795 26.814 4.93171 26.7164 4.50771 26.5327C4.0837 26.349 3.70039 26.083 3.38002 25.75C3.04644 25.4322 2.77986 25.0507 2.59608 24.6282C2.41231 24.2057 2.31506 23.7506 2.31001 23.2899" stroke="#231916" stroke-width="0.49"/>
<path d="M2.31 23.29V5.82996" stroke="#231916" stroke-width="0.49"/>
<path d="M2.31001 5.81996C2.32578 4.89245 2.70596 4.00845 3.36842 3.35909C4.03088 2.70972 4.92235 2.34723 5.84999 2.34999" stroke="#231916" stroke-width="0.49"/>
<path d="M5.84 2.35999H70.48" stroke="#231916" stroke-width="0.49"/>
<path d="M70.48 2.34998C71.4224 2.35138 72.3295 2.70853 73.02 3.34998C73.6669 4.00864 74.0265 4.89676 74.02 5.81995" stroke="#231916" stroke-width="0.49"/>
<path d="M74.02 5.82996V23.29" stroke="#231916" stroke-width="0.49"/>
<path d="M74.03 23.2899C74.0352 23.7458 73.9494 24.1983 73.7777 24.6207C73.606 25.0431 73.3518 25.427 73.03 25.75C72.3487 26.4145 71.4414 26.7966 70.49 26.8199" stroke="#231916" stroke-width="0.49"/>
<path d="M70.48 26.8199H5.85" stroke="#231916" stroke-width="0.49"/>
<path d="M8.85 10C9.17259 10.5513 9.33537 11.1814 9.32003 11.8199C9.33024 12.4579 9.16781 13.0867 8.85 13.64C8.71782 13.9044 8.51539 14.1273 8.26492 14.2843C8.01444 14.4413 7.7256 14.5263 7.43002 14.53V13.12C7.67002 13.12 7.83998 13 8.01998 12.7C8.14367 12.4233 8.20517 12.1229 8.20004 11.8199C8.20421 11.5171 8.14275 11.2169 8.01998 10.9399C7.83998 10.7099 7.67002 10.53 7.43002 10.53V9.12C7.7248 9.12163 8.01343 9.20464 8.264 9.35992C8.51458 9.51521 8.71735 9.73674 8.85 10ZM7.43002 18.76H12.04V19.9299H7.43002V18.76ZM7.43002 18.11V17H10.8V16.4099H7.43002V15.22H11.86V18.1L7.43002 18.11ZM11.68 8.75995C11.8 8.75995 11.86 8.75995 11.92 8.81995V8.93994C11.914 9.01983 11.914 9.10011 11.92 9.17999L11.86 9.40997V14.71H10.74V8.70996H11.68V8.75995ZM7.43002 14.53C7.14377 14.5249 6.86484 14.4385 6.62582 14.2809C6.38679 14.1233 6.19749 13.901 6.07998 13.64C5.72888 13.1005 5.56061 12.4624 5.6 11.8199C5.56061 11.1775 5.72888 10.5395 6.07998 10C6.19795 9.74007 6.38766 9.51916 6.62679 9.36328C6.86593 9.2074 7.14458 9.12302 7.43002 9.12V10.53C7.20002 10.53 7.01999 10.7099 6.83999 10.9399C6.72514 11.219 6.66736 11.5182 6.67001 11.8199C6.66653 12.1218 6.72435 12.4211 6.83999 12.7C7.01999 13 7.20002 13.12 7.43002 13.12V14.53ZM7.43002 16.4099H6.37002V15.22H7.43002V16.4099ZM7.43002 17V19.9299H6.37002V17H7.43002Z" fill="#231916"/>
<path d="M16.04 17.22H16.64V15.22H17.28C17.52 15.22 17.7 15.2201 17.75 15.2801V15.5201L17.7 15.6401V17.22H19.58V18.69H16.04M16.04 15.1V13.64C16.5483 13.6897 17.0564 13.543 17.46 13.23C17.6108 13.0881 17.7264 12.913 17.7976 12.7186C17.8687 12.5241 17.8936 12.3157 17.87 12.11C17.8879 11.9137 17.8602 11.7159 17.7891 11.532C17.718 11.3482 17.6053 11.1832 17.46 11.05C17.0382 10.7799 16.539 10.6568 16.04 10.7V9.22002C16.4562 9.197 16.8724 9.26369 17.2606 9.41551C17.6488 9.56733 17.9999 9.80075 18.29 10.1C18.7792 10.6476 19.031 11.3669 18.99 12.1C19.0077 12.8296 18.7588 13.5407 18.29 14.1C18.0125 14.4192 17.6651 14.67 17.2749 14.8331C16.8846 14.9961 16.4621 15.0669 16.04 15.04M15.39 15.16C15.46 15.22 15.46 15.28 15.39 15.46V17.16H16.04V18.63H12.51V17.22H14.33V15.16H14.92C15.16 15.16 15.34 15.16 15.39 15.22M16.04 9.22002V10.69C15.544 10.6444 15.0471 10.7678 14.63 11.04C14.4828 11.1717 14.3688 11.3365 14.2976 11.5207C14.2263 11.705 14.1997 11.9035 14.22 12.1C14.194 12.3059 14.2176 12.515 14.289 12.7098C14.3603 12.9047 14.4773 13.0796 14.63 13.22C15.0281 13.5361 15.5344 13.6833 16.04 13.63V15.09C15.6194 15.1169 15.1983 15.046 14.8097 14.8829C14.4211 14.7198 14.0755 14.469 13.8 14.15C13.3276 13.5921 13.0751 12.8809 13.09 12.15C13.0751 11.4191 13.3276 10.7079 13.8 10.15C14.0882 9.85099 14.4375 9.6176 14.8241 9.46574C15.2106 9.31388 15.6253 9.24712 16.04 9.27" fill="#231916"/>
<path d="M23.18 10C23.4983 10.553 23.6607 11.182 23.65 11.8199C23.6554 12.4573 23.4933 13.0849 23.18 13.64C23.0544 13.8969 22.8617 14.1152 22.6223 14.2719C22.383 14.4285 22.1058 14.5177 21.82 14.53V13.12C21.9408 13.1128 22.0564 13.0685 22.1512 12.9934C22.246 12.9183 22.3154 12.8158 22.35 12.7C22.4938 12.4279 22.5758 12.1274 22.59 11.8199C22.5745 11.5127 22.4926 11.2125 22.35 10.9399C22.303 10.8327 22.2298 10.739 22.1372 10.6674C22.0446 10.5958 21.9356 10.5485 21.82 10.53V9.12C22.105 9.13028 22.3819 9.21751 22.6214 9.37244C22.8608 9.52737 23.0539 9.74423 23.18 10ZM21.82 18.76H26.36V19.9299H21.82V18.76ZM21.82 18.11V17H25.13V16.4099H21.82V15.22H26.19V18.1L21.82 18.11ZM26.01 8.75995C26.13 8.75995 26.19 8.75995 26.25 8.81995L26.31 8.93994C26.3128 9.02398 26.2921 9.10717 26.25 9.17999L26.19 9.40997V14.71H25.13V8.70996H26.01V8.75995ZM21.82 14.53C21.5257 14.5267 21.2379 14.4417 20.989 14.2846C20.74 14.1275 20.5396 13.9043 20.41 13.64C20.0922 13.0867 19.9298 12.4579 19.94 11.8199C19.9247 11.1814 20.0874 10.5513 20.41 10C20.5401 9.73681 20.7409 9.515 20.99 9.35956C21.239 9.20412 21.5265 9.1212 21.82 9.12V10.53C21.6947 10.5416 21.5745 10.5855 21.4711 10.6573C21.3677 10.7292 21.2847 10.8265 21.23 10.9399C21.1104 11.2175 21.0524 11.5178 21.06 11.8199C21.0514 12.1222 21.1094 12.4226 21.23 12.7C21.2719 12.823 21.3514 12.9297 21.4573 13.0051C21.5632 13.0804 21.6901 13.1207 21.82 13.12V14.53ZM21.82 16.4099H20.7V15.22H21.82V16.4099ZM21.82 17V18.11H21.76V18.76H21.82V19.9299H20.7V17H21.82Z" fill="#231916"/>
<path d="M30.96 13.47H29.78V15.35H30.96V13.47Z" fill="#231916"/>
<path d="M37.75 11.7C37.7797 11.7444 37.7955 11.7966 37.7955 11.85C37.7955 11.9034 37.7797 11.9556 37.75 12C37.75 12.12 37.75 12.17 37.68 12.17V13.41H41.11V14.8799H37.57V11.7H37.75ZM37.57 20.1699V18.9299C38.0616 18.9762 38.5559 18.8753 38.99 18.64C39.1091 18.562 39.2083 18.4571 39.2795 18.3337C39.3507 18.2104 39.392 18.0721 39.4 17.9299C39.3974 17.7797 39.3588 17.6324 39.2874 17.5001C39.2161 17.3679 39.1141 17.2546 38.99 17.1699C38.5461 16.9628 38.0596 16.8635 37.57 16.88V15.64C38.3797 15.5841 39.1804 15.8378 39.81 16.35C40.043 16.5288 40.2293 16.7613 40.3529 17.0277C40.4766 17.2941 40.5339 17.5866 40.52 17.88C40.5276 18.1797 40.4678 18.4774 40.3449 18.7509C40.222 19.0243 40.0392 19.2667 39.81 19.46C39.1804 19.9721 38.3797 20.2259 37.57 20.1699ZM37.57 10.47H39.28C39.293 10.8809 39.273 11.2922 39.22 11.7C39.16 12.12 39.1 12.47 39.05 12.7L40.11 13C40.17 12.41 40.28 11.82 40.34 11.17C40.4 10.52 40.4 9.76 40.4 9H37.57V10.47ZM37.57 14.8799H34.03V13.41H36.57V11.65H37.16C37.2987 11.6339 37.4393 11.651 37.57 11.7V14.8799ZM37.57 10.47H34.74V9H37.57V10.47ZM37.57 15.64V16.88C37.0799 16.8562 36.5916 16.9559 36.15 17.1699C36.0179 17.2455 35.9102 17.3571 35.8394 17.4917C35.7685 17.6263 35.7375 17.7783 35.75 17.9299C35.7436 18.0738 35.7776 18.2168 35.8483 18.3423C35.9191 18.4678 36.0236 18.5709 36.15 18.64C36.5814 18.8826 37.078 18.9839 37.57 18.9299V20.22C36.7603 20.2759 35.9596 20.0222 35.33 19.51C35.1008 19.3167 34.918 19.0743 34.7951 18.8008C34.6722 18.5273 34.6124 18.2297 34.62 17.9299C34.6126 17.6375 34.6728 17.3473 34.7959 17.0819C34.9191 16.8165 35.1018 16.5832 35.33 16.4C35.9596 15.8879 36.7603 15.634 37.57 15.6899" fill="#231916"/>
<path d="M48.24 15.59V17.05H46.59V20.05H45.47V17.05H44.71V15.59M44.71 15.29V14.05C45.0863 14.0556 45.462 14.0187 45.83 13.94C46.06 13.82 46.18 13.7 46.18 13.53C46.18 13.36 46.06 13.23 45.83 13.17C45.4612 13.0967 45.086 13.0599 44.71 13.0601V11.82C45.4073 11.788 46.0999 11.9507 46.71 12.29C46.9031 12.4359 47.0616 12.6228 47.174 12.8372C47.2863 13.0515 47.3499 13.2882 47.36 13.53C47.3625 13.7729 47.3044 14.0126 47.1909 14.2274C47.0774 14.4422 46.9121 14.6252 46.71 14.76C46.1185 15.1492 45.4165 15.3352 44.71 15.29ZM44.71 10.29H47.92V11.53H44.68L44.71 10.29ZM44.71 8.76001H46.18V9.94H44.71V8.76001ZM44.71 17.05H44V19.93H42.92V17.05H41.21V15.59H44.69L44.71 17.05ZM44.71 9.95001H43.41V8.77002H44.71V9.95001ZM44.71 11.53H41.58V10.29H44.71V11.53ZM44.71 11.82V13.0601C44.3139 13.0566 43.9186 13.0935 43.53 13.17C43.4469 13.1879 43.3723 13.233 43.3179 13.2983C43.2635 13.3635 43.2326 13.4451 43.23 13.53C43.2329 13.6206 43.2631 13.7083 43.3166 13.7814C43.3701 13.8546 43.4445 13.9098 43.53 13.94C43.9178 14.0217 44.3137 14.0586 44.71 14.05V15.29C44.0027 15.3428 43.2983 15.1561 42.71 14.76C42.5079 14.6252 42.3426 14.4422 42.2291 14.2274C42.1156 14.0126 42.0575 13.7729 42.06 13.53C42.0701 13.2882 42.1337 13.0515 42.246 12.8372C42.3584 12.6228 42.5168 12.4359 42.71 12.29C43.3175 11.944 44.012 11.7808 44.71 11.82Z" fill="#231916"/>
<path d="M51.92 10C52.2426 10.5513 52.4053 11.1814 52.39 11.8199C52.4002 12.4579 52.2378 13.0867 51.92 13.64C51.7904 13.9043 51.59 14.1275 51.341 14.2846C51.0921 14.4417 50.8044 14.5267 50.51 14.53V13.12C50.74 13.12 50.92 13 51.1 12.7C51.2156 12.4211 51.2735 12.1218 51.27 11.8199C51.2726 11.5182 51.2148 11.219 51.1 10.9399C50.92 10.7099 50.74 10.53 50.51 10.53V9.12C50.8036 9.1212 51.091 9.20412 51.3401 9.35956C51.5891 9.515 51.7899 9.73681 51.92 10ZM50.51 18.76H55.05V19.9299H50.51V18.76ZM50.51 18.11V17H53.81V16.4099H50.51V15.22H54.92V18.1L50.51 18.11ZM54.75 8.75995C54.87 8.75995 54.93 8.75995 54.99 8.81995L55.05 8.93994C54.99 8.99994 54.99 9.05999 54.99 9.17999L54.93 9.40997V14.71H53.81V8.70996H54.75V8.75995ZM50.51 14.53C50.2147 14.5252 49.9263 14.4397 49.676 14.2828C49.4257 14.126 49.2231 13.9037 49.09 13.64C48.7767 13.0849 48.6146 12.4573 48.62 11.8199C48.6093 11.182 48.7717 10.553 49.09 10C49.2235 9.73745 49.4266 9.51655 49.677 9.36139C49.9273 9.20623 50.2155 9.12274 50.51 9.12V10.53C50.27 10.53 50.09 10.7099 49.92 10.9399C49.7972 11.2169 49.7358 11.5171 49.74 11.8199C49.7349 12.1229 49.7963 12.4233 49.92 12.7C50.09 13 50.27 13.12 50.51 13.12V14.53ZM50.51 16.4099H49.38V15.22H50.51V16.4099ZM50.51 17V19.9299H49.38V17H50.51Z" fill="#231916"/>
<path d="M60.92 9.71002V11.22V9.75006M60.92 16.6201C61.04 16.7401 61.16 16.91 61.28 17.04C61.1323 17.1925 61.0107 17.3681 60.92 17.56V16.6201ZM60.92 14.15H61.51V19.92H62.58V9.51001C62.58 9.45001 62.64 9.39003 62.64 9.28003V8.98004C62.4958 8.89317 62.3276 8.85464 62.16 8.87006H61.51V12.69H60.92V14.15ZM64.11 8.87006C64.17 8.87006 64.17 8.98003 64.11 9.16003L64.05 9.34003V20.09H62.92V8.81006H63.57C63.87 8.81006 63.98 8.81006 64.04 8.87006M60.92 11.22H59.92V11.92C59.9182 12.9078 60.0187 13.893 60.22 14.86C60.3603 15.4796 60.5965 16.0734 60.92 16.6201V17.6201C60.76 17.8328 60.6413 18.0736 60.57 18.33C60.2226 17.9118 59.9609 17.4293 59.8 16.91C59.6191 16.3141 59.4821 15.7059 59.39 15.09C59.2657 15.7107 59.0884 16.3196 58.86 16.91C58.6447 17.4426 58.3478 17.9387 57.98 18.3801C57.8445 18.1968 57.7241 18.0028 57.62 17.8C57.44 17.56 57.33 17.39 57.21 17.21C57.8056 16.5605 58.2316 15.7739 58.45 14.92C58.7565 13.9493 58.915 12.938 58.92 11.92V11.22H57.74V9.75006H60.92V11.22ZM60.92 12.69H60.63V14.15H60.92V12.69Z" fill="#231916"/>
<path d="M67.48 16.7601C67.8144 16.768 68.1489 16.7479 68.48 16.7L69.55 16.5201L69.66 17.93C69.19 18 68.54 18.11 67.84 18.17C67.6 18.23 67.31 18.23 67.01 18.29V13.53C67.1468 13.5338 67.2816 13.4969 67.3974 13.4239C67.5131 13.3509 67.6045 13.2451 67.66 13.1201C67.8384 12.8186 67.9188 12.4692 67.89 12.1201C67.9162 11.7711 67.836 11.4225 67.66 11.1201C67.48 10.8201 67.31 10.65 67.01 10.65V9.22003C67.2663 9.22015 67.5185 9.28426 67.7437 9.40649C67.969 9.52873 68.1602 9.70524 68.3 9.92004C68.7888 10.5389 69.0406 11.312 69.01 12.1C69.0251 12.7575 68.8627 13.407 68.54 13.98C68.328 14.4015 67.9738 14.7345 67.54 14.92M71.03 8.86005C71.09 8.86005 71.09 8.92004 71.03 9.10004L70.97 9.28003V20.09H69.9V8.80005H70.55C70.79 8.80005 70.97 8.80005 71.03 8.86005ZM67.03 18.33L65.73 18.5001C65.6058 18.4889 65.481 18.5131 65.37 18.57C65.2935 18.5774 65.2165 18.5774 65.14 18.57C65.0703 18.6107 64.9907 18.6315 64.91 18.6301C64.8727 18.517 64.8525 18.3991 64.85 18.2801L64.61 16.9901H65.37C65.73 16.9201 66.08 16.9201 66.44 16.8701V14.8701C66.0299 14.65 65.685 14.3258 65.44 13.9301C65.1426 13.3496 65.0013 12.7017 65.03 12.05C65.013 11.2732 65.2404 10.5107 65.68 9.87006C65.834 9.65288 66.0379 9.47589 66.2746 9.35406C66.5112 9.23224 66.7738 9.16912 67.04 9.17004V10.58C66.8902 10.5869 66.7451 10.6343 66.6201 10.717C66.4951 10.7998 66.3948 10.9149 66.33 11.05C66.2032 11.3679 66.142 11.708 66.15 12.05C66.1409 12.3922 66.2022 12.7326 66.33 13.05C66.3995 13.1768 66.5024 13.2821 66.6276 13.3544C66.7528 13.4267 66.8955 13.4632 67.04 13.46L67.03 18.33Z" fill="#231916"/>
</g>
<defs>
<clipPath id="clip0_8063_7586">
<rect width="76.33" height="29.12" fill="white"/>
</clipPath>
</defs>
</svg>
