<svg width="55" height="71" viewBox="0 0 55 71" fill="none" xmlns="http://www.w3.org/2000/svg">
<g clip-path="url(#clip0_8102_1243)">
<mask id="mask0_8102_1243" style="mask-type:luminance" maskUnits="userSpaceOnUse" x="0" y="-1" width="55" height="72">
<path d="M55 -0.00830078H0V70.9917H55V-0.00830078Z" fill="white"/>
</mask>
<g mask="url(#mask0_8102_1243)">
<path d="M50.8263 70.8112C51.3455 70.8193 51.8611 70.7217 52.3411 70.5242C52.8209 70.3364 53.2596 70.058 53.6334 69.7044C54.3794 68.9694 54.8028 67.9701 54.8108 66.925" stroke="#124D98" stroke-width="0.45"/>
<path d="M54.8108 66.8923V4.14014" stroke="#124D98" stroke-width="0.45"/>
<path d="M54.8108 4.14013C54.8108 3.61941 54.7076 3.10381 54.5073 2.62283C54.3069 2.14185 54.0134 1.70494 53.6433 1.33712C53.2732 0.969297 52.8337 0.677773 52.3503 0.479251C51.867 0.280728 51.3491 0.179106 50.8263 0.180184" stroke="#124D98" stroke-width="0.45"/>
<path d="M50.8262 0.180176H4.13266" stroke="#124D98" stroke-width="0.45"/>
<path d="M4.13267 0.180176C3.61213 0.181059 3.09679 0.284355 2.61645 0.484146C2.13611 0.683937 1.70012 0.976295 1.33357 1.34439C0.97626 1.71491 0.696432 2.15242 0.51034 2.63155C0.313562 3.1103 0.212991 3.62282 0.21409 4.14012" stroke="#124D98" stroke-width="0.45"/>
<path d="M0.172882 4.14014V66.8923" stroke="#124D98" stroke-width="0.45"/>
<path d="M0.172919 66.8923C0.170635 67.4079 0.274389 67.9185 0.477611 68.3927C0.673943 68.871 0.96438 69.3054 1.33199 69.6701C1.69961 70.0348 2.13683 70.3224 2.61789 70.5161C3.09508 70.7133 3.60788 70.811 4.12446 70.8031" stroke="#124D98" stroke-width="0.45"/>
<path d="M4.13266 70.803H50.8262" stroke="#124D98" stroke-width="0.45"/>
<path d="M49.4433 69.2043C49.9326 69.205 50.4169 69.1074 50.8674 68.9173C51.3206 68.7252 51.7317 68.4467 52.0776 68.0975C52.4318 67.756 52.712 67.3458 52.9008 66.8923C53.0875 66.4398 53.1825 65.955 53.1806 65.4657V5.51747C53.1825 5.03088 53.0875 4.54875 52.9008 4.0991C52.7062 3.6511 52.4267 3.24468 52.0776 2.90211C51.7377 2.54951 51.3286 2.27042 50.8757 2.08225C50.4242 1.8963 49.9401 1.80155 49.4515 1.8035H5.57331C4.58478 1.80125 3.63515 2.18742 2.93078 2.87816C2.22641 3.56891 1.8241 4.50847 1.8111 5.49287V65.5149C1.81761 66.5051 2.21653 67.4527 2.92113 68.1513C3.62573 68.85 4.57903 69.2431 5.57331 69.2453" fill="#124D98"/>
</g>
<path d="M27.3971 49.5197L27.6935 49.5034L27.8169 49.4378L27.9651 49.2738L28.0392 49.1098L27.998 48.8967L27.8499 48.7983L27.6605 48.6753L27.4794 48.5113L27.3477 48.1752L27.3642 47.5439L27.4136 46.8962L27.4383 45.5352L27.4136 45.0105L27.5123 44.74L27.57 44.6006L27.9569 44.5268L28.2862 44.4612L28.6319 44.2726L28.8213 44.1087L28.9612 43.8381L29.0189 43.4774L28.9612 43.2642L28.9036 43.051L28.4261 42.223L28.1545 41.7885L27.8663 41.1408L27.7675 40.657L27.7593 39.9274L27.784 39.7142L27.8993 39.583L28.0557 39.6568L28.2121 40.0421L28.3191 40.4111L28.3438 40.739L28.4261 41.1818L28.5085 41.6491L28.7225 42.018L28.8871 41.9114L29.0682 41.6491L29.2411 41.2473L29.2494 40.862L29.2576 40.5013L29.2741 40.1569L29.2823 39.8126L29.3152 39.0419L29.2 38.3696L28.8789 37.6236L28.4755 37.0333L27.8416 36.3282L27.5123 35.8936L27.2736 35.4919L27.1584 35.0656L27.0513 34.3769L27.0019 33.8358L26.9772 33.4833L26.9196 33.2209L26.8373 33.0159L26.6233 32.8438L26.3845 32.77L26.1375 32.7044H25.9317L25.7012 32.688H25.5201L25.2238 32.6798L24.9521 32.7208L24.664 32.8192L24.524 32.9094L24.3594 33.0323L24.1618 33.1881L24.0136 33.4669L23.9807 33.7784L23.9642 34.0736L23.9971 34.3851L24.0465 34.8032L24.1371 35.0574L24.3182 35.4017L24.3841 35.7297L24.2935 36.1232L24.1865 36.2708L23.8737 36.4266L23.6926 36.4676L23.1492 36.5249L22.6882 36.5085L22.0543 36.2462L21.4534 35.7707L20.7619 34.9836L20.2103 34.2703L19.8481 33.6554L19.667 33.2455L19.3953 32.606L19.3212 32.3928L19.1648 31.9829L19.0495 31.5812L18.9754 31.1876L18.8684 30.5318L18.712 30.0644L18.5474 29.6053L18.3004 29.0724L17.8641 28.4247L17.4031 28.023L16.9585 27.695L16.5551 27.4245L15.7731 27.0227L15.3285 26.8014L14.67 26.621L14.6206 26.4652L14.67 26.1783L14.777 25.9733L15.0733 25.7356L15.4849 25.4158L15.8472 25.0961L16.053 24.8583L16.2259 24.432V24.0794L16.2341 23.9073L16.2423 23.4727L16.2506 22.948L16.1435 22.6939L16.0036 22.4561L15.8225 22.2102L15.592 21.9314L15.2133 21.6445L14.9745 21.4805L14.5629 21.2755L14.2419 21.1853L13.9373 21.0952L13.4598 21.0788L13.1634 21.0706L12.8506 21.1771L12.5213 21.3821L12.2332 21.6855L12.0192 22.0462L11.8792 22.4479L11.7886 22.9152L11.8792 23.4564L11.9862 23.8991L12.0603 24.1696L12.1591 24.4402L12.4225 24.7763L12.5954 24.9977L12.8177 25.424L12.9247 25.7602L12.8671 26.0635L12.7354 26.4406L12.3484 26.7768L11.7475 27.1785L10.7761 27.9492L9.88699 28.974L9.17077 29.9333L8.70977 30.8761L8.48749 31.3106L8.24876 31.8763L8.03472 32.6798L7.93593 33.885L7.94416 35.2296L7.91946 35.9018L7.88654 36.8201L8.1829 37.6564L8.4628 37.9351L9.08022 38.0335L9.68941 37.8039L10.0763 37.1726L9.99401 36.4512L9.77997 35.91L9.72234 35.2132L9.74704 34.5245L10.0516 33.6308L10.4221 32.852L10.7514 32.3273L10.9654 31.6878L11.1054 31.1794L11.3029 30.8679L11.6405 30.8597L11.7969 31.2204L11.9451 32.0485L11.9533 32.606L11.8792 33.3685L11.7557 34.2703L11.6487 34.9262L11.5334 35.3361L11.4017 35.91L11.2782 36.4512L11.1712 37.0005L11.1136 37.476L11.0642 38.0335L11.0889 38.5664L11.0642 39.0009L11.1218 39.5584L11.2618 40.1241L11.3359 40.4849L11.3853 40.8046L11.4841 41.3539L11.5746 41.8868L11.6158 42.6739L11.624 42.8707L11.6816 43.4692L11.6899 44.3136L11.7557 45.1171L11.7475 45.7402L11.7393 46.3469L11.8957 48.3309L11.7804 51.5776L12.0438 52.4385L12.3731 52.9058L12.9247 53.2501L13.8056 53.2829L14.283 53.1845L14.6946 52.9304L15.0486 52.7336L15.2709 52.5122L15.4356 52.1843L15.4109 51.7826L15.1063 51.3316L14.6123 50.8069L14.2583 50.4708L14.283 46.601L14.3818 45.1335L14.4394 44.1415L14.4559 43.6741L14.4724 43.3462L14.5218 42.8953V42.6493L14.6946 42.3952L14.8017 42.6083L14.9663 43.0018L14.9992 43.1986L15.0322 43.8709L15.1227 44.6334L15.1968 45.2319L15.3203 45.7238L15.4849 46.3961L15.6249 47.134L15.7319 47.5439L16.1353 48.6589L16.4893 49.6673L16.6622 50.2248L17.1808 50.5364L17.576 50.6676H17.9876L18.4815 50.5774L18.7696 50.4134L19.0084 50.1182L19.173 49.8969L19.313 49.6509L19.3953 49.2656L19.3706 48.8885L19.2636 48.4129L18.9014 47.7079L18.2263 46.5355L17.6089 45.4614L17.4525 44.9695L17.3043 44.4284L17.436 41.3949L17.6418 40.7718L17.8312 40.0913L17.9464 38.9927L17.9135 37.9597L17.6418 36.8693L17.2878 35.8199L17.0409 34.754L17.0573 34.0654L17.1149 33.4177L17.2302 33.0159L17.6007 32.9749L18.004 33.1963L18.2757 33.5898L18.5474 34.0572L18.8602 34.7458L19.2553 35.3525L19.774 36.1806L20.1938 36.7545L20.8689 37.3448L21.8238 37.8777L22.3919 38.1975L23.001 38.4434L23.3139 38.6074L23.4785 38.8288L23.5197 39.0747L23.5526 39.3371L23.5197 39.665L23.4374 40.0421L23.1163 40.8538L22.6717 41.5917L22.4659 42.2312L22.4083 42.6575V42.9855L22.4577 43.3872L22.6224 43.6577L22.8611 44.0267L23.1575 44.3464L23.4044 44.6088L23.7831 44.9285L24.2112 45.3958L24.3182 45.8304L24.3594 46.0517L24.4005 46.601L24.3758 47.1094L24.3182 47.3389L24.2112 47.7488L24.1124 48.0686L24.0548 48.2736L23.9148 48.6917L23.7996 48.9212L23.6843 49.159L23.5444 49.4542L23.495 49.7001L23.5691 49.9133L23.816 50.1346L24.1618 50.2002H24.4088L24.5652 50.1346L24.7381 49.9707L24.8451 49.8641L25.1579 49.2L25.3637 48.5113L25.5201 47.7734L25.5695 47.0192L25.5942 46.2157L25.6189 45.5434L25.6024 44.9695L25.7671 44.9613L25.9647 45.1171L26.0305 45.2975L26.1046 45.5024L26.0799 46.0599L26.1705 46.4535L26.294 46.7814L26.3104 47.0192V47.4373L26.1787 47.8882L26.1046 48.4457L26.154 48.7573L26.2775 49.077L26.3681 49.2492L26.6233 49.4378L26.9196 49.4952L27.1254 49.5361" fill="white"/>
<path d="M42.9809 27.8425C42.6623 27.8333 42.344 27.8664 42.0343 27.9409L41.4826 26.6292V26.58C41.4533 26.5027 41.4018 26.4357 41.3344 26.3875C41.267 26.3394 41.1868 26.3122 41.1039 26.3094L35.4977 26.1126L36.4362 24.3253L37.9346 24.3827C37.9892 24.3827 38.0415 24.3611 38.0801 24.3227C38.1187 24.2843 38.1404 24.2321 38.1404 24.1778V23.5383C38.1415 23.5117 38.1372 23.4853 38.1277 23.4604C38.1183 23.4356 38.1038 23.4129 38.0853 23.3938C38.0669 23.3746 38.0447 23.3594 38.0202 23.349C37.9957 23.3386 37.9693 23.3333 37.9426 23.3333L36.0904 23.2677C36.0084 23.2601 35.9262 23.2762 35.8532 23.314C35.7802 23.3518 35.7195 23.4097 35.6787 23.4809L33.5467 27.531V27.572C33.2111 27.4629 32.8621 27.3994 32.5094 27.3834C31.6468 27.3543 30.8023 27.6351 30.1302 28.1745C29.4581 28.7139 29.0033 29.4759 28.8485 30.3216C28.6937 31.1673 28.8493 32.0403 29.2871 32.7811C29.7248 33.522 30.4155 34.0815 31.233 34.3574C32.0505 34.6333 32.9402 34.6073 33.7401 34.2841C34.5399 33.961 35.1963 33.3622 35.5897 32.597C35.9831 31.8319 36.0872 30.9513 35.8829 30.1161C35.6786 29.2809 35.1795 28.5467 34.4769 28.0475L34.9379 27.1703L40.6428 27.367L41.0545 28.3591C40.3048 28.7932 39.7379 29.4825 39.458 30.3C39.1782 31.1175 39.2042 32.0081 39.5314 32.8079C39.8586 33.6078 40.465 34.263 41.2388 34.653C42.0126 35.043 42.9017 35.1414 43.7426 34.9303C44.5835 34.7191 45.3195 34.2126 45.8152 33.5038C46.3108 32.7951 46.5327 31.9319 46.44 31.0732C46.3473 30.2144 45.9461 29.418 45.3105 28.8304C44.6749 28.2428 43.8477 27.9036 42.9809 27.8753M34.9791 31.081C34.9625 31.595 34.7932 32.0925 34.4925 32.5106C34.1919 32.9287 33.7735 33.2486 33.2902 33.4298C32.807 33.611 32.2807 33.6453 31.7778 33.5284C31.275 33.4116 30.8182 33.1488 30.4654 32.7733C30.1126 32.3978 29.8795 31.9265 29.7957 31.4191C29.712 30.9116 29.7812 30.3908 29.9947 29.9226C30.2083 29.4544 30.5566 29.0598 30.9954 28.7888C31.4342 28.5178 31.9439 28.3825 32.46 28.4001C32.6687 28.4115 32.8756 28.4445 33.0774 28.4984L31.9002 30.7859C31.8657 30.8475 31.8441 30.9154 31.8365 30.9856C31.829 31.0558 31.8356 31.1268 31.8562 31.1944C31.8769 31.2619 31.9112 31.3246 31.9567 31.3787C32.0023 31.4328 32.0581 31.4772 32.1213 31.5092C32.1845 31.5412 32.2536 31.5602 32.3243 31.565C32.395 31.5698 32.466 31.5604 32.5329 31.5372C32.5999 31.5141 32.6615 31.4777 32.714 31.4303C32.7666 31.3829 32.8089 31.3255 32.8386 31.2614L34.0078 28.9822C34.3222 29.2328 34.5737 29.553 34.7424 29.9173C34.911 30.2816 34.992 30.6801 34.9791 31.081ZM42.7668 34.0407C42.2129 34.0234 41.6791 33.8304 41.243 33.4898C40.8069 33.1491 40.4914 32.6787 40.3426 32.147C40.1937 31.6154 40.2191 31.0503 40.4153 30.5341C40.6115 30.0179 40.9683 29.5775 41.4333 29.2773L42.4211 31.6713C42.4471 31.7354 42.4853 31.7937 42.5339 31.843C42.5825 31.8923 42.6405 31.9316 42.7043 31.9586C42.7682 31.9856 42.8366 31.9999 42.9059 32.0005C42.9753 32.0012 43.0442 31.9882 43.1085 31.9624C43.1728 31.9365 43.2315 31.8983 43.281 31.8499C43.3305 31.8015 43.3698 31.7439 43.3969 31.6803C43.4241 31.6168 43.4385 31.5485 43.4391 31.4794C43.4398 31.4103 43.4267 31.3418 43.4007 31.2778L42.4129 28.9002C42.5869 28.8702 42.7632 28.8565 42.9397 28.8592C43.6296 28.882 44.2823 29.1769 44.754 29.6789C45.2256 30.1809 45.4775 30.8489 45.4546 31.536C45.4317 32.2231 45.1356 32.873 44.6316 33.3427C44.1275 33.8125 43.4568 34.0635 42.7668 34.0407Z" fill="white"/>
<path d="M23.0175 11.7895C22.8611 11.8551 23.2398 12.5684 23.6761 12.8799V13.8638C23.7189 13.9791 23.7945 14.0796 23.8938 14.1527C23.993 14.2259 24.1116 14.2686 24.2348 14.2755C24.3581 14.2825 24.4808 14.2534 24.5878 14.1919C24.6947 14.1304 24.7812 14.0392 24.8368 13.9293L24.8945 12.9291H32.567V13.9539C32.6988 14.3885 33.5383 14.5114 33.6948 13.9539L33.8184 12.8389C33.9171 12.8389 34.5757 11.8141 34.3863 11.7485" fill="white"/>
<path d="M22.8035 10.978H27.6195V11.6995H22.9846C22.8333 11.4911 22.7685 11.2328 22.8035 10.978Z" fill="white"/>
<path d="M27.8417 10.978H30.1219C30.2125 10.978 30.2125 10.978 30.2125 11.0764V11.6339C30.2125 11.7323 30.2125 11.7323 30.1219 11.7323H27.8417C27.743 11.7323 27.7429 11.7323 27.7429 11.6339V11.0764C27.7429 10.978 27.743 10.978 27.8417 10.978Z" fill="white"/>
<path d="M30.3442 10.978H34.6579C34.675 11.1116 34.6649 11.2473 34.6282 11.3769C34.5914 11.5065 34.5287 11.6274 34.4438 11.7323H30.3277" fill="white"/>
<path d="M28.6485 5.20613H31.5955C31.7608 5.17443 31.9319 5.20459 32.0763 5.29083C32.2206 5.37706 32.328 5.51331 32.3777 5.67346L33.382 7.81329C33.8676 8.29668 34.2782 8.8493 34.6004 9.45301H28.6485V7.81329H32.7234L32.0648 6.10798C32.026 5.95982 31.9346 5.83074 31.8073 5.74477C31.6801 5.6588 31.5258 5.62179 31.3732 5.64066H28.6485M22.8859 9.46121C23.0806 8.81911 23.4613 8.24864 23.9806 7.82149L24.6392 5.80464C24.6923 5.62006 24.8088 5.45987 24.9683 5.352C25.1277 5.24413 25.3201 5.19541 25.5119 5.21434H28.6402V5.61606H25.693C25.1332 5.61606 25.166 5.61606 24.9767 6.14897L24.5651 7.78869H28.632V9.42841L22.8859 9.46121Z" fill="white"/>
<path d="M22.8035 9.52686C22.6512 9.97534 22.6173 10.4553 22.7048 10.9206H29.0272V9.52686H22.8035ZM23.8655 10.7649C23.7201 10.7623 23.5803 10.7079 23.4716 10.6117C23.3628 10.5155 23.2924 10.3837 23.2728 10.2401C23.2792 10.0886 23.3448 9.94561 23.4555 9.84148C23.5662 9.73736 23.7132 9.68036 23.8655 9.68263C24.0126 9.68676 24.1527 9.74682 24.2568 9.85049C24.3609 9.95416 24.4211 10.0936 24.4252 10.2401C24.4082 10.3789 24.3428 10.5074 24.2405 10.6033C24.1383 10.6991 24.0056 10.7563 23.8655 10.7649ZM25.2402 10.7649C25.0978 10.7703 24.9586 10.7231 24.8491 10.6323C24.7396 10.5414 24.6678 10.4134 24.6475 10.2729C24.6377 10.1912 24.6455 10.1084 24.6702 10.0299C24.6949 9.95144 24.736 9.87903 24.7908 9.81751C24.8457 9.756 24.913 9.70675 24.9884 9.67302C25.0637 9.6393 25.1454 9.62188 25.228 9.62188C25.3106 9.62188 25.3922 9.6393 25.4675 9.67302C25.5429 9.70675 25.6103 9.756 25.6651 9.81751C25.7199 9.87903 25.761 9.95144 25.7857 10.0299C25.8104 10.1084 25.818 10.1912 25.8082 10.2729C25.7885 10.4091 25.7203 10.5337 25.6161 10.624C25.5118 10.7143 25.3784 10.7643 25.2402 10.7649Z" fill="white"/>
<path d="M34.6661 9.52686H28.9035V10.8878H34.7485C34.882 10.4386 34.8528 9.95692 34.6661 9.52686ZM32.3448 10.7649C32.203 10.7613 32.0674 10.7059 31.9641 10.6091C31.8608 10.5122 31.797 10.3809 31.7848 10.2401C31.7837 10.1666 31.7975 10.0936 31.8252 10.0255C31.853 9.95734 31.8942 9.89545 31.9464 9.84346C31.9986 9.79147 32.0607 9.75044 32.1291 9.72281C32.1975 9.69519 32.271 9.68153 32.3448 9.68263C32.4876 9.69277 32.6213 9.75547 32.7202 9.85852C32.8191 9.96158 32.8761 10.0976 32.8798 10.2401C32.8652 10.3757 32.8039 10.502 32.7064 10.5977C32.6088 10.6933 32.4811 10.7524 32.3448 10.7649ZM33.6948 10.7649C33.5499 10.7693 33.409 10.7167 33.3027 10.6185C33.1964 10.5203 33.1332 10.3844 33.1268 10.2401C33.131 10.0922 33.1924 9.9516 33.2982 9.84771C33.4041 9.74383 33.5462 9.68469 33.6948 9.68263C33.8368 9.6929 33.9698 9.7559 34.0674 9.85915C34.165 9.9624 34.2201 10.0984 34.2218 10.2401C34.2097 10.3722 34.1493 10.4952 34.0521 10.5859C33.955 10.6766 33.8279 10.7286 33.6948 10.7321V10.7649Z" fill="white"/>
<path d="M15.5837 6.73096C15.5837 6.73096 19.1483 14.2655 16.835 21.0704" stroke="white" stroke-miterlimit="10"/>
<path d="M10.6443 43.1494C9.36716 46.315 7.63391 49.2785 5.49915 51.9465" stroke="white" stroke-miterlimit="10"/>
<path d="M43.3348 6.73096C43.3348 6.73096 50.0607 11.9617 50.0607 24.6285C50.0607 24.6285 48.4799 44.3052 41.6471 51.9463" stroke="white" stroke-miterlimit="10"/>
<path d="M8.35574 61.7437H10.3399V56.9475H9.37654V58.3823H6.38831V56.9475H5.42499V61.7437H7.40911V63.4572H4.75833V64.4985H11.0395V63.4572H8.35574V61.7437ZM6.38831 59.4071H9.37654V60.7107H6.38831V59.4071Z" fill="white"/>
<path d="M13.8631 61.6208C14.0923 61.491 14.2785 61.2972 14.3983 61.0633C14.5317 60.8107 14.5996 60.5289 14.5959 60.2435C14.5963 59.9585 14.5286 59.6774 14.3983 59.4236C14.2785 59.1897 14.0923 58.9959 13.8631 58.8661C13.6273 58.7369 13.3627 58.6692 13.0935 58.6692C12.8244 58.6692 12.5596 58.7369 12.3238 58.8661C12.1007 59.001 11.9187 59.1937 11.797 59.4236C11.6693 59.678 11.6042 59.9591 11.6075 60.2435C11.6012 60.5282 11.6665 60.81 11.797 61.0633C11.9192 61.2956 12.1045 61.4888 12.332 61.6208C12.5612 61.7561 12.8229 61.8269 13.0893 61.8258C13.3611 61.8283 13.6285 61.7574 13.8631 61.6208ZM12.5213 60.596C12.4632 60.4878 12.4347 60.3662 12.4389 60.2435C12.4359 60.113 12.4642 59.9837 12.5213 59.8663C12.5683 59.7677 12.6464 59.6871 12.7436 59.6368C12.8398 59.5781 12.9524 59.5522 13.0646 59.563C13.182 59.5531 13.2998 59.5789 13.4023 59.6368C13.4958 59.6919 13.5727 59.7712 13.6245 59.8663C13.6767 59.9851 13.7018 60.1139 13.6985 60.2435C13.7004 60.365 13.6752 60.4854 13.6245 60.596C13.5754 60.6952 13.4981 60.7779 13.4023 60.8338C13.2991 60.8907 13.1825 60.919 13.0646 60.9158C12.9519 60.9199 12.8405 60.8914 12.7436 60.8338C12.6442 60.7824 12.5657 60.6984 12.5213 60.596Z" fill="white"/>
<path d="M14.7687 57.3084H13.5668V56.4475H12.6036V57.3084H11.4017V58.3168H14.7687V57.3084Z" fill="white"/>
<path d="M15.8719 59.7022H16.4152V62.1372H17.3372V56.3572H16.4152V58.6528H15.8719V56.5375H14.9745V61.8339H15.8719V59.7022Z" fill="white"/>
<path d="M16.2671 62.4244C15.8558 62.2888 15.4241 62.225 14.991 62.2358C14.5601 62.2266 14.1309 62.2932 13.7232 62.4325C13.3997 62.5379 13.1138 62.7344 12.9 62.9983C12.7089 63.2628 12.6107 63.5826 12.6202 63.9083C12.6094 64.2317 12.7078 64.5493 12.9 64.8102C13.113 65.0767 13.3989 65.276 13.7232 65.3841C14.5507 65.6466 15.4396 65.6466 16.2671 65.3841C16.5914 65.276 16.8773 65.0767 17.0903 64.8102C17.2825 64.5493 17.3809 64.2317 17.3701 63.9083C17.3796 63.5826 17.2814 63.2628 17.0903 62.9983C16.877 62.7321 16.5912 62.5329 16.2671 62.4244ZM16.2671 64.2854C16.1336 64.4033 15.972 64.4851 15.7978 64.5232C15.5273 64.5803 15.2509 64.6051 14.9746 64.597C14.7146 64.6017 14.4551 64.577 14.2008 64.5232C14.0235 64.4868 13.8588 64.4048 13.7232 64.2854C13.6709 64.2361 13.63 64.1762 13.603 64.1097C13.5761 64.0432 13.5637 63.9717 13.5669 63.9001C13.5637 63.7509 13.6199 63.6065 13.7232 63.4984C13.8567 63.3806 14.0183 63.2987 14.1925 63.2606C14.713 63.1732 15.2444 63.1732 15.7648 63.2606C15.939 63.2987 16.1006 63.3806 16.2341 63.4984C16.2864 63.5511 16.3272 63.614 16.3541 63.6831C16.381 63.7522 16.3934 63.826 16.3905 63.9001C16.3947 63.9711 16.3837 64.0422 16.3581 64.1087C16.3326 64.1751 16.2932 64.2354 16.2424 64.2854H16.2671Z" fill="white"/>
<path d="M21.404 61.6536C21.1453 61.2436 20.9536 60.7953 20.836 60.3255C20.7084 59.8495 20.6448 59.3588 20.6467 58.8661V58.3086H22.0297V57.251H18.218V58.3086H19.6751V58.8661C19.6754 59.3943 19.609 59.9203 19.4776 60.432C19.3524 60.9252 19.1556 61.3976 18.8931 61.834C18.6571 62.2318 18.3334 62.571 17.9465 62.826L18.5145 63.8426C18.951 63.5464 19.3096 63.1499 19.56 62.6866C19.4087 62.5876 19.2911 62.4453 19.2225 62.2785C19.1539 62.1116 19.1376 61.928 19.1757 61.7518C19.2138 61.5755 19.3045 61.4149 19.436 61.2909C19.5674 61.167 19.7335 61.0855 19.9123 61.0573C20.0911 61.0291 20.2743 61.0553 20.4379 61.1327C20.6014 61.21 20.7376 61.3348 20.8286 61.4906C20.9196 61.6465 20.9611 61.8261 20.9478 62.0059C20.9344 62.1857 20.8667 62.3573 20.7536 62.4981C21.0013 62.9474 21.3579 63.3278 21.7909 63.6049L22.3259 62.5883C21.9501 62.3519 21.6346 62.032 21.404 61.6536Z" fill="white"/>
<path d="M23.5279 56.3572H22.5647V65.5724H23.5279V60.9648H24.5487V59.8826H23.5279V56.3572Z" fill="white"/>
<path d="M26.5987 60.5959C27.4324 60.935 28.3663 60.935 29.2001 60.5959C29.559 60.448 29.8677 60.2004 30.0892 59.8827C30.2994 59.561 30.4082 59.1842 30.4019 58.8005C30.4106 58.4087 30.3018 58.0233 30.0892 57.6936C29.8686 57.3711 29.5601 57.1179 29.2001 56.964C28.3663 56.625 27.4324 56.625 26.5987 56.964C26.2409 57.1181 25.9351 57.3713 25.7178 57.6936C25.5052 58.0233 25.3962 58.4087 25.4049 58.8005C25.3986 59.1842 25.5076 59.561 25.7178 59.8827C25.9361 60.2002 26.2421 60.4479 26.5987 60.5959ZM26.5987 58.2265C26.73 58.0558 26.9111 57.9298 27.1173 57.8658C27.6397 57.7017 28.2001 57.7017 28.7225 57.8658C28.931 57.9251 29.1136 58.052 29.2413 58.2265C29.3658 58.3916 29.4297 58.5941 29.4223 58.8005C29.433 59.0022 29.3685 59.2007 29.2413 59.358C29.108 59.5248 28.9271 59.6477 28.7225 59.7105C28.2001 59.8747 27.6397 59.8747 27.1173 59.7105C26.9147 59.6435 26.7352 59.5213 26.5987 59.358C26.4783 59.1971 26.4144 59.0011 26.4174 58.8005C26.4005 58.5828 26.4587 58.3659 26.5822 58.1856L26.5987 58.2265Z" fill="white"/>
<path d="M24.7874 62.5636H27.4218V65.5889H28.3767V62.5636H31.0605V61.5142H24.7874V62.5636Z" fill="white"/>
<path d="M33.6537 62.4653H32.6823V64.3756V64.9413V65.4168H37.3994V64.3756H33.6537V62.4653Z" fill="white"/>
<path d="M36.2962 63.1785H37.2512V56.3818H36.2962V58.3331H35.0038V59.3743H36.2962V63.1785Z" fill="white"/>
<path d="M33.5714 59.8745C33.6833 60.2506 33.8525 60.6073 34.0734 60.9321C34.3292 61.3037 34.6745 61.6053 35.0778 61.8093L35.6047 60.8091C35.2603 60.6563 34.9581 60.4229 34.7238 60.1286C34.4844 59.8295 34.3056 59.4871 34.197 59.1202C34.0866 58.7363 34.031 58.3389 34.0322 57.9396V56.9312H33.1021V57.9314C33.1066 58.367 33.0456 58.8009 32.921 59.2186C32.8124 59.6086 32.6279 59.9736 32.3777 60.2926C32.1347 60.605 31.8179 60.8528 31.4556 61.0141L31.9742 62.0307C32.3993 61.821 32.7646 61.508 33.0362 61.1207C33.2772 60.7348 33.4578 60.3146 33.5714 59.8745Z" fill="white"/>
<path d="M41.746 61.5143H43.7382V60.4895H39.8444V58.0381H43.6888V57.0215H38.8812V60.4895V60.9486V61.5143H40.7993V63.4738H38.1485V64.5314H44.4215V63.4738H41.746V61.5143Z" fill="white"/>
<path d="M48.4224 63.4982V62.0962H50.5381V61.055H46.5043V60.0137H50.3735V56.9639H45.5329V58.0051H49.4185V59.0053H45.5493V61.055V61.5879V62.0962H47.4757V63.4982H44.8249V64.5558H51.0979V63.4982H48.4224Z" fill="white"/>
</g>
<defs>
<clipPath id="clip0_8102_1243">
<rect width="55" height="71" fill="white"/>
</clipPath>
</defs>
</svg>
