<svg width="70" height="70" viewBox="0 0 70 70" fill="none" xmlns="http://www.w3.org/2000/svg">
<g clip-path="url(#clip0_8063_6734)">
<path d="M35.01 69.52C41.858 69.4923 48.5441 67.4361 54.2243 63.6111C59.9044 59.786 64.3238 54.3636 66.9243 48.0286C69.5249 41.6936 70.19 34.7301 68.8356 28.0174C67.4812 21.3046 64.1681 15.1437 59.3147 10.3126C54.4613 5.48154 48.2852 2.19689 41.5663 0.873482C34.8474 -0.449929 27.8869 0.247226 21.564 2.87693C15.241 5.50663 9.83913 9.95097 6.04029 15.6487C2.24146 21.3464 0.216083 28.042 0.21998 34.89C0.225213 39.4497 1.12991 43.9636 2.88209 48.1731C4.63427 52.3827 7.19956 56.2053 10.4312 59.422C13.6628 62.6388 17.4971 65.1865 21.7147 66.9192C25.9323 68.652 30.4504 69.5358 35.01 69.52Z" stroke="#D20D18" stroke-width="0.45"/>
<path d="M35.01 1.69999C43.8099 1.69999 52.2493 5.19573 58.4718 11.4182C64.6943 17.6406 68.1899 26.0801 68.1899 34.88C68.1899 43.6799 64.6943 52.1193 58.4718 58.3418C52.2493 64.5642 43.8099 68.06 35.01 68.06V60.79C41.8818 60.79 48.4721 58.0602 53.3312 53.2011C58.1902 48.3421 60.92 41.7517 60.92 34.88C60.92 28.0082 58.1902 21.4179 53.3312 16.5588C48.4721 11.6998 41.8818 8.97001 35.01 8.97001M1.68995 34.91C1.69651 30.5414 2.56366 26.2168 4.24183 22.1834C5.91999 18.15 8.37628 14.4867 11.4705 11.4027C14.5646 8.31875 18.2361 5.87457 22.275 4.20976C26.314 2.54494 30.6414 1.6921 35.01 1.69999V8.97001C28.1383 8.97001 21.5479 11.6998 16.6888 16.5588C11.8298 21.4179 9.09998 28.0082 9.09998 34.88C9.09998 41.7517 11.8298 48.3421 16.6888 53.2011C21.5479 58.0602 28.1383 60.79 35.01 60.79V68.06C26.1967 68.0786 17.7366 64.5974 11.4888 58.3814C5.24092 52.1655 1.71643 43.7233 1.68995 34.91Z" fill="#D20D18"/>
<path d="M54.88 58.34L58.75 54.71L15.69 11.84L11.82 15.42" fill="#D20D18"/>
<path d="M51.83 26.98C53.9 27.36 56.51 28.72 56.51 32.35V40.52C56.4 41.33 55.27 41.17 55.27 41.17H51.83V33.82H53.9C54.45 33.82 54.45 33.33 54.45 32.82C54.45 32.31 54.93 29.94 51.83 29.82M44.83 26.89H50.27C50.8015 26.8714 51.333 26.9252 51.85 27.05V29.82H51.52C50.87 29.82 49.1801 29.66 49.1801 30.47V33.4C49.1801 33.4 49.35 33.89 49.79 33.89H51.85V41.22H49.95C49.95 41.22 48.26 38.61 45.59 38.66C45.32 38.66 45.05 38.72 44.83 38.72V33.78H46.62C47.17 33.78 47.49 32.92 47.49 32.53V30.8C47.49 30.31 46.79 29.8 46.25 29.8H44.83V26.89ZM38.3001 26.89H44.83V29.77H43.47C43.1388 29.7966 42.8288 29.9435 42.5985 30.183C42.3682 30.4225 42.2336 30.738 42.22 31.07V32.92C42.22 33.45 42.92 33.78 43.22 33.78H44.8001V38.72C44.0232 38.9235 43.3019 39.2987 42.6892 39.8179C42.0766 40.3371 41.5882 40.9871 41.26 41.72H38.26V33.72H40C40.55 33.72 40.87 32.86 40.87 32.47V30.7399C40.8104 30.465 40.6612 30.2176 40.4458 30.0366C40.2304 29.8556 39.9612 29.7513 39.6801 29.7399H38.26L38.3001 26.89ZM31.65 26.89H38.3001V29.77H36.9399C36.608 29.7944 36.2968 29.9407 36.066 30.1806C35.8353 30.4206 35.7014 30.7373 35.6899 31.07V32.92C35.6899 33.45 36.3899 33.78 36.6899 33.78H38.27V41.78H31.62V33.78H33.37C33.92 33.78 34.24 32.92 34.24 32.53V30.8C34.1768 30.525 34.0253 30.2783 33.8086 30.0977C33.5919 29.9171 33.3219 29.8125 33.04 29.8H31.62L31.65 26.89ZM25.1801 26.89H31.65V29.77H30.29C29.9634 29.8084 29.6601 29.959 29.4321 30.1961C29.2042 30.4332 29.0656 30.742 29.04 31.07V32.92C29.04 33.45 29.75 33.78 30.04 33.78H31.61V41.78H27.92C27.6765 41.1218 27.3056 40.518 26.8286 40.0033C26.3516 39.4885 25.7778 39.0728 25.14 38.78V33.84H26.77C27.31 33.84 27.64 32.98 27.64 32.59V30.86C27.5784 30.5842 27.4273 30.3366 27.2102 30.1557C26.9931 29.9748 26.7223 29.8709 26.4399 29.86H25.12L25.1801 26.89ZM18.64 26.89H25.12V29.77H23.86C23.5333 29.8084 23.2301 29.959 23.0021 30.1961C22.7741 30.4332 22.6355 30.742 22.61 31.07V32.92C22.61 33.45 23.32 33.78 23.61 33.78H25.12V38.72C24.6347 38.5167 24.1159 38.4048 23.59 38.39C22.6916 38.4006 21.8139 38.6606 21.0547 39.1408C20.2954 39.6211 19.6845 40.3028 19.29 41.11H18.58V33.82H20.87C21.3 33.82 21.41 33.33 21.41 33.33V30.4C21.41 29.59 20.87 29.59 20.17 29.59H18.58L18.64 26.89ZM13.52 39.97V33.07C13.52 31.39 14.2899 26.89 18.3099 26.89H18.64V29.66H17.64C15.72 29.33 15.79 32.32 15.79 32.86C15.79 33.4 15.79 33.86 16.33 33.86H18.61V41.08H15.02C14.02 41.08 13.49 40.7 13.49 39.94" fill="#231916"/>
<path d="M23.53 45.97C23.9502 45.97 24.3664 45.8872 24.7546 45.7264C25.1428 45.5656 25.4955 45.3299 25.7927 45.0328C26.0898 44.7356 26.3256 44.3829 26.4864 43.9946C26.6472 43.6064 26.7299 43.1902 26.7299 42.77C26.726 42.1428 26.5367 41.5307 26.1858 41.0108C25.8348 40.491 25.3379 40.0865 24.7577 39.8483C24.1774 39.6101 23.5398 39.5488 22.9248 39.6722C22.3098 39.7955 21.745 40.098 21.3015 40.5415C20.858 40.985 20.5554 41.5498 20.4321 42.1648C20.3088 42.7798 20.37 43.4175 20.6082 43.9977C20.8464 44.578 21.251 45.0748 21.7708 45.4258C22.2907 45.7767 22.9028 45.9661 23.53 45.97Z" fill="#231916"/>
<path d="M45.79 45.97C46.6318 45.9595 47.4355 45.6177 48.027 45.0187C48.6185 44.4197 48.95 43.6118 48.95 42.77C48.9043 41.9561 48.549 41.1906 47.9567 40.6306C47.3644 40.0706 46.5802 39.7585 45.765 39.7585C44.9499 39.7585 44.1657 40.0706 43.5734 40.6306C42.9811 41.1906 42.6256 41.9561 42.58 42.77C42.5826 43.6196 42.922 44.4335 43.5237 45.0334C44.1254 45.6332 44.9404 45.97 45.79 45.97Z" fill="#231916"/>
</g>
<defs>
<clipPath id="clip0_8063_6734">
<rect width="69.97" height="69.75" fill="white"/>
</clipPath>
</defs>
</svg>
