<svg width="67" height="67" viewBox="0 0 67 67" fill="none" xmlns="http://www.w3.org/2000/svg">
<g clip-path="url(#clip0_8063_7133)">
<path d="M33.26 66.1C39.7728 66.0881 46.1359 64.1459 51.5451 60.5187C56.9544 56.8916 61.1671 51.7423 63.6507 45.7217C66.1344 39.7011 66.7776 33.0794 65.499 26.6933C64.2204 20.3073 61.0775 14.4436 56.4674 9.84324C51.8573 5.2429 45.9869 2.1124 39.5981 0.847388C33.2094 -0.417624 26.589 0.239623 20.5737 2.73606C14.5584 5.2325 9.41798 9.45606 5.80234 14.873C2.18669 20.29 0.258014 26.6572 0.259981 33.17C0.27852 41.91 3.76347 50.2857 9.95017 56.4593C16.1369 62.6328 24.5199 66.1 33.26 66.1Z" stroke="#004A9C" stroke-width="0.45"/>
<path d="M1.58003 33.17C1.5642 26.9057 3.40699 20.7775 6.87531 15.561C10.3436 10.3444 15.2815 6.27406 21.064 3.86494C26.8466 1.45581 33.2138 0.81623 39.3599 2.02717C45.5061 3.23811 51.155 6.24514 55.5915 10.6677C60.028 15.0902 63.0528 20.7294 64.2832 26.8717C65.5135 33.014 64.8941 39.3832 62.5032 45.1733C60.1124 50.9635 56.0577 55.9142 50.8521 59.399C45.6466 62.8838 39.5243 64.746 33.26 64.75C29.1044 64.7632 24.9871 63.956 21.1441 62.3749C17.3011 60.7937 13.8079 58.4696 10.8648 55.5358C7.92174 52.6021 5.58665 49.1163 3.99336 45.2783C2.40006 41.4403 1.58001 37.3256 1.58003 33.17Z" fill="#004A9C"/>
<path d="M30.32 54.28V40.39C30.32 36.64 28.52 31.48 23.32 30.51C23.32 30.51 23 30.94 23.66 31.81C24.32 32.68 24.91 35.4 21.81 35.18C21.1221 35.0461 20.4708 34.7665 19.9 34.36L7.46001 27.62C6.80001 27.14 6.2599 27.29 7.3499 26.62L21.07 18.32C22.21 17.88 23.51 17.99 23.95 18.86C24.39 19.73 23.7299 21.86 22.6399 22.28C22.6399 22.28 22.32 22.88 23.29 22.99C24.26 23.1 31.46 25.64 33.7 29.18C35.33 27.05 42.6999 22.5 45.6199 22.5C44.2599 21.63 43.3899 19.84 44.3599 18.86C45.3299 17.88 46.05 17.86 46.82 18.32L60.43 26.4C61.19 26.84 61.19 26.84 60.54 27.32L47.4 34.74C46.64 35.18 44.1899 34.85 44.7299 32.95C45.2699 31.05 45.05 30.95 45.33 30.4C45.61 29.85 45.7699 29.04 44.7299 29.75C43.6899 30.46 38.3599 32.75 38.3599 39.08V54.39" fill="white"/>
</g>
<defs>
<clipPath id="clip0_8063_7133">
<rect width="66.54" height="66.33" fill="white"/>
</clipPath>
</defs>
</svg>
