<svg width="76" height="67" viewBox="0 0 76 67" fill="none" xmlns="http://www.w3.org/2000/svg">
<g clip-path="url(#clip0_8063_6430)">
<path d="M1.26999 59.75L34.42 2.75C36.25 -0.369996 39.49 -0.369996 41.32 2.75L74.7 59.89C76.65 63.18 75 65.77 71.04 65.77H4.92999C0.749994 65.77 -0.730009 63.3 1.26999 59.77" fill="white"/>
<path d="M1.26999 59.75L34.42 2.75C36.25 -0.369996 39.49 -0.369996 41.32 2.75L74.7 59.89C76.65 63.18 75 65.77 71.04 65.77H4.92999C0.749994 65.75 -0.730009 63.31 1.26999 59.75Z" stroke="#E6002D" stroke-width="0.79"/>
<path d="M2.74999 60.45L35.66 3.78999C36.83 1.78999 38.96 1.84999 40.08 3.78999L73.16 60.53C74.35 62.53 73.11 64.11 70.81 64.11H5.33999C2.74999 64.11 1.62999 62.41 2.74999 60.4" fill="#E6002D"/>
<path d="M38.02 13.08L63.97 57.76H11.65" fill="#FFD900"/>
<path d="M38.02 13.08L63.97 57.76H11.65L38.02 13.08Z" stroke="#E6002D" stroke-width="0.57"/>
<path d="M39.2 29.31V39.88L44.74 45.65V54.23H49.52V44.47L44.16 38V29.31" fill="#231916"/>
<path d="M36.72 29.31V39.88L31.3 45.65V54.23H26.46V44.47L31.71 38V29.31" fill="#231916"/>
<path d="M1.26999 59.75L34.42 2.75C36.25 -0.369996 39.49 -0.369996 41.32 2.75L74.7 59.89C76.65 63.18 75 65.77 71.04 65.77H4.92999C0.749994 65.77 -0.730009 63.3 1.26999 59.77" fill="white"/>
<path d="M1.26999 59.75L34.42 2.75C36.25 -0.369996 39.49 -0.369996 41.32 2.75L74.7 59.89C76.65 63.18 75 65.77 71.04 65.77H4.92999C0.749994 65.75 -0.730009 63.31 1.26999 59.75Z" stroke="#D20D18" stroke-width="0.49"/>
<path d="M2.74999 60.45L35.66 3.78999C36.83 1.78999 38.96 1.84999 40.08 3.78999L73.16 60.53C74.35 62.53 73.11 64.11 70.81 64.11H5.33999C2.74999 64.11 1.62999 62.41 2.74999 60.4" fill="#D20D18"/>
<path d="M38.02 13.08L63.97 57.76H11.65" fill="#F8B500"/>
<path d="M38.02 13.08L63.97 57.76H11.65L38.02 13.08Z" stroke="#D20D18" stroke-width="0.57"/>
<path d="M39.2 29.31V39.88L44.74 45.65V54.23H49.52V44.47L44.16 38V29.31" fill="#231916"/>
<path d="M36.72 29.31V39.88L31.3 45.65V54.23H26.46V44.47L31.71 38V29.31" fill="#231916"/>
</g>
<defs>
<clipPath id="clip0_8063_6430">
<rect width="75.91" height="66.15" fill="white"/>
</clipPath>
</defs>
</svg>
