<svg width="71" height="71" viewBox="0 0 71 71" fill="none" xmlns="http://www.w3.org/2000/svg">
<g clip-path="url(#clip0_8072_691)">
<path d="M5.84999 70.4001C5.11285 70.4108 4.381 70.274 3.6975 69.9977C3.014 69.7215 2.39264 69.3113 1.86995 68.7914C1.34726 68.2715 0.933805 67.6524 0.653887 66.9704C0.373969 66.2884 0.233234 65.5573 0.239977 64.8201" stroke="#231F20" stroke-width="0.49" stroke-linecap="round" stroke-linejoin="round"/>
<path d="M0.25 64.7901V5.83008" stroke="#231F20" stroke-width="0.49" stroke-linecap="round" stroke-linejoin="round"/>
<path d="M0.23999 5.82996C0.247542 4.3618 0.816412 2.95214 1.82999 1.88996C2.35561 1.36561 2.97942 0.949997 3.66577 0.666878C4.35212 0.38376 5.08754 0.238725 5.82999 0.239999" stroke="#231F20" stroke-width="0.49" stroke-linecap="round" stroke-linejoin="round"/>
<path d="M5.85001 0.23999H65" stroke="#231F20" stroke-width="0.49" stroke-linecap="round" stroke-linejoin="round"/>
<path d="M65 0.23999C66.4793 0.247815 67.8962 0.837579 68.9441 1.88177C69.992 2.92597 70.5869 4.34064 70.6 5.81995" stroke="#231F20" stroke-width="0.49" stroke-linecap="round" stroke-linejoin="round"/>
<path d="M70.6 5.83008V64.7901" stroke="#231F20" stroke-width="0.49" stroke-linecap="round" stroke-linejoin="round"/>
<path d="M70.65 64.79C70.6537 65.5224 70.5094 66.248 70.2259 66.9233C69.9424 67.5987 69.5254 68.2098 69 68.72C68.4836 69.2429 67.8686 69.6579 67.1905 69.9412C66.5124 70.2244 65.7848 70.3702 65.05 70.37" stroke="#231F20" stroke-width="0.49" stroke-linecap="round" stroke-linejoin="round"/>
<path d="M65 70.3701H5.85001" stroke="#231F20" stroke-width="0.49" stroke-linecap="round" stroke-linejoin="round"/>
<path d="M5.85001 68.25C5.39111 68.2551 4.93572 68.1694 4.5101 67.9977C4.08448 67.8261 3.69701 67.572 3.37 67.25C2.70109 66.6003 2.31642 65.7124 2.29999 64.78" stroke="#231F20" stroke-width="0.49" stroke-linecap="round" stroke-linejoin="round"/>
<path d="M2.29999 64.7901V5.83008" stroke="#231F20" stroke-width="0.49" stroke-linecap="round" stroke-linejoin="round"/>
<path d="M2.29999 5.82988C2.30704 5.36802 2.40519 4.91212 2.58881 4.48827C2.77242 4.06441 3.03789 3.68096 3.37 3.35991C3.69451 3.03733 4.08012 2.78272 4.50424 2.61101C4.92836 2.4393 5.38247 2.35395 5.84 2.35991" stroke="#231F20" stroke-width="0.49" stroke-linecap="round" stroke-linejoin="round"/>
<path d="M5.85001 2.36011H65" stroke="#231F20" stroke-width="0.49" stroke-linecap="round" stroke-linejoin="round"/>
<path d="M65 2.39995C65.4584 2.39185 65.9137 2.47599 66.3389 2.64738C66.7641 2.81878 67.1505 3.07392 67.4752 3.39763C67.7998 3.72134 68.0561 4.107 68.2287 4.53172C68.4013 4.95644 68.4868 5.41151 68.48 5.86992" stroke="#231F20" stroke-width="0.49" stroke-linecap="round" stroke-linejoin="round"/>
<path d="M68.48 5.83008V64.7901" stroke="#231F20" stroke-width="0.49" stroke-linecap="round" stroke-linejoin="round"/>
<path d="M68.48 64.79C68.4854 65.2476 68.399 65.7016 68.2257 66.1251C68.0525 66.5487 67.7961 66.9332 67.4716 67.2558C67.1471 67.5784 66.7611 67.8327 66.3365 68.0035C65.912 68.1743 65.4575 68.2581 65 68.25" stroke="#231F20" stroke-width="0.49" stroke-linecap="round" stroke-linejoin="round"/>
<path d="M65 68.25H5.85001" stroke="#231F20" stroke-width="0.49" stroke-linecap="round" stroke-linejoin="round"/>
<path d="M67.95 55.0901H2.84" stroke="#231F20" stroke-width="0.49" stroke-linecap="round" stroke-linejoin="round"/>
<path d="M25.72 59.2599V60.4H23.54V59.23M23.54 65.17V64.05C23.6517 64.0502 23.7609 64.0169 23.8535 63.9545C23.9462 63.8922 24.0181 63.8035 24.06 63.7C24.198 63.4898 24.2646 63.2409 24.25 62.99C24.2546 62.7244 24.1891 62.4622 24.06 62.23C24.0073 62.1387 23.9315 62.0629 23.8402 62.0103C23.7489 61.9576 23.6454 61.9299 23.54 61.93V60.7599C23.8134 60.7641 24.0823 60.8302 24.3265 60.9531C24.5707 61.0761 24.7838 61.2528 24.95 61.47C25.2808 61.9 25.4602 62.4274 25.4602 62.97C25.4602 63.5126 25.2808 64.0399 24.95 64.47C24.7788 64.6772 24.5632 64.8433 24.3191 64.9558C24.075 65.0683 23.8088 65.1244 23.54 65.1199M23.54 57.47H24.83V58.65H23.54V57.47ZM29.38 57.24C29.38 57.24 29.38 57.35 29.38 57.47L29.32 57.66V66.53H28.02V62.4999H27.42V66.2599H26.13V57.4H27.02C27.31 57.4 27.42 57.4 27.49 57.47C27.56 57.54 27.55 57.47 27.49 57.65L27.42 57.8199V61.23H28.02V57.23H28.84C29.14 57.23 29.32 57.23 29.38 57.29M23.54 60.4H21.41V59.23H23.54V60.4ZM23.54 58.7H22.54V57.52H23.54V58.7ZM23.54 60.7599V61.93C23.4329 61.9281 23.3273 61.9549 23.2341 62.0077C23.1409 62.0604 23.0635 62.1372 23.01 62.23C22.8885 62.4647 22.8267 62.7257 22.83 62.99C22.8171 63.2394 22.8799 63.4868 23.01 63.7C23.0525 63.8051 23.1259 63.8949 23.2206 63.9574C23.3152 64.0199 23.4266 64.0522 23.54 64.05V65.17H23.47C23.2016 65.1723 22.936 65.1152 22.6922 65.0029C22.4484 64.8905 22.2325 64.7256 22.06 64.52C21.7488 64.0709 21.5846 63.5363 21.59 62.99C21.5755 62.4455 21.7406 61.9113 22.06 61.47C22.2182 61.2445 22.4298 61.0617 22.6758 60.9378C22.9218 60.8139 23.1947 60.7528 23.47 60.7599H23.54Z" fill="#231F20"/>
<path d="M46.65 58.02V59.26H46.58V58.02M46.58 63.73L46.94 64.08C46.82 64.2 46.7 64.3701 46.58 64.4901V63.73ZM46.58 61.73H47.29V66.4H48.53V57.81L48.59 57.64C48.6197 57.5956 48.6355 57.5435 48.6355 57.4901C48.6355 57.4367 48.6197 57.3844 48.59 57.34C48.3948 57.3074 48.1977 57.2874 48 57.28H47.29V60.45H46.58V61.73ZM50.36 57.32C50.42 57.32 50.42 57.44 50.36 57.56L50.3 57.73V66.61H49V57.26H49.84C50.13 57.26 50.3 57.26 50.36 57.32ZM46.58 59.26H45.35V59.85C45.3365 60.6669 45.4547 61.4807 45.7 62.26C45.8873 62.8061 46.1871 63.3069 46.58 63.73V64.4901L46.53 64.61C46.3704 64.7563 46.2471 64.9377 46.17 65.14C45.7673 64.8518 45.444 64.4666 45.23 64.02C44.977 63.5483 44.8174 63.0322 44.76 62.5C44.6162 63.0191 44.3972 63.5144 44.11 63.97C43.8312 64.4388 43.4724 64.8551 43.05 65.2C42.8787 65.0587 42.7213 64.9013 42.58 64.73C42.4548 64.5448 42.2952 64.3852 42.11 64.26C42.8056 63.7583 43.3378 63.0626 43.64 62.26C43.9463 61.4758 44.1056 60.6419 44.11 59.8V59.21H42.75V57.97H46.58V59.26ZM46.58 60.4901H46.17V61.72H46.58V60.4901Z" fill="#231F20"/>
<path d="M2.54999 49.7699L62.56 2.63989" stroke="#231F20" stroke-width="0.65" stroke-linecap="round" stroke-linejoin="round"/>
<path d="M2.76001 52.69L66.17 3.21997" stroke="#231F20" stroke-width="0.65" stroke-linecap="round" stroke-linejoin="round"/>
<path d="M4.70999 54.8101L68.09 5.08008" stroke="#231F20" stroke-width="0.65" stroke-linecap="round" stroke-linejoin="round"/>
<path d="M8.81 54.98L68.4 8.02002" stroke="#231F20" stroke-width="0.65" stroke-linecap="round" stroke-linejoin="round"/>
<path d="M35.44 51.8C39.9527 51.7822 44.359 50.4273 48.1021 47.9066C51.8453 45.3859 54.7575 41.8124 56.4707 37.6375C58.184 33.4626 58.6215 28.8735 57.728 24.4501C56.8346 20.0266 54.6502 15.9672 51.4508 12.7846C48.2514 9.60196 44.1805 7.4389 39.7525 6.56866C35.3244 5.69842 30.7377 6.16003 26.5719 7.89519C22.406 9.63035 18.8478 12.5612 16.3468 16.3176C13.8458 20.0739 12.5141 24.4871 12.52 28.9999C12.5278 32.002 13.1269 34.973 14.283 37.7435C15.4391 40.514 17.1296 43.0297 19.2579 45.1468C21.3862 47.264 23.9108 48.9413 26.6873 50.0828C29.4638 51.2244 32.438 51.8079 35.44 51.8Z" stroke="#CF1F25" stroke-width="0.45"/>
<path d="M35.44 7.09009C31.1131 7.098 26.8857 8.38802 23.2916 10.7972C19.6975 13.2065 16.898 16.6268 15.2467 20.6262C13.5955 24.6256 13.1665 29.0246 14.014 33.2677C14.8616 37.5108 16.9475 41.4075 20.0085 44.4657C23.0694 47.5239 26.9681 49.6063 31.2119 50.45C35.4557 51.2936 39.8544 50.8606 43.8523 49.2057C47.8502 47.5508 51.268 44.7482 53.6739 41.1519C56.0799 37.5556 57.366 33.3269 57.37 29.0001C57.3687 26.1215 56.8004 23.2714 55.6976 20.6124C54.5948 17.9535 52.9791 15.5378 50.9427 13.5032C48.9063 11.4687 46.4891 9.85519 43.8292 8.75482C41.1692 7.65445 38.3186 7.08878 35.44 7.09009ZM35.44 46.0401C32.065 46.0322 28.7682 45.0233 25.9667 43.1413C23.1652 41.2593 20.9848 38.5885 19.7015 35.467C18.4182 32.3456 18.0896 28.9136 18.7572 25.6053C19.4249 22.297 21.0588 19.2611 23.4523 16.8816C25.8457 14.5021 28.8912 12.886 32.2034 12.2378C35.5155 11.5896 38.9455 11.9383 42.0594 13.2399C45.1734 14.5415 47.8312 16.7374 49.6968 19.5499C51.5624 22.3624 52.5519 25.6651 52.54 29.0401C52.5162 33.5588 50.7038 37.8841 47.4992 41.07C44.2946 44.2558 39.9587 46.0428 35.44 46.0401Z" fill="#CF1F25"/>
<path d="M27.52 37.1699C26.7985 36.7703 26.2054 36.1737 25.81 35.4499C25.3891 34.6731 25.1691 33.8034 25.17 32.9199H27.82C27.8312 33.2922 27.9417 33.6546 28.14 33.9699C28.329 34.2794 28.5986 34.5318 28.92 34.6999C29.2533 34.8735 29.6242 34.9628 30 34.9599C30.3956 34.9638 30.7852 34.8638 31.13 34.6699C31.4584 34.4798 31.7283 34.203 31.91 33.8698C32.0918 33.5144 32.1811 33.119 32.17 32.7199C32.1796 32.3058 32.0832 31.8962 31.89 31.5299C31.6983 31.1787 31.4057 30.893 31.05 30.7099C30.6534 30.5102 30.2139 30.4106 29.77 30.4199H28.58V27.8999H29.77C30.1583 27.9071 30.5416 27.8104 30.88 27.6198C31.2026 27.4456 31.4643 27.177 31.63 26.8499C31.8097 26.4973 31.899 26.1055 31.89 25.7099C31.8994 25.3282 31.8242 24.9492 31.67 24.5999C31.5316 24.291 31.3011 24.0326 31.01 23.8599C30.7092 23.6774 30.3616 23.587 30.01 23.5999C29.6612 23.5997 29.3177 23.6856 29.01 23.8499C28.6996 24.0223 28.4408 24.2743 28.26 24.5799C28.0696 24.9162 27.9632 25.2936 27.95 25.6799H25.43C25.4349 24.8099 25.6548 23.9544 26.07 23.1899C26.4486 22.4821 27.0163 21.8936 27.71 21.4899C28.4168 21.0786 29.2223 20.8677 30.04 20.8799C30.8475 20.863 31.6437 21.0707 32.34 21.4799C33.0043 21.8773 33.5446 22.4522 33.9 23.1399C34.2671 23.8713 34.4491 24.6817 34.43 25.4999C34.4489 26.0599 34.3536 26.6179 34.15 27.1399C33.9631 27.603 33.6723 28.017 33.3 28.3499C32.9366 28.6657 32.5 28.8857 32.03 28.9899V29.1198C32.6047 29.2001 33.1489 29.4275 33.61 29.7799C34.0544 30.1276 34.3994 30.5864 34.61 31.1099C34.8374 31.6958 34.9429 32.3218 34.92 32.9499C34.9428 33.8163 34.7322 34.6729 34.31 35.4299C33.8996 36.1586 33.2934 36.7579 32.56 37.1599C31.7822 37.5864 30.9069 37.8035 30.02 37.7899C29.1468 37.8051 28.2849 37.5913 27.52 37.1699Z" fill="#231F20"/>
<path d="M37.89 36.8001C37.05 36.016 36.4412 35.0163 36.13 33.9101C35.7004 32.4224 35.4982 30.8783 35.53 29.3301C35.4972 27.7884 35.6996 26.2508 36.13 24.7701C36.4438 23.6621 37.052 22.6599 37.89 21.8701C38.6454 21.2112 39.6178 20.855 40.62 20.8701C41.6198 20.8517 42.5902 21.2085 43.34 21.8701C44.1848 22.6561 44.7972 23.6594 45.11 24.7701C45.5428 26.2505 45.7484 27.788 45.72 29.3301C45.7554 30.8791 45.5496 32.4243 45.11 33.9101C44.8031 35.0182 44.1937 36.0189 43.35 36.8001C42.584 37.4396 41.6178 37.7898 40.62 37.7898C39.6222 37.7898 38.656 37.4396 37.89 36.8001ZM41.89 34.3401C42.3246 33.7909 42.6136 33.1407 42.73 32.4501C42.941 31.424 43.0349 30.3773 43.01 29.3301C43.0263 28.2893 42.9291 27.2498 42.72 26.2301C42.5972 25.5371 42.3129 24.8827 41.89 24.3201C41.7386 24.1249 41.5445 23.9669 41.3227 23.8582C41.1008 23.7495 40.857 23.6931 40.61 23.6931C40.363 23.6931 40.1192 23.7495 39.8973 23.8582C39.6755 23.9669 39.4814 24.1249 39.33 24.3201C38.9071 24.8827 38.6228 25.5371 38.5 26.2301C38.2822 27.2486 38.1815 28.2887 38.2 29.3301C38.1828 30.3775 38.2801 31.4237 38.49 32.4501C38.6155 33.138 38.9035 33.786 39.33 34.3401C39.4814 34.5353 39.6755 34.6933 39.8973 34.8019C40.1192 34.9106 40.363 34.9671 40.61 34.9671C40.857 34.9671 41.1008 34.9106 41.3227 34.8019C41.5445 34.6933 41.7386 34.5353 41.89 34.3401Z" fill="#231F20"/>
</g>
<defs>
<clipPath id="clip0_8072_691">
<rect width="70.85" height="70.61" fill="white"/>
</clipPath>
</defs>
</svg>
