<svg width="77" height="30" viewBox="0 0 77 30" fill="none" xmlns="http://www.w3.org/2000/svg">
<g clip-path="url(#clip0_8072_382)">
<path d="M5.78991 28.8701C5.04777 28.8754 4.31205 28.7331 3.62536 28.4516C2.93867 28.1701 2.31471 27.7548 1.78991 27.23C1.27595 26.7122 0.870687 26.097 0.597654 25.4204C0.324621 24.7438 0.189353 24.0195 0.199949 23.29" stroke="#231F20" stroke-width="0.49"/>
<path d="M0.240005 23.2901V5.83008" stroke="#231F20" stroke-width="0.49"/>
<path d="M0.249976 5.81993C0.239594 5.09194 0.374866 4.36923 0.647925 3.69432C0.920983 3.0194 1.32628 2.40591 1.83994 1.88993C2.3629 1.36199 2.98623 0.943997 3.67319 0.660626C4.36015 0.377254 5.09685 0.234206 5.83994 0.23991" stroke="#231F20" stroke-width="0.49"/>
<path d="M5.78999 0.23999H70.48" stroke="#231F20" stroke-width="0.49"/>
<path d="M70.48 0.249926C71.2157 0.244107 71.945 0.387313 72.6238 0.670886C73.3027 0.954459 73.917 1.37255 74.43 1.89995C74.9531 2.41246 75.3692 3.02377 75.6542 3.69841C75.9392 4.37306 76.0873 5.09759 76.09 5.82994" stroke="#231F20" stroke-width="0.49"/>
<path d="M76.09 5.83008V23.2901" stroke="#231F20" stroke-width="0.49"/>
<path d="M76.1 23.25C76.0895 24.7318 75.494 26.1495 74.4434 27.1946C73.3927 28.2396 71.9719 28.8274 70.49 28.83" stroke="#231F20" stroke-width="0.49"/>
<path d="M70.48 28.8701H5.78999" stroke="#231F20" stroke-width="0.49"/>
<path d="M5.78998 26.8201C4.87438 26.7938 4.00563 26.4097 3.37006 25.7501C3.02871 25.4389 2.75755 25.0585 2.57477 24.6343C2.39199 24.2101 2.30173 23.7519 2.31 23.29" stroke="#231F20" stroke-width="0.49"/>
<path d="M2.31 23.2901V5.83008" stroke="#231F20" stroke-width="0.49"/>
<path d="M2.30991 5.81989C2.30355 5.35834 2.39471 4.90065 2.57737 4.47675C2.76003 4.05284 3.03014 3.67223 3.36997 3.35986C4.01327 2.72055 4.88294 2.36115 5.78989 2.35986" stroke="#231F20" stroke-width="0.49"/>
<path d="M5.78999 2.36011H70.48" stroke="#231F20" stroke-width="0.49"/>
<path d="M70.48 2.35992C71.4067 2.35452 72.2982 2.71484 72.961 3.36261C73.6237 4.01038 74.0043 4.89335 74.0201 5.81995" stroke="#231F20" stroke-width="0.49"/>
<path d="M74.02 5.83008V23.2901" stroke="#231F20" stroke-width="0.49"/>
<path d="M74.0201 23.25C74.0146 23.7097 73.9182 24.1638 73.7362 24.5861C73.5543 25.0083 73.2904 25.3903 72.96 25.71C72.6378 26.0433 72.2527 26.3095 71.8271 26.4931C71.4014 26.6768 70.9436 26.7743 70.48 26.78" stroke="#231F20" stroke-width="0.49"/>
<path d="M70.48 26.8201H5.78999" stroke="#231F20" stroke-width="0.49"/>
<path d="M12.4001 10.8701H5.73001V9.63007H12.4001V10.8701ZM10.51 11.48C10.9017 11.6313 11.2466 11.8831 11.51 12.2101C11.7421 12.5219 11.8651 12.9014 11.86 13.29C11.8636 13.6816 11.7409 14.0638 11.51 14.3801C11.2491 14.7073 10.9031 14.9564 10.51 15.1C10.0527 15.2836 9.56265 15.372 9.06998 15.36C8.57743 15.3704 8.08787 15.282 7.63004 15.1C7.23525 14.9545 6.88892 14.7017 6.63004 14.3701C6.40234 14.056 6.27969 13.678 6.27969 13.29C6.27969 12.9021 6.40234 12.5242 6.63004 12.2101C6.89443 11.8842 7.23904 11.6325 7.63004 11.48C8.10067 11.3095 8.59977 11.2314 9.10001 11.2501C9.5803 11.2371 10.0587 11.3152 10.51 11.48ZM14.6501 19.85H13.1V17.3901H7.10001V16.1301H14.6601L14.6501 19.85ZM8.41006 12.5001C8.23521 12.5561 8.08161 12.6643 7.97 12.8101C7.86283 12.9547 7.80496 13.13 7.80496 13.3101C7.80496 13.4901 7.86283 13.6654 7.97 13.8101C8.0836 13.9494 8.23722 14.0506 8.41006 14.1C8.62249 14.1719 8.84581 14.2057 9.06998 14.2001C9.29746 14.2065 9.52433 14.1726 9.74002 14.1C9.91359 14.0461 10.0691 13.9458 10.19 13.8101C10.3036 13.6682 10.3655 13.4918 10.3655 13.3101C10.3655 13.1283 10.3036 12.9519 10.19 12.8101C10.0717 12.667 9.91589 12.5596 9.74002 12.5001C9.30672 12.3667 8.84336 12.3667 8.41006 12.5001ZM9.86002 10.3201H8.28995V8.56006H9.86002V10.3201ZM14.6501 15.67H13.1V8.61005H14.68L14.6501 15.67ZM16.1601 12.8201H14.1601V11.5301H16.1601V12.8201Z" fill="#231F20"/>
<path d="M26.9101 18.47H16.67V17.2501H26.9101V18.47ZM24.83 10.8301H17.67V9.59009H24.83V10.8301ZM20.4101 17.6201H18.84V13.6201H20.4101V17.6201ZM23.2 17.6201H21.6501V13.6201H23.2V17.6201ZM25.95 12.3201C25.95 12.7801 25.95 13.32 25.84 13.91C25.73 14.5 25.68 15.17 25.56 15.91L24.01 15.7601C24.13 15.1001 24.2201 14.4701 24.2801 13.8901C24.3401 13.3101 24.37 12.7801 24.38 12.3201C24.39 11.8601 24.38 11.32 24.38 10.73V9.63007H25.95V10.73C25.97 11.31 25.96 11.8501 25.95 12.3201Z" fill="#231F20"/>
<path d="M32.3 9.52991C32.7562 9.74908 33.1386 10.0966 33.4001 10.5299C33.6679 10.9441 33.8103 11.4267 33.8103 11.9199C33.8103 12.413 33.6679 12.8957 33.4001 13.3099C33.1318 13.7375 32.7512 14.0834 32.3 14.3099C31.8111 14.5472 31.2735 14.667 30.7301 14.6599C30.1898 14.6673 29.6553 14.5474 29.17 14.3099C28.7145 14.0858 28.3302 13.7396 28.06 13.3099C27.7873 12.9055 27.6444 12.4276 27.6501 11.9399C27.6445 11.4428 27.7872 10.9554 28.06 10.5399C28.3282 10.1084 28.713 9.76169 29.17 9.53986C29.6561 9.30575 30.1906 9.18931 30.7301 9.19989C31.2719 9.18611 31.8095 9.29913 32.3 9.52991ZM36.84 19.6799H29.0101V18.4199H36.84V19.6799ZM36.71 16.5899H29.1V15.3499H36.72L36.71 16.5899ZM29.95 10.6699C29.7223 10.7705 29.5306 10.9379 29.4001 11.1499C29.2641 11.3761 29.1947 11.636 29.2 11.8999C29.1925 12.1529 29.2597 12.4025 29.393 12.6177C29.5264 12.8328 29.7201 13.004 29.95 13.1099C30.1954 13.22 30.4611 13.2779 30.7301 13.2799C31.0022 13.2776 31.2711 13.2197 31.5201 13.1099C31.7399 12.9973 31.9287 12.8325 32.07 12.6299C32.2049 12.4106 32.2744 12.1573 32.2701 11.8999C32.2754 11.636 32.206 11.3761 32.07 11.1499C31.9342 10.9424 31.744 10.7763 31.5201 10.6699C31.2719 10.5585 31.002 10.5038 30.7301 10.5099C30.4613 10.5036 30.1946 10.5583 29.95 10.6699ZM32.0201 19.0499H30.4801V15.6599H32.0201V19.0499ZM35.34 19.0499H33.81V15.6599H35.34V19.0499ZM36.4901 14.8599H34.92V8.62988H36.4901V14.8599ZM38.0101 12.3799H36.0101V11.1099H38.0101V12.3799Z" fill="#231F20"/>
<path d="M42 13.2499C41.7674 13.8507 41.4015 14.391 40.93 14.83C40.4326 15.29 39.8379 15.6319 39.19 15.83L38.43 14.5999C38.9678 14.4423 39.4681 14.177 39.9001 13.8199C40.2853 13.5137 40.5942 13.1221 40.8024 12.6761C41.0106 12.2302 41.1125 11.742 41.1 11.2499V10.78H42.39V11.2499C42.3935 11.9358 42.2609 12.6156 42 13.2499ZM44.9001 11.2499H38.81V9.94995H44.9001V11.2499ZM42.09 19.2499H40.51V16.2499H42.1L42.09 19.2499ZM48.24 19.7H40.51V18.4299H48.24V19.7ZM42.6501 10.46H41.1V8.72992H42.68L42.6501 10.46ZM42.93 12.5599C43.1401 12.9861 43.4444 13.3589 43.82 13.65C44.2531 14.0008 44.7533 14.2594 45.2899 14.4099L44.5399 15.64C43.8865 15.4479 43.2872 15.1054 42.7899 14.64C42.3201 14.2272 41.9537 13.71 41.72 13.1299C41.4781 12.5364 41.3558 11.9009 41.36 11.2599V10.7899H42.64V11.2499C42.634 11.6903 42.7333 12.1258 42.93 12.52V12.5599ZM47.18 13.21H44.5399V11.95H47.18V13.21ZM47.97 16.9999H46.4001V8.66992H47.97V16.9999Z" fill="#231F20"/>
<path d="M52.92 13.2499C52.6873 13.8507 52.3216 14.391 51.85 14.83C51.3527 15.29 50.7579 15.6319 50.11 15.83L49.35 14.5999C49.8893 14.4458 50.3901 14.1801 50.82 13.8199C51.1889 13.5161 51.486 13.1343 51.69 12.7021C51.894 12.2699 51.9999 11.7979 52 11.3199V10.8499H53.2801V11.2499C53.293 11.9338 53.1706 12.6135 52.92 13.2499ZM55.82 11.2499H49.73V9.94995H55.82V11.2499ZM53.0201 19.2499H51.43V16.2499H53.0201V19.2499ZM59.1601 19.7H51.43V18.4299H59.1601V19.7ZM53.58 10.46H52V8.72992H53.58V10.46ZM53.85 12.5599C54.0635 12.9839 54.3673 13.356 54.74 13.65C55.1756 13.9969 55.675 14.2551 56.21 14.4099L55.46 15.64C54.8066 15.4479 54.2072 15.1054 53.71 14.64C53.2426 14.225 52.8767 13.7084 52.64 13.1299C52.3982 12.5364 52.2758 11.9009 52.2801 11.2599V10.7899H53.56V11.2499C53.5591 11.6898 53.6583 12.1241 53.85 12.52V12.5599ZM58.1 13.21H55.46V11.95H58.1V13.21ZM58.89 16.9999H57.32V8.66992H58.89V16.9999Z" fill="#231F20"/>
<path d="M67.2899 11.5699H60.59V10.3199H67.2899V11.5699ZM65.44 12.5199C65.859 12.7549 66.205 13.1009 66.44 13.5199C66.6878 13.9371 66.8158 14.4146 66.81 14.8999C66.8133 15.3848 66.6854 15.8617 66.44 16.2799C66.2071 16.7005 65.8606 17.0471 65.44 17.2799C64.9792 17.5161 64.4677 17.6363 63.95 17.6299C63.4354 17.6363 62.9272 17.5161 62.47 17.2799C62.0481 17.0489 61.7011 16.7019 61.47 16.2799C61.2167 15.8645 61.0851 15.3864 61.09 14.8999C61.0845 14.4162 61.2146 13.9406 61.4656 13.527C61.7166 13.1134 62.0784 12.7784 62.51 12.5599C62.9766 12.3297 63.4898 12.21 64.01 12.21C64.5303 12.21 65.0435 12.3297 65.51 12.5599L65.44 12.5199ZM63.23 13.6299C63.0247 13.7451 62.8552 13.9146 62.74 14.1199C62.6161 14.3464 62.5539 14.6017 62.56 14.8599C62.553 15.1182 62.6152 15.3736 62.74 15.5999C62.8527 15.8045 63.0231 15.9715 63.23 16.0799C63.4553 16.1918 63.7034 16.25 63.955 16.25C64.2065 16.25 64.4547 16.1918 64.68 16.0799C64.8869 15.9715 65.0573 15.8045 65.17 15.5999C65.2867 15.371 65.3451 15.1168 65.34 14.8599C65.3443 14.603 65.2859 14.3491 65.17 14.1199C65.0548 13.9146 64.8852 13.7451 64.68 13.6299C64.4547 13.518 64.2065 13.4598 63.955 13.4598C63.7034 13.4598 63.4553 13.518 63.23 13.6299ZM64.73 11.0999H63.1V8.75989H64.69L64.73 11.0999ZM69.73 19.8499H68.13V8.60986H69.73V19.8499Z" fill="#231F20"/>
</g>
<defs>
<clipPath id="clip0_8072_382">
<rect width="76.33" height="29.12" fill="white"/>
</clipPath>
</defs>
</svg>
