<svg width="68" height="69" viewBox="0 0 68 69" fill="none" xmlns="http://www.w3.org/2000/svg">
<g clip-path="url(#clip0_8063_9522)">
<path d="M35.0208 0.0200195L31.0572 30.0398H33.2518V68.826H36.1181L36.2777 30.0398H38.9844" fill="white"/>
<path d="M35.0208 0.0200195L31.0572 30.0398H33.2518V68.826H36.1181L36.2777 30.0398H38.9844L35.0208 0.0200195Z" stroke="#231916" stroke-width="0.49"/>
<path d="M50.7888 68.826V26.3727C50.7888 22.8327 51.2544 14.5348 59.5341 10.7137V2.57642L67.8072 15.3579L59.5341 29.5647V20.959C58.0397 21.0626 56.6381 21.7263 55.6063 22.819C54.5746 23.9118 53.9875 25.3541 53.9611 26.8612V68.6721" fill="white"/>
<path d="M50.7888 68.826V26.3727C50.7888 22.8327 51.2544 14.5348 59.5341 10.7137V2.57642L67.8072 15.3579L59.5341 29.5647V20.959C58.0397 21.0626 56.6381 21.7263 55.6063 22.819C54.5746 23.9118 53.9875 25.3541 53.9611 26.8612V68.6721L50.7888 68.826Z" stroke="#231916" stroke-width="0.49"/>
<path d="M17.2112 68.826V26.3727C17.2112 22.8327 16.7456 14.5348 8.4659 10.7137V2.57642L0.16626 15.3579L8.43932 29.5647V20.959C9.93375 21.0626 11.3352 21.7263 12.367 22.819C13.3988 23.9118 13.9859 25.3541 14.0123 26.8612V68.6721" fill="white"/>
<path d="M17.2112 68.826V26.3727C17.2112 22.8327 16.7456 14.5348 8.4659 10.7137V2.57642L0.16626 15.3579L8.43932 29.5647V20.959C9.93375 21.0626 11.3352 21.7263 12.367 22.819C13.3988 23.9118 13.9859 25.3541 14.0123 26.8612V68.6721L17.2112 68.826Z" stroke="#231916" stroke-width="0.49"/>
</g>
<defs>
<clipPath id="clip0_8063_9522">
<rect width="68" height="69" fill="white"/>
</clipPath>
</defs>
</svg>
