<svg width="67" height="69" viewBox="0 0 67 69" fill="none" xmlns="http://www.w3.org/2000/svg">
<g clip-path="url(#clip0_8063_9025)">
<path d="M58.1623 0.199829H66.8098V68.8082H58.1623V65.0028H63.3936V53.7307L58.1623 59.3268V54.9857L63.3936 49.2937V37.5419L58.1623 43.138V38.9969L63.3936 33.4567V20.7615L58.1623 26.4056V22.1765L63.3936 16.6284V4.78863L58.1623 10.3368V6.0118L60.453 3.56555H58.1623M33.5277 0.231838H58.1623V3.56555H49.1423L41.7947 11.368H37.7683L45.0128 3.56555H33.5198L33.5277 0.231838ZM58.1623 68.8401H33.5277V62.3646L38.4341 57.1043H42.524L35.0496 65.0347H48.9283L58.1623 54.9857V59.3427L52.931 64.9868H58.1623V68.8401ZM58.1623 6.0118L53.1609 11.368H57.227L58.1623 10.3368V6.0118ZM58.1623 22.1765V26.4056L54.8413 29.9791V25.7501L58.1623 22.1765ZM58.1623 38.9649V43.1539L54.8413 46.7754V42.4904L58.1623 38.9649ZM8.22739 0.199829H33.5198V3.53355H31.9822L24.6901 11.3361H20.6715L27.916 3.53355H16.9779L8.25908 13.3987V8.60199L12.888 3.51754H8.25908L8.22739 0.199829ZM33.5198 68.8082H8.2353V65.0987L13.6172 65.0028L20.9965 57.0723H25.0864L17.612 65.0028H30.9755L33.504 62.3326L33.5198 68.8082ZM8.22739 55.2176V51.1325L11.2631 47.8467L11.1284 52.1158L8.22739 55.2176ZM8.22739 41.4032V37.3181L11.2631 34.0723L11.1284 38.3573L8.22739 41.4032ZM8.22739 27.301V23.2239L11.2631 19.9781L11.1284 24.2072L8.22739 27.301ZM0.182297 68.8721V0.263847H8.22739V3.59747H3.60641V13.7505L8.2353 8.68192V13.4786L3.60641 18.699V28.1964L8.2353 23.2638V27.341L3.60641 32.2336V42.3386L8.2353 37.358V41.3952L3.60641 46.3358V56.057L8.2353 51.1245V55.2096L3.60641 60.1022V65.1787L8.2353 65.1306V68.8401L0.182297 68.8721Z" fill="white"/>
<path d="M0.198166 0.199829H66.7781V68.8082H0.198166V0.199829ZM53.1609 11.3361L60.453 3.53355H49.1423L41.7947 11.3361H37.7683L45.0128 3.53355H31.9822L24.6901 11.3361H20.6715L27.916 3.53355H16.9779L3.60641 18.619V28.1164L11.271 19.9381L11.1363 24.1671L3.60641 32.1616V42.2666L11.271 34.0404L11.1363 38.3254L3.60641 46.3198V56.041L11.271 47.8228L11.1363 52.0998L3.60641 60.0942V65.1707L13.6092 65.0347L20.9965 57.0963H25.0864L17.612 65.0347H30.9755L38.4103 57.0963H42.524L35.0496 65.0347H48.9283L63.4174 49.3337V37.5818L54.865 46.7994V42.5144L63.3936 33.4008V20.7056L54.8413 29.9232V25.6941L63.3936 16.6124V4.77262L57.227 11.3521L53.1609 11.3361ZM52.931 65.0108H63.3936V53.7307L52.931 65.0108ZM12.8642 3.53355H3.60641V13.6864L12.8642 3.53355Z" stroke="#231916" stroke-width="0.49"/>
</g>
<defs>
<clipPath id="clip0_8063_9025">
<rect width="67" height="69" fill="white"/>
</clipPath>
</defs>
</svg>
