<svg width="76" height="66" viewBox="0 0 76 66" fill="none" xmlns="http://www.w3.org/2000/svg">
<g clip-path="url(#clip0_8063_6630)">
<path d="M1.14 59.64L34.28 2.63999C36.11 -0.530007 39.28 -0.530007 41.19 2.63999L74.51 59.8C76.45 63.1 74.86 65.62 70.9 65.62H4.79999C0.549988 65.62 -0.860001 63.15 1.14 59.68" fill="white"/>
<path d="M1.14 59.64L34.28 2.63999C36.11 -0.530007 39.28 -0.530007 41.19 2.63999L74.51 59.8C76.45 63.1 74.86 65.62 70.9 65.62H4.79999C0.549988 65.58 -0.860001 63.11 1.14 59.64Z" stroke="#D20D18" stroke-width="0.49"/>
<path d="M2.61 60.35L35.52 3.68C36.64 1.62 38.77 1.68 39.94 3.68L73.04 60.47C74.22 62.47 72.98 64.05 70.68 64.05H5.15C2.55 64.05 1.49 62.35 2.61 60.35Z" fill="#D20D18"/>
<path d="M37.88 12.91L63.77 57.65H11.52" fill="#F8B500"/>
<path d="M37.88 12.91L63.77 57.65H11.52L37.88 12.91Z" stroke="#D20D18" stroke-width="0.57"/>
<path d="M51.44 44.59L52.33 44.95C52.7391 45.4282 52.9875 46.0229 53.04 46.65V47.13C53.0167 47.6691 52.8578 48.1935 52.5782 48.655C52.2985 49.1164 51.9071 49.4999 51.44 49.77V48.3C51.7198 48.007 51.9041 47.636 51.9683 47.236C52.0326 46.836 51.9739 46.4259 51.8 46.06C51.669 46.1222 51.5478 46.203 51.44 46.3M46.44 42.47L51.44 44.59V46.3C51.1723 46.6102 50.9975 46.9896 50.9356 47.3947C50.8737 47.7997 50.9272 48.214 51.09 48.59C51.1656 48.5694 51.236 48.5329 51.2964 48.4829C51.3567 48.4328 51.4057 48.3705 51.44 48.3V49.8C51.2756 49.8895 51.0958 49.9471 50.91 49.97L46.49 49.44V48.44L46.96 48.56C46.79 47.08 47.08 45.08 48.2 44.33L46.49 43.67L46.44 42.47ZM40.78 40.19L46.44 42.47V43.65L46.32 43.6C45.5731 44.0661 45.034 44.8016 44.8144 45.6541C44.5947 46.5067 44.7113 47.411 45.14 48.18L46.44 48.42V49.42L40.78 48.78V44.6C41.0969 43.5942 41.6648 42.6856 42.43 41.96L41.19 41.55C41.0431 41.6541 40.9059 41.7712 40.78 41.9V40.19ZM35.04 37.72L40.88 40.19V41.89C40.2169 42.6088 39.7284 43.4708 39.4527 44.4091C39.1769 45.3474 39.1212 46.3367 39.29 47.3L40.88 47.47C40.6497 46.5238 40.6497 45.5362 40.88 44.59V48.8L35.04 48.16V42.68C35.533 41.5745 36.2092 40.5603 37.04 39.68L35.68 39.09C35.4662 39.2687 35.2687 39.4662 35.09 39.68L35.04 37.72ZM32.39 36.6L35.04 37.72V39.66C33.27 41.59 32.68 45.01 33.51 46.83H34.86C34.4453 45.4565 34.5087 43.9828 35.04 42.65V48.13L30.38 47.59L27.96 45.48V43.07L28.32 43.48C28.5955 43.0993 28.7577 42.6485 28.7877 42.1796C28.8178 41.7106 28.7146 41.2428 28.49 40.83L27.96 41.42V39.8L32.39 36.6ZM27.96 45.48L26.43 44.18V55.24H24.43V42.24L27.97 39.76V41.41L27.08 42.18L27.97 43.06L27.96 45.48Z" fill="#231916"/>
</g>
<defs>
<clipPath id="clip0_8063_6630">
<rect width="75.58" height="65.82" fill="white"/>
</clipPath>
</defs>
</svg>
