<svg width="56" height="71" viewBox="0 0 56 71" fill="none" xmlns="http://www.w3.org/2000/svg">
<g clip-path="url(#clip0_8063_9372)">
<path d="M4.524 21.1044H0.167053V49.7303H4.524V21.1044Z" fill="white"/>
<path d="M4.524 21.1044H0.167053V49.7303H4.524V21.1044Z" stroke="#231916" stroke-width="0.49"/>
<path d="M12.8133 21.1044H8.46335V49.7303H12.8133V21.1044Z" fill="white"/>
<path d="M12.8133 21.1044H8.46335V49.7303H12.8133V21.1044Z" stroke="#231916" stroke-width="0.49"/>
<path d="M21.5063 21.1044H17.1633V49.7303H21.5063V21.1044Z" fill="white"/>
<path d="M21.5063 21.1044H17.1633V49.7303H21.5063V21.1044Z" stroke="#231916" stroke-width="0.49"/>
<path d="M38.3008 21.1044H33.909V49.7303H38.3008V21.1044Z" fill="white"/>
<path d="M38.3008 21.1044H33.909V49.7303H38.3008V21.1044Z" stroke="#231916" stroke-width="0.49"/>
<path d="M29.7261 21.1044H25.3691V49.7303H29.7261V21.1044Z" fill="white"/>
<path d="M29.7261 21.1044H25.3691V49.7303H29.7261V21.1044Z" stroke="#231916" stroke-width="0.49"/>
<path d="M47.0077 21.1044H42.6577V49.7303H47.0077V21.1044Z" fill="white"/>
<path d="M47.0077 21.1044H42.6577V49.7303H47.0077V21.1044Z" stroke="#231916" stroke-width="0.49"/>
<path d="M55.833 21.1044H51.476V49.7303H55.833V21.1044Z" fill="white"/>
<path d="M55.833 21.1044H51.476V49.7303H55.833V21.1044Z" stroke="#231916" stroke-width="0.49"/>
<path d="M33.2478 70.8278L37.7649 49.7372L42.1148 70.7107" stroke="#231916" stroke-width="0.49"/>
<path d="M54.7611 70.8278L50.4111 49.7372L45.9428 70.8278" fill="white"/>
<path d="M54.7611 70.8278L50.4111 49.7372L45.9428 70.8278H54.7611Z" stroke="#231916" stroke-width="0.49"/>
<path d="M42.1148 70.8278L37.7231 49.7372L33.2478 70.8278" fill="white"/>
<path d="M42.1148 70.8278L37.7231 49.7372L33.2478 70.8278H42.1148Z" stroke="#231916" stroke-width="0.49"/>
<path d="M23.483 0.165283L19.0147 21.2697L14.6647 0.289265" stroke="#231916" stroke-width="0.49"/>
<path d="M1.97662 0.165283L6.32661 21.2697L10.8436 0.165283" fill="white"/>
<path d="M1.97662 0.165283L6.32661 21.2697L10.8436 0.165283H1.97662Z" stroke="#231916" stroke-width="0.49"/>
<path d="M14.6647 0.165283L19.0147 21.2697L23.483 0.165283" fill="white"/>
<path d="M14.6647 0.165283L19.0147 21.2697L23.483 0.165283H14.6647Z" stroke="#231916" stroke-width="0.49"/>
</g>
<defs>
<clipPath id="clip0_8063_9372">
<rect width="56" height="71" fill="white"/>
</clipPath>
</defs>
</svg>
