<svg width="69" height="68" viewBox="0 0 69 68" fill="none" xmlns="http://www.w3.org/2000/svg">
<g clip-path="url(#clip0_8063_8129)">
<path d="M29.24 37.12V24.4301C29.24 23.5101 29.24 22.43 28.32 23.02C27.72 23.56 25.92 25.19 24.83 24.15C23.74 23.11 23.96 22.42 24.83 21.15L32.13 9.21998C32.62 8.39998 33.13 8.77998 33.37 9.21998L40.46 21.48C41.22 23 40.84 25.12 38.46 24.25C37.5007 23.9809 36.6329 23.4554 35.95 22.73C35.95 22.73 35.41 22.4001 35.52 23.5401C35.63 24.6801 35.52 37.1 35.52 37.1" fill="#231916"/>
<path d="M5.40001 67.73C4.72139 67.7301 4.04948 67.596 3.42302 67.3351C2.79655 67.0742 2.22798 66.6918 1.75004 66.2101C1.2625 65.7402 0.875473 65.176 0.612471 64.552C0.349469 63.928 0.215947 63.2572 0.220015 62.5801" stroke="#231916" stroke-width="0.45"/>
<path d="M0.229996 62.5701V5.43005" stroke="#231916" stroke-width="0.45"/>
<path d="M0.229973 5.44006C0.227342 4.7585 0.35897 4.08308 0.617364 3.45239C0.875757 2.82171 1.25587 2.24808 1.73595 1.76428C2.21603 1.28049 2.78666 0.895937 3.41534 0.63269C4.04401 0.369444 4.71839 0.232602 5.39996 0.22998" stroke="#231916" stroke-width="0.45"/>
<path d="M5.39999 0.22998H62.78" stroke="#231916" stroke-width="0.45"/>
<path d="M62.78 0.22998C64.1548 0.240536 65.4698 0.794097 66.4382 1.77002C67.4066 2.74594 67.95 4.06519 67.95 5.44006" stroke="#231916" stroke-width="0.45"/>
<path d="M67.95 5.43005V62.5701" stroke="#231916" stroke-width="0.45"/>
<path d="M67.95 62.5801C67.954 63.2572 67.8206 63.928 67.5576 64.552C67.2946 65.176 66.9075 65.7402 66.42 66.2101C65.9429 66.6902 65.3759 67.0716 64.7513 67.3324C64.1267 67.5932 63.4568 67.7282 62.78 67.73" stroke="#231916" stroke-width="0.45"/>
<path d="M62.78 67.73H5.39999" stroke="#231916" stroke-width="0.45"/>
<path d="M5.39999 65.8301C4.53649 65.8035 3.7164 65.4454 3.11002 64.8301C2.81286 64.5323 2.57833 64.178 2.42032 63.7881C2.26231 63.3982 2.18404 62.9807 2.19003 62.5601" stroke="#231916" stroke-width="0.45"/>
<path d="M2.19 62.5701V5.43005" stroke="#231916" stroke-width="0.45"/>
<path d="M2.19 5.44006C2.17916 5.0173 2.2552 4.59677 2.41344 4.20459C2.57169 3.81241 2.80877 3.45689 3.10998 3.16003C3.40329 2.84596 3.75772 2.59519 4.15154 2.42322C4.54537 2.25124 4.97022 2.1617 5.39996 2.16003" stroke="#231916" stroke-width="0.45"/>
<path d="M5.39999 2.17004H62.78" stroke="#231916" stroke-width="0.45"/>
<path d="M62.78 2.18005C63.6376 2.18798 64.457 2.53552 65.0587 3.14661C65.6605 3.75769 65.9953 4.58248 65.99 5.44006" stroke="#231916" stroke-width="0.45"/>
<path d="M65.99 5.43005V62.5701" stroke="#231916" stroke-width="0.45"/>
<path d="M66.04 62.5801C66.0437 63.4312 65.7134 64.2498 65.12 64.86C64.516 65.4788 63.6944 65.8376 62.83 65.86" stroke="#231916" stroke-width="0.45"/>
<path d="M62.78 65.83H5.39999" stroke="#231916" stroke-width="0.45"/>
<path d="M15.36 50.9101C15.46 50.9101 15.52 50.9101 15.63 50.9101C15.52 50.9701 15.46 51.0801 15.36 51.1801M15.36 55.4201H18.89V57.1H15.36V55.4201ZM15.36 49.2901H17.04V53.9601H18.73V45.87C18.73 45.76 18.73 45.65 18.73 45.48C18.7493 45.3886 18.783 45.3008 18.83 45.22C18.89 45 18.89 44.89 18.83 44.84C18.5319 44.751 18.2207 44.7138 17.91 44.73H17.04V47.73H15.35L15.36 49.2901ZM15.36 45.38V47.0601H13.18V47.5C13.1546 48.2332 13.3648 48.9553 13.78 49.5601C14.1551 50.1503 14.7085 50.6056 15.36 50.86V51.1801C15.3 51.2901 15.2 51.46 15.09 51.62C14.98 51.78 14.76 52.1601 14.6 52.4401C14.0648 52.1402 13.5846 51.7513 13.18 51.2901C12.8023 50.8317 12.4893 50.3236 12.25 49.7801C12.0702 50.2898 11.7759 50.7516 11.39 51.13C10.8896 51.6424 10.3209 52.0833 9.69997 52.4401C9.51476 52.1913 9.3144 51.9541 9.09999 51.73C8.87999 51.46 8.66002 51.2401 8.50002 51.0201C8.91973 50.9392 9.32443 50.7941 9.69997 50.59C10.0462 50.3223 10.3586 50.0134 10.63 49.6701C10.9214 49.3814 11.1585 49.0427 11.33 48.6701C11.4773 48.4011 11.5692 48.1052 11.6 47.8001V47.09H9.25996V45.4101L15.36 45.38ZM15.36 47.7101H15.14V49.2901H15.36V47.7101ZM15.36 55.4201V57.1H10.04V53.0301H11.04C11.3017 53.0078 11.565 53.0454 11.81 53.1401C11.81 53.1401 11.81 53.3001 11.81 53.4601C11.7914 53.5323 11.7914 53.6079 11.81 53.6801C11.7661 53.7666 11.7454 53.8632 11.75 53.9601V55.4201H15.36Z" fill="#231916"/>
<path d="M29.13 56.77V53.35C29.415 53.5304 29.6496 53.78 29.8122 54.0754C29.9748 54.3709 30.0601 54.7028 30.06 55.04C30.0466 55.3801 29.9559 55.7127 29.7947 56.0125C29.6336 56.3122 29.4063 56.5713 29.13 56.77ZM29.13 52.7001V44.78C29.2896 44.8236 29.4546 44.8438 29.62 44.84C29.7299 44.8314 29.8401 44.8314 29.95 44.84L30.06 45C30.06 45 30 45.1101 30 45.2101C29.9522 45.2951 29.9151 45.3857 29.89 45.48C29.89 45.6 29.84 45.76 29.84 45.87V48.15H31.31V49.8301H29.84V52.65L29.13 52.7001ZM26.57 45.4301C26.62 45.4301 26.62 45.59 26.62 45.75L26.57 45.92V51.5601H23.74V49.9301H24.88V48.65H23.74V47.0801H24.88V45.34H25.88C26.1187 45.3221 26.3583 45.3598 26.58 45.4501M29.14 44.8V52.72H28.14V44.8H29.14ZM29.14 53.37L29.03 53.26C28.0296 52.7241 26.9041 52.4651 25.77 52.51C25.0969 52.4905 24.4243 52.5611 23.77 52.72V54.24C24.409 54.0022 25.0887 53.8935 25.77 53.92C26.4514 53.8911 27.1316 53.9999 27.77 54.24C27.9441 54.301 28.0951 54.4146 28.2018 54.5651C28.3086 54.7156 28.3659 54.8956 28.3659 55.0801C28.3659 55.2646 28.3086 55.4445 28.2018 55.595C28.0951 55.7455 27.9441 55.8591 27.77 55.92C27.1338 56.1691 26.4524 56.2815 25.77 56.25C25.0874 56.2836 24.4056 56.1712 23.77 55.92V57.4401C24.4229 57.6074 25.0963 57.6815 25.77 57.66C26.9143 57.7194 28.05 57.4336 29.03 56.84L29.14 56.79V53.37ZM23.75 51.5801H20.92V45.34H21.92C22.1621 45.3178 22.406 45.3556 22.63 45.4501C22.63 45.4501 22.63 45.61 22.63 45.77C22.63 45.93 22.51 45.94 22.51 45.99V47.0801H23.66V48.65H22.51V49.9501H23.66L23.75 51.5801ZM23.75 52.72V54.24C23.5759 54.301 23.425 54.4146 23.3182 54.5651C23.2115 54.7156 23.1541 54.8956 23.1541 55.0801C23.1541 55.2646 23.2115 55.4445 23.3182 55.595C23.425 55.7455 23.5759 55.8591 23.75 55.92V57.4401C23.287 57.3119 22.8479 57.1091 22.45 56.84C22.145 56.6535 21.8929 56.3921 21.7179 56.0804C21.5428 55.7688 21.4505 55.4175 21.45 55.0601C21.4378 54.6975 21.5244 54.3386 21.7005 54.0215C21.8767 53.7044 22.1357 53.4412 22.45 53.26C22.8532 53.0147 23.2917 52.8325 23.75 52.72Z" fill="#231916"/>
<path d="M37.74 49.65C37.9208 49.4861 38.1186 49.3419 38.33 49.22C38.6497 49.1019 38.9894 49.0476 39.33 49.0601C39.6574 49.0649 39.9807 49.1346 40.281 49.265C40.5814 49.3955 40.8529 49.5841 41.08 49.8201C41.6756 50.552 41.9817 51.4773 41.94 52.42C41.9753 53.2993 41.7491 54.1693 41.29 54.92C41.0293 55.3444 40.6578 55.6896 40.2156 55.9187C39.7733 56.1478 39.277 56.2519 38.78 56.22C38.4285 56.2272 38.0791 56.1638 37.7527 56.0332C37.4263 55.9026 37.1295 55.7078 36.88 55.4601C36.5743 55.1666 36.3342 54.8116 36.1757 54.4186C36.0171 54.0256 35.9436 53.6035 35.96 53.1801H37.7C37.678 53.5417 37.7921 53.8984 38.02 54.1801C38.1221 54.3105 38.2551 54.4135 38.407 54.4799C38.5589 54.5462 38.7248 54.5738 38.89 54.5601C39.0888 54.5624 39.285 54.514 39.46 54.4196C39.6349 54.3251 39.7829 54.1876 39.89 54.02C40.1239 53.5487 40.234 53.0256 40.21 52.5C40.2236 52.0615 40.1127 51.628 39.89 51.25C39.7963 51.0663 39.6528 50.9127 39.476 50.8066C39.2992 50.7006 39.0961 50.6463 38.89 50.65C38.7053 50.6584 38.5232 50.6955 38.35 50.76C38.0908 50.8872 37.8827 51.0987 37.76 51.36L36.23 51.3L36.83 45.55H41.62V47.29H38.04" fill="#231916"/>
<path d="M46.17 45.43C46.6206 45.414 47.0669 45.5221 47.4601 45.7425C47.8534 45.963 48.1785 46.2873 48.4 46.68C48.9604 47.9775 49.2039 49.3898 49.11 50.8C49.2098 52.2138 48.9662 53.6307 48.4 54.93C48.1879 55.3343 47.8663 55.6707 47.4719 55.9006C47.0775 56.1305 46.6263 56.2446 46.17 56.2299V54.65C46.6 54.65 46.93 54.38 47.17 53.78C47.39 52.8196 47.4841 51.8346 47.45 50.8499C47.4828 49.8653 47.3887 48.8806 47.17 47.92C46.95 47.38 46.62 47.05 46.17 47.05M43.88 46.7299C44.096 46.3302 44.4214 46.0004 44.8181 45.779C45.2148 45.5576 45.6665 45.4539 46.12 45.4799V47.05C45.63 47.05 45.31 47.33 45.12 47.92C44.8267 49.8623 44.8267 51.8377 45.12 53.78C45.34 54.38 45.66 54.65 46.12 54.65V56.28C45.6627 56.293 45.2108 56.1783 44.8151 55.9487C44.4194 55.719 44.0956 55.3835 43.88 54.9799C43.3017 53.6836 43.0444 52.2669 43.13 50.8499C43.0526 49.4367 43.3096 48.0252 43.88 46.7299Z" fill="#231916"/>
<path d="M59.02 55.95H57.33V47.92L55.7 55.95H53.95L52.32 47.92V55.95H50.58V45.59H53.3L54.88 53.45L56.41 45.59H59.02" fill="#231916"/>
</g>
<defs>
<clipPath id="clip0_8063_8129">
<rect width="68.18" height="67.95" fill="white"/>
</clipPath>
</defs>
</svg>
