<svg width="77" height="30" viewBox="0 0 77 30" fill="none" xmlns="http://www.w3.org/2000/svg">
<g clip-path="url(#clip0_8063_7864)">
<path d="M5.85004 28.87C4.36816 28.8674 2.9472 28.2795 1.89655 27.2345C0.845891 26.1895 0.250596 24.7718 0.240051 23.2899" stroke="#231916" stroke-width="0.49"/>
<path d="M0.23999 23.29V5.82996" stroke="#231916" stroke-width="0.49"/>
<path d="M0.240051 5.82001C0.250577 4.33724 0.845562 2.91852 1.89594 1.87189C2.94631 0.825259 4.36724 0.235211 5.85004 0.22998" stroke="#231916" stroke-width="0.49"/>
<path d="M5.85001 0.23999H70.54" stroke="#231916" stroke-width="0.49"/>
<path d="M70.54 0.23991C71.2831 0.234206 72.0198 0.377254 72.7067 0.660626C73.3937 0.943997 74.017 1.36199 74.54 1.88993C75.5512 2.9496 76.1198 4.35523 76.1299 5.81993" stroke="#231916" stroke-width="0.49"/>
<path d="M76.09 5.82996V23.29" stroke="#231916" stroke-width="0.49"/>
<path d="M76.08 23.2899C76.0684 24.7573 75.5002 26.1656 74.4901 27.23C73.9653 27.7548 73.3413 28.17 72.6546 28.4515C71.9679 28.7331 71.2322 28.8753 70.4901 28.87" stroke="#231916" stroke-width="0.49"/>
<path d="M70.54 28.87H5.85001" stroke="#231916" stroke-width="0.49"/>
<path d="M5.85004 26.75C5.38957 26.7566 4.93227 26.6723 4.50446 26.5018C4.07664 26.3314 3.68666 26.0781 3.35687 25.7567C3.02708 25.4353 2.76394 25.052 2.58258 24.6287C2.40122 24.2054 2.3052 23.7504 2.29999 23.2899" stroke="#231916" stroke-width="0.49"/>
<path d="M2.31 23.29V5.82996" stroke="#231916" stroke-width="0.49"/>
<path d="M2.31 5.81996C2.32643 4.88762 2.71104 3.99968 3.37994 3.34999C3.70664 3.02757 4.09414 2.77311 4.51984 2.60146C4.94554 2.4298 5.40108 2.34437 5.86005 2.34999" stroke="#231916" stroke-width="0.49"/>
<path d="M5.85001 2.35999H70.54" stroke="#231916" stroke-width="0.49"/>
<path d="M70.54 2.35999C71.4467 2.36235 72.3161 2.72159 72.96 3.35999C73.3009 3.67156 73.5716 4.05204 73.7543 4.47614C73.9371 4.90023 74.0276 5.35828 74.02 5.82001" stroke="#231916" stroke-width="0.49"/>
<path d="M74.03 5.82996V23.29" stroke="#231916" stroke-width="0.49"/>
<path d="M74.02 23.2899C74.0277 23.7531 73.9373 24.2128 73.7546 24.6385C73.5719 25.0643 73.3011 25.4464 72.96 25.7599C72.3143 26.3956 71.4461 26.7543 70.54 26.7599" stroke="#231916" stroke-width="0.49"/>
<path d="M70.54 26.75H5.85001" stroke="#231916" stroke-width="0.49"/>
<path d="M20.17 11.24V12.76H17.64C17.6537 13.6885 17.8977 14.599 18.35 15.41C18.7878 16.2571 19.49 16.9383 20.35 17.35C20.0994 17.5095 19.8764 17.7087 19.69 17.94C19.4762 18.1427 19.2971 18.3792 19.16 18.64C18.5885 18.2877 18.0895 17.8295 17.69 17.29C17.2593 16.7202 16.9218 16.0856 16.69 15.41C16.454 16.1401 16.0498 16.8047 15.5099 17.35C15.0049 17.9071 14.4341 18.4007 13.81 18.82C13.6258 18.5733 13.4289 18.3363 13.22 18.1101C12.92 17.8801 12.68 17.65 12.45 17.47C13.4267 17.0699 14.267 16.3962 14.8701 15.53C15.4525 14.721 15.7798 13.7564 15.81 12.76H13.04V11.24M18.52 10.59H14.7499V9.12H18.52V10.59ZM22.83 8.82002C22.89 8.82002 22.89 8.94 22.83 9.12C22.77 9.3 22.77 9.29004 22.71 9.41004C22.65 9.53004 22.65 9.65003 22.65 9.77003V13.88H24.2499V15.47H22.65V20.47H20.89V8.72004H21.89C22.2273 8.6902 22.5672 8.72758 22.89 8.83003" fill="#231916"/>
<path d="M36.16 9.53003V13.53H28.72V14.71H36.4V16.17H32.38V16.35V16.47V17.53H37.4V19.05H25.6V17.53H30.61V16.17H26.9V12H34.33V11H26.9V9.53003" fill="#231916"/>
<path d="M49.6001 8.70996C49.7801 8.76996 49.9 8.76996 49.96 8.82996L50.02 8.93994L49.96 9.11993C49.9176 9.21058 49.897 9.30995 49.9 9.40997C49.8757 9.52875 49.8757 9.65118 49.9 9.76996V15.4099H48.06V12.8799H45.94V12.53C45.8576 13.199 45.5167 13.8091 44.9901 14.2299C44.3319 14.7319 43.5166 14.9835 42.69 14.9399V13.47C42.8973 13.4943 43.1074 13.4699 43.3035 13.3987C43.4997 13.3276 43.6766 13.2116 43.82 13.0599C44.0828 12.7694 44.2283 12.3917 44.2283 11.9999C44.2283 11.6082 44.0828 11.2304 43.82 10.9399C43.6766 10.7883 43.4997 10.6723 43.3035 10.6011C43.1074 10.53 42.8973 10.5056 42.69 10.53V8.99994C43.516 8.96153 44.3295 9.21266 44.9901 9.70996C45.5188 10.1547 45.8584 10.7839 45.94 11.47V11.3599H48.06V8.70996H49.65M42.65 20.1699V18.8199H48.02V17.23H42.65V15.8199H49.8601V20.47H48.02V20.1699H42.65ZM42.65 14.9399C42.1993 14.9685 41.7476 14.9042 41.3227 14.7512C40.8978 14.5981 40.5089 14.3594 40.18 14.0499C39.9038 13.787 39.6868 13.4681 39.5437 13.1146C39.4005 12.761 39.3346 12.381 39.3501 11.9999C39.3412 11.6182 39.4101 11.2386 39.5528 10.8845C39.6955 10.5303 39.909 10.2089 40.18 9.93994C40.4987 9.61316 40.8848 9.35979 41.3114 9.19745C41.7379 9.03511 42.1947 8.96769 42.65 8.99994V10.53C42.4452 10.5187 42.2404 10.5492 42.0478 10.6197C41.8552 10.6902 41.679 10.7991 41.53 10.9399C41.2964 11.244 41.1699 11.6166 41.1699 11.9999C41.1699 12.3833 41.2964 12.7559 41.53 13.0599C41.679 13.2007 41.8552 13.3097 42.0478 13.3802C42.2404 13.4507 42.4452 13.4813 42.65 13.47V14.9399ZM42.65 15.8199V17.23H42.31V18.8199H42.6001V20.1699H42.31V20.47H40.4801V15.8199H42.65Z" fill="#231916"/>
<path d="M64.06 14.94V16.47H59.06V20.47H57.31V16.47H52.31V14.94M59.31 8.99996C59.42 9.05996 59.4201 9.23999 59.2401 9.46999C59.2661 9.76662 59.3733 10.0503 59.55 10.2899C59.802 10.6254 60.1182 10.9076 60.48 11.12C60.9162 11.4222 61.3946 11.6581 61.9 11.82C62.4825 12.0706 63.0995 12.2324 63.73 12.2999C63.5216 12.5099 63.3401 12.745 63.19 13C63.02 13.23 62.91 13.53 62.73 13.76C61.7978 13.5634 60.9009 13.2262 60.07 12.76C59.3705 12.456 58.7635 11.9731 58.31 11.3599C57.7961 12.0117 57.1525 12.5497 56.42 12.94C55.6611 13.3645 54.8465 13.6809 53.9999 13.88C53.8299 13.65 53.64 13.4099 53.47 13.1699C53.3 12.9299 52.9899 12.65 52.7599 12.41C53.945 12.2803 55.0792 11.8576 56.06 11.18C56.4503 10.9368 56.7736 10.5999 57.0007 10.2C57.2277 9.80004 57.3513 9.34976 57.36 8.88997H58.54C58.8017 8.867 59.0652 8.90463 59.31 8.99996Z" fill="#231916"/>
</g>
<defs>
<clipPath id="clip0_8063_7864">
<rect width="76.33" height="29.12" fill="white"/>
</clipPath>
</defs>
</svg>
