<svg width="76" height="66" viewBox="0 0 76 66" fill="none" xmlns="http://www.w3.org/2000/svg">
<g clip-path="url(#clip0_8063_6411)">
<path d="M74.37 59.54L41.23 2.54002C39.46 -0.56998 36.23 -0.56998 34.38 2.54002L1.12 59.66C-0.880003 62.95 0.819993 65.54 4.70999 65.54H70.71C74.95 65.54 76.43 63.07 74.42 59.54" fill="white"/>
<path d="M74.37 59.54L41.23 2.54002C39.46 -0.56998 36.23 -0.56998 34.38 2.54002L1.12 59.66C-0.880003 62.95 0.819993 65.54 4.70999 65.54H70.71C74.9 65.54 76.38 63.07 74.37 59.54Z" stroke="#D20D18" stroke-width="0.49"/>
<path d="M37.86 12.98L63.58 57.42H11.68" fill="#F8B500"/>
<path d="M37.86 12.98L63.58 57.42H11.68L37.86 12.98Z" stroke="#D20D18" stroke-width="1.95"/>
<path d="M11.56 57.49H63.1L24.12 35.26" fill="#231916"/>
<path d="M11.56 57.49H63.1L24.12 35.26L11.56 57.49Z" stroke="#231916" stroke-width="0.42"/>
<path d="M37.62 57.43H63.62L37.9 12.98L37.66 13.4V2.34C38.149 2.35593 38.6239 2.50745 39.0318 2.77762C39.4397 3.04779 39.7645 3.42597 39.97 3.87L72.76 60.19C73.99 62.25 72.76 63.77 70.46 63.77H37.62M11.68 57.43H37.62V63.77H5.37C2.77 63.77 1.65 62.07 2.77 60.13L35.45 3.81C35.6439 3.39085 35.9484 3.03251 36.3307 2.7735C36.7131 2.51449 37.1588 2.3646 37.62 2.34V13.4L11.68 57.43Z" fill="#D20D18"/>
<path d="M36.68 32.5L33.21 37.62L31.79 36.62L34.38 32.79C33.9334 32.7124 33.4994 32.5745 33.09 32.38L33.56 31.68C33.8845 31.905 34.2632 32.0394 34.6569 32.0692C35.0507 32.0991 35.4453 32.0234 35.8 31.85" fill="#231916"/>
<path d="M36.57 37.67L35.09 38.56C35.2931 38.9975 35.6199 39.366 36.03 39.62C37.45 40.56 38.8 40.2 40.03 38.44C40.85 37.21 41.03 36.21 40.67 35.38L39.15 36.26C38.97 36.56 38.73 36.91 38.44 37.32C37.44 38.85 36.78 39.44 36.37 39.2C35.96 38.96 36.2 38.5 36.61 37.67" fill="#231916"/>
<path d="M39.12 36.26L40.64 35.38C40.4065 34.9443 40.0613 34.5785 39.64 34.32C38.23 33.32 36.93 33.74 35.64 35.5C35.2708 35.9071 35.0205 36.4078 34.9165 36.9474C34.8125 37.487 34.8586 38.0448 35.05 38.56L36.53 37.67C36.7389 37.302 36.9763 36.9509 37.24 36.62C38.24 35.09 38.94 34.5 39.3 34.74C39.66 34.98 39.48 35.44 39.07 36.26" fill="#231916"/>
<path d="M43.23 43.32L42.47 43.73C42.6097 43.934 42.786 44.1103 42.99 44.25C43.77 44.79 44.47 44.61 45.06 43.73C45.2725 43.5301 45.411 43.264 45.4527 42.9752C45.4945 42.6864 45.4371 42.392 45.29 42.14L44.59 42.55C44.47 42.73 44.35 42.91 44.17 43.14C43.71 43.91 43.35 44.2 43.17 44.02C42.99 43.84 43.04 43.73 43.28 43.32" fill="#231916"/>
<path d="M44.59 42.55L45.29 42.14C45.1625 41.9236 44.984 41.7416 44.77 41.61C44 41.08 43.29 41.26 42.7 42.14C42.4859 42.339 42.3463 42.6052 42.3045 42.8944C42.2626 43.1837 42.321 43.4786 42.47 43.73L43.23 43.32C43.316 43.1067 43.434 42.9077 43.58 42.73C44.06 41.96 44.47 41.67 44.65 41.79C44.83 41.91 44.77 42.14 44.59 42.55Z" fill="#231916"/>
<path d="M41.7 38.56L40.94 39.03C41.071 39.2279 41.2499 39.3896 41.46 39.5C42.23 40.02 42.94 39.85 43.52 38.96C43.7244 38.7573 43.8581 38.4943 43.9013 38.2097C43.9445 37.9251 43.895 37.6342 43.76 37.38L42.99 37.85C42.9064 38.0464 42.7878 38.226 42.64 38.38C42.17 39.14 41.76 39.44 41.58 39.32C41.4 39.2 41.52 38.96 41.7 38.56Z" fill="#231916"/>
<path d="M39.92 42.14L45.76 38.62L46.36 39.03L40.45 42.49" fill="#231916"/>
<path d="M42.99 37.85L43.76 37.38C43.6234 37.1865 43.4658 37.0087 43.29 36.85C43.1244 36.7192 42.931 36.628 42.7246 36.5837C42.5183 36.5393 42.3045 36.5428 42.0997 36.594C41.895 36.6452 41.7047 36.7427 41.5435 36.8789C41.3823 37.0152 41.2545 37.1866 41.17 37.38C40.9812 37.6059 40.8587 37.8797 40.8164 38.171C40.774 38.4623 40.8133 38.7597 40.93 39.03L41.7 38.56C41.8276 38.37 41.9444 38.173 42.05 37.97C42.58 37.26 42.94 36.97 43.12 37.09C43.3 37.21 43.23 37.44 42.99 37.85Z" fill="#231916"/>
<path d="M27.19 44.08L29.19 40.49L40.87 47.2L41.52 46.14L45.17 52.08L38.57 52.19L39.22 51.02" fill="white"/>
<path d="M27.19 44.08L29.19 40.49L40.87 47.2L41.52 46.14L45.17 52.08L38.57 52.19L39.22 51.02L27.19 44.08Z" stroke="#231916" stroke-width="0.42"/>
</g>
<defs>
<clipPath id="clip0_8063_6411">
<rect width="75.5" height="65.78" fill="white"/>
</clipPath>
</defs>
</svg>
