<svg width="67" height="67" viewBox="0 0 67 67" fill="none" xmlns="http://www.w3.org/2000/svg">
<g clip-path="url(#clip0_8063_7121)">
<path d="M33.27 66.1C39.7798 66.0743 46.1359 64.1203 51.5359 60.4848C56.936 56.8493 61.1377 51.6952 63.6107 45.6734C66.0836 39.6516 66.7168 33.0321 65.4304 26.6507C64.1439 20.2693 60.9955 14.4121 56.3826 9.81876C51.7698 5.22542 45.8993 2.10187 39.5125 0.842507C33.1257 -0.416859 26.5089 0.244441 20.4976 2.7429C14.4864 5.24136 9.35025 9.46493 5.73767 14.8803C2.1251 20.2958 0.198088 26.6602 0.200014 33.17C0.218561 41.9186 3.71039 50.3019 9.9079 56.4769C16.1054 62.6519 24.5013 66.1132 33.25 66.1" stroke="#004A9C" stroke-width="0.45"/>
<path d="M1.58 33.17C1.56417 26.9061 3.40679 20.7783 6.87467 15.562C10.3426 10.3457 15.2799 6.27533 21.0618 3.86592C26.8438 1.4565 33.2105 0.816309 39.3564 2.02644C45.5022 3.23657 51.151 6.24261 55.5879 10.6641C60.0249 15.0857 63.0505 20.724 64.282 26.8656C65.5135 33.0072 64.8954 39.3762 62.5061 45.1665C60.1168 50.9567 56.0636 55.9081 50.8594 59.3941C45.6552 62.8801 39.5339 64.7441 33.27 64.75C29.114 64.7632 24.9962 63.9561 21.1526 62.3751C17.3091 60.794 13.8152 58.4701 10.8714 55.5364C7.92751 52.6028 5.59143 49.1171 3.99705 45.2791C2.40267 41.441 1.58129 37.326 1.58 33.17Z" fill="#004A9C"/>
<path d="M45.03 55.25V24.62C45.03 23.62 45.03 22.3899 46.03 23.0399C46.69 23.6999 48.7 25.4899 49.84 24.2899C50.98 23.0899 50.84 22.3899 49.84 21.0299L41.79 7.73996C41.24 6.81996 40.69 7.25996 40.42 7.73996L32.53 21.37C31.66 23.04 32.09 25.37 34.76 24.37C35.8205 24.0692 36.7807 23.489 37.54 22.69C37.54 22.69 38.19 22.36 38.08 23.69C37.97 25.02 38.08 35.25 38.08 35.25C38.08 36.38 37.76 36.93 36.67 36.38C34.43 34.92 29.32 33.29 26.6 33.62L28.28 30.8C29.05 29.39 28.28 27.59 26.49 27.92L11.57 36.27C10.7 36.71 10.92 37.36 11.46 37.8L25.4 45.7199C26.87 46.5899 29.1 45.94 27.84 43.61C26.58 41.28 26.16 40.61 26.16 40.61C27.96 39.8 30.84 40.24 33.4 42.36C35.522 44.1307 37.1368 46.4322 38.08 49.0299V55.21" fill="white"/>
</g>
<defs>
<clipPath id="clip0_8063_7121">
<rect width="66.49" height="66.33" fill="white"/>
</clipPath>
</defs>
</svg>
