<svg width="62" height="69" viewBox="0 0 62 69" fill="none" xmlns="http://www.w3.org/2000/svg">
<g clip-path="url(#clip0_8072_249)">
<path d="M2.02002 51.97V64.4C2.02002 66.19 2.89002 66.46 4.02002 66.57H57.22C58.69 66.36 59.12 66.19 59.12 63.8V51.8L31.62 4.06995C30.53 2.60995 29.28 2.92995 28.36 4.50995" fill="#004A9C"/>
<path d="M0.23 51.28V65.33" stroke="#004A9C" stroke-width="0.45"/>
<path d="M0.219975 65.33C0.489975 67.4 1.64003 68 3.65003 68" stroke="#004A9C" stroke-width="0.45"/>
<path d="M3.66 67.99H59.08" stroke="#004A9C" stroke-width="0.45"/>
<path d="M59.07 67.97C60.38 67.7 61.07 67.3701 61.07 64.8101" stroke="#004A9C" stroke-width="0.45"/>
<path d="M61.03 64.84V51.28L32.18 1.14001" stroke="#004A9C" stroke-width="0.45"/>
<path d="M32.18 1.13993C31.8962 0.815335 31.538 0.56431 31.136 0.408306C30.734 0.252301 30.3003 0.195966 29.8718 0.244121C29.4433 0.292276 29.0329 0.443519 28.6755 0.684856C28.3182 0.926192 28.0247 1.25042 27.82 1.62992" stroke="#004A9C" stroke-width="0.45"/>
<path d="M27.83 1.63L0.220001 51.28" stroke="#004A9C" stroke-width="0.45"/>
<path d="M24.12 21.22C23.46 21.87 22.6 22.42 23.68 24.59C24.76 26.76 24.22 26.21 24.06 26.59C23.3908 27.2817 22.8249 28.0665 22.38 28.92C22.2366 29.9682 22.0159 31.0043 21.72 32.02C21.12 33.27 18.24 34.3 17.64 34.62C17.4217 34.7088 17.2417 34.8719 17.1319 35.0805C17.0222 35.2891 16.9896 35.5297 17.04 35.76C17.2 35.93 17.48 36.03 18.24 35.82C19.0816 35.5021 19.9576 35.284 20.85 35.17C21.0311 35.1963 21.216 35.1685 21.3814 35.0903C21.5468 35.012 21.6854 34.8867 21.78 34.73C22.05 34.35 22.6 33.54 22.98 33.43C23.36 33.32 23.19 33.7 23.14 33.97C22.793 35.1421 22.1568 36.2081 21.29 37.07C20.29 37.93 21.18 38.15 21.45 38.37C21.72 38.59 22.6 39.02 22.45 39.23C22.1774 39.8772 21.96 40.5462 21.8 41.23C21.74 41.67 21.69 44 21.69 45.3C21.7431 46.3399 21.4552 47.3687 20.87 48.23C20.393 48.648 19.8848 49.0291 19.35 49.37C19.13 49.53 19.29 49.86 19.57 50.02C20.0183 50.2808 20.5221 50.4316 21.04 50.46C21.52 50.46 22.89 50.56 22.51 49.53C22.24 48.82 22.62 48.61 22.83 48.17C23.2858 47.0821 23.6503 45.9583 23.92 44.81C23.8682 44.1026 23.9222 43.3914 24.08 42.7C24.36 42.05 25.56 39.82 26.08 39.87C26.6 39.92 26.9 40.63 26.95 40.8C27 40.97 27.12 43.18 27.28 43.56C27.6684 44.4696 28.1057 45.3576 28.59 46.22C28.75 46.55 28.59 47.41 28.8 47.8C29.01 48.19 29.29 48.61 29.24 48.93C29.19 49.25 28.64 50.34 29.02 50.67C29.4 51 29.84 50.56 30.32 50.4C30.8 50.24 31.64 49.8 31.32 48.82C31 47.84 31.04 48.44 30.93 47.96C30.77 47.09 30.77 46.06 30.5 45.08C30.2245 44.0845 29.8906 43.1061 29.5 42.15C29.4569 41.9776 29.4544 41.7977 29.4925 41.6242C29.5307 41.4507 29.6085 41.2883 29.72 41.15C30.31 40.34 30.04 39.47 30.48 39.09C30.92 38.71 31.41 38.82 30.86 37.52C30.54 36.52 28.79 33.12 28.79 32.52C28.79 31.92 28.63 31.27 29.23 31.11C29.8296 31.161 30.4041 31.374 30.892 31.7263C31.3799 32.0786 31.7629 32.5569 32 33.11C32.1505 33.9903 32.1505 34.8897 32 35.77C31.9955 35.9313 32.0399 36.0902 32.1273 36.2258C32.2148 36.3615 32.3412 36.4675 32.49 36.53C32.76 36.7 33.69 36.8 34.18 37.24C34.3957 37.4598 34.6763 37.6047 34.9805 37.6533C35.2847 37.7019 35.5965 37.6516 35.87 37.51C36.35 37.13 37.28 36.1 37.72 36.42C37.9134 36.661 38.0484 36.9435 38.1144 37.2454C38.1803 37.5473 38.1753 37.8603 38.1 38.16C38.0552 39.2392 37.8323 40.3036 37.44 41.31C36.8195 42.7211 36.4343 44.2243 36.3 45.76C36.3668 46.5831 36.2751 47.4114 36.03 48.2C35.81 48.63 35.21 48.85 35.48 49.34C35.7508 49.624 36.1141 49.8021 36.5044 49.8424C36.8948 49.8827 37.2868 49.7826 37.61 49.56C38.48 49.07 38.21 48.3 38.15 47.87C38.1453 47.3424 38.199 46.8158 38.31 46.3C38.31 45.98 38.8 44.62 38.8 44.3C38.8 43.98 39.19 42.68 39.8 42.73C40.41 42.78 40.39 43.73 40.29 44.09C40.2239 44.785 40.3741 45.4835 40.72 46.09C41.1833 46.7963 41.4996 47.5888 41.65 48.42C41.65 49.08 41.53 50.05 42.02 50.22C42.51 50.39 42.95 49.95 43.5 49.22C43.7057 48.9271 43.816 48.5779 43.816 48.22C43.816 47.8621 43.7057 47.5129 43.5 47.22C43.114 46.4651 42.8218 45.6658 42.63 44.84C42.3988 43.6238 42.2883 42.3878 42.3 41.15C42.2287 40.2959 42.0438 39.4551 41.75 38.65C41.59 38.11 41.37 36.65 41.65 36.48C41.93 36.31 42.52 37.24 42.84 37.68C43.33 38.38 42.68 39.41 43.38 39.68C44.08 39.95 44.59 38.81 44.59 38.33C44.59 37.85 44.04 35.99 43.99 35.56C43.7504 34.6913 43.2805 33.9035 42.63 33.28C42.02 32.79 40.72 31.76 40.83 31.43C41.0831 30.8405 41.2644 30.2227 41.37 29.59C41.3788 29.0967 41.205 28.6176 40.8819 28.2448C40.5589 27.8719 40.1095 27.6315 39.62 27.57C39.4103 27.5326 39.1951 27.5407 38.9888 27.5936C38.7825 27.6465 38.5899 27.743 38.4241 27.8767C38.2582 28.0103 38.123 28.1779 38.0274 28.3682C37.9318 28.5586 37.8781 28.7672 37.87 28.98C37.8217 29.582 37.8792 30.1878 38.04 30.77C38.15 31.1 38.58 31.3099 38.2 31.6899C37.82 32.0699 37.49 31.85 37.06 32.62C36.63 33.39 36.24 34.24 36.06 34.62C35.88 35 35.41 35.49 34.97 35.22C34.63 34.9865 34.3209 34.7109 34.05 34.4C33.77 34.29 33.83 33.53 33.83 33.21C33.4789 32.0865 32.9266 31.0361 32.2 30.11C31.49 29.41 30.67 28 30.02 27.62C29.37 27.24 27.84 26.85 27.68 26.48C27.5725 26.3093 27.5155 26.1117 27.5155 25.91C27.5155 25.7083 27.5725 25.5107 27.68 25.34C28.2207 24.5643 28.564 23.6684 28.68 22.73C28.6352 22.1042 28.3794 21.5121 27.9543 21.0507C27.5292 20.5892 26.96 20.2857 26.34 20.19C25.9041 20.1396 25.4628 20.2144 25.0679 20.4057C24.673 20.597 24.3407 20.8967 24.11 21.27" fill="white"/>
<path d="M12.46 56.6C12.783 57.3167 12.95 58.0938 12.95 58.8799C12.95 59.6661 12.783 60.4432 12.46 61.16C12.3045 61.4419 12.0754 61.6763 11.7971 61.8383C11.5189 62.0003 11.202 62.0838 10.88 62.08V60.97C11.0258 60.9614 11.1658 60.9105 11.2831 60.8234C11.4003 60.7364 11.4896 60.617 11.54 60.48C11.7142 59.9551 11.7888 59.4023 11.76 58.85C11.79 58.3009 11.7153 57.7512 11.54 57.23C11.4935 57.0896 11.4056 56.9666 11.2877 56.8773C11.1699 56.788 11.0277 56.7367 10.88 56.73V55.73C11.1974 55.7112 11.5138 55.7818 11.7931 55.9338C12.0724 56.0859 12.3035 56.3132 12.46 56.59M15.67 55.29C15.78 55.29 15.84 55.29 15.89 55.29L15.95 55.4L15.89 55.5099C15.89 55.6199 15.89 55.68 15.89 55.72V63.3199H14.62V59.25H13.31V58.25H14.62V55.25H15.7L15.67 55.29ZM10.88 62.0699C10.5583 62.0799 10.2402 61.9989 9.96247 61.8361C9.68473 61.6734 9.45857 61.4355 9.31 61.15C8.94845 60.4443 8.75989 59.6629 8.75989 58.87C8.75989 58.0771 8.94845 57.2956 9.31 56.59C9.46023 56.3099 9.68856 56.0796 9.96729 55.9269C10.246 55.7742 10.5631 55.7058 10.88 55.73V56.73C10.7254 56.7285 10.5744 56.776 10.4486 56.8659C10.3228 56.9558 10.2287 57.0833 10.18 57.23C10.05 57.7597 9.99278 58.3048 10.01 58.85C9.99031 59.3986 10.0475 59.9472 10.18 60.48C10.2329 60.6232 10.3283 60.7469 10.4534 60.8344C10.5785 60.922 10.7273 60.9693 10.88 60.97V62.0699Z" fill="white"/>
<path d="M23.73 63.17V62.17H24.44V63.17M23.73 61.27V55.27H23.84C24.17 55.27 24.33 55.27 24.38 55.27C24.43 55.27 24.44 55.3301 24.38 55.4301V55.6V61.19L23.73 61.27ZM21.55 55.6801V58.34H18.72V59.2H19.05C19.5039 59.2081 19.9579 59.1915 20.41 59.15C20.9549 59.1436 21.4991 59.1069 22.04 59.04L22.15 60.04L20.15 60.2C19.61 60.2 19.01 60.2 18.36 60.2H17.43V57.33H20.32V56.6201H17.43V55.6201L21.55 55.6801ZM23.73 61.27H23.08V55.27H23.73V61.27ZM23.73 62.13H19.21V61.21L19.27 61.05V60.89C19.32 60.78 19.32 60.67 19.27 60.67C19.22 60.67 19.05 60.61 18.72 60.61H18.01V63.17H23.73V62.13Z" fill="white"/>
<path d="M29.44 56.6C29.8016 57.3057 29.9901 58.0871 29.9901 58.88C29.9901 59.6729 29.8016 60.4544 29.44 61.16C29.2861 61.4412 29.0588 61.6752 28.7823 61.8372C28.5058 61.9992 28.1905 62.0832 27.87 62.08V60.97C28.0184 60.9765 28.1644 60.9311 28.283 60.8417C28.4016 60.7523 28.4854 60.6244 28.52 60.48C28.6993 59.9563 28.774 59.4025 28.74 58.85C28.7748 58.3008 28.7001 57.7501 28.52 57.23C28.4892 57.0828 28.4067 56.9515 28.2875 56.8598C28.1683 56.7681 28.0202 56.7221 27.87 56.73V55.65C28.1909 55.6447 28.5071 55.7276 28.784 55.8899C29.0609 56.0522 29.2878 56.2874 29.44 56.57M32.88 55.32C32.88 55.32 32.88 55.38 32.88 55.48L32.82 55.65V63.35H31.62V55.27H32.34C32.66 55.27 32.82 55.27 32.88 55.27M27.88 62.0001C27.5566 62.012 27.2364 61.9318 26.9567 61.7689C26.677 61.6061 26.4493 61.3672 26.3 61.08C25.9447 60.3725 25.7596 59.5918 25.7596 58.8C25.7596 58.0083 25.9447 57.2275 26.3 56.52C26.4474 56.2313 26.6747 55.9911 26.9548 55.8279C27.235 55.6648 27.5562 55.5857 27.88 55.6V56.6801C27.7286 56.6717 27.5791 56.7173 27.4583 56.8089C27.3374 56.9005 27.2529 57.032 27.22 57.1801C27.0488 57.7021 26.9776 58.2516 27.01 58.8C26.9787 59.3517 27.0498 59.9044 27.22 60.4301C27.2567 60.5753 27.3425 60.7033 27.4627 60.7926C27.583 60.8819 27.7304 60.9269 27.88 60.92V62.0001Z" fill="white"/>
<path d="M42.72 55.84V55.97L42.67 56.08V59.97H40.16V60.03V60.14L40.1 60.3V61.3H43.58V62.38H39.58V58.97H41.49V57.97H39.58V56.97H41.49V55.83H42.19C42.3755 55.8097 42.5632 55.8302 42.74 55.89M39.58 62.45H35.58V61.3701H38.84V59.97H36.44V55.79H37.21C37.48 55.79 37.64 55.79 37.69 55.85C37.74 55.91 37.75 55.85 37.69 56.01V56.97H39.6V57.97H37.62V58.97H39.53L39.58 62.45Z" fill="white"/>
<path d="M48 57.97C48.686 57.9415 49.3696 58.068 50 58.34C50.2218 58.425 50.4134 58.574 50.5505 58.7681C50.6876 58.9621 50.764 59.1925 50.77 59.43C50.775 59.6364 50.7212 59.8399 50.615 60.017C50.5088 60.194 50.3544 60.3372 50.17 60.43C49.6795 60.683 49.141 60.8295 48.59 60.86V61.62H51.97V62.62H47.97V59.97C48.3766 59.9947 48.7841 59.9404 49.17 59.81C49.44 59.76 49.6 59.59 49.6 59.43C49.6 59.27 49.44 59.11 49.17 59C48.783 58.8745 48.3764 58.8202 47.97 58.84M47.97 56.84H51.45V57.7599H47.97V56.84ZM47.97 55.48H49.65V56.4H47.97V55.48ZM47.37 61.61V60.85C46.8178 60.8264 46.2779 60.6795 45.79 60.42C45.6019 60.3269 45.4424 60.185 45.328 60.009C45.2136 59.8331 45.1487 59.6296 45.14 59.42C45.14 58.93 45.41 58.61 45.95 58.33C46.5794 58.0546 47.2638 57.928 47.95 57.96V58.83C47.5438 58.8142 47.1379 58.8683 46.75 58.99C46.48 59.1 46.37 59.26 46.37 59.42C46.37 59.58 46.48 59.75 46.75 59.8C47.1379 59.9216 47.5438 59.9757 47.95 59.96V62.62H44.03V61.62L47.37 61.61ZM47.97 56.4H46.33V55.48H47.97V56.4ZM47.97 57.7599H44.62V56.83H48.05L47.97 57.7599Z" fill="white"/>
</g>
<defs>
<clipPath id="clip0_8072_249">
<rect width="61.26" height="68.22" fill="white"/>
</clipPath>
</defs>
</svg>
