<svg width="75" height="60" viewBox="0 0 75 60" fill="none" xmlns="http://www.w3.org/2000/svg">
<g clip-path="url(#clip0_8063_9478)">
<path d="M18.1768 9.9577H6.40417V3.42218C6.3924 3.22167 6.3924 3.02063 6.40417 2.82012L6.49905 2.38438C6.57811 2.05958 6.57021 1.86162 6.49905 1.78241C6.12854 1.66695 5.73933 1.6239 5.35261 1.65563H3.55785V13.3562H18.1531" fill="white"/>
<path d="M18.1768 9.9577H6.40417V3.42218C6.3924 3.22167 6.3924 3.02063 6.40417 2.82012L6.49905 2.38438C6.57811 2.05958 6.57021 1.86162 6.49905 1.78241C6.12854 1.66695 5.73933 1.6239 5.35261 1.65563H3.55785V13.3562H18.1531L18.1768 9.9577Z" stroke="#231916" stroke-width="0.53"/>
<path d="M19.8925 19.7809H12.1442V15.82C12.1325 15.638 12.1325 15.4553 12.1442 15.2733C12.1442 15.1703 12.2075 15.0277 12.2628 14.8693C12.3498 14.5762 12.3577 14.394 12.2628 14.3227C11.9365 14.1937 11.584 14.1448 11.235 14.1801H9.28999V19.7254H1.52596V23.1239H19.8371" fill="white"/>
<path d="M19.8925 19.7809H12.1442V15.82C12.1325 15.638 12.1325 15.4553 12.1442 15.2733C12.1442 15.1703 12.2075 15.0277 12.2628 14.8693C12.3498 14.5762 12.3577 14.394 12.2628 14.3227C11.9365 14.1937 11.584 14.1448 11.235 14.1801H9.28999V19.7254H1.52596V23.1239H19.8371L19.8925 19.7809Z" stroke="#231916" stroke-width="0.53"/>
<path d="M61.4801 18.6717C61.4985 18.5135 61.5302 18.3572 61.5749 18.2043C61.6619 17.8479 61.654 17.6102 61.5749 17.4993C61.1747 17.3249 60.7356 17.2593 60.302 17.3092H58.6417V25.643H73.4108V22.2365H61.4405V19.2104C61.4384 19.0301 61.4516 18.8498 61.4801 18.6717Z" fill="white"/>
<path d="M61.4801 18.6717C61.4985 18.5135 61.5302 18.3572 61.5749 18.2043C61.6619 17.8479 61.654 17.6102 61.5749 17.4993C61.1747 17.3249 60.7356 17.2593 60.302 17.3092H58.6417V25.643H73.4108V22.2365H61.4405V19.2104C61.4384 19.0301 61.4516 18.8498 61.4801 18.6717Z" stroke="#231916" stroke-width="0.53"/>
<path d="M73.1736 2.03591C73.1744 1.84512 73.1876 1.65462 73.2132 1.46556L73.308 1.02982C73.4108 0.681256 73.4108 0.475257 73.308 0.403961C72.9085 0.247954 72.4772 0.190916 72.0509 0.237633H70.3511V19.464H73.1736" fill="white"/>
<path d="M73.1736 2.03591C73.1744 1.84512 73.1876 1.65462 73.2132 1.46556L73.308 1.02982C73.4108 0.681256 73.4108 0.475257 73.308 0.403961C72.9085 0.247954 72.4772 0.190916 72.0509 0.237633H70.3511V19.464H73.1736V2.03591Z" stroke="#231916" stroke-width="0.53"/>
<path d="M62.073 14.9881C62.8295 15.0047 63.5764 14.8162 64.2347 14.4425C64.8929 14.0688 65.4382 13.5238 65.8128 12.8651C66.6128 11.3364 67.0306 9.63609 67.0306 7.91C67.0306 6.18391 66.6128 4.48358 65.8128 2.95489C65.4332 2.30233 64.8862 1.76347 64.2286 1.39431C63.571 1.02515 62.8267 0.839132 62.073 0.85558C61.2989 0.832559 60.5323 1.01452 59.8508 1.38309C59.1692 1.75166 58.5967 2.29384 58.191 2.95489C57.3812 4.48049 56.9576 6.18202 56.9576 7.91C56.9576 9.63798 57.3812 11.3395 58.191 12.8651C58.5919 13.5323 59.1628 14.0804 59.845 14.4535C60.5272 14.8266 61.2962 15.0111 62.073 14.9881ZM60.3099 5.20466C60.4729 4.88567 60.7228 4.61953 61.0307 4.43723C61.3386 4.25493 61.6919 4.16392 62.0493 4.17478C62.3828 4.18069 62.7078 4.28038 62.9874 4.46247C63.267 4.64456 63.4899 4.90176 63.6306 5.20466C64.0207 6.04676 64.2024 6.97069 64.1603 7.89811C64.2038 8.83585 64.0221 9.77031 63.6306 10.6232C63.5 10.9385 63.2813 11.2094 63.0008 11.4033C62.7203 11.5972 62.3899 11.7059 62.0493 11.7164C61.6849 11.7225 61.3265 11.6226 61.0177 11.4285C60.7089 11.2344 60.463 10.9546 60.3099 10.6232C59.8974 9.77665 59.7069 8.83883 59.7565 7.89811C59.7096 6.96777 59.9 6.04077 60.3099 5.20466Z" fill="white"/>
<path d="M62.073 14.9881C62.8295 15.0047 63.5764 14.8162 64.2347 14.4425C64.8929 14.0688 65.4382 13.5238 65.8128 12.8651C66.6128 11.3364 67.0306 9.63609 67.0306 7.91C67.0306 6.18391 66.6128 4.48358 65.8128 2.95489C65.4332 2.30233 64.8862 1.76347 64.2286 1.39431C63.571 1.02515 62.8267 0.839132 62.073 0.85558C61.2989 0.832559 60.5323 1.01452 59.8508 1.38309C59.1692 1.75166 58.5967 2.29384 58.191 2.95489C57.3812 4.48049 56.9576 6.18202 56.9576 7.91C56.9576 9.63798 57.3812 11.3395 58.191 12.8651C58.5919 13.5323 59.1628 14.0804 59.845 14.4535C60.5272 14.8266 61.2962 15.0111 62.073 14.9881ZM60.3099 5.20466C60.4729 4.88567 60.7228 4.61953 61.0307 4.43723C61.3386 4.25493 61.6919 4.16392 62.0493 4.17478C62.3828 4.18069 62.7078 4.28038 62.9874 4.46247C63.267 4.64456 63.4899 4.90176 63.6306 5.20466C64.0207 6.04676 64.2024 6.97069 64.1603 7.89811C64.2038 8.83585 64.0221 9.77031 63.6306 10.6232C63.5 10.9385 63.2813 11.2094 63.0008 11.4033C62.7203 11.5972 62.3899 11.7059 62.0493 11.7164C61.6849 11.7225 61.3265 11.6226 61.0177 11.4285C60.7089 11.2344 60.463 10.9546 60.3099 10.6232C59.8974 9.77665 59.7069 8.83883 59.7565 7.89811C59.7096 6.96777 59.9 6.04077 60.3099 5.20466Z" stroke="#231916" stroke-width="0.53"/>
<path d="M10.555 50.3591C10.5532 50.1308 10.5717 49.9028 10.6104 49.6778C10.6447 49.4932 10.6895 49.3106 10.7448 49.1312C10.7834 48.9888 10.8073 48.8428 10.816 48.6955H16.6192V36.7336C16.6114 36.6069 16.6114 36.4799 16.6192 36.3532C16.6318 36.2428 16.6557 36.1341 16.6904 36.0285C16.7536 35.7037 16.7378 35.4977 16.635 35.4264C16.2403 35.2523 15.8064 35.1867 15.3779 35.2363H13.7966V38.9675H5.03639V36.6781C5.03639 36.5513 5.03639 36.4246 5.03639 36.2978C5.07489 36.1929 5.10139 36.0839 5.11543 35.973C5.19449 35.6799 5.17869 35.4898 5.07591 35.4027C4.68986 35.2478 4.27163 35.1907 3.85829 35.2363H2.19797V48.7035H7.73244V53.1397H0.221375V56.6253H18.5405V53.1397H10.555M5.02056 42.1996H13.7808V45.4871H5.03639L5.02056 42.1996Z" fill="white"/>
<path d="M10.555 50.3591C10.5532 50.1308 10.5717 49.9028 10.6104 49.6778C10.6447 49.4932 10.6895 49.3106 10.7448 49.1312C10.7834 48.9888 10.8073 48.8428 10.816 48.6955H16.6192V36.7336C16.6114 36.6069 16.6114 36.4799 16.6192 36.3532C16.6318 36.2428 16.6557 36.1341 16.6904 36.0285C16.7536 35.7037 16.7378 35.4977 16.635 35.4264C16.2403 35.2523 15.8064 35.1867 15.3779 35.2363H13.7966V38.9675H5.03639V36.6781C5.03639 36.5513 5.03639 36.4246 5.03639 36.2978C5.07489 36.1929 5.10139 36.0839 5.11543 35.973C5.19449 35.6799 5.17869 35.4898 5.07591 35.4027C4.68986 35.2478 4.27163 35.1907 3.85829 35.2363H2.19797V48.7035H7.73244V53.1397H0.221375V56.6253H18.5405V53.1397H10.555V50.3591ZM5.02056 42.1916H13.7808V45.4792H5.03639L5.02056 42.1916Z" stroke="#231916" stroke-width="0.53"/>
<path d="M29.8941 51.4762C31.0806 51.3943 32.2277 51.0157 33.2306 50.375C33.7998 50.0082 34.2634 49.4987 34.5754 48.897C34.8875 48.2953 35.0371 47.6223 35.0095 46.9448C35.0261 46.2552 34.8663 45.5729 34.5452 44.9628C34.2241 44.3527 33.7525 43.8351 33.1752 43.4593C31.7892 42.5856 30.1699 42.1571 28.5342 42.2314C26.8649 42.1466 25.2097 42.5751 23.7903 43.4593C23.2197 43.8385 22.7557 44.3581 22.4428 44.9684C22.13 45.5787 21.9787 46.2592 22.0035 46.9448C21.9808 47.6251 22.1359 48.2995 22.4535 48.9012C22.7711 49.5029 23.2401 50.0109 23.8141 50.375C24.8039 50.999 25.9295 51.374 27.0952 51.4682V53.9161H19.3865V57.1799H37.6819V53.9161H29.9019M24.8261 47.0003C24.8298 46.7013 24.9179 46.4095 25.0802 46.1586C25.2425 45.9077 25.4724 45.7078 25.7432 45.5823C26.6037 45.1941 27.5443 45.0175 28.4867 45.0673C29.4446 45.0157 30.401 45.1922 31.2777 45.5823C31.5507 45.7107 31.7813 45.9147 31.9424 46.1701C32.1035 46.4256 32.1884 46.7219 32.1869 47.0241C32.1775 47.297 32.0855 47.5605 31.9231 47.7798C31.7607 47.9991 31.5356 48.1638 31.2777 48.2519C30.3918 48.6068 29.4393 48.7636 28.4867 48.7115C27.5496 48.7621 26.6129 48.6051 25.7432 48.2519C25.4849 48.1561 25.2602 47.9865 25.0972 47.764C24.9342 47.5415 24.8399 47.276 24.8261 47.0003Z" fill="white"/>
<path d="M29.8941 51.4762C31.0806 51.3943 32.2277 51.0157 33.2306 50.375C33.7998 50.0082 34.2634 49.4987 34.5754 48.897C34.8875 48.2953 35.0371 47.6223 35.0095 46.9448C35.0261 46.2552 34.8663 45.5729 34.5452 44.9628C34.2241 44.3527 33.7525 43.8351 33.1752 43.4593C31.7892 42.5856 30.1699 42.1571 28.5342 42.2314C26.8649 42.1466 25.2097 42.5751 23.7903 43.4593C23.2197 43.8385 22.7557 44.3581 22.4428 44.9684C22.13 45.5787 21.9787 46.2592 22.0035 46.9448C21.9808 47.6251 22.1359 48.2995 22.4535 48.9012C22.7711 49.5029 23.2401 50.0109 23.8141 50.375C24.8039 50.999 25.9295 51.374 27.0952 51.4682V53.9161H19.3865V57.1799H37.6819V53.9161H29.9019L29.8941 51.4762ZM24.8181 47.0003C24.8219 46.7013 24.91 46.4095 25.0723 46.1586C25.2346 45.9077 25.4645 45.7078 25.7353 45.5823C26.5958 45.1941 27.5364 45.0175 28.4788 45.0673C29.4367 45.0157 30.3931 45.1922 31.2698 45.5823C31.5428 45.7107 31.7734 45.9147 31.9345 46.1701C32.0956 46.4256 32.1804 46.7219 32.179 47.0241C32.1695 47.297 32.0776 47.5605 31.9152 47.7798C31.7528 47.9991 31.5277 48.1638 31.2698 48.2519C30.3839 48.6068 29.4314 48.7636 28.4788 48.7115C27.5417 48.7621 26.605 48.6051 25.7353 48.2519C25.477 48.1561 25.2523 47.9865 25.0893 47.764C24.9263 47.5415 24.832 47.276 24.8181 47.0003Z" stroke="#231916" stroke-width="0.53"/>
<path d="M32.3529 34.2302H24.7233V37.1692H32.3529V34.2302Z" fill="white"/>
<path d="M32.3529 34.2302H24.7233V37.1692H32.3529V34.2302Z" stroke="#231916" stroke-width="0.53"/>
<path d="M36.4564 38.5555H20.5803V41.4945H36.4564V38.5555Z" fill="white"/>
<path d="M36.4564 38.5555H20.5803V41.4945H36.4564V38.5555Z" stroke="#231916" stroke-width="0.53"/>
<path d="M54.728 40.0608C54.8387 38.413 54.9019 36.6386 54.9019 34.7532H40.2673V38.1516H51.7473C51.7473 39.3082 51.692 40.5282 51.5813 41.7481C51.4785 42.77 51.3362 43.8553 51.1781 44.9881H38.5278V48.3946H46.2207V59.802H49.0275V48.3946H56.8469V44.9881H54.1904C54.4434 43.3298 54.6305 41.6874 54.7517 40.0608" fill="white"/>
<path d="M54.728 40.0608C54.8387 38.413 54.9019 36.6386 54.9019 34.7532H40.2673V38.1516H51.7473C51.7473 39.3082 51.692 40.5282 51.5813 41.7481C51.4785 42.77 51.3362 43.8553 51.1781 44.9881H38.5278V48.3946H46.2207V59.802H49.0275V48.3946H56.8469V44.9881H54.1904C54.4276 43.3245 54.6068 41.6821 54.728 40.0608Z" stroke="#231916" stroke-width="0.53"/>
<path d="M59.7723 53.4249H71.7188V59.794H74.5414V50.0422H59.7723" fill="white"/>
<path d="M59.7723 53.4249H71.7188V59.794H74.5414V50.0422H59.7723V53.4249Z" stroke="#231916" stroke-width="0.53"/>
<path d="M63.4725 47.5469C64.2339 47.5756 64.9898 47.4069 65.6671 47.0572C66.3444 46.7075 66.9202 46.1886 67.3387 45.5507C68.1519 44.1508 68.5803 42.5599 68.5803 40.9401C68.5803 39.3203 68.1519 37.7296 67.3387 36.3296C66.9004 35.71 66.3202 35.2046 65.6468 34.8559C64.9735 34.5071 64.2265 34.3252 63.4685 34.3252C62.7105 34.3252 61.9636 34.5071 61.2902 34.8559C60.6169 35.2046 60.0367 35.71 59.5983 36.3296C58.7855 37.7354 58.3575 39.3313 58.3575 40.956C58.3575 42.5806 58.7855 44.1765 59.5983 45.5823C60.0235 46.2134 60.6026 46.7251 61.2807 47.069C61.9587 47.4128 62.7132 47.5773 63.4725 47.5469ZM61.7331 38.5873C61.9167 38.2955 62.1747 38.0579 62.4804 37.8992C62.7862 37.7405 63.1286 37.6663 63.4725 37.6842C63.8205 37.6708 64.1659 37.7494 64.474 37.9121C64.7821 38.0748 65.042 38.3159 65.2277 38.6111C65.632 39.335 65.8213 40.1596 65.7732 40.9877C65.8182 41.8155 65.6291 42.6393 65.2277 43.3642C65.0342 43.6502 64.7738 43.8842 64.4692 44.046C64.1646 44.2078 63.8252 44.2924 63.4804 44.2924C63.1356 44.2924 62.7961 44.2078 62.4915 44.046C62.1869 43.8842 61.9265 43.6502 61.7331 43.3642C61.3702 42.6247 61.1816 41.8117 61.1816 40.9877C61.1816 40.1637 61.3702 39.3506 61.7331 38.6111" fill="white"/>
<path d="M63.4725 47.5469C64.2339 47.5756 64.9898 47.4069 65.6671 47.0572C66.3444 46.7075 66.9202 46.1886 67.3387 45.5507C68.1519 44.1508 68.5803 42.5599 68.5803 40.9401C68.5803 39.3203 68.1519 37.7296 67.3387 36.3296C66.9004 35.71 66.3202 35.2046 65.6468 34.8559C64.9735 34.5071 64.2265 34.3252 63.4685 34.3252C62.7105 34.3252 61.9636 34.5071 61.2902 34.8559C60.6169 35.2046 60.0367 35.71 59.5983 36.3296C58.7855 37.7354 58.3575 39.3313 58.3575 40.956C58.3575 42.5806 58.7855 44.1765 59.5983 45.5823C60.0235 46.2134 60.6026 46.7251 61.2807 47.069C61.9587 47.4128 62.7132 47.5773 63.4725 47.5469ZM61.7331 38.5873C61.9167 38.2955 62.1747 38.0579 62.4804 37.8992C62.7862 37.7405 63.1286 37.6663 63.4725 37.6842C63.8205 37.6708 64.1659 37.7494 64.474 37.9121C64.7821 38.0748 65.042 38.3159 65.2277 38.6111C65.632 39.335 65.8213 40.1596 65.7732 40.9877C65.8182 41.8155 65.6291 42.6393 65.2277 43.3642C65.0342 43.6502 64.7738 43.8842 64.4692 44.046C64.1646 44.2078 63.8252 44.2924 63.4804 44.2924C63.1356 44.2924 62.7961 44.2078 62.4915 44.046C62.1869 43.8842 61.9265 43.6502 61.7331 43.3642C61.3702 42.6247 61.1816 41.8117 61.1816 40.9877C61.1816 40.1637 61.3702 39.3506 61.7331 38.6111V38.5873Z" stroke="#231916" stroke-width="0.53"/>
<path d="M74.7153 33.8501C74.3077 33.6723 73.8601 33.6066 73.4187 33.66H71.7188V36.6782H68.5563V40.0054H71.7188V42.2631H68.5563V45.6061H71.7188V48.4896H74.5414V35.6087C74.5449 35.4096 74.5635 35.211 74.5968 35.0146C74.5968 34.9037 74.6679 34.7532 74.7153 34.5552C74.8181 34.1908 74.8181 33.9609 74.7153 33.8738" fill="white"/>
<path d="M74.7153 33.8501C74.3077 33.6723 73.8601 33.6066 73.4187 33.66H71.7188V36.6782H68.5563V40.0054H71.7188V42.2631H68.5563V45.6061H71.7188V48.4896H74.5414V35.6087C74.5449 35.4096 74.5635 35.211 74.5968 35.0146C74.5968 34.9037 74.6679 34.7532 74.7153 34.5552C74.8181 34.167 74.8181 33.9372 74.7153 33.8501Z" stroke="#231916" stroke-width="0.53"/>
</g>
<defs>
<clipPath id="clip0_8063_9478">
<rect width="75" height="60" fill="white"/>
</clipPath>
</defs>
</svg>
