<svg width="77" height="33" viewBox="0 0 77 33" fill="none" xmlns="http://www.w3.org/2000/svg">
<g clip-path="url(#clip0_8063_8091)">
<path d="M70.95 31.86C72.4302 31.8548 73.8485 31.2658 74.897 30.2211C75.9455 29.1763 76.5395 27.7601 76.55 26.28" stroke="#231916" stroke-width="0.49"/>
<path d="M76.56 26.29V5.82996" stroke="#231916" stroke-width="0.49"/>
<path d="M76.55 5.81995C76.5369 4.34064 75.942 2.92603 74.8941 1.88184C73.8462 0.83764 72.4294 0.247815 70.95 0.23999" stroke="#231916" stroke-width="0.49"/>
<path d="M70.95 0.23999H5.79001" stroke="#231916" stroke-width="0.49"/>
<path d="M5.73999 0.23999C5.00531 0.240925 4.27807 0.38723 3.60016 0.67041C2.92224 0.95359 2.30703 1.36807 1.78998 1.89001C0.772638 2.94572 0.202947 4.35384 0.200012 5.81995" stroke="#231916" stroke-width="0.49"/>
<path d="M0.23999 5.82996V26.29" stroke="#231916" stroke-width="0.49"/>
<path d="M0.23999 26.28C0.249562 27.7478 0.818173 29.1567 1.83002 30.22C2.34756 30.7405 2.96304 31.1535 3.64099 31.4349C4.31894 31.7164 5.0459 31.8609 5.77997 31.86" stroke="#231916" stroke-width="0.49"/>
<path d="M5.78 31.87H70.95" stroke="#231916" stroke-width="0.49"/>
<path d="M70.95 29.75C71.4076 29.7567 71.8618 29.6716 72.2858 29.4996C72.7099 29.3276 73.0951 29.0722 73.4186 28.7487C73.7422 28.4251 73.9976 28.0399 74.1696 27.6158C74.3416 27.1918 74.4267 26.7376 74.42 26.28" stroke="#231916" stroke-width="0.49"/>
<path d="M74.43 26.29V5.82996" stroke="#231916" stroke-width="0.49"/>
<path d="M74.43 5.81995C74.4306 4.90084 74.0717 4.01798 73.43 3.35999C72.7624 2.72061 71.8744 2.36255 70.95 2.35999" stroke="#231916" stroke-width="0.49"/>
<path d="M70.95 2.35999H5.79001" stroke="#231916" stroke-width="0.49"/>
<path d="M5.73999 2.34998C4.81814 2.36535 3.93468 2.7216 3.26001 3.34998C2.62037 4.01338 2.26205 4.89841 2.26001 5.81995" stroke="#231916" stroke-width="0.49"/>
<path d="M2.29999 5.82996V26.29" stroke="#231916" stroke-width="0.49"/>
<path d="M2.29999 26.28C2.29994 27.202 2.65857 28.0878 3.29999 28.75C3.97202 29.3825 4.85716 29.7394 5.77997 29.75" stroke="#231916" stroke-width="0.49"/>
<path d="M5.78 29.75H70.95" stroke="#231916" stroke-width="0.49"/>
<path d="M12.82 12.6701H46.91C47.91 12.6701 49.09 12.67 48.44 11.61C47.85 11.02 46.08 9.02008 47.2 7.91008C48.32 6.80008 49.09 6.97008 50.44 7.91008L63.44 15.7801C64.38 16.3101 63.97 16.8401 63.44 17.1401L50.11 24.7801C48.46 25.6001 46.22 25.19 47.11 22.6C47.4073 21.5513 48.0053 20.6128 48.83 19.9001C48.83 19.9001 49.12 19.3101 47.88 19.4301C46.64 19.5501 12.88 19.4301 12.88 19.4301" fill="#231916"/>
</g>
<defs>
<clipPath id="clip0_8063_8091">
<rect width="76.8" height="32.11" fill="white"/>
</clipPath>
</defs>
</svg>
