<svg width="71" height="71" viewBox="0 0 71 71" fill="none" xmlns="http://www.w3.org/2000/svg">
<g clip-path="url(#clip0_8063_6929)">
<path d="M9.73 31.91H14.03C14.03 31.91 13.92 30.18 13.92 29.75C13.92 29.32 14.74 27.84 15.5 28.39L20.56 34.58L16.56 41.84C16.01 42.84 14.22 42.71 14 40.54C13.78 38.37 13.89 38.75 13.13 38.86H9.73" fill="#231916"/>
<path d="M60.81 31.91H56.52C56.52 31.91 56.62 30.18 56.62 29.75C56.62 29.32 55.86 27.84 55.04 28.39L49.98 34.58L53.98 41.84C54.52 42.84 56.54 42.71 56.54 40.54C56.54 38.8 56.64 38.75 57.4 38.86H60.83" fill="#231916"/>
<path d="M24.45 30.88H22.11C22.11 27.41 24.11 24.26 26.9 24.26C29.84 24.26 31.53 27.79 31.53 30.07C31.4367 32.5157 30.4011 34.8304 28.64 36.53C26.57 38.75 26.03 39.24 26.25 39.78C26.47 40.32 26.95 40.05 27.39 40.05H32.12V42.87H23.24C22.7 42.87 22.05 41.52 23.03 39.62C25.54 34.69 28.15 35.01 29.03 30.62C29.1535 30.2378 29.1921 29.8334 29.1431 29.4348C29.0941 29.0361 28.9587 28.653 28.7464 28.3121C28.534 27.9713 28.2499 27.6808 27.9137 27.4611C27.5775 27.2413 27.1974 27.0976 26.8 27.04C26.2 27.04 24.46 27.79 24.46 30.83" fill="#231916"/>
<path d="M40.89 35.01H39.15C39.15 32.73 40.62 30.67 42.69 30.67C44.92 30.67 46.17 33 46.17 34.46C46.1222 35.2796 45.9036 36.0802 45.5282 36.8104C45.1527 37.5406 44.6288 38.1842 43.99 38.7C42.47 40.16 41.99 40.48 42.2 40.81C42.41 41.14 42.74 41.03 43.07 41.03H46.61V42.87H39.96C39.53 42.87 39.1 42.01 39.8 40.71C41.7 37.5 43.67 37.71 44.27 34.85C44.3469 34.5874 44.364 34.3109 44.3199 34.0409C44.2758 33.7709 44.1718 33.5141 44.0154 33.2896C43.859 33.0651 43.6542 32.8786 43.4162 32.7437C43.1782 32.6087 42.9129 32.5289 42.64 32.51C42.2 32.51 40.89 33 40.89 35.01Z" fill="#231916"/>
<path d="M34.47 42.17C34.47 43.04 35.18 43.17 35.78 43.17C36.0877 43.1127 36.3709 42.9635 36.5922 42.7422C36.8136 42.5209 36.9627 42.2377 37.02 41.93C37.02 41.49 36.48 40.51 35.72 40.51C34.96 40.51 34.47 40.95 34.47 42.14" fill="#231916"/>
<path d="M45.24 21.44C45.5699 21.4428 45.8936 21.5296 46.1806 21.6924C46.4675 21.8551 46.7083 22.0883 46.88 22.37C47.1019 22.6589 47.234 23.0066 47.26 23.37C47.3162 23.7472 47.3363 24.129 47.32 24.51V29.45H45.57V24.45C45.5837 24.2031 45.5283 23.9572 45.41 23.74C45.3559 23.5697 45.2449 23.4231 45.0956 23.3248C44.9463 23.2265 44.7678 23.1824 44.59 23.2C44.3694 23.1899 44.1517 23.2531 43.9708 23.3797C43.7899 23.5063 43.656 23.6892 43.59 23.9C43.4715 24.1744 43.4135 24.4711 43.42 24.77V29.44H41.73V24.77C41.7548 24.4287 41.7 24.0864 41.57 23.77C41.5191 23.5932 41.4109 23.4384 41.2625 23.3298C41.1141 23.2212 40.9339 23.165 40.75 23.17C40.5415 23.1528 40.3328 23.2015 40.1535 23.3091C39.9741 23.4168 39.833 23.5779 39.75 23.77C39.6286 24.0608 39.5739 24.3752 39.59 24.69V29.41H37.84V21.59H39.53V22.74C39.6914 22.4252 39.8931 22.1328 40.13 21.87C40.4804 21.5781 40.9241 21.4219 41.38 21.43C41.8323 21.3989 42.2803 21.534 42.64 21.81C42.8801 22.1072 43.0632 22.4462 43.18 22.81C43.3667 22.3962 43.6733 22.0478 44.06 21.81C44.395 21.5891 44.7888 21.4741 45.19 21.48" fill="#231916"/>
<path d="M35.23 69.9C42.1138 69.8683 48.8339 67.7982 54.5423 63.9507C60.2506 60.1033 64.6912 54.6511 67.3037 48.2822C69.9161 41.9133 70.5833 34.9132 69.221 28.1655C67.8587 21.4177 64.5278 15.2249 59.6491 10.3684C54.7703 5.51194 48.5622 2.20957 41.8083 0.878175C35.0544 -0.453217 28.0575 0.246042 21.7007 2.88764C15.3438 5.52923 9.91191 9.99475 6.09067 15.7206C2.26943 21.4465 0.230084 28.1761 0.230011 35.06C0.237877 39.6465 1.14969 44.1865 2.91336 48.4203C4.67703 52.6542 7.25794 56.4989 10.5085 59.7346C13.7591 62.9703 17.6156 65.5336 21.8575 67.2778C26.0994 69.0221 30.6435 69.9131 35.23 69.9Z" stroke="#D20D18" stroke-width="0.45"/>
<path d="M35.23 2.27997C28.751 2.28986 22.4202 4.21955 17.0373 7.82526C11.6543 11.431 7.46053 16.551 4.98569 22.5387C2.51085 28.5264 1.86594 35.1133 3.13235 41.4673C4.39877 47.8213 7.51975 53.6575 12.1011 58.2389C16.6825 62.8202 22.5187 65.9412 28.8727 67.2076C35.2267 68.4741 41.8136 67.8291 47.8013 65.3543C53.789 62.8795 58.909 58.6857 62.5147 53.3027C66.1205 47.9198 68.0501 41.589 68.06 35.11C68.0468 26.4116 64.5821 18.074 58.4267 11.928C52.2713 5.78197 43.9284 2.32995 35.23 2.32996M35.23 60.67C30.1782 60.6542 25.2443 59.1417 21.0515 56.3235C16.8587 53.5053 13.5951 49.5079 11.6728 44.8361C9.75044 40.1642 9.25569 35.0275 10.2509 30.0746C11.2462 25.1218 13.6868 20.5749 17.2646 17.0082C20.8424 13.4416 25.3969 11.0152 30.3529 10.0354C35.3088 9.05563 40.444 9.56645 45.1098 11.5034C49.7756 13.4403 53.7628 16.7164 56.5678 20.918C59.3729 25.1195 60.87 30.0581 60.87 35.11C60.8648 38.4718 60.1974 41.7997 58.906 44.9036C57.6147 48.0076 55.7246 50.8267 53.3437 53.2002C50.9628 55.5737 48.1377 57.455 45.0298 58.7366C41.9218 60.0183 38.5919 60.6752 35.23 60.67Z" fill="#D20D18"/>
</g>
<defs>
<clipPath id="clip0_8063_6929">
<rect width="70.41" height="70.12" fill="white"/>
</clipPath>
</defs>
</svg>
