<svg width="64" height="69" viewBox="0 0 64 69" fill="none" xmlns="http://www.w3.org/2000/svg">
<g clip-path="url(#clip0_8063_8536)">
<path d="M9.97754 0.313843H7.17358V69H9.97754V0.313843Z" fill="white"/>
<path d="M7.17358 0.320923V69" stroke="#231916" stroke-width="0.41"/>
<path d="M10.0914 0.320923V69" stroke="#231916" stroke-width="0.41"/>
<path d="M57.5452 0.313843H54.7697V69H57.5452V0.313843Z" fill="white"/>
<path d="M54.7697 0.320923V69" stroke="#231916" stroke-width="0.41"/>
<path d="M57.6448 0.320923V69" stroke="#231916" stroke-width="0.41"/>
<path d="M0.149448 0V67.6163" stroke="#231916" stroke-width="0.41"/>
<path d="M63.8577 0V67.6163" stroke="#231916" stroke-width="0.41"/>
<path d="M17.5141 6.13391V15.7557" stroke="#231916" stroke-width="0.41"/>
<path d="M24.2251 6.13391V15.7557" stroke="#231916" stroke-width="0.41"/>
<path d="M17.5141 20.6843V30.2918" stroke="#231916" stroke-width="0.41"/>
<path d="M24.2251 20.6843V30.2918" stroke="#231916" stroke-width="0.41"/>
<path d="M17.5141 35.2275V44.8778" stroke="#231916" stroke-width="0.41"/>
<path d="M24.2251 35.2275V44.8778" stroke="#231916" stroke-width="0.41"/>
<path d="M17.5141 49.8064V59.421" stroke="#231916" stroke-width="0.41"/>
<path d="M24.2251 49.8064V59.421" stroke="#231916" stroke-width="0.41"/>
<path d="M41.1342 6.13391V15.7557" stroke="#231916" stroke-width="0.41"/>
<path d="M47.8381 6.13391V15.7557" stroke="#231916" stroke-width="0.41"/>
<path d="M41.1342 20.6843V30.2918" stroke="#231916" stroke-width="0.41"/>
<path d="M47.8381 20.6843V30.2918" stroke="#231916" stroke-width="0.41"/>
<path d="M41.1342 35.2275V44.8778" stroke="#231916" stroke-width="0.41"/>
<path d="M47.8381 35.2275V44.8778" stroke="#231916" stroke-width="0.41"/>
<path d="M41.1342 49.8064V59.421" stroke="#231916" stroke-width="0.41"/>
<path d="M47.8381 49.8064V59.421" stroke="#231916" stroke-width="0.41"/>
<path d="M30.7937 6.31226V11.6688" stroke="#231916" stroke-width="0.41"/>
<path d="M33.4198 6.31226V11.6688" stroke="#231916" stroke-width="0.41"/>
<path d="M30.7937 15.2921V20.6058" stroke="#231916" stroke-width="0.41"/>
<path d="M33.4198 15.2921V20.6058" stroke="#231916" stroke-width="0.41"/>
<path d="M30.7937 24.2291V29.5856" stroke="#231916" stroke-width="0.41"/>
<path d="M33.4198 24.2291V29.5856" stroke="#231916" stroke-width="0.41"/>
<path d="M30.7937 33.2019V38.5299" stroke="#231916" stroke-width="0.41"/>
<path d="M33.4198 33.2019V38.5299" stroke="#231916" stroke-width="0.41"/>
<path d="M30.7937 42.1461V47.467" stroke="#231916" stroke-width="0.41"/>
<path d="M33.4198 42.1461V47.467" stroke="#231916" stroke-width="0.41"/>
<path d="M30.7937 51.0831V56.4396" stroke="#231916" stroke-width="0.41"/>
<path d="M33.4198 51.0831V56.4396" stroke="#231916" stroke-width="0.41"/>
<path d="M30.7937 60.063V65.3838" stroke="#231916" stroke-width="0.41"/>
<path d="M33.4198 60.063V65.3838" stroke="#231916" stroke-width="0.41"/>
</g>
<defs>
<clipPath id="clip0_8063_8536">
<rect width="64" height="69" fill="white"/>
</clipPath>
</defs>
</svg>
