<svg width="77" height="30" viewBox="0 0 77 30" fill="none" xmlns="http://www.w3.org/2000/svg">
<g clip-path="url(#clip0_8063_7670)">
<path d="M5.78999 28.87C5.04715 28.874 4.31095 28.7302 3.62422 28.4469C2.93749 28.1636 2.31396 27.7466 1.78999 27.22C0.777047 26.1614 0.208038 24.755 0.199966 23.2899" stroke="#231916" stroke-width="0.49"/>
<path d="M0.240005 23.29V5.82996" stroke="#231916" stroke-width="0.49"/>
<path d="M0.289993 5.81997C0.299565 4.3522 0.868176 2.94326 1.88002 1.87997C2.40399 1.35338 3.02746 0.936311 3.71419 0.653036C4.40091 0.369761 5.13717 0.225915 5.88002 0.229941" stroke="#231916" stroke-width="0.49"/>
<path d="M5.78999 0.23999H70.48" stroke="#231916" stroke-width="0.49"/>
<path d="M70.48 0.23999C71.9611 0.247845 73.3794 0.839029 74.4276 1.88538C75.4758 2.93172 76.0695 4.34897 76.08 5.83002" stroke="#231916" stroke-width="0.49"/>
<path d="M76.09 5.82996V23.29" stroke="#231916" stroke-width="0.49"/>
<path d="M76.09 23.2899C76.0717 24.7693 75.4739 26.1826 74.4249 27.226C73.3759 28.2693 71.9595 28.8596 70.48 28.87" stroke="#231916" stroke-width="0.49"/>
<path d="M70.48 28.87H5.78999" stroke="#231916" stroke-width="0.49"/>
<path d="M5.78998 26.7599C4.88085 26.7548 4.00937 26.3962 3.35999 25.7599C3.02416 25.4428 2.75748 25.0597 2.57679 24.6346C2.39609 24.2096 2.30529 23.7518 2.31 23.2899" stroke="#231916" stroke-width="0.49"/>
<path d="M2.31 23.29V5.82996" stroke="#231916" stroke-width="0.49"/>
<path d="M2.28998 5.81995C2.28157 5.35665 2.3717 4.89685 2.55445 4.47102C2.73719 4.04519 3.00837 3.66308 3.34998 3.34998C3.66757 3.03207 4.04484 2.78002 4.46015 2.60841C4.87546 2.43679 5.3206 2.34899 5.76996 2.34998" stroke="#231916" stroke-width="0.49"/>
<path d="M5.78999 2.35999H70.48" stroke="#231916" stroke-width="0.49"/>
<path d="M70.48 2.35992C71.4084 2.35455 72.3014 2.71623 72.9644 3.36615C73.6274 4.01606 74.0068 4.90161 74.02 5.82995" stroke="#231916" stroke-width="0.49"/>
<path d="M74.02 5.82996V23.29" stroke="#231916" stroke-width="0.49"/>
<path d="M74.02 23.2899C74.0068 24.2183 73.6274 25.1039 72.9644 25.7538C72.3014 26.4037 71.4084 26.7653 70.48 26.7599" stroke="#231916" stroke-width="0.49"/>
<path d="M70.48 26.76H5.78999" stroke="#231916" stroke-width="0.49"/>
<path d="M20.35 13.41C20.47 13.41 20.65 13.41 20.82 13.53C20.6343 13.7016 20.4758 13.9006 20.35 14.12M20.35 17.4099V15.88H23.66V20.2899H21.83V17.4099H20.35ZM20.35 12.53H21.83V14.94H23.66V9.58999C23.66 9.46999 23.66 9.34995 23.66 9.17995C23.66 9.00995 23.73 9.05996 23.78 8.93996C23.83 8.81996 23.84 8.64999 23.78 8.58999C23.451 8.52425 23.1145 8.50406 22.78 8.52999H21.78V11.06H20.3L20.35 12.53ZM20.17 9.11996V10.7H17.88V10.94C17.8937 11.1657 17.9514 11.3865 18.05 11.59C18.23 11.82 18.4 12.06 18.64 12.35C18.88 12.64 19.23 12.82 19.58 13.06C19.93 13.3 20.06 13.3 20.35 13.41V14.12L20.24 14.2299C20.06 14.4699 19.88 14.76 19.7 15C19.089 14.7423 18.5142 14.4061 17.99 14C17.5889 13.6695 17.2502 13.2699 16.99 12.82C16.7179 13.2792 16.3811 13.6968 15.99 14.06C15.4036 14.4996 14.7696 14.8719 14.1 15.1699C13.9242 14.9198 13.7268 14.6856 13.51 14.47C13.2885 14.2373 13.0513 14.0201 12.8 13.82C13.2589 13.7459 13.6998 13.5865 14.1 13.35C14.4983 13.1662 14.858 12.9082 15.16 12.59C15.4298 12.3213 15.668 12.0227 15.87 11.7C16.0117 11.4704 16.0941 11.2093 16.11 10.94V10.7H13.63V9.11996H20.17ZM20.35 11.06H19.82V12.52H20.35V11.06ZM20.35 17.4099H14.15V15.88H20.35V17.4099Z" fill="#231916"/>
<path d="M36.15 19.9299V18.4099H37.15V19.9299M36.15 17.1699V8.52997H36.29C36.5681 8.50148 36.849 8.52179 37.12 8.58997C37.18 8.58997 37.18 8.70994 37.12 8.87994L37.06 9.05994V9.28992V17.1699H36.15ZM31.15 8.87994C31.22 8.93994 31.22 9.05993 31.1 9.23993C30.98 9.41993 31.04 9.40997 31.04 9.46997V9.76996C31.0691 10.5828 31.3142 11.3732 31.75 12.0599C32.2802 12.9317 33.0559 13.6274 33.98 14.0599C33.7333 14.2406 33.4962 14.4342 33.27 14.64C33.09 14.88 32.86 15.12 32.68 15.35C32.1196 14.9836 31.6058 14.5504 31.15 14.0599C30.711 13.6151 30.3882 13.069 30.21 12.47C30.0754 13.0931 29.7668 13.6652 29.32 14.1199C28.8165 14.7361 28.2192 15.2693 27.55 15.7C27.3673 15.4518 27.1482 15.2326 26.9 15.0499C26.6733 14.824 26.4177 14.629 26.14 14.47C27.0909 14.0506 27.8927 13.3534 28.44 12.47C29.0587 11.3566 29.3531 10.0921 29.29 8.81995H30.42C30.652 8.78439 30.888 8.78439 31.12 8.81995M36.12 17.11H35.12V8.46997H36.12V17.11ZM36.12 18.35H29.4V16.99L29.46 16.7599L29.52 16.59C29.5452 16.5305 29.553 16.465 29.5424 16.4012C29.5318 16.3375 29.5032 16.2781 29.46 16.23C29.1929 16.1584 28.9147 16.138 28.64 16.1699H27.58V19.87H36.12V18.35Z" fill="#231916"/>
<path d="M45.35 12.35C46.3828 12.3034 47.4117 12.5057 48.35 12.9399C48.6754 13.0491 48.9608 13.2532 49.1693 13.5258C49.3778 13.7985 49.4999 14.1273 49.52 14.47C49.5188 14.7635 49.4358 15.051 49.2804 15.3C49.1249 15.5491 48.9032 15.7499 48.64 15.88C47.8949 16.282 47.0663 16.5045 46.22 16.5299V17.6399H51.22V19.11H45.32V15.2899C45.9225 15.3233 46.5258 15.2453 47.1 15.0599C47.51 14.9399 47.69 14.76 47.69 14.53C47.69 14.3 47.51 14.0599 47.1 13.8799C46.5258 13.6946 45.9225 13.6166 45.32 13.65M45.32 10.65H50.46V12.0099H45.32V10.65ZM45.32 8.71997H47.8V10.0699H45.32V8.71997ZM44.38 17.59V16.48C43.5558 16.4352 42.7509 16.2135 42.02 15.83C41.7568 15.6999 41.535 15.4991 41.3796 15.25C41.2242 15.0009 41.1412 14.7135 41.14 14.4199C41.1467 14.0807 41.2579 13.7518 41.4583 13.478C41.6587 13.2042 41.9386 12.9989 42.26 12.89C43.2258 12.4759 44.2695 12.2747 45.32 12.2999V13.6C44.7209 13.5672 44.1209 13.6451 43.55 13.83C43.2 14.01 42.96 14.1799 42.96 14.4799C42.96 14.7799 43.2 14.8899 43.55 15.0099C44.1209 15.1947 44.7209 15.2728 45.32 15.24V19.0599H39.43V17.59H44.38ZM45.32 10.0699H42.85V8.81995H45.32V10.0699ZM45.32 12.0099H40.19V10.65H45.32V12.0099Z" fill="#231916"/>
<path d="M57.62 9.34999C57.68 9.40999 57.68 9.52997 57.57 9.70997C57.572 9.74176 57.5667 9.7736 57.5546 9.80305C57.5425 9.8325 57.5238 9.85878 57.5 9.87995C57.458 9.95278 57.4372 10.0359 57.44 10.1199C57.44 10.2899 57.44 10.53 57.33 10.88V11.9999C57.3906 13.034 57.7367 14.031 58.33 14.88C58.828 15.8798 59.6019 16.7159 60.56 17.2899C60.33 17.4699 60.09 17.64 59.8 17.88C59.5369 18.0655 59.3155 18.3039 59.15 18.58C58.462 18.0477 57.8817 17.3893 57.44 16.6399C56.993 16.0041 56.6737 15.2876 56.5 14.53C56.2398 15.222 55.9221 15.891 55.55 16.5299C55.1372 17.2988 54.5764 17.9785 53.9 18.5299C53.6766 18.3249 53.4429 18.1314 53.2 17.95C52.9911 17.7345 52.7478 17.5554 52.48 17.4199C53.5605 16.5994 54.3971 15.5 54.9 14.2399C55.4762 12.6197 55.7573 10.9094 55.73 9.18995H56.78C57.26 9.18995 57.62 9.18994 57.67 9.29994M63.8 8.53993C63.87 8.53993 63.87 8.65998 63.8 8.77998C63.73 8.89998 63.75 8.94996 63.75 9.00996C63.725 9.10552 63.705 9.20229 63.69 9.29994V20.24H61.86V8.47993H62.98C63.2547 8.4518 63.5323 8.4721 63.8 8.53993Z" fill="#231916"/>
</g>
<defs>
<clipPath id="clip0_8063_7670">
<rect width="76.33" height="29.12" fill="white"/>
</clipPath>
</defs>
</svg>
