<svg width="69" height="69" viewBox="0 0 69 69" fill="none" xmlns="http://www.w3.org/2000/svg">
<g clip-path="url(#clip0_8068_5334)">
<path d="M34.52 68.7199C27.7225 68.7041 21.0821 66.6735 15.4382 62.8849C9.79437 59.0962 5.40029 53.7195 2.81129 47.4343C0.222303 41.149 -0.445359 34.2373 0.892655 27.5727C2.23067 20.9081 5.51427 14.7897 10.3286 9.99081C15.1429 5.19188 21.2717 1.92781 27.9406 0.611113C34.6094 -0.705586 41.5189 -0.0158136 47.7959 2.59326C54.0728 5.20233 59.4354 9.6136 63.206 15.2696C66.9766 20.9255 68.9859 27.5723 68.98 34.3699C68.9483 43.4894 65.3039 52.2246 58.8452 58.6628C52.3864 65.101 43.6396 68.7173 34.52 68.7199ZM34.52 0.409887C27.8153 0.423734 21.265 2.42369 15.6959 6.15728C10.1269 9.89087 5.78885 15.1907 3.22945 21.3877C0.670047 27.5848 0.00401795 34.4012 1.31545 40.9764C2.62687 47.5517 5.857 53.591 10.598 58.3319C15.339 63.0729 21.3783 66.303 27.9535 67.6144C34.5288 68.9259 41.3451 68.2598 47.5421 65.7004C53.7392 63.141 59.039 58.803 62.7726 53.234C66.5062 47.665 68.5062 41.1146 68.52 34.4099C68.5094 25.3995 64.9226 16.7617 58.5475 10.3941C52.1724 4.02652 43.5305 0.449882 34.52 0.449888V0.409887Z" fill="#CF1F25"/>
<path d="M34.52 1.6299C28.0457 1.63781 21.7189 3.56452 16.3391 7.16662C10.9593 10.7687 6.76791 15.8846 4.29439 21.8678C1.82087 27.851 1.17622 34.4331 2.44197 40.7826C3.70772 47.132 6.82708 52.9638 11.4058 57.5412C15.9846 62.1185 21.8173 65.236 28.1671 66.4998C34.5169 67.7637 41.0989 67.1171 47.0814 64.6417C53.0638 62.1664 58.1784 57.9734 61.7788 52.5925C65.3793 47.2116 67.3041 40.8842 67.31 34.4099C67.3087 30.1022 66.4586 25.8369 64.8083 21.8578C63.158 17.8788 60.7398 14.2639 57.6919 11.2197C54.644 8.17555 51.0262 5.76177 47.0451 4.11631C43.064 2.47085 38.7977 1.62596 34.49 1.6299M34.49 59.9099C29.4415 59.9 24.5093 58.3935 20.3169 55.5809C16.1244 52.7683 12.8599 48.7759 10.9362 44.1083C9.01242 39.4407 8.51577 34.3075 9.50893 29.3576C10.5021 24.4078 12.9405 19.8635 16.5159 16.2993C20.0913 12.735 24.6432 10.3109 29.5961 9.33321C34.5491 8.35557 39.6807 8.86833 44.3422 10.8067C49.0038 12.7451 52.986 16.022 55.7855 20.2232C58.5849 24.4245 60.0759 29.3614 60.07 34.4099C60.0541 41.1819 57.3514 47.6708 52.5554 52.4518C47.7593 57.2329 41.262 59.9152 34.49 59.9099Z" fill="#CF1F25"/>
<path d="M22.67 46.64C21.588 46.0418 20.6997 45.1466 20.11 44.0599C19.4707 42.905 19.1272 41.6099 19.11 40.29H23.11C23.1248 40.8426 23.2871 41.3812 23.58 41.85C23.8669 42.3103 24.2706 42.6864 24.75 42.94C25.2602 43.2088 25.8282 43.3493 26.405 43.3493C26.9817 43.3493 27.5498 43.2088 28.06 42.94C28.551 42.6604 28.9531 42.2479 29.22 41.75C29.4884 41.2021 29.628 40.6001 29.628 39.99C29.628 39.3798 29.4884 38.7778 29.22 38.23C28.932 37.712 28.497 37.291 27.97 37.02C27.3758 36.7179 26.7164 36.5668 26.05 36.58H24.31V32.81H26.08C26.6608 32.8194 27.2336 32.6745 27.74 32.39C28.2245 32.1255 28.6183 31.7213 28.87 31.23C29.1417 30.7057 29.2726 30.12 29.25 29.53C29.2716 28.9584 29.1585 28.3898 28.92 27.87C28.7092 27.4056 28.3599 27.0179 27.92 26.76C27.4766 26.4928 26.9676 26.3543 26.45 26.36C25.9147 26.3539 25.3871 26.4883 24.92 26.75C24.4527 27.0023 24.0649 27.3797 23.8 27.84C23.5044 28.3369 23.3425 28.9019 23.33 29.48H19.55C19.5773 28.1741 19.9204 26.8943 20.55 25.75C21.1208 24.6932 21.972 23.8143 23.01 23.21C24.0663 22.5974 25.269 22.2829 26.49 22.3C27.7011 22.2752 28.8953 22.5867 29.94 23.2C30.9304 23.7929 31.7343 24.6522 32.26 25.68C32.8196 26.7741 33.0947 27.9915 33.06 29.22C33.0905 30.0568 32.9475 30.891 32.64 31.67C32.3669 32.3684 31.9275 32.9897 31.36 33.48C30.8228 33.965 30.1732 34.3087 29.47 34.48V34.67C30.3328 34.794 31.1491 35.1384 31.84 35.67C32.4949 36.1981 33.0014 36.8873 33.31 37.67C33.6584 38.5468 33.8185 39.4872 33.78 40.43C33.8202 41.7264 33.5056 43.0093 32.87 44.14C32.2512 45.2336 31.3407 46.1337 30.24 46.74C29.0778 47.3711 27.7723 47.6914 26.45 47.67C25.1202 47.6739 23.814 47.318 22.67 46.64Z" fill="#231F20"/>
<path d="M38.18 46.0801C36.9235 44.9105 36.0165 43.4149 35.56 41.7601C34.3466 37.2808 34.3466 32.5594 35.56 28.0801C36.0135 26.4102 36.9244 24.9001 38.19 23.7201C39.3287 22.7681 40.7658 22.2466 42.25 22.2466C43.7342 22.2466 45.1713 22.7681 46.31 23.7201C47.5656 24.8962 48.4752 26.3937 48.94 28.0501C49.6007 30.2649 49.9111 32.5694 49.86 34.8801C49.9118 37.1967 49.6049 39.5074 48.95 41.7301C48.4942 43.3875 47.5831 44.8841 46.32 46.0501C45.1718 47.0067 43.7245 47.5305 42.23 47.5305C40.7355 47.5305 39.2883 47.0067 38.14 46.0501L38.18 46.0801ZM44.18 42.4101C44.8204 41.5824 45.2495 40.611 45.43 39.5801C45.7461 38.0443 45.887 36.4777 45.85 34.9101C45.8778 33.349 45.7336 31.7896 45.42 30.2601C45.235 29.2245 44.8066 28.2477 44.17 27.4101C43.9461 27.1158 43.6572 26.8773 43.3259 26.713C42.9946 26.5488 42.6298 26.4634 42.26 26.4634C41.8902 26.4634 41.5254 26.5488 41.1941 26.713C40.8628 26.8773 40.5739 27.1158 40.35 27.4101C39.7173 28.25 39.2893 29.2258 39.1 30.2601C38.7737 31.788 38.6228 33.3481 38.65 34.9101C38.6236 36.4783 38.7712 38.0445 39.09 39.5801C39.2748 40.6097 39.7034 41.5801 40.34 42.4101C40.5672 42.7029 40.8582 42.9399 41.191 43.1029C41.5238 43.2659 41.8895 43.3507 42.26 43.3507C42.6306 43.3507 42.9962 43.2659 43.329 43.1029C43.6618 42.9399 43.9529 42.7029 44.18 42.4101Z" fill="#231F20"/>
</g>
<defs>
<clipPath id="clip0_8068_5334">
<rect width="68.98" height="68.77" fill="white"/>
</clipPath>
</defs>
</svg>
