<svg width="62" height="69" viewBox="0 0 62 69" fill="none" xmlns="http://www.w3.org/2000/svg">
<g clip-path="url(#clip0_8072_211)">
<path d="M2.08 51.97L2.02 64.36C2.02 66.15 2.90002 66.42 4.10002 66.53H57.28C58.7 66.31 59.19 66.15 59.19 63.76V51.76L31.64 4.06995C30.55 2.60995 29.36 2.92995 28.37 4.50995" fill="#004A9C"/>
<path d="M61.04 64.84V51.28L32.18 1.14001" stroke="#004A9C" stroke-width="0.45"/>
<path d="M0.230011 51.28V65.33" stroke="#004A9C" stroke-width="0.45"/>
<path d="M0.230011 65.33C0.500011 67.39 1.63999 68 3.70999 68" stroke="#004A9C" stroke-width="0.45"/>
<path d="M3.71001 67.99H59.13" stroke="#004A9C" stroke-width="0.45"/>
<path d="M59.13 67.97C60.39 67.7 61.04 67.3701 61.04 64.8101" stroke="#004A9C" stroke-width="0.45"/>
<path d="M32.18 1.13995C31.896 0.817452 31.5384 0.568287 31.1375 0.41357C30.7366 0.258852 30.3043 0.203177 29.8773 0.251277C29.4503 0.299377 29.0412 0.449852 28.6848 0.689876C28.3284 0.9299 28.0351 1.25235 27.83 1.62994" stroke="#004A9C" stroke-width="0.45"/>
<path d="M27.83 1.62L0.230011 51.28" stroke="#004A9C" stroke-width="0.45"/>
<path d="M12.92 58.2799C12.97 58.3399 12.97 58.3399 12.97 58.4499H12.92V61.4499H11.02C10.97 61.5599 10.97 61.56 10.97 61.62V62.43H13.58V63.3H10.58V60.5799H12.02V59.7699H10.59V59.0099H12.02V58.0899H12.55C12.683 58.0758 12.817 58.0758 12.95 58.0899M10.59 63.25H7.59001V62.3799H10.02V61.3799H8.2V58.0699H8.73997C8.86956 58.0553 9.0004 58.0553 9.12999 58.0699C9.12999 58.0699 9.12999 58.13 9.12999 58.24V58.9399H10.56V59.6999H9.12999V60.5099H10.56L10.59 63.25Z" fill="white"/>
<path d="M17.39 64.3V63.6C17.7569 63.6167 18.1237 63.5624 18.47 63.4399C18.72 63.3799 18.82 63.22 18.82 63.11C18.82 63 18.72 62.84 18.47 62.73C18.1169 62.6374 17.7548 62.5837 17.39 62.5699V61.86C18.0176 61.8474 18.6399 61.9773 19.21 62.24C19.3762 62.3063 19.52 62.4187 19.6245 62.564C19.729 62.7092 19.7899 62.8813 19.8 63.06C19.7989 63.2459 19.7421 63.4271 19.6369 63.5804C19.5317 63.7337 19.383 63.852 19.21 63.92C18.6416 64.1878 18.0181 64.318 17.39 64.3ZM19.75 57.9C19.75 57.9 19.75 57.96 19.75 58.06L19.7 58.17V61.81H18.82V60.45H18.38V61.59H17.44V57.97H18.44V58.1299V58.24V59.59H18.88V57.86H19.42C19.67 57.86 19.76 57.86 19.81 57.86M17.35 59.54H15.83V58.84H17.35V59.54ZM17.45 61.8199V62.53C17.0668 62.5158 16.6842 62.57 16.32 62.6899C16.12 62.7999 15.98 62.9099 15.98 63.0699C15.98 63.2299 16.12 63.34 16.32 63.4C16.6842 63.5199 17.0668 63.5742 17.45 63.56V64.2599C16.8984 64.2771 16.3486 64.1889 15.83 64V62.09C16.3477 61.897 16.8977 61.8053 17.45 61.8199ZM15.83 61.66V60.97C15.963 60.9837 16.0973 60.9631 16.22 60.91C16.32 60.8 16.37 60.75 16.37 60.7C16.3725 60.6519 16.3592 60.6044 16.3321 60.5647C16.305 60.525 16.2656 60.4952 16.22 60.48C16.167 60.4343 16.1045 60.4008 16.0372 60.3818C15.9698 60.3628 15.8991 60.3588 15.83 60.37V59.66C16.1932 59.6388 16.5508 59.7568 16.83 59.99C16.9442 60.0685 17.0364 60.175 17.0976 60.2993C17.1589 60.4236 17.1873 60.5615 17.18 60.7C17.1847 60.8296 17.1548 60.9582 17.0932 61.0724C17.0317 61.1867 16.9408 61.2825 16.83 61.35C16.547 61.5753 16.1912 61.6891 15.83 61.67M15.83 57.98H16.72V58.6899H15.83V57.98ZM15.83 59.55H14.26V58.85H15.83V59.55ZM15.83 58.6899H14.94V57.97H15.83V58.6899ZM15.83 59.6899V60.4C15.63 60.4 15.53 60.3999 15.44 60.5099C15.3944 60.5252 15.355 60.555 15.3279 60.5947C15.3008 60.6345 15.2875 60.682 15.29 60.73C15.29 60.73 15.29 60.8299 15.44 60.9399C15.561 60.9986 15.6969 61.0196 15.83 61V61.7C15.4694 61.7146 15.1152 61.6012 14.83 61.3799C14.7265 61.3049 14.6413 61.2075 14.5807 61.095C14.5201 60.9824 14.4857 60.8577 14.48 60.73C14.4832 60.5933 14.5162 60.4589 14.5766 60.3363C14.6371 60.2137 14.7235 60.1057 14.83 60.02C15.1116 59.7911 15.4675 59.6736 15.83 59.6899ZM15.83 62.1299V64.04C15.73 63.98 15.68 63.98 15.63 63.92C15.4577 63.8509 15.3098 63.7323 15.2048 63.5793C15.0998 63.4262 15.0425 63.2456 15.04 63.06C15.0567 62.8832 15.1202 62.7141 15.2239 62.57C15.3276 62.4259 15.4677 62.312 15.63 62.24C15.68 62.24 15.73 62.2399 15.83 62.1299Z" fill="white"/>
<path d="M24.33 58.39V59.26H23.02V59.48C23.0177 60.098 23.1508 60.709 23.41 61.27C23.5958 61.8101 23.9826 62.2578 24.49 62.52C24.3348 62.5916 24.2005 62.7017 24.1 62.84C23.9885 62.9546 23.8911 63.0822 23.81 63.22C23.5053 62.9705 23.2391 62.6773 23.02 62.35C22.759 61.9813 22.5878 61.5566 22.52 61.11C22.42 61.5538 22.2367 61.9745 21.98 62.35C21.7487 62.7332 21.4507 63.0719 21.1 63.35C21.0106 63.2007 20.8915 63.0713 20.75 62.97C20.6546 62.8246 20.5192 62.71 20.36 62.64C20.9121 62.3281 21.358 61.8579 21.64 61.29C21.9225 60.7347 22.0763 60.1229 22.09 59.5V59.28H20.81V58.41M25.72 57.92V58.08V58.25V60.64H26.51V61.5H25.72V64.22H24.79V57.87H25.28C25.4431 57.8562 25.607 57.8562 25.77 57.87" fill="white"/>
<path d="M31.46 61.1L31.61 60.9399H31.46M31.46 63.22H33.38V64.03H31.46V63.22ZM31.46 60.1299V59.31H32.39V57.85H32.88C33.18 57.85 33.33 57.85 33.38 57.85V58.0099L33.33 58.18C33.33 58.18 33.33 58.29 33.33 58.39V62.39H32.44V60.06L31.46 60.1299ZM28.12 58.1299V59H29.4V59.33C29.3837 59.4829 29.3324 59.6301 29.25 59.7599C29.1656 59.9589 29.0472 60.1417 28.9 60.3C28.7373 60.4667 28.5561 60.6143 28.36 60.74C28.1638 60.856 27.9461 60.9308 27.72 60.96C27.8263 61.0739 27.9398 61.1808 28.06 61.28C28.1476 61.416 28.2481 61.5432 28.36 61.66C28.7036 61.4958 29.0178 61.2762 29.29 61.0099C29.4774 60.81 29.6449 60.5924 29.79 60.36C29.8894 60.6296 30.0544 60.8701 30.27 61.06C30.4743 61.3319 30.7517 61.54 31.07 61.66C31.1158 61.5147 31.1984 61.3837 31.31 61.28C31.3478 61.199 31.3985 61.1248 31.46 61.06V60.97C31.103 60.8511 30.7919 60.6239 30.57 60.3199C30.3581 60.031 30.2522 59.6778 30.27 59.3199V59.1H31.46V58.23L28.12 58.1299ZM31.46 60.1299H31.36V59.31H31.46V60.1299ZM31.46 63.22V64.03H28.56V62.03H29.1C29.29 62.03 29.44 62.03 29.49 62.08C29.54 62.13 29.49 62.08 29.49 62.24V62.35L29.44 62.46V63.22H31.46Z" fill="white"/>
<path d="M38.54 60.1801V60.9701H40.21V61.7901H37.21V60.9701H37.66V60.32H37.46C37.36 60.32 37.31 60.32 37.21 60.32V59.5601C37.61 59.5845 38.0109 59.5301 38.39 59.4001C38.64 59.3501 38.74 59.24 38.74 59.07C38.74 58.9 38.64 58.8101 38.39 58.7501C38.0066 58.6423 37.6068 58.605 37.21 58.64V57.88C37.856 57.8386 38.5014 57.9698 39.08 58.26C39.2409 58.3312 39.3802 58.4436 39.4838 58.5858C39.5874 58.7281 39.6516 58.895 39.67 59.07C39.6634 59.2921 39.5784 59.5047 39.43 59.6701C39.1938 59.8884 38.904 60.0402 38.59 60.1101M37.21 64.2801V63.63C37.6427 63.651 38.0758 63.5969 38.49 63.4701C38.74 63.3601 38.84 63.2501 38.84 63.0901C38.84 62.9301 38.74 62.82 38.49 62.71C38.0758 62.5832 37.6427 62.5291 37.21 62.5501V61.8401C37.8968 61.8144 38.5805 61.9443 39.21 62.2201C39.3794 62.296 39.5243 62.4176 39.6285 62.5713C39.7327 62.7249 39.7921 62.9046 39.8 63.0901C39.7893 63.2673 39.728 63.4378 39.6235 63.5813C39.5189 63.7249 39.3754 63.8355 39.21 63.9001C38.5916 64.2102 37.899 64.3418 37.21 64.2801ZM37.21 61.7401H34.21V60.9701H35.84V60.1601C35.5261 60.0902 35.2362 59.9384 35 59.7201C34.9092 59.6486 34.836 59.5575 34.7858 59.4535C34.7355 59.3496 34.7096 59.2356 34.71 59.1201C34.71 58.8001 34.9 58.5301 35.34 58.3101C35.9175 58.0166 36.5638 57.8852 37.21 57.9301V58.69C36.7968 58.6599 36.3814 58.6971 35.98 58.8001C35.79 58.8601 35.64 58.9601 35.64 59.1201C35.64 59.2801 35.79 59.34 35.98 59.45C36.3778 59.5737 36.7939 59.6279 37.21 59.6101V60.3701C37.11 60.3701 37.07 60.3701 36.97 60.3701H36.72V60.9701H37.21V61.7401ZM37.21 61.8401V62.6001C36.7968 62.57 36.3814 62.6071 35.98 62.71C35.79 62.82 35.64 62.9301 35.64 63.0901C35.64 63.2501 35.79 63.3601 35.98 63.4701C36.3778 63.5938 36.7939 63.6479 37.21 63.63V64.2801C36.5496 64.2995 35.8933 64.1696 35.29 63.9001C35.1258 63.835 34.9838 63.724 34.8809 63.5803C34.7781 63.4367 34.7187 63.2665 34.71 63.0901C34.717 62.9056 34.7749 62.7268 34.8772 62.5732C34.9796 62.4197 35.1225 62.2974 35.29 62.2201C35.8948 61.9553 36.55 61.8256 37.21 61.8401Z" fill="white"/>
<path d="M45.02 61.4301C45.08 61.4301 45.08 61.54 45.02 61.65V61.76V62.6201H47.63V63.44H41.63V62.6201H44.02V61.4301H45.02ZM46.89 58.28V59.09H43.16V60.34H47.02V61.16H42.2V58.28H46.89Z" fill="white"/>
<path d="M53.34 58.28V60.45H49.56V61.1H53.44V61.86H51.42V61.97V62.02V62.62H53.98V63.43H47.98V62.62H50.54V61.86H48.62V59.64H52.4V59.09H48.62V58.28" fill="white"/>
<path d="M41.97 52.05L42.3 52.02L42.45 51.96L42.62 51.79L42.71 51.62L42.66 51.39L42.48 51.28L42.27 51.15L42.06 50.98L41.9 50.63L41.93 49.96L41.97 49.27L42 47.84L41.97 47.29L42.08 47L42.15 46.84L42.59 46.77L42.97 46.72L43.37 46.51L43.59 46.33L43.75 46.05L43.82 45.67L43.75 45.44L43.68 45.22L43.12 44.34L42.81 43.88L42.48 43.21L42.36 42.7L42.34 41.92L42.38 41.69L42.51 41.56L42.69 41.63L42.88 42.04L42.99 42.43L43.03 42.78L43.12 43.25L43.21 43.74L43.47 44.13L43.65 44.01L43.87 43.74L44.06 43.32L44.07 42.91L44.08 42.53L44.1 42.16L44.11 41.8L44.13 40.99L44 40.28L43.63 39.49L43.16 38.87L42.43 38.11L42.05 37.66L41.77 37.23L41.63 36.78L41.52 36.05L41.45 35.48L41.42 35.11L41.36 34.84L41.26 34.62L41.01 34.44L40.74 34.35L40.45 34.29L40.22 34.28L39.95 34.27H39.74L39.4 34.25L39.09 34.3L38.76 34.4L38.6 34.5L38.4 34.62L38.17 34.79L38.01 35.09L37.97 35.41L37.95 35.72L37.99 36.05L38.05 36.5L38.16 36.77L38.37 37.13L38.45 37.47L38.34 37.89L38.22 38.05L37.86 38.21L37.65 38.25L37.02 38.3L36.49 38.29L35.76 38.01L35.06 37.5L34.27 36.67L33.63 35.92L33.2 35.27L33 34.84L32.69 34.16L32.6 33.93L32.42 33.49L32.28 33.07L32.2 32.66L32.07 31.97L31.88 31.47L31.7 30.98L31.41 30.42L30.9 29.73L30.38 29.31L29.85 28.97L29.4 28.67L28.49 28.25L27.97 28.02L27.22 27.82L27.16 27.66L27.21 27.35L27.33 27.14L27.68 26.88L28.15 26.55L28.57 26.22L28.81 25.96L28.99 25.51L29 25.14L29.01 24.96L29.02 24.5L29.03 23.95L28.9 23.68L28.74 23.43L28.53 23.17L28.26 22.87L27.82 22.57L27.55 22.4L27.08 22.17L26.7 22.08L26.35 21.99L25.81 21.97L25.46 21.96L25.09 22.07L24.73 22.28L24.39 22.6L24.14 22.97L23.98 23.41L23.89 23.89L23.99 24.47L24.11 24.93L24.2 25.23L24.31 25.51L24.62 25.86L24.82 26.09L25.07 26.55L25.2 26.9L25.14 27.22L24.99 27.62L24.54 27.98L23.85 28.4L22.73 29.21L21.71 30.29L20.89 31.29L20.36 32.29L20.1 32.75L19.83 33.35L19.59 34.19L19.48 35.47L19.49 36.88L19.46 37.59L19.43 38.57L19.78 39.45L20.1 39.75L20.82 39.85L21.51 39.61L21.96 38.94L21.86 38.18L21.61 37.61L21.55 36.88L21.57 36.15L21.91 35.2L22.35 34.38L22.72 33.83L22.97 33.15L23.12 32.63L23.35 32.29H23.73L23.93 32.66L24.09 33.53L24.11 34.13L24.02 34.93L23.89 35.89L23.77 36.58L23.63 37.01L23.48 37.61L23.34 38.19L23.21 38.76L23.16 39.26L23.11 39.85L23.13 40.42L23.11 40.88L23.17 41.46L23.33 42.07L23.41 42.45L23.48 42.78L23.59 43.37L23.7 43.93L23.75 44.76L23.76 44.97L23.82 45.6L23.84 46.49L23.92 47.35V47.99L23.9 48.64L24.1 50.73L23.97 54.16L24.28 55.07L24.66 55.57L25.3 55.94L26.32 55.97L26.86 55.87L27.34 55.6L27.74 55.4L28 55.16L28.19 54.82L28.16 54.4L27.8 53.92L27.24 53.36L26.82 53.01L26.84 48.91L26.95 47.37L27.01 46.32L27.04 45.83L27.05 45.48L27.11 45L27.1 44.75L27.3 44.48L27.42 44.7L27.61 45.12L27.65 45.33L27.7 46.04L27.8 46.84L27.88 47.48L28.03 47.99L28.22 48.7L28.39 49.48L28.52 49.92L28.99 51.09L29.4 52.16L29.6 52.76L30.19 53.09L30.66 53.22L31.12 53.21L31.69 53.14L32.02 52.97L32.3 52.65L32.49 52.41L32.66 52.15L32.74 51.75L32.72 51.35L32.59 50.86L32.16 50.1L31.39 48.86L30.67 47.73L30.49 47.21L30.31 46.63L30.46 43.44L30.68 42.77L30.91 42.05L31.04 40.9L30.99 39.8L30.67 38.66L30.27 37.54L29.97 36.42L30 35.69L30.05 35L30.19 34.58L30.62 34.53L31.08 34.77L31.4 35.19L31.72 35.69L32.07 36.41L32.54 37.06L33.13 37.93L33.62 38.53L34.41 39.17L35.5 39.74L36.16 40.06L36.86 40.34L37.21 40.51L37.41 40.75L37.46 41L37.5 41.28L37.46 41.62L37.37 42.02L36.99 42.87L36.48 43.65L36.25 44.33L36.19 44.78V45.13L36.25 45.55L36.44 45.83L36.72 46.23L37.06 46.56L37.35 46.84L37.78 47.18L38.27 47.67L38.4 48.13L38.45 48.38L38.5 48.95L38.48 49.49L38.41 49.74L38.28 50.17L38.18 50.5L38.11 50.72L37.95 51.16L37.81 51.4L37.69 51.65L37.53 51.96L37.46 52.22L37.55 52.45L37.84 52.68L38.24 52.76L38.52 52.75L38.71 52.7L38.91 52.52L39.03 52.4L39.38 51.7L39.62 50.98L39.8 50.2L39.85 49.4L39.88 48.55L39.9 47.84L39.88 47.23H40.07L40.3 47.39L40.37 47.59L40.46 47.8L40.44 48.39L40.54 48.8L40.68 49.16L40.7 49.41V49.84L40.56 50.32L40.47 50.91L40.53 51.24L40.67 51.57L40.77 51.76L41.08 51.96L41.41 52.02L41.66 52.06" fill="white"/>
</g>
<defs>
<clipPath id="clip0_8072_211">
<rect width="61.26" height="68.22" fill="white"/>
</clipPath>
</defs>
</svg>
