<svg width="76" height="67" viewBox="0 0 76 67" fill="none" xmlns="http://www.w3.org/2000/svg">
<g clip-path="url(#clip0_8063_6603)">
<path d="M1.11999 59.9L34.41 2.54C36.24 -0.579995 39.47 -0.579995 41.41 2.54L74.86 59.97C76.8 63.26 75.21 65.85 71.26 65.85H4.91002C0.600024 65.85 -0.820059 63.32 1.19994 59.85" fill="white"/>
<path d="M1.11998 59.9L34.41 2.54C36.24 -0.579995 39.47 -0.579995 41.41 2.54L74.86 59.97C76.8 63.26 75.21 65.85 71.26 65.85H4.91002C0.550017 65.89 -0.880022 63.36 1.11998 59.9Z" stroke="#D20D18" stroke-width="0.49"/>
<path d="M2.62 60.6L35.62 3.70001C36.8 1.64001 38.91 1.70001 40.1 3.76001L73.25 60.66C74.48 62.72 73.25 64.3 70.88 64.3H5.18006C2.59006 64.3 1.46997 62.54 2.58997 60.6" fill="#D20D18"/>
<path d="M38.05 12.99L64.07 57.85H11.58" fill="#F8B500"/>
<path d="M38.05 12.99L64.07 57.85H11.58L38.05 12.99Z" stroke="#D20D18" stroke-width="0.55"/>
<path d="M47.4499 40.65C46.8816 40.6534 46.3165 40.7341 45.77 40.89L44.7199 38.54V38.48C44.6688 38.3376 44.5752 38.2143 44.4519 38.1266C44.3285 38.039 44.1813 37.9913 44.03 37.99H34.03L35.5999 34.74H38.25C38.3481 34.74 38.4422 34.701 38.5116 34.6316C38.5809 34.5623 38.62 34.4681 38.62 34.37V33.24C38.62 33.1419 38.5809 33.0478 38.5116 32.9784C38.4422 32.909 38.3481 32.87 38.25 32.87H34.9399C34.7918 32.8609 34.6444 32.896 34.5162 32.9708C34.388 33.0455 34.2849 33.1566 34.2199 33.29L30.68 40.65V40.73C29.1337 40.2648 27.4686 40.4023 26.0195 41.1148C24.5704 41.8273 23.4449 43.062 22.8691 44.5706C22.2933 46.0793 22.3101 47.7499 22.916 49.2467C23.5219 50.7435 24.6719 51.9554 26.135 52.6387C27.598 53.3221 29.2655 53.4261 30.8022 52.9301C32.3389 52.434 33.6307 51.3746 34.4181 49.9647C35.2054 48.5549 35.4298 46.8993 35.0461 45.3308C34.6624 43.7623 33.6991 42.3972 32.3499 41.51V41.46L33.12 39.86H43.27L44.0599 41.61C42.7586 42.4379 41.8 43.7079 41.3606 45.1863C40.9211 46.6647 41.0302 48.2521 41.6681 49.6565C42.3059 51.0608 43.4294 52.1875 44.8319 52.8294C46.2343 53.4713 47.8214 53.585 49.3011 53.1498C50.7808 52.7146 52.0536 51.7597 52.8852 50.4607C53.7169 49.1618 54.0514 47.6062 53.8274 46.0802C53.6033 44.5542 52.8357 43.1604 51.6657 42.1554C50.4958 41.1503 49.0023 40.6015 47.4599 40.61M33.4599 46.83C33.4639 47.7505 33.1945 48.6515 32.686 49.4188C32.1775 50.1861 31.4527 50.7853 30.6034 51.1403C29.754 51.4953 28.8185 51.5902 27.9151 51.4131C27.0118 51.2359 26.1813 50.7946 25.529 50.1451C24.8767 49.4956 24.4319 48.6671 24.2508 47.7645C24.0698 46.862 24.1607 45.926 24.512 45.0752C24.8634 44.2243 25.4593 43.4969 26.2245 42.9851C26.9896 42.4732 27.8894 42.2 28.8099 42.2C29.1835 42.2026 29.5559 42.2462 29.92 42.33L27.92 46.49C27.8241 46.7139 27.8188 46.9663 27.9054 47.1939C27.9919 47.4216 28.1635 47.6068 28.3839 47.7105C28.6043 47.8142 28.8563 47.8283 29.0869 47.7499C29.3175 47.6715 29.5085 47.5066 29.62 47.29L31.5599 43.14C32.1338 43.569 32.5999 44.1258 32.921 44.7664C33.2421 45.4069 33.4096 46.1135 33.41 46.83M47.41 51.64C46.423 51.6432 45.4608 51.3308 44.6638 50.7486C43.8668 50.1663 43.2767 49.3445 42.9797 48.4032C42.6827 47.462 42.6942 46.4504 43.0127 45.5162C43.3311 44.5819 43.9399 43.7739 44.75 43.21L46.66 47.42C46.775 47.6234 46.9616 47.7767 47.1834 47.85C47.4053 47.9232 47.6464 47.9113 47.8599 47.8164C48.0735 47.7215 48.2441 47.5504 48.3383 47.3367C48.4326 47.1229 48.4439 46.8816 48.37 46.66L46.4699 42.47C46.7785 42.4011 47.0939 42.3676 47.41 42.37C48.0368 42.3409 48.663 42.4392 49.2507 42.659C49.8384 42.8788 50.3753 43.2155 50.8292 43.6488C51.2831 44.082 51.6444 44.6028 51.8912 45.1797C52.138 45.7566 52.2653 46.3775 52.2653 47.005C52.2653 47.6325 52.138 48.2534 51.8912 48.8303C51.6444 49.4072 51.2831 49.928 50.8292 50.3613C50.3753 50.7945 49.8384 51.1312 49.2507 51.351C48.663 51.5708 48.0368 51.6691 47.41 51.64Z" fill="#231916"/>
<path d="M46.71 35.54H41.36C41.2173 35.5724 41.0876 35.6468 40.9877 35.7538C40.8879 35.8608 40.8225 35.9954 40.8001 36.14C40.792 36.2918 40.8321 36.4422 40.9147 36.5697C40.9973 36.6972 41.1183 36.7953 41.2601 36.85L44.6401 37.3C44.8895 37.3262 45.1416 37.3021 45.3816 37.2293C45.6216 37.1566 45.8446 37.0365 46.0375 36.8762C46.2304 36.7159 46.3893 36.5187 46.5048 36.2961C46.6203 36.0735 46.69 35.83 46.71 35.58" fill="#231916"/>
</g>
<defs>
<clipPath id="clip0_8063_6603">
<rect width="75.88" height="66.14" fill="white"/>
</clipPath>
</defs>
</svg>
