<svg width="76" height="66" viewBox="0 0 76 66" fill="none" xmlns="http://www.w3.org/2000/svg">
<g clip-path="url(#clip0_8063_6659)">
<path d="M1.12999 59.64L34.27 2.63999C36.1 -0.530007 39.34 -0.530007 41.17 2.63999L74.55 59.8C76.55 63.1 74.85 65.62 70.95 65.62H4.78999C0.599994 65.62 -0.880009 63.15 1.12999 59.68" fill="white"/>
<path d="M1.12999 59.64L34.27 2.63999C36.1 -0.530007 39.34 -0.530007 41.17 2.63999L74.55 59.8C76.55 63.1 74.85 65.62 70.95 65.62H4.78999C0.599994 65.58 -0.880009 63.11 1.12999 59.64Z" stroke="#D20D18" stroke-width="0.49"/>
<path d="M2.6 60.35L35.51 3.68C36.69 1.62 38.81 1.68 39.93 3.68L73.02 60.47C74.2 62.47 72.96 64.05 70.66 64.05H5.19998C2.59998 64.05 1.48 62.35 2.6 60.35Z" fill="#D20D18"/>
<path d="M37.87 12.91L63.82 57.65H11.52" fill="#F8B500"/>
<path d="M37.87 12.91L63.82 57.65H11.52L37.87 12.91Z" stroke="#D20D18" stroke-width="0.57"/>
<path d="M31.14 32.8L31.73 33.15C31.5658 33.6915 31.3688 34.2225 31.14 34.74C31.26 34.86 31.14 35.8 31.14 35.97L31.56 35.74C31.85 34.98 32.8 35.62 33.15 34.39C33.3102 33.9056 33.5074 33.4341 33.74 32.98C33.86 32.98 34.27 33.04 34.33 32.98C34.51 33.1 34.39 33.33 34.74 33.39C34.7208 34.2646 34.5829 35.1325 34.33 35.97C34.04 36.56 33.09 36.74 32.56 37.15C32.39 37.27 32.5 37.62 32.32 37.74C32.2295 38.145 32.2295 38.565 32.32 38.97C32.5 39.27 33.27 39.5 33.56 39.73C33.8324 39.9638 34.1311 40.1652 34.45 40.33C37.75 41.85 39.69 41.33 43.53 41.73C44.3025 41.8106 45.058 42.0096 45.77 42.32L45.94 42.73C46.77 42.85 46.89 42.27 47.54 42.32C47.72 42.38 48.01 42.2 48.19 42.32C48.07 42.56 48.31 42.85 48.19 43.09C48.07 43.33 47.19 43.61 47.19 43.91C46.65 45.67 48.07 46.97 48.54 47.85C48.89 48.5 48.78 49.26 49.19 49.85C49.814 50.5055 50.5529 51.0411 51.37 51.43C51.79 51.61 51.9 51.67 52.26 51.84C52.62 52.01 53.32 51.97 53.56 52.08C53.4357 52.4011 53.355 52.7375 53.32 53.08C53.08 53.08 52.67 53.37 52.14 53.32C50.8235 52.8888 49.6016 52.21 48.54 51.32C48.13 50.85 47.89 49.73 47.36 49.49C46.83 49.25 46.36 49.62 45.94 49.49C44.89 49.26 43.83 48.15 42.76 47.91C41.17 47.61 39.52 48.15 37.93 47.91C37.2224 47.605 36.4939 47.351 35.75 47.15C34.2631 46.9405 32.7608 46.8602 31.26 46.91C31.5533 47.6392 31.9327 48.3308 32.39 48.97L32.44 49.08C32.56 49.14 32.56 48.97 32.74 49.08C33.0125 49.11 33.2875 49.11 33.56 49.08C33.86 49.73 34.56 49.62 34.51 50.43C34.51 50.67 34.39 50.78 34.33 51.08C33.51 50.73 32.5 50.85 31.91 50.08C31.1191 49.1687 30.4471 48.1606 29.91 47.08C29.49 46.08 29.55 46.08 30.08 45.67C30.26 45.56 30.38 45.44 30.56 45.32C31.03 44.91 31.73 44.91 32.15 44.5C32.44 44.26 32.15 43.74 32.15 43.74C31.97 43.26 32.09 42.85 31.73 42.56C31.26 42.09 30.32 42.09 29.73 41.73L29.55 41.33C28.84 41.27 28.55 41.85 28.14 41.91C27.9015 41.95 27.6572 41.9395 27.4229 41.8792C27.1887 41.8189 26.9697 41.7102 26.78 41.56C26.7812 40.969 26.9217 40.3866 27.19 39.86L27.54 39.32C28.31 37.39 27.19 38.67 28.79 36.97C29.2 36.5 29.43 35.03 29.73 34.97C30.02 33.2 29.91 33.5 31.14 32.79" fill="#231916"/>
</g>
<defs>
<clipPath id="clip0_8063_6659">
<rect width="75.62" height="65.82" fill="white"/>
</clipPath>
</defs>
</svg>
