<svg width="77" height="30" viewBox="0 0 77 30" fill="none" xmlns="http://www.w3.org/2000/svg">
<g clip-path="url(#clip0_8063_7935)">
<path d="M5.84995 28.8101C4.37892 28.802 2.96636 28.2333 1.9 27.22C1.37341 26.696 0.956342 26.0726 0.673067 25.3859C0.389792 24.6991 0.245946 23.9628 0.249972 23.22" stroke="#231916" stroke-width="0.49"/>
<path d="M0.240002 23.23V5.82996" stroke="#231916" stroke-width="0.49"/>
<path d="M0.240039 5.82C0.237322 5.07645 0.382766 4.33983 0.667773 3.65307C0.952781 2.9663 1.37168 2.34314 1.90007 1.82C2.42008 1.30619 3.03711 0.901021 3.71526 0.628045C4.39341 0.355068 5.11907 0.219781 5.85002 0.230034" stroke="#231916" stroke-width="0.49"/>
<path d="M5.85 0.23999H70.55" stroke="#231916" stroke-width="0.49"/>
<path d="M70.5501 0.239913C71.2892 0.224092 72.024 0.356705 72.7111 0.629806C73.3981 0.902908 74.0235 1.31098 74.5501 1.82994C75.0766 2.35391 75.4937 2.97738 75.777 3.66411C76.0603 4.35083 76.204 5.08709 76.2 5.82994" stroke="#231916" stroke-width="0.49"/>
<path d="M76.15 5.82996V23.23" stroke="#231916" stroke-width="0.49"/>
<path d="M76.15 23.22C76.1541 23.9628 76.0102 24.6991 75.7269 25.3859C75.4437 26.0726 75.0266 26.696 74.5 27.22C73.4205 28.2443 71.9881 28.8138 70.5 28.8101" stroke="#231916" stroke-width="0.49"/>
<path d="M70.55 28.8101H5.85" stroke="#231916" stroke-width="0.49"/>
<path d="M5.84994 26.75C5.38982 26.7644 4.93178 26.6829 4.50484 26.5107C4.07791 26.3386 3.69142 26.0795 3.36996 25.75C3.04829 25.4248 2.79429 25.0391 2.62264 24.6151C2.451 24.1911 2.36511 23.7374 2.36996 23.28" stroke="#231916" stroke-width="0.49"/>
<path d="M2.37 23.23V5.82996" stroke="#231916" stroke-width="0.49"/>
<path d="M2.37006 5.82002C2.36543 5.36417 2.45144 4.91194 2.62311 4.48963C2.79479 4.06732 3.04869 3.68332 3.37006 3.35999C3.68508 3.01812 4.06893 2.74693 4.4964 2.56422C4.92388 2.38151 5.38524 2.29144 5.85004 2.3" stroke="#231916" stroke-width="0.49"/>
<path d="M5.85 2.30005H70.55" stroke="#231916" stroke-width="0.49"/>
<path d="M70.5501 2.30001C71.0131 2.2935 71.4723 2.38453 71.8978 2.56716C72.3234 2.74978 72.7057 3.01991 73.02 3.36001C73.3414 3.68333 73.5953 4.06733 73.767 4.48965C73.9386 4.91196 74.0247 5.36418 74.02 5.82003" stroke="#231916" stroke-width="0.49"/>
<path d="M74.03 5.82996V23.23" stroke="#231916" stroke-width="0.49"/>
<path d="M73.99 23.22C73.9954 23.6774 73.9097 24.1314 73.738 24.5554C73.5664 24.9795 73.3121 25.3652 72.99 25.6901C72.6765 26.0312 72.2943 26.3019 71.8685 26.4846C71.4428 26.6673 70.9832 26.7578 70.52 26.75" stroke="#231916" stroke-width="0.49"/>
<path d="M70.55 26.76H5.85" stroke="#231916" stroke-width="0.49"/>
<path d="M12.74 12.47C12.8 12.53 12.8001 12.59 12.8001 12.7L12.74 12.82V13.76H16.28V15.06H12.09V12.41H12.15C12.3487 12.3839 12.5507 12.4045 12.74 12.47ZM12.09 16.99V15.64H15.45V19.47H14.15V16.99H12.09ZM12.09 11.06V11C12.4183 11.5084 12.8642 11.9303 13.39 12.23C13.9581 12.6181 14.6025 12.8806 15.28 13C15.384 12.7768 15.5009 12.5598 15.63 12.35C15.725 12.1224 15.8422 11.9046 15.98 11.7C15.5223 11.6432 15.0706 11.5462 14.63 11.41C14.277 11.2487 13.9419 11.051 13.63 10.82C13.4 10.58 13.16 10.41 12.98 10.18C12.8819 9.99772 12.8238 9.79658 12.8099 9.59003C12.9299 9.41003 12.93 9.24 12.87 9.18C12.6794 9.12039 12.4787 9.09999 12.28 9.12H12.1L12.09 11.06ZM12.09 15.06H7.99V13.76H11.53V12.41H12.12L12.09 15.06ZM12.09 9.12H11.4399C11.4155 9.46289 11.3192 9.79682 11.1572 10.1C10.9953 10.4033 10.7714 10.669 10.5 10.88C9.84496 11.4079 9.04009 11.7158 8.19996 11.76C8.37996 11.99 8.49005 12.17 8.67005 12.41C8.77571 12.6292 8.8925 12.8428 9.02003 13.05C9.67362 12.918 10.2952 12.6599 10.85 12.29C11.3489 11.9764 11.7723 11.5563 12.09 11.06V9.12ZM12.09 16.99H8.83997V15.64H12.09V16.99Z" fill="#231916"/>
<path d="M21.11 14.93V15.23L21 15.47V16.8201H24.66V18.23H16.28V16.8201H19.7V14.88H20.4C20.635 14.8403 20.875 14.8403 21.11 14.88M23.71 9.65002V11.14H18.46V13.14H23.89V14.5H17.16V9.73004L23.71 9.65002Z" fill="#231916"/>
<path d="M32.99 13.76V15H24.61V13.76M32.11 9.17004V11.65H26.79V12.23H32.22V13.29H25.5599V10.59H30.8001V10.24H25.5599V9.14001L32.11 9.17004ZM32.11 15.41V17.87H26.79V18.35H32.28V19.35H25.5599V16.88H30.8001V16.41H25.5599V15.41H32.11Z" fill="#231916"/>
<path d="M43.4201 14.59H39.89V15.0499H42.5401V17.7H37.23V18.28H42.72V19.3399H35.99V16.64H41.24V16.14H35.99V15.08H38.59V14.6199H35.0501V13.3799H43.4201M42.66 9.31995V10.5599H40.1799C40.1819 10.643 40.205 10.7242 40.247 10.796C40.2889 10.8677 40.3486 10.9276 40.4201 10.97C40.578 11.1553 40.7813 11.2965 41.01 11.3799C41.3103 11.517 41.6258 11.6177 41.95 11.6799C42.2817 11.7256 42.6182 11.7256 42.95 11.6799C42.7729 11.8854 42.6372 12.1231 42.5501 12.3799C42.4266 12.5638 42.3258 12.7619 42.25 12.97C41.6627 12.9009 41.0895 12.7424 40.5501 12.4999C40.0371 12.38 39.5792 12.0913 39.25 11.6799C38.902 12.0696 38.4515 12.3537 37.95 12.4999C37.3879 12.7475 36.7908 12.9061 36.1799 12.97C36.0599 12.73 35.94 12.4999 35.83 12.3199C35.7113 12.0934 35.5707 11.879 35.41 11.6799C36.1093 11.7586 36.8173 11.6765 37.48 11.4399C38 11.1999 38.3001 10.9099 38.3001 10.5599H35.76V9.31995H42.66Z" fill="#231916"/>
<path d="M47.55 10.7C47.9567 11.6245 48.1415 12.6313 48.0899 13.64C48.1428 14.6682 47.9581 15.6948 47.55 16.64C47.4138 16.967 47.1851 17.2472 46.8921 17.4461C46.599 17.6451 46.2542 17.7541 45.9 17.76V16.3499C46.2 16.3499 46.4299 16.17 46.6099 15.7C46.7779 15.0267 46.8552 14.3338 46.8399 13.64C46.8478 12.9663 46.7705 12.2943 46.6099 11.64C46.4299 11.17 46.2 10.99 45.9 10.99V9.57998C46.2606 9.58725 46.6107 9.70266 46.9049 9.91128C47.1991 10.1199 47.4239 10.4121 47.55 10.75M51.15 9.1C51.21 9.17 51.21 9.21999 51.15 9.33999C51.1534 9.40541 51.1319 9.46968 51.0899 9.51998V19.52H49.8V9.04995H50.5599C50.7563 9.03592 50.9536 9.03592 51.15 9.04995M45.9 17.76C45.5464 17.7516 45.2028 17.6415 44.9101 17.4428C44.6175 17.2442 44.3883 16.9655 44.25 16.64C43.8507 15.6923 43.6695 14.6671 43.7199 13.64C43.6706 12.6324 43.8519 11.6269 44.25 10.7C44.3879 10.3701 44.6156 10.0855 44.9073 9.87863C45.199 9.67178 45.543 9.551 45.9 9.52999V10.94C45.55 10.94 45.3699 11.12 45.1899 11.59C45.0304 12.2445 44.9531 12.9164 44.9599 13.59C44.9498 14.2836 45.027 14.9757 45.1899 15.65C45.3699 16.12 45.55 16.3 45.9 16.3V17.76Z" fill="#231916"/>
<path d="M55.16 9.76001C55.161 9.88258 55.1407 10.0044 55.1 10.12V10.29L55.03 10.47C55.03 10.65 55.03 10.82 55.03 11.11V12.11C55.0668 13.0076 55.2845 13.8886 55.6701 14.7C56.0089 15.5344 56.5605 16.2655 57.27 16.8201L56.73 17.35C56.55 17.58 56.38 17.7601 56.26 17.9401C55.7609 17.4508 55.3602 16.8703 55.08 16.23C54.7264 15.6549 54.4886 15.0163 54.38 14.35C54.2316 14.979 54.0136 15.5894 53.73 16.17C53.4503 16.8456 53.0468 17.4629 52.5401 17.99C52.4017 17.8009 52.2477 17.6236 52.08 17.46C51.89 17.29 51.72 17.11 51.61 16.99C52.3837 16.2018 52.9475 15.2323 53.25 14.17C53.6873 12.7047 53.8864 11.1786 53.84 9.65002H54.61C54.8324 9.63241 55.0558 9.67019 55.26 9.76001M59.57 9.06C59.63 9.12 59.63 9.17004 59.57 9.29004C59.5714 9.32325 59.566 9.3564 59.554 9.38739C59.5419 9.41838 59.5235 9.44651 59.5 9.47003V19.47H58.21V9H58.98C59.1779 9.0046 59.3752 9.02466 59.57 9.06Z" fill="#231916"/>
<path d="M64.84 15C64.89 15 64.84 15.11 64.84 15.23L64.77 15.47V15.7001V16.8201H68.4201V18.23H64.23V13.52H64.2901C64.8428 13.5598 65.3951 13.4383 65.88 13.17C66.0551 13.0563 66.1972 12.8984 66.292 12.7123C66.3868 12.5263 66.431 12.3185 66.4201 12.11C66.4307 11.9097 66.3859 11.7105 66.2907 11.534C66.1954 11.3576 66.0533 11.2109 65.88 11.11C65.3962 10.8383 64.8438 10.7132 64.2901 10.75H64.23V9.46001H64.2901C65.2206 9.3863 66.1457 9.65675 66.89 10.22C67.1563 10.4546 67.3683 10.7442 67.5116 11.0688C67.6549 11.3934 67.726 11.7452 67.72 12.1C67.7316 12.4426 67.6688 12.7836 67.5359 13.0995C67.403 13.4155 67.203 13.6988 66.95 13.93C66.3027 14.5181 65.4644 14.852 64.59 14.87C64.77 14.87 64.89 14.93 64.89 14.99M64.23 18.22H60.11V16.81H63.53V14.87H63.88C63.011 14.8265 62.1809 14.4959 61.52 13.93C61.0411 13.4393 60.7659 12.7855 60.75 12.1C60.7422 11.7487 60.8179 11.4004 60.9708 11.084C61.1238 10.7676 61.3497 10.4921 61.63 10.28C61.9883 9.97922 62.4023 9.75195 62.8484 9.61125C63.2945 9.47055 63.764 9.41917 64.23 9.46001V10.75C63.6573 10.7155 63.0862 10.8401 62.58 11.11C62.4085 11.2122 62.2685 11.3595 62.1751 11.5358C62.0816 11.7122 62.0384 11.9107 62.0501 12.11C62.0371 12.3177 62.0792 12.5252 62.1723 12.7114C62.2653 12.8975 62.406 13.0558 62.58 13.17C63.0874 13.436 63.6583 13.557 64.23 13.52V18.22Z" fill="#231916"/>
</g>
<defs>
<clipPath id="clip0_8063_7935">
<rect width="76.39" height="29.05" fill="white"/>
</clipPath>
</defs>
</svg>
