<svg width="77" height="30" viewBox="0 0 77 30" fill="none" xmlns="http://www.w3.org/2000/svg">
<g clip-path="url(#clip0_8088_2)">
<path d="M5.79009 28.8701C5.04818 28.8737 4.31285 28.7307 3.62639 28.4493C2.93993 28.1678 2.31587 27.7535 1.79009 27.23C1.27749 26.7112 0.872961 26.0958 0.600022 25.4194C0.327083 24.7431 0.191074 24.0193 0.199997 23.29" stroke="#231F20" stroke-width="0.49"/>
<path d="M0.23999 23.2901V5.83008" stroke="#231F20" stroke-width="0.49"/>
<path d="M0.240036 5.83004C0.231113 5.10076 0.367122 4.37698 0.640061 3.70064C0.913 3.0243 1.3174 2.40886 1.83 1.89004C2.35397 1.36345 2.9775 0.946382 3.66423 0.663107C4.35096 0.379832 5.08715 0.236047 5.83 0.240072" stroke="#231F20" stroke-width="0.49"/>
<path d="M5.79001 0.23999H70.48" stroke="#231F20" stroke-width="0.49"/>
<path d="M70.48 0.22998C71.9612 0.240384 73.3791 0.832045 74.4283 1.87756C75.4776 2.92308 76.0743 4.33886 76.09 5.82001" stroke="#231F20" stroke-width="0.49"/>
<path d="M76.09 5.83008V23.2901" stroke="#231F20" stroke-width="0.49"/>
<path d="M76.09 23.29C76.0768 24.7711 75.4806 26.1873 74.4305 27.2318C73.3805 28.2762 71.9611 28.8649 70.48 28.8701" stroke="#231F20" stroke-width="0.49"/>
<path d="M70.48 28.8701H5.79001" stroke="#231F20" stroke-width="0.49"/>
<path d="M5.79002 26.8201C4.87283 26.7969 4.00087 26.4166 3.35997 25.7601C3.03123 25.4401 2.7726 25.0553 2.60045 24.6301C2.4283 24.2049 2.3464 23.7486 2.35997 23.29" stroke="#231F20" stroke-width="0.49"/>
<path d="M2.31 23.2901V5.83008" stroke="#231F20" stroke-width="0.49"/>
<path d="M2.30992 5.83008C2.29635 5.37155 2.37825 4.91526 2.5504 4.49005C2.72255 4.06485 2.98118 3.68005 3.30992 3.36011C3.95629 2.71928 4.82977 2.35984 5.73997 2.36011" stroke="#231F20" stroke-width="0.49"/>
<path d="M5.79001 2.36011H70.48" stroke="#231F20" stroke-width="0.49"/>
<path d="M70.48 2.35992C71.4084 2.35455 72.3013 2.71617 72.9644 3.36609C73.6274 4.016 74.0068 4.90155 74.02 5.82989" stroke="#231F20" stroke-width="0.49"/>
<path d="M74.02 5.83008V23.2901" stroke="#231F20" stroke-width="0.49"/>
<path d="M73.99 23.29C73.9846 23.7498 73.8881 24.2039 73.7062 24.6261C73.5242 25.0483 73.2604 25.4304 72.9299 25.7501C72.2765 26.4196 71.3853 26.8041 70.45 26.8201" stroke="#231F20" stroke-width="0.49"/>
<path d="M70.48 26.8201H5.79001" stroke="#231F20" stroke-width="0.49"/>
<path d="M6.43994 16.6801C7.76994 16.6801 8.96 16.6801 10 16.6001C11.04 16.5201 12 16.4801 13 16.3501L13.1 17.5201C11.9952 17.7114 10.8798 17.8349 9.76001 17.8901C8.62001 17.9401 7.36 17.9701 6 17.9701L5.79004 16.6801H6.43994ZM12.83 11.1101H5.98999V9.87012H12.8199L12.83 11.1101ZM10.88 11.8201C11.2763 11.9679 11.6228 12.2244 11.88 12.5601C12.114 12.8792 12.2401 13.2645 12.2401 13.6601C12.2401 14.0557 12.114 14.4411 11.88 14.7601C11.6172 15.0901 11.2724 15.3452 10.88 15.5001C10.4129 15.6871 9.91312 15.7788 9.41003 15.7701C8.9135 15.778 8.42035 15.6863 7.95996 15.5001C7.56621 15.3478 7.22077 15.0922 6.95996 14.7601C6.73175 14.4387 6.60913 14.0543 6.60913 13.6601C6.60913 13.2659 6.73175 12.8815 6.95996 12.5601C7.21788 12.2251 7.56422 11.9689 7.95996 11.8201C8.42035 11.634 8.9135 11.5422 9.41003 11.5501C9.91312 11.5414 10.4129 11.6332 10.88 11.8201ZM8.73999 12.8201C8.55929 12.8808 8.39973 12.9918 8.28003 13.1401C8.16271 13.2756 8.10182 13.4511 8.10999 13.6301C8.10381 13.8089 8.16446 13.9836 8.28003 14.1201C8.40106 14.2648 8.56049 14.3722 8.73999 14.4301C8.95542 14.5047 9.18206 14.5419 9.41003 14.5401C9.64697 14.5407 9.88269 14.507 10.11 14.4401C10.2907 14.3795 10.4502 14.2684 10.5699 14.1201C10.6786 13.9761 10.7375 13.8006 10.7375 13.6201C10.7375 13.4397 10.6786 13.2641 10.5699 13.1201C10.4502 12.9718 10.2907 12.8608 10.11 12.8001C9.88439 12.7248 9.64786 12.6876 9.41003 12.6901C9.17913 12.7043 8.95239 12.7584 8.73999 12.8501V12.8201ZM10.22 10.5501H8.64001V8.63013H10.22V10.5501ZM10.22 17.2401H8.65002V15.4101H10.22V17.2401ZM15.22 19.8201H13.66V8.61011H15.22V19.8201Z" fill="#231F20"/>
<path d="M20.22 12.8501C19.9896 13.4886 19.6169 14.0664 19.13 14.5394C18.6431 15.0124 18.055 15.3683 17.41 15.5801L16.59 14.3001C17.1461 14.14 17.6589 13.8563 18.09 13.4701C18.476 13.1345 18.7833 12.718 18.99 12.2501C19.1889 11.7962 19.2911 11.3057 19.29 10.8101V10.0801H20.5699V10.8101C20.5792 11.5058 20.4606 12.1973 20.22 12.8501ZM23.13 10.6501H17.04V9.39008H23.13V10.6501ZM20.25 19.1301H18.67V16.1301H20.25V19.1301ZM26.39 19.6601H18.67V18.3901H26.39V19.6601ZM21.1799 12.1501C21.3821 12.5928 21.6752 12.988 22.04 13.3101C22.4574 13.6742 22.9486 13.9437 23.48 14.1001L22.7 15.3501C22.0584 15.1579 21.4721 14.815 20.99 14.3501C20.5451 13.899 20.2038 13.3565 19.99 12.7601C19.7593 12.1465 19.6441 11.4956 19.65 10.8401V10.1001H20.92V10.8401C20.9151 11.29 21.0035 11.7361 21.1799 12.1501ZM25.38 12.8101H22.71V11.5301H25.38V12.8101ZM26.12 16.8101H24.55V8.61011H26.12V16.8101Z" fill="#231F20"/>
<path d="M30.99 14.4701C30.7804 15.1918 30.4416 15.8694 29.99 16.4701C29.5466 17.0387 28.9694 17.4887 28.3099 17.7801L27.45 16.5501C28.0223 16.3036 28.5316 15.9309 28.9399 15.4601C29.3352 14.9957 29.6435 14.4639 29.85 13.8901C30.0471 13.3345 30.1486 12.7496 30.15 12.1601V11.5101H31.4V12.1601C31.3846 12.9468 31.2462 13.7262 30.99 14.4701ZM33.99 11.7101H27.8099V10.4501H33.99V11.7101ZM31.71 11.1101H30.13V8.87012H31.71V11.1101ZM31.98 13.7801C32.1789 14.3298 32.4772 14.8382 32.86 15.2801C33.2639 15.7411 33.7572 16.1153 34.3099 16.3801L33.4399 17.5701C32.8038 17.2817 32.2477 16.8423 31.8199 16.2901C31.3707 15.7175 31.0316 15.0665 30.8199 14.3701C30.5967 13.6512 30.4822 12.9029 30.48 12.1501V11.5001H31.71V12.1501C31.6869 12.7014 31.758 13.2526 31.92 13.7801H31.98ZM36.5 19.8501H34.92V8.61011H36.5V19.8501ZM38.16 14.3001H36.16V12.9801H38.16V14.3001Z" fill="#231F20"/>
<path d="M44.0599 12.6501H40.48V14.4201H38.91V11.4201H42.52V10.4901H38.89V9.24011H44.0599V12.6501ZM42.76 13.5601C43.5145 13.5185 44.2659 13.4317 45.01 13.3001L45.1799 14.5501C44.4205 14.6971 43.6522 14.794 42.88 14.8401C42.1 14.8401 41.09 14.9201 39.88 14.9201H38.9399V13.6301H39.88C40.99 13.6301 41.99 13.6001 42.76 13.5601ZM45.76 15.8301C46.2593 15.9645 46.7166 16.2224 47.09 16.5801C47.3896 16.8873 47.5551 17.301 47.55 17.7301C47.5544 17.9399 47.5157 18.1483 47.4366 18.3426C47.3575 18.5369 47.2396 18.713 47.09 18.8601C46.7251 19.2145 46.2733 19.4663 45.78 19.5901C44.4404 19.9233 43.0395 19.9233 41.7 19.5901C41.2034 19.4652 40.7461 19.2176 40.37 18.8701C40.2188 18.7217 40.0992 18.5441 40.0184 18.3482C39.9377 18.1523 39.8974 17.942 39.9 17.7301C39.8987 17.2998 40.0677 16.8863 40.37 16.5801C40.7434 16.2224 41.2007 15.9645 41.7 15.8301C42.3519 15.6549 43.0249 15.5708 43.7 15.5801C44.3818 15.5657 45.0622 15.6499 45.72 15.8301H45.76ZM42.48 16.9001C42.2017 16.9446 41.9379 17.0543 41.71 17.2201C41.63 17.2791 41.5649 17.3559 41.5198 17.4444C41.4746 17.5329 41.4507 17.6307 41.45 17.7301C41.4491 17.8297 41.4723 17.9281 41.5176 18.0169C41.5628 18.1057 41.6288 18.1823 41.71 18.2401C41.9379 18.4059 42.2017 18.5156 42.48 18.5601C42.8986 18.6392 43.3241 18.676 43.75 18.6701C44.166 18.6757 44.5815 18.6388 44.99 18.5601C45.2626 18.5125 45.5218 18.4068 45.75 18.2501C45.8219 18.1882 45.8796 18.1114 45.9192 18.0251C45.9587 17.9388 45.9791 17.845 45.9791 17.7501C45.9791 17.6552 45.9587 17.5614 45.9192 17.4751C45.8796 17.3888 45.8219 17.3121 45.75 17.2501C45.525 17.0858 45.2648 16.9762 44.99 16.9301C44.581 16.8558 44.1656 16.8222 43.75 16.8301C43.3121 16.8098 42.8732 16.8333 42.4399 16.9001H42.48ZM47.48 15.4001H45.9V8.63013H47.48V15.4001ZM49.01 11.4001H47.01V10.1001H49.01V11.4001ZM49.01 13.7701H47.01V12.4701H49.01V13.7701Z" fill="#231F20"/>
<path d="M59.6799 16.2299H49.41V14.9499H59.6799V16.2299ZM56.6799 9.34991C57.229 9.51674 57.7253 9.82345 58.12 10.2399C58.458 10.6118 58.6437 11.0973 58.64 11.5999C58.6431 12.0875 58.4566 12.5572 58.12 12.9099C57.7244 13.3231 57.2281 13.6263 56.6799 13.7899C55.29 14.2034 53.8099 14.2034 52.42 13.7899C51.8719 13.6263 51.3756 13.3231 50.98 12.9099C50.6496 12.554 50.4673 12.0855 50.47 11.5999C50.4637 11.0939 50.6496 10.6043 50.99 10.2299C51.3847 9.81344 51.8809 9.50673 52.4299 9.3399C53.8198 8.92641 55.3 8.92641 56.6899 9.3399L56.6799 9.34991ZM53.24 10.4499C52.923 10.5194 52.6298 10.6712 52.39 10.8899C52.2973 10.9833 52.224 11.0942 52.1742 11.216C52.1244 11.3378 52.0992 11.4683 52.1 11.5999C52.0974 11.7273 52.122 11.8538 52.172 11.9711C52.222 12.0883 52.2963 12.1935 52.39 12.2799C52.6343 12.488 52.9263 12.6323 53.24 12.6999C53.6686 12.8061 54.1085 12.8598 54.55 12.8599C54.9949 12.8598 55.438 12.806 55.87 12.6999C56.1837 12.6323 56.4757 12.488 56.72 12.2799C56.815 12.194 56.8909 12.0891 56.9426 11.9719C56.9943 11.8547 57.0207 11.728 57.02 11.5999C57.0195 11.4676 56.9927 11.3367 56.9412 11.2148C56.8897 11.093 56.8145 10.9825 56.72 10.8899C56.4776 10.6692 56.1807 10.5173 55.86 10.4499C55.4317 10.3432 54.9914 10.2928 54.55 10.2999C54.1009 10.2728 53.6501 10.3064 53.21 10.3999L53.24 10.4499ZM55.3199 19.9099H53.76V15.7599H55.3199V19.9099Z" fill="#231F20"/>
<path d="M63.88 12.7001C63.6726 13.3409 63.3317 13.9305 62.88 14.4301C62.4034 14.932 61.8137 15.3125 61.16 15.5401L60.3099 14.2901C60.8701 14.1122 61.3851 13.8155 61.8199 13.4201C62.2051 13.0506 62.5083 12.6043 62.71 12.1101C62.9039 11.606 63.0023 11.0702 63 10.5301V9.31012H64.27V10.5301C64.2638 11.2703 64.1319 12.004 63.88 12.7001ZM63.88 19.0801H62.29V16.0801H63.88V19.0801ZM70.01 19.6601H62.29V18.3901H70.01V19.6601ZM64.78 11.9901C64.9751 12.4516 65.2646 12.8672 65.63 13.2101C66.0486 13.5893 66.5427 13.8756 67.08 14.0501L66.22 15.2701C65.6006 15.0396 65.0404 14.6741 64.58 14.2001C64.138 13.7276 63.7976 13.1694 63.58 12.5601C63.3573 11.917 63.2458 11.2407 63.25 10.5601V9.32013H64.5V10.5601C64.5161 11.0526 64.6246 11.5377 64.8199 11.9901H64.78ZM68.78 12.2901H66.14V11.0201H68.78V12.2901ZM69.78 16.9301H68.21V8.63013H69.78V16.9301Z" fill="#231F20"/>
</g>
<defs>
<clipPath id="clip0_8088_2">
<rect width="76.33" height="29.12" fill="white"/>
</clipPath>
</defs>
</svg>
