<svg width="71" height="59" viewBox="0 0 71 59" fill="none" xmlns="http://www.w3.org/2000/svg">
<g clip-path="url(#clip0_8063_9614)">
<path d="M0.182648 0.0996094L5.83677 24.534L8.39369 23.7211L23.8341 58.7545L26.3453 57.6271L11.3159 22.4633L13.3325 21.5123" fill="white"/>
<path d="M0.182648 0.0996094L5.83677 24.534L8.39369 23.7211L23.8341 58.7545L26.3453 57.6271L11.3159 22.4633L13.3325 21.5123L0.182648 0.0996094Z" stroke="#231916" stroke-width="0.49"/>
<path d="M70.825 0.552246L56.4576 21.0216L58.7938 22.3714L43.087 57.3128L45.5983 58.4785L61.6703 23.7672L63.7326 24.6262" fill="white"/>
<path d="M70.825 0.552246L56.4576 21.0216L58.7938 22.3714L43.087 57.3128L45.5983 58.4785L61.6703 23.7672L63.7326 24.6262L70.825 0.552246Z" stroke="#231916" stroke-width="0.49"/>
</g>
<defs>
<clipPath id="clip0_8063_9614">
<rect width="71" height="59" fill="white"/>
</clipPath>
</defs>
</svg>
