<svg width="68" height="67" viewBox="0 0 68 67" fill="none" xmlns="http://www.w3.org/2000/svg">
<g clip-path="url(#clip0_8063_7443)">
<path d="M0.230042 61.0499C0.237943 62.5477 0.837124 63.9818 1.89716 65.0399C2.95719 66.0981 4.39217 66.6947 5.88995 66.7" stroke="#004A9C" stroke-width="0.45"/>
<path d="M5.89 66.7H61.69" stroke="#004A9C" stroke-width="0.45"/>
<path d="M61.69 66.7C63.1878 66.6947 64.6229 66.0981 65.6829 65.0399C66.7429 63.9818 67.3421 62.5477 67.35 61.0499" stroke="#004A9C" stroke-width="0.45"/>
<path d="M67.35 61.05V5.92004" stroke="#004A9C" stroke-width="0.45"/>
<path d="M67.35 5.91998C67.35 4.41608 66.7546 2.97339 65.694 1.90717C64.6334 0.840942 63.1939 0.23791 61.69 0.22998" stroke="#004A9C" stroke-width="0.45"/>
<path d="M61.69 0.22998H5.89" stroke="#004A9C" stroke-width="0.45"/>
<path d="M5.88995 0.22998C4.38608 0.23791 2.94653 0.840942 1.88593 1.90717C0.825323 2.97339 0.230021 4.41608 0.230042 5.91998" stroke="#004A9C" stroke-width="0.45"/>
<path d="M0.229996 5.92004V61.06" stroke="#004A9C" stroke-width="0.45"/>
<path d="M1.97003 59.37C1.97134 60.0699 2.11051 60.7628 2.37958 61.4089C2.64865 62.0551 3.04228 62.642 3.53815 63.136C4.03401 63.63 4.62242 64.0214 5.26959 64.2881C5.91676 64.5547 6.61005 64.6913 7.31 64.69H60.31C61.7219 64.69 63.0761 64.1299 64.0754 63.1325C65.0747 62.135 65.6373 60.7819 65.64 59.37V7.55C65.6373 6.13813 65.0747 4.78501 64.0754 3.78761C63.0761 2.7902 61.7219 2.22999 60.31 2.22999H7.31C6.61005 2.22868 5.91676 2.36526 5.26959 2.63191C4.62242 2.89855 4.03401 3.29006 3.53815 3.78407C3.04228 4.27807 2.64865 4.86489 2.37958 5.51106C2.11051 6.15722 1.97134 6.85005 1.97003 7.55" fill="#004A9C"/>
<path d="M28.48 43.37H38.17V47.98H45.63L33.92 57.91L21.62 48.3H28.37" fill="white"/>
<path d="M54.12 7.93005V59.0001H62.12V8.14005" fill="white"/>
<path d="M5.46001 7.93005V59.0001H13.46V8.14005" fill="white"/>
<path d="M23.2599 22.1799C22.5765 22.2633 21.8885 22.3034 21.2 22.2999H18.82V16.0099H23.4901V16.9299H19.91V21.3699H21.64C22.11 21.3699 22.64 21.3699 23.28 21.2599C23.6553 21.2355 24.0291 21.1921 24.4 21.1299V22.03L23.2599 22.1699M26.2599 14.9399V18.7499H27.7V19.7H26.2599V24.47H25.17V14.9399H26.2599Z" fill="white"/>
<path d="M33.14 19.4199C32.8855 19.6568 32.5865 19.8408 32.2603 19.9609C31.9341 20.0811 31.5874 20.1351 31.2401 20.1199C30.5392 20.1462 29.8563 19.8946 29.34 19.4199C29.1035 19.1991 28.915 18.9321 28.7861 18.6353C28.6572 18.3386 28.5906 18.0185 28.5906 17.6949C28.5906 17.3714 28.6572 17.0513 28.7861 16.7546C28.915 16.4578 29.1035 16.1908 29.34 15.97C29.8547 15.4916 30.5378 15.2364 31.2401 15.2599C31.588 15.2466 31.935 15.3026 32.2612 15.4244C32.5873 15.5463 32.886 15.7317 33.14 15.97C33.3764 16.1908 33.5651 16.4578 33.694 16.7546C33.823 17.0513 33.8895 17.3714 33.8895 17.6949C33.8895 18.0185 33.823 18.3386 33.694 18.6353C33.5651 18.9321 33.3764 19.1991 33.14 19.4199ZM32.3701 16.64C32.2246 16.4894 32.0483 16.3721 31.8532 16.2961C31.6581 16.2202 31.449 16.1874 31.2401 16.2C31.0312 16.188 30.8221 16.2211 30.6271 16.2971C30.4322 16.373 30.2559 16.4899 30.11 16.64C29.8505 16.9311 29.7111 17.31 29.72 17.7C29.7232 18.0698 29.862 18.4256 30.11 18.7C30.4182 18.9832 30.8215 19.1403 31.2401 19.1403C31.6586 19.1403 32.0619 18.9832 32.3701 18.7C32.6251 18.4292 32.7679 18.0719 32.77 17.7C32.7793 17.3081 32.6359 16.928 32.3701 16.64ZM30.09 24.2599V21.2599H31.19V23.3199H37.19V24.2299L30.09 24.2599ZM35.8801 14.95H36.96V21.85H35.8801V14.95Z" fill="white"/>
<path d="M38.12 20.22V19.32H47.68V20.22M41.49 17.93C40.8378 18.3454 40.1051 18.618 39.34 18.73L38.68 17.97C39.7982 17.8579 40.8503 17.388 41.68 16.63C42.0433 16.2577 42.2842 15.7831 42.37 15.27V14.9H43.53V15.32C43.6245 15.8496 43.8834 16.3359 44.27 16.71C45.0613 17.4551 46.078 17.916 47.16 18.02L46.5001 18.78C45.767 18.6763 45.0627 18.4244 44.43 18.04C44.4083 17.6762 44.2504 17.334 43.9877 17.0814C43.7251 16.8288 43.3769 16.6844 43.0126 16.6768C42.6483 16.6693 42.2945 16.7991 42.0217 17.0406C41.7488 17.2821 41.5768 17.6174 41.54 17.98M45.79 24.15C43.9686 24.8702 41.9414 24.8702 40.12 24.15C39.8412 24.0449 39.5985 23.8617 39.4212 23.6223C39.2438 23.3828 39.1393 23.0973 39.12 22.8C39.1362 22.4981 39.239 22.2073 39.4164 21.9625C39.5938 21.7177 39.8382 21.5293 40.12 21.42C41.944 20.7136 43.966 20.7136 45.79 21.42C46.0711 21.5304 46.3148 21.719 46.492 21.9636C46.6692 22.2082 46.7726 22.4984 46.79 22.8C46.7707 23.0973 46.6662 23.3828 46.4888 23.6223C46.3115 23.8617 46.0688 24.0449 45.79 24.15ZM41.09 22.02C40.62 22.2 40.4 22.46 40.4 22.78C40.4 23.1 40.62 23.35 41.09 23.55C41.6816 23.7818 42.3152 23.8874 42.95 23.86C43.5805 23.8836 44.2093 23.7816 44.8 23.56C45.26 23.36 45.5001 23.11 45.5001 22.8C45.5001 22.49 45.26 22.22 44.8 22.02C43.5935 21.6335 42.2965 21.6335 41.09 22.02Z" fill="white"/>
<path d="M29.0001 32.22C28.5074 32.042 28.0502 31.7779 27.65 31.4399C27.2506 31.1093 26.8945 30.7296 26.59 30.3099C26.3948 30.798 26.0697 31.2234 25.65 31.5399C25.1847 31.942 24.6667 32.2785 24.11 32.5399L23.29 31.7299C24.241 31.4564 25.057 30.84 25.58 29.9999C25.8116 29.5473 25.9573 29.0557 26.0099 28.5499V28.28H24.0099V27.3199H29.21V28.2299H27.21V28.4999C27.2777 29.1675 27.5491 29.7981 27.9874 30.3062C28.4256 30.8142 29.0096 31.1751 29.66 31.34M25.16 36.0499V33.0499H26.2401V35.1899H32.35V36.1L25.16 36.0499ZM31.04 33.6299V29.9H29.07V28.9H31.07V26.6899H32.07V33.59L31.04 33.6299Z" fill="white"/>
<path d="M33.12 32.2V31.32H35.67V30.1C35.2608 29.9698 34.8853 29.7513 34.57 29.46C34.3335 29.2233 34.1974 28.9045 34.19 28.57C34.2118 28.2782 34.318 27.999 34.4955 27.7665C34.6731 27.5339 34.9143 27.358 35.19 27.26C36.9681 26.5665 38.9419 26.5665 40.72 27.26C40.9853 27.3689 41.2142 27.5507 41.3805 27.7842C41.5469 28.0178 41.6437 28.2937 41.66 28.58C41.6574 28.9086 41.5285 29.2237 41.3 29.46C40.9846 29.7513 40.6091 29.9698 40.2 30.1V31.32H42.73V32.2299M40.73 35.9899C38.9092 36.6568 36.9109 36.6568 35.09 35.9899C34.8165 35.8916 34.5768 35.7168 34.3996 35.4864C34.2223 35.256 34.1149 34.9796 34.09 34.6899C34.1112 34.3992 34.2173 34.121 34.3951 33.89C34.5728 33.6589 34.8144 33.4851 35.09 33.39C36.9109 32.7231 38.9092 32.7231 40.73 33.39C41.0077 33.4816 41.2514 33.6544 41.4297 33.8862C41.608 34.118 41.7127 34.398 41.73 34.6899C41.7088 34.9807 41.6027 35.2589 41.425 35.4899C41.2472 35.721 41.0056 35.8948 40.73 35.9899ZM36.04 33.9899C35.57 34.1599 35.33 34.4 35.33 34.7C35.33 35 35.57 35.22 36.04 35.39C36.6426 35.5892 37.2756 35.6806 37.91 35.66C38.5369 35.6785 39.1624 35.5905 39.7599 35.4C40.2399 35.23 40.47 34.99 40.47 34.71C40.47 34.43 40.2399 34.1699 39.7599 33.9999C39.1642 33.8006 38.5378 33.7092 37.91 33.7299C37.2765 33.7117 36.6444 33.7996 36.04 33.9899ZM39.77 27.85C39.1781 27.619 38.5447 27.5134 37.91 27.5399C37.2735 27.5105 36.6376 27.6091 36.04 27.83C35.59 28.03 35.37 28.28 35.37 28.57C35.37 28.86 35.59 29.0899 36.06 29.2899C36.6503 29.5131 37.2794 29.6152 37.91 29.59C38.5388 29.6139 39.1664 29.5189 39.7599 29.3099C40.2399 29.1199 40.47 28.88 40.47 28.6C40.47 28.32 40.24 28.06 39.77 27.85ZM39.07 30.32C38.8881 30.3514 38.7044 30.3715 38.52 30.3799H37.92H37.33C37.1489 30.3722 36.9684 30.3522 36.79 30.32V31.32H39.07V30.32Z" fill="white"/>
</g>
<defs>
<clipPath id="clip0_8063_7443">
<rect width="67.57" height="66.92" fill="white"/>
</clipPath>
</defs>
</svg>
