<svg width="57" height="69" viewBox="0 0 57 69" fill="none" xmlns="http://www.w3.org/2000/svg">
<g clip-path="url(#clip0_8063_8964)">
<path d="M55.065 0.221069H0.221561V8.10552H55.065V0.221069Z" fill="white"/>
<path d="M55.065 0.221069H0.221561V8.10552H55.065V0.221069Z" stroke="#231916" stroke-width="0.6"/>
<path d="M9.28335 31.4051H13.3527V26.6082L0.923188 26.6597V31.4051H4.82997C4.88166 33.0041 0.332325 52.5679 0.332325 52.5679L4.6749 52.6784L7.51824 39.5033L10.4724 52.251H14.3349" fill="white"/>
<path d="M9.28335 31.4051H13.3527V26.6082L0.923188 26.6597V31.4051H4.82997C4.88166 33.0041 0.332325 52.5679 0.332325 52.5679L4.6749 52.6784L7.51824 39.5033L10.4724 52.251H14.3349L9.28335 31.4051Z" stroke="#231916" stroke-width="0.6"/>
<path d="M16.6244 26.2324V35.1927H14.0469V40.1002H16.6244V52.3616H21.0704V26.2324" fill="white"/>
<path d="M16.6244 26.2324V35.1927H14.0469V40.1002H16.6244V52.3616H21.0704V26.2324H16.6244Z" stroke="#231916" stroke-width="0.6"/>
<path d="M46.6457 31.1915H49.0533V26.3945H36.6239V31.1915H39.5189C39.5189 32.7905 37.0005 67.8727 37.0005 67.8727H41.1511L43.0786 37.3812L45.442 67.8727H49.5186" fill="white"/>
<path d="M46.6457 31.1915H49.0533V26.3945H36.6239V31.1915H39.5189C39.5189 32.7905 37.0005 67.8727 37.0005 67.8727H41.1511L43.0786 37.3812L45.442 67.8727H49.5186L46.6457 31.1915Z" stroke="#231916" stroke-width="0.6"/>
<path d="M56.7784 26.3945H52.3251V67.8726H56.7784V26.3945Z" fill="white"/>
<path d="M56.7784 26.3945H52.3251V67.8726H56.7784V26.3945Z" stroke="#231916" stroke-width="0.6"/>
<path d="M11.3217 55.7144H16.5727C18.9286 55.7144 21.2402 59.126 21.2402 62.3461C21.2402 65.5662 19.0246 68.7937 15.8267 68.7937H11.3217V64.4757H15.0144C16.8459 64.4757 16.8459 60.3639 15.2876 60.3639H11.3217M6.8905 55.7291H11.3217V60.3639H8.41932C5.70152 60.3639 5.31748 64.4757 8.05005 64.4757H11.3217V68.7937H6.32921C3.37508 68.7937 0.923187 65.8462 0.923187 62.5008C0.923187 59.1555 3.13879 55.7291 6.83145 55.7291" fill="white"/>
<path d="M6.86833 55.7144H16.5727C18.9286 55.7144 21.2329 59.126 21.2329 62.3461C21.2329 65.5662 19.0172 68.8011 15.8267 68.8011H6.3366C3.38247 68.8011 0.923187 65.8536 0.923187 62.5082C0.923187 59.1629 3.11658 55.7144 6.86833 55.7144ZM8.05005 64.4609H15.0144C16.8459 64.4609 16.8459 60.3493 15.2876 60.3493H8.41932C5.70152 60.3493 5.31748 64.4609 8.05005 64.4609Z" stroke="#231916" stroke-width="0.6"/>
</g>
<defs>
<clipPath id="clip0_8063_8964">
<rect width="57" height="69" fill="white"/>
</clipPath>
</defs>
</svg>
