<svg width="75" height="66" viewBox="0 0 75 66" fill="none" xmlns="http://www.w3.org/2000/svg">
<g clip-path="url(#clip0_8063_6652)">
<path d="M69.74 63.99C72.41 63.99 73.51 62.09 72.17 59.78L39.69 3.56999C38.35 1.25999 36.17 1.25999 34.83 3.56999L2.40999 59.75C1.06999 62.06 2.15998 63.96 4.83998 63.96L69.74 63.99Z" fill="#D20D18"/>
<path d="M73.55 58.98L41.1 2.75C40.7857 1.99875 40.2563 1.3572 39.5784 0.905975C38.9005 0.454749 38.1043 0.213989 37.29 0.213989C36.4757 0.213989 35.6795 0.454749 35.0016 0.905975C34.3237 1.3572 33.7943 1.99875 33.48 2.75L1.03 58.95C0.536249 59.5978 0.24509 60.3771 0.193112 61.19C0.141135 62.0029 0.330665 62.8129 0.737882 63.5183C1.1451 64.2237 1.75182 64.793 2.48172 65.1545C3.21162 65.516 4.03209 65.6536 4.83999 65.55H69.74C70.5479 65.6536 71.3684 65.516 72.0983 65.1545C72.8282 64.793 73.4349 64.2237 73.8421 63.5183C74.2493 62.8129 74.4389 62.0029 74.3869 61.19C74.3349 60.3771 74.0437 59.5978 73.55 58.95V58.98Z" stroke="#D20D18" stroke-width="0.49"/>
<path d="M10.97 57.35L37.28 11.77L63.6 57.35H10.97Z" fill="#F8B500"/>
<path d="M56.41 47.89V46.31H55.41C52.6307 44.2726 50.4118 41.5653 48.96 38.44V37.68H46.32V38.46C43.4946 39.4675 40.5196 39.9915 37.52 40.01C34.5234 39.9504 31.5545 39.4241 28.72 38.45V37.64H26.08V38.4C24.6282 41.5254 22.4093 44.2327 19.63 46.27H18.63V47.85H26.05L25.67 53.85H24.26V55.68H30.57V53.85H29.19L28.81 47.85H46.31L45.93 53.85H44.52V55.68H50.83V53.85H49.45L49.07 47.85L56.41 47.89ZM49.12 40.19C50.4402 42.484 52.1686 44.5175 54.22 46.19L54.1 46.32H48.96V40.32L49.12 40.19ZM46.32 39.49V46.31H41.16V40.44C42.8614 40.1868 44.5353 39.775 46.16 39.21L46.32 39.49ZM40.51 40.49V46.27H34.51V40.49C35.5048 40.6201 36.5068 40.6869 37.51 40.69C38.5132 40.6861 39.5152 40.6193 40.51 40.49ZM28.82 39.17C30.4451 39.7337 32.1189 40.1455 33.82 40.4V46.27H28.69V39.5L28.82 39.17ZM20.76 46.17C22.8114 44.4974 24.5398 42.464 25.86 40.17L26.06 40.25V46.25H20.88L20.76 46.17Z" fill="#010100"/>
</g>
<defs>
<clipPath id="clip0_8063_6652">
<rect width="74.57" height="65.82" fill="white"/>
</clipPath>
</defs>
</svg>
