<svg width="68" height="67" viewBox="0 0 68 67" fill="none" xmlns="http://www.w3.org/2000/svg">
<g clip-path="url(#clip0_8063_7222)">
<path d="M1.83002 58.09C1.84583 59.6708 2.48495 61.1816 3.60846 62.2939C4.73197 63.4061 6.24906 64.03 7.83002 64.03H59.37C60.1555 64.0392 60.9349 63.8924 61.6631 63.5979C62.3914 63.3034 63.0538 62.8672 63.6121 62.3146C64.1703 61.7619 64.6131 61.1039 64.9149 60.3786C65.2167 59.6534 65.3714 58.8755 65.37 58.09V8.08995C65.3714 7.30445 65.2167 6.52654 64.9149 5.80132C64.6131 5.0761 64.1703 4.41804 63.6121 3.8654C63.0538 3.31276 62.3914 2.87656 61.6631 2.58208C60.9349 2.2876 60.1555 2.14068 59.37 2.14995H7.85004C6.26908 2.14987 4.75196 2.77382 3.62845 3.88609C2.50494 4.99837 1.86585 6.50907 1.85004 8.08995" fill="#004A9C"/>
<path d="M0.23999 59.68C0.243912 60.5038 0.410377 61.3186 0.729858 62.0779C1.04934 62.8372 1.51557 63.5261 2.10178 64.1049C2.68798 64.6836 3.38264 65.141 4.14597 65.4507C4.90929 65.7605 5.72623 65.9166 6.54999 65.91" stroke="#004A9C" stroke-width="0.49"/>
<path d="M6.54999 65.91H60.63" stroke="#004A9C" stroke-width="0.49"/>
<path d="M60.63 65.91C61.4541 65.9179 62.2717 65.7627 63.0356 65.4534C63.7995 65.1441 64.4947 64.6868 65.0811 64.1078C65.6676 63.5288 66.1338 62.8394 66.4528 62.0795C66.7718 61.3196 66.9374 60.5041 66.94 59.68" stroke="#004A9C" stroke-width="0.49"/>
<path d="M66.94 59.68V6.46997" stroke="#004A9C" stroke-width="0.49"/>
<path d="M66.94 6.47999C66.9242 4.81781 66.2521 3.22925 65.0701 2.06043C63.8882 0.891617 62.2923 0.237285 60.63 0.239999" stroke="#004A9C" stroke-width="0.49"/>
<path d="M60.63 0.23999H6.54999" stroke="#004A9C" stroke-width="0.49"/>
<path d="M6.54999 0.239999C4.88774 0.237285 3.29179 0.891617 2.10986 2.06043C0.927935 3.22925 0.255819 4.81781 0.23999 6.47999" stroke="#004A9C" stroke-width="0.49"/>
<path d="M0.23999 6.47998V59.68" stroke="#004A9C" stroke-width="0.49"/>
<path d="M30.08 24.11H22.65V30.34H19.65V24.11H12.34V21.88H30.09M28.85 11.12V13.3H22.6C22.6298 13.9345 22.8317 14.5488 23.184 15.0773C23.5363 15.6058 24.0258 16.0285 24.6 16.3C26.2048 17.194 27.9734 17.7553 29.8 17.95L28.68 19.65C27.0415 19.4417 25.4356 19.0284 23.9 18.42C22.7985 17.9821 21.8252 17.2736 21.07 16.36C20.3003 17.258 19.3312 17.9635 18.24 18.42C16.7798 19.0158 15.2516 19.4289 13.69 19.65L12.57 17.95C14.3621 17.7379 16.0913 17.1592 17.65 16.25C18.2122 15.9843 18.6911 15.57 19.0348 15.0518C19.3785 14.5336 19.5739 13.9313 19.6 13.31H13.6V11.13L28.85 11.12Z" fill="white"/>
<path d="M41.94 12.41V10.59H44.94V12.41H49.15V14.59H44.95C44.7795 17.5581 45.2607 20.5276 46.36 23.29C47.0958 24.9691 48.3051 26.3974 49.84 27.4L48.36 28.93C47.2405 28.2639 46.2428 27.4117 45.41 26.41C44.4329 25.0497 43.733 23.5105 43.35 21.88C43.0008 23.3361 42.3611 24.7067 41.4692 25.9095C40.5774 27.1124 39.4518 28.1228 38.16 28.88L36.81 27.35C38.3464 26.3095 39.5675 24.8671 40.34 23.18C41.558 20.4698 42.1067 17.5066 41.94 14.54H37.87V12.36M53.87 10.66V18.6H55.93V20.83H53.87V30.29H50.8V10.71L53.87 10.66Z" fill="white"/>
<path d="M34.15 35.87H35.15C36.1842 35.8001 37.2202 35.9767 38.1729 36.3853C39.1256 36.7938 39.9677 37.4226 40.63 38.22C41.4989 39.4607 41.9506 40.9456 41.92 42.46C41.9737 43.894 41.5402 45.304 40.69 46.46C39.991 47.218 39.1295 47.8078 38.17 48.1854C37.2106 48.5629 36.1781 48.7184 35.15 48.64H34.15V45.93H34.97C35.8128 45.9387 36.6313 45.6481 37.28 45.11C37.6571 44.7705 37.9534 44.3509 38.1472 43.882C38.341 43.413 38.4274 42.9066 38.4 42.4C38.4395 41.8994 38.3755 41.396 38.212 40.9212C38.0486 40.4464 37.7892 40.0103 37.45 39.64C37.138 39.3146 36.7618 39.0577 36.3452 38.8855C35.9285 38.7133 35.4807 38.6298 35.03 38.64H34.15M26.37 56.4V35.87H34.15V38.63H29.84V45.92H34.15V48.63H29.84V56.39L26.37 56.4Z" fill="white"/>
</g>
<defs>
<clipPath id="clip0_8063_7222">
<rect width="67.19" height="66.15" fill="white"/>
</clipPath>
</defs>
</svg>
