<svg width="69" height="68" viewBox="0 0 69 68" fill="none" xmlns="http://www.w3.org/2000/svg">
<g clip-path="url(#clip0_8063_8039)">
<path d="M62.39 33.9799L50.39 26.76C49.14 25.9 48.49 25.68 47.45 26.76C46.41 27.84 48 29.58 48.6 30.18C49.14 31.18 48.1 31.18 47.12 31.18H20.63C19.71 31.18 18.63 31.18 19.22 30.18C19.82 29.58 21.4 27.79 20.36 26.76C19.32 25.73 18.62 25.9 17.42 26.76L5.41999 33.9799C4.54999 34.4699 4.92999 34.9799 5.41999 35.2299L17.67 42.28C19.2 43.1 21.32 42.72 20.45 40.28C20.1957 39.3172 19.6677 38.4489 18.93 37.78C18.93 37.78 18.71 37.29 19.47 37.29H19.8C20.45 37.35 27.15 37.3499 33.9 37.3499C40.65 37.3499 47.34 37.35 48 37.29H48.27C49.08 37.29 48.87 37.78 48.87 37.78C48.1273 38.4464 47.5955 39.3154 47.34 40.28C46.47 42.67 48.6 43.05 50.12 42.28L62.37 35.2299C62.86 34.9599 63.24 34.4699 62.37 33.9799" fill="#D20D18"/>
<path d="M5.4 67.6801C4.03897 67.6807 2.73067 67.1537 1.75 66.21C1.26298 65.7271 0.876903 65.1522 0.61423 64.5187C0.351557 63.8852 0.217543 63.2058 0.220004 62.52" stroke="#231916" stroke-width="0.45"/>
<path d="M0.230011 62.52V5.38" stroke="#231916" stroke-width="0.45"/>
<path d="M0.229985 5.38003C0.224622 4.70362 0.356567 4.03315 0.617833 3.40921C0.879099 2.78526 1.26427 2.22081 1.75 1.75003C2.22507 1.26375 2.7929 0.877705 3.41987 0.614894C4.04683 0.352083 4.72018 0.217821 5.4 0.219997" stroke="#231916" stroke-width="0.45"/>
<path d="M5.39999 0.22998H62.78" stroke="#231916" stroke-width="0.45"/>
<path d="M62.78 0.22998C63.457 0.230618 64.1272 0.365222 64.7519 0.626099C65.3767 0.886976 65.9436 1.26899 66.42 1.75C67.368 2.72059 67.8991 4.02326 67.9 5.38" stroke="#231916" stroke-width="0.45"/>
<path d="M67.9 5.38V62.52" stroke="#231916" stroke-width="0.45"/>
<path d="M67.93 62.52C67.9519 63.1993 67.8351 63.8759 67.5867 64.5085C67.3383 65.1412 66.9635 65.7167 66.4853 66.1996C66.007 66.6825 65.4354 67.0628 64.8052 67.3174C64.175 67.5719 63.4995 67.6954 62.82 67.6801" stroke="#231916" stroke-width="0.45"/>
<path d="M62.78 67.6801H5.39999" stroke="#231916" stroke-width="0.45"/>
<path d="M5.39999 65.78C4.96951 65.7832 4.54317 65.6958 4.14865 65.5236C3.75413 65.3513 3.40024 65.098 3.10999 64.78C2.8012 64.4847 2.55389 64.1312 2.38226 63.7399C2.21064 63.3486 2.1181 62.9272 2.10999 62.5" stroke="#231916" stroke-width="0.45"/>
<path d="M2.14001 62.52V5.38" stroke="#231916" stroke-width="0.45"/>
<path d="M2.13 5.38C2.15286 4.52089 2.50499 3.70345 3.11362 3.09668C3.72225 2.48991 4.54081 2.14021 5.39999 2.12" stroke="#231916" stroke-width="0.45"/>
<path d="M5.39999 2.12H62.78" stroke="#231916" stroke-width="0.45"/>
<path d="M62.78 2.12C63.6369 2.16262 64.4482 2.51849 65.06 3.12C65.3579 3.41979 65.5935 3.77566 65.7531 4.16699C65.9127 4.55833 65.9932 4.9774 65.99 5.40002" stroke="#231916" stroke-width="0.45"/>
<path d="M65.99 5.38V62.52" stroke="#231916" stroke-width="0.45"/>
<path d="M65.99 62.52C65.9932 62.9426 65.9127 63.3617 65.7531 63.7531C65.5935 64.1444 65.3579 64.5003 65.06 64.8C64.765 65.1093 64.4116 65.3568 64.0202 65.5284C63.6288 65.7001 63.2073 65.7925 62.78 65.8" stroke="#231916" stroke-width="0.45"/>
<path d="M62.78 65.78H5.39999" stroke="#231916" stroke-width="0.45"/>
<path d="M27.12 57.3099H26.25V59.38H24.61V57.3099H23.61V55.85H24.61V51.78L23.61 53.78V51.45L24.43 49.9301H26.28V55.85H27.15M23.61 57.3099H21.43V55.6899L23.61 51.45V53.78L22.61 55.85H23.61V57.3099Z" fill="#231916"/>
<path d="M31.15 49.77C31.5749 49.741 31.9993 49.8326 32.3744 50.0343C32.7495 50.236 33.0599 50.5396 33.27 50.91C34.2168 53.3169 34.2168 55.9931 33.27 58.4C33.0717 58.7839 32.7651 59.1013 32.3883 59.3128C32.0116 59.5243 31.581 59.6206 31.15 59.59V58.07C31.3692 58.0754 31.5829 58.0015 31.752 57.8618C31.921 57.7222 32.0339 57.5262 32.07 57.3099C32.4433 55.5596 32.4433 53.7503 32.07 52C32.0359 51.7828 31.9236 51.5856 31.7541 51.4456C31.5846 51.3056 31.3697 51.2325 31.15 51.24M28.97 50.91C29.1975 50.5418 29.52 50.2415 29.9036 50.0409C30.2872 49.8403 30.7177 49.7467 31.15 49.77V51.24C30.9291 51.2321 30.713 51.305 30.5418 51.4448C30.3707 51.5847 30.2563 51.782 30.22 52C29.86 53.7517 29.86 55.5582 30.22 57.3099C30.2583 57.527 30.3732 57.7232 30.5439 57.8627C30.7145 58.0022 30.9296 58.0757 31.15 58.07V59.62C30.7118 59.645 30.2753 59.5469 29.89 59.3366C29.5047 59.1262 29.186 58.8122 28.97 58.4301C28.1031 56.0087 28.1031 53.3614 28.97 50.9399" fill="#231916"/>
<path d="M38.06 49.7701C38.485 49.7398 38.9099 49.831 39.2852 50.0328C39.6605 50.2346 39.9708 50.5388 40.18 50.9101C41.1268 53.317 41.1268 55.9932 40.18 58.4001C39.9827 58.7848 39.6763 59.1029 39.2993 59.3145C38.9222 59.5262 38.4912 59.622 38.06 59.59V58.07C38.55 58.07 38.82 57.85 38.99 57.31C39.3499 55.5583 39.3499 53.7518 38.99 52.0001C38.82 51.4501 38.55 51.24 38.06 51.24M35.94 50.9101C36.1553 50.5443 36.4668 50.2446 36.8406 50.0436C37.2144 49.8426 37.6361 49.748 38.06 49.7701V51.24C37.8403 51.2325 37.6254 51.3056 37.4559 51.4456C37.2864 51.5856 37.174 51.7829 37.14 52.0001C36.8466 53.7579 36.8466 55.5521 37.14 57.31C37.176 57.5262 37.289 57.7222 37.458 57.8619C37.6271 58.0015 37.8408 58.0754 38.06 58.07V59.6201C37.6301 59.6431 37.2026 59.5435 36.8273 59.3328C36.4519 59.1221 36.1442 58.8091 35.94 58.4301C34.9931 56.0232 34.9931 53.3469 35.94 50.94" fill="#231916"/>
<path d="M51.23 59.38H49.6V55.14C49.6529 54.7587 49.5561 54.3715 49.33 54.06C49.22 53.84 49.01 53.78 48.73 53.78C48.573 53.7618 48.414 53.7876 48.2709 53.8548C48.1279 53.9219 48.0063 54.0277 47.92 54.16C47.7276 54.4574 47.63 54.8061 47.64 55.16V59.35H46.06V55.16C46.0661 54.8239 46.0325 54.4883 45.96 54.16C45.8637 54.0171 45.732 53.9014 45.5779 53.8244C45.4237 53.7473 45.2522 53.7113 45.08 53.72C44.9303 53.7043 44.7792 53.7318 44.6446 53.7991C44.5099 53.8664 44.3973 53.9708 44.32 54.1C44.1479 54.4034 44.0745 54.7529 44.11 55.1V59.34H42.47V52.34H44V53.34H44.05C44.155 53.041 44.3465 52.78 44.6 52.59C44.9287 52.3013 45.3526 52.1446 45.79 52.15C46.1418 52.1462 46.4879 52.2397 46.79 52.4201C47.0742 52.6552 47.3001 52.953 47.45 53.2901C47.6048 53.0537 47.786 52.8356 47.99 52.64C48.287 52.3645 48.675 52.2079 49.08 52.2C49.6493 52.1895 50.1996 52.4053 50.61 52.8001C51.012 53.2849 51.222 53.9006 51.2 54.53" fill="#231916"/>
<path d="M20.86 13.3H16.78V18.84H15.3V13.3H11.3V11.6801H17.93C18.0301 11.1242 18.1002 10.5634 18.14 10C18.1898 9.45817 18.2098 8.91402 18.2 8.37H12.2V6.68005H19.93C19.93 7.55005 19.87 8.42005 19.82 9.18005C19.7644 10.0191 19.6575 10.854 19.5 11.6801H20.91" fill="#231916"/>
<path d="M36.93 18.51V16.83H37.93V18.51M37 15.51V6.18005H37.39C37.4979 6.18773 37.6049 6.20438 37.71 6.22998L37.76 6.39001C37.76 6.45001 37.71 6.49999 37.71 6.60999C37.674 6.69531 37.6569 6.78745 37.66 6.88C37.6156 7.00159 37.5952 7.13065 37.6 7.26001V10.52H38.86V12.25H37.6V15.51H37ZM34.88 6.77002C34.9337 8.24435 34.5882 9.7058 33.88 11C33.0667 12.3484 31.8735 13.4267 30.45 14.1C30.34 13.83 30.17 13.56 30.01 13.23C29.878 12.9684 29.7312 12.7146 29.57 12.47C30.097 12.3492 30.596 12.1286 31.04 11.8199C31.4417 11.5311 31.8077 11.1954 32.13 10.8199C32.4276 10.4498 32.6825 10.0473 32.89 9.62C33.0369 9.25795 33.1116 8.87068 33.11 8.47998H29.93V6.80005L34.88 6.77002ZM37 6.18005V15.51H36.13V6.18005H36.93H37ZM37 16.8099H32.13V15.08C32.13 15.02 32.18 14.97 32.18 14.85C32.18 14.73 32.24 14.59 32.18 14.54C32.12 14.49 31.86 14.42 31.53 14.42H30.66V18.49H36.93L37 16.8099Z" fill="#231916"/>
<path d="M49.44 7.22998C49.49 7.27998 49.49 7.39005 49.44 7.55005V7.77002C49.3973 7.85344 49.3767 7.9464 49.38 8.04004V14.45H49.82C50.1844 14.4613 50.5491 14.4413 50.91 14.39C51.3676 14.3833 51.8233 14.3296 52.27 14.23L52.38 15.91C51.89 15.91 51.29 16.07 50.58 16.13C49.87 16.19 49.33 16.13 48.73 16.13H47.93V7.06995H48.93C49.117 7.05057 49.3055 7.08907 49.47 7.18005M56.38 6.18005C56.44 6.24005 56.44 6.35 56.38 6.5C56.3461 6.56832 56.3289 6.64371 56.33 6.71997V18.72H54.83V13.1801H54.12V18.1801H52.71V6.42004H53.71C53.8915 6.38314 54.0785 6.38314 54.26 6.42004C54.32 6.47004 54.32 6.57999 54.26 6.73999C54.2 6.89999 54.2 6.84996 54.15 6.95996V11.62H54.86V6.19995H55.79C55.988 6.17586 56.1889 6.19293 56.38 6.25" fill="#231916"/>
</g>
<defs>
<clipPath id="clip0_8063_8039">
<rect width="68.12" height="67.91" fill="white"/>
</clipPath>
</defs>
</svg>
