<svg width="32" height="71" viewBox="0 0 32 71" fill="none" xmlns="http://www.w3.org/2000/svg">
<g clip-path="url(#clip0_8063_8978)">
<path d="M24.7975 62.7069H21.2201V64.2805H24.7975V62.7069ZM18.7159 69.169V67.8407H22.3768V65.6028H19.9918V59.5535H21.1843V61.3486H24.7617V59.5535H25.9542V65.6028H23.5692V67.8407H27.3136V69.169H18.7159ZM8.47256 67.2603C7.23239 67.2603 6.6123 67.6732 6.6123 68.3373C6.6123 69.169 7.20854 69.4981 8.47256 69.4981C9.73658 69.4981 10.2613 69.169 10.2613 68.3373C10.2613 67.6732 9.66503 67.2603 8.47256 67.2603ZM8.47256 70.8504C7.65586 70.8847 6.8502 70.6516 6.17706 70.1862C5.91079 69.9724 5.69894 69.6981 5.55899 69.386C5.41905 69.074 5.35496 68.733 5.37209 68.3912C5.36017 68.0578 5.42691 67.7264 5.56678 67.4238C5.70665 67.1212 5.91576 66.8561 6.17706 66.65C6.85074 66.1863 7.65648 65.9553 8.47256 65.9918C9.26902 65.964 10.0532 66.1948 10.7084 66.65C10.9697 66.8561 11.1789 67.1212 11.3187 67.4238C11.4586 67.7264 11.5253 68.0578 11.5133 68.3912C11.5305 68.733 11.4665 69.074 11.3265 69.386C11.1866 69.6981 10.9747 69.9724 10.7084 70.1862C10.058 70.652 9.27085 70.8858 8.47256 70.8504ZM6.5527 60.2417C6.36825 60.2422 6.1867 60.2877 6.02364 60.3742C5.86058 60.4607 5.72086 60.5856 5.61656 60.7383C5.39897 61.1461 5.29204 61.6043 5.30651 62.0667C5.27209 62.5024 5.38101 62.9375 5.61656 63.3052C5.71889 63.4595 5.85765 63.586 6.02044 63.6735C6.18322 63.761 6.36504 63.8068 6.54971 63.8068C6.73438 63.8068 6.9162 63.761 7.07899 63.6735C7.24178 63.586 7.38046 63.4595 7.48279 63.3052C7.69145 62.9263 7.79831 62.4995 7.79284 62.0667C7.80731 61.6043 7.70038 61.1461 7.48279 60.7383C7.37943 60.5861 7.24079 60.4614 7.07877 60.3749C6.91674 60.2884 6.73622 60.2426 6.5527 60.2417ZM6.5527 65.1302C6.202 65.1443 5.85352 65.0681 5.54043 64.909C5.22734 64.7498 4.96005 64.5128 4.76399 64.2207C4.31018 63.5955 4.06968 62.84 4.0783 62.0667C4.0549 61.2653 4.29596 60.4785 4.76399 59.8288C4.97291 59.5499 5.24277 59.3229 5.55288 59.1653C5.86299 59.0076 6.20508 58.9235 6.5527 58.9193C6.89414 58.916 7.23114 58.9972 7.53381 59.1558C7.83647 59.3145 8.09539 59.5456 8.28769 59.8288C8.80022 60.4583 9.06534 61.2544 9.03299 62.0667C9.05148 62.8514 8.7868 63.6163 8.28769 64.2207C8.10361 64.5119 7.84634 64.7493 7.54174 64.909C7.23714 65.0686 6.89603 65.1449 6.5527 65.1302ZM11.3882 64.2207V65.7944H10.1479V58.5842H11.3882V59.9963H12.7595V61.3187H11.3882V62.8924H12.7595V64.2207H11.3882Z" fill="white"/>
<path d="M24.7975 62.7069H21.2201V64.2805H24.7975V62.7069ZM18.7159 69.169V67.8407H22.3768V65.6028H19.9918V59.5535H21.1843V61.3486H24.7617V59.5535H25.9542V65.6028H23.5692V67.8407H27.3136V69.169H18.7159ZM8.47256 67.2603C7.23239 67.2603 6.6123 67.6732 6.6123 68.3373C6.6123 69.169 7.20854 69.4981 8.47256 69.4981C9.73658 69.4981 10.2613 69.169 10.2613 68.3373C10.2732 67.6971 9.65311 67.2842 8.47256 67.2842V67.2603ZM8.47256 70.8504C7.65586 70.8847 6.8502 70.6516 6.17706 70.1862C5.91079 69.9724 5.69894 69.6981 5.55899 69.386C5.41905 69.074 5.35496 68.733 5.37209 68.3912C5.36017 68.0578 5.42691 67.7264 5.56678 67.4238C5.70665 67.1212 5.91576 66.8561 6.17706 66.65C6.85074 66.1863 7.65648 65.9553 8.47256 65.9918C9.26902 65.964 10.0532 66.1948 10.7084 66.65C10.9697 66.8561 11.1789 67.1212 11.3187 67.4238C11.4586 67.7264 11.5253 68.0578 11.5133 68.3912C11.5305 68.733 11.4665 69.074 11.3265 69.386C11.1866 69.6981 10.9747 69.9724 10.7084 70.1862C10.058 70.652 9.27085 70.8858 8.47256 70.8504ZM6.5527 60.2417C6.36825 60.2422 6.1867 60.2877 6.02364 60.3742C5.86058 60.4607 5.72086 60.5856 5.61656 60.7383C5.39897 61.1461 5.29204 61.6043 5.30651 62.0667C5.27209 62.5024 5.38101 62.9375 5.61656 63.3052C5.71889 63.4595 5.85765 63.586 6.02044 63.6735C6.18322 63.761 6.36504 63.8068 6.54971 63.8068C6.73438 63.8068 6.9162 63.761 7.07899 63.6735C7.24178 63.586 7.38046 63.4595 7.48279 63.3052C7.69145 62.9263 7.79831 62.4995 7.79284 62.0667C7.80731 61.6043 7.70038 61.1461 7.48279 60.7383C7.37943 60.5861 7.24079 60.4614 7.07877 60.3749C6.91674 60.2884 6.73622 60.2426 6.5527 60.2417ZM6.5527 65.1302C6.202 65.1443 5.85352 65.0681 5.54043 64.909C5.22734 64.7498 4.96005 64.5128 4.76399 64.2207C4.31018 63.5955 4.06968 62.84 4.0783 62.0667C4.0549 61.2653 4.29596 60.4785 4.76399 59.8288C4.97291 59.5499 5.24277 59.3229 5.55288 59.1653C5.86299 59.0076 6.20508 58.9235 6.5527 58.9193C6.89414 58.916 7.23114 58.9972 7.53381 59.1558C7.83647 59.3145 8.09539 59.5456 8.28769 59.8288C8.80022 60.4583 9.06534 61.2544 9.03299 62.0667C9.05148 62.8514 8.7868 63.6163 8.28769 64.2207C8.10361 64.5119 7.84634 64.7493 7.54174 64.909C7.23714 65.0686 6.89603 65.1449 6.5527 65.1302ZM11.3882 64.2207V65.7944H10.1479V58.5842H11.3882V59.9963H12.7595V61.3187H11.3882V62.8924H12.7595V64.2207H11.3882Z" stroke="#231916" stroke-width="0.5" stroke-linecap="round" stroke-linejoin="round"/>
<path d="M0.19677 0.149536L15.9434 58.1893L31.8092 0.149536H0.19677ZM15.8241 38.9883L7.28603 6.18093H24.5769L15.8241 38.9883Z" fill="white"/>
<path d="M0.19677 0.149536L15.9434 58.1893L31.8092 0.149536H0.19677ZM15.8241 38.9883L7.28603 6.18093H24.5769L15.8241 38.9883Z" stroke="#231916" stroke-width="0.5"/>
</g>
<defs>
<clipPath id="clip0_8063_8978">
<rect width="32" height="71" fill="white"/>
</clipPath>
</defs>
</svg>
