<svg width="76" height="67" viewBox="0 0 76 67" fill="none" xmlns="http://www.w3.org/2000/svg">
<g clip-path="url(#clip0_8063_6582)">
<path d="M1.13004 59.9L34.46 2.54C36.22 -0.579995 39.46 -0.579995 41.35 2.54L74.85 59.98C76.85 63.27 75.14 65.85 71.19 65.85H4.85001C0.600006 65.85 -0.879964 63.33 1.13004 59.85" fill="white"/>
<path d="M1.13004 59.9L34.46 2.54C36.22 -0.579995 39.46 -0.579995 41.35 2.54L74.85 59.98C76.85 63.27 75.14 65.85 71.19 65.85H4.85001C0.600006 65.89 -0.879964 63.37 1.13004 59.9Z" stroke="#D20D18" stroke-width="0.49"/>
<path d="M2.59997 60.6L35.6 3.70001C36.78 1.64001 38.91 1.70001 40.09 3.76001L73.2899 60.66C74.4599 62.72 73.2299 64.31 70.9299 64.31H5.19995C2.59995 64.31 1.47997 62.54 2.59997 60.6Z" fill="#D20D18"/>
<path d="M38.05 12.99L64.06 57.84H11.57" fill="#F8B500"/>
<path d="M38.05 12.99L64.06 57.84H11.57L38.05 12.99Z" stroke="#D20D18" stroke-width="0.55"/>
<path d="M31.68 31.15C31.09 31.74 30.27 32.21 31.33 34.15C32.39 36.09 31.7401 35.62 31.6201 35.91C31.5001 36.2 30.2701 37.33 30.1401 38.03C30.0188 38.9699 29.8009 39.8948 29.4901 40.79C29.0301 41.91 26.4301 42.79 25.9001 43.08C25.3701 43.37 25.2501 43.97 25.3601 44.15C25.4701 44.33 25.78 44.38 26.43 44.15C27.166 43.8581 27.9411 43.6762 28.7301 43.61C28.901 43.6382 29.0765 43.6142 29.2335 43.541C29.3905 43.4679 29.5217 43.349 29.6101 43.2C29.8601 42.91 30.32 42.14 30.67 42.09C31.02 42.04 30.85 42.32 30.8 42.56C30.4847 43.5839 29.9174 44.5123 29.1501 45.26C28.1501 46.02 29.0301 46.26 29.2601 46.43C29.4901 46.6 30.3201 47.02 30.1401 47.26C29.9065 47.8073 29.7289 48.3769 29.6101 48.96C29.4967 50.1531 29.4567 51.352 29.4901 52.55C29.5427 53.482 29.2975 54.4065 28.79 55.19C28.3472 55.5825 27.8723 55.9371 27.3701 56.25C27.2501 56.37 27.3701 56.66 27.6101 56.84C28.0125 57.0414 28.4511 57.1604 28.9001 57.19C29.3201 57.19 30.56 57.31 30.21 56.37C29.97 55.72 30.3201 55.54 30.5001 55.14C30.9095 54.167 31.2438 53.1641 31.5001 52.14C31.4268 51.5112 31.4675 50.8744 31.6201 50.26C31.8601 49.72 32.91 47.72 33.44 47.72C33.97 47.72 34.16 48.43 34.21 48.61C34.26 48.79 34.33 50.73 34.46 51.08C34.59 51.43 35.5201 53.14 35.6301 53.43C35.7401 53.72 35.69 54.49 35.81 54.84C35.93 55.19 36.2801 55.54 36.2201 55.84C36.1601 56.14 35.69 57.08 36.04 57.43C36.39 57.78 36.7601 57.31 37.1601 57.14C37.5601 56.97 38.4101 56.61 38.1601 55.72C37.9101 54.83 37.86 55.42 37.81 54.96C37.63 54.2 37.6301 53.26 37.4001 52.37C37.1701 51.48 36.68 50.08 36.57 49.79C36.5335 49.6381 36.5299 49.4801 36.5592 49.3267C36.5885 49.1732 36.6502 49.0278 36.7401 48.9C37.2701 48.2 36.9801 47.43 37.4001 47.08C37.8201 46.73 38.2201 46.84 37.7501 45.73C37.4501 44.79 35.8601 41.79 35.8601 41.21C35.8601 40.63 35.8 40.09 36.33 39.97C36.8633 40.0165 37.3728 40.2117 37.8006 40.5335C38.2284 40.8552 38.5575 41.2906 38.7501 41.79C38.8918 42.5725 38.8713 43.3757 38.69 44.15C38.7049 44.2887 38.7563 44.4209 38.8388 44.5333C38.9214 44.6458 39.0323 44.7343 39.1601 44.79C39.3901 44.91 40.2301 45.02 40.6301 45.43C40.8327 45.6205 41.0881 45.7454 41.3629 45.7882C41.6377 45.8311 41.919 45.7898 42.17 45.67C42.58 45.38 43.46 44.44 43.82 44.67C44.1319 45.1375 44.2601 45.7037 44.18 46.26C44.1213 47.2246 43.9191 48.1751 43.58 49.08C43.0579 50.3381 42.721 51.6652 42.58 53.02C42.6529 53.7483 42.592 54.4837 42.4001 55.19C42.1601 55.61 41.6301 55.78 41.8601 56.19C42.0906 56.4552 42.4106 56.6263 42.7592 56.6706C43.1078 56.7149 43.4606 56.6292 43.7501 56.43C44.5101 55.96 44.2801 55.31 44.2801 54.96C44.2595 54.4669 44.2998 53.9732 44.4001 53.49C44.4001 53.26 44.8701 52.02 44.8701 51.73C44.8701 51.44 45.17 50.31 45.7 50.31C46.23 50.31 46.23 51.2 46.17 51.55C46.0801 52.1595 46.2039 52.7813 46.5201 53.31C46.9292 53.9356 47.2111 54.6355 47.3501 55.37C47.4101 55.96 47.23 56.84 47.7 57.02C48.17 57.2 48.53 56.72 49.06 56.13C49.2271 55.8643 49.3107 55.5545 49.3 55.2408C49.2893 54.9271 49.1849 54.6237 49.0001 54.37C48.6761 53.6931 48.4182 52.9865 48.2301 52.26C48.039 51.1703 47.9419 50.0663 47.94 48.96C47.8691 48.1979 47.7114 47.4464 47.4701 46.72C47.3501 46.26 47.1101 44.96 47.3501 44.79C47.5901 44.62 48.1201 45.49 48.3501 45.9C48.7701 46.49 48.2401 47.43 48.8901 47.67C49.5401 47.91 49.8901 46.91 49.8901 46.43C49.7517 45.6212 49.5714 44.8201 49.3501 44.03C49.1709 43.2382 48.7601 42.5176 48.17 41.96C47.64 41.55 46.52 40.61 46.58 40.32C46.7801 39.7833 46.9372 39.2316 47.05 38.67C47.0768 38.2312 46.9422 37.7977 46.6713 37.4514C46.4005 37.105 46.0124 36.8698 45.58 36.79C45.389 36.7664 45.1951 36.7817 45.0101 36.8349C44.8251 36.888 44.6528 36.978 44.5034 37.0994C44.354 37.2208 44.2306 37.3711 44.1407 37.5413C44.0508 37.7116 43.9961 37.8982 43.9801 38.09C43.9649 38.6227 44.0051 39.1556 44.1001 39.68C44.2201 39.97 44.6401 40.14 44.2801 40.5C43.9201 40.86 43.6901 40.61 43.2801 41.32C42.8701 42.03 42.52 42.79 42.34 43.08C42.16 43.37 41.75 43.85 41.34 43.61C40.93 43.37 40.69 42.96 40.45 42.91C40.21 42.86 40.3401 42.09 40.2801 41.79C39.9546 40.8031 39.479 39.8721 38.8701 39.03C38.2201 38.44 37.5101 37.15 36.8701 36.79C36.2301 36.43 34.9201 36.15 34.7401 35.79C34.5601 35.43 34.5001 35.09 34.7401 34.79C35.2677 34.1082 35.6119 33.3026 35.7401 32.45C35.6956 31.8988 35.4674 31.3785 35.0921 30.9723C34.7168 30.5662 34.216 30.2978 33.67 30.21C33.2812 30.1529 32.8841 30.2115 32.5284 30.3787C32.1727 30.5459 31.8741 30.8141 31.67 31.15" fill="#231916"/>
</g>
<defs>
<clipPath id="clip0_8063_6582">
<rect width="75.91" height="66.14" fill="white"/>
</clipPath>
</defs>
</svg>
