<svg width="74" height="55" viewBox="0 0 74 55" fill="none" xmlns="http://www.w3.org/2000/svg">
<g clip-path="url(#clip0_8063_9506)">
<path d="M11.8627 1.42509V4.59345H8.37911V5.11651C8.39919 5.55225 8.49794 5.98088 8.6707 6.3823C8.90563 6.94114 9.20698 7.47045 9.56844 7.95899C9.96595 8.50384 10.4386 8.99117 10.9726 9.40678C11.518 9.85209 12.15 10.1822 12.8295 10.3769C12.5128 10.8286 12.2208 11.2968 11.9548 11.7793C11.665 12.3011 11.4088 12.8402 11.1875 13.3937C10.2177 12.8594 9.34403 12.1705 8.60162 11.3548C7.93395 10.6535 7.4125 9.82939 7.06698 8.92924C6.74003 9.86525 6.21713 10.7227 5.53235 11.4457C4.73218 12.3512 3.78581 13.1196 2.73163 13.7197C2.46892 13.2287 2.16611 12.7598 1.8262 12.3174C1.45789 11.8172 1.05891 11.3851 0.751984 10.9985C1.47907 10.824 2.1612 10.5012 2.75467 10.0511C3.3379 9.60142 3.85447 9.07322 4.2893 8.48196C4.71467 7.92085 5.06297 7.30666 5.32516 6.65526C5.56561 6.16516 5.69895 5.63051 5.7165 5.08616V4.61621H2.01035V1.44785M14.9166 16.1908C15.4505 16.5657 15.8843 17.063 16.181 17.6399C16.4777 18.2168 16.6284 18.8562 16.6201 19.5032C16.6321 20.1691 16.484 20.8282 16.1879 21.4265C15.8917 22.0248 15.456 22.5451 14.9166 22.9445C13.3854 24.0398 11.5167 24.5757 9.62984 24.4605C7.71592 24.5832 5.81803 24.0476 4.25863 22.9445C3.71922 22.5451 3.28352 22.0248 2.98738 21.4265C2.69124 20.8282 2.54309 20.1691 2.55516 19.5032C2.54687 18.8562 2.69754 18.2168 2.99422 17.6399C3.2909 17.063 3.72477 16.5657 4.25863 16.1908C5.83535 15.129 7.72541 14.6169 9.62984 14.7354C11.507 14.6252 13.3677 15.1374 14.9166 16.1908ZM6.4071 18.0327C6.10944 18.1628 5.8562 18.3751 5.67786 18.6441C5.49952 18.9131 5.40369 19.2272 5.40192 19.5487C5.40088 19.8876 5.49404 20.2201 5.6713 20.5102C5.84857 20.8003 6.10311 21.0366 6.4071 21.1935C7.40059 21.6995 8.51432 21.93 9.62984 21.8606C10.7231 21.9286 11.8143 21.6979 12.7835 21.1935C13.0866 21.0363 13.34 20.7996 13.516 20.5095C13.6919 20.2193 13.7836 19.8869 13.781 19.5487C13.7822 19.2295 13.6902 18.9167 13.516 18.6478C13.3418 18.3789 13.0928 18.1654 12.7988 18.0327C11.8214 17.5806 10.7458 17.3749 9.6682 17.4339C8.54806 17.3688 7.42874 17.5744 6.4071 18.0327ZM15.9372 0.25016C16.1166 0.263657 16.2914 0.312681 16.4512 0.394227C16.4927 0.426779 16.5261 0.468306 16.5487 0.515624C16.5713 0.562942 16.5826 0.614772 16.5817 0.667093C16.5697 0.821804 16.5388 0.974491 16.4897 1.12187C16.4283 1.34169 16.3822 1.51598 16.3592 1.64484C16.3219 1.86525 16.304 2.08842 16.3055 2.31188V6.57939H18.6611V9.8388H16.3055V15.1447H13.5585V0.234985H14.8399C15.3233 0.234985 15.6839 0.234985 15.9372 0.234985" fill="white"/>
<path d="M11.8627 1.42506V4.59342H8.37911V5.11649C8.39919 5.55223 8.49794 5.98085 8.6707 6.38228C8.90563 6.94111 9.20698 7.47043 9.56844 7.95896C9.96595 8.50381 10.4386 8.99114 10.9726 9.40675C11.518 9.85207 12.15 10.1822 12.8295 10.3769C12.5128 10.8286 12.2208 11.2967 11.9548 11.7793C11.665 12.301 11.4088 12.8402 11.1875 13.3937C10.2177 12.8593 9.34403 12.1704 8.60162 11.3548C7.93395 10.6535 7.4125 9.82936 7.06698 8.92922C6.74003 9.86522 6.21713 10.7226 5.53235 11.4457C4.73218 12.3512 3.78581 13.1195 2.73163 13.7197C2.46892 13.2287 2.16611 12.7598 1.8262 12.3174C1.45789 11.8171 1.05891 11.3851 0.751984 10.9985C1.47907 10.8239 2.1612 10.5012 2.75467 10.051C3.3379 9.6014 3.85447 9.0732 4.2893 8.48193C4.71467 7.92083 5.06297 7.30664 5.32516 6.65523C5.56561 6.16514 5.69895 5.63048 5.7165 5.08614V4.61618H2.01035V1.44782L11.8627 1.42506ZM14.932 16.168C15.4658 16.543 15.8997 17.0403 16.1964 17.6172C16.4931 18.1941 16.6437 18.8334 16.6354 19.4804C16.6475 20.1463 16.4994 20.8055 16.2032 21.4037C15.9071 22.002 15.4714 22.5223 14.932 22.9217C13.4008 24.017 11.532 24.5529 9.64516 24.4377C7.73124 24.5604 5.83334 24.0248 4.27394 22.9217C3.73454 22.5223 3.29884 22.002 3.0027 21.4037C2.70656 20.8055 2.55845 20.1463 2.57052 19.4804C2.56223 18.8334 2.71285 18.1941 3.00954 17.6172C3.30622 17.0403 3.74008 16.543 4.27394 16.168C5.85066 15.1063 7.74073 14.5942 9.64516 14.7127C11.5198 14.6042 13.3775 15.1163 14.9243 16.168H14.932ZM6.42242 18.01C6.12476 18.14 5.87152 18.3523 5.69318 18.6213C5.51484 18.8903 5.419 19.2044 5.41723 19.5259C5.41619 19.8648 5.5094 20.1973 5.68667 20.4874C5.86393 20.7775 6.11842 21.0138 6.42242 21.1707C7.4159 21.6767 8.52963 21.9072 9.64516 21.8378C10.7384 21.9059 11.8296 21.6751 12.7988 21.1707C13.1019 21.0135 13.3554 20.7768 13.5313 20.4867C13.7073 20.1965 13.799 19.8642 13.7964 19.5259C13.7975 19.2067 13.7055 18.8939 13.5313 18.625C13.3571 18.3561 13.1081 18.1426 12.8142 18.01C11.8368 17.5578 10.7611 17.3521 9.68351 17.4111C8.56082 17.3448 7.43875 17.5504 6.41478 18.01H6.42242ZM15.9525 0.227373C16.1319 0.24087 16.3067 0.289894 16.4666 0.371439C16.5081 0.403992 16.5414 0.445519 16.564 0.492837C16.5866 0.540155 16.5979 0.591985 16.597 0.644306C16.585 0.799016 16.5541 0.951704 16.505 1.09908C16.4436 1.3189 16.3976 1.49329 16.3745 1.62215C16.3373 1.84256 16.3193 2.06573 16.3208 2.28919V6.55669H18.6765V9.83877H16.3208V15.1447H13.5738V0.23496H14.8553C15.331 0.20464 15.6916 0.212213 15.9448 0.227373H15.9525Z" stroke="#231916" stroke-width="0.53"/>
<path d="M36.6087 4.01728C37.3902 6.16621 37.7445 8.44402 37.6522 10.7256C37.7513 13.0447 37.397 15.3609 36.6087 17.5475C35.8976 19.296 34.8745 20.1702 33.5394 20.1702C32.2043 20.1702 31.1812 19.296 30.4702 17.5475C29.7023 15.3563 29.3562 13.0425 29.4496 10.7256C29.3654 8.44633 29.7114 6.17141 30.4702 4.01728C31.2017 2.28906 32.2248 1.42501 33.5394 1.42501C34.8541 1.42501 35.8772 2.28906 36.6087 4.01728ZM32.4422 6.08668C32.1564 7.61612 32.0329 9.17085 32.0739 10.7256C32.0298 12.3131 32.1533 13.9008 32.4422 15.4631C32.703 16.5167 33.0714 17.0397 33.5548 17.0397C34.0382 17.0397 34.3835 16.5167 34.629 15.4631C34.9447 13.9041 35.0812 12.3148 35.0357 10.7256C35.0792 9.16904 34.9428 7.61267 34.629 6.08668C34.3835 5.05581 34.0228 4.5707 33.5548 4.5707C33.0867 4.5707 32.703 5.08613 32.4422 6.08668ZM45.9162 0.348621C46.0006 0.432 46.0006 0.636696 45.9162 0.955053C45.8702 1.13697 45.8318 1.28096 45.8088 1.39466C45.7974 1.57893 45.7974 1.7637 45.8088 1.94798V24.1496H43.1232V13.6287H41.765V23.2021H39.1178V0.629075H40.9364C41.2942 0.586692 41.657 0.639067 41.9876 0.780729C42.0643 0.848949 42.049 1.03084 41.9876 1.32646C41.935 1.46506 41.8914 1.6068 41.8571 1.75089C41.817 1.94037 41.7964 2.13339 41.7958 2.32697V10.5058H43.1539V0.212234H44.8343C45.2241 0.17104 45.6182 0.220312 45.9853 0.356209" fill="white"/>
<path d="M36.6087 4.01735C37.3902 6.16627 37.7445 8.44408 37.6522 10.7257C37.7513 13.0448 37.397 15.361 36.6087 17.5476C35.8976 19.296 34.8745 20.1702 33.5394 20.1702C32.2043 20.1702 31.1812 19.296 30.4702 17.5476C29.7023 15.3564 29.3562 13.0426 29.4496 10.7257C29.3654 8.44639 29.7114 6.17147 30.4702 4.01735C31.2017 2.28912 32.2248 1.42507 33.5394 1.42507C34.8541 1.42507 35.8772 2.28912 36.6087 4.01735ZM32.4422 6.08675C32.1564 7.61619 32.0329 9.17091 32.0739 10.7257C32.0298 12.3132 32.1533 13.9009 32.4422 15.4631C32.703 16.5167 33.0714 17.0397 33.5548 17.0397C34.0382 17.0397 34.3835 16.5167 34.629 15.4631C34.9447 13.9041 35.0812 12.3149 35.0357 10.7257C35.0792 9.16911 34.9428 7.61273 34.629 6.08675C34.3835 5.05588 34.0228 4.57076 33.5548 4.57076C33.0867 4.57076 32.703 5.05588 32.4422 6.08675ZM45.9162 0.348685C46.0006 0.432064 46.0006 0.636759 45.9162 0.955117C45.8702 1.13704 45.8318 1.28102 45.8088 1.39472C45.7974 1.57899 45.7974 1.76377 45.8088 1.94804V24.1497H43.1232V13.6287H41.765V23.2022H39.1178V0.629139H40.9364C41.2942 0.586756 41.657 0.63913 41.9876 0.780793C42.0643 0.849012 42.049 1.03091 41.9876 1.32653C41.935 1.46513 41.8914 1.60686 41.8571 1.75095C41.817 1.94043 41.7964 2.13345 41.7958 2.32704V10.5058H43.1539V0.212298H44.8343C45.2007 0.179108 45.57 0.225629 45.9162 0.348685Z" stroke="#231916" stroke-width="0.53"/>
<path d="M65.8818 2.72117C66.666 4.11183 67.0775 5.67729 67.0775 7.26913C67.0775 8.86098 66.666 10.4264 65.8818 11.8171C65.5063 12.4308 64.9722 12.9347 64.3343 13.277C63.6965 13.6194 62.9779 13.7879 62.2524 13.7652C61.507 13.7928 60.7673 13.6275 60.1065 13.2858C59.4457 12.9441 58.8867 12.4378 58.4849 11.8171C57.6907 10.4297 57.2734 8.86297 57.2734 7.26913C57.2734 5.6753 57.6907 4.10857 58.4849 2.72117C58.8917 2.10675 59.4523 1.60664 60.1124 1.26931C60.7725 0.931977 61.5097 0.768843 62.2524 0.79584C62.9752 0.773936 63.691 0.940331 64.3281 1.27828C64.9652 1.61624 65.5011 2.11388 65.8818 2.72117ZM61.7536 16.0392C61.8534 16.1453 61.8611 16.3499 61.7536 16.691C61.7076 16.873 61.6769 17.0169 61.6616 17.1155C61.6499 17.2795 61.6499 17.4441 61.6616 17.6082V20.3825H73.2711V23.4826H58.9222V15.9027H60.5336C60.9561 15.8594 61.383 15.9192 61.7766 16.077M60.5873 4.82842C60.1938 5.59196 60.0087 6.44367 60.0502 7.29948C60.0071 8.16271 60.1922 9.02208 60.5873 9.79322C60.744 10.1007 60.9858 10.358 61.2847 10.5351C61.5835 10.7122 61.927 10.8019 62.2754 10.7938C62.6083 10.7945 62.9344 10.7005 63.2147 10.5231C63.4949 10.3457 63.7176 10.0923 63.8561 9.79322C64.2321 9.01625 64.4086 8.15984 64.3702 7.29948C64.407 6.44657 64.2305 5.59783 63.8561 4.82842C63.7085 4.54042 63.4822 4.29895 63.2028 4.13149C62.9234 3.96403 62.6022 3.87727 62.2754 3.88093C61.9331 3.87047 61.5944 3.95334 61.2966 4.12048C60.9989 4.28762 60.7535 4.53257 60.5873 4.82842ZM73.1943 0.386587C73.2941 0.454806 73.2941 0.644312 73.1943 0.962669L73.1022 1.35684C73.0905 1.53352 73.0905 1.71072 73.1022 1.8874V17.8735H70.3629V0.24252H72.005C72.42 0.200852 72.8391 0.250072 73.2327 0.386587" fill="white"/>
<path d="M65.8818 2.72113C66.666 4.11179 67.0775 5.67725 67.0775 7.26909C67.0775 8.86094 66.666 10.4264 65.8818 11.8171C65.5063 12.4307 64.9722 12.9346 64.3343 13.277C63.6965 13.6193 62.9779 13.7878 62.2524 13.7651C61.507 13.7927 60.7673 13.6274 60.1065 13.2858C59.4457 12.9441 58.8867 12.4378 58.4849 11.8171C57.6907 10.4297 57.2734 8.86293 57.2734 7.26909C57.2734 5.67526 57.6907 4.10853 58.4849 2.72113C58.8917 2.10671 59.4523 1.6066 60.1124 1.26927C60.7725 0.931938 61.5097 0.768804 62.2524 0.795801C62.9752 0.773897 63.691 0.940292 64.3281 1.27825C64.9652 1.6162 65.5011 2.11384 65.8818 2.72113ZM61.7536 16.0391C61.8534 16.1452 61.8611 16.3499 61.7536 16.691C61.7076 16.8729 61.6769 17.0169 61.6616 17.1154C61.6499 17.2794 61.6499 17.4441 61.6616 17.6081V20.3824H73.2711V23.4826H58.9222V15.9027H60.5336C60.9455 15.851 61.3639 15.8978 61.7536 16.0391ZM60.5643 4.79044C60.1708 5.55398 59.9857 6.4057 60.0272 7.26151C59.9841 8.12473 60.1692 8.98419 60.5643 9.75534C60.721 10.0628 60.9628 10.32 61.2616 10.4971C61.5604 10.6742 61.904 10.7639 62.2524 10.7558C62.5853 10.7565 62.9113 10.6626 63.1916 10.4852C63.4719 10.3078 63.6946 10.0544 63.833 9.75534C64.209 8.97836 64.3856 8.12186 64.3472 7.26151C64.3841 6.4086 64.2074 5.55985 63.833 4.79044C63.6854 4.50244 63.4591 4.26107 63.1798 4.09361C62.9004 3.92615 62.5791 3.83929 62.2524 3.84295C61.91 3.83249 61.5714 3.91537 61.2736 4.08251C60.9759 4.24964 60.7304 4.49459 60.5643 4.79044ZM73.1713 0.348611C73.2711 0.416831 73.2711 0.606336 73.1713 0.924694L73.0792 1.31887C73.0675 1.49554 73.0675 1.67275 73.0792 1.84942V17.8356H70.3399V0.204637H71.9819C72.3842 0.168511 72.7898 0.217566 73.1713 0.348611Z" stroke="#231916" stroke-width="0.53"/>
<path d="M10.4355 44.3729C10.5353 44.4715 10.5353 44.6912 10.4355 45.0475C10.3741 45.2445 10.3357 45.4113 10.305 45.5402C10.2675 45.7478 10.2495 45.9585 10.2514 46.1694V48.7086H18.0012V51.8997H0.207172V48.7086H7.52735V44.1607H9.06199C9.53294 44.1147 10.0083 44.177 10.4508 44.3426M16.1981 32.442C16.2978 32.5102 16.3208 32.6922 16.2594 32.9878C16.2203 33.0851 16.1945 33.187 16.1827 33.291C16.1751 33.4071 16.1751 33.5236 16.1827 33.6397V44.6154H2.14851V32.2677H3.76753C4.16803 32.2238 4.57333 32.2758 4.94918 32.4194C5.04893 32.5027 5.05661 32.677 4.94918 32.9423C4.9347 33.0458 4.90899 33.1475 4.87247 33.2455C4.87247 33.3592 4.87247 33.4729 4.87247 33.5942V35.6863H13.382V32.2677H14.9166C15.3317 32.2234 15.7513 32.2833 16.1367 32.442M4.89546 41.6744H13.405V38.6425H4.89546V41.6744Z" fill="white"/>
<path d="M10.4355 44.373C10.5353 44.4715 10.5353 44.6912 10.4355 45.0475C10.3741 45.2446 10.3357 45.4113 10.305 45.5402C10.2675 45.7478 10.2495 45.9585 10.2514 46.1694V48.7087H18.0012V51.8998H0.207172V48.7087H7.52735V44.1607H9.06199C9.53023 44.1267 10.0001 44.1994 10.4355 44.373ZM16.1827 32.4724C16.2825 32.5406 16.3055 32.7225 16.2441 33.0181C16.205 33.1154 16.1791 33.2174 16.1673 33.3214C16.1597 33.4375 16.1597 33.5539 16.1673 33.67V44.6458H2.14851V32.2981H3.76753C4.16803 32.2542 4.57333 32.3061 4.94918 32.4496C5.04893 32.533 5.05661 32.7074 4.94918 32.9727C4.9347 33.0762 4.90899 33.1779 4.87247 33.2759C4.87247 33.3896 4.87247 33.5033 4.87247 33.6246V35.7166H13.382V32.2981H14.9166C15.3468 32.2458 15.7834 32.3059 16.1827 32.4724ZM4.89546 41.6745H13.405V38.6425H4.89546V41.6745Z" stroke="#231916" stroke-width="0.53"/>
<path d="M26.695 49.4059V46.8137H29.4189V49.4059H36.9923V52.4379H19.2059V49.4059M35.7953 38.036H20.3723V35.3376H35.7953V38.036ZM23.5183 46.1694C22.9659 45.8492 22.5107 45.3884 22.2002 44.835C21.8898 44.2817 21.7355 43.6561 21.7534 43.0237C21.7368 42.3879 21.8888 41.7588 22.1943 41.199C22.4999 40.6392 22.9483 40.1681 23.4952 39.8325C24.8849 39.0198 26.4862 38.6296 28.0991 38.7107C29.6795 38.6392 31.2461 39.0294 32.6033 39.8325C33.1567 40.164 33.6124 40.6332 33.9248 41.1932C34.2372 41.7532 34.3953 42.3844 34.3834 43.0237C34.4061 43.6525 34.2579 44.2759 33.9543 44.829C33.6507 45.3822 33.2028 45.845 32.657 46.1694C31.2789 46.9512 29.7013 47.3224 28.1145 47.2381C26.5081 47.3225 24.9107 46.9518 23.5106 46.1694M31.8129 34.0415H24.4007V31.3506H31.8129V34.0415ZM25.3828 41.7578C25.1237 41.8639 24.9015 42.0423 24.7435 42.2712C24.5854 42.5 24.4983 42.7695 24.4928 43.0465C24.506 43.3048 24.5981 43.5532 24.757 43.7588C24.9159 43.9645 25.134 44.1177 25.3828 44.1985C26.2302 44.5237 27.1375 44.6684 28.0454 44.6231C28.9684 44.6698 29.891 44.5252 30.754 44.1985C31.0015 44.1253 31.22 43.9781 31.3794 43.7773C31.5387 43.5764 31.6313 43.3316 31.6442 43.0767C31.6436 42.7947 31.5589 42.5192 31.4006 42.2846C31.2422 42.05 31.0173 41.8667 30.754 41.7578C29.9006 41.3941 28.9735 41.2306 28.0454 41.2803C27.1324 41.2324 26.2206 41.396 25.3828 41.7578Z" fill="white"/>
<path d="M26.695 49.4059V46.8137H29.4189V49.4059H36.9923V52.4379H19.2059V49.4059H26.695ZM35.7953 38.036H20.3723V35.3376H35.7953V38.036ZM23.5183 46.1694C22.9659 45.8492 22.5107 45.3884 22.2002 44.835C21.8898 44.2817 21.7355 43.6561 21.7534 43.0237C21.7368 42.3879 21.8888 41.7588 22.1943 41.199C22.4999 40.6392 22.9483 40.1681 23.4952 39.8325C24.8849 39.0198 26.4862 38.6296 28.0991 38.7107C29.6795 38.6392 31.2461 39.0294 32.6033 39.8325C33.1567 40.164 33.6124 40.6332 33.9248 41.1932C34.2372 41.7532 34.3953 42.3844 34.3834 43.0237C34.4061 43.6525 34.2579 44.2759 33.9543 44.829C33.6507 45.3822 33.2028 45.845 32.657 46.1694C31.2789 46.9512 29.7013 47.3224 28.1145 47.2381C26.5081 47.3225 24.9107 46.9518 23.5106 46.1694H23.5183ZM31.8206 34.0415H24.4083V31.3506H31.8206V34.0415ZM25.3905 41.7578C25.1314 41.8639 24.9092 42.0423 24.7511 42.2712C24.593 42.5 24.5059 42.7695 24.5004 43.0465C24.5136 43.3048 24.6058 43.5532 24.7647 43.7588C24.9235 43.9645 25.1417 44.1177 25.3905 44.1985C26.2379 44.5237 27.1452 44.6684 28.0531 44.6231C28.976 44.6698 29.8987 44.5252 30.7617 44.1985C31.0092 44.1253 31.2277 43.9781 31.387 43.7773C31.5464 43.5764 31.6389 43.3316 31.6518 43.0767C31.6513 42.7947 31.5666 42.5192 31.4083 42.2846C31.2499 42.05 31.025 41.8667 30.7617 41.7578C29.9083 41.3941 28.9812 41.2306 28.0531 41.2803C27.1356 41.2384 26.221 41.4098 25.3828 41.7806L25.3905 41.7578Z" stroke="#231916" stroke-width="0.53"/>
<path d="M55.968 44.3502H48.364V54.8029H45.64V44.3502H38.174V41.2273H55.968M54.0958 31.8206C54.0958 33.5488 54.0344 35.1709 53.927 36.6793C53.8196 38.1877 53.6047 39.9311 53.3362 41.5759H50.4204C50.6122 40.3935 50.7503 39.3019 50.8654 38.2332C50.9805 37.081 51.0342 35.9592 51.0342 34.9359H39.8774V31.8206H54.0958Z" fill="white"/>
<path d="M55.968 44.3502H48.364V54.8029H45.64V44.3502H38.174V41.2273H55.968V44.3502ZM54.0958 31.8206C54.0958 33.5488 54.0344 35.1709 53.927 36.6793C53.8196 38.1877 53.6047 39.9311 53.3362 41.5759H50.4204C50.6122 40.3935 50.7503 39.3019 50.8654 38.2332C50.9805 37.081 51.0342 35.9592 51.0342 34.9359H39.8774V31.8206H54.0958Z" stroke="#231916" stroke-width="0.53"/>
<path d="M66.534 33.3365C67.3221 34.6085 67.7391 36.0709 67.7391 37.5623C67.7391 39.0536 67.3221 40.5161 66.534 41.7881C66.086 42.351 65.5144 42.8059 64.8624 43.1188C64.2105 43.4316 63.4951 43.5942 62.7703 43.5942C62.0455 43.5942 61.3302 43.4316 60.6782 43.1188C60.0262 42.8059 59.4547 42.351 59.0066 41.7881C58.2184 40.5106 57.8014 39.0433 57.8014 37.5472C57.8014 36.051 58.2184 34.5837 59.0066 33.3061C59.4466 32.7315 60.0154 32.2654 60.6685 31.9445C61.3215 31.6236 62.0409 31.4566 62.7703 31.4566C63.4997 31.4566 64.2191 31.6236 64.8722 31.9445C65.5252 32.2654 66.094 32.7315 66.534 33.3061M73.5626 45.8737V54.8028H70.8156V48.9663H59.2445V45.8737H73.5626ZM61.0784 35.3754C60.7252 36.0502 60.5408 36.7988 60.5408 37.5585C60.5408 38.3181 60.7252 39.0667 61.0784 39.7415C61.2745 40.0047 61.5305 40.2188 61.8257 40.3663C62.121 40.5137 62.4471 40.5906 62.778 40.5906C63.1088 40.5906 63.435 40.5137 63.7303 40.3663C64.0255 40.2188 64.2815 40.0047 64.4776 39.7415C64.871 39.0767 65.0578 38.3123 65.0147 37.5434C65.0572 36.7842 64.8702 36.0295 64.4776 35.3754C64.2905 35.1004 64.0346 34.8779 63.7349 34.7291C63.4351 34.5804 63.1016 34.5106 62.7665 34.5265C62.4346 34.5101 62.1041 34.5798 61.8079 34.7288C61.5118 34.8777 61.2602 35.1006 61.0784 35.3754ZM73.7238 31.0322C73.8235 31.1155 73.8235 31.3278 73.7238 31.6614L73.6163 32.0782C73.5795 32.2604 73.5614 32.4457 73.5626 32.6315V44.4335H70.8156V41.7881H67.7464V38.7562H70.8156V36.6869H67.7464V33.6549H70.8156V30.8806H72.4653C72.893 30.8328 73.3259 30.8927 73.7238 31.0549" fill="white"/>
<path d="M66.534 33.3366C67.3221 34.6086 67.7391 36.071 67.7391 37.5624C67.7391 39.0537 67.3221 40.5162 66.534 41.7882C66.086 42.3511 65.5144 42.806 64.8624 43.1189C64.2105 43.4317 63.4951 43.5943 62.7703 43.5943C62.0455 43.5943 61.3302 43.4317 60.6782 43.1189C60.0262 42.806 59.4547 42.3511 59.0066 41.7882C58.2184 40.5107 57.8014 39.0434 57.8014 37.5473C57.8014 36.0511 58.2184 34.5838 59.0066 33.3062C59.4466 32.7316 60.0154 32.2655 60.6685 31.9446C61.3215 31.6237 62.0409 31.4567 62.7703 31.4567C63.4997 31.4567 64.2191 31.6237 64.8722 31.9446C65.5252 32.2655 66.094 32.7316 66.534 33.3062V33.3366ZM73.5626 45.9041V54.8333H70.8156V48.9968H59.2445V45.9041H73.5626ZM61.0784 35.4059C60.7252 36.0807 60.5408 36.8293 60.5408 37.5889C60.5408 38.3486 60.7252 39.0972 61.0784 39.7719C61.2745 40.0352 61.5305 40.2492 61.8257 40.3967C62.121 40.5442 62.4471 40.6211 62.778 40.6211C63.1088 40.6211 63.435 40.5442 63.7303 40.3967C64.0255 40.2492 64.2815 40.0352 64.4776 39.7719C64.871 39.1071 65.0578 38.3427 65.0147 37.5737C65.0572 36.8145 64.8702 36.0599 64.4776 35.4059C64.2905 35.1309 64.0346 34.9083 63.7349 34.7596C63.4351 34.6109 63.1016 34.541 62.7665 34.5569C62.4382 34.5364 62.11 34.6004 61.8141 34.7426C61.5183 34.8847 61.2648 35.1002 61.0784 35.3681V35.4059ZM73.7238 31.0626C73.8235 31.146 73.8235 31.3582 73.7238 31.6917L73.6163 32.1086C73.5795 32.2908 73.5614 32.4762 73.5626 32.662V44.464H70.8156V41.8185H67.7464V38.7865H70.8156V36.7172H67.7464V33.6852H70.8156V30.911H72.4653C72.891 30.856 73.3239 30.9081 73.7238 31.0626Z" stroke="#231916" stroke-width="0.53"/>
</g>
<defs>
<clipPath id="clip0_8063_9506">
<rect width="74" height="55" fill="white"/>
</clipPath>
</defs>
</svg>
