<svg width="76" height="57" viewBox="0 0 76 57" fill="none" xmlns="http://www.w3.org/2000/svg">
<g clip-path="url(#clip0_8063_8780)">
<path d="M0.181519 0.513916V57" stroke="#231916" stroke-width="0.43"/>
<path d="M75.8185 0.513916V57" stroke="#231916" stroke-width="0.43"/>
<path d="M11.4689 0.856567H8.66356V8.51694H11.4689V0.856567Z" fill="#F8B500"/>
<path d="M11.4689 0.856567H8.66356V8.51694H11.4689V0.856567Z" stroke="#231916" stroke-width="0.43"/>
<path d="M11.4689 17.5886H8.66356V25.249H11.4689V17.5886Z" fill="#F8B500"/>
<path d="M11.4689 17.5886H8.66356V25.249H11.4689V17.5886Z" stroke="#231916" stroke-width="0.43"/>
<path d="M11.4689 34.3126H8.66356V41.973H11.4689V34.3126Z" fill="#F8B500"/>
<path d="M11.4689 34.3126H8.66356V41.973H11.4689V34.3126Z" stroke="#231916" stroke-width="0.43"/>
<path d="M11.4689 48.8665H8.66356V56.5268H11.4689V48.8665Z" fill="#F8B500"/>
<path d="M11.4689 48.8665H8.66356V56.5268H11.4689V48.8665Z" stroke="#231916" stroke-width="0.43"/>
<path d="M67.1632 0.856567H64.3578V8.51694H67.1632V0.856567Z" fill="#F8B500"/>
<path d="M67.1632 0.856567H64.3578V8.51694H67.1632V0.856567Z" stroke="#231916" stroke-width="0.43"/>
<path d="M67.1632 17.5886H64.3578V25.249H67.1632V17.5886Z" fill="#F8B500"/>
<path d="M67.1632 17.5886H64.3578V25.249H67.1632V17.5886Z" stroke="#231916" stroke-width="0.43"/>
<path d="M67.1632 34.3126H64.3578V41.973H67.1632V34.3126Z" fill="#F8B500"/>
<path d="M67.1632 34.3126H64.3578V41.973H67.1632V34.3126Z" stroke="#231916" stroke-width="0.43"/>
<path d="M67.1632 48.8665H64.3578V56.5268H67.1632V48.8665Z" fill="#F8B500"/>
<path d="M67.1632 48.8665H64.3578V56.5268H67.1632V48.8665Z" stroke="#231916" stroke-width="0.43"/>
<path d="M24.5385 0.383423V5.98797" stroke="#231916" stroke-width="0.43"/>
<path d="M51.5853 0.383423V5.98797" stroke="#231916" stroke-width="0.43"/>
<path d="M24.5385 10.4423V16.0468" stroke="#231916" stroke-width="0.43"/>
<path d="M51.5853 10.4423V16.0468" stroke="#231916" stroke-width="0.43"/>
<path d="M24.5385 20.4929V26.1056" stroke="#231916" stroke-width="0.43"/>
<path d="M51.5853 20.4929V26.1056" stroke="#231916" stroke-width="0.43"/>
<path d="M24.5385 30.5518V36.1563" stroke="#231916" stroke-width="0.43"/>
<path d="M51.5853 30.5518V36.1563" stroke="#231916" stroke-width="0.43"/>
<path d="M24.5385 40.6106V46.2151" stroke="#231916" stroke-width="0.43"/>
<path d="M51.5853 40.6106V46.2151" stroke="#231916" stroke-width="0.43"/>
<path d="M24.5385 50.6694V56.2658" stroke="#231916" stroke-width="0.43"/>
<path d="M51.5853 50.6694V56.2658" stroke="#231916" stroke-width="0.43"/>
<path d="M40.3062 0V4.06269" stroke="#231916" stroke-width="0.43"/>
<path d="M40.3062 6.46118V10.5239" stroke="#231916" stroke-width="0.43"/>
<path d="M40.3062 12.9222V16.9849" stroke="#231916" stroke-width="0.43"/>
<path d="M40.3062 19.3834V23.4461" stroke="#231916" stroke-width="0.43"/>
<path d="M40.3062 25.8446V29.9073" stroke="#231916" stroke-width="0.43"/>
<path d="M40.3062 32.3057V36.3684" stroke="#231916" stroke-width="0.43"/>
<path d="M40.3062 38.7668V42.8377" stroke="#231916" stroke-width="0.43"/>
<path d="M40.3062 45.1873V49.2989" stroke="#231916" stroke-width="0.43"/>
<path d="M40.3062 51.6483V55.7599" stroke="#231916" stroke-width="0.43"/>
<path d="M37.6906 0V4.06269" stroke="#231916" stroke-width="0.43"/>
<path d="M37.6906 6.46118V10.5239" stroke="#231916" stroke-width="0.43"/>
<path d="M37.6906 12.9222V16.9849" stroke="#231916" stroke-width="0.43"/>
<path d="M37.6906 19.3834V23.4461" stroke="#231916" stroke-width="0.43"/>
<path d="M37.6906 25.8446V29.9073" stroke="#231916" stroke-width="0.43"/>
<path d="M37.6906 32.3057V36.3684" stroke="#231916" stroke-width="0.43"/>
<path d="M37.6906 38.7668V42.8377" stroke="#231916" stroke-width="0.43"/>
<path d="M37.6906 45.1873V49.2989" stroke="#231916" stroke-width="0.43"/>
<path d="M37.6906 51.6483V55.7599" stroke="#231916" stroke-width="0.43"/>
</g>
<defs>
<clipPath id="clip0_8063_8780">
<rect width="76" height="57" fill="white"/>
</clipPath>
</defs>
</svg>
