<svg width="48" height="73" viewBox="0 0 48 73" fill="none" xmlns="http://www.w3.org/2000/svg">
<g clip-path="url(#clip0_8063_9530)">
<path d="M31.4548 72.8119V32.4645H28.6706L33.7592 0.0289307L37.7429 32.6381H34.9659V50.2335C35.8601 49.1704 38.9932 46.415 40.1854 45.8943V36.9195L47.8183 50.9062L40.1781 63.1572V56.2723C40.1781 55.3827 36.1945 55.766 34.7769 61.2479V72.6456" fill="white"/>
<path d="M31.4548 72.8119V32.4645H28.6706L33.7592 0.0289307L37.7429 32.6381H34.9659V50.2335C35.8601 49.1704 38.9932 46.415 40.1854 45.8943V36.9195L47.8183 50.9062L40.1781 63.1572V56.2723C40.1781 55.3827 36.1945 55.766 34.7769 61.2479V72.6456L31.4548 72.8119Z" stroke="#231916" stroke-width="0.49"/>
<path d="M16.5815 72.8119V32.4645H19.3221L14.3062 0.0289307L10.279 32.6381H13.0632V50.2335C12.2054 49.1704 9.07951 46.415 7.88006 45.8943V36.9195L0.196274 50.9134L7.87278 63.1572V56.2723C7.87278 55.3827 11.8564 55.766 13.2303 61.2479V72.6456" fill="white"/>
<path d="M16.5815 72.8119V32.4645H19.3221L14.3062 0.0289307L10.279 32.6381H13.0632V50.2335C12.2054 49.1704 9.07951 46.415 7.88006 45.8943V36.9195L0.196274 50.9134L7.87278 63.1572V56.2723C7.87278 55.3827 11.8564 55.766 13.2303 61.2479V72.6456L16.5815 72.8119Z" stroke="#231916" stroke-width="0.49"/>
</g>
<defs>
<clipPath id="clip0_8063_9530">
<rect width="48" height="73" fill="white"/>
</clipPath>
</defs>
</svg>
