<svg width="69" height="69" viewBox="0 0 69 69" fill="none" xmlns="http://www.w3.org/2000/svg">
<g clip-path="url(#clip0_8068_5340)">
<path d="M34.52 68.7199C27.7224 68.7041 21.0821 66.6735 15.4382 62.8849C9.79435 59.0962 5.40027 53.7195 2.81128 47.4343C0.222283 41.149 -0.44544 34.2373 0.892574 27.5727C2.23059 20.9081 5.51425 14.7897 10.3285 9.99081C15.1428 5.19188 21.2717 1.92781 27.9405 0.611113C34.6094 -0.705586 41.519 -0.0158136 47.7959 2.59326C54.0728 5.20233 59.4355 9.6136 63.2061 15.2696C66.9766 20.9255 68.9859 27.5723 68.98 34.3699C68.9482 43.4894 65.304 52.2246 58.8452 58.6628C52.3864 65.101 43.6395 68.7173 34.52 68.7199ZM34.52 0.409887C27.8153 0.423734 21.2649 2.42369 15.6959 6.15728C10.1269 9.89087 5.78883 15.1907 3.22943 21.3877C0.670027 27.5848 0.00399804 34.4012 1.31543 40.9764C2.62685 47.5517 5.85698 53.591 10.598 58.3319C15.3389 63.0729 21.3782 66.303 27.9535 67.6144C34.5287 68.9259 41.3451 68.2598 47.5421 65.7004C53.7391 63.141 59.039 58.803 62.7726 53.234C66.5062 47.665 68.5062 41.1146 68.52 34.4099C68.5094 25.3995 64.9226 16.7617 58.5475 10.3941C52.1724 4.02652 43.5304 0.449882 34.52 0.449888V0.409887Z" fill="#CF1F25"/>
<path d="M34.52 1.62989C28.0469 1.64373 21.7231 3.57547 16.3473 7.18117C10.9714 10.7869 6.78463 15.9048 4.31571 21.8885C1.84679 27.8722 1.20649 34.4534 2.47562 40.8009C3.74475 47.1483 6.86644 52.9773 11.4464 57.5517C16.0263 62.126 21.8591 65.2406 28.2081 66.502C34.5571 67.7634 41.1374 67.115 47.1181 64.6388C53.0989 62.1626 58.2118 57.9696 61.8109 52.5893C65.41 47.2091 67.334 40.883 67.3399 34.4099C67.3373 30.1025 66.4863 25.8379 64.8355 21.8594C63.1848 17.8809 60.7666 14.2665 57.719 11.2226C54.6714 8.17873 51.0539 5.76491 47.0735 4.11898C43.093 2.47305 38.8274 1.62726 34.52 1.62989ZM34.52 59.9099C29.4719 59.898 24.5407 58.3899 20.3495 55.5761C16.1584 52.7623 12.8955 48.7691 10.9733 44.1013C9.05108 39.4336 8.55581 34.3007 9.55009 29.3515C10.5444 24.4023 12.9836 19.859 16.5594 16.2957C20.1352 12.7325 24.6871 10.3093 29.6397 9.3325C34.5924 8.35567 39.7235 8.86901 44.3845 10.8077C49.0455 12.7463 53.0271 16.0233 55.8261 20.2243C58.6252 24.4253 60.1159 29.3618 60.11 34.4099C60.0967 41.1844 57.3935 47.6764 52.5947 52.4583C47.7959 57.2402 41.2946 59.9205 34.52 59.9099Z" fill="#CF1F25"/>
<path d="M18.78 38.8201L26.78 22.6001H29.46V28.2101H27.86L22.74 38.5501V38.7501H34.14V42.8701H18.78V38.8201ZM28 41.6301L28.06 39.8401V22.6001H31.77V47.2201H28V41.6301Z" fill="#231F20"/>
<path d="M38.43 46.0801C37.1703 44.9114 36.2598 43.4158 35.8 41.7601C34.5866 37.2808 34.5866 32.5594 35.8 28.0801C36.2624 26.4226 37.1724 24.9245 38.43 23.7501C39.5717 22.7876 41.0168 22.2598 42.51 22.2598C44.0032 22.2598 45.4483 22.7876 46.59 23.7501C47.8521 24.9226 48.7657 26.4211 49.23 28.0801C49.8859 30.2959 50.1962 32.5997 50.15 34.9101C50.1968 37.2264 49.8899 39.5363 49.24 41.7601C48.7802 43.4158 47.8697 44.9114 46.61 46.0801C45.4617 47.0367 44.0145 47.5605 42.52 47.5605C41.0255 47.5605 39.5783 47.0367 38.43 46.0801ZM44.4301 42.4101C45.0744 41.5835 45.5069 40.612 45.69 39.5801C46.006 38.0443 46.147 36.4776 46.11 34.9101C46.135 33.3486 45.9875 31.7892 45.6701 30.2601C45.488 29.2254 45.0631 28.2486 44.4301 27.4101C44.2051 27.1157 43.9153 26.8771 43.5831 26.7129C43.251 26.5487 42.8855 26.4633 42.515 26.4633C42.1445 26.4633 41.779 26.5487 41.4469 26.7129C41.1147 26.8771 40.8249 27.1157 40.6 27.4101C39.9748 28.2543 39.5475 29.2283 39.35 30.2601C38.7634 33.3391 38.7634 36.5011 39.35 39.5801C39.5347 40.6097 39.9633 41.5801 40.6 42.4101C40.8261 42.7027 41.1163 42.9397 41.4483 43.1027C41.7802 43.2657 42.1452 43.3505 42.515 43.3505C42.8849 43.3505 43.2497 43.2657 43.5817 43.1027C43.9136 42.9397 44.204 42.7027 44.4301 42.4101Z" fill="#231F20"/>
</g>
<defs>
<clipPath id="clip0_8068_5340">
<rect width="68.98" height="68.77" fill="white"/>
</clipPath>
</defs>
</svg>
