<svg width="77" height="33" viewBox="0 0 77 33" fill="none" xmlns="http://www.w3.org/2000/svg">
<g clip-path="url(#clip0_8063_8110)">
<path d="M5.84 31.87C4.36225 31.857 2.94841 31.2656 1.90158 30.2225C0.854748 29.1794 0.258273 27.7677 0.240021 26.29" stroke="#231916" stroke-width="0.49"/>
<path d="M0.23999 26.29V5.82996" stroke="#231916" stroke-width="0.49"/>
<path d="M0.240021 5.82996C0.250546 4.34984 0.844538 2.93367 1.89304 1.88892C2.94153 0.844163 4.35985 0.25523 5.84 0.25" stroke="#231916" stroke-width="0.49"/>
<path d="M5.84 0.23999H71.01" stroke="#231916" stroke-width="0.49"/>
<path d="M71.03 0.250022C72.5278 0.245891 73.9662 0.835641 75.03 1.89004C76.0418 2.95333 76.6105 4.36221 76.62 5.82998" stroke="#231916" stroke-width="0.49"/>
<path d="M76.56 5.82996V26.29" stroke="#231916" stroke-width="0.49"/>
<path d="M76.56 26.29C76.5534 27.7573 75.9801 29.1653 74.96 30.22C74.4436 30.7428 73.8286 31.1579 73.1505 31.4412C72.4724 31.7244 71.7448 31.8702 71.01 31.87" stroke="#231916" stroke-width="0.49"/>
<path d="M71.01 31.87H5.84" stroke="#231916" stroke-width="0.49"/>
<path d="M5.84 29.76C5.38245 29.7667 4.92823 29.6816 4.50419 29.5096C4.08014 29.3376 3.69488 29.0822 3.37131 28.7587C3.04774 28.4351 2.79239 28.0499 2.6204 27.6259C2.4484 27.2018 2.36329 26.7476 2.37003 26.29" stroke="#231916" stroke-width="0.49"/>
<path d="M2.37 26.29V5.82996" stroke="#231916" stroke-width="0.49"/>
<path d="M2.37003 5.82996C2.36329 5.37241 2.4484 4.91819 2.6204 4.49415C2.79239 4.0701 3.04774 3.6849 3.37131 3.36133C3.69488 3.03776 4.08014 2.78248 4.50419 2.61048C4.92823 2.43848 5.38245 2.35325 5.84 2.35999" stroke="#231916" stroke-width="0.49"/>
<path d="M5.84 2.35999H71.01" stroke="#231916" stroke-width="0.49"/>
<path d="M71.03 2.35999C71.9518 2.37536 72.8353 2.73161 73.51 3.35999C74.1496 4.02339 74.5079 4.90841 74.51 5.82996" stroke="#231916" stroke-width="0.49"/>
<path d="M74.5 5.82996V26.29" stroke="#231916" stroke-width="0.49"/>
<path d="M74.49 26.29C74.488 27.2116 74.1297 28.0966 73.49 28.76C72.818 29.3925 71.9328 29.7494 71.01 29.76" stroke="#231916" stroke-width="0.49"/>
<path d="M71.01 29.76H5.84" stroke="#231916" stroke-width="0.49"/>
<path d="M63.97 12.6801H29.89C28.89 12.6801 27.71 12.68 28.35 11.62C28.94 11.03 30.71 9.03008 29.59 7.92008C28.47 6.81008 27.71 6.92008 26.35 7.92008L13.35 15.7901C12.35 16.3201 12.81 16.8501 13.35 17.1401L26.67 24.7901C28.32 25.6101 30.57 25.2 29.67 22.61C29.3744 21.563 28.7802 20.6249 27.96 19.9101C27.96 19.9101 27.67 19.3201 28.9 19.4401C30.13 19.5601 63.9 19.4401 63.9 19.4401" fill="#231916"/>
</g>
<defs>
<clipPath id="clip0_8063_8110">
<rect width="76.8" height="32.11" fill="white"/>
</clipPath>
</defs>
</svg>
