<svg width="69" height="65" viewBox="0 0 69 65" fill="none" xmlns="http://www.w3.org/2000/svg">
<g clip-path="url(#clip0_8072_133)">
<path d="M61.52 63.9201C63.2027 63.9097 64.8139 63.2379 66.0057 62.0499C67.1975 60.8618 67.8742 59.2528 67.89 57.5701" stroke="#0054A0" stroke-width="0.49"/>
<path d="M67.89 57.5599V6.65991" stroke="#0054A0" stroke-width="0.49"/>
<path d="M67.89 6.66003C67.8848 4.9685 67.2133 3.34711 66.0209 2.14728C64.8286 0.947441 63.2114 0.265776 61.52 0.25" stroke="#0054A0" stroke-width="0.49"/>
<path d="M61.52 0.23999H6.62" stroke="#0054A0" stroke-width="0.49"/>
<path d="M6.62 0.209961C5.78048 0.211268 4.94949 0.378267 4.17463 0.701355C3.39977 1.02444 2.69627 1.49729 2.1045 2.09277C1.51273 2.68826 1.04432 3.39464 0.726084 4.17151C0.407853 4.94838 0.246061 5.78042 0.25001 6.61993" stroke="#0054A0" stroke-width="0.49"/>
<path d="M0.23999 6.65991V57.5599" stroke="#0054A0" stroke-width="0.49"/>
<path d="M0.25 57.5701C0.255297 59.2551 0.929093 60.8692 2.12341 62.0579C3.31773 63.2466 4.93495 63.9128 6.62 63.9101" stroke="#0054A0" stroke-width="0.49"/>
<path d="M6.62 63.9099H61.52" stroke="#0054A0" stroke-width="0.49"/>
<path d="M59.93 62.2699C60.7238 62.2791 61.5116 62.1308 62.2476 61.8334C62.9837 61.536 63.6534 61.0955 64.218 60.5375C64.7825 59.9794 65.2308 59.3148 65.5367 58.5823C65.8426 57.8497 66.0001 57.0637 66.0001 56.2699V7.94987C66.0001 7.15601 65.8426 6.37005 65.5367 5.63749C65.2308 4.90494 64.7825 4.24037 64.218 3.68229C63.6534 3.12422 62.9837 2.68371 62.2476 2.38633C61.5116 2.08895 60.7238 1.94061 59.93 1.94987H8.21002C6.60969 1.94451 5.07219 2.57242 3.93311 3.69651C2.79403 4.82061 2.14584 6.34961 2.13 7.94987V56.2799C2.12993 57.0746 2.28772 57.8614 2.59424 58.5946C2.90076 59.3278 3.34987 59.9929 3.91553 60.5511C4.48118 61.1093 5.15213 61.5496 5.88934 61.8464C6.62656 62.1431 7.41538 62.2905 8.21002 62.2799" fill="white"/>
<path d="M59.93 62.2699C60.7238 62.2791 61.5116 62.1308 62.2476 61.8334C62.9837 61.536 63.6534 61.0955 64.218 60.5375C64.7825 59.9794 65.2308 59.3148 65.5367 58.5823C65.8426 57.8497 66.0001 57.0637 66.0001 56.2699V7.94987C66.0001 7.15601 65.8426 6.37005 65.5367 5.63749C65.2308 4.90494 64.7825 4.24037 64.218 3.68229C63.6534 3.12422 62.9837 2.68371 62.2476 2.38633C61.5116 2.08895 60.7238 1.94061 59.93 1.94987H8.21002C6.60969 1.94451 5.07219 2.57242 3.93311 3.69651C2.79403 4.82061 2.14584 6.34961 2.13 7.94987V56.2799C2.12993 57.0746 2.28772 57.8614 2.59424 58.5946C2.90076 59.3278 3.34987 59.9929 3.91553 60.5511C4.48118 61.1093 5.15213 61.5496 5.88934 61.8464C6.62656 62.1431 7.41538 62.2905 8.21002 62.2799L59.93 62.2699Z" stroke="#0054A0" stroke-width="0.45"/>
<path d="M66.0001 45.3999V7.94987C66.0001 7.15601 65.8426 6.37005 65.5367 5.63749C65.2308 4.90494 64.7825 4.24037 64.218 3.68229C63.6534 3.12422 62.9837 2.68371 62.2476 2.38633C61.5116 2.08895 60.7238 1.94061 59.93 1.94987H8.21002C6.60969 1.94451 5.07219 2.57242 3.93311 3.69651C2.79403 4.82061 2.14584 6.34961 2.13 7.94987V45.3999" fill="#0054A0"/>
<path d="M34.07 42.68C30.3156 42.6642 26.6501 41.5365 23.5361 39.4391C20.4221 37.3418 17.9993 34.3689 16.5734 30.8957C15.1476 27.4226 14.7828 23.6048 15.5249 19.9245C16.2671 16.2441 18.0829 12.8662 20.7432 10.217C23.4036 7.56775 26.7892 5.76612 30.4726 5.03946C34.1561 4.3128 37.9723 4.69368 41.4394 6.13407C44.9066 7.57445 47.8692 10.0098 49.9535 13.1325C52.0377 16.2553 53.15 19.9255 53.15 23.68C53.1288 28.7264 51.1093 33.559 47.5334 37.1199C43.9575 40.6808 39.1165 42.68 34.07 42.68ZM34.07 4.86997C30.3559 4.87787 26.7274 5.98636 23.6428 8.05539C20.5583 10.1244 18.1562 13.0612 16.7398 16.4947C15.3235 19.9283 14.9565 23.7045 15.6852 27.3465C16.4139 30.9885 18.2057 34.3328 20.8341 36.9571C23.4625 39.5813 26.8097 41.3677 30.4528 42.0906C34.096 42.8135 37.8717 42.4405 41.3029 41.0187C44.7342 39.5969 47.6672 37.1901 49.7313 34.1023C51.7954 31.0145 52.898 27.3842 52.9 23.67C52.8868 18.6828 50.8977 13.9041 47.3684 10.3804C43.8391 6.85672 39.0572 4.87524 34.07 4.86997Z" fill="#CF1F25"/>
<path d="M34.07 5.52002C30.4863 5.52595 26.9849 6.59382 24.0078 8.58869C21.0307 10.5836 18.7116 13.416 17.3434 16.7282C15.9752 20.0403 15.6192 23.6836 16.3205 27.198C17.0219 30.7124 18.749 33.9401 21.2837 36.4734C23.8184 39.0067 27.0471 40.732 30.5618 41.4314C34.0765 42.1308 37.7196 41.7729 41.031 40.4028C44.3425 39.0328 47.1737 36.7121 49.1669 33.7339C51.1601 30.7558 52.2261 27.2537 52.23 23.67C52.23 21.2857 51.7602 18.9247 50.8475 16.722C49.9347 14.5193 48.5969 12.518 46.9104 10.8325C45.224 9.14701 43.2219 7.81028 41.0187 6.89875C38.8155 5.98721 36.4543 5.51871 34.07 5.52002ZM34.07 37.78C31.2758 37.7741 28.546 36.9398 26.2259 35.3827C23.9057 33.8256 22.0994 31.6155 21.0351 29.0319C19.9708 26.4483 19.6964 23.6072 20.2466 20.8677C20.7968 18.1282 22.147 15.6133 24.1263 13.641C26.1056 11.6687 28.6252 10.3275 31.3666 9.78693C34.1081 9.24641 36.9483 9.53084 39.5281 10.6043C42.1079 11.6777 44.3115 13.4919 45.8604 15.8175C47.4093 18.1431 48.234 20.8758 48.23 23.67C48.2194 27.4177 46.7226 31.008 44.0679 33.6533C41.4133 36.2985 37.8176 37.7827 34.07 37.78Z" fill="#CF1F25"/>
<path d="M27.53 30.4401C26.9309 30.1074 26.4384 29.6115 26.11 29.0101C25.7619 28.3685 25.5798 27.6501 25.58 26.9201H27.78C27.7882 27.228 27.8778 27.5282 28.04 27.7901C28.1992 28.0409 28.4194 28.2473 28.68 28.3901C28.9586 28.5319 29.2674 28.604 29.58 28.6001C29.9091 28.6052 30.2336 28.5223 30.52 28.3601C30.7895 28.207 31.0111 27.982 31.16 27.7101C31.3196 27.4009 31.4029 27.058 31.4029 26.7101C31.4029 26.3622 31.3196 26.0193 31.16 25.7101C31.0016 25.4232 30.7615 25.19 30.47 25.0401C30.1418 24.8743 29.7777 24.7919 29.41 24.8001H28.41V22.7101H29.41C29.7314 22.7138 30.0482 22.6346 30.33 22.4801C30.5982 22.3319 30.8146 22.105 30.95 21.8301C31.1036 21.5415 31.1762 21.2166 31.16 20.8901C31.1761 20.5765 31.1143 20.2639 30.98 19.9801C30.8712 19.7209 30.6819 19.5035 30.44 19.3601C30.1936 19.2093 29.9088 19.1329 29.62 19.1401C29.3267 19.1373 29.0375 19.2096 28.78 19.3501C28.5217 19.4967 28.3049 19.7066 28.15 19.9601C27.9915 20.2376 27.9055 20.5505 27.9 20.8701H25.81C25.8131 20.1469 25.9952 19.4358 26.34 18.8001C26.6523 18.2146 27.1238 17.7292 27.7 17.4001C28.2812 17.0573 28.9453 16.8809 29.62 16.8901C30.2906 16.8771 30.9517 17.0502 31.53 17.3901C32.0827 17.7177 32.5304 18.1965 32.82 18.7701C33.1269 19.3733 33.2781 20.0436 33.2599 20.7201C33.2743 21.1842 33.1961 21.6465 33.03 22.0801C32.8754 22.4647 32.6322 22.8074 32.32 23.0801C32.0341 23.3346 31.6911 23.5164 31.32 23.6101V23.7201C31.7982 23.7822 32.2508 23.9722 32.6301 24.2701C32.9945 24.555 33.2773 24.931 33.45 25.3601C33.6383 25.8476 33.7267 26.3678 33.71 26.8901C33.7286 27.6101 33.5524 28.3219 33.2 28.9501C32.863 29.5553 32.3599 30.0515 31.7501 30.3801C31.1077 30.7343 30.3835 30.9136 29.65 30.9001C28.9149 30.9399 28.1826 30.781 27.53 30.4401Z" fill="white"/>
<path d="M36.12 30.13C35.4191 29.4818 34.9133 28.6505 34.66 27.73C33.9935 25.2507 33.9935 22.6394 34.66 20.16C34.9194 19.245 35.4244 18.4185 36.12 17.77C36.751 17.2338 37.552 16.9395 38.3801 16.9395C39.2081 16.9395 40.009 17.2338 40.6399 17.77C41.3345 18.4343 41.8299 19.2794 42.07 20.21C42.4347 21.436 42.6068 22.7112 42.58 23.9901C42.6054 25.2714 42.4368 26.5491 42.08 27.78C41.8244 28.6967 41.319 29.5242 40.62 30.17C39.9865 30.7006 39.1864 30.9913 38.36 30.9913C37.5336 30.9913 36.7336 30.7006 36.1 30.17L36.12 30.13ZM39.44 28.13C39.7914 27.6689 40.028 27.1307 40.1301 26.56C40.4498 24.8549 40.4498 23.1052 40.1301 21.4C40.028 20.8293 39.7914 20.2911 39.44 19.83C39.3158 19.6663 39.1555 19.5334 38.9717 19.4415C38.7879 19.3496 38.5855 19.3012 38.3801 19.3C38.1744 19.3004 37.9716 19.3485 37.7876 19.4404C37.6037 19.5324 37.4437 19.6657 37.32 19.83C36.9686 20.2911 36.7321 20.8293 36.6301 21.4C36.4467 22.2474 36.3628 23.1132 36.3801 23.98C36.365 24.8462 36.4455 25.7114 36.62 26.56C36.7294 27.1303 36.9689 27.6676 37.32 28.13C37.4477 28.2884 37.6092 28.4164 37.7925 28.5046C37.9759 28.5928 38.1766 28.6391 38.3801 28.64C38.5858 28.6348 38.7877 28.5835 38.9711 28.4901C39.1545 28.3967 39.3148 28.2634 39.44 28.1V28.13Z" fill="white"/>
</g>
<defs>
<clipPath id="clip0_8072_133">
<rect width="68.13" height="64.16" fill="white"/>
</clipPath>
</defs>
</svg>
