<svg width="19" height="72" viewBox="0 0 19 72" fill="none" xmlns="http://www.w3.org/2000/svg">
<g clip-path="url(#clip0_8063_8756)">
<path d="M0.301483 61.3586L4.35184 56.0706L0.517765 51.0841H2.15626L5.14488 54.9829L8.17937 51.0841H9.79821L5.98379 56.0706L9.99483 61.3127H8.35633L5.14488 57.1518L1.93343 61.3586H0.301483Z" fill="white"/>
<path d="M0.301483 61.3586L4.35184 56.0706L0.517765 51.0841H2.15626L5.14488 54.9829L8.17937 51.0841H9.79821L5.98379 56.0706L9.99483 61.3127H8.35633L5.14488 57.1518L1.93343 61.3586H0.301483Z" stroke="#231916" stroke-width="0.45"/>
<path d="M5.33495 0.0262451L8.9724 22.3772H6.12141V31.7277C6.7585 30.8525 7.57506 30.1234 8.51654 29.5889C9.45801 29.0544 10.5027 28.7269 11.5809 28.6284V20.4507L18.823 31.5902L11.6464 42.5854V34.5323C11.6464 34.5323 7.0914 35.8428 6.12141 39.6302V51.1234H4.22732V22.4231H1.21905L5.33495 0.0262451Z" fill="white"/>
<path d="M5.33495 0.0262451L8.9724 22.3772H6.12141V31.7277C6.7585 30.8525 7.57506 30.1234 8.51654 29.5889C9.45801 29.0544 10.5027 28.7269 11.5809 28.6284V20.4507L18.823 31.5902L11.6464 42.5854V34.5323C11.6464 34.5323 7.0914 35.8428 6.12141 39.6302V51.1234H4.22732V22.4231H1.21905L5.33495 0.0262451Z" stroke="#231916" stroke-width="0.45"/>
<path d="M6.12142 61.4044H4.37806V71.8493H6.12142V61.4044Z" fill="white"/>
<path d="M6.12142 61.4044H4.37806V71.8493H6.12142V61.4044Z" stroke="#231916" stroke-width="0.45"/>
</g>
<defs>
<clipPath id="clip0_8063_8756">
<rect width="19" height="72" fill="white"/>
</clipPath>
</defs>
</svg>
