<svg width="67" height="67" viewBox="0 0 67 67" fill="none" xmlns="http://www.w3.org/2000/svg">
<g clip-path="url(#clip0_8063_7421)">
<path d="M61.74 66.3799C62.3711 66.3852 62.9972 66.266 63.5822 66.029C64.1673 65.792 64.6998 65.442 65.1494 64.9989C65.599 64.5558 65.9568 64.0284 66.2022 63.4469C66.4477 62.8654 66.5761 62.2412 66.58 61.61" stroke="#004A9C" stroke-width="0.45"/>
<path d="M66.58 61.6001V5.06006" stroke="#004A9C" stroke-width="0.45"/>
<path d="M66.58 5.06C66.5774 3.77808 66.0663 2.54956 65.1589 1.64404C64.2515 0.738529 63.0219 0.229978 61.74 0.22998" stroke="#004A9C" stroke-width="0.45"/>
<path d="M61.74 0.22998H5.02" stroke="#004A9C" stroke-width="0.45"/>
<path d="M5.02003 0.22998C4.38753 0.23129 3.76147 0.357328 3.17775 0.600891C2.59402 0.844454 2.06403 1.20078 1.61818 1.64941C1.17232 2.09805 0.8194 2.63022 0.579479 3.21545C0.339557 3.80069 0.21735 4.4275 0.219982 5.06" stroke="#004A9C" stroke-width="0.45"/>
<path d="M0.230011 5.06006V61.6001" stroke="#004A9C" stroke-width="0.45"/>
<path d="M0.219951 61.6C0.218607 62.2293 0.342114 62.8526 0.583232 63.4339C0.824351 64.0152 1.17835 64.5429 1.62474 64.9865C2.07112 65.4301 2.60103 65.7808 3.18382 66.0182C3.76661 66.2557 4.39071 66.3753 5.02 66.37" stroke="#004A9C" stroke-width="0.45"/>
<path d="M5.02 66.37H61.74" stroke="#004A9C" stroke-width="0.45"/>
<path d="M60.06 64.42C60.6549 64.4173 61.2435 64.2976 61.7921 64.0675C62.3407 63.8374 62.8385 63.5015 63.2573 63.079C63.6761 62.6565 64.0077 62.1556 64.2329 61.605C64.4581 61.0544 64.5727 60.4649 64.57 59.87V6.73997C64.5714 6.14781 64.4555 5.56123 64.2292 5.01402C64.0029 4.4668 63.6706 3.96975 63.2514 3.55149C62.8322 3.13323 62.3344 2.80203 61.7867 2.57694C61.239 2.35186 60.6522 2.23733 60.06 2.23997H6.75998C5.55761 2.23198 4.40116 2.70126 3.5444 3.5449C2.68764 4.38854 2.2006 5.53762 2.19003 6.73997V59.87C2.19794 61.0777 2.68252 62.2335 3.53842 63.0856C4.39432 63.9378 5.5522 64.4173 6.75998 64.42" fill="#004A9C"/>
<path d="M12.2 8.57996H7.36V57.91H12.2V8.57996Z" fill="white"/>
<path d="M59.13 8.57996H54.29V57.91H59.13V8.57996Z" fill="white"/>
<path d="M28.16 42.71H37.84V47.32H45.3L33.55 57.2L21.24 47.65H28.05" fill="white"/>
<path d="M46.15 12.27C47.1565 12.3867 48.0832 12.8748 48.749 13.6385C49.4148 14.4023 49.7717 15.387 49.75 16.4V22.59C49.69 23.24 48.75 23.1299 48.75 23.1299H46.15V17.49H47.7299C48.1699 17.49 48.17 17.1 48.17 16.73C48.17 16.36 48.55 14.5 46.17 14.39M40.8399 12.11H44.9799C45.3812 12.121 45.7801 12.1747 46.17 12.27V14.39H45.9601C45.4701 14.39 44.16 14.2799 44.16 14.8799V17.1C44.16 17.1 44.2599 17.49 44.5899 17.49H46.15V23.16H44.7299C44.3565 22.5931 43.859 22.1184 43.2752 21.772C42.6914 21.4255 42.0365 21.2162 41.36 21.16C41.1785 21.1499 40.9966 21.1667 40.82 21.21V17.41H42.18C42.56 17.41 42.8399 16.76 42.8399 16.41V15.16C42.8399 14.78 42.29 14.35 41.91 14.35H40.82L40.8399 12.11ZM35.8399 12.11H40.8399V14.34H39.75C39.1 14.34 38.83 15.04 38.83 15.34V16.75C38.83 17.13 39.3099 17.4 39.5899 17.4H40.8399V21.2C40.2348 21.3623 39.6724 21.655 39.1922 22.0575C38.712 22.46 38.3257 22.9625 38.06 23.53H35.83V17.4H37.15C37.58 17.4 37.8 16.75 37.8 16.4V15.16C37.7583 14.942 37.6452 14.7441 37.4786 14.5975C37.312 14.4508 37.1015 14.3638 36.88 14.35H35.88L35.8399 12.11ZM30.7199 12.11H35.8399V14.34H34.8399C34.5816 14.3605 34.3391 14.4725 34.1559 14.6558C33.9726 14.839 33.8605 15.0816 33.8399 15.34V16.75C33.8399 17.13 34.39 17.4 34.61 17.4H35.86V23.53H30.74V17.4H32.0999C32.5299 17.4 32.76 16.75 32.76 16.4V15.16C32.7178 14.9404 32.6034 14.7414 32.4348 14.5945C32.2662 14.4477 32.0533 14.3616 31.83 14.35H30.74L30.7199 12.11ZM25.7199 12.11H30.7199V14.34H29.7199C29.0699 14.34 28.79 15.04 28.79 15.34V16.75C28.79 17.13 29.33 17.4 29.56 17.4H30.75V23.53H27.92C27.7392 23.0202 27.4586 22.5516 27.0946 22.1516C26.7306 21.7515 26.2905 21.428 25.8 21.2V17.4H27.05C27.49 17.4 27.7101 16.75 27.7101 16.4V15.16C27.6679 14.9404 27.5533 14.7414 27.3847 14.5945C27.2162 14.4477 27.0032 14.3616 26.78 14.35H25.78L25.7199 12.11ZM20.7199 12.11H25.7199V14.34H24.79C24.5248 14.34 24.2704 14.4453 24.0829 14.6329C23.8953 14.8204 23.79 15.0747 23.79 15.34V16.75C23.79 17.13 24.34 17.4 24.56 17.4H25.7V21.2C25.3283 21.0126 24.9161 20.9199 24.5 20.93C23.8188 20.942 23.1538 21.1403 22.5774 21.5034C22.0009 21.8666 21.5349 22.3807 21.2299 22.99H20.69V17.46H22.4799C22.7599 17.46 22.87 17.0699 22.87 17.0699V14.85C22.87 14.25 22.43 14.25 21.87 14.25H20.67L20.7199 12.11ZM16.8 22.11V16.85C16.8 15.54 17.41 12.0699 20.45 12.0699H20.7199V14.24H20.01C18.49 13.98 18.54 16.24 18.54 16.69C18.54 17.14 18.5399 17.45 18.9799 17.45H20.7199V22.98H18C17.18 22.98 16.8 22.71 16.8 22.11Z" fill="white"/>
<path d="M24.51 26.82C24.995 26.82 25.4691 26.6761 25.8722 26.4064C26.2753 26.1368 26.5893 25.7536 26.7744 25.3053C26.9595 24.8571 27.0076 24.3639 26.9122 23.8884C26.8169 23.4129 26.5825 22.9763 26.2389 22.6341C25.8952 22.2919 25.4577 22.0593 24.9818 21.9659C24.5059 21.8725 24.013 21.9225 23.5655 22.1095C23.118 22.2964 22.736 22.612 22.468 23.0162C22.2 23.4204 22.0581 23.895 22.06 24.38C22.0587 24.7017 22.1212 25.0204 22.244 25.3177C22.3668 25.615 22.5474 25.8849 22.7753 26.1119C23.0032 26.3389 23.2739 26.5184 23.5716 26.6399C23.8694 26.7615 24.1884 26.8227 24.51 26.82Z" fill="white"/>
<path d="M41.55 26.82C42.035 26.82 42.509 26.6761 42.9122 26.4064C43.3153 26.1368 43.6292 25.7536 43.8144 25.3053C43.9995 24.8571 44.0474 24.3639 43.9521 23.8884C43.8567 23.4129 43.6224 22.9763 43.2787 22.6341C42.9351 22.2919 42.4977 22.0593 42.0218 21.9659C41.5459 21.8725 41.0529 21.9225 40.6054 22.1095C40.1579 22.2964 39.776 22.612 39.508 23.0162C39.24 23.4204 39.0979 23.895 39.0999 24.38C39.0972 24.702 39.1589 25.0214 39.2812 25.3193C39.4035 25.6172 39.584 25.8877 39.8122 26.1149C40.0404 26.3422 40.3116 26.5216 40.61 26.6427C40.9084 26.7637 41.228 26.824 41.55 26.82Z" fill="white"/>
<path d="M46.15 12.27C47.1565 12.3867 48.0832 12.8748 48.749 13.6385C49.4148 14.4023 49.7717 15.387 49.75 16.4V22.59C49.69 23.24 48.75 23.1299 48.75 23.1299H46.15V17.49H47.7299C48.1699 17.49 48.17 17.1 48.17 16.73C48.17 16.36 48.55 14.5 46.17 14.39M40.8399 12.11H44.9799C45.3812 12.121 45.7801 12.1747 46.17 12.27V14.39H45.9601C45.4701 14.39 44.16 14.2799 44.16 14.8799V17.1C44.16 17.1 44.2599 17.49 44.5899 17.49H46.15V23.16H44.7299C44.3565 22.5931 43.859 22.1184 43.2752 21.772C42.6914 21.4255 42.0365 21.2162 41.36 21.16C41.1785 21.1499 40.9966 21.1667 40.82 21.21V17.41H42.18C42.56 17.41 42.8399 16.76 42.8399 16.41V15.16C42.8399 14.78 42.29 14.35 41.91 14.35H40.82L40.8399 12.11ZM35.8399 12.11H40.8399V14.34H39.75C39.1 14.34 38.83 15.04 38.83 15.34V16.75C38.83 17.13 39.3099 17.4 39.5899 17.4H40.8399V21.2C40.2348 21.3623 39.6724 21.655 39.1922 22.0575C38.712 22.46 38.3257 22.9625 38.06 23.53H35.83V17.4H37.15C37.58 17.4 37.8 16.75 37.8 16.4V15.16C37.7583 14.942 37.6452 14.7441 37.4786 14.5975C37.312 14.4508 37.1015 14.3638 36.88 14.35H35.88L35.8399 12.11ZM30.7199 12.11H35.8399V14.34H34.8399C34.5816 14.3605 34.3391 14.4725 34.1559 14.6558C33.9726 14.839 33.8605 15.0816 33.8399 15.34V16.75C33.8399 17.13 34.39 17.4 34.61 17.4H35.86V23.53H30.74V17.4H32.0999C32.5299 17.4 32.76 16.75 32.76 16.4V15.16C32.7178 14.9404 32.6034 14.7414 32.4348 14.5945C32.2662 14.4477 32.0533 14.3616 31.83 14.35H30.74L30.7199 12.11ZM25.7199 12.11H30.7199V14.34H29.7199C29.0699 14.34 28.79 15.04 28.79 15.34V16.75C28.79 17.13 29.33 17.4 29.56 17.4H30.75V23.53H27.92C27.7392 23.0202 27.4586 22.5516 27.0946 22.1516C26.7306 21.7515 26.2905 21.428 25.8 21.2V17.4H27.05C27.49 17.4 27.7101 16.75 27.7101 16.4V15.16C27.6679 14.9404 27.5533 14.7414 27.3847 14.5945C27.2162 14.4477 27.0032 14.3616 26.78 14.35H25.78L25.7199 12.11ZM20.7199 12.11H25.7199V14.34H24.79C24.5248 14.34 24.2704 14.4453 24.0829 14.6329C23.8953 14.8204 23.79 15.0747 23.79 15.34V16.75C23.79 17.13 24.34 17.4 24.56 17.4H25.7V21.2C25.3283 21.0126 24.9161 20.9199 24.5 20.93C23.8188 20.942 23.1538 21.1403 22.5774 21.5034C22.0009 21.8666 21.5349 22.3807 21.2299 22.99H20.69V17.46H22.4799C22.7599 17.46 22.87 17.0699 22.87 17.0699V14.85C22.87 14.25 22.43 14.25 21.87 14.25H20.67L20.7199 12.11ZM16.8 22.11V16.85C16.8 15.54 17.41 12.0699 20.45 12.0699H20.7199V14.24H20.01C18.49 13.98 18.54 16.24 18.54 16.69C18.54 17.14 18.5399 17.45 18.9799 17.45H20.7199V22.98H18C17.18 22.98 16.8 22.71 16.8 22.11Z" fill="white"/>
<path d="M24.51 26.82C24.995 26.82 25.4691 26.6761 25.8722 26.4064C26.2753 26.1368 26.5893 25.7536 26.7744 25.3053C26.9595 24.8571 27.0076 24.3639 26.9122 23.8884C26.8169 23.4129 26.5825 22.9763 26.2389 22.6341C25.8952 22.2919 25.4577 22.0593 24.9818 21.9659C24.5059 21.8725 24.013 21.9225 23.5655 22.1095C23.118 22.2964 22.736 22.612 22.468 23.0162C22.2 23.4204 22.0581 23.895 22.06 24.38C22.0587 24.7017 22.1212 25.0204 22.244 25.3177C22.3668 25.615 22.5474 25.8849 22.7753 26.1119C23.0032 26.3389 23.2739 26.5184 23.5716 26.6399C23.8694 26.7615 24.1884 26.8227 24.51 26.82Z" fill="white"/>
<path d="M41.55 26.82C42.035 26.82 42.509 26.6761 42.9122 26.4064C43.3153 26.1368 43.6292 25.7536 43.8144 25.3053C43.9995 24.8571 44.0474 24.3639 43.9521 23.8884C43.8567 23.4129 43.6224 22.9763 43.2787 22.6341C42.9351 22.2919 42.4977 22.0593 42.0218 21.9659C41.5459 21.8725 41.0529 21.9225 40.6054 22.1095C40.1579 22.2964 39.776 22.612 39.508 23.0162C39.24 23.4204 39.0979 23.895 39.0999 24.38C39.0972 24.702 39.1589 25.0214 39.2812 25.3193C39.4035 25.6172 39.584 25.8877 39.8122 26.1149C40.0404 26.3422 40.3116 26.5216 40.61 26.6427C40.9084 26.7637 41.228 26.824 41.55 26.82Z" fill="white"/>
<path d="M28.06 36.09C27.6606 35.9272 27.2918 35.6972 26.9699 35.41C26.6445 35.1121 26.3558 34.7764 26.11 34.41C25.9586 34.8291 25.6959 35.1991 25.3499 35.48C24.9801 35.8221 24.5624 36.1084 24.11 36.33L23.45 35.6299C24.2362 35.3847 24.8961 34.8432 25.29 34.12C25.4846 33.725 25.6066 33.2982 25.65 32.86V32.6299H24.01V31.84H28.2199V32.6299H26.5999V32.86C26.6409 33.2656 26.7599 33.6594 26.95 34.02C27.3108 34.6448 27.8922 35.1121 28.58 35.33M24.94 39.41V36.77H25.82V38.62H30.76V39.41H24.94ZM29.7 37.3199V34.16H28.15V33.3199H29.7101V31.36H30.58V37.36L29.7 37.3199Z" fill="white"/>
<path d="M34.4699 36.07V35.28H36.53V34.22C36.1906 34.1119 35.8844 33.9192 35.64 33.66C35.4401 33.4537 35.3289 33.1773 35.33 32.89C35.3431 32.6507 35.4206 32.4193 35.5544 32.2204C35.6882 32.0215 35.8732 31.8624 36.0899 31.76C36.7977 31.4632 37.5576 31.3104 38.325 31.3104C39.0925 31.3104 39.8523 31.4632 40.56 31.76C40.7802 31.8644 40.968 32.0264 41.1036 32.2289C41.2392 32.4313 41.3174 32.6667 41.33 32.91C41.3308 33.1894 41.2232 33.4583 41.03 33.66C40.7856 33.9192 40.4793 34.1119 40.14 34.22V35.28H42.14V36.07M40.56 39.33C39.0966 39.9164 37.4634 39.9164 36 39.33C35.7623 39.2515 35.5553 39.1001 35.4087 38.8972C35.262 38.6943 35.1831 38.4504 35.1831 38.2C35.1831 37.9497 35.262 37.7057 35.4087 37.5029C35.5553 37.3 35.7623 37.1485 36 37.07C37.4659 36.4967 39.0941 36.4967 40.56 37.07C40.793 37.1533 40.9945 37.3066 41.1371 37.5089C41.2796 37.7112 41.3562 37.9526 41.3562 38.2C41.3562 38.4475 41.2796 38.6889 41.1371 38.8912C40.9945 39.0935 40.793 39.2467 40.56 39.33ZM36.77 37.58C36.39 37.72 36.19 37.9301 36.19 38.1901C36.19 38.4501 36.39 38.65 36.77 38.8C37.2546 38.9699 37.7667 39.0479 38.28 39.03C38.7898 39.0446 39.298 38.9667 39.78 38.8C40.16 38.6467 40.3499 38.4467 40.3499 38.2C40.3499 37.95 40.16 37.74 39.78 37.59C39.2993 37.4183 38.7901 37.3403 38.28 37.36C37.7674 37.3394 37.2554 37.414 36.77 37.58ZM39.77 32.26C39.2968 32.0572 38.7845 31.9616 38.27 31.98C37.7539 31.9592 37.2393 32.0478 36.76 32.2401C36.39 32.4101 36.2101 32.63 36.2101 32.88C36.2101 33.13 36.39 33.3301 36.76 33.5001C37.2373 33.7 37.7529 33.7921 38.27 33.77C38.7817 33.7889 39.292 33.7038 39.77 33.52C40.15 33.35 40.3399 33.15 40.3399 32.91C40.3399 32.67 40.15 32.44 39.77 32.26ZM39.19 34.41H38.76H37.76H37.32V35.28H39.16L39.19 34.41Z" fill="white"/>
</g>
<defs>
<clipPath id="clip0_8063_7421">
<rect width="66.81" height="66.6" fill="white"/>
</clipPath>
</defs>
</svg>
