<svg width="77" height="33" viewBox="0 0 77 33" fill="none" xmlns="http://www.w3.org/2000/svg">
<g clip-path="url(#clip0_8063_8175)">
<path d="M5.83 31.87C5.08691 31.8757 4.35021 31.7327 3.66325 31.4493C2.97629 31.166 2.35296 30.7479 1.83 30.22C0.812662 29.1643 0.24291 27.7561 0.239975 26.29" stroke="#231916" stroke-width="0.49"/>
<path d="M0.240002 26.28V5.82996" stroke="#231916" stroke-width="0.49"/>
<path d="M0.249985 5.83C0.254476 4.36124 0.823816 2.95055 1.84001 1.89006C2.36346 1.36346 2.98706 0.946999 3.67406 0.665328C4.36106 0.383658 5.09755 0.242471 5.84001 0.250045" stroke="#231916" stroke-width="0.49"/>
<path d="M5.79 0.23999H70.95" stroke="#231916" stroke-width="0.49"/>
<path d="M70.95 0.249947C71.6919 0.246267 72.4272 0.389275 73.1137 0.670724C73.8002 0.952172 74.4242 1.36653 74.95 1.88996C75.4707 2.40582 75.8846 3.01939 76.1677 3.6955C76.4509 4.37161 76.5978 5.0969 76.6 5.8299" stroke="#231916" stroke-width="0.49"/>
<path d="M76.56 5.82996V26.28" stroke="#231916" stroke-width="0.49"/>
<path d="M76.56 26.29C76.5468 27.7711 75.9507 29.1872 74.9006 30.2317C73.8505 31.2762 72.4311 31.8648 70.95 31.87" stroke="#231916" stroke-width="0.49"/>
<path d="M70.95 31.87H5.79" stroke="#231916" stroke-width="0.49"/>
<path d="M5.83002 29.75C5.38185 29.753 4.93765 29.666 4.52369 29.4943C4.10972 29.3225 3.73444 29.0694 3.42005 28.75C3.07989 28.4373 2.80892 28.057 2.62464 27.6333C2.44035 27.2096 2.34683 26.7521 2.35004 26.29" stroke="#231916" stroke-width="0.49"/>
<path d="M2.31 26.28V5.82996" stroke="#231916" stroke-width="0.49"/>
<path d="M2.31 5.82996C2.30679 5.36794 2.40038 4.91037 2.58466 4.48669C2.76894 4.06301 3.03985 3.68265 3.38001 3.37C4.01962 2.73127 4.88612 2.37174 5.79004 2.37" stroke="#231916" stroke-width="0.49"/>
<path d="M5.79 2.35999H70.95" stroke="#231916" stroke-width="0.49"/>
<path d="M70.95 2.35998C71.4092 2.35053 71.8657 2.4337 72.292 2.60448C72.7184 2.77527 73.106 3.03015 73.4317 3.354C73.7575 3.67784 74.0146 4.06398 74.1878 4.48937C74.361 4.91477 74.4468 5.37069 74.44 5.82995" stroke="#231916" stroke-width="0.49"/>
<path d="M74.44 5.82996V26.28" stroke="#231916" stroke-width="0.49"/>
<path d="M74.44 26.29C74.4417 27.2094 74.0826 28.0926 73.44 28.75C72.7758 29.3947 71.8856 29.7537 70.96 29.75" stroke="#231916" stroke-width="0.49"/>
<path d="M70.95 29.75H5.79" stroke="#231916" stroke-width="0.49"/>
<path d="M21.3601 14.53H21.71C22.0985 14.5569 22.4867 14.4738 22.83 14.29C23.31 14.06 23.4801 13.65 23.4801 12.94C23.4976 12.5918 23.4179 12.2456 23.25 11.94C23.124 11.7798 22.9605 11.653 22.7739 11.571C22.5872 11.489 22.3832 11.4543 22.18 11.4699C21.9039 11.4492 21.6279 11.5115 21.3873 11.6486C21.1468 11.7858 20.9528 11.9917 20.83 12.24C20.6971 12.5979 20.636 12.9784 20.65 13.3599H18.71C18.6544 12.4149 18.9702 11.4855 19.59 10.77C19.9339 10.402 20.3557 10.1158 20.8247 9.93234C21.2937 9.7489 21.7978 9.67291 22.3 9.70992C23.0865 9.69035 23.856 9.94102 24.4801 10.42C24.8643 10.6998 25.1694 11.0744 25.3657 11.5073C25.562 11.9402 25.6427 12.4166 25.6 12.89C25.6227 13.3892 25.4784 13.8818 25.19 14.29C24.9766 14.6039 24.6966 14.8668 24.37 15.06V15.12C24.7275 15.2354 25.0506 15.4382 25.31 15.7099C25.7582 16.32 25.9872 17.0634 25.96 17.8199C25.9748 18.2965 25.8939 18.7713 25.7221 19.2161C25.5504 19.661 25.2912 20.067 24.96 20.41C24.2361 21.0748 23.2826 21.4332 22.3 21.41C21.4997 21.4426 20.7053 21.2595 20 20.88C19.4931 20.5292 19.0887 20.0496 18.8286 19.4907C18.5685 18.9318 18.462 18.3137 18.52 17.6999H20.59C20.564 18.1108 20.6467 18.5213 20.83 18.89C20.9553 19.1355 21.1502 19.3385 21.3903 19.4737C21.6305 19.6089 21.9052 19.6702 22.18 19.65C22.3964 19.6637 22.6134 19.6335 22.8179 19.5614C23.0224 19.4892 23.2102 19.3765 23.37 19.2299C23.6805 18.8289 23.8271 18.3249 23.78 17.8199C23.8041 17.512 23.7385 17.2037 23.5913 16.9322C23.444 16.6607 23.2213 16.4377 22.95 16.29C22.4317 16.1532 21.8956 16.0959 21.3601 16.12" fill="#231916"/>
<path d="M32.27 18.9301H29.97V21.2201H32.27V18.9301Z" fill="#231916"/>
<path d="M38.52 14.35V14.29C38.7459 14.1527 38.9835 14.0356 39.23 13.9401C39.6173 13.7713 40.0379 13.6925 40.46 13.71C41.2484 13.7025 42.0101 13.9958 42.59 14.53C42.968 14.8923 43.2636 15.3315 43.4569 15.8181C43.6501 16.3047 43.7365 16.8271 43.71 17.35C43.7626 18.3139 43.4915 19.2678 42.94 20.0601C42.5691 20.5411 42.0841 20.922 41.5288 21.1682C40.9735 21.4144 40.3655 21.5181 39.76 21.47C38.8909 21.4949 38.0387 21.2273 37.34 20.71C36.98 20.3933 36.6933 20.0021 36.4999 19.5635C36.3065 19.1248 36.211 18.6494 36.22 18.17H38.4C38.38 18.3764 38.4075 18.5846 38.4802 18.7787C38.553 18.9728 38.6692 19.1477 38.82 19.29C38.9502 19.4397 39.1144 19.5559 39.2988 19.629C39.4833 19.7021 39.6826 19.7299 39.88 19.71C40.1207 19.7243 40.3611 19.6768 40.5782 19.5718C40.7953 19.4667 40.9818 19.3077 41.12 19.11C41.4176 18.6388 41.5609 18.0865 41.53 17.53C41.5556 17.0344 41.43 16.5427 41.17 16.12C41.0337 15.9171 40.8489 15.7514 40.6323 15.6379C40.4158 15.5244 40.1744 15.4667 39.93 15.47C39.7115 15.4747 39.4953 15.5153 39.29 15.59C38.9625 15.7052 38.6886 15.9365 38.52 16.24L36.52 16.17L37.29 9.94006H43.29V11.83H38.83" fill="#231916"/>
<path d="M58.98 21.23H56.83V16.13C56.8647 15.6726 56.7412 15.2171 56.48 14.84C56.3746 14.7259 56.246 14.6356 56.1028 14.5752C55.9597 14.5149 55.8053 14.4859 55.65 14.49C55.4316 14.4831 55.2141 14.5212 55.011 14.6021C54.808 14.683 54.6238 14.8048 54.47 14.96C54.263 15.3395 54.1627 15.768 54.18 16.2V21.2H52.05V16.2C52.0766 15.8187 52.0186 15.4362 51.88 15.08C51.7746 14.8802 51.6112 14.7169 51.4114 14.6116C51.2115 14.5063 50.9844 14.4639 50.76 14.49C50.5668 14.4742 50.3728 14.5093 50.1974 14.5917C50.0219 14.6742 49.8711 14.8012 49.76 14.96C49.5227 15.3013 49.4162 15.7167 49.46 16.13V21.1901H47.34V12.9101H49.34V14.13H49.4C49.5704 13.7717 49.812 13.452 50.11 13.1901C50.5807 12.8692 51.1405 12.7046 51.71 12.72C52.177 12.7046 52.6406 12.8042 53.06 13.0101C53.4203 13.302 53.7193 13.6621 53.94 14.07L54.01 14.0101C54.1942 13.7152 54.4087 13.4404 54.65 13.1901C55.0887 12.896 55.602 12.7329 56.13 12.72C56.8608 12.6947 57.5745 12.9446 58.13 13.4201C58.4063 13.6847 58.6225 14.0055 58.764 14.3609C58.9054 14.7163 58.9689 15.098 58.95 15.48" fill="#231916"/>
<path d="M8.44 16.29L2.66 22.05L2.49 21.23L2.37 11.29L2.66 10.59" fill="#231916"/>
<path d="M68.01 15.71L74.32 10.53L74.44 20.93L74.14 21.7" fill="#231916"/>
</g>
<defs>
<clipPath id="clip0_8063_8175">
<rect width="76.8" height="32.11" fill="white"/>
</clipPath>
</defs>
</svg>
