<svg width="76" height="67" viewBox="0 0 76 67" fill="none" xmlns="http://www.w3.org/2000/svg">
<g clip-path="url(#clip0_8063_6482)">
<path d="M74.68 59.83L41.42 2.62998C39.59 -0.55002 36.35 -0.55002 34.52 2.62998L1.08002 59.94C-0.919981 63.24 0.729995 65.82 4.68 65.82H70.97C75.21 65.82 76.68 63.35 74.68 59.82" fill="white"/>
<path d="M74.68 59.83L41.42 2.62998C39.59 -0.55002 36.35 -0.55002 34.52 2.62998L1.08002 59.94C-0.919981 63.24 0.729995 65.82 4.68 65.82H70.97C75.21 65.82 76.68 63.35 74.68 59.83Z" stroke="#D20D18" stroke-width="0.49"/>
<path d="M72.97 60.35L40.18 3.86C39 1.86 36.93 1.86 35.76 3.86L2.73999 60.52C1.55999 62.52 2.79997 64.11 5.09997 64.11H70.44C73.04 64.11 74.16 62.4 72.98 60.4" fill="#D20D18"/>
<path d="M37.82 13.03L11.93 57.65H64.12" fill="#F8B500"/>
<path d="M37.82 13.03L11.93 57.65H64.12L37.82 13.03Z" stroke="#D20D18" stroke-width="0.57"/>
<path d="M35.34 27.26H41.12C41.12 30.96 40.65 35.14 38.12 35.14C35.59 35.14 35.35 29.67 35.35 27.26" fill="#231916"/>
<path d="M47.49 33.67L43.01 41.43C42.18 42.78 42.78 43.37 43.78 43.37H44.78C44.78 48.89 41.3 45.89 41.3 55H46.3C46.3 47 49.67 50.19 49.67 43.25H50.43C51.43 43.25 51.85 42.66 51.31 41.07C50.77 39.48 48.54 33.61 48.54 33.61C48.37 32.73 47.83 32.9 47.48 33.67" fill="#231916"/>
<path d="M32.63 54.59L28.91 47.59C28.09 46.24 28.68 45.65 29.68 45.65H30.68C30.68 40.06 27.26 41.94 27.26 33.31H32.26C32.26 40.77 35.5 38.42 35.5 45.82H36.32C37.32 45.82 37.98 46.41 37.21 47.95C36.44 49.49 33.73 54.7 33.73 54.7C33.2 55.52 33.02 55.35 32.61 54.58" fill="#231916"/>
</g>
<defs>
<clipPath id="clip0_8063_6482">
<rect width="75.8" height="66.06" fill="white"/>
</clipPath>
</defs>
</svg>
