<svg width="77" height="30" viewBox="0 0 77 30" fill="none" xmlns="http://www.w3.org/2000/svg">
<g clip-path="url(#clip0_8072_357)">
<path d="M5.78998 28.8701C5.04807 28.8737 4.31274 28.7307 3.62628 28.4493C2.93982 28.1678 2.31577 27.7535 1.78998 27.23C1.27783 26.7109 0.873675 26.0955 0.600766 25.4192C0.327858 24.7429 0.191639 24.0192 0.20001 23.29" stroke="#231F20" stroke-width="0.49"/>
<path d="M0.240005 23.2901V5.83008" stroke="#231F20" stroke-width="0.49"/>
<path d="M0.24003 5.82001C0.231881 5.09233 0.36822 4.37023 0.641153 3.69562C0.914086 3.02101 1.31815 2.40732 1.83 1.89001C2.34771 1.36896 2.96302 0.955053 3.64079 0.671936C4.31855 0.388819 5.04543 0.242018 5.77995 0.23999" stroke="#231F20" stroke-width="0.49"/>
<path d="M5.78999 0.23999H70.48" stroke="#231F20" stroke-width="0.49"/>
<path d="M70.48 0.250037C71.2238 0.239753 71.9617 0.380706 72.6494 0.664343C73.337 0.94798 73.9599 1.36841 74.48 1.90006C75.0014 2.41391 75.4164 3.02546 75.7012 3.6998C75.9861 4.37415 76.1351 5.09804 76.14 5.83005" stroke="#231F20" stroke-width="0.49"/>
<path d="M76.09 5.83008V23.2901" stroke="#231F20" stroke-width="0.49"/>
<path d="M76.08 23.25C76.0772 23.9829 75.93 24.7081 75.6469 25.3842C75.3638 26.0602 74.9503 26.6738 74.43 27.19C73.9079 27.7184 73.2845 28.136 72.5972 28.4178C71.9099 28.6996 71.1728 28.8399 70.43 28.83" stroke="#231F20" stroke-width="0.49"/>
<path d="M70.48 28.8701H5.78999" stroke="#231F20" stroke-width="0.49"/>
<path d="M5.79001 26.8201C4.87116 26.7953 3.99873 26.4112 3.36008 25.7501C3.02156 25.4372 2.75295 25.0563 2.572 24.6323C2.39104 24.2084 2.30178 23.7509 2.31003 23.29" stroke="#231F20" stroke-width="0.49"/>
<path d="M2.31 23.2901V5.83008" stroke="#231F20" stroke-width="0.49"/>
<path d="M2.30002 5.81989C2.29554 5.35862 2.3875 4.90148 2.57004 4.47784C2.75258 4.05421 3.02173 3.67341 3.36008 3.35986C4.00706 2.71995 4.88003 2.36068 5.79001 2.35986" stroke="#231F20" stroke-width="0.49"/>
<path d="M5.78999 2.36011H70.48" stroke="#231F20" stroke-width="0.49"/>
<path d="M70.48 2.35992C71.4068 2.35452 72.2981 2.71484 72.9609 3.36261C73.6236 4.01038 74.0042 4.89335 74.02 5.81995" stroke="#231F20" stroke-width="0.49"/>
<path d="M74.02 5.83008V23.2901" stroke="#231F20" stroke-width="0.49"/>
<path d="M74.02 23.25C74.0145 23.7097 73.9181 24.1638 73.7361 24.5861C73.5542 25.0083 73.2905 25.3903 72.96 25.71C72.3066 26.3795 71.4154 26.7641 70.48 26.78" stroke="#231F20" stroke-width="0.49"/>
<path d="M70.48 26.8201H5.78999" stroke="#231F20" stroke-width="0.49"/>
<path d="M12.18 10.8701H6.63995V9.63007H12.18V10.8701ZM10.61 11.48C10.9424 11.6437 11.2228 11.8964 11.42 12.2101C11.6209 12.5341 11.725 12.9088 11.72 13.29C11.7269 13.6747 11.6227 14.0531 11.42 14.3801C11.2261 14.694 10.9445 14.9443 10.61 15.1C10.2403 15.2819 9.83187 15.3712 9.41998 15.36C9.00489 15.3712 8.59328 15.282 8.22003 15.1C7.87746 14.9438 7.58862 14.6899 7.38995 14.3701C7.20037 14.0417 7.10065 13.6692 7.10065 13.29C7.10065 12.9109 7.20037 12.5384 7.38995 12.2101C7.59255 11.8936 7.88028 11.6406 8.22003 11.48C8.59487 11.3027 9.00536 11.2137 9.41998 11.22C9.83138 11.2139 10.2387 11.3028 10.61 11.48ZM14.05 19.85H12.7401V17.3901H7.74005V16.1301H14.03L14.05 19.85ZM8.86005 12.5001C8.71073 12.5634 8.58491 12.6718 8.50006 12.8101C8.41229 12.9621 8.36603 13.1345 8.36603 13.3101C8.36603 13.4856 8.41229 13.658 8.50006 13.8101C8.58601 13.9427 8.71216 14.0443 8.86005 14.1C9.03766 14.1722 9.22838 14.2063 9.41998 14.2001C9.60829 14.2055 9.79568 14.1714 9.97003 14.1C10.1206 14.0443 10.2499 13.9429 10.34 13.8101C10.4278 13.658 10.4739 13.4856 10.4739 13.3101C10.4739 13.1345 10.4278 12.9621 10.34 12.8101C10.2511 12.6715 10.122 12.5634 9.97003 12.5001C9.79433 12.4335 9.60788 12.3996 9.41998 12.4001C9.22884 12.3997 9.03924 12.4335 8.86005 12.5001ZM10.07 10.3201H8.75995V8.56006H10.07V10.3201ZM14.07 15.67H12.7599V8.61005H14.07V15.67ZM15.34 12.8201H13.7V11.5301H15.34V12.8201Z" fill="#231F20"/>
<path d="M24.2501 18.47H15.73V17.2501H24.2501V18.47ZM22.53 10.8301H16.53V9.59009H22.53V10.8301ZM18.85 17.6201H17.54V13.6201H18.85V17.6201ZM21.17 17.6201H19.8799V13.6201H21.17V17.6201ZM23.46 12.3201C23.46 12.7801 23.46 13.32 23.36 13.91C23.26 14.5 23.2299 15.17 23.1299 15.91L21.84 15.7601C21.94 15.1001 22.02 14.4701 22.06 13.8901C22.1 13.3101 22.14 12.7801 22.15 12.3201C22.16 11.8601 22.15 11.32 22.15 10.73V9.63007H23.46V10.73C23.47 11.31 23.47 11.8501 23.46 12.3201Z" fill="#231F20"/>
<path d="M28.7401 9.52991C29.1346 9.77025 29.4533 10.1168 29.66 10.5299C29.8858 10.9615 29.9994 11.4429 29.9901 11.9299C29.9987 12.4116 29.8814 12.8873 29.65 13.3099C29.4322 13.7084 29.1112 14.0409 28.7206 14.2725C28.3299 14.5042 27.8842 14.6264 27.43 14.6264C26.9759 14.6264 26.5301 14.5042 26.1395 14.2725C25.7489 14.0409 25.4279 13.7084 25.2101 13.3099C24.982 12.8896 24.865 12.418 24.8701 11.9399C24.8651 11.4522 24.982 10.971 25.2101 10.5399C25.4168 10.1268 25.7355 9.7802 26.13 9.53986C26.5287 9.3165 26.9781 9.19922 27.435 9.19922C27.892 9.19922 28.3414 9.3165 28.7401 9.53986V9.52991ZM32.52 19.6799H26.0001V18.4199H32.52V19.6799ZM32.4 16.5899H26.07V15.3499H32.4V16.5899ZM26.78 10.6699C26.5862 10.7854 26.4272 10.9513 26.32 11.1499C26.2113 11.3848 26.1566 11.6411 26.16 11.8999C26.1575 12.1522 26.2123 12.4018 26.32 12.6299C26.4329 12.8243 26.5906 12.9888 26.78 13.1099C26.9804 13.2211 27.2058 13.2794 27.435 13.2794C27.6642 13.2794 27.8897 13.2211 28.0901 13.1099C28.2795 12.9888 28.4371 12.8243 28.55 12.6299C28.6625 12.4034 28.7175 12.1527 28.7101 11.8999C28.7183 11.6406 28.6634 11.3832 28.55 11.1499C28.4428 10.9513 28.2839 10.7854 28.0901 10.6699C27.8878 10.5647 27.6631 10.5098 27.435 10.5098C27.207 10.5098 26.9823 10.5647 26.78 10.6699ZM28.51 19.0499H27.2201V15.6599H28.51V19.0499ZM31.26 19.0499H29.9901V15.6599H31.26V19.0499ZM32.26 14.8599H30.94V8.62988H32.2501L32.26 14.8599ZM33.53 12.3799H31.88V11.1099H33.53V12.3799Z" fill="#231F20"/>
<path d="M36.82 12.0499C36.6248 12.6228 36.3151 13.1501 35.91 13.5999C35.5142 14.0451 35.0168 14.3881 34.46 14.5999L33.82 13.3799C34.2819 13.2031 34.7011 12.9305 35.05 12.5799C35.3752 12.2607 35.6336 11.88 35.81 11.4599C35.9694 11.0691 36.0542 10.6519 36.06 10.2299V9.5799H37.1299V10.2499C37.129 10.8631 37.0242 11.4717 36.82 12.0499ZM39.23 10.2999H34.16V9.03986H39.23V10.2999ZM41.77 17.8099H36.8799V19.2499H35.56V16.6499H40.47V16.0099H35.55V14.7599H41.77V17.8099ZM42.04 19.7399H35.56V18.5099H42.04V19.7399ZM37.61 11.3799C37.7783 11.7594 38.0234 12.1 38.33 12.3799C38.6721 12.6928 39.0732 12.9342 39.5099 13.0899L38.9 14.3199C38.3609 14.134 37.8741 13.8219 37.48 13.4099C37.0914 12.9912 36.792 12.4979 36.6 11.9599C36.4059 11.3935 36.3079 10.7986 36.31 10.1999V9.53986H37.3799V10.2499C37.3855 10.6376 37.4636 11.0208 37.61 11.3799ZM41.31 12.1699H38.9901V10.9299H41.31V12.1699ZM41.77 14.3299H40.47V8.60986H41.77V14.3299Z" fill="#231F20"/>
<path d="M46.73 11.1899H44.56V16.6299H43.2401V9.91986H46.73V11.1899ZM45.66 15.9399C46.1683 15.9009 46.6731 15.8241 47.17 15.7099L47.2599 16.9899C46.7524 17.1057 46.2381 17.1892 45.72 17.2399C45.21 17.2399 44.61 17.2999 43.9 17.3099H43.2401V15.9899H43.9C44.58 15.9899 45.17 15.9699 45.66 15.9399ZM48.92 19.3099H47.72V8.80988H48.92V19.3099ZM50.1201 14.2198H48.54V12.9599H50.1201V14.2198ZM51.06 19.8499H49.82V8.60986H51.06V19.8499Z" fill="#231F20"/>
<path d="M56.36 11.9199C56.0282 12.6948 55.5176 13.3801 54.8701 13.9199C54.1619 14.4898 53.3504 14.9176 52.48 15.1799L51.97 13.9199C52.6583 13.731 53.308 13.423 53.89 13.0099C54.3781 12.6607 54.7814 12.2061 55.07 11.6799C55.3319 11.1836 55.4692 10.631 55.47 10.0699V9.24988H56.86C56.8769 10.1646 56.7067 11.0732 56.36 11.9199ZM56.2599 10.5299H52.43V9.24988H56.2599V10.5299ZM59.48 19.7198H53.3701V15.3199H59.48V19.7198ZM54.67 18.4799H58.19V16.5899H54.67V18.4799ZM59.48 14.8899H58.17V8.60986H59.48V14.8899ZM60.7401 12.3699H59.11V11.0799H60.7401V12.3699Z" fill="#231F20"/>
<path d="M69.68 15.34H61.16V14.08H69.68V15.34ZM65.39 11.06C65.0807 11.6367 64.63 12.1253 64.08 12.48C63.4746 12.8777 62.7938 13.1467 62.08 13.27L61.61 12.03C62.2162 11.9529 62.8009 11.7557 63.33 11.45C63.7583 11.2063 64.1217 10.8633 64.39 10.45C64.6237 10.0749 64.7485 9.64202 64.7501 9.20001V8.83002H65.8701V9.20001C65.8635 9.8498 65.6987 10.4882 65.39 11.06ZM68.64 19.85H67.33V17.36H62.1V16.13H68.64V19.85ZM66.05 14.62H64.7501V12.62H66.05V14.62ZM66.42 10.44C66.6943 10.8518 67.0607 11.1942 67.4901 11.44C68.0253 11.738 68.6124 11.9314 69.22 12.01L68.71 13.25C67.9969 13.13 67.3161 12.8644 66.71 12.47C66.1682 12.1118 65.7247 11.6236 65.42 11.05C65.1153 10.4636 64.9608 9.81081 64.97 9.15002V8.78003H66.09V9.15002C66.0788 9.60224 66.193 10.0487 66.42 10.44Z" fill="#231F20"/>
</g>
<defs>
<clipPath id="clip0_8072_357">
<rect width="76.33" height="29.12" fill="white"/>
</clipPath>
</defs>
</svg>
