<svg width="77" height="30" viewBox="0 0 77 30" fill="none" xmlns="http://www.w3.org/2000/svg">
<g clip-path="url(#clip0_8063_7538)">
<path d="M5.87 28.87C4.38893 28.8621 2.97061 28.271 1.92239 27.2246C0.874175 26.1783 0.280491 24.7611 0.269989 23.28" stroke="#231916" stroke-width="0.49"/>
<path d="M0.23999 23.28V5.82996" stroke="#231916" stroke-width="0.49"/>
<path d="M0.23999 5.81995C0.247919 4.33198 0.844595 2.90769 1.89957 1.85834C2.95454 0.808987 4.38201 0.21995 5.87 0.219971" stroke="#231916" stroke-width="0.49"/>
<path d="M5.85001 0.23999H70.54" stroke="#231916" stroke-width="0.49"/>
<path d="M70.54 0.219971C72.0214 0.224689 73.4409 0.814099 74.49 1.85999C75.0112 2.37552 75.4253 2.98904 75.7084 3.66522C75.9916 4.34141 76.1383 5.06691 76.14 5.79999" stroke="#231916" stroke-width="0.49"/>
<path d="M76.15 5.82996V23.28" stroke="#231916" stroke-width="0.49"/>
<path d="M76.14 23.28C76.1295 24.7611 75.5358 26.1783 74.4876 27.2246C73.4394 28.271 72.0211 28.8621 70.54 28.87" stroke="#231916" stroke-width="0.49"/>
<path d="M70.54 28.87H5.85001" stroke="#231916" stroke-width="0.49"/>
<path d="M5.86999 26.75C5.41198 26.7567 4.95727 26.6716 4.53268 26.4998C4.10809 26.3279 3.72224 26.0726 3.39788 25.7491C3.07352 25.4257 2.8172 25.0407 2.6441 24.6166C2.47099 24.1925 2.38459 23.7381 2.38998 23.28" stroke="#231916" stroke-width="0.49"/>
<path d="M2.37 23.28V5.82996" stroke="#231916" stroke-width="0.49"/>
<path d="M2.36 5.81995C2.35595 5.36276 2.44334 4.90938 2.61705 4.48645C2.79075 4.06352 3.04728 3.6796 3.3715 3.35724C3.69573 3.03488 4.08113 2.78058 4.50505 2.60931C4.92897 2.43805 5.38285 2.3533 5.84001 2.35999" stroke="#231916" stroke-width="0.49"/>
<path d="M5.85001 2.35999H70.54" stroke="#231916" stroke-width="0.49"/>
<path d="M70.54 2.36003C70.9975 2.35197 71.452 2.43577 71.8766 2.60655C72.3011 2.77732 72.6871 3.03159 73.0116 3.35423C73.3361 3.67687 73.5925 4.06136 73.7657 4.48491C73.939 4.90846 74.0254 5.36242 74.02 5.81999" stroke="#231916" stroke-width="0.49"/>
<path d="M74.02 5.82996V23.28" stroke="#231916" stroke-width="0.49"/>
<path d="M74.02 23.28C74.0265 23.7376 73.9414 24.1919 73.7697 24.6161C73.5979 25.0403 73.343 25.4258 73.02 25.75C72.3564 26.3957 71.4658 26.7548 70.54 26.75" stroke="#231916" stroke-width="0.49"/>
<path d="M70.54 26.75H5.85001" stroke="#231916" stroke-width="0.49"/>
<path d="M9.31001 11.29C9.75277 12.1431 9.95335 13.1011 9.89 14.0601C9.95097 15.0349 9.75076 16.0084 9.31001 16.8801C9.09778 17.2156 8.80163 17.4898 8.45085 17.6757C8.10007 17.8616 7.70681 17.9527 7.31001 17.94V16.6401C7.72001 16.6401 7.96 16.4101 8.14 15.9901C8.35691 15.3706 8.45529 14.7159 8.43001 14.0601C8.45633 13.3813 8.35803 12.7034 8.14 12.0601C8.08503 11.8854 7.97384 11.7337 7.82371 11.6288C7.67359 11.5239 7.49297 11.4716 7.31001 11.48V10.22C7.70731 10.2042 8.1017 10.294 8.45302 10.4802C8.80433 10.6664 9.10003 10.9424 9.31001 11.28M13.49 9.81006C13.55 9.81006 13.55 9.93005 13.49 10.0501C13.43 10.1701 13.49 10.22 13.43 10.28V19.5101H11.87V16.1H10.37V14.8101H11.87V13.34H10.37V12.1H11.87V9.69001H12.87C13.0937 9.66727 13.3192 9.70896 13.52 9.81006M7.33 17.93C6.94221 17.9382 6.55905 17.8446 6.21867 17.6586C5.87829 17.4727 5.59258 17.2008 5.39 16.8701C4.91838 16.0076 4.69349 15.0319 4.74 14.0501C4.69116 13.0839 4.91649 12.1236 5.39 11.28C5.59106 10.9479 5.87647 10.6748 6.21721 10.4887C6.55794 10.3025 6.94186 10.2098 7.33 10.22V11.52C7.14843 11.518 6.97079 11.5728 6.82194 11.6768C6.6731 11.7808 6.56053 11.9288 6.50001 12.1C6.30359 12.7474 6.22567 13.425 6.27 14.1C6.23127 14.7519 6.30917 15.4056 6.50001 16.0301C6.55507 16.2104 6.66421 16.3694 6.81267 16.4857C6.96112 16.6019 7.14172 16.6698 7.33 16.68V17.93Z" fill="#231916"/>
<path d="M19.15 10.53C19.2443 12.158 18.8989 13.7814 18.15 15.23C17.4054 16.4977 16.3259 17.5357 15.03 18.23C14.85 18 14.67 17.76 14.5 17.58C14.2927 17.3696 14.0722 17.1725 13.84 16.99C14.9273 16.6821 15.8699 15.9981 16.5 15.06C17.1654 14.1345 17.5159 13.0197 17.5 11.8799H14.38V10.53M22.98 9.75995C22.98 9.81995 23.05 9.88 22.98 10L22.93 10.18C22.87 10.24 22.87 10.29 22.87 10.41V19.52H21.4V9.70996H22.28C22.64 9.70996 22.87 9.70996 22.98 9.70996" fill="#231916"/>
<path d="M33.13 14.94V16.22H28.95V19.57H28.18V14.9901M28.18 14.22V13.0501H30.54V12.22H28.18V11.0401H30.54V10.0401H31.48C31.6985 10.0168 31.9194 10.0372 32.13 10.1001V10.28L32.07 10.45V14.15L28.18 14.22ZM28.18 19.57H27.41V16.22H23.28V14.9901H28.18V19.57ZM28.18 11.1101V12.22H25.87V12.9801H28.17V14.22H24.33V10.1101H25.33C25.62 10.1101 25.8 10.1101 25.86 10.1701C25.92 10.2301 25.92 10.2301 25.86 10.3501V11.1101H28.18Z" fill="#231916"/>
<path d="M38.68 16.82C38.7364 16.972 38.7766 17.1295 38.8 17.29H38.68M38.68 14.35H40.27V19.5201H41.8V10.29C41.86 10.23 41.86 10.18 41.92 10.05L41.98 9.88L41.86 9.76001C41.7845 9.77906 41.7055 9.77906 41.63 9.76001H40.27V13.11H38.68V14.35ZM38.2 10.47V11.76H34.96V13.22H37.96V14.46H34.96V16.34H35.31C35.7841 16.3502 36.2584 16.3302 36.73 16.2801C37.3432 16.2588 37.9544 16.1986 38.56 16.1C38.61 16.28 38.61 16.51 38.68 16.69V17.34C37.9979 17.4864 37.3061 17.5834 36.61 17.6301C35.9 17.6301 35.2 17.69 34.49 17.69H33.43V10.52L38.2 10.47ZM38.68 13.0601H38.62V14.35H38.68V13.0601Z" fill="#231916"/>
<path d="M47.69 13.47C47.8449 13.3357 48.0251 13.2337 48.22 13.17C48.5023 13.0717 48.8022 13.0342 49.1 13.06C49.6687 13.0489 50.2199 13.2565 50.64 13.64C50.9056 13.8971 51.1114 14.2097 51.2428 14.5553C51.3741 14.9009 51.4278 15.2713 51.4 15.64C51.4211 16.3251 51.2365 17.0008 50.87 17.58C50.595 17.919 50.2424 18.1868 49.8421 18.3608C49.4418 18.5349 49.0055 18.6101 48.57 18.58C47.9495 18.6031 47.3428 18.3926 46.87 17.99C46.6065 17.7823 46.3977 17.5134 46.2617 17.2067C46.1258 16.8999 46.0669 16.5647 46.09 16.23H47.63C47.607 16.505 47.6932 16.778 47.87 16.99C47.9751 17.0987 48.1035 17.1823 48.2455 17.2343C48.3875 17.2862 48.5395 17.3052 48.69 17.2899C48.8587 17.2966 49.0266 17.263 49.1797 17.1917C49.3327 17.1203 49.4666 17.0135 49.57 16.88C49.7811 16.5236 49.8852 16.1139 49.87 15.7C49.8702 15.363 49.7653 15.0345 49.57 14.7599C49.4773 14.6114 49.3472 14.4899 49.1928 14.4074C49.0383 14.3249 48.865 14.2844 48.69 14.29C48.5308 14.2756 48.3704 14.2961 48.22 14.35C47.9919 14.4367 47.8034 14.6039 47.69 14.8199L46.33 14.7599L46.87 10.35H51.11V11.7H47.92" fill="#231916"/>
<path d="M54.29 10.22C54.6812 10.2009 55.0707 10.2829 55.421 10.458C55.7713 10.6332 56.0706 10.8956 56.29 11.22C56.7796 12.2269 57.0034 13.3423 56.94 14.46C56.9989 15.555 56.7751 16.6467 56.29 17.6301C56.0666 17.9504 55.7665 18.2097 55.4172 18.3843C55.0678 18.559 54.6803 18.6435 54.29 18.6301V17.34C54.4906 17.3511 54.6888 17.2924 54.851 17.1739C55.0133 17.0554 55.1295 16.8844 55.18 16.69C55.3532 15.9598 55.4305 15.2102 55.41 14.46C55.4335 13.6899 55.3561 12.9201 55.18 12.17C55.1295 11.9756 55.0133 11.8046 54.851 11.6862C54.6888 11.5677 54.4906 11.509 54.29 11.52M52.23 11.22C52.4609 10.8929 52.771 10.6296 53.1312 10.4547C53.4914 10.2798 53.8901 10.1991 54.29 10.22V11.51C54.0874 11.4812 53.8815 11.5333 53.7169 11.6549C53.5523 11.7765 53.4421 11.9579 53.41 12.16C53.203 12.9046 53.1252 13.6791 53.18 14.45C53.1283 15.201 53.2061 15.9553 53.41 16.68C53.4421 16.8821 53.5523 17.0636 53.7169 17.1852C53.8815 17.3068 54.0874 17.3588 54.29 17.33V18.6201C53.89 18.6419 53.491 18.5616 53.1306 18.3867C52.7702 18.2117 52.4602 17.9479 52.23 17.6201C51.7401 16.6383 51.516 15.5453 51.58 14.45C51.5116 13.3319 51.7356 12.2153 52.23 11.21" fill="#231916"/>
<path d="M59.78 10.22C60.1723 10.1927 60.5647 10.2711 60.9165 10.447C61.2682 10.6228 61.5664 10.8898 61.78 11.22C62.2957 12.2179 62.5209 13.3405 62.43 14.46C62.519 15.557 62.2935 16.6566 61.78 17.6301C61.568 17.9618 61.2701 18.2299 60.918 18.4059C60.5658 18.582 60.1726 18.6595 59.78 18.6301V17.34C59.9797 17.3526 60.1775 17.2944 60.3385 17.1755C60.4994 17.0566 60.6133 16.8846 60.66 16.69C60.8686 15.9662 60.9498 15.2116 60.9 14.46C60.9529 13.6885 60.8717 12.9138 60.66 12.17C60.6133 11.9754 60.4994 11.8035 60.3385 11.6846C60.1775 11.5657 59.9797 11.5074 59.78 11.52M57.78 11.22C57.9935 10.8898 58.2917 10.6228 58.6435 10.447C58.9952 10.2711 59.3877 10.1927 59.78 10.22V11.51C59.579 11.497 59.3798 11.5549 59.2172 11.6737C59.0545 11.7925 58.9387 11.9646 58.89 12.16C58.7138 12.9101 58.6365 13.6799 58.66 14.45C58.6395 15.2002 58.7168 15.9498 58.89 16.68C58.9387 16.8754 59.0545 17.0475 59.2172 17.1663C59.3798 17.2851 59.579 17.343 59.78 17.33V18.6201C59.3875 18.6484 58.9947 18.5704 58.6428 18.3945C58.2908 18.2185 57.9928 17.951 57.78 17.6201C57.2664 16.6466 57.041 15.547 57.13 14.45C57.0391 13.3305 57.2643 12.2079 57.78 11.21" fill="#231916"/>
<path d="M71.16 18.4H69.63V14.7599C69.6679 14.4465 69.5817 14.1307 69.39 13.8799C69.3187 13.7948 69.2277 13.7285 69.1248 13.6866C69.022 13.6448 68.9105 13.6287 68.8 13.6399C68.6577 13.6322 68.5154 13.655 68.3826 13.7067C68.2498 13.7585 68.1296 13.8379 68.03 13.9399C67.8609 14.201 67.7803 14.5095 67.8 14.8199V18.4H66.26V14.8199C66.26 14.4699 66.26 14.17 66.14 14.06C66.075 13.9178 65.966 13.8003 65.8292 13.7247C65.6924 13.6491 65.535 13.6194 65.38 13.6399C65.2377 13.6322 65.0954 13.655 64.9626 13.7067C64.8298 13.7585 64.7095 13.8379 64.61 13.9399C64.4594 14.1874 64.3766 14.4703 64.37 14.7599V18.4H62.87V12.47H64.29V13.35H64.34C64.4521 13.0842 64.6152 12.843 64.82 12.6399C65.1668 12.4021 65.5797 12.2797 66 12.29C66.3283 12.2916 66.6511 12.374 66.94 12.53C67.1982 12.721 67.4186 12.9584 67.59 13.23C67.7412 13.0118 67.9193 12.8136 68.12 12.6399C68.401 12.4079 68.7556 12.2838 69.12 12.29C69.3787 12.2781 69.6371 12.319 69.8795 12.4101C70.1218 12.5012 70.3432 12.6406 70.53 12.8199C70.7345 13.0033 70.8941 13.2312 70.9964 13.4861C71.0987 13.741 71.141 14.0161 71.12 14.29" fill="#231916"/>
</g>
<defs>
<clipPath id="clip0_8063_7538">
<rect width="76.39" height="29.12" fill="white"/>
</clipPath>
</defs>
</svg>
