<svg width="77" height="30" viewBox="0 0 77 30" fill="none" xmlns="http://www.w3.org/2000/svg">
<g clip-path="url(#clip0_8063_7692)">
<path d="M5.85001 28.87C4.36813 28.8674 2.94723 28.2797 1.89658 27.2346C0.845922 26.1896 0.250566 24.7718 0.240021 23.2899" stroke="#231916" stroke-width="0.49"/>
<path d="M0.23999 23.29V5.82996" stroke="#231916" stroke-width="0.49"/>
<path d="M0.240042 5.83004C0.236016 5.08719 0.379802 4.35099 0.663077 3.66426C0.946352 2.97754 1.36342 2.354 1.89001 1.83004C2.96588 0.801265 4.40151 0.234233 5.89001 0.250079" stroke="#231916" stroke-width="0.49"/>
<path d="M5.85001 0.23999H70.55" stroke="#231916" stroke-width="0.49"/>
<path d="M70.6 0.220012C71.3352 0.207624 72.0652 0.34414 72.7462 0.621318C73.4273 0.898496 74.0452 1.31061 74.5628 1.83287C75.0804 2.35512 75.4869 2.9767 75.758 3.6602C76.029 4.3437 76.159 5.075 76.14 5.81004" stroke="#231916" stroke-width="0.49"/>
<path d="M76.09 5.82996V23.29" stroke="#231916" stroke-width="0.49"/>
<path d="M76.09 23.2899C76.0797 24.7595 75.5072 26.1694 74.49 27.23C73.9725 27.7471 73.3582 28.1572 72.6822 28.4369C72.0061 28.7166 71.2816 28.8604 70.55 28.86" stroke="#231916" stroke-width="0.49"/>
<path d="M70.55 28.87H5.85001" stroke="#231916" stroke-width="0.49"/>
<path d="M5.85001 26.75C5.39104 26.7556 4.9355 26.6701 4.5098 26.4984C4.0841 26.3268 3.69672 26.0724 3.37003 25.75C2.72747 25.0874 2.35031 24.212 2.31003 23.2899" stroke="#231916" stroke-width="0.49"/>
<path d="M2.31 23.29V5.82996" stroke="#231916" stroke-width="0.49"/>
<path d="M2.31003 5.82996C2.32865 4.89717 2.70868 4.00806 3.37003 3.34998C4.03534 2.70705 4.9248 2.34839 5.85001 2.34998" stroke="#231916" stroke-width="0.49"/>
<path d="M5.85001 2.30005H70.55" stroke="#231916" stroke-width="0.49"/>
<path d="M70.6 2.30005C71.5109 2.3252 72.3759 2.70563 73.01 3.36005C73.3525 3.67305 73.6248 4.0549 73.8092 4.48059C73.9936 4.90628 74.0859 5.36614 74.08 5.83002" stroke="#231916" stroke-width="0.49"/>
<path d="M74.03 5.82996V23.29" stroke="#231916" stroke-width="0.49"/>
<path d="M74.0301 23.2899C74.0239 23.7505 73.926 24.2052 73.7423 24.6276C73.5586 25.0499 73.2927 25.4315 72.96 25.75C72.3204 26.3887 71.4539 26.7483 70.55 26.75" stroke="#231916" stroke-width="0.49"/>
<path d="M70.55 26.75H5.85001" stroke="#231916" stroke-width="0.49"/>
<path d="M12.33 10.47C12.7406 10.9657 12.9511 11.597 12.92 12.24C12.9393 12.86 12.7292 13.4652 12.33 13.9399C12.0986 14.1893 11.8164 14.3863 11.5024 14.5174C11.1885 14.6485 10.8501 14.7107 10.51 14.7V13.47C10.6644 13.479 10.8189 13.4522 10.9612 13.3914C11.1035 13.3307 11.2297 13.2378 11.33 13.12C11.506 12.8617 11.5905 12.5519 11.57 12.24C11.5994 11.9053 11.5148 11.5705 11.33 11.29C11.1036 11.0924 10.8103 10.9887 10.51 11V9.70996C10.8517 9.68548 11.1943 9.74148 11.5104 9.87347C11.8265 10.0055 12.1072 10.2098 12.33 10.47ZM10.51 19.0499V16.7H10.74C10.9637 16.6772 11.1892 16.7188 11.39 16.8199C11.45 16.8799 11.45 16.9399 11.39 17.0599V17.1699L11.33 17.2899L11.39 17.52L11.51 17.88H12.92L13.05 16.7H13.81C14.0146 16.6742 14.2218 16.7163 14.4 16.8199C14.46 16.8799 14.46 16.9399 14.4 17.0599L14.34 17.1699L14.28 17.2899L14.16 17.88H15.7V19.0499H10.51ZM10.51 15.4H15.51V16.52H10.51V15.4ZM15.34 9.46997C15.46 9.46997 15.52 9.52997 15.58 9.52997L15.64 9.64996V9.82996C15.5977 9.89902 15.5769 9.97909 15.58 10.06C15.5255 10.1462 15.5041 10.2492 15.52 10.35V12.05H16.6901V13.41H15.52V15.06H14.16V9.46997H15.34ZM10.51 14.7C10.1684 14.7109 9.82852 14.6487 9.51293 14.5176C9.19733 14.3866 8.91338 14.1896 8.68004 13.9399C8.47344 13.7102 8.31481 13.4414 8.21349 13.1495C8.11217 12.8575 8.07019 12.5484 8.09002 12.24C8.059 11.597 8.26946 10.9657 8.68004 10.47C8.90488 10.2096 9.18735 10.0053 9.50506 9.87335C9.82276 9.74141 10.1669 9.68547 10.51 9.70996V11C10.3603 10.9835 10.2088 11.0009 10.0668 11.0511C9.92483 11.1014 9.79607 11.183 9.69005 11.29C9.50524 11.5705 9.42061 11.9053 9.45 12.24C9.42952 12.5519 9.51406 12.8617 9.69005 13.12C9.79035 13.2378 9.9166 13.3307 10.0589 13.3914C10.2012 13.4522 10.3556 13.479 10.51 13.47V14.7ZM10.51 16.53H8.86004V15.4099H10.51V16.53ZM10.51 16.7V19.0499H8.60003V17.88H10.1901L9.95 16.7H10.51Z" fill="#231916"/>
<path d="M22.47 12.7599V9.64996H23.18C23.4021 9.63896 23.6239 9.67648 23.83 9.75995V10L23.77 10.12V19.12H22.47V14.0699H21.65C21.699 14.9613 21.5165 15.8502 21.12 16.65C20.9921 16.9368 20.7868 17.1823 20.5271 17.3589C20.2675 17.5355 19.9637 17.6364 19.65 17.65V16.36C19.89 16.36 20.07 16.19 20.18 15.71C20.3186 15.0765 20.3757 14.4279 20.35 13.78C20.3739 13.1453 20.3168 12.5102 20.18 11.89C20.07 11.48 19.89 11.25 19.65 11.25V9.94995C19.9273 9.96119 20.1974 10.0423 20.4351 10.1856C20.6729 10.3289 20.8706 10.5299 21.01 10.77C21.3571 11.3827 21.559 12.0669 21.6 12.77M25.78 9.53998C25.84 9.59998 25.84 9.65996 25.78 9.76996L25.72 9.94995V19.2999H24.37V9.47998H25.19C25.55 9.47998 25.72 9.47998 25.78 9.53998ZM19.65 17.65C19.3166 17.6535 18.9903 17.5534 18.7163 17.3635C18.4422 17.1737 18.2339 16.9033 18.12 16.59C17.7268 15.7074 17.5453 14.7451 17.59 13.78C17.5439 12.847 17.7258 11.9168 18.12 11.0699C18.2415 10.7567 18.4501 10.4848 18.7213 10.2863C18.9924 10.0878 19.3146 9.97112 19.65 9.94995V11.25C19.41 11.25 19.18 11.48 19.06 11.89C18.9189 12.5096 18.8584 13.1448 18.88 13.78C18.8565 14.4284 18.917 15.0771 19.06 15.71C19.18 16.19 19.41 16.36 19.65 16.36V17.65Z" fill="#231916"/>
<path d="M40.23 14.64V15.94H36.52V19.2899H35.81V14.64M35.81 13.82V12.65C36.4069 12.6899 37.0056 12.6083 37.57 12.41C37.7228 12.3831 37.8613 12.3032 37.9611 12.1843C38.0609 12.0654 38.1156 11.9152 38.1156 11.76C38.1156 11.6048 38.0609 11.4546 37.9611 11.3357C37.8613 11.2168 37.7228 11.1369 37.57 11.11C37.0046 10.9162 36.4062 10.8379 35.81 10.88V9.70999C36.7713 9.62972 37.7349 9.83498 38.58 10.3C38.8456 10.4416 39.0678 10.6526 39.2227 10.9107C39.3776 11.1687 39.4594 11.464 39.4594 11.765C39.4594 12.066 39.3776 12.3613 39.2227 12.6194C39.0678 12.8774 38.8456 13.0885 38.58 13.23C37.7328 13.6895 36.7709 13.8944 35.81 13.82ZM35.81 19.2899H35.16V15.94H31.39V14.64H35.81V19.2899ZM35.81 9.70999V10.88C35.2106 10.8374 34.6087 10.9157 34.04 11.11C33.8872 11.1369 33.7487 11.2168 33.6489 11.3357C33.5491 11.4546 33.4945 11.6048 33.4945 11.76C33.4945 11.9152 33.5491 12.0654 33.6489 12.1843C33.7487 12.3032 33.8872 12.3831 34.04 12.41C34.6077 12.6088 35.2099 12.6904 35.81 12.65V13.82C34.8458 13.8963 33.8801 13.6914 33.03 13.23C32.7644 13.0885 32.5423 12.8774 32.3874 12.6194C32.2325 12.3613 32.1506 12.066 32.1506 11.765C32.1506 11.464 32.2325 11.1687 32.3874 10.9107C32.5423 10.6526 32.7644 10.4416 33.03 10.3C33.8801 9.8386 34.8458 9.63362 35.81 9.70999Z" fill="#231916"/>
<path d="M46.43 13.9399C46.5178 14.0132 46.6154 14.0739 46.72 14.12C46.5937 14.1816 46.4916 14.2837 46.43 14.41M46.43 17.76H49.08V19.0499H46.43V17.76ZM46.43 13H47.6V16.59H49.02V10.06C49.02 10 49.08 9.93995 49.08 9.81995C49.1101 9.77761 49.1264 9.72696 49.1264 9.67499C49.1264 9.62301 49.1101 9.57231 49.08 9.52997C48.845 9.49311 48.6078 9.47306 48.37 9.46997H47.6V11.7599H46.43V13ZM44.6 9.81995V10.06C44.551 10.1301 44.5264 10.2145 44.53 10.3C44.53 10.3 44.53 10.41 44.53 10.53C44.5437 11.2 44.7484 11.8523 45.12 12.41C45.4231 13.0359 45.8939 13.5655 46.48 13.9399V14.41L46.24 14.59C46.07 14.76 45.94 15 45.77 15.18C45.3563 14.8719 44.9804 14.5161 44.65 14.12C44.3355 13.7376 44.0948 13.3002 43.94 12.83C43.7978 13.309 43.5782 13.7617 43.29 14.17C42.8925 14.6547 42.4394 15.091 41.94 15.47C41.7938 15.2813 41.6332 15.1041 41.46 14.9399C41.277 14.7486 41.0798 14.5715 40.87 14.41C41.5978 14.0512 42.1955 13.4744 42.58 12.7599C43.065 11.8375 43.2897 10.8004 43.23 9.75995H44.11C44.2968 9.74531 44.4838 9.78348 44.65 9.87M46.48 11.81H46.12V13.05H46.48V11.81ZM46.48 17.8099V19.1H41.99V15.9299H42.82C43.024 15.9143 43.2283 15.9558 43.41 16.0499C43.41 16.0499 43.41 16.16 43.41 16.28V16.45C43.35 16.52 43.35 16.5699 43.35 16.6899V17.8099H46.48Z" fill="#231916"/>
<path d="M55.39 15V15.2899L55.33 15.47C55.2817 15.5586 55.2609 15.6595 55.2701 15.76V16.8199H59.1V18.11H50.26V16.8199H53.92V14.9399H54.68C54.9183 14.9173 55.1589 14.9377 55.39 15ZM58.1601 10.12V11.41H52.6V13.35H58.32V14.59H51.24V10.12H58.1601Z" fill="#231916"/>
<path d="M67.66 10.12V13.47H62.05V14.47H67.83V15.64H64.83V15.82V15.94V16.82H68.6V18.11H59.69V16.82H63.47V15.64H60.7V12.24H66.3V11.35H60.7V10.12" fill="#231916"/>
</g>
<defs>
<clipPath id="clip0_8063_7692">
<rect width="76.34" height="29.11" fill="white"/>
</clipPath>
</defs>
</svg>
