<svg width="77" height="46" viewBox="0 0 77 46" fill="none" xmlns="http://www.w3.org/2000/svg">
<g clip-path="url(#clip0_8072_478)">
<path d="M10.0301 10.71C10.4342 11.0952 10.7335 11.577 10.9001 12.1099C11.3267 13.4877 11.3267 14.9622 10.9001 16.34C10.7335 16.8729 10.4342 17.3546 10.0301 17.7399C9.68127 18.0537 9.22918 18.2282 8.76004 18.23C8.28779 18.2287 7.83236 18.0544 7.48001 17.7399C7.07396 17.3544 6.77135 16.873 6.6 16.34C6.17337 14.9622 6.17337 13.4877 6.6 12.1099C6.77365 11.5779 7.07593 11.0971 7.48001 10.71C7.82981 10.3914 8.28691 10.2164 8.76004 10.22C9.23008 10.217 9.68385 10.392 10.0301 10.71ZM8.13003 11.9399C7.92162 12.1954 7.77755 12.4972 7.70999 12.8199C7.61069 13.2798 7.56371 13.7495 7.56997 14.22C7.5631 14.6904 7.61009 15.1601 7.70999 15.6199C7.77755 15.9427 7.92162 16.2444 8.13003 16.4999C8.20596 16.5939 8.30191 16.6697 8.41091 16.7217C8.51992 16.7738 8.63923 16.8008 8.76004 16.8008C8.88084 16.8008 9.00015 16.7738 9.10916 16.7217C9.21816 16.6697 9.31411 16.5939 9.39004 16.4999C9.59845 16.2444 9.74253 15.9427 9.81008 15.6199C10.01 14.6973 10.01 13.7426 9.81008 12.8199C9.74253 12.4972 9.59845 12.1954 9.39004 11.9399C9.31411 11.846 9.21816 11.7702 9.10916 11.7181C9.00015 11.6661 8.88084 11.639 8.76004 11.639C8.63923 11.639 8.51992 11.6661 8.41091 11.7181C8.30191 11.7702 8.20596 11.846 8.13003 11.9399ZM13.4101 14.7499H10.82V13.4899H13.4101V14.7499ZM14.1601 20.6899H12.84V9.41992H14.1601V20.6899Z" fill="#231F20"/>
<path d="M20.27 13.7499H17.1899V15.3799H15.88V12.59H18.96V11.4199H15.87V10.2H20.27V13.7499ZM19.27 14.9299C19.9125 14.8815 20.5507 14.788 21.1801 14.65L21.3101 15.91C20.6512 16.0565 19.9829 16.1568 19.3101 16.21C18.6401 16.21 17.7601 16.28 16.6801 16.28H15.85V15.0099H16.6801C17.7901 15.0099 18.64 14.9799 19.29 14.9299H19.27ZM18.27 19.8599H16.9399V17.02H18.27V19.8599ZM23.59 20.47H16.9399V19.2H23.59V20.47ZM23.33 17.71H22.01V9.44995H23.33V17.71Z" fill="#231F20"/>
<path d="M28.7 10.71C29.1138 11.0909 29.4207 11.5735 29.59 12.1099C30.0166 13.4877 30.0166 14.9622 29.59 16.34C29.4207 16.8764 29.1138 17.359 28.7 17.7399C28.3417 18.0511 27.8846 18.2249 27.4101 18.23C26.9321 18.2272 26.4709 18.0534 26.11 17.7399C25.6962 17.359 25.3893 16.8764 25.22 16.34C24.7934 14.9622 24.7934 13.4877 25.22 12.1099C25.3893 11.5735 25.6962 11.0909 26.11 10.71C26.4709 10.3965 26.9321 10.2227 27.4101 10.22C27.8861 10.2168 28.3461 10.3916 28.7 10.71ZM26.77 11.9399C26.556 12.1931 26.4082 12.4955 26.34 12.8199C26.14 13.7426 26.14 14.6973 26.34 15.6199C26.4082 15.9444 26.556 16.2468 26.77 16.4999C26.8485 16.5934 26.9464 16.6687 27.0569 16.7205C27.1674 16.7723 27.288 16.7994 27.4101 16.7999C27.5319 16.7981 27.6519 16.7705 27.7622 16.7188C27.8726 16.667 27.9707 16.5924 28.0501 16.4999C28.2617 16.2452 28.4091 15.9434 28.48 15.6199C28.68 14.6973 28.68 13.7426 28.48 12.8199C28.4091 12.4964 28.2617 12.1947 28.0501 11.9399C27.9721 11.8459 27.8742 11.7703 27.7636 11.7184C27.6529 11.6666 27.5322 11.6398 27.4101 11.64C27.288 11.6405 27.1674 11.6675 27.0569 11.7194C26.9464 11.7712 26.8485 11.8464 26.77 11.9399ZM32.58 20.6899H31.22V9.41992H32.58V20.6899Z" fill="#231F20"/>
<path d="M42.55 19.3599H33.87V18.0799H42.55V19.3599ZM36.12 11.8999H40.26V10.1399H41.59V15.9999H34.78V10.1399H36.12V11.8999ZM40.26 14.7399V13.1399H36.12V14.7399H40.26ZM38.85 18.3999H37.5V15.6499H38.8101L38.85 18.3999Z" fill="#231F20"/>
<path d="M51.79 19.52H43.11V18.25H51.79V19.52ZM51.38 12.11H43.5V10.85H51.41L51.38 12.11ZM49.14 12.86C49.5798 12.9987 49.9714 13.2586 50.27 13.61C50.533 13.9423 50.671 14.3564 50.66 14.78C50.6708 15.2067 50.5329 15.6238 50.27 15.96C49.973 16.3175 49.5814 16.5843 49.14 16.73C48.5872 16.9214 48.0049 17.0128 47.42 17C46.832 17.0125 46.2462 16.9211 45.6899 16.73C45.2509 16.5904 44.8619 16.3264 44.5699 15.97C44.3085 15.6292 44.171 15.2095 44.1801 14.78C44.1691 14.3564 44.307 13.9423 44.5699 13.61C44.8624 13.2564 45.2516 12.9958 45.6899 12.86C46.2459 12.6683 46.8323 12.5802 47.42 12.6C48.0045 12.5801 48.5876 12.6682 49.14 12.86ZM46.38 13.93C46.1468 13.9773 45.9298 14.0841 45.75 14.24C45.6114 14.3852 45.536 14.5794 45.54 14.78C45.5375 14.8795 45.5546 14.9784 45.5907 15.0711C45.6268 15.1638 45.6809 15.2484 45.75 15.32C45.9298 15.4759 46.1468 15.5827 46.38 15.63C46.7082 15.705 47.0434 15.7452 47.38 15.75C47.7167 15.7459 48.0519 15.7057 48.38 15.63C48.614 15.585 48.8316 15.4779 49.01 15.32C49.0791 15.2484 49.1333 15.1638 49.1693 15.0711C49.2054 14.9784 49.2225 14.8795 49.22 14.78C49.224 14.5794 49.1486 14.3852 49.01 14.24C48.8302 14.0841 48.6132 13.9773 48.38 13.93C47.6964 13.7968 46.9936 13.7968 46.3101 13.93H46.38ZM48.08 11.64H46.76V9.54004H48.08V11.64ZM48.08 18.74H46.76V16.74H48.08V18.74Z" fill="#231F20"/>
<path d="M61.01 16.1401H52.35V14.8701H61.01V16.1401ZM59.36 11.3401H53.36V10.0901H59.36V11.3401ZM57.3 20.6801H55.96V15.7501H57.3V20.6801ZM59.98 12.5401C59.98 12.9301 59.98 13.39 59.87 13.92C59.76 14.45 59.73 15.0101 59.61 15.6301L58.3 15.4601C58.41 14.8701 58.5 14.3301 58.55 13.8201C58.6 13.3101 58.64 12.8201 58.65 12.4701C58.66 12.1201 58.65 11.6201 58.65 11.1001V10.1001H59.98V11.1001C59.99 11.6601 59.99 12.1401 59.98 12.5401Z" fill="#231F20"/>
<path d="M65.5001 10.3799C65.8875 10.6257 66.2018 10.9711 66.4101 11.3799C66.6336 11.8159 66.7468 12.3001 66.74 12.79C66.7469 13.2895 66.6338 13.7833 66.4101 14.23C66.2018 14.6388 65.8875 14.9842 65.5001 15.23C65.1167 15.4702 64.6724 15.5951 64.22 15.59C63.7646 15.5943 63.3175 15.4695 62.9301 15.23C62.5426 14.9842 62.2283 14.6388 62.0201 14.23C61.7964 13.7833 61.6831 13.2895 61.69 12.79C61.6832 12.3001 61.7966 11.8159 62.0201 11.3799C62.2283 10.9711 62.5426 10.6257 62.9301 10.3799C63.3185 10.144 63.7656 10.0227 64.22 10.03C64.6715 10.0212 65.1159 10.1427 65.5001 10.3799ZM63.57 11.53C63.3685 11.6372 63.2097 11.8101 63.12 12.02C63.0032 12.256 62.9448 12.5167 62.95 12.78C62.9451 13.0497 63.0033 13.3167 63.12 13.5599C63.2136 13.7725 63.3708 13.9507 63.57 14.0699C63.7678 14.183 63.9921 14.2417 64.22 14.2399C64.4479 14.2437 64.6719 14.1803 64.8639 14.0576C65.056 13.9349 65.2078 13.7583 65.3001 13.5499C65.4118 13.3104 65.4697 13.0493 65.4697 12.785C65.4697 12.5206 65.4118 12.2595 65.3001 12.02C65.2064 11.8159 65.0529 11.645 64.86 11.53C64.6651 11.4198 64.4439 11.3645 64.22 11.3699C63.9964 11.3664 63.7757 11.4216 63.58 11.53H63.57ZM69.57 20.66H68.24V17.8199H63.0401V16.5699H69.57V20.66ZM68.6501 12.21H65.82V10.9399H68.6501V12.21ZM68.6501 14.65H65.82V13.39H68.6501V14.65ZM69.57 16.0699H68.24V9.41992H69.57V16.0699Z" fill="#231F20"/>
<path d="M18.4 28.4899C18.2139 29.0947 17.9078 29.6559 17.5 30.1399C17.0934 30.5864 16.586 30.9292 16.02 31.1399L15.33 29.8999C15.79 29.7147 16.2059 29.4347 16.5505 29.078C16.8951 28.7213 17.1607 28.2961 17.33 27.8299C17.4928 27.3741 17.5773 26.894 17.58 26.4099V25.6499H18.66V26.4099C18.6774 27.1123 18.5897 27.8133 18.4 28.4899ZM20.86 26.4899H15.7V25.1999H20.86V26.4899ZM23.39 35.8399H22.0601V33.0499H16.86V31.7899H23.39V35.8399ZM19.2 27.8399C19.362 28.2692 19.6105 28.6606 19.9301 28.9899C20.2747 29.3433 20.6905 29.6195 21.15 29.7999L20.5 31.0199C19.9399 30.8144 19.4411 30.4704 19.05 30.0199C18.6458 29.5594 18.3456 29.017 18.17 28.4299C17.9743 27.8054 17.8765 27.1543 17.88 26.4999V25.7599H18.96V26.4999C18.9663 26.9371 19.0475 27.3701 19.2 27.7799V27.8399ZM22.4399 28.6399H20.59V27.3499H22.4399V28.6399ZM23.4399 31.3499H22.11V24.6399H23.4399V31.3499Z" fill="#231F20"/>
<path d="M33.29 31.2H24.62V29.94H33.29V31.2ZM30.78 25.04C31.2395 25.1738 31.6541 25.4295 31.98 25.78C32.257 26.1024 32.4064 26.515 32.4 26.94C32.4081 27.3592 32.2581 27.7662 31.98 28.08C31.6532 28.4272 31.2386 28.6795 30.78 28.81C30.1878 28.9938 29.5699 29.0815 28.95 29.07C28.3268 29.0794 27.7061 28.9917 27.11 28.81C26.6514 28.6795 26.2368 28.4272 25.91 28.08C25.6319 27.7662 25.4819 27.3592 25.49 26.94C25.4836 26.515 25.6331 26.1024 25.91 25.78C26.2359 25.4295 26.6505 25.1738 27.11 25.04C27.705 24.8536 28.3265 24.7658 28.95 24.78C29.569 24.7584 30.1875 24.8395 30.78 25.02V25.04ZM30.72 32.04C31.1532 32.1557 31.5449 32.3914 31.85 32.72C32.1078 33.0306 32.2489 33.4214 32.2489 33.825C32.2489 34.2286 32.1078 34.6194 31.85 34.93C31.5458 35.2618 31.1541 35.501 30.72 35.62C30.1425 35.7911 29.5421 35.8721 28.9399 35.86C28.3345 35.872 27.7309 35.7911 27.15 35.62C26.7121 35.5032 26.3166 35.2638 26.01 34.93C25.7522 34.6194 25.6111 34.2286 25.6111 33.825C25.6111 33.4214 25.7522 33.0306 26.01 32.72C26.3175 32.3894 26.713 32.1535 27.15 32.04C27.7309 31.8689 28.3345 31.788 28.9399 31.8C29.54 31.7749 30.1404 31.8423 30.72 32V32.04ZM27.91 30.46H26.58V28.4H27.91V30.46ZM27.8101 26.12C27.5524 26.1626 27.3108 26.273 27.11 26.44C27.0409 26.5037 26.9857 26.581 26.948 26.667C26.9103 26.7531 26.8909 26.846 26.8909 26.94C26.8909 27.0339 26.9103 27.1269 26.948 27.2129C26.9857 27.299 27.0409 27.3763 27.11 27.44C27.3142 27.5995 27.5547 27.706 27.8101 27.75C28.1841 27.8332 28.5669 27.8701 28.95 27.86C29.3297 27.8707 29.7094 27.8338 30.08 27.75C30.3382 27.7056 30.5819 27.5992 30.79 27.44C30.8591 27.3763 30.9142 27.299 30.9519 27.2129C30.9896 27.1269 31.0092 27.0339 31.0092 26.94C31.0092 26.846 30.9896 26.7531 30.9519 26.667C30.9142 26.581 30.8591 26.5037 30.79 26.44C30.5854 26.2731 30.3405 26.1627 30.08 26.12C29.7094 26.0362 29.3297 25.9992 28.95 26.01C28.5685 25.9867 28.1858 26.0102 27.8101 26.08V26.12ZM27.8101 33.12C27.5725 33.1543 27.3482 33.2509 27.16 33.4C27.0907 33.4549 27.0348 33.5248 26.9967 33.6045C26.9586 33.6843 26.9391 33.7716 26.9399 33.86C26.9383 33.9514 26.9573 34.042 26.9954 34.125C27.0334 34.2081 27.0897 34.2816 27.16 34.34C27.3495 34.4888 27.5728 34.5884 27.8101 34.63C28.1729 34.6957 28.5413 34.7259 28.91 34.72C29.2754 34.7259 29.6405 34.6957 30 34.63C30.2396 34.5862 30.4657 34.4869 30.66 34.34C30.7303 34.2816 30.7865 34.2081 30.8246 34.125C30.8627 34.042 30.8816 33.9514 30.88 33.86C30.8808 33.7716 30.8614 33.6843 30.8232 33.6045C30.7851 33.5248 30.7293 33.4549 30.66 33.4C30.4709 33.2525 30.2471 33.1561 30.01 33.12C29.6471 33.0543 29.2788 33.0242 28.91 33.03C28.5539 32.9992 28.1955 33.0025 27.84 33.04L27.8101 33.12ZM31.26 30.5H29.9301V28.44H31.26V30.5Z" fill="#231F20"/>
<path d="M38.5 26.7601H35.5V30.2901H34.16V25.5001H38.46L38.5 26.7601ZM37.5 29.5301C38.08 29.4839 38.6553 29.3903 39.22 29.2501L39.37 30.5101C38.7716 30.651 38.1631 30.7446 37.55 30.7901C36.92 30.7901 36.06 30.8701 34.96 30.8701H34.16V29.6001H34.96C36.12 29.6001 36.9701 29.5701 37.5601 29.5301H37.5ZM36.5 35.0101H35.17V31.8501H36.5V35.0101ZM41.6801 35.6401H35.17V34.3701H41.6801V35.6401ZM41.34 32.7201H40.01V24.6001H41.34V32.7201ZM42.63 28.9601H40.9399V27.6601H42.63V28.9601Z" fill="#231F20"/>
<path d="M51.77 31.32H43.11V30.06H51.77V31.32ZM47.41 27.04C47.0903 27.6156 46.6334 28.1034 46.08 28.46C45.4534 28.8573 44.7525 29.1226 44.02 29.24L43.54 28.01C44.1564 27.9359 44.7515 27.7387 45.29 27.43C45.7246 27.1837 46.0973 26.8417 46.38 26.43C46.6128 26.0544 46.7373 25.6219 46.74 25.18V24.81H47.87V25.2C47.8708 25.8419 47.7128 26.4741 47.41 27.04ZM50.71 35.83H49.39V33.33H44.0601V32.11H50.71V35.83ZM48.08 30.6H46.76V28.6H48.08V30.6ZM48.46 26.42C48.7367 26.8369 49.1109 27.1801 49.55 27.42C50.0948 27.7209 50.6923 27.9144 51.3101 27.99L50.79 29.22C50.0794 29.0967 49.3999 28.8351 48.79 28.45C48.235 28.0984 47.7802 27.6093 47.47 27.03C47.1578 26.446 46.9996 25.7921 47.01 25.13V24.76H48.15V25.2C48.1536 25.6309 48.2746 26.0527 48.5 26.42H48.46Z" fill="#231F20"/>
<path d="M61.01 30.9601H52.35V29.7001H61.01V30.9601ZM56.5 27.5001C56.1782 27.9948 55.7337 28.3979 55.21 28.67C54.5883 28.9973 53.9091 29.2011 53.21 29.2701L52.77 28.0301C53.3425 27.981 53.9031 27.8391 54.4301 27.61C54.8186 27.4344 55.1609 27.1708 55.4301 26.8401C55.6425 26.5875 55.7624 26.27 55.77 25.9401V25.6401H56.9399V25.9401C56.9392 26.4906 56.787 27.0303 56.5 27.5001ZM60.23 26.3101H53.13V25.0701H60.23V26.3101ZM58.4399 32.0001C58.8767 32.125 59.2709 32.3671 59.58 32.7001C59.8316 33.0115 59.969 33.3997 59.969 33.8C59.969 34.2004 59.8316 34.5887 59.58 34.9001C59.2672 35.2263 58.874 35.4643 58.4399 35.5901C57.2749 35.9101 56.0451 35.9101 54.88 35.5901C54.442 35.4668 54.0449 35.2286 53.73 34.9001C53.4651 34.5956 53.3225 34.2036 53.33 33.8C53.3186 33.3959 53.4616 33.0025 53.73 32.7001C54.0394 32.3627 54.4382 32.1199 54.88 32.0001C56.0468 31.6933 57.2731 31.6933 58.4399 32.0001ZM55.5601 33.05C55.3257 33.0953 55.1039 33.1908 54.91 33.3301C54.841 33.3863 54.7854 33.4572 54.7472 33.5377C54.709 33.6181 54.6892 33.706 54.6892 33.795C54.6892 33.8841 54.709 33.972 54.7472 34.0524C54.7854 34.1329 54.841 34.2038 54.91 34.2601C55.1032 34.409 55.3296 34.5085 55.5699 34.55C55.9294 34.6163 56.2946 34.6464 56.66 34.6401C57.026 34.6477 57.3916 34.6142 57.75 34.5401C57.9903 34.4985 58.2169 34.3989 58.41 34.2501C58.4797 34.1978 58.536 34.1298 58.5742 34.0516C58.6125 33.9733 58.6316 33.8871 58.63 33.8C58.6316 33.7101 58.6126 33.6211 58.5745 33.5396C58.5363 33.4582 58.4801 33.3865 58.41 33.3301C58.2173 33.1888 57.9951 33.093 57.76 33.05C57.0327 32.9167 56.2873 32.9167 55.5601 33.05ZM57.33 32.2101H56.02V30.2101H57.33V32.2101ZM57.92 26.8501C58.1915 27.1759 58.5335 27.4357 58.92 27.61C59.4606 27.8401 60.0345 27.9819 60.62 28.0301L60.15 29.2701C59.4514 29.1984 58.7727 28.9948 58.15 28.67C57.6234 28.3982 57.1756 27.9952 56.85 27.5001C56.559 27.032 56.4065 26.4912 56.41 25.9401V25.6401H57.6V25.9401C57.6012 26.2708 57.7141 26.5914 57.92 26.8501Z" fill="#231F20"/>
<path d="M5.84999 45.1999C4.38033 45.1946 2.96795 44.6296 1.90004 43.6199C1.37254 43.0966 0.954859 42.4732 0.67152 41.7863C0.388181 41.0994 0.244869 40.3629 0.250012 39.6199" stroke="#231F20" stroke-width="0.49"/>
<path d="M0.23999 39.6301V5.83008" stroke="#231F20" stroke-width="0.49"/>
<path d="M0.249947 5.82001C0.246254 5.0876 0.390492 4.36202 0.674019 3.68671C0.957547 3.0114 1.37455 2.40027 1.89997 1.89001C2.41702 1.36807 3.03224 0.95359 3.71015 0.67041C4.38807 0.38723 5.11524 0.240925 5.84992 0.23999" stroke="#231F20" stroke-width="0.49"/>
<path d="M5.85001 0.23999H70.55" stroke="#231F20" stroke-width="0.49"/>
<path d="M70.55 0.200012C71.2928 0.196542 72.0288 0.340597 72.7155 0.623841C73.4021 0.907084 74.0257 1.3239 74.55 1.85004C75.0746 2.36099 75.4908 2.97219 75.7743 3.64734C76.0578 4.32249 76.2025 5.04779 76.2 5.78003" stroke="#231F20" stroke-width="0.49"/>
<path d="M76.14 5.83008V39.6301" stroke="#231F20" stroke-width="0.49"/>
<path d="M76.15 39.6299C76.1529 40.3726 76.0086 41.1085 75.7253 41.795C75.4421 42.4816 75.0257 43.1052 74.5 43.6299C73.4195 44.6515 71.9869 45.2174 70.5 45.2099" stroke="#231F20" stroke-width="0.49"/>
<path d="M70.55 45.22H5.85001" stroke="#231F20" stroke-width="0.49"/>
<path d="M5.85004 43.2C5.3872 43.2013 4.92895 43.109 4.50275 42.9285C4.07654 42.7481 3.6912 42.4832 3.37005 42.15C2.72407 41.4907 2.36466 40.6029 2.37005 39.6799" stroke="#231F20" stroke-width="0.49"/>
<path d="M2.37 39.6301V5.83008" stroke="#231F20" stroke-width="0.49"/>
<path d="M2.37001 5.81989C2.36725 4.90036 2.72647 4.01667 3.37001 3.35986C4.03706 2.71961 4.92539 2.3614 5.84999 2.35986" stroke="#231F20" stroke-width="0.49"/>
<path d="M5.85001 2.36011H70.55" stroke="#231F20" stroke-width="0.49"/>
<path d="M70.55 2.35999C71.0072 2.3533 71.4611 2.43811 71.885 2.60938C72.3089 2.78064 72.6943 3.03494 73.0186 3.3573C73.3428 3.67966 73.5992 4.06359 73.7729 4.48651C73.9467 4.90944 74.0341 5.36282 74.03 5.82001" stroke="#231F20" stroke-width="0.49"/>
<path d="M74.02 5.83008V39.6301" stroke="#231F20" stroke-width="0.49"/>
<path d="M74.03 39.6299C74.0343 40.0872 73.9482 40.5408 73.7766 40.9647C73.605 41.3886 73.3513 41.7744 73.03 42.0999C72.7149 42.4382 72.3321 42.7064 71.9066 42.8873C71.4811 43.0682 71.0224 43.1577 70.5601 43.1499" stroke="#231F20" stroke-width="0.49"/>
<path d="M70.55 43.1599H5.85001" stroke="#231F20" stroke-width="0.49"/>
</g>
<defs>
<clipPath id="clip0_8072_478">
<rect width="76.39" height="45.46" fill="white"/>
</clipPath>
</defs>
</svg>
