<svg width="71" height="71" viewBox="0 0 71 71" fill="none" xmlns="http://www.w3.org/2000/svg">
<g clip-path="url(#clip0_8068_5410)">
<path d="M30.45 23.87V23.72H21.14V19.52H34.54V23.78L26.54 44.14H22.4699L30.45 23.87Z" fill="#231F20"/>
<path d="M38.4501 43.0001C37.1924 41.8256 36.2825 40.3275 35.8201 38.6701C34.6067 34.1908 34.6067 29.4694 35.8201 24.9901C36.2872 23.3347 37.1964 21.8378 38.4501 20.6601C39.5943 19.7032 41.0384 19.179 42.53 19.179C44.0216 19.179 45.4657 19.7032 46.61 20.6601C47.872 21.8367 48.7854 23.3383 49.25 25.0001C49.9059 27.2159 50.2162 29.5197 50.17 31.8301C50.2162 34.1464 49.9093 36.4562 49.26 38.6801C48.7949 40.3335 47.8853 41.8277 46.63 43.0001C45.4817 43.9567 44.0345 44.4805 42.54 44.4805C41.0455 44.4805 39.5983 43.9567 38.4501 43.0001ZM44.4501 39.3301C45.0865 38.4962 45.515 37.5226 45.7001 36.4901C46.0162 34.9577 46.157 33.3943 46.12 31.8301C46.146 30.2686 45.9985 28.709 45.68 27.1801C45.5021 26.1441 45.0767 25.1664 44.44 24.3301C44.2191 24.0264 43.9307 23.778 43.5975 23.6045C43.2644 23.431 42.8956 23.337 42.52 23.3301C42.1473 23.337 41.7813 23.4311 41.4514 23.6047C41.1215 23.7784 40.8367 24.0268 40.62 24.3301C39.9841 25.1692 39.5526 26.145 39.36 27.1801C39.0415 28.709 38.894 30.2686 38.92 31.8301C38.8885 33.3951 39.036 34.9586 39.36 36.4901C39.545 37.5226 39.9735 38.4962 40.61 39.3301C40.8391 39.6174 41.1295 39.85 41.4599 40.0109C41.7904 40.1718 42.1525 40.2569 42.52 40.2601C42.8922 40.2593 43.2596 40.1753 43.5952 40.0145C43.9308 39.8536 44.2263 39.6197 44.4601 39.3301H44.4501Z" fill="#231F20"/>
<path d="M35.22 70.24C28.2817 70.2261 21.5032 68.1563 15.7407 64.292C9.97819 60.4276 5.49023 54.9421 2.84374 48.5284C0.197244 42.1146 -0.489046 35.0604 0.87157 28.2569C2.23219 21.4533 5.57867 15.2056 10.4883 10.303C15.3979 5.40034 21.6503 2.06275 28.4558 0.711818C35.2613 -0.639117 42.3145 0.05721 48.7245 2.71283C55.1344 5.36844 60.6136 9.8642 64.4697 15.6322C68.3259 21.4002 70.386 28.1817 70.39 35.12C70.3662 44.4357 66.6516 53.3624 60.0597 59.9449C53.4677 66.5275 44.5357 70.2294 35.22 70.24ZM35.22 0.49998C28.3647 0.505934 21.6653 2.54521 15.9693 6.35975C10.2734 10.1743 5.83703 15.5927 3.22142 21.9293C0.605816 28.266 -0.0713605 35.2361 1.2755 41.9577C2.62236 48.6793 5.93274 54.8504 10.7878 59.6901C15.6429 64.5298 21.8244 67.8206 28.5503 69.1461C35.2762 70.4716 42.2441 69.7722 48.5724 67.1365C54.9007 64.5008 60.305 60.0471 64.1014 54.3391C67.8979 48.6311 69.9158 41.9252 69.9 35.07C69.8683 25.8876 66.2025 17.0912 59.7038 10.6038C53.2052 4.11641 44.4024 0.465797 35.22 0.449993V0.49998Z" fill="#CF1F25"/>
<path d="M35.23 2.34988C28.7544 2.36372 22.4283 4.297 17.0512 7.90534C11.674 11.5137 7.4872 16.6351 5.02005 22.6224C2.5529 28.6096 1.9161 35.1939 3.19009 41.5429C4.46409 47.892 7.5917 53.7209 12.1776 58.2929C16.7636 62.8648 22.6021 65.9746 28.955 67.2293C35.3079 68.4839 41.8902 67.827 47.8699 65.3415C53.8496 62.8561 58.9582 58.6538 62.5501 53.2657C66.142 47.8775 68.056 41.5455 68.0501 35.0699C68.0342 26.3795 64.5681 18.0512 58.4137 11.9156C52.2594 5.77993 43.9204 2.33926 35.23 2.34988ZM35.23 60.6199C30.1836 60.61 25.2534 59.1048 21.062 56.2944C16.8707 53.484 13.6063 49.4945 11.6811 44.8298C9.75583 40.1651 9.25617 35.0345 10.2453 30.086C11.2344 25.1375 13.6678 20.5931 17.2382 17.0269C20.8086 13.4607 25.3558 11.0326 30.3055 10.0493C35.2551 9.06597 40.3852 9.57161 45.0476 11.5023C49.7101 13.433 53.6958 16.7022 56.5013 20.8968C59.3067 25.0915 60.8061 30.0235 60.8101 35.0699C60.7969 41.8473 58.0966 48.3429 53.3014 53.1324C48.5062 57.922 42.0074 60.6146 35.23 60.6199Z" fill="#CF1F25"/>
<path d="M53.16 46.46H17.23V50.26H53.16V46.46Z" fill="#231F20"/>
<path d="M53.3499 50.45H17.04V46.24H53.3499V50.45ZM17.43 50.06H52.9601V46.66H17.43V50.06Z" fill="#231F20"/>
</g>
<defs>
<clipPath id="clip0_8068_5410">
<rect width="70.39" height="70.18" fill="white"/>
</clipPath>
</defs>
</svg>
