<svg width="62" height="69" viewBox="0 0 62 69" fill="none" xmlns="http://www.w3.org/2000/svg">
<g clip-path="url(#clip0_8088_26)">
<path d="M2.02002 51.96V64.38C2.02002 66.17 2.89002 66.38 4.02002 66.5H57.14C58.62 66.28 59.14 66.17 59.14 63.73V51.73L31.59 4.03003C30.5 2.62003 29.31 2.95002 28.32 4.52002" fill="#004A9C"/>
<path d="M0.220032 65.38C0.490032 67.44 1.64001 67.98 3.70001 67.98" stroke="#004A9C" stroke-width="0.45"/>
<path d="M0.229996 51.32V65.38" stroke="#004A9C" stroke-width="0.45"/>
<path d="M3.71001 67.98H59.07" stroke="#004A9C" stroke-width="0.45"/>
<path d="M59.06 67.96C60.38 67.69 61.06 67.42 61.06 64.82" stroke="#004A9C" stroke-width="0.45"/>
<path d="M61.03 64.84V51.32L32.18 1.13" stroke="#004A9C" stroke-width="0.45"/>
<path d="M32.18 1.12997C31.8938 0.805207 31.5326 0.555188 31.1279 0.401642C30.7231 0.248096 30.287 0.195663 29.8574 0.248871C29.4278 0.30208 29.0177 0.459351 28.6627 0.707001C28.3076 0.954651 28.0183 1.28523 27.82 1.67001" stroke="#004A9C" stroke-width="0.45"/>
<path d="M27.82 1.67999L0.229996 51.32" stroke="#004A9C" stroke-width="0.45"/>
<path d="M13.8 56.21V57.29H12.27V57.56C12.2573 58.3607 12.4035 59.1561 12.7 59.9C12.9191 60.566 13.3792 61.1259 13.99 61.47C13.8202 61.5883 13.6743 61.7376 13.56 61.91C13.408 62.0388 13.291 62.2039 13.22 62.39C12.8379 62.0736 12.5161 61.6908 12.27 61.26C11.9863 60.7711 11.79 60.2364 11.69 59.68C11.5803 60.2397 11.3702 60.775 11.07 61.26C10.8184 61.7331 10.479 62.1539 10.07 62.5C9.95537 62.3281 9.82478 62.1674 9.67999 62.02C9.55479 61.8567 9.41043 61.7089 9.25 61.58C9.90143 61.1663 10.4054 60.5573 10.69 59.84C11.0446 59.1327 11.2263 58.3512 11.22 57.56V57.29H9.69V56.21M15.44 55.56C15.44 55.56 15.44 55.67 15.44 55.83L15.38 55.9901V56.21V59.08H16.38V60.17H15.38V63.64H14.38V55.51H14.95C15.1442 55.5154 15.3378 55.5321 15.53 55.56" fill="white"/>
<path d="M23.08 59.46H23.22L23.08 59.63M23.08 62.34H25.33V63.42H23.08V62.34ZM23.08 58.44H24.14V61.44H25.24V55.96L25.33 55.8C25.36 55.7614 25.3763 55.7139 25.3763 55.665C25.3763 55.6161 25.36 55.5686 25.33 55.53C25.1582 55.5004 24.9843 55.4837 24.81 55.48H24.19V57.37H23.13L23.08 58.44ZM23.08 55.94V57.02H21.69V57.29C21.6621 57.759 21.8002 58.2227 22.08 58.6C22.3195 58.9806 22.6679 59.2802 23.08 59.46V59.63C23.08 59.73 22.94 59.84 22.89 59.95L22.6 60.44C22.2405 60.2626 21.9286 60.0021 21.69 59.68C21.4232 59.4281 21.2268 59.111 21.12 58.76C20.9688 59.076 20.7735 59.3689 20.54 59.63C20.207 59.9386 19.8416 60.2102 19.45 60.44C19.3217 60.3092 19.2077 60.165 19.11 60.01C18.9924 59.8369 18.8431 59.6876 18.67 59.57C18.9466 59.5096 19.2106 59.4013 19.45 59.25C19.6761 59.0936 19.8811 58.9088 20.06 58.7C20.2428 58.5122 20.3887 58.2918 20.49 58.05C20.5766 57.8639 20.6307 57.6644 20.65 57.46V57.02H19.2V55.96L23.08 55.94ZM23.08 57.4H22.94V58.4H23.08V57.4ZM23.08 62.34V63.42H19.69V60.82H20.31C20.4714 60.8264 20.632 60.8464 20.79 60.88C20.79 60.93 20.79 60.99 20.79 61.09C20.79 61.19 20.79 61.2 20.79 61.25V62.34H23.08Z" fill="white"/>
<path d="M31.76 56.21C31.8092 57.5503 31.5633 58.8851 31.04 60.12C30.4879 61.0957 29.7179 61.9308 28.79 62.56C28.65 62.39 28.55 62.18 28.41 62.02C28.27 61.86 28.13 61.69 27.98 61.53C28.3863 61.4001 28.7618 61.1885 29.0834 60.9082C29.4049 60.6279 29.6658 60.2848 29.85 59.9C30.3365 59.1176 30.5866 58.2112 30.57 57.29H28.31V56.21M34.31 55.56H34.5L34.55 55.67L34.5 55.83V55.99V63.64H33.4V59.57H32.16V58.49H33.4V55.49H33.93C34.0753 55.4751 34.222 55.4922 34.36 55.54" fill="white"/>
<path d="M43.18 63.26V61.53C43.3442 61.608 43.4841 61.7293 43.5845 61.8809C43.685 62.0324 43.7422 62.2084 43.7501 62.39C43.744 62.5734 43.6875 62.7515 43.587 62.905C43.4864 63.0584 43.3457 63.1812 43.18 63.26ZM43.18 61.14V55.5H43.27C43.4316 55.5038 43.5925 55.5239 43.7501 55.56V55.72C43.7501 55.83 43.75 55.83 43.69 55.88V61.14H43.18ZM39.82 57.4C40.2819 57.3804 40.7417 57.4731 41.16 57.67C41.289 57.7386 41.3971 57.8408 41.4728 57.9658C41.5485 58.0908 41.5891 58.2339 41.59 58.38C41.5957 58.4938 41.5731 58.6073 41.5242 58.7103C41.4754 58.8132 41.4018 58.9025 41.31 58.97C41.017 59.1773 40.6688 59.2922 40.31 59.3V59.96C40.5 59.96 40.79 59.96 41.12 59.96C41.4206 59.9035 41.7246 59.8668 42.03 59.85H42.1299L42.22 60.72L39.97 60.89H39.78V58.71C39.9639 58.7314 40.1498 58.6928 40.31 58.6C40.4 58.6 40.45 58.49 40.45 58.44C40.45 58.39 40.45 58.33 40.31 58.27C40.1397 58.209 39.9609 58.1753 39.78 58.17L39.82 57.4ZM43.18 61.14H42.69V55.5H43.22L43.18 61.14ZM43.18 61.53L43.08 61.47C42.423 61.1545 41.6981 61.0068 40.97 61.04C40.585 61.0495 40.2009 61.0829 39.82 61.14V62.02C40.1986 61.9442 40.5839 61.9073 40.97 61.91C41.4026 61.9039 41.8347 61.9407 42.2599 62.02C42.4999 62.12 42.65 62.23 42.65 62.39C42.65 62.55 42.4999 62.67 42.2599 62.78C41.8385 62.8846 41.4031 62.9217 40.97 62.89C40.5832 62.9181 40.1945 62.8809 39.82 62.78V63.64C40.1993 63.7107 40.5842 63.7475 40.97 63.75C41.6994 63.7857 42.4257 63.6343 43.08 63.31L43.18 63.26V61.53ZM39.82 56.48H41.93V57.2401H39.82V56.48ZM39.82 55.48H40.88V56.2401H39.82V55.48ZM39.29 59.93V59.28C38.9604 59.2641 38.6432 59.1491 38.38 58.95C38.2783 58.889 38.1944 58.8024 38.1365 58.6989C38.0786 58.5954 38.0488 58.4786 38.05 58.36C38.0464 58.213 38.0849 58.068 38.1611 57.9421C38.2373 57.8163 38.348 57.7149 38.48 57.65C38.8811 57.4548 39.3243 57.3621 39.77 57.38V58.09C39.5887 58.0904 39.409 58.1243 39.24 58.19C39.15 58.25 39.1 58.3 39.1 58.36C39.1 58.42 39.1 58.52 39.24 58.52C39.3982 58.618 39.5859 58.6569 39.77 58.63V60.81L38.09 60.91H37.91C37.91 60.91 37.81 60.97 37.72 60.97H37.52C37.52 60.97 37.42 60.85 37.42 60.69L37.24 60.04L39.29 59.93ZM39.82 56.2401H38.69V55.48H39.79L39.82 56.2401ZM39.82 57.2401H37.69V56.48H39.79L39.82 57.2401ZM39.82 61.14V62.02H39.69C39.41 62.12 39.31 62.23 39.31 62.39C39.31 62.55 39.41 62.67 39.69 62.78H39.84V63.64C39.4847 63.6134 39.1414 63.5001 38.84 63.31C38.6499 63.2413 38.4851 63.1167 38.3672 62.9525C38.2494 62.7882 38.1841 62.5921 38.18 62.39C38.1841 62.1879 38.2494 61.9919 38.3672 61.8276C38.4851 61.6634 38.6499 61.5387 38.84 61.47C39.1458 61.2894 39.4868 61.1769 39.84 61.14" fill="white"/>
<path d="M51.69 63.42V62.34H52.3701V63.42M51.69 61.42V55.42H51.98C52.0422 55.4513 52.1104 55.4684 52.18 55.47L52.27 55.58C52.27 55.58 52.27 55.5801 52.27 55.7401V55.9L52.21 56.12V58.18H53.21V59.32H52.21V61.38L51.69 61.42ZM50.1201 55.89V56.89H47.48V59.06H47.77C48.2008 59.0699 48.6319 59.0499 49.06 59C49.5608 58.9629 50.0585 58.8928 50.55 58.79L50.69 59.96C50.121 60.0642 49.5469 60.1376 48.97 60.18C48.44 60.18 47.87 60.18 47.34 60.18H46.43V55.96L50.1201 55.89ZM51.69 55.46V61.46H51.07V55.46H51.69ZM51.69 62.29H48.0099V61.2L48.06 61.04V60.83C47.8908 60.7672 47.7089 60.7466 47.53 60.77H46.91V63.37H51.69V62.29Z" fill="white"/>
<path d="M53.1 51.58H8.88V53.11H53.1V51.58Z" fill="white"/>
<path d="M38.4 22.92H21.48V24.38H38.4V22.92Z" fill="white"/>
<path d="M39.35 35.5C38.7788 35.5 38.2103 35.5774 37.66 35.73L36.6 33.4V33.34C36.5496 33.1952 36.4548 33.0699 36.3292 32.9819C36.2035 32.894 36.0534 32.8478 35.9 32.85H25.79L27.37 29.57H30.05C30.1481 29.57 30.2423 29.5311 30.3116 29.4617C30.381 29.3923 30.42 29.2982 30.42 29.2V28.0501C30.42 27.9519 30.381 27.8578 30.3116 27.7884C30.2423 27.719 30.1481 27.68 30.05 27.68H26.69C26.5423 27.6735 26.3959 27.7097 26.2682 27.7842C26.1406 27.8587 26.0371 27.9683 25.97 28.1L22.41 35.52V35.6C20.8431 35.1225 19.1535 35.2561 17.6811 35.974C16.2087 36.6919 15.0629 37.9407 14.4741 39.4693C13.8852 40.9979 13.8972 42.6927 14.5075 44.2128C15.1178 45.733 16.2811 46.9656 17.7635 47.6626C19.2458 48.3597 20.9372 48.4694 22.4972 47.9699C24.0572 47.4703 25.3701 46.3985 26.1718 44.97C26.9735 43.5416 27.2045 41.8625 26.8182 40.2706C26.432 38.6788 25.4572 37.2922 24.09 36.39L24.86 34.78H35.1L35.9 36.53C34.5837 37.3624 33.6124 38.6424 33.165 40.1342C32.7176 41.626 32.8241 43.2293 33.4651 44.6487C34.1061 46.0681 35.2384 47.2082 36.6534 47.859C38.0683 48.5097 39.6708 48.6274 41.1656 48.1903C42.6605 47.7532 43.9471 46.7908 44.7886 45.4802C45.6301 44.1697 45.9697 42.5992 45.7451 41.0581C45.5204 39.5169 44.7465 38.1087 43.5659 37.093C42.3852 36.0772 40.8774 35.5222 39.32 35.53M25.17 41.8001C25.1739 42.7289 24.902 43.638 24.3886 44.4121C23.8752 45.1862 23.1436 45.7905 22.2864 46.1482C21.4292 46.506 20.485 46.6011 19.5737 46.4216C18.6623 46.2421 17.8247 45.796 17.1672 45.1399C16.5097 44.4838 16.0619 43.6472 15.8804 42.7362C15.699 41.8252 15.7921 40.8809 16.148 40.023C16.5039 39.165 17.1066 38.432 17.8796 37.917C18.6526 37.402 19.5611 37.128 20.49 37.13C20.8611 37.1303 21.2307 37.1774 21.59 37.27L19.64 41.45C19.5326 41.6755 19.5191 41.9343 19.6026 42.1697C19.686 42.405 19.8596 42.5976 20.085 42.705C20.3105 42.8124 20.5693 42.8259 20.8047 42.7424C21.04 42.659 21.2326 42.4855 21.34 42.26L23.34 38.07C23.9219 38.502 24.3942 39.0646 24.719 39.7124C25.0438 40.3603 25.212 41.0754 25.21 41.8001M39.36 46.64C38.3649 46.6455 37.3941 46.3322 36.5899 45.7461C35.7857 45.16 35.1902 44.3319 34.8906 43.3829C34.5911 42.4339 34.6031 41.4139 34.9251 40.4723C35.2471 39.5307 35.8621 38.7169 36.68 38.15L38.6 42.39C38.7121 42.6104 38.902 42.7815 39.1328 42.8701C39.3637 42.9588 39.6191 42.9587 39.85 42.87C39.9633 42.8192 40.0654 42.7465 40.1505 42.6561C40.2356 42.5656 40.3019 42.4592 40.3456 42.343C40.3893 42.2268 40.4095 42.103 40.4051 41.979C40.4007 41.8549 40.3718 41.7328 40.32 41.62L38.41 37.4C38.7227 37.3361 39.0408 37.3026 39.36 37.3001C40.5985 37.3001 41.7864 37.7921 42.6622 38.6679C43.538 39.5436 44.03 40.7315 44.03 41.97C44.03 43.2086 43.538 44.3964 42.6622 45.2722C41.7864 46.148 40.5985 46.64 39.36 46.64Z" fill="white"/>
<path d="M38.61 30.35H33.22C33.0766 30.3831 32.9461 30.4576 32.8447 30.5643C32.7434 30.671 32.6757 30.8051 32.65 30.95C32.6414 31.1031 32.6811 31.2551 32.7637 31.3843C32.8463 31.5136 32.9674 31.6136 33.11 31.67L36.51 32.12C36.7626 32.1461 37.0179 32.1217 37.2609 32.048C37.5039 31.9744 37.7298 31.8529 37.9253 31.6909C38.1208 31.5289 38.2821 31.3295 38.3997 31.1044C38.5172 30.8793 38.5887 30.6331 38.61 30.38" fill="white"/>
</g>
<defs>
<clipPath id="clip0_8088_26">
<rect width="61.26" height="68.21" fill="white"/>
</clipPath>
</defs>
</svg>
