<svg width="67" height="67" viewBox="0 0 67 67" fill="none" xmlns="http://www.w3.org/2000/svg">
<g clip-path="url(#clip0_8072_196)">
<path d="M61.74 66.3701C62.3715 66.3767 62.9982 66.2584 63.5838 66.0219C64.1695 65.7853 64.7025 65.4353 65.1523 64.992C65.6022 64.5487 65.9599 64.0207 66.2049 63.4386C66.45 62.8565 66.5773 62.2317 66.5799 61.6001" stroke="#0054A0" stroke-width="0.45"/>
<path d="M66.58 61.6001V5.06006" stroke="#0054A0" stroke-width="0.45"/>
<path d="M66.5799 5.11005C66.5773 3.82813 66.0663 2.59961 65.1589 1.69409C64.2515 0.788577 63.0219 0.280027 61.74 0.280029" stroke="#0054A0" stroke-width="0.45"/>
<path d="M0.230008 61.6001C0.227338 62.2289 0.349604 62.8521 0.589627 63.4333C0.82965 64.0145 1.18273 64.5423 1.62832 64.986C2.07391 65.4298 2.60309 65.7806 3.18533 66.0182C3.76757 66.2558 4.39122 66.3754 5.02005 66.3701" stroke="#0054A0" stroke-width="0.45"/>
<path d="M5.02 66.3701H61.74" stroke="#0054A0" stroke-width="0.45"/>
<path d="M61.74 0.22998H5.02" stroke="#0054A0" stroke-width="0.45"/>
<path d="M5.01998 0.22998C4.38794 0.231285 3.76233 0.357389 3.17916 0.601074C2.59599 0.84476 2.06672 1.20125 1.62166 1.65002C1.17661 2.0988 0.824599 2.63101 0.585772 3.21619C0.346945 3.80136 0.225985 4.42797 0.229937 5.06" stroke="#0054A0" stroke-width="0.45"/>
<path d="M0.23 5.06006V61.6001" stroke="#0054A0" stroke-width="0.45"/>
<path d="M60.06 64.4201C61.2624 64.4121 62.4124 63.9276 63.2579 63.0727C64.1034 62.2178 64.5754 61.0624 64.5701 59.8601V6.74009C64.5714 6.14793 64.4555 5.56135 64.2292 5.01414C64.0029 4.46692 63.6706 3.96987 63.2514 3.55161C62.8323 3.13336 62.3344 2.80215 61.7867 2.57707C61.239 2.35198 60.6522 2.23745 60.06 2.24009H6.75999C5.55762 2.2321 4.40118 2.70139 3.54442 3.54502C2.68766 4.38866 2.20062 5.53774 2.19005 6.74009V59.8601C2.19794 61.0688 2.68221 62.2256 3.53783 63.0793C4.39345 63.9331 5.5513 64.4148 6.75999 64.4201" fill="#0054A0"/>
<path d="M6.47 49.3499V59.4799H60.34V43.2299L56.07 39.9199L51.88 42.8199V50.7999H49.87V54.2399H48.53V35.6599H47.6V33.1799H41.82V35.3799H40.57V45.0199H39.06V41.5799H33.4V34.1399L25.91 37.7199V48.1899H24.15V29.8699L20.79 24.9199L17.78 29.1799V50.3899H15.27V42.1999H11.24V44.3299H9.9V46.5299H8.06V49.3199L6.47 49.3499Z" fill="white"/>
<path d="M25.15 19.3H15.39V18.11H25.14L25.15 19.3ZM24.01 11.78H18.01V15.11H16.52V10.5601H23.98L24.01 11.78ZM24.0799 15.78H16.55V14.61H24.0799V15.78ZM20.99 18.4501H19.52V15.1401H20.99V18.4501Z" fill="white"/>
<path d="M32.06 14.8701C31.863 15.6396 31.5239 16.3654 31.06 17.0101C30.615 17.613 30.0227 18.0915 29.34 18.4001L28.43 17.1601C29.027 16.9084 29.5549 16.5175 29.97 16.0201C30.3859 15.5107 30.7016 14.9271 30.9 14.3001C31.1105 13.6373 31.2151 12.9455 31.2099 12.2501V10.6601H32.39V12.2501C32.402 13.1345 32.291 14.0163 32.06 14.8701ZM32.99 14.1901C33.1842 14.7936 33.4932 15.3539 33.9 15.8401C34.2986 16.3195 34.806 16.6967 35.38 16.9401L34.51 18.1401C33.8494 17.8413 33.2724 17.3845 32.8299 16.8101C32.3675 16.194 32.0279 15.4946 31.8299 14.7501C31.5962 13.9376 31.4817 13.0955 31.49 12.2501V10.6601H32.72V12.2501C32.7066 12.907 32.7978 13.5618 32.99 14.1901ZM37.4599 20.5401H35.9501V9.83008H37.4599V20.5401Z" fill="white"/>
<path d="M51.39 17.17H41.64V16H51.39V17.17ZM44.25 11.48H48.74V10.25H50.24V14.97H42.78V10.25H44.25V11.48ZM48.74 13.77V12.65H44.25V13.77H48.74ZM47.23 20.51H45.74V16.57H47.23V20.51Z" fill="white"/>
</g>
<defs>
<clipPath id="clip0_8072_196">
<rect width="66.81" height="66.6" fill="white"/>
</clipPath>
</defs>
</svg>
