<svg width="69" height="67" viewBox="0 0 69 67" fill="none" xmlns="http://www.w3.org/2000/svg">
<g clip-path="url(#clip0_8063_8932)">
<path d="M34.1583 1.87476C16.1755 2.04438 1.71735 16.3461 1.88819 33.808C2.05902 51.27 16.796 65.286 34.8417 65.1253C52.8874 64.9646 67.2826 50.6004 67.1117 33.1385C66.9409 15.6765 52.1501 1.65159 34.1583 1.89263" fill="white"/>
<path d="M34.1583 1.8747C16.1755 2.04432 1.71735 16.346 1.88819 33.808C2.05902 51.2699 16.796 65.286 34.8417 65.1253C52.8874 64.9646 67.2826 50.6004 67.1117 33.1384C66.9409 15.6764 52.1501 1.65151 34.1583 1.8747Z" stroke="#D20D18" stroke-width="4.2"/>
<path d="M27.145 32.576C27.145 32.576 31.9465 30.7906 31.8835 22.4613C31.8835 22.4613 30.9215 14.1945 23.3687 14.257C23.3687 14.257 14.9797 13.8553 15.0965 24.8271L19.8979 24.7645C19.8979 24.7645 20.1767 19.792 23.3237 19.7384C23.3237 19.7384 26.3987 19.2296 26.4617 24.5414C26.4617 24.5414 26.057 30.3085 20.4644 30.362L20.5184 35.3345C20.5184 35.3345 26.5156 35.0578 26.5786 41.8337C26.5786 41.8337 26.3988 47.1009 23.2608 47.1009C23.2608 47.1009 19.4394 46.2082 20.1767 41.6641L14.4672 41.7266C14.4672 41.7266 14.584 52.4394 23.7193 52.3502C23.7193 52.3502 31.4789 52.8591 32.405 41.8962C32.405 41.8962 32.5129 35.4417 27.145 32.576Z" fill="#9F9FA0"/>
<path d="M45.8112 51.3324H45.9191C50.7744 51.2788 54.5418 42.9674 54.4969 32.6831C54.371 22.6219 50.5496 14.4266 45.8112 14.257V19.7384C47.6094 19.9616 49.0121 25.7287 49.066 32.7367C49.129 39.9679 47.7533 45.851 45.9191 45.851H45.8112M45.5774 14.257C40.785 14.3105 36.9547 22.6219 37.0715 32.9063C37.1884 43.1906 41.0637 51.2788 45.8112 51.3324V45.8778C44.0938 45.6457 42.6192 39.941 42.5563 32.8884C42.4933 25.6483 43.923 19.7652 45.6943 19.7652H45.8112V14.2838L45.5774 14.257Z" fill="#9F9FA0"/>
</g>
<defs>
<clipPath id="clip0_8063_8932">
<rect width="69" height="67" fill="white"/>
</clipPath>
</defs>
</svg>
