<svg width="72" height="72" viewBox="0 0 72 72" fill="none" xmlns="http://www.w3.org/2000/svg">
<g clip-path="url(#clip0_8063_6886)">
<path d="M35.93 64.97C41.6933 64.9483 47.3209 63.2198 52.1028 60.0027C56.8846 56.7856 60.6063 52.224 62.7982 46.8938C64.99 41.5635 65.5537 35.7035 64.4182 30.0531C63.2827 24.4028 60.4989 19.2154 56.4181 15.1457C52.3372 11.076 47.1423 8.3064 41.4888 7.18637C35.8354 6.06634 29.9769 6.6461 24.6526 8.85251C19.3284 11.0589 14.7771 14.7931 11.5731 19.5837C8.36905 24.3743 6.65599 30.0067 6.65002 35.77C6.65001 39.6113 7.40793 43.4149 8.88037 46.9629C10.3528 50.5108 12.5108 53.7333 15.2308 56.4458C17.9507 59.1583 21.1791 61.3076 24.7311 62.7703C28.283 64.233 32.0887 64.9805 35.93 64.97Z" fill="#004A9C"/>
<path d="M35.93 71.37C42.9578 71.3424 49.8198 69.2335 55.6502 65.3095C61.4806 61.3856 66.0179 55.8224 68.6896 49.3222C71.3612 42.822 72.0474 35.6761 70.6616 28.7862C69.2757 21.8964 65.88 15.5715 60.903 10.6097C55.9259 5.64796 49.5905 2.27175 42.6964 0.907198C35.8023 -0.457356 28.6585 0.25092 22.1666 2.9426C15.6746 5.63428 10.1255 10.1887 6.2196 16.0312C2.31367 21.8736 0.226014 28.7422 0.220032 35.77C0.226592 40.4525 1.15553 45.0878 2.9538 49.4112C4.75207 53.7346 7.38439 57.6614 10.7005 60.9673C14.0166 64.2732 17.9515 66.8934 22.2805 68.6783C26.6094 70.4632 31.2475 71.3779 35.93 71.37Z" stroke="#D20D18" stroke-width="0.45"/>
<path d="M35.93 2.35003C29.3139 2.36585 22.8511 4.34269 17.3583 8.03069C11.8655 11.7187 7.58935 16.9523 5.07029 23.0701C2.55122 29.1878 1.90233 35.9149 3.20566 42.4014C4.50899 48.8878 7.70604 54.8422 12.3927 59.5121C17.0793 64.1819 23.0451 67.3576 29.5362 68.6377C36.0272 69.9178 42.752 69.2448 48.8607 66.7038C54.9693 64.1628 60.1876 59.8679 63.8559 54.3619C67.5242 48.856 69.4779 42.3861 69.47 35.77C69.4488 26.8922 65.9045 18.3858 59.6156 12.1195C53.3268 5.85318 44.8078 2.3394 35.93 2.35003ZM35.93 61.8801C30.7778 61.8583 25.7476 60.311 21.4739 57.4335C17.2002 54.5559 13.8746 50.477 11.9167 45.7114C9.9587 40.9457 9.45612 35.7069 10.4724 30.656C11.4886 25.6051 13.9782 20.9683 17.6269 17.3307C21.2756 13.6932 25.9199 11.2178 30.974 10.217C36.028 9.21623 41.2652 9.7348 46.0248 11.7073C50.7844 13.6799 54.8532 17.0179 57.7177 21.3004C60.5822 25.5829 62.114 30.6179 62.12 35.77C62.1147 39.2027 61.4329 42.6007 60.1136 45.7696C58.7942 48.9386 56.8631 51.8164 54.4308 54.2386C51.9984 56.6607 49.1125 58.5797 45.938 59.8857C42.7635 61.1918 39.3626 61.8592 35.93 61.85" fill="#D20D18"/>
<path d="M33.49 29.53L16.45 12.6L12.59 16.23L25.98 29.53" fill="#D20D18"/>
<path d="M45.9 41.96H38.39L55.92 59.43L59.78 55.8" fill="#D20D18"/>
<path d="M46.45 29.53L59.67 16.35L56.02 12.49L38.94 29.53" fill="#D20D18"/>
<path d="M26.46 41.96L12.69 55.69L16.34 59.54L33.98 41.96" fill="#D20D18"/>
<path d="M22.54 35.93V37.08H19.32V40.01H18.12V37.08H14.8V35.93M21.8 31.7V32.79H19.32C19.3354 32.9563 19.4141 33.1102 19.54 33.22C19.7229 33.4112 19.9445 33.5612 20.19 33.66C20.4869 33.8166 20.7984 33.9438 21.12 34.04C21.4953 34.1227 21.8765 34.1761 22.26 34.2C22.118 34.3508 21.9908 34.515 21.88 34.69C21.776 34.8627 21.6857 35.0432 21.61 35.23C20.9756 35.1536 20.3633 34.9496 19.81 34.63C19.3515 34.4557 18.9525 34.1538 18.66 33.76C18.3753 34.1479 18.0059 34.466 17.58 34.69C16.9998 34.999 16.376 35.2181 15.73 35.34C15.6399 35.1641 15.5292 34.9996 15.4 34.85C15.2876 34.6474 15.1423 34.4649 14.97 34.31C15.336 34.3108 15.7 34.2569 16.05 34.15C16.3702 34.0457 16.6812 33.9153 16.98 33.76C17.2337 33.6299 17.4556 33.4456 17.63 33.22C17.694 33.1671 17.7465 33.1016 17.7844 33.0277C17.8222 32.9537 17.8446 32.8729 17.85 32.79H15.46V31.7H21.8Z" fill="white"/>
<path d="M28.37 34.9C28.5047 34.9645 28.6508 35.0018 28.8 35.01C28.6454 35.1724 28.5172 35.358 28.42 35.56H28.37M28.37 40.01V39.09C28.6149 39.0605 28.8522 38.9859 29.07 38.87C29.1897 38.8357 29.296 38.7655 29.3746 38.669C29.4533 38.5725 29.5006 38.4542 29.51 38.33C29.51 38.05 29.35 37.89 29.07 37.73C28.8396 37.6646 28.6059 37.6112 28.37 37.57V36.57C28.945 36.5991 29.5043 36.7673 30 37.06C30.2278 37.1723 30.4196 37.346 30.5538 37.5616C30.6879 37.7772 30.759 38.0261 30.759 38.28C30.759 38.5339 30.6879 38.7828 30.5538 38.9984C30.4196 39.2141 30.2278 39.3878 30 39.5C29.5043 39.7928 28.945 39.9609 28.37 39.99M28.37 34.24H29.46V36.85H30.71V31.85C30.71 31.79 30.76 31.74 30.76 31.63C30.76 31.52 30.82 31.41 30.76 31.41C30.5489 31.35 30.3278 31.333 30.11 31.36H29.46V33.2H28.37V34.24ZM28.37 32.88H27.66V31.85H28.37V32.88ZM27.66 34.35C27.7546 34.4574 27.866 34.5487 27.99 34.62C28.1028 34.7126 28.2316 34.7837 28.37 34.83V35.54C28.2466 35.705 28.1551 35.8915 28.1 36.09C27.945 36.0105 27.7977 35.9168 27.66 35.81V34.35ZM28.37 34.24H27.93V33.15H28.37V34.24ZM28.37 36.57V37.57C28.1341 37.5434 27.896 37.5434 27.66 37.57V36.57C27.88 36.57 28.15 36.57 28.37 36.57ZM28.37 39.07V39.99C28.134 40.0148 27.8961 40.0148 27.66 39.99V39.07C27.93 39.07 28.15 39.02 28.37 39.02M27.66 32.83H26.84V33C26.8528 33.1646 26.8898 33.3263 26.95 33.48C27.078 33.6776 27.2254 33.8618 27.39 34.03C27.4563 34.141 27.5491 34.2338 27.66 34.3V35.85C27.4003 35.723 27.1609 35.5578 26.95 35.36C26.6641 35.1205 26.4265 34.8286 26.25 34.5C26.1055 34.8375 25.8786 35.1332 25.59 35.36C25.238 35.7333 24.8124 36.0296 24.34 36.23C24.2336 36.0366 24.1062 35.8555 23.96 35.69L23.47 35.2C23.7803 35.1536 24.077 35.0411 24.34 34.87C24.5993 34.7219 24.838 34.5403 25.05 34.33C25.2291 34.1371 25.3775 33.9179 25.49 33.68C25.5961 33.4982 25.6674 33.298 25.7 33.09V32.92H24.07V31.85H27.66V32.83ZM27.66 36.47V37.47C27.162 37.4615 26.6657 37.5324 26.19 37.68C25.92 37.84 25.75 38 25.75 38.28C25.7621 38.4033 25.8103 38.5203 25.8886 38.6164C25.9669 38.7124 26.0717 38.7832 26.19 38.82C26.6528 39.0216 27.1558 39.114 27.66 39.09V40.01C26.8244 40.0693 25.9897 39.8815 25.26 39.47C25.0322 39.3578 24.8404 39.184 24.7062 38.9684C24.5721 38.7528 24.501 38.504 24.501 38.25C24.501 37.9961 24.5721 37.7472 24.7062 37.5316C24.8404 37.316 25.0322 37.1422 25.26 37.03C25.9984 36.6415 26.8264 36.4552 27.66 36.49" fill="white"/>
<path d="M37.46 33.22V34.31H35.77C35.7745 34.9911 35.9462 35.6607 36.27 36.26C36.4958 36.8665 36.9373 37.3686 37.51 37.67C37.3568 37.8032 37.2132 37.9468 37.08 38.1C36.9437 38.2765 36.8168 38.46 36.7 38.65C36.3492 38.3571 36.0367 38.0211 35.77 37.65C35.4537 37.2327 35.2318 36.7516 35.12 36.24C34.9272 36.7524 34.65 37.229 34.3 37.65C33.9894 38.0796 33.6031 38.449 33.16 38.74C33.0493 38.5649 32.922 38.4009 32.78 38.25C32.6474 38.0746 32.5002 37.9107 32.34 37.76C32.9845 37.4608 33.5193 36.9679 33.87 36.35C34.2768 35.7385 34.5022 35.0243 34.52 34.29H32.67V33.2M36.32 32.71H33.81V31.65H36.32V32.71ZM39.15 31.41C39.15 31.47 39.15 31.52 39.15 31.63C39.108 31.6955 39.087 31.7722 39.09 31.85C39.09 31.9 39.09 32.01 39.09 32.12V35.12H40.09V36.31H39.09V40H37.89V31.37H38.6C38.8014 31.3462 39.0054 31.3632 39.2 31.42" fill="white"/>
<path d="M48.73 35.67H44.86V34.53H46.32C46.38 34.26 46.43 33.93 46.49 33.6C46.5274 33.3116 46.5441 33.0208 46.54 32.73H44.85V31.6H47.85C47.8587 32.0708 47.8387 32.5416 47.79 33.01C47.7694 33.5196 47.716 34.0273 47.63 34.53H48.72M44.85 39.79V38.79H46.76V37.6H44.85V36.6H47.96V40.02H46.76V39.8L44.85 39.79ZM44.85 35.67H40.93V34.53H44.85V35.67ZM44.85 32.73H41.75V31.6H44.85V32.73ZM44.85 36.59V37.59H43V38.85H44.85V39.85H43V40.07H41.8V36.65L44.85 36.59Z" fill="white"/>
<path d="M54.82 32.08V33.22H53.08V33.55C53.0781 34.388 53.2448 35.2177 53.57 35.99C53.8269 36.702 54.3307 37.2981 54.99 37.67C54.8191 37.8099 54.6707 37.9751 54.55 38.16C54.4079 38.3083 54.2838 38.4728 54.18 38.65C53.7295 38.34 53.3537 37.9334 53.08 37.46C52.7589 36.9472 52.5541 36.3704 52.48 35.77C52.3324 36.3824 52.093 36.9691 51.77 37.51C51.4655 37.9897 51.0797 38.4127 50.63 38.76L50.15 38.27C49.9987 38.1097 49.8311 37.9657 49.65 37.84C50.3687 37.4004 50.9397 36.7562 51.29 35.99C51.6585 35.2281 51.8597 34.3961 51.88 33.55V33.22H50.2V32.08M56.95 31.43C56.95 31.43 56.95 31.49 56.95 31.6L56.89 31.76V40.01H55.7V31.38H56.4C56.5849 31.3595 56.7719 31.3764 56.95 31.43Z" fill="white"/>
</g>
<defs>
<clipPath id="clip0_8063_6886">
<rect width="71.88" height="71.59" fill="white"/>
</clipPath>
</defs>
</svg>
