<svg width="75" height="60" viewBox="0 0 75 60" fill="none" xmlns="http://www.w3.org/2000/svg">
<g clip-path="url(#clip0_8063_9446)">
<path d="M6.3093 21.9882C7.89058 21.9882 9.11607 21.0535 9.93833 19.1842C10.8437 16.8248 11.2529 14.3035 11.1401 11.7783C11.2505 9.24544 10.8415 6.71682 9.93833 4.34855C9.10026 2.47924 7.89058 1.54456 6.3093 1.54456C4.72803 1.54456 3.4999 2.47924 2.62492 4.34855C1.05443 9.16862 1.05443 14.3641 2.62492 19.1842C3.47354 21.0535 4.70167 21.9882 6.3093 21.9882ZM4.72803 6.60595C5.06009 5.50496 5.57401 4.95053 6.3093 4.95053C7.0446 4.95053 7.50316 5.50496 7.83523 6.60595C8.2389 8.29888 8.41177 10.0388 8.34914 11.7783C8.41405 13.5099 8.24114 15.2423 7.83523 16.9268C7.50316 18.0357 6.99716 18.5822 6.3093 18.5822C5.62145 18.5822 5.09172 18.0357 4.72803 16.9268C4.34978 15.2381 4.19033 13.5077 4.25364 11.7783C4.19204 10.041 4.35146 8.30289 4.72803 6.60595Z" fill="white"/>
<path d="M6.3093 21.9882C7.89058 21.9882 9.11607 21.0535 9.93833 19.1842C10.8437 16.8248 11.2529 14.3035 11.1401 11.7783C11.2505 9.24544 10.8415 6.71682 9.93833 4.34855C9.10026 2.47924 7.89058 1.54456 6.3093 1.54456C4.72803 1.54456 3.4999 2.47924 2.62492 4.34855C1.05443 9.16862 1.05443 14.3641 2.62492 19.1842C3.47354 21.0535 4.70167 21.9882 6.3093 21.9882ZM4.72803 6.60595C5.06009 5.50496 5.57401 4.95053 6.3093 4.95053C7.0446 4.95053 7.50316 5.50496 7.83523 6.60595C8.2389 8.29888 8.41177 10.0388 8.34914 11.7783C8.41405 13.5099 8.24114 15.2423 7.83523 16.9268C7.50316 18.0357 6.99716 18.5822 6.3093 18.5822C5.62145 18.5822 5.09172 18.0357 4.72803 16.9268C4.34978 15.2381 4.19033 13.5077 4.25364 11.7783C4.19723 10.0403 4.36195 8.30221 4.74383 6.60595H4.72803Z" stroke="#231916" stroke-width="0.53"/>
<path d="M14.864 26.3446H17.6866V2.58221C17.6882 2.31666 17.712 2.0517 17.7578 1.79013C17.7578 1.64756 17.8289 1.45739 17.8922 1.21976C17.9554 0.982138 17.9949 0.815805 18.0107 0.728676C18.0148 0.675805 18.0044 0.62285 17.9807 0.575424C17.957 0.527998 17.921 0.487906 17.8764 0.459397C17.7119 0.364218 17.5281 0.307397 17.3387 0.293091C17.0857 0.293091 16.722 0.293091 16.2397 0.293091H14.864V9.85344H11.8675V13.1327H14.864" fill="white"/>
<path d="M14.864 26.3446H17.6866V2.58221C17.6882 2.31666 17.712 2.0517 17.7578 1.79013C17.7578 1.64756 17.8289 1.45739 17.8922 1.21976C17.9554 0.982138 17.9949 0.815805 18.0107 0.728676C18.0148 0.675805 18.0044 0.62285 17.9807 0.575424C17.957 0.527998 17.921 0.487906 17.8764 0.459397C17.7119 0.364218 17.5281 0.307397 17.3387 0.293091C17.0857 0.293091 16.722 0.293091 16.2397 0.293091H14.864V9.85344H11.8675V13.1327H14.864V26.3446Z" stroke="#231916" stroke-width="0.53"/>
<path d="M45.8254 2.04349C45.8132 1.85623 45.8132 1.6684 45.8254 1.48115C45.8254 1.36233 45.8808 1.22764 45.9203 1.03754C46.0231 0.696942 46.0231 0.49097 45.9203 0.411762C45.5196 0.260145 45.0894 0.203253 44.6632 0.245457H42.9633V19.4692H45.7938" fill="white"/>
<path d="M45.8254 2.04349C45.8132 1.85623 45.8132 1.6684 45.8254 1.48115C45.8254 1.36233 45.8808 1.22764 45.9203 1.03754C46.0231 0.696942 46.0231 0.49097 45.9203 0.411762C45.5196 0.260145 45.0894 0.203253 44.6632 0.245457H42.9633V19.4692H45.7938L45.8254 2.04349Z" stroke="#231916" stroke-width="0.53"/>
<path d="M36.3219 15.9446C37.8246 15.8516 39.3211 15.677 40.8049 15.4218L40.5361 12.2535C39.3659 12.4356 38.1246 12.5703 36.8121 12.6654C35.7606 12.7366 34.7249 12.7683 33.7049 12.7683H32.9143V10.0515H39.4054V1.48914H30.0996V4.65745H36.6066V6.89107H30.0996V16.0396H32.1395C33.7207 16.0396 35.1044 16.0396 36.3061 15.9287" fill="white"/>
<path d="M36.3219 15.9446C37.8246 15.8516 39.3211 15.677 40.8049 15.4218L40.5361 12.2535C39.3659 12.4356 38.1246 12.5703 36.8121 12.6654C35.7606 12.7366 34.7249 12.7683 33.7049 12.7683H32.9143V10.0515H39.4054V1.48914H30.0996V4.65745H36.6066V6.89107H30.0996V16.0396H32.1395C33.7366 16.0555 35.1202 16.0159 36.3219 15.9446Z" stroke="#231916" stroke-width="0.53"/>
<path d="M34.124 18.6772C34.1417 18.5189 34.1734 18.3626 34.2188 18.2099C34.3058 17.8535 34.3058 17.6079 34.2188 17.505C33.8154 17.3321 33.3742 17.2666 32.938 17.3149H31.2777V25.6476H46.0468V22.2416H34.0528V19.2159C34.0408 19.0365 34.0408 18.8566 34.0528 18.6772" fill="white"/>
<path d="M34.124 18.6772C34.1417 18.5189 34.1734 18.3626 34.2188 18.2099C34.3058 17.8535 34.3058 17.6079 34.2188 17.505C33.8154 17.3321 33.3742 17.2666 32.938 17.3149H31.2777V25.6476H46.0468V22.2416H34.0528V19.2159C34.0643 19.0349 34.0881 18.8549 34.124 18.6772Z" stroke="#231916" stroke-width="0.53"/>
<path d="M62.587 21.9882C64.1682 21.9882 65.3753 21.0535 66.2081 19.1842C66.9987 17.4258 67.4099 14.9545 67.4099 11.7783C67.4099 8.60202 67.0145 6.13073 66.2081 4.34855C65.4016 2.56637 64.1603 1.54456 62.587 1.54456C61.0136 1.54456 59.7486 2.47924 58.9026 4.34855C58.0566 6.21785 57.7166 8.58617 57.7166 11.7783C57.6035 14.3021 58.0071 16.8224 58.9026 19.1842C59.7459 21.0535 60.9741 21.9882 62.587 21.9882ZM61.0057 6.60595C61.3377 5.50496 61.8517 4.95053 62.5474 4.95053C63.2432 4.95053 63.7413 5.50496 64.0734 6.60595C64.4845 8.2977 64.6601 10.0383 64.5952 11.7783C64.6624 13.5104 64.4868 15.2435 64.0734 16.9268C63.7413 18.0357 63.2353 18.5822 62.5474 18.5822C61.8596 18.5822 61.3377 18.0357 61.0057 16.9268C60.6274 15.2381 60.468 13.5077 60.5313 11.7783C60.4697 10.041 60.6291 8.30289 61.0057 6.60595Z" fill="white"/>
<path d="M62.587 21.9882C64.1682 21.9882 65.3753 21.0535 66.2081 19.1842C66.9987 17.4258 67.4099 14.9545 67.4099 11.7783C67.4099 8.60202 67.0145 6.13073 66.2081 4.34855C65.4016 2.56637 64.1603 1.54456 62.587 1.54456C61.0136 1.54456 59.7486 2.47924 58.9026 4.34855C58.0566 6.21785 57.7166 8.58617 57.7166 11.7783C57.6035 14.3021 58.0071 16.8224 58.9026 19.1842C59.7301 21.0535 60.9582 21.9882 62.587 21.9882ZM61.0057 6.60595C61.3377 5.50496 61.8517 4.95053 62.5474 4.95053C63.2432 4.95053 63.7413 5.50496 64.0734 6.60595C64.4845 8.2977 64.6601 10.0383 64.5952 11.7783C64.6624 13.5104 64.4868 15.2435 64.0734 16.9268C63.7413 18.0357 63.2353 18.5822 62.5474 18.5822C61.8596 18.5822 61.3377 18.0357 61.0057 16.9268C60.6274 15.2381 60.468 13.5077 60.5313 11.7783C60.4749 10.0403 60.6396 8.30221 61.0215 6.60595H61.0057Z" stroke="#231916" stroke-width="0.53"/>
<path d="M73.9563 2.04355C73.9551 1.82582 73.9736 1.60846 74.0117 1.39409C74.0368 1.23643 74.0711 1.08032 74.1145 0.92669C74.2041 0.62042 74.2041 0.430344 74.1145 0.356416C73.7097 0.222803 73.2817 0.174225 72.8574 0.2138H71.1338V26.3524H73.9563" fill="white"/>
<path d="M73.9563 2.04355C73.9551 1.82582 73.9736 1.60846 74.0117 1.39409C74.0368 1.23643 74.0711 1.08032 74.1145 0.92669C74.2041 0.62042 74.2041 0.430344 74.1145 0.356416C73.7097 0.222803 73.2817 0.174225 72.8574 0.2138H71.1338V26.3524H73.9563V2.04355Z" stroke="#231916" stroke-width="0.53"/>
<path d="M10.555 50.3604C10.5531 50.1348 10.5717 49.9094 10.6104 49.6871C10.6437 49.5023 10.6886 49.3197 10.7448 49.1406C10.7872 48.999 10.8112 48.8527 10.8159 48.705H16.6587V36.7367C16.6509 36.6101 16.6509 36.483 16.6587 36.3564C16.6705 36.2459 16.6944 36.137 16.7299 36.0317C16.7932 35.699 16.7773 35.501 16.6746 35.4297C16.2798 35.2556 15.8459 35.19 15.4174 35.2396H13.8362V38.9703H5.03635V36.6812C5.0285 36.5546 5.0285 36.4276 5.03635 36.301C5.06761 36.1945 5.09141 36.086 5.10753 35.9762C5.18659 35.6831 5.17076 35.4931 5.06798 35.4059C4.68193 35.2511 4.26373 35.194 3.85039 35.2396H2.19007V48.705H7.72454V53.1406H0.21347V56.6258H18.5326V53.1406H10.555M5.02054 42.2019H13.7808V45.4891H5.03635L5.02054 42.2019Z" fill="white"/>
<path d="M10.555 50.3604C10.5531 50.1348 10.5717 49.9094 10.6104 49.6871C10.6437 49.5023 10.6886 49.3197 10.7448 49.1406C10.7872 48.999 10.8112 48.8527 10.8159 48.705H16.6587V36.7367C16.6509 36.6101 16.6509 36.483 16.6587 36.3564C16.6705 36.2459 16.6944 36.137 16.7299 36.0317C16.7932 35.699 16.7773 35.501 16.6746 35.4297C16.2798 35.2556 15.8459 35.19 15.4174 35.2396H13.8362V38.9703H5.03635V36.6812C5.0285 36.5546 5.0285 36.4276 5.03635 36.301C5.06761 36.1945 5.09141 36.086 5.10753 35.9762C5.18659 35.6831 5.17076 35.4931 5.06798 35.4059C4.68193 35.2511 4.26373 35.194 3.85039 35.2396H2.19007V48.705H7.72454V53.1406H0.21347V56.6258H18.5246V53.1406H10.555V50.3604ZM5.02054 42.2019H13.7808V45.4891H5.03635L5.02054 42.2019Z" stroke="#231916" stroke-width="0.53"/>
<path d="M29.894 51.4773C31.0935 51.3993 32.2531 51.0148 33.2622 50.3604C33.8316 49.9945 34.295 49.485 34.6058 48.883C34.9167 48.281 35.064 47.6078 35.0332 46.9308C35.0501 46.2432 34.8911 45.5628 34.5715 44.9541C34.2518 44.3455 33.782 43.8289 33.2068 43.4535C31.8235 42.5806 30.2069 42.1522 28.5737 42.2258C26.9046 42.1426 25.2499 42.5709 23.8299 43.4535C23.2598 43.8314 22.7962 44.3496 22.4833 44.9584C22.1704 45.5672 22.0188 46.2464 22.043 46.9308C22.0104 47.6037 22.1528 48.2736 22.4563 48.8748C22.7598 49.476 23.2141 49.988 23.7745 50.3604C24.761 50.9913 25.8885 51.3669 27.0557 51.4535V53.9089H19.3469V57.1723H37.6502V53.9089H29.8624M24.7865 46.9941C24.7903 46.6951 24.8784 46.4034 25.0407 46.1525C25.203 45.9016 25.4328 45.7018 25.7037 45.5762C26.5629 45.1842 27.5045 45.0076 28.4472 45.0615C29.4053 45.0058 30.3627 45.1824 31.2381 45.5762C31.5111 45.7046 31.7418 45.9086 31.9029 46.164C32.064 46.4194 32.1488 46.7157 32.1474 47.0179C32.1379 47.2907 32.0459 47.5542 31.8835 47.7735C31.7211 47.9928 31.4961 48.1574 31.2381 48.2455C30.3523 48.6003 29.3998 48.7572 28.4472 48.705C27.5101 48.7556 26.5734 48.5987 25.7037 48.2455C25.4453 48.1498 25.2207 47.9801 25.0577 47.7576C24.8946 47.5352 24.8004 47.2697 24.7865 46.9941Z" fill="white"/>
<path d="M29.894 51.4773C31.0935 51.3993 32.2531 51.0148 33.2622 50.3604C33.8316 49.9945 34.295 49.485 34.6058 48.883C34.9167 48.281 35.064 47.6078 35.0332 46.9308C35.0501 46.2432 34.8911 45.5628 34.5715 44.9541C34.2518 44.3455 33.782 43.8289 33.2068 43.4535C31.8235 42.5806 30.2069 42.1522 28.5737 42.2258C26.9046 42.1426 25.2499 42.5709 23.8299 43.4535C23.2598 43.8314 22.7962 44.3496 22.4833 44.9584C22.1704 45.5672 22.0188 46.2464 22.043 46.9308C22.0104 47.6037 22.1528 48.2736 22.4563 48.8748C22.7598 49.476 23.2141 49.988 23.7745 50.3604C24.761 50.9913 25.8885 51.3669 27.0557 51.4535V53.9089H19.3469V57.1723H37.6502V53.9089H29.8624L29.894 51.4773ZM24.8182 47.002C24.8219 46.7031 24.91 46.4113 25.0723 46.1604C25.2346 45.9095 25.4645 45.7097 25.7353 45.5842C26.5946 45.1921 27.5362 45.0154 28.4788 45.0693C29.4369 45.0137 30.3943 45.1903 31.2698 45.5842C31.5428 45.7126 31.7734 45.9165 31.9345 46.1719C32.0956 46.4274 32.1804 46.7237 32.179 47.0258C32.1696 47.2987 32.0775 47.5622 31.9152 47.7814C31.7528 48.0007 31.5277 48.1653 31.2698 48.2535C30.3839 48.6083 29.4314 48.7651 28.4788 48.7129C27.5417 48.7635 26.605 48.6066 25.7353 48.2535C25.4769 48.1577 25.2523 47.988 25.0893 47.7656C24.9263 47.5431 24.832 47.2777 24.8182 47.002Z" stroke="#231916" stroke-width="0.53"/>
<path d="M36.4564 38.5585H20.5803V41.4971H36.4564V38.5585Z" fill="white"/>
<path d="M36.4564 38.5585H20.5803V41.4971H36.4564V38.5585Z" stroke="#231916" stroke-width="0.53"/>
<path d="M32.345 34.2336H24.7154V37.1723H32.345V34.2336Z" fill="white"/>
<path d="M32.345 34.2336H24.7154V37.1723H32.345V34.2336Z" stroke="#231916" stroke-width="0.53"/>
<path d="M54.728 40.0634C54.8466 38.4158 54.902 36.6416 54.902 34.7565H40.2672V38.1544H51.7473C51.7473 39.3029 51.692 40.5307 51.5813 41.7505C51.4785 42.7723 51.3362 43.8574 51.1781 44.9901H38.5278V48.3961H46.2208V59.802H49.0275V48.3961H56.8469V44.9901H54.1983C54.4434 43.3346 54.6331 41.695 54.7517 40.0634" fill="white"/>
<path d="M54.728 40.0634C54.8466 38.4158 54.902 36.6416 54.902 34.7565H40.2672V38.1544H51.7473C51.7473 39.3029 51.692 40.5307 51.5813 41.7505C51.4785 42.7723 51.3362 43.8574 51.1781 44.9901H38.5278V48.3961H46.2208V59.802H49.0275V48.3961H56.8469V44.9901H54.1983C54.4197 43.3267 54.6094 41.6871 54.728 40.0634Z" stroke="#231916" stroke-width="0.53"/>
<path d="M63.4409 47.5484C64.2035 47.5777 64.9607 47.4094 65.6394 47.0598C66.3181 46.7101 66.8952 46.191 67.315 45.5525C68.1282 44.1527 68.5566 42.5621 68.5566 40.9425C68.5566 39.323 68.1282 37.7324 67.315 36.3327C66.8769 35.7116 66.2964 35.2048 65.6222 34.8551C64.9481 34.5053 64.2 34.3229 63.4409 34.3229C62.6817 34.3229 61.9336 34.5053 61.2595 34.8551C60.5854 35.2048 60.0048 35.7116 59.5667 36.3327C58.7539 37.7383 58.3259 39.3339 58.3259 40.9584C58.3259 42.5828 58.7539 44.1785 59.5667 45.5841C59.9919 46.2151 60.571 46.7268 61.249 47.0706C61.9271 47.4144 62.6816 47.5789 63.4409 47.5484ZM61.7015 38.5901C61.8821 38.2939 62.1388 38.0516 62.4448 37.8886C62.7507 37.7256 63.0947 37.6478 63.4409 37.6633C63.7889 37.6499 64.1343 37.7285 64.4424 37.8912C64.7505 38.0539 65.0104 38.2949 65.1961 38.5901C65.6044 39.3125 65.7965 40.1374 65.7495 40.9663C65.7926 41.7948 65.6007 42.6187 65.1961 43.3425C65.0026 43.6284 64.7422 43.8625 64.4376 44.0243C64.133 44.1861 63.7935 44.2707 63.4488 44.2707C63.104 44.2707 62.7645 44.1861 62.4599 44.0243C62.1553 43.8625 61.8949 43.6284 61.7015 43.3425C61.3386 42.6031 61.15 41.7902 61.15 40.9663C61.15 40.1424 61.3386 39.3295 61.7015 38.5901Z" fill="white"/>
<path d="M63.4409 47.5484C64.2035 47.5777 64.9607 47.4094 65.6394 47.0598C66.3181 46.7101 66.8952 46.191 67.315 45.5525C68.1282 44.1527 68.5566 42.5621 68.5566 40.9425C68.5566 39.323 68.1282 37.7324 67.315 36.3327C66.8769 35.7116 66.2964 35.2048 65.6222 34.8551C64.9481 34.5053 64.2 34.3229 63.4409 34.3229C62.6817 34.3229 61.9336 34.5053 61.2595 34.8551C60.5854 35.2048 60.0048 35.7116 59.5667 36.3327C58.7539 37.7383 58.3259 39.3339 58.3259 40.9584C58.3259 42.5828 58.7539 44.1785 59.5667 45.5841C59.9919 46.2151 60.571 46.7268 61.249 47.0706C61.9271 47.4144 62.6816 47.5789 63.4409 47.5484ZM61.7015 38.5901C61.8821 38.2939 62.1388 38.0516 62.4448 37.8886C62.7507 37.7256 63.0947 37.6478 63.4409 37.6633C63.7889 37.6499 64.1343 37.7285 64.4424 37.8912C64.7505 38.0539 65.0104 38.2949 65.1961 38.5901C65.6044 39.3125 65.7965 40.1374 65.7495 40.9663C65.7926 41.7948 65.6007 42.6187 65.1961 43.3425C65.0026 43.6284 64.7422 43.8625 64.4376 44.0243C64.133 44.1861 63.7935 44.2707 63.4488 44.2707C63.104 44.2707 62.7645 44.1861 62.4599 44.0243C62.1553 43.8625 61.8949 43.6284 61.7015 43.3425C61.3386 42.6031 61.15 41.7902 61.15 40.9663C61.15 40.1424 61.3386 39.3295 61.7015 38.5901Z" stroke="#231916" stroke-width="0.53"/>
<path d="M73.4187 33.6635H71.7189V36.6812H68.5563V40.008H71.7189V42.2654H68.5563V45.608H71.7189V48.4912H74.5414V35.6119C74.5434 35.4123 74.5645 35.2134 74.6047 35.0179C74.6047 34.907 74.6679 34.7565 74.7154 34.5585C74.8181 34.1941 74.8181 33.9644 74.7154 33.8772C74.3077 33.6994 73.8601 33.6338 73.4187 33.6871" fill="white"/>
<path d="M73.4187 33.6634H71.7189V36.6812H68.5563V40.008H71.7189V42.2654H68.5563V45.6079H71.7189V48.4911H74.5414V35.6119C74.5434 35.4123 74.5645 35.2133 74.6047 35.0178C74.6047 34.9069 74.6679 34.7565 74.7154 34.5585C74.8181 34.1941 74.8181 33.9643 74.7154 33.8772C74.3099 33.6913 73.8622 33.6175 73.4187 33.6634Z" stroke="#231916" stroke-width="0.53"/>
<path d="M59.7723 53.4178H71.7188V59.7941H74.5414V50.0436H59.7723" fill="white"/>
<path d="M59.7723 53.4178H71.7188V59.7941H74.5414V50.0436H59.7723V53.4178Z" stroke="#231916" stroke-width="0.53"/>
</g>
<defs>
<clipPath id="clip0_8063_9446">
<rect width="75" height="60" fill="white"/>
</clipPath>
</defs>
</svg>
