<svg width="67" height="67" viewBox="0 0 67 67" fill="none" xmlns="http://www.w3.org/2000/svg">
<g clip-path="url(#clip0_8063_7111)">
<path d="M33.27 66.1C39.7828 66.0881 46.1459 64.1459 51.5551 60.5187C56.9644 56.8916 61.1771 51.7423 63.6607 45.7217C66.1444 39.7011 66.7876 33.0794 65.509 26.6933C64.2304 20.3073 61.0875 14.4436 56.4774 9.84324C51.8673 5.2429 45.9969 2.1124 39.6081 0.847388C33.2194 -0.417624 26.599 0.239623 20.5837 2.73606C14.5683 5.2325 9.42806 9.45606 5.81241 14.873C2.19676 20.29 0.268024 26.6572 0.269991 33.17C0.28853 41.91 3.77348 50.2857 9.96018 56.4593C16.1469 62.6328 24.53 66.1 33.27 66.1Z" stroke="#004A9C" stroke-width="0.45"/>
<path d="M1.58997 33.17C1.57018 26.9 3.41133 20.7652 6.88032 15.5423C10.3493 10.3195 15.2901 6.24337 21.0771 3.83024C26.8641 1.41712 33.237 0.77549 39.3889 1.98655C45.5408 3.19762 51.195 6.20694 55.6355 10.6335C60.076 15.06 63.1032 20.7046 64.3337 26.8526C65.5643 33.0007 64.9427 39.3756 62.5479 45.1701C60.1531 50.9647 56.0927 55.9184 50.8808 59.4039C45.6689 62.8894 39.5399 64.7499 33.27 64.75C29.1159 64.7579 25.001 63.9471 21.1603 62.3641C17.3197 60.7811 13.8286 58.4568 10.8866 55.5241C7.94458 52.5914 5.60926 49.1076 4.0141 45.272C2.41895 41.4364 1.59522 37.324 1.58997 33.17Z" fill="#004A9C"/>
<path d="M39.48 52.49H48.35V34.49C48.35 29.55 43.35 22.88 38.01 22.88H29.08C28.37 22.88 27.77 22.55 28.59 21.88C29.41 21.21 30.27 19.0099 29.3 18.0899C28.33 17.1699 27.88 17.22 26.2 18.31L13.29 27.8C12.42 28.39 12.81 28.39 13.4 28.73L26.47 36.81C27.17 37.13 27.99 38.06 28.97 36.7C29.79 35.51 28.97 34.1 27.97 33.12C26.97 32.14 26.72 31.6 28.41 31.71H34.89C36.79 31.6 39.46 33.01 39.46 38V52.55" fill="white"/>
</g>
<defs>
<clipPath id="clip0_8063_7111">
<rect width="66.54" height="66.33" fill="white"/>
</clipPath>
</defs>
</svg>
