<svg width="73" height="62" viewBox="0 0 73 62" fill="none" xmlns="http://www.w3.org/2000/svg">
<g clip-path="url(#clip0_8063_9228)">
<path d="M0.1366 0V61.7676" stroke="#231916" stroke-width="0.41"/>
<path d="M70.3294 2.61755H72.7268" stroke="#231916" stroke-width="0.41"/>
<path d="M65.3366 2.61755H67.7682" stroke="#231916" stroke-width="0.41"/>
<path d="M60.0843 2.61755H62.509" stroke="#231916" stroke-width="0.41"/>
<path d="M54.4631 2.61755H56.8605" stroke="#231916" stroke-width="0.41"/>
<path d="M48.1248 2.61755H50.5563" stroke="#231916" stroke-width="0.41"/>
<path d="M41.8206 2.61755H44.2522" stroke="#231916" stroke-width="0.41"/>
<path d="M35.5165 2.61755H37.9138" stroke="#231916" stroke-width="0.41"/>
<path d="M29.7314 2.61755H32.1287" stroke="#231916" stroke-width="0.41"/>
<path d="M22.8671 2.61755H25.2987" stroke="#231916" stroke-width="0.41"/>
<path d="M16.8225 2.61755H19.254" stroke="#231916" stroke-width="0.41"/>
<path d="M11.174 2.61755H13.6055" stroke="#231916" stroke-width="0.41"/>
<path d="M5.52554 2.61755H7.95705" stroke="#231916" stroke-width="0.41"/>
<path d="M0.437126 2.61755H2.83449" stroke="#231916" stroke-width="0.41"/>
<path d="M70.3294 0.813232H72.7268" stroke="#231916" stroke-width="0.41"/>
<path d="M65.3366 0.813232H67.7682" stroke="#231916" stroke-width="0.41"/>
<path d="M60.0843 0.813232H62.509" stroke="#231916" stroke-width="0.41"/>
<path d="M54.4631 0.813232H56.8605" stroke="#231916" stroke-width="0.41"/>
<path d="M48.1248 0.813232H50.5563" stroke="#231916" stroke-width="0.41"/>
<path d="M41.8206 0.813232H44.2522" stroke="#231916" stroke-width="0.41"/>
<path d="M35.5165 0.813232H37.9138" stroke="#231916" stroke-width="0.41"/>
<path d="M29.7314 0.813232H32.1287" stroke="#231916" stroke-width="0.41"/>
<path d="M22.8671 0.813232H25.2987" stroke="#231916" stroke-width="0.41"/>
<path d="M16.8225 0.813232H19.254" stroke="#231916" stroke-width="0.41"/>
<path d="M11.174 0.813232H13.6055" stroke="#231916" stroke-width="0.41"/>
<path d="M5.52554 0.813232H7.95705" stroke="#231916" stroke-width="0.41"/>
<path d="M0.437126 0.813232H2.83449" stroke="#231916" stroke-width="0.41"/>
<path d="M70.3294 12.7869H72.7268" stroke="#231916" stroke-width="0.41"/>
<path d="M66.1562 12.7869H68.5536" stroke="#231916" stroke-width="0.41"/>
<path d="M61.2932 12.7869H63.7247" stroke="#231916" stroke-width="0.41"/>
<path d="M54.4631 12.7869H56.8605" stroke="#231916" stroke-width="0.41"/>
<path d="M48.1248 12.7869H50.5563" stroke="#231916" stroke-width="0.41"/>
<path d="M42.77 12.7869H45.1674" stroke="#231916" stroke-width="0.41"/>
<path d="M36.6981 12.7869H39.1228" stroke="#231916" stroke-width="0.41"/>
<path d="M29.7314 12.7869H32.1287" stroke="#231916" stroke-width="0.41"/>
<path d="M22.8671 12.7869H25.2987" stroke="#231916" stroke-width="0.41"/>
<path d="M16.8225 12.7869H19.254" stroke="#231916" stroke-width="0.41"/>
<path d="M11.174 12.7869H13.6055" stroke="#231916" stroke-width="0.41"/>
<path d="M5.52554 12.7869H7.95705" stroke="#231916" stroke-width="0.41"/>
<path d="M0.437126 12.7869H2.83449" stroke="#231916" stroke-width="0.41"/>
<path d="M70.3294 14.5159H72.7268" stroke="#231916" stroke-width="0.41"/>
<path d="M66.1562 14.5159H68.5536" stroke="#231916" stroke-width="0.41"/>
<path d="M61.2932 14.5159H63.7247" stroke="#231916" stroke-width="0.41"/>
<path d="M54.4631 14.5159H56.8605" stroke="#231916" stroke-width="0.41"/>
<path d="M48.1248 14.5159H50.5563" stroke="#231916" stroke-width="0.41"/>
<path d="M42.77 14.5159H45.1674" stroke="#231916" stroke-width="0.41"/>
<path d="M36.6981 14.5159H39.1228" stroke="#231916" stroke-width="0.41"/>
<path d="M29.7314 14.5159H32.1287" stroke="#231916" stroke-width="0.41"/>
<path d="M22.8671 14.5159H25.2987" stroke="#231916" stroke-width="0.41"/>
<path d="M16.8225 14.5159H19.254" stroke="#231916" stroke-width="0.41"/>
<path d="M11.174 14.5159H13.6055" stroke="#231916" stroke-width="0.41"/>
<path d="M5.52554 14.5159H7.95705" stroke="#231916" stroke-width="0.41"/>
<path d="M0.437126 14.5159H2.83449" stroke="#231916" stroke-width="0.41"/>
<path d="M72.597 19.785H38.4671V26.3459H72.7268" fill="white"/>
<path d="M72.597 19.785H38.4671V26.3459H72.7268" stroke="#231916" stroke-width="0.41"/>
<path d="M17.7446 14.8849V19.7508" stroke="#231916" stroke-width="0.41"/>
<path d="M35.2159 16.9283V19.8466" stroke="#231916" stroke-width="0.41"/>
<path d="M38.4671 16.9283V19.8466" stroke="#231916" stroke-width="0.41"/>
<path d="M35.2159 22.4026V25.3276" stroke="#231916" stroke-width="0.41"/>
<path d="M35.2159 27.8427V30.7609" stroke="#231916" stroke-width="0.41"/>
<path d="M38.4671 27.8427V30.7609" stroke="#231916" stroke-width="0.41"/>
<path d="M35.2159 33.2758V36.2008" stroke="#231916" stroke-width="0.41"/>
<path d="M38.4671 33.2758V36.2008" stroke="#231916" stroke-width="0.41"/>
<path d="M35.2159 38.75V41.675" stroke="#231916" stroke-width="0.41"/>
<path d="M38.4671 38.75V41.675" stroke="#231916" stroke-width="0.41"/>
<path d="M35.2159 44.1901V47.1151" stroke="#231916" stroke-width="0.41"/>
<path d="M38.4671 44.1901V47.1151" stroke="#231916" stroke-width="0.41"/>
<path d="M35.2159 49.6642V52.5551" stroke="#231916" stroke-width="0.41"/>
<path d="M38.4671 49.6642V52.5551" stroke="#231916" stroke-width="0.41"/>
<path d="M35.2159 55.1042V58.0293" stroke="#231916" stroke-width="0.41"/>
<path d="M38.4671 55.1042V58.0293" stroke="#231916" stroke-width="0.41"/>
<path d="M56.0682 55.1042V58.0635" stroke="#231916" stroke-width="0.41"/>
<path d="M56.0682 49.1584V52.0425" stroke="#231916" stroke-width="0.41"/>
<path d="M56.0682 43.8551V45.7892" stroke="#231916" stroke-width="0.41"/>
<path d="M56.0682 37.3217V40.2467" stroke="#231916" stroke-width="0.41"/>
<path d="M56.0682 32.0183V34.5333" stroke="#231916" stroke-width="0.41"/>
<path d="M56.0682 26.4825V28.9634" stroke="#231916" stroke-width="0.41"/>
<path d="M17.7446 21.9242V26.7902" stroke="#231916" stroke-width="0.41"/>
<path d="M17.7446 28.9634V33.8225" stroke="#231916" stroke-width="0.41"/>
<path d="M17.7446 35.9958V40.8618" stroke="#231916" stroke-width="0.41"/>
<path d="M17.7446 43.035V47.8942" stroke="#231916" stroke-width="0.41"/>
<path d="M17.7446 50.0675V54.9676" stroke="#231916" stroke-width="0.41"/>
<path d="M17.7446 57.1067V62" stroke="#231916" stroke-width="0.41"/>
<path d="M72.8566 0V61.7676" stroke="#231916" stroke-width="0.41"/>
</g>
<defs>
<clipPath id="clip0_8063_9228">
<rect width="73" height="62" fill="white"/>
</clipPath>
</defs>
</svg>
