<svg width="77" height="30" viewBox="0 0 77 30" fill="none" xmlns="http://www.w3.org/2000/svg">
<g clip-path="url(#clip0_8063_7886)">
<path d="M5.84999 28.87C4.36719 28.8648 2.94638 28.2748 1.89601 27.2281C0.845638 26.1815 0.250531 24.7628 0.240005 23.28" stroke="#231916" stroke-width="0.49"/>
<path d="M0.240005 23.29V5.82996" stroke="#231916" stroke-width="0.49"/>
<path d="M0.240005 5.81995C0.25315 4.33892 0.849338 2.92277 1.89943 1.8783C2.94952 0.83382 4.36891 0.245193 5.84999 0.23999" stroke="#231916" stroke-width="0.49"/>
<path d="M5.85001 0.23999H70.54" stroke="#231916" stroke-width="0.49"/>
<path d="M70.5401 0.219993C71.2822 0.214658 72.0179 0.356908 72.7046 0.63845C73.3913 0.919993 74.0153 1.33523 74.5401 1.86001C75.0621 2.37487 75.4768 2.98824 75.76 3.66457C76.0433 4.34091 76.1894 5.06676 76.19 5.80001" stroke="#231916" stroke-width="0.49"/>
<path d="M76.14 5.82996V23.29" stroke="#231916" stroke-width="0.49"/>
<path d="M76.14 23.28C76.1392 24.0142 75.992 24.7407 75.7069 25.4172C75.4219 26.0938 75.0048 26.7066 74.48 27.22C73.9564 27.747 73.3329 28.1643 72.6461 28.4476C71.9593 28.7309 71.2229 28.8746 70.48 28.87" stroke="#231916" stroke-width="0.49"/>
<path d="M70.54 28.87H5.85001" stroke="#231916" stroke-width="0.49"/>
<path d="M5.84999 26.75C5.39114 26.7581 4.93541 26.674 4.50965 26.5027C4.0839 26.3314 3.69678 26.0764 3.37135 25.7528C3.04592 25.4292 2.78872 25.0437 2.615 24.6189C2.44128 24.1941 2.35457 23.7389 2.36 23.28" stroke="#231916" stroke-width="0.49"/>
<path d="M2.37 23.29V5.82996" stroke="#231916" stroke-width="0.49"/>
<path d="M2.36003 5.81992C2.35573 5.36263 2.44183 4.90904 2.61345 4.48515C2.78507 4.06125 3.03881 3.67546 3.36003 3.34995C4.02237 2.70245 4.91378 2.343 5.84001 2.34995" stroke="#231916" stroke-width="0.49"/>
<path d="M5.85001 2.35999H70.54" stroke="#231916" stroke-width="0.49"/>
<path d="M70.5401 2.34998C71.4641 2.35458 72.3513 2.71235 73.02 3.34998C73.6642 4.01045 74.0233 4.89738 74.02 5.81995" stroke="#231916" stroke-width="0.49"/>
<path d="M74.02 5.82996V23.29" stroke="#231916" stroke-width="0.49"/>
<path d="M74.02 23.28C74.026 23.7376 73.9407 24.1916 73.7689 24.6157C73.5972 25.0398 73.3426 25.4255 73.02 25.75C72.3541 26.392 71.4651 26.7505 70.5401 26.75" stroke="#231916" stroke-width="0.49"/>
<path d="M70.54 26.76H5.85001" stroke="#231916" stroke-width="0.49"/>
<path d="M12.61 10.0001C12.6181 10.3541 12.6013 10.7083 12.56 11.0601V10.0001M12.56 18.7601H15.74V20.22H12.56V18.7601ZM12.56 14.17H14.27V17.58H15.57V10.29C15.57 10.17 15.63 10.1201 15.63 10.0001C15.6269 9.91915 15.6477 9.83908 15.69 9.77002V9.58002L15.58 9.47003C15.4967 9.46692 15.4149 9.44649 15.34 9.41003H14.22V12.7H12.51L12.56 14.17ZM12.56 11.0601C12.5089 12.0509 12.2282 13.0163 11.74 13.88C11.0652 15.115 10.0143 16.1028 8.74001 16.7L8.38002 15.9901C8.27612 15.77 8.15927 15.5563 8.03004 15.35C8.91386 15.0105 9.6763 14.4151 10.22 13.64C10.7163 12.9988 11.0027 12.22 11.0401 11.41H8.50002V10.0001H12.5L12.56 11.0601ZM12.56 18.7601V20.22H9.14003V16.8801H9.84999C10.0685 16.8568 10.2895 16.8772 10.5 16.94V17.29L10.44 17.46V18.7601H12.56Z" fill="#231916"/>
<path d="M21 16.41C21.1992 16.3993 21.3952 16.3554 21.58 16.2801L21.7 17.7601C21.46 17.8201 21.23 17.8201 21 17.8801M21 14.0601H22.65V20.5201H23.94V10.05C24 10 24 9.94001 24.06 9.82001C24.12 9.70001 24.06 9.53003 24 9.47003C23.7883 9.43551 23.5744 9.41547 23.36 9.41003H22.65V12.59H21V14.0601ZM18 10.35C18 10.41 18.06 10.53 18 10.65C17.9577 10.7191 17.9368 10.7991 17.94 10.88V16.7H18.4199C18.8953 16.6894 19.3696 16.6494 19.84 16.58C20.2392 16.5768 20.6362 16.5195 21.02 16.41V17.8801C20.48 17.9901 19.96 18.05 19.48 18.11C18.8725 18.1819 18.2617 18.2219 17.65 18.23H16.65V10.29H17.41C17.6078 10.2967 17.8049 10.3168 18 10.35ZM21 12.59H20.28V14.05H21V12.59Z" fill="#231916"/>
<path d="M29.14 10.4101C29.2038 12.2154 28.901 14.0149 28.25 15.7C27.6514 17.0151 26.7419 18.1647 25.6 19.05C25.41 18.76 25.3 18.52 25.12 18.29C24.9613 18.0593 24.7841 17.842 24.59 17.6401C25.5852 17.2276 26.3861 16.4517 26.83 15.4701C27.4185 14.3652 27.7243 13.1318 27.72 11.88H25.06V10.4101M32.06 9.53006C32.06 9.53006 32.06 9.64003 32.06 9.82003C32.0241 9.90205 31.9841 9.9822 31.94 10.0601V14.2901H33.06V15.7601H31.94V20.5201H30.64V9.41006H31.34C31.5862 9.39099 31.8333 9.43217 32.06 9.53006Z" fill="#231916"/>
<path d="M38.39 10.35V11.82H36.56V12.23C36.5545 13.3092 36.7338 14.3814 37.09 15.4001C37.3325 16.2685 37.8791 17.0209 38.63 17.5201C38.4411 17.7054 38.264 17.9024 38.1 18.11C37.98 18.34 37.7999 18.5201 37.6799 18.7601C37.2188 18.3205 36.8396 17.8024 36.56 17.23C36.1962 16.5771 35.9748 15.8546 35.91 15.11C35.7482 15.8668 35.4894 16.5994 35.14 17.29C34.8113 17.8957 34.3933 18.4486 33.9 18.93C33.73 18.7 33.62 18.52 33.44 18.29C33.2752 18.0799 33.0948 17.8827 32.9 17.7C33.7097 17.1205 34.3125 16.297 34.62 15.35C35.0539 14.3674 35.2754 13.3042 35.27 12.23V11.82H33.48V10.35M40.6699 9.47003C40.7299 9.53003 40.7299 9.58001 40.6699 9.76001L40.61 9.94V20.5201H39.31V9.41003H40.08C40.278 9.41239 40.4755 9.43247 40.6699 9.47003Z" fill="#231916"/>
<path d="M48.2 10.35V18.22H46.08V16.7501H46.97V11.8701H46.08V10.4M50.85 9.58002C50.91 9.58002 50.91 9.70006 50.85 9.87006C50.8316 9.94901 50.8316 10.0311 50.85 10.11C50.7923 10.2171 50.768 10.339 50.78 10.46V14.34H51.91V15.81H50.78V20.57H49.48V9.46003H50.19C50.4329 9.44055 50.677 9.48178 50.9 9.58002M46.13 18.22H43.94V10.4H46.13V11.8701H45.1799V16.7501H46.13V18.22Z" fill="#231916"/>
<path d="M55.22 10.22C55.221 10.3426 55.2007 10.4644 55.16 10.58L55.09 10.7501V10.9301C55.09 11.1101 55.03 11.34 55.03 11.63V12.69C55.076 13.6453 55.2961 14.5841 55.6799 15.46C56.0071 16.3289 56.5552 17.0975 57.27 17.69C57.0814 17.8755 56.9043 18.0727 56.74 18.2801L56.27 18.92C55.7845 18.3783 55.3864 17.7643 55.09 17.1C54.7431 16.4778 54.5032 15.8017 54.38 15.1C54.2354 15.7526 54.0173 16.3866 53.73 16.9901C53.4533 17.6956 53.0576 18.3484 52.56 18.92C52.4134 18.7285 52.2494 18.5512 52.07 18.3901C51.9303 18.1861 51.7539 18.0098 51.5499 17.8701C52.3719 17.0364 52.9615 16.0021 53.26 14.8701C53.6947 13.322 53.8936 11.7173 53.85 10.11H54.62C54.97 10.11 55.14 10.11 55.27 10.22M59.57 9.46002C59.63 9.52002 59.63 9.57006 59.57 9.75006V9.93005C59.5163 10.0166 59.4951 10.1193 59.51 10.22V20.5101H58.22V9.40002H58.98C59.178 9.40315 59.3754 9.42322 59.57 9.46002Z" fill="#231916"/>
<path d="M64.95 15.7501C64.9469 15.8334 64.9265 15.9151 64.89 15.9901C64.89 16.1101 64.83 16.1701 64.83 16.2301V17.7H68.48V19.2201H64.2901V14.2201C64.8681 14.2454 65.441 14.103 65.94 13.8101C66.1101 13.6782 66.2468 13.508 66.3389 13.3134C66.431 13.1188 66.4759 12.9052 66.47 12.69C66.481 12.4826 66.4379 12.2759 66.345 12.09C66.2521 11.9042 66.1125 11.7457 65.94 11.63C65.4347 11.358 64.8622 11.2365 64.2901 11.28V9.87008C65.2245 9.81868 66.1454 10.1102 66.88 10.69C67.1739 10.931 67.4074 11.2374 67.5619 11.5846C67.7164 11.9318 67.7877 12.3104 67.77 12.69C67.7699 13.4112 67.4945 14.1051 67 14.63C66.3615 15.2321 65.5176 15.5683 64.64 15.57C64.82 15.63 64.88 15.6301 64.94 15.7401M64.2901 19.16H60.1V17.69H63.52V15.57H63.88C62.9996 15.5678 62.1527 15.2319 61.51 14.63C61.0401 14.0949 60.79 13.4019 60.81 12.69C60.7936 12.3251 60.8597 11.9611 61.0034 11.6253C61.1471 11.2894 61.3648 10.9903 61.64 10.7501C62.3756 10.1238 63.326 9.80818 64.2901 9.87008V11.28C63.7179 11.2365 63.1452 11.358 62.64 11.63C62.4649 11.7438 62.3228 11.9017 62.228 12.0877C62.1333 12.2738 62.0891 12.4815 62.1 12.69C62.0945 12.9062 62.1406 13.1206 62.2345 13.3154C62.3284 13.5102 62.4675 13.6798 62.64 13.8101C63.1367 14.1085 63.7114 14.2513 64.2901 14.2201V19.16Z" fill="#231916"/>
</g>
<defs>
<clipPath id="clip0_8063_7886">
<rect width="76.39" height="29.12" fill="white"/>
</clipPath>
</defs>
</svg>
