<svg width="70" height="69" viewBox="0 0 70 69" fill="none" xmlns="http://www.w3.org/2000/svg">
<g clip-path="url(#clip0_8063_7018)">
<path d="M34.57 68.71C41.3394 68.6883 47.9506 66.6604 53.5679 62.8826C59.1852 59.1049 63.5566 53.7468 66.1298 47.4855C68.703 41.2241 69.3626 34.3405 68.0249 27.7045C66.6873 21.0685 63.4127 14.9779 58.6148 10.2024C53.8169 5.42684 47.7111 2.18069 41.0689 0.874077C34.4267 -0.432538 27.5463 0.259034 21.297 2.86144C15.0478 5.46385 9.71014 9.86027 5.95865 15.4952C2.20717 21.1301 0.210157 27.7506 0.220007 34.52C0.222621 39.025 1.11367 43.4853 2.8422 47.6454C4.57073 51.8056 7.10276 55.5841 10.2934 58.7645C13.484 61.9449 17.2706 64.4647 21.4363 66.1799C25.602 67.8951 30.065 68.7718 34.57 68.76" stroke="#D20D18" stroke-width="0.45"/>
<path d="M34.5699 2.29001C43.1046 2.29001 51.2898 5.68038 57.3247 11.7153C63.3596 17.7502 66.75 25.9353 66.75 34.47C66.75 43.0047 63.3596 51.1898 57.3247 57.2247C51.2898 63.2596 43.1046 66.65 34.5699 66.65V59.65C37.9076 59.7166 41.2251 59.1167 44.3281 57.8855C47.4311 56.6543 50.2574 54.8165 52.6414 52.4796C55.0254 50.1428 56.9193 47.3538 58.2122 44.276C59.5051 41.1982 60.1709 37.8933 60.1709 34.555C60.1709 31.2166 59.5051 27.9118 58.2122 24.834C56.9193 21.7562 55.0254 18.9672 52.6414 16.6303C50.2574 14.2935 47.4311 12.4556 44.3281 11.2244C41.2251 9.99318 37.9076 9.39336 34.5699 9.45999M2.28992 34.52C2.31111 25.9745 5.7221 17.7866 11.774 11.7534C17.826 5.72018 26.0244 2.33467 34.5699 2.34V9.45999C31.2323 9.39336 27.9149 9.99318 24.8119 11.2244C21.7089 12.4556 18.8827 14.2935 16.4987 16.6303C14.1147 18.9672 12.2208 21.7562 10.9279 24.834C9.63495 27.9118 8.96899 31.2166 8.96899 34.555C8.96899 37.8933 9.63495 41.1982 10.9279 44.276C12.2208 47.3538 14.1147 50.1428 16.4987 52.4796C18.8827 54.8165 21.7089 56.6543 24.8119 57.8855C27.9149 59.1167 31.2323 59.7166 34.5699 59.65V66.65C26.0307 66.6633 17.8352 63.2872 11.783 57.2631C5.73072 51.239 2.3164 43.0592 2.28992 34.52Z" fill="#D20D18"/>
<path d="M52.65 58.13L56.57 54.81L17.04 11.24L13.13 14.55" fill="#D20D18"/>
<path d="M44.85 50.21C44.25 49.12 41.21 42.83 40.56 41.36C39.3 37.08 38.65 36.26 38.56 35.72C38.5347 34.9145 38.6257 34.1096 38.83 33.33C38.7704 31.9365 38.5523 30.5542 38.18 29.21C38.02 28.67 37.85 28.01 38.34 27.85C38.83 27.69 39.93 28.23 40.96 29.69C41.8763 31.1206 42.6277 32.6504 43.2 34.25C43.35 34.79 42.9201 36.15 43.4101 37.46C44.4101 38.92 44.99 37.56 44.99 36.86C44.9552 35.5071 44.7537 34.1636 44.39 32.86C44.011 32.1306 43.7702 31.3372 43.68 30.52C43.6083 29.4259 43.31 28.3587 42.8039 27.386C42.2977 26.4134 41.5949 25.5566 40.74 24.87C40.04 24.17 37.42 22.22 37.09 21.87C36.76 21.52 36.17 21.32 36.82 19.16C37.1138 18.4016 37.1444 17.5664 36.9069 16.7885C36.6693 16.0105 36.1775 15.3349 35.51 14.87C35.0329 14.5946 34.4809 14.4773 33.933 14.5348C33.3852 14.5923 32.8696 14.8216 32.46 15.19C31.21 16.44 31.87 17.47 31.7 17.85L31.32 18.56L31.7 18.67C31.7 18.67 31.59 18.78 31.92 19.53C32.25 20.28 33.12 20.62 33.06 21.53C33.06 22.24 31.06 23.76 31.06 24.95C31.06 27.07 29.16 28.64 28.06 29.24C26.96 29.84 23.48 31.46 22.88 32C22.28 32.54 22.88 33.09 23.7 32.88C25.7157 32.3963 27.6968 31.7783 29.63 31.03C30.12 30.86 30.82 30.03 31.32 30.43C31.82 30.83 31.48 35.32 30.55 37.21C29.62 39.1 27.62 43.13 26.69 44.76C26.0509 46.0392 25.5416 47.3792 25.17 48.76C24.95 49.41 24.67 50.06 24.51 50.55L22.11 51.91C21.79 52.29 21.79 52.99 22.71 52.77L25.6 52.45C25.87 52.34 27.2401 52.67 27.2801 51.74V51.64V51.47C27.6881 51.0767 28.0262 50.6168 28.2801 50.11C28.9301 49.11 32.69 42.35 33.17 41.65C33.65 40.95 34.32 39.91 34.92 39.91C35.52 39.91 38.24 43.91 38.62 44.85C39 45.79 42.05 51.25 42.1 51.85C42.1243 51.9755 42.1243 52.1045 42.1 52.23L41.98 52.34C41.45 52.94 40.9801 53.48 41.6601 53.86C41.8201 54.24 42.66 53.86 43.29 53.48L44.76 52.55C44.82 52.55 45.2 52.39 45.26 52.12C46.26 51.91 45.47 51.36 44.87 50.28" fill="#231916"/>
</g>
<defs>
<clipPath id="clip0_8063_7018">
<rect width="69.15" height="68.93" fill="white"/>
</clipPath>
</defs>
</svg>
