<svg width="76" height="66" viewBox="0 0 76 66" fill="none" xmlns="http://www.w3.org/2000/svg">
<g clip-path="url(#clip0_8063_6367)">
<path d="M1.13991 59.54L34.22 2.54C36.05 -0.569996 39.2199 -0.569996 41.1299 2.54L74.3799 59.63C76.3799 62.86 74.6799 65.45 70.7899 65.45H4.78994C0.549938 65.45 -0.860087 62.97 1.13991 59.51" fill="white"/>
<path d="M1.13991 59.54L34.22 2.54C36.05 -0.569996 39.2199 -0.569996 41.1299 2.54L74.3799 59.63C76.3799 62.86 74.6799 65.45 70.7899 65.45H4.78994C0.549938 65.48 -0.860087 63 1.13991 59.54Z" stroke="#D20D18" stroke-width="0.49"/>
<path d="M2.61005 60.19L35.46 3.64C36.58 1.58 38.71 1.69 39.89 3.7L72.89 60.3C74.07 62.3 72.78 63.89 70.53 63.89H5.12995C2.53995 63.89 1.47003 62.19 2.59003 60.19" fill="#D20D18"/>
<path d="M37.82 12.87L63.71 57.48H11.52" fill="#F8B500"/>
<path d="M37.82 12.87L63.71 57.48H11.52L37.82 12.87Z" stroke="#D20D18" stroke-width="0.57"/>
<path d="M47.05 32.62L42.5 24.8C41.8 24.27 41.8 23.97 40.8 24.8L36.25 32.8C35.84 33.8 35.96 34.8 37.09 35.1H39.21C39.21 39.8 39.91 46.21 35.32 41.62C30.42 36.74 24.76 37.51 24.76 46.38V55.43H30.4801V48.21C30.4801 44.21 31.42 44.91 33.19 46.8C37.19 50.97 44.75 50.2 44.75 40.5V35.1H46.64C47.93 34.62 47.64 33.33 47.05 32.63" fill="#231916"/>
</g>
<defs>
<clipPath id="clip0_8063_6367">
<rect width="75.45" height="65.73" fill="white"/>
</clipPath>
</defs>
</svg>
