<svg width="22" height="69" viewBox="0 0 22 69" fill="none" xmlns="http://www.w3.org/2000/svg">
<g clip-path="url(#clip0_8063_8732)">
<path d="M17.5309 55.7649H15.053V68.8588H17.5309V55.7649Z" fill="white"/>
<path d="M17.5245 55.7649H15.053V68.8588H17.5245V55.7649Z" stroke="#231916" stroke-width="0.45"/>
<path d="M21.5326 41.1689H19.3364L15.9878 46.3231L12.9913 41.3423H10.8335L15.085 48.3835L10.8335 55.0331H12.8184L16.0902 49.8726L19.3364 55.4182H21.7375L17.0698 48.101" fill="white"/>
<path d="M21.5326 41.1689H19.3364L15.9878 46.3231L12.9913 41.3423H10.8335L15.085 48.3835L10.8335 55.0331H12.8184L16.0902 49.8726L19.3364 55.4182H21.7375L17.0698 48.101L21.5326 41.1689Z" stroke="#231916" stroke-width="0.45"/>
<path d="M7.83063 0.0705566L0.147278 14.352L8.34285 28.4729V19.4162C11.8964 20.5973 13.9837 24.288 14.2718 25.9311V40.1741H16.9546V21.9195C16.9546 17.3238 12.2101 11.5406 7.81782 11.5406" fill="white"/>
<path d="M7.83063 0.0705566L0.147278 14.352L8.34285 28.4729V19.4162C11.8964 20.5973 13.9837 24.288 14.2718 25.9311V40.1741H16.9546V21.9195C16.9546 17.3238 12.2101 11.5406 7.81782 11.5406L7.83063 0.0705566Z" stroke="#231916" stroke-width="0.45"/>
</g>
<defs>
<clipPath id="clip0_8063_8732">
<rect width="22" height="69" fill="white"/>
</clipPath>
</defs>
</svg>
