<svg width="76" height="66" viewBox="0 0 76 66" fill="none" xmlns="http://www.w3.org/2000/svg">
<g clip-path="url(#clip0_8063_6392)">
<path d="M1.16997 59.77L34.3699 2.57C36.1399 -0.539997 39.3699 -0.539997 41.2699 2.57L74.65 59.89C76.65 63.13 75 65.71 71.05 65.71H4.82988C0.579884 65.71 -0.900028 63.24 1.16997 59.77Z" fill="white"/>
<path d="M1.16997 59.77L34.3699 2.57C36.1399 -0.539997 39.3699 -0.539997 41.2699 2.57L74.65 59.89C76.65 63.13 75 65.71 71.05 65.71H4.82988C0.579884 65.71 -0.900028 63.24 1.16997 59.77Z" stroke="#D20D18" stroke-width="0.49"/>
<path d="M37.97 13.04L63.8 57.6H11.66" fill="#F8B500"/>
<path d="M37.97 13.04L63.8 57.6H11.66L37.97 13.04Z" stroke="#D20D18" stroke-width="1.95"/>
<path d="M63.8 57.37H12.08L50.59 35.21" fill="#231916"/>
<path d="M63.8 57.37H12.08L50.59 35.21L63.8 57.37Z" stroke="#231916" stroke-width="0.42"/>
<path d="M28.94 38.55L31.94 44.02L30.41 44.85L28.17 40.79C27.8985 41.125 27.5821 41.4211 27.23 41.67L26.81 40.97C27.1476 40.7795 27.4322 40.5078 27.6383 40.1796C27.8443 39.8513 27.9652 39.4768 27.99 39.09" fill="#231916"/>
<path d="M33.54 41.02L33.6 42.78C34.0944 42.7783 34.5814 42.6583 35.02 42.43C36.55 41.61 36.79 40.26 35.78 38.38C35.08 37.09 34.25 36.44 33.37 36.44L33.43 38.2C33.6 38.5 33.8399 38.85 34.0799 39.26C34.9599 40.84 35.19 41.73 34.78 41.96C34.37 42.19 34.08 41.84 33.54 41.02Z" fill="#231916"/>
<path d="M33.4301 38.2L33.36 36.44C32.866 36.4175 32.3762 36.5391 31.9501 36.79C30.4201 37.61 30.1801 38.97 31.1801 40.85C31.8901 42.14 32.72 42.78 33.6 42.78L33.5401 41.02C33.3601 40.73 33.13 40.37 32.89 39.97C32.01 38.38 31.7701 37.44 32.1901 37.26C32.6101 37.08 32.8901 37.37 33.4301 38.2Z" fill="#231916"/>
<path d="M41.62 37.73V38.61C41.8715 38.5904 42.1147 38.5116 42.3299 38.38C42.5165 38.2965 42.6818 38.172 42.8136 38.0157C42.9454 37.8595 43.0402 37.6756 43.0912 37.4777C43.1421 37.2798 43.1478 37.0729 43.1078 36.8725C43.0677 36.672 42.983 36.4832 42.86 36.32C42.51 35.61 42.03 35.32 41.51 35.38V36.2C41.6346 36.4048 41.7715 36.6018 41.92 36.79C42.33 37.56 42.44 38.08 42.22 38.2C42 38.32 41.86 38.08 41.62 37.73Z" fill="#231916"/>
<path d="M41.5099 36.2V35.38C41.2544 35.3763 41.0048 35.4572 40.8 35.61C39.97 36.02 39.7999 36.73 40.2699 37.67C40.6199 38.32 41.0999 38.67 41.6199 38.61V37.73C41.5099 37.61 41.3899 37.37 41.2099 37.15C40.7999 36.38 40.74 35.91 40.92 35.79C41.1 35.67 41.2699 35.85 41.5099 36.2Z" fill="#231916"/>
<path d="M36.67 36.91L36.73 37.79C36.9649 37.781 37.1916 37.7008 37.38 37.56C38.26 37.15 38.38 36.44 37.91 35.5C37.55 34.85 37.08 34.5 36.55 34.56L36.61 35.44C36.7461 35.6052 36.8666 35.7826 36.97 35.97C37.38 36.79 37.49 37.26 37.26 37.38C37.03 37.5 36.9 37.26 36.67 36.91Z" fill="#231916"/>
<path d="M39.03 40.15L38.61 33.33L39.21 33.03L39.56 39.85" fill="#231916"/>
<path d="M36.61 35.44L36.55 34.56C36.3233 34.5668 36.101 34.6249 35.9 34.73C35.07 35.2 34.9 35.91 35.42 36.85C35.77 37.5 36.25 37.85 36.78 37.79L36.72 36.91C36.5867 36.7217 36.4665 36.5246 36.36 36.32C35.95 35.56 35.8301 35.09 36.0701 34.97H36.01C36.19 34.91 36.36 35.09 36.66 35.44" fill="#231916"/>
<path d="M33.07 52.9L30.89 49.55L42.57 42.91L41.98 41.85L48.94 41.61L45.75 47.38L45.04 46.2" fill="white"/>
<path d="M33.07 52.9L30.89 49.55L42.57 42.91L41.98 41.85L48.94 41.61L45.75 47.38L45.04 46.2L33.07 52.9Z" stroke="#231916" stroke-width="0.42"/>
<path d="M37.67 2.35001C38.1657 2.35927 38.649 2.50636 39.0659 2.77483C39.4827 3.04329 39.8165 3.4225 40.03 3.87L73.03 60.42C74.21 62.42 72.97 64.01 70.67 64.01H37.67V57.25H63.15L37.8899 13.61L37.7099 13.97M2.85992 60.29L35.65 3.86C35.8289 3.44753 36.1136 3.08969 36.4754 2.82275C36.8372 2.55582 37.263 2.38927 37.7099 2.34V13.97L12.18 57.24H37.7099V64H5.39996C2.79996 64 1.73992 62.29 2.85992 60.29Z" fill="#D20D18"/>
</g>
<defs>
<clipPath id="clip0_8063_6392">
<rect width="75.72" height="65.96" fill="white"/>
</clipPath>
</defs>
</svg>
