<svg width="72" height="58" viewBox="0 0 72 58" fill="none" xmlns="http://www.w3.org/2000/svg">
<g clip-path="url(#clip0_8063_9089)">
<path d="M12.3338 41.3867L20.5212 40L20.1066 37.54L11.9192 38.9338L12.3338 41.3867Z" fill="white"/>
<path d="M12.3338 41.3867L20.5212 40L20.1066 37.54L11.9192 38.9338L12.3338 41.3867Z" stroke="#231916" stroke-width="0.49" stroke-miterlimit="10"/>
<path d="M25.6023 38.9896L33.6703 37.0314L33.087 34.6133L25.012 36.5645L25.6023 38.9896Z" fill="white"/>
<path d="M25.6023 38.9896L33.6703 37.0314L33.087 34.6133L25.012 36.5645L25.6023 38.9896Z" stroke="#231916" stroke-width="0.49" stroke-miterlimit="10"/>
<path d="M37.8096 35.9094L45.6246 33.129L44.7883 30.7805L36.9663 33.561L37.8096 35.9094Z" fill="white"/>
<path d="M37.8096 35.9094L45.6246 33.129L44.7883 30.7805L36.9663 33.561L37.8096 35.9094Z" stroke="#231916" stroke-width="0.49" stroke-miterlimit="10"/>
<path d="M49.9608 31.6237L57.3329 27.8049L56.1804 25.5958L48.8082 29.4146L49.9608 31.6237Z" fill="white"/>
<path d="M49.9608 31.6237L57.3329 27.8049L56.1804 25.5958L48.8082 29.4146L49.9608 31.6237Z" stroke="#231916" stroke-width="0.49" stroke-miterlimit="10"/>
<path d="M60.9382 25.8118L67.3827 20.5993L65.8015 18.6689L59.357 23.8815L60.9382 25.8118Z" fill="white"/>
<path d="M60.9382 25.8118L67.3827 20.5993L65.8015 18.6689L59.357 23.8815L60.9382 25.8118Z" stroke="#231916" stroke-width="0.49" stroke-miterlimit="10"/>
<path d="M0.203796 43.8118C0.203796 43.8118 10.5699 43.0313 11.9614 42.7386L6.37424 57.1777" stroke="#231916" stroke-width="0.4" stroke-miterlimit="10"/>
<path d="M71.9368 19.3658L67.945 21.3449L53.0811 57.9442" stroke="#231916" stroke-width="0.4" stroke-miterlimit="10"/>
<path d="M0.0140686 14.9477C0.0140686 14.9477 30.3321 10.5088 47.8946 0.11853" stroke="#231916" stroke-width="0.4" stroke-miterlimit="10"/>
</g>
<defs>
<clipPath id="clip0_8063_9089">
<rect width="72" height="58" fill="white"/>
</clipPath>
</defs>
</svg>
