<svg width="77" height="30" viewBox="0 0 77 30" fill="none" xmlns="http://www.w3.org/2000/svg">
<g clip-path="url(#clip0_8063_7740)">
<path d="M5.85004 28.87C4.36828 28.87 2.94691 28.2827 1.89728 27.2368C0.847647 26.1909 0.255231 24.7717 0.249939 23.2899" stroke="#231916" stroke-width="0.49"/>
<path d="M0.23999 23.29V5.82996" stroke="#231916" stroke-width="0.49"/>
<path d="M0.249993 5.83001C0.244101 5.08779 0.386143 4.35186 0.667718 3.66509C0.949292 2.97833 1.36477 2.35447 1.89001 1.83001C2.97103 0.809319 4.40327 0.243629 5.89001 0.250054" stroke="#231916" stroke-width="0.49"/>
<path d="M5.84998 0.23999H70.54" stroke="#231916" stroke-width="0.49"/>
<path d="M70.55 0.219989C72.0381 0.216263 73.4705 0.785677 74.55 1.81002C75.0752 2.33448 75.4907 2.95827 75.7723 3.64504C76.0539 4.3318 76.1959 5.06779 76.19 5.81002" stroke="#231916" stroke-width="0.49"/>
<path d="M76.14 5.82996V23.29" stroke="#231916" stroke-width="0.49"/>
<path d="M76.14 23.2899C76.1386 24.0227 75.993 24.7481 75.7114 25.4246C75.4297 26.1011 75.0177 26.7154 74.4986 27.2327C73.9795 27.7499 73.3636 28.1599 72.6861 28.4391C72.0086 28.7183 71.2828 28.8613 70.55 28.86" stroke="#231916" stroke-width="0.49"/>
<path d="M70.54 28.87H5.84998" stroke="#231916" stroke-width="0.49"/>
<path d="M5.85004 26.75C4.92504 26.7505 4.03595 26.392 3.37006 25.75C2.73968 25.0846 2.3827 24.2064 2.37006 23.2899" stroke="#231916" stroke-width="0.49"/>
<path d="M2.37 23.29V5.82996" stroke="#231916" stroke-width="0.49"/>
<path d="M2.37007 5.82996C2.36203 4.90352 2.72163 4.01171 3.37007 3.34998C4.04156 2.71663 4.92704 2.35957 5.85005 2.34998" stroke="#231916" stroke-width="0.49"/>
<path d="M5.84998 2.30005H70.54" stroke="#231916" stroke-width="0.49"/>
<path d="M70.55 2.30005C71.4811 2.31275 72.3692 2.6939 73.02 3.36005C73.3416 3.68522 73.5956 4.07091 73.7673 4.49487C73.9389 4.91884 74.0248 5.37265 74.02 5.83002" stroke="#231916" stroke-width="0.49"/>
<path d="M74.02 5.82996V23.29" stroke="#231916" stroke-width="0.49"/>
<path d="M74.06 23.2899C74.0464 24.2062 73.6895 25.0841 73.06 25.75C72.7348 26.0717 72.3491 26.3257 71.9251 26.4973C71.5011 26.669 71.0474 26.7549 70.59 26.75" stroke="#231916" stroke-width="0.49"/>
<path d="M70.54 26.75H5.84998" stroke="#231916" stroke-width="0.49"/>
<path d="M21.89 19.9399V18.4099H23.06V19.9399M21.94 17.1699V8.46997H22.47C22.64 8.52997 22.77 8.52997 22.82 8.58997L22.89 8.70996C22.8937 8.79238 22.869 8.87356 22.82 8.93994V9.17999C22.7711 9.28982 22.7504 9.41012 22.76 9.52997V12.53H24.35V14.12H22.76V17.22L21.94 17.1699ZM18.52 9.70996C19.0284 10.341 19.3008 11.1296 19.29 11.9399C19.3131 12.7522 19.0393 13.5451 18.52 14.17C18.2085 14.4923 17.8309 14.7432 17.4131 14.9055C16.9954 15.0678 16.5474 15.1376 16.1 15.11H16.03V13.64H16.1C16.2922 13.6559 16.4853 13.6219 16.6605 13.5413C16.8357 13.4607 16.9871 13.3363 17.1 13.18C17.3503 12.8166 17.4733 12.3806 17.45 11.9399C17.466 11.5189 17.343 11.1042 17.1 10.7599C16.9871 10.6037 16.8357 10.4792 16.6605 10.3986C16.4853 10.318 16.2922 10.2841 16.1 10.3H16.03V8.76996H16.1C16.5459 8.75604 16.9899 8.83209 17.4057 8.99359C17.8215 9.1551 18.2004 9.39875 18.52 9.70996ZM21.94 8.46997V17.1699H20.8799V8.46997H21.94ZM21.94 19.9399H16.03V18.4099H21.94V19.9399ZM16.03 15.11C15.6001 15.1541 15.1658 15.1029 14.758 14.9601C14.3502 14.8173 13.9789 14.5863 13.6705 14.2836C13.3621 13.981 13.1241 13.614 12.9737 13.2089C12.8232 12.8038 12.7639 12.3706 12.8 11.9399C12.7674 11.128 13.0384 10.333 13.56 9.70996C13.8878 9.39587 14.2754 9.15085 14.6996 8.98938C15.1239 8.82791 15.5763 8.75327 16.03 8.76996V10.3C15.83 10.2781 15.6278 10.3091 15.4435 10.3898C15.2593 10.4705 15.0995 10.5981 14.98 10.7599C14.7283 11.0999 14.6043 11.5177 14.6299 11.9399C14.6066 12.3806 14.7298 12.8166 14.98 13.18C15.1083 13.3318 15.2696 13.4522 15.4516 13.532C15.6336 13.6117 15.8314 13.6486 16.03 13.64V15.11ZM16.03 18.4099V19.9399H13.86V16.22H14.98C15.2555 16.1841 15.5345 16.1841 15.81 16.22C15.81 16.28 15.81 16.39 15.81 16.58L15.7401 16.75C15.7049 16.825 15.6877 16.9072 15.69 16.99V18.4L16.03 18.4099Z" fill="#231916"/>
<path d="M31.6299 9.47003C31.6984 11.2509 31.4164 13.0278 30.8 14.7C30.0657 16.3583 28.7987 17.7238 27.2 18.58C27.0182 18.3346 26.8211 18.1008 26.61 17.8801C26.4258 17.6525 26.2287 17.4354 26.02 17.23C27.3229 16.7376 28.3935 15.774 29.02 14.53C29.5484 13.4276 29.8284 12.2226 29.84 11.0001H26.54V9.47003M37.1 8.53003C37.1254 8.57595 37.1387 8.62758 37.1387 8.68005C37.1387 8.73252 37.1254 8.7841 37.1 8.83002C37.1 8.94002 37.04 9.00006 37.04 9.06006V20.22H35.21V15.04H34.32V19.7501H32.56V8.75006H33.8C34.0383 8.7274 34.2788 8.74772 34.5099 8.81006C34.5087 8.91076 34.4848 9.00986 34.44 9.10004V9.28003C34.3844 9.36592 34.3597 9.46819 34.3701 9.57001V13.57H35.2599V8.57001H36.3799C36.6364 8.55377 36.8936 8.55377 37.15 8.57001" fill="#231916"/>
<path d="M46.72 9.47001V11H44.1201V11.47C44.1122 12.6248 44.3543 13.7677 44.83 14.82C45.2462 15.8315 46.028 16.6492 47.02 17.11C46.7554 17.2705 46.5162 17.4693 46.31 17.7C46.093 17.919 45.8956 18.1565 45.72 18.4099C45.0829 17.9512 44.5226 17.3944 44.06 16.76C43.5984 16.0734 43.3007 15.2899 43.19 14.47C42.9556 15.3141 42.573 16.1098 42.06 16.82C41.5981 17.5028 41.0192 18.0986 40.35 18.58C40.1505 18.3344 39.9368 18.1007 39.71 17.88C39.47 17.6626 39.2124 17.4652 38.94 17.29C39.9988 16.7139 40.8595 15.8323 41.41 14.76C41.9732 13.7534 42.2789 12.6233 42.3 11.47V11H39.7599V9.47001M49.91 8.53001C50.03 8.59001 50.03 8.63999 49.97 8.82999L49.91 9.00004C49.8551 9.08624 49.8305 9.18826 49.84 9.29002V20.22H48.06V8.47001H49.18C49.4351 8.42992 49.6949 8.42992 49.95 8.47001" fill="#231916"/>
<path d="M58.52 9.71002C59.0101 10.2825 59.2795 11.0114 59.2795 11.765C59.2795 12.5187 59.0101 13.2475 58.52 13.82C58.1994 14.147 57.8116 14.4005 57.3834 14.5628C56.9551 14.7251 56.4968 14.7924 56.04 14.76V13.29C56.4569 13.283 56.8548 13.1145 57.15 12.82C57.3827 12.5175 57.509 12.1466 57.509 11.765C57.509 11.3834 57.3827 11.0125 57.15 10.71C57.0058 10.5646 56.8322 10.4519 56.6407 10.3795C56.4492 10.307 56.2443 10.2765 56.04 10.29V8.77001C56.4968 8.73764 56.9551 8.80497 57.3834 8.96728C57.8116 9.12959 58.1994 9.38299 58.52 9.71002ZM56.04 17.41V15.8801H63.17V20.22H61.34V17.4001L56.04 17.41ZM63.29 8.59002C63.35 8.59002 63.35 8.71001 63.29 8.89001L63.23 9.06005C63.1824 9.14886 63.1614 9.24959 63.17 9.35003V15.22H61.34V13.92H59.34V12.39H61.34V11.39H59.34V9.86004H61.34V8.51H62.46C62.7421 8.48869 63.0254 8.52965 63.29 8.63M56.04 14.8C55.5791 14.8331 55.1163 14.7721 54.6796 14.6208C54.243 14.4696 53.8416 14.2312 53.4999 13.92C53.2349 13.6375 53.0308 13.3036 52.9001 12.9389C52.7694 12.5742 52.7149 12.1866 52.74 11.8C52.7272 11.4329 52.7878 11.0668 52.9183 10.7234C53.0488 10.3799 53.2465 10.066 53.4999 9.80004C53.8292 9.46773 54.2272 9.21138 54.666 9.04901C55.1047 8.88663 55.5737 8.82216 56.04 8.86004V10.38C55.8332 10.3535 55.6231 10.378 55.4279 10.4512C55.2327 10.5244 55.0584 10.6441 54.92 10.8C54.6873 11.1025 54.5611 11.4734 54.5611 11.855C54.5611 12.2367 54.6873 12.6076 54.92 12.91C55.0543 13.0736 55.2265 13.202 55.4217 13.2839C55.6169 13.3658 55.8291 13.3988 56.04 13.38V14.8ZM56.04 17.45H53.6201V15.92H56.06L56.04 17.45Z" fill="#231916"/>
</g>
<defs>
<clipPath id="clip0_8063_7740">
<rect width="76.38" height="29.11" fill="white"/>
</clipPath>
</defs>
</svg>
