<svg width="71" height="71" viewBox="0 0 71 71" fill="none" xmlns="http://www.w3.org/2000/svg">
<g clip-path="url(#clip0_8063_6911)">
<path d="M35.23 69.9C42.1138 69.8683 48.8339 67.7982 54.5422 63.9507C60.2506 60.1033 64.6912 54.6511 67.3036 48.2822C69.9161 41.9133 70.5832 34.9132 69.2209 28.1655C67.8586 21.4177 64.5278 15.2249 59.649 10.3684C54.7703 5.51194 48.5622 2.20957 41.8083 0.878175C35.0544 -0.453217 28.0574 0.246042 21.7006 2.88764C15.3437 5.52923 9.91188 9.99475 6.09064 15.7206C2.2694 21.4465 0.230053 28.1761 0.22998 35.06C0.237847 39.6465 1.14966 44.1865 2.91333 48.4203C4.677 52.6542 7.25791 56.4989 10.5085 59.7346C13.7591 62.9703 17.6156 65.5336 21.8575 67.2778C26.0994 69.0221 30.6435 69.9131 35.23 69.9Z" stroke="#D20D18" stroke-width="0.45"/>
<path d="M35.23 2.27997C28.751 2.28986 22.4202 4.21955 17.0372 7.82526C11.6543 11.431 7.4605 16.551 4.98566 22.5387C2.51082 28.5264 1.86591 35.1133 3.13232 41.4673C4.39874 47.8213 7.51972 53.6575 12.1011 58.2389C16.6824 62.8202 22.5186 65.9412 28.8727 67.2076C35.2267 68.4741 41.8136 67.8291 47.8013 65.3543C53.789 62.8795 58.909 58.6857 62.5147 53.3027C66.1204 47.9198 68.0501 41.589 68.06 35.11C68.0441 26.4124 64.5785 18.0763 58.4237 11.9309C52.2689 5.78547 43.9276 2.33259 35.23 2.32996M35.23 60.67C30.1781 60.6542 25.2442 59.1417 21.0515 56.3235C16.8587 53.5053 13.595 49.5079 11.6727 44.8361C9.75041 40.1642 9.25566 35.0275 10.2509 30.0746C11.2462 25.1218 13.6868 20.5749 17.2646 17.0082C20.8424 13.4416 25.3969 11.0152 30.3528 10.0354C35.3088 9.05563 40.4439 9.56645 45.1097 11.5034C49.7756 13.4403 53.7628 16.7164 56.5678 20.918C59.3729 25.1195 60.87 30.0581 60.87 35.11C60.8567 41.8987 58.1486 48.4044 53.3407 53.1973C48.5328 57.9901 42.0187 60.6779 35.23 60.67Z" fill="#D20D18"/>
<path d="M18.52 40H21.02C21.042 40.6544 21.2392 41.291 21.5909 41.8433C21.9427 42.3956 22.4362 42.8434 23.02 43.14C23.6334 43.4725 24.3223 43.6413 25.02 43.63C25.6396 43.6662 26.2583 43.546 26.8193 43.2803C27.3802 43.0147 27.8653 42.6122 28.23 42.11C28.9062 41.122 29.2559 39.947 29.23 38.75C29.2748 38.1164 29.1867 37.4805 28.9714 36.883C28.7562 36.2855 28.4185 35.7394 27.98 35.28C27.193 34.5133 26.1386 34.083 25.04 34.08C24.2757 34.0511 23.5191 34.242 22.86 34.63C22.2518 34.9986 21.7327 35.4971 21.34 36.09L19.21 35.98L20.66 24.53H30.73V27.11H22.5099L21.64 32.97C22.0481 32.6614 22.4832 32.3903 22.94 32.16C23.7317 31.8182 24.5878 31.651 25.4499 31.67C26.295 31.6409 27.1364 31.7947 27.9166 32.1209C28.6967 32.4471 29.3971 32.938 29.97 33.56C30.5947 34.1859 31.0854 34.9326 31.4121 35.7544C31.7388 36.5762 31.8946 37.4559 31.87 38.34C31.8929 40.2383 31.2804 42.0898 30.1299 43.6C29.0399 45.18 27.19 45.94 24.74 45.94C23.197 45.9604 21.6947 45.4443 20.49 44.48C19.856 43.9129 19.3498 43.2176 19.005 42.4401C18.6602 41.6625 18.4846 40.8205 18.49 39.97" fill="#231916"/>
<path d="M41.27 42.93H42.91C42.9225 43.3174 43.0472 43.6928 43.2692 44.0106C43.4911 44.3284 43.8006 44.5748 44.16 44.72C44.5409 44.9312 44.9758 45.0251 45.41 44.99C45.7984 45.02 46.1884 44.9578 46.5482 44.8083C46.9079 44.6589 47.2272 44.4264 47.48 44.13C47.911 43.5531 48.1394 42.8501 48.1299 42.13C48.1502 41.7567 48.0871 41.3835 47.9453 41.0376C47.8035 40.6917 47.5865 40.3817 47.31 40.13C46.7842 39.6712 46.1078 39.422 45.41 39.43C44.9372 39.423 44.47 39.5329 44.05 39.75C43.656 39.9618 43.3143 40.2591 43.05 40.62L41.74 40.56L42.67 33.89H49.09V35.41H43.81L43.3199 38.83C43.5689 38.629 43.845 38.464 44.14 38.34C44.6468 38.1584 45.1816 38.0671 45.72 38.07C46.7835 38.0546 47.8131 38.4443 48.6 39.16C48.9817 39.5102 49.2823 39.9395 49.4809 40.418C49.6795 40.8964 49.7714 41.4124 49.75 41.93C49.777 43.0406 49.4242 44.1271 48.75 45.01C48.302 45.4708 47.7578 45.8272 47.1562 46.0536C46.5547 46.28 45.9107 46.371 45.27 46.32C44.3164 46.3307 43.3832 46.0441 42.6 45.5C42.2107 45.1834 41.8928 44.7881 41.6671 44.34C41.4413 43.8919 41.3128 43.4012 41.29 42.9" fill="#231916"/>
<path d="M44.16 21.66V19.16H45.66V21.66H47.0699V22.85H45.66V28.6C45.6443 28.7302 45.6673 28.8622 45.726 28.9795C45.7846 29.0968 45.8764 29.1944 45.99 29.26C46.1825 29.3093 46.3819 29.3262 46.58 29.31H47.0699V30.5C46.8867 30.5183 46.7058 30.5551 46.53 30.61H45.93C45.6674 30.6395 45.4016 30.6059 45.1546 30.512C44.9076 30.418 44.6866 30.2665 44.5099 30.07C44.2757 29.6565 44.1647 29.1845 44.19 28.71V22.85H42.93V21.66" fill="#231916"/>
<path d="M36.75 46.23C36.8927 46.2313 37.0342 46.2043 37.1663 46.1507C37.2985 46.097 37.4188 46.0177 37.5202 45.9173C37.6215 45.8168 37.702 45.6973 37.7569 45.5656C37.8118 45.4339 37.84 45.2927 37.84 45.15C37.842 44.934 37.7797 44.7223 37.6612 44.5417C37.5426 44.3611 37.3731 44.2199 37.1741 44.1359C36.9751 44.0518 36.7556 44.0288 36.5435 44.0697C36.3314 44.1106 36.1363 44.2137 35.9829 44.3657C35.8294 44.5178 35.7246 44.712 35.6817 44.9237C35.6389 45.1354 35.6598 45.355 35.742 45.5548C35.8242 45.7545 35.9639 45.9254 36.1434 46.0456C36.3229 46.1658 36.534 46.23 36.75 46.23Z" fill="#231916"/>
</g>
<defs>
<clipPath id="clip0_8063_6911">
<rect width="70.41" height="70.13" fill="white"/>
</clipPath>
</defs>
</svg>
