<svg width="69" height="68" viewBox="0 0 69 68" fill="none" xmlns="http://www.w3.org/2000/svg">
<g clip-path="url(#clip0_8063_8065)">
<path d="M9.73999 31.65H42.96C43.88 31.65 44.96 31.6499 44.37 30.7199C43.77 30.1299 42.19 28.33 43.23 27.25C44.27 26.17 44.97 26.38 46.17 27.25L58.17 34.52C58.99 35.01 58.61 35.52 58.17 35.77L45.86 42.82C44.34 43.58 42.22 43.2 43.09 40.82C43.3522 39.8778 43.8798 39.0307 44.61 38.38C44.61 38.38 44.94 37.78 43.74 37.88C42.54 37.98 9.73999 37.88 9.73999 37.88" fill="#D20D18"/>
<path d="M5.39001 67.73C4.02391 67.7248 2.71496 67.1812 1.7471 66.217C0.779242 65.2529 0.230551 63.9462 0.220032 62.5801" stroke="#231916" stroke-width="0.45"/>
<path d="M0.22998 62.5701V5.43005" stroke="#231916" stroke-width="0.45"/>
<path d="M0.219996 5.44003C0.217879 4.75518 0.351056 4.07657 0.611902 3.44333C0.872748 2.81009 1.25611 2.23463 1.73998 1.74997C2.21555 1.26504 2.78369 0.880584 3.4107 0.619475C4.03771 0.358365 4.71079 0.225904 5.38998 0.229948" stroke="#231916" stroke-width="0.45"/>
<path d="M5.39001 0.22998H62.78" stroke="#231916" stroke-width="0.45"/>
<path d="M62.77 0.22998C63.4485 0.230944 64.1201 0.365766 64.7464 0.626587C65.3727 0.887407 65.9414 1.26913 66.42 1.75C67.3662 2.74452 67.8896 4.06741 67.88 5.44006" stroke="#231916" stroke-width="0.45"/>
<path d="M67.89 5.43005V62.5701" stroke="#231916" stroke-width="0.45"/>
<path d="M67.89 62.5801C67.8966 63.2549 67.7693 63.9242 67.5153 64.5494C67.2614 65.1746 66.8859 65.7431 66.4106 66.2222C65.9353 66.7012 65.3696 67.0811 64.7464 67.34C64.1232 67.5988 63.4548 67.7313 62.78 67.73" stroke="#231916" stroke-width="0.45"/>
<path d="M62.78 67.73H5.39001" stroke="#231916" stroke-width="0.45"/>
<path d="M5.39001 65.8301C4.52813 65.8093 3.70906 65.4501 3.11002 64.8301C2.81076 64.5313 2.5743 64.1756 2.41458 63.7841C2.25486 63.3925 2.17512 62.9729 2.18002 62.55" stroke="#231916" stroke-width="0.45"/>
<path d="M2.17999 62.5701V5.43005" stroke="#231916" stroke-width="0.45"/>
<path d="M2.17999 5.44006C2.17989 4.58405 2.51647 3.7623 3.11707 3.15234C3.71766 2.54239 4.53407 2.19318 5.38998 2.18005" stroke="#231916" stroke-width="0.45"/>
<path d="M5.39001 2.17004H62.78" stroke="#231916" stroke-width="0.45"/>
<path d="M62.77 2.18005C63.1975 2.1865 63.6194 2.27823 64.0109 2.44995C64.4025 2.62167 64.7557 2.86994 65.05 3.18005C65.3526 3.47641 65.5911 3.83162 65.7511 4.22375C65.911 4.61589 65.989 5.03667 65.98 5.46008" stroke="#231916" stroke-width="0.45"/>
<path d="M65.99 5.43005V62.5701" stroke="#231916" stroke-width="0.45"/>
<path d="M65.98 62.5801C65.9854 63.0006 65.9069 63.4179 65.7489 63.8077C65.5909 64.1975 65.3567 64.5519 65.06 64.85C64.4468 65.4553 63.6308 65.8116 62.77 65.85" stroke="#231916" stroke-width="0.45"/>
<path d="M62.78 65.83H5.39001" stroke="#231916" stroke-width="0.45"/>
<path d="M24.46 52.22C24.4344 51.9788 24.3407 51.75 24.19 51.5601C24.1158 51.4549 24.0167 51.3696 23.9015 51.312C23.7864 51.2544 23.6587 51.2262 23.53 51.23H23.46V49.77H23.67C23.9827 49.7784 24.294 49.8152 24.6001 49.88C24.9236 49.9952 25.2056 50.204 25.41 50.48C25.5943 50.6787 25.728 50.9188 25.8 51.1801C25.9586 51.491 26.0505 51.8316 26.07 52.1801M23.46 53.25C23.51 53.2 23.62 53.2001 23.73 53.2001C24.0967 53.1938 24.4597 53.2738 24.7897 53.4336C25.1197 53.5934 25.4076 53.8285 25.63 54.12C26.0337 54.7078 26.2434 55.4071 26.23 56.12C26.2637 57.0149 25.9961 57.8952 25.47 58.62C25.2477 58.9141 24.9584 59.1509 24.6263 59.3109C24.2941 59.4709 23.9286 59.5495 23.56 59.54H23.46V58.0801H23.51C23.6643 58.0807 23.8161 58.0403 23.9496 57.963C24.0832 57.8857 24.1938 57.7742 24.27 57.64C24.5629 57.2314 24.6979 56.7305 24.65 56.23C24.6762 55.7761 24.5216 55.3302 24.22 54.99C24.1243 54.8839 24.0069 54.7995 23.8758 54.7426C23.7447 54.6856 23.6029 54.6575 23.46 54.66V53.25ZM23.46 51.1901C23.2268 51.2221 23.0079 51.3214 22.8303 51.476C22.6527 51.6305 22.524 51.8335 22.46 52.0601C22.2676 52.6746 22.1765 53.3163 22.19 53.9601V54.02C22.3076 53.7844 22.4966 53.5918 22.73 53.47C22.941 53.3307 23.1873 53.2544 23.44 53.25V54.67C23.282 54.6555 23.1229 54.6829 22.9789 54.7496C22.8349 54.8164 22.7111 54.92 22.62 55.05C22.468 55.2188 22.3516 55.4165 22.2778 55.6312C22.2039 55.846 22.174 56.0735 22.19 56.3C22.1804 56.7607 22.3093 57.2135 22.56 57.6C22.6583 57.7447 22.789 57.8645 22.9418 57.9496C23.0947 58.0347 23.2653 58.0827 23.44 58.09V59.55C22.955 59.5693 22.4757 59.4397 22.0664 59.1787C21.657 58.9177 21.3373 58.5378 21.15 58.09C20.7267 57.0367 20.539 55.9036 20.6001 54.77C20.515 53.6874 20.665 52.5992 21.04 51.5801C21.1991 51.0611 21.5155 50.6042 21.9454 50.2728C22.3754 49.9414 22.8976 49.7517 23.44 49.73L23.46 51.1901Z" fill="#231916"/>
<path d="M30.37 49.77C30.8008 49.7498 31.2285 49.8506 31.605 50.0609C31.9814 50.2712 32.2914 50.5827 32.5 50.9601C33.367 53.3815 33.367 56.0286 32.5 58.45C32.2884 58.8255 31.978 59.1357 31.6025 59.3473C31.227 59.5588 30.8008 59.6635 30.37 59.65V58.13C30.5864 58.1211 30.7941 58.0422 30.9618 57.9051C31.1295 57.7681 31.2482 57.5803 31.3 57.37C31.5174 56.5009 31.6083 55.6051 31.57 54.7101C31.608 53.7985 31.5172 52.8861 31.3 52C31.2482 51.7897 31.1295 51.6019 30.9618 51.4648C30.7941 51.3278 30.5864 51.2488 30.37 51.24M28.2 50.9601C28.4243 50.5877 28.7433 50.2813 29.1245 50.0722C29.5057 49.8632 29.9354 49.7589 30.37 49.77V51.24C30.1514 51.2366 29.9387 51.3114 29.7701 51.4507C29.6015 51.5899 29.488 51.7846 29.45 52C29.2347 52.8864 29.1439 53.7986 29.18 54.7101C29.1469 55.6049 29.2378 56.5 29.45 57.37C29.488 57.5853 29.6015 57.7801 29.7701 57.9194C29.9387 58.0587 30.1514 58.1333 30.37 58.13V59.65C29.9343 59.6611 29.5035 59.5558 29.122 59.3448C28.7406 59.1339 28.4223 58.825 28.2 58.45C27.3331 56.0286 27.3331 53.3815 28.2 50.9601Z" fill="#231916"/>
<path d="M37.3 49.77C37.7286 49.7539 38.1534 49.8566 38.5275 50.0666C38.9016 50.2766 39.2104 50.5857 39.42 50.96C40.3531 53.3695 40.3531 56.0405 39.42 58.45C39.2126 58.8269 38.9045 59.1387 38.5301 59.3507C38.1558 59.5626 37.7299 59.6662 37.3 59.65V58.13C37.5146 58.119 37.72 58.0392 37.8858 57.9023C38.0515 57.7654 38.1687 57.5787 38.22 57.3699C38.4322 56.5 38.5231 55.6049 38.49 54.71C38.5227 53.7987 38.4319 52.8869 38.22 51.9999C38.1687 51.7912 38.0515 51.6046 37.8858 51.4677C37.72 51.3308 37.5146 51.2509 37.3 51.2399M35.17 50.96C35.3795 50.5834 35.6897 50.2725 36.0659 50.0623C36.4421 49.8521 36.8694 49.7509 37.3 49.77V51.2399C37.0836 51.2488 36.8759 51.3277 36.7082 51.4648C36.5405 51.6018 36.4218 51.7896 36.37 51.9999C36.1736 52.8891 36.0996 53.8009 36.15 54.71C36.102 55.6026 36.1761 56.4974 36.37 57.3699C36.4218 57.5803 36.5405 57.768 36.7082 57.9051C36.8759 58.0422 37.0836 58.1211 37.3 58.13V59.65C36.8682 59.6692 36.4398 59.5669 36.0632 59.3548C35.6867 59.1427 35.3772 58.8293 35.17 58.45C34.2231 56.0431 34.2231 53.3669 35.17 50.96Z" fill="#231916"/>
<path d="M50.46 59.37H48.82V55.14C48.8571 54.7848 48.7609 54.4283 48.55 54.14C48.4877 54.0402 48.4006 53.9582 48.2972 53.9021C48.1938 53.846 48.0776 53.8178 47.96 53.8201C47.7904 53.812 47.6215 53.8472 47.4693 53.9224C47.3171 53.9976 47.1866 54.1104 47.09 54.25C46.9277 54.5577 46.8484 54.9024 46.86 55.25V59.4201H45.28V55.25C45.3016 54.9317 45.2467 54.6129 45.12 54.3201C45.0601 54.1596 44.947 54.0245 44.7997 53.9372C44.6523 53.8498 44.4795 53.8155 44.31 53.84C44.147 53.8295 43.9843 53.8641 43.8397 53.94C43.695 54.0158 43.5741 54.13 43.49 54.27C43.3466 54.5556 43.2713 54.8706 43.27 55.1901V59.4201H41.69V52.48H43.22V53.48H43.27C43.377 53.1945 43.5441 52.9353 43.76 52.72C44.106 52.4215 44.5536 52.2676 45.01 52.2901C45.3632 52.2745 45.7126 52.3689 46.01 52.5601C46.2789 52.7836 46.5 53.0591 46.66 53.37C46.8036 53.1078 46.9856 52.8685 47.2 52.6601C47.5067 52.4091 47.8939 52.2776 48.29 52.2901C48.5722 52.2747 48.8545 52.3193 49.1182 52.421C49.382 52.5227 49.6211 52.6792 49.82 52.88C50.2423 53.3578 50.4581 53.9835 50.42 54.62" fill="#231916"/>
<path d="M20.85 13.36H16.77V18.89H15.3V13.36H11.3V11.65H17.89C18 11.1 18.05 10.56 18.11 10.02C18.17 9.48002 18.16 8.87997 18.16 8.33997H12.16V6.71008H19.83C19.83 7.58008 19.78 8.39008 19.72 9.21008C19.6867 10.0282 19.5998 10.8432 19.46 11.65H20.87" fill="#231916"/>
<path d="M36.96 18.51V16.89H37.89V18.51M36.96 15.51V6.18005H37.35C37.51 6.18005 37.62 6.18003 37.67 6.28003C37.72 6.38003 37.73 6.34007 37.73 6.45007C37.7268 6.527 37.7063 6.60218 37.67 6.67004C37.6503 6.75559 37.6503 6.8445 37.67 6.93005C37.6257 7.055 37.6087 7.18799 37.62 7.32007V10.52H38.87V12.25H37.62V15.51H36.96ZM34.84 6.83008C34.8988 8.3049 34.553 9.76768 33.84 11.0601C33.0252 12.4047 31.8321 13.4795 30.41 14.15C30.3 13.88 30.13 13.61 29.97 13.29C29.81 12.97 29.7 12.74 29.54 12.47C30.058 12.3771 30.5518 12.1804 30.9918 11.8917C31.4317 11.603 31.8087 11.2283 32.1 10.79C32.4051 10.4252 32.6606 10.0217 32.86 9.58997C33.0057 9.24858 33.0806 8.8812 33.08 8.51001H29.97V6.83008H34.84ZM36.96 6.18005V15.51H36.1V6.18005H36.96ZM36.96 16.87H32.13V15.13V14.92C32.19 14.7 32.19 14.59 32.13 14.53C31.924 14.447 31.7015 14.4128 31.48 14.4301H30.61V18.49H36.92L36.96 16.87Z" fill="#231916"/>
<path d="M56.67 12.49H47.15V10.8101H49.65C49.76 10.3201 49.81 9.89007 49.87 9.45007C49.893 9.01704 49.893 8.58305 49.87 8.15002H47.86V6.52002H51.46C51.46 7.28002 51.4 8.04 51.35 8.75C51.3 9.46 51.19 10.1601 51.08 10.8101H53.86C53.96 10.3201 54.02 9.81002 54.07 9.40002C54.1197 8.98531 54.1398 8.56759 54.13 8.15002H51.95V6.52002H55.6C55.6 7.39002 55.6 8.10001 55.54 8.64001C55.49 9.40001 55.44 10.1601 55.33 10.8101H56.63M55.63 13.3101V14.61H49.47V15.3101H55.63V16.65H49.47V17.36H55.79V18.7101H48.11V13.29L55.63 13.3101Z" fill="#231916"/>
</g>
<defs>
<clipPath id="clip0_8063_8065">
<rect width="68.12" height="67.96" fill="white"/>
</clipPath>
</defs>
</svg>
