<svg width="76" height="67" viewBox="0 0 76 67" fill="none" xmlns="http://www.w3.org/2000/svg">
<g clip-path="url(#clip0_8063_6550)">
<path d="M74.6101 59.78L41.3501 2.58001C39.5801 -0.539994 36.3501 -0.539994 34.5101 2.58001L1.07005 59.89C-0.879949 63.19 0.720027 65.77 4.67003 65.77H70.9601C75.2101 65.77 76.6201 63.3 74.6101 59.77" fill="white"/>
<path d="M74.6101 59.78L41.3501 2.58001C39.5801 -0.539994 36.3501 -0.539994 34.5101 2.58001L1.07005 59.89C-0.879949 63.19 0.720027 65.77 4.67003 65.77H70.9601C75.2101 65.77 76.6201 63.3 74.6101 59.78Z" stroke="#D20D18" stroke-width="0.49"/>
<path d="M73.1399 60.42L40.1399 3.64C38.9599 1.64 36.8399 1.64 35.6599 3.7L2.51992 60.54C1.33992 62.54 2.62995 64.19 4.92995 64.19H70.5199C73.1699 64.19 74.24 62.42 73.11 60.42" fill="#D20D18"/>
<path d="M37.76 12.92L11.81 57.73H64.18" fill="#F8B500"/>
<path d="M37.76 12.92L11.81 57.73H64.18L37.76 12.92Z" stroke="#D20D18" stroke-width="0.56"/>
<path d="M29.9701 52.02C30.2813 51.6191 30.7266 51.3439 31.2244 51.2447C31.7221 51.1455 32.2389 51.229 32.68 51.48C33.51 51.84 35.75 52.78 35.27 54.25C34.79 55.72 33.27 55.37 32.56 55.48C31.85 55.59 29.79 56.01 28.91 55.07C28.03 54.13 28.26 53.25 28.91 52.84C29.56 52.43 29.7901 52.49 29.9701 52.02Z" fill="#231916"/>
<path d="M34.15 45.14C33.33 45.61 32.4001 46.91 32.8601 48.02C33.3201 49.13 33.9801 49.66 34.9801 49.25C35.4332 49.01 35.8173 48.6579 36.0957 48.2272C36.374 47.7966 36.5373 47.3017 36.57 46.79C36.81 45.9 36.22 44.67 34.15 45.14Z" fill="#231916"/>
<path d="M38.45 40.55C38.1 41.03 39.86 39.38 40.45 41.03C41.04 42.68 40.45 42.14 40.39 42.73C40.3633 43.2587 40.1641 43.7641 39.8227 44.1687C39.4813 44.5733 39.0167 44.8547 38.5001 44.97C36.8501 45.43 36.74 43.55 36.56 43.37C36.38 43.19 36.38 42.43 37.27 42.09C38.16 41.75 37.6801 41.32 38.5001 40.55" fill="#231916"/>
<path d="M39.7 36.85C40.35 36.2 41.8201 36.67 41.7601 37.38C41.7001 38.09 42.2899 38.79 41.5299 39.26C40.2399 40.09 38.82 38.49 39.7 36.85Z" fill="#231916"/>
<path d="M47.85 30.48L63.7699 57.48L41.41 57.54C41.47 56.95 41.12 55.96 41.12 55.02C41.12 54.08 41.1199 48.49 42.7699 47.55C43.2399 47.37 41.77 46.61 42.24 45.2C42.65 43.44 42.24 41.61 43.35 40.73C43.6 40.67 42.5901 40.25 42.8801 38.9C43.1701 37.55 42.94 35.9 45.3 34.44C45.36 33.85 44.66 34.14 44.07 34.67C43.48 35.2 43.24 35.44 42.24 35.08C41.24 34.72 40.53 33.85 41.47 32.73C42.41 31.61 43.12 30.8 44.24 31.09C45.83 31.44 45.8301 31.62 46.1301 32.09C46.4301 32.56 46.02 30.32 47.37 30.39" fill="#231916"/>
</g>
<defs>
<clipPath id="clip0_8063_6550">
<rect width="75.76" height="66.02" fill="white"/>
</clipPath>
</defs>
</svg>
