<svg width="72" height="72" viewBox="0 0 72 72" fill="none" xmlns="http://www.w3.org/2000/svg">
<g clip-path="url(#clip0_8063_6869)">
<path d="M35.93 71.37C42.9578 71.3424 49.8199 69.2335 55.6502 65.3095C61.4806 61.3856 66.0179 55.8224 68.6895 49.3222C71.3612 42.822 72.0474 35.6761 70.6616 28.7862C69.2758 21.8964 65.88 15.5715 60.903 10.6097C55.9259 5.64796 49.5905 2.27175 42.6964 0.907198C35.8023 -0.457356 28.6585 0.25092 22.1666 2.9426C15.6746 5.63428 10.1255 10.1887 6.2196 16.0312C2.31367 21.8736 0.225983 28.7422 0.220001 35.77C0.225248 40.4528 1.15331 45.0888 2.95111 49.4128C4.74892 53.7367 7.38123 57.664 10.6976 60.9702C14.014 64.2763 17.9494 66.8965 22.2789 68.681C26.6084 70.4655 31.2472 71.3792 35.93 71.37Z" stroke="#D20D18" stroke-width="0.45"/>
<path d="M35.93 2.35002C29.3135 2.36387 22.8497 4.33905 17.3556 8.02586C11.8615 11.7127 7.58374 16.9455 5.06314 23.0631C2.54255 29.1806 1.89226 35.9082 3.19446 42.3952C4.49666 48.8823 7.69288 54.8377 12.3791 59.5086C17.0654 64.1795 23.0312 67.3561 29.5225 68.6369C36.0138 69.9178 42.7392 69.2454 48.8485 66.7048C54.9577 64.1641 60.1765 59.8692 63.8452 54.363C67.514 48.8568 69.4679 42.3865 69.46 35.77C69.4388 26.8939 65.8959 18.3891 59.6092 12.123C53.3226 5.85699 44.8061 2.34205 35.93 2.35002ZM35.93 61.8801C30.7774 61.8603 25.7462 60.3146 21.4712 57.4383C17.1962 54.5619 13.869 50.4837 11.9095 45.7182C9.95003 40.9528 9.44605 35.7136 10.4612 30.662C11.4763 25.6104 13.9651 20.9728 17.6134 17.3342C21.2617 13.6957 25.906 11.2193 30.9603 10.2177C36.0146 9.21609 41.2524 9.7341 46.0126 11.7063C50.7728 13.6786 54.8421 17.0167 57.707 21.2994C60.5719 25.5821 62.104 30.6174 62.11 35.77C62.1047 39.2018 61.4233 42.599 60.1045 45.7673C58.7858 48.9356 56.8556 51.813 54.4243 54.235C51.993 56.657 49.1082 58.5762 45.9349 59.8828C42.7615 61.1894 39.3618 61.8579 35.93 61.85" fill="#D20D18"/>
<path d="M55.91 59.43L59.78 55.79L16.45 12.6L12.58 16.24" fill="#D20D18"/>
<path d="M31.9 35.99C29.29 40.17 28.58 43.75 32.01 46.9C32.01 46.9 34.62 49.99 34.35 52.54V57.15H26.57V53.41C26.26 51.7813 25.5252 50.2634 24.44 49.01C19.98 43.86 22.21 35.56 25.15 32.3C25.97 31.38 25.31 27.96 25.31 27.96L23.08 28.88C21.34 28.88 20.36 27.96 21.72 25.95L28.2 15.85C28.85 14.7 29.2 14.54 30.11 15.74C30.11 15.74 34.79 23.39 36.11 25.56C37.43 27.73 36.82 29.03 34.91 28.38L32.57 27.19C32.57 27.19 33.66 33.19 31.86 36.03" fill="#231916"/>
<path d="M34.24 42.93C33.97 43.05 34.62 44.3 35.39 44.84V46.57C35.4632 46.7702 35.5936 46.9445 35.7649 47.0714C35.9362 47.1983 36.1409 47.2721 36.3538 47.2838C36.5666 47.2955 36.7782 47.2446 36.9624 47.1372C37.1466 47.0299 37.2952 46.871 37.39 46.68L37.5 44.94H50.84L50.89 46.73C51.11 47.49 52.58 47.73 52.89 46.79L53.11 44.79C53.27 44.79 54.41 43 54.11 42.88" fill="#231916"/>
<path d="M33.86 41.52H42.24V42.78H34.24C34.1044 42.6022 34.0054 42.3994 33.9487 42.1831C33.8921 41.9668 33.8789 41.7414 33.91 41.52" fill="#231916"/>
<path d="M42.63 41.52H46.63C46.79 41.52 46.79 41.52 46.79 41.69V42.69C46.79 42.85 46.79 42.85 46.63 42.85H42.63C42.46 42.85 42.46 42.85 42.46 42.69V41.69C42.46 41.52 42.46 41.52 42.63 41.52Z" fill="#231916"/>
<path d="M46.98 41.52H54.49C54.5201 41.752 54.5029 41.9878 54.4393 42.2129C54.3757 42.4381 54.267 42.648 54.12 42.83H46.98" fill="#231916"/>
<path d="M33.86 38.98H44.69V41.42H33.69C33.5327 40.6064 33.5878 39.7661 33.85 38.98" fill="#231916"/>
<path d="M44.42 38.98H54.5C54.821 39.7349 54.8566 40.5808 54.6 41.36H44.42" fill="#231916"/>
<path d="M44.04 31.43H49.16C49.4481 31.3729 49.7471 31.4253 49.9986 31.577C50.2501 31.7286 50.436 31.9686 50.52 32.25L52.26 35.99C53.1064 36.8187 53.8243 37.7692 54.39 38.81H44.04V35.94H51.12L49.97 32.94C49.904 32.6834 49.7468 32.4597 49.5277 32.3106C49.3087 32.1615 49.0429 32.0973 48.78 32.13H44.04M34.04 38.8C34.3763 37.6907 35.0382 36.7082 35.94 35.98L37.09 32.46C37.179 32.1373 37.3822 31.858 37.6619 31.674C37.9415 31.49 38.2784 31.414 38.61 31.46H44.05V32.17H38.94C37.94 32.17 38.01 32.17 37.68 33.09L36.98 35.97H44.05V38.85L34.04 38.8Z" fill="#231916"/>
<path d="M35.71 39.25C35.9752 39.25 36.2296 39.3553 36.4171 39.5429C36.6047 39.7304 36.71 39.9848 36.71 40.25C36.6898 40.5011 36.5757 40.7353 36.3903 40.9059C36.2049 41.0765 35.9619 41.1708 35.71 41.17C35.4613 41.1601 35.2243 41.0621 35.0411 40.8936C34.858 40.7251 34.7406 40.497 34.71 40.25C34.71 39.9848 34.8154 39.7304 35.0029 39.5429C35.1904 39.3553 35.4448 39.25 35.71 39.25Z" fill="white"/>
<path d="M38.11 39.25C38.3705 39.2644 38.6166 39.3744 38.8011 39.5589C38.9857 39.7434 39.0956 39.9895 39.11 40.25C39.076 40.4903 38.9559 40.71 38.7719 40.8683C38.5879 41.0265 38.3526 41.1124 38.11 41.11C37.8673 41.1124 37.6321 41.0265 37.4481 40.8683C37.2641 40.71 37.1439 40.4903 37.11 40.25C37.1265 39.9902 37.2372 39.7453 37.4212 39.5612C37.6053 39.3772 37.8502 39.2665 38.11 39.25Z" fill="white"/>
<path d="M50.47 39.25C50.7211 39.2702 50.9554 39.3843 51.1259 39.5697C51.2965 39.7551 51.3908 39.9981 51.39 40.25C51.3716 40.4879 51.2688 40.7114 51.1001 40.8801C50.9314 41.0488 50.7079 41.1516 50.47 41.17C50.2181 41.1708 49.9751 41.0765 49.7897 40.9059C49.6043 40.7353 49.4902 40.5011 49.47 40.25C49.47 39.9848 49.5753 39.7304 49.7629 39.5429C49.9504 39.3553 50.2048 39.25 50.47 39.25Z" fill="white"/>
<path d="M52.78 39.19C53.0311 39.2102 53.2654 39.3243 53.4359 39.5097C53.6065 39.6951 53.7008 39.9381 53.7 40.19C53.6949 40.4324 53.5963 40.6634 53.4249 40.8349C53.2535 41.0063 53.0224 41.1049 52.78 41.11C52.5281 41.1108 52.2851 41.0165 52.0997 40.8459C51.9143 40.6754 51.8002 40.4411 51.78 40.19C51.78 39.9248 51.8854 39.6704 52.0729 39.4829C52.2604 39.2953 52.5148 39.19 52.78 39.19Z" fill="white"/>
</g>
<defs>
<clipPath id="clip0_8063_6869">
<rect width="71.87" height="71.59" fill="white"/>
</clipPath>
</defs>
</svg>
