<svg width="73" height="69" viewBox="0 0 73 69" fill="none" xmlns="http://www.w3.org/2000/svg">
<g clip-path="url(#clip0_8063_7716)">
<path d="M5.85001 67.85C4.36814 67.8447 2.94835 67.2544 1.89957 66.2075C0.850786 65.1606 0.257932 63.7419 0.250031 62.26" stroke="#231916" stroke-width="0.49"/>
<path d="M0.23999 62.26V5.82996" stroke="#231916" stroke-width="0.49"/>
<path d="M0.249971 5.82998C0.246477 5.09703 0.389814 4.37081 0.67148 3.69412C0.953146 3.01744 1.36745 2.40398 1.88999 1.88998C2.41495 1.36474 3.03857 0.948553 3.72507 0.665373C4.41157 0.382193 5.14738 0.237651 5.88999 0.240019" stroke="#231916" stroke-width="0.49"/>
<path d="M5.85001 0.23999H66.48" stroke="#231916" stroke-width="0.49"/>
<path d="M66.48 0.23999C67.9594 0.247815 69.3762 0.837579 70.4241 1.88177C71.472 2.92597 72.0669 4.34064 72.08 5.81995" stroke="#231916" stroke-width="0.49"/>
<path d="M72.08 5.82996V62.26" stroke="#231916" stroke-width="0.49"/>
<path d="M72.08 62.26C72.0805 62.9934 71.9348 63.7195 71.6515 64.396C71.3682 65.0725 70.9529 65.6858 70.43 66.2C69.9192 66.7302 69.3052 67.1502 68.6259 67.434C67.9465 67.7177 67.2162 67.8593 66.48 67.85" stroke="#231916" stroke-width="0.49"/>
<path d="M66.48 67.85H5.85001" stroke="#231916" stroke-width="0.49"/>
<path d="M5.85 65.71C5.39199 65.7167 4.93731 65.6316 4.51272 65.4597C4.08813 65.2878 3.70219 65.0327 3.37783 64.7092C3.05347 64.3858 2.79727 64.0006 2.62417 63.5765C2.45107 63.1524 2.36463 62.698 2.37002 62.24" stroke="#231916" stroke-width="0.49"/>
<path d="M2.37 62.26V5.82996" stroke="#231916" stroke-width="0.49"/>
<path d="M2.37002 5.82996C2.36463 5.37193 2.45107 4.91744 2.62417 4.49335C2.79727 4.06926 3.05347 3.68415 3.37783 3.36072C3.70219 3.03729 4.08813 2.78211 4.51272 2.61023C4.93731 2.43835 5.39199 2.35328 5.85 2.35999" stroke="#231916" stroke-width="0.49"/>
<path d="M5.85001 2.35999H66.48" stroke="#231916" stroke-width="0.49"/>
<path d="M66.48 2.36C66.939 2.35438 67.3945 2.43981 67.8202 2.61147C68.2459 2.78312 68.6333 3.03758 68.96 3.36C69.3016 3.6731 69.5728 4.05521 69.7555 4.48103C69.9383 4.90686 70.0285 5.36666 70.0201 5.82997" stroke="#231916" stroke-width="0.49"/>
<path d="M70.02 5.82996V62.26" stroke="#231916" stroke-width="0.49"/>
<path d="M70.0201 62.26C70.0278 62.7232 69.9374 63.1828 69.7547 63.6085C69.572 64.0343 69.3011 64.4165 68.96 64.73C68.6333 65.0524 68.2459 65.3067 67.8202 65.4784C67.3945 65.65 66.939 65.7356 66.48 65.73" stroke="#231916" stroke-width="0.49"/>
<path d="M66.48 65.73H5.85001" stroke="#231916" stroke-width="0.49"/>
<path d="M19 23.8199V22.05H20.13V23.8199M19 20.58V10.47H19.48C19.65 10.53 19.77 10.53 19.83 10.59C19.89 10.65 19.94 10.65 19.94 10.71C19.9596 10.8056 19.9596 10.9043 19.94 10.9999C19.88 11.1099 19.88 11.23 19.82 11.29V15.1799H21.42V17.0599H19.82V20.58H19ZM15.36 11.9399C15.8942 12.6961 16.1811 13.5992 16.1811 14.525C16.1811 15.4508 15.8942 16.3538 15.36 17.11C15.0549 17.4837 14.6657 17.7799 14.2243 17.9745C13.7828 18.1692 13.3017 18.2567 12.82 18.23H12.76V16.53H12.82C13.0247 16.5324 13.2261 16.4787 13.4024 16.3746C13.5787 16.2706 13.7231 16.1203 13.82 15.9399C14.1217 15.5307 14.2672 15.0271 14.23 14.52C14.2678 14.019 14.122 13.5214 13.82 13.1199C13.7124 12.9535 13.5641 12.8175 13.3891 12.7247C13.214 12.632 13.018 12.5856 12.82 12.59H12.76V10.83H12.82C13.3008 10.802 13.7816 10.888 14.2229 11.0809C14.6643 11.2738 15.0539 11.5681 15.36 11.9399ZM19 10.47V20.58H17.82V10.47H19ZM19 23.8199H12.76V22.05H19V23.8199ZM12.76 18.23C12.27 18.2537 11.781 18.1651 11.3304 17.971C10.8797 17.7769 10.4795 17.4824 10.1601 17.11C9.62024 16.3561 9.32986 15.4522 9.32986 14.525C9.32986 13.5978 9.62024 12.6938 10.1601 11.9399C10.48 11.5687 10.8805 11.2757 11.3312 11.0833C11.7819 10.8909 12.2707 10.8042 12.76 10.83V12.59C12.5422 12.5755 12.3242 12.6165 12.1266 12.7092C11.929 12.8019 11.7582 12.9432 11.63 13.1199C11.3794 13.5425 11.2578 14.0292 11.2801 14.52C11.2585 15.017 11.3799 15.5098 11.63 15.9399C11.7465 16.1321 11.9134 16.2887 12.1126 16.3928C12.3118 16.4968 12.5358 16.5442 12.76 16.53V18.23ZM12.76 22.05V23.8199H10.51V19.4H11.6C11.8821 19.3783 12.1655 19.4193 12.43 19.52C12.54 19.58 12.54 19.6999 12.43 19.9299L12.37 20.17V22.05H12.76Z" fill="#231916"/>
<path d="M30.51 17.0599C30.63 17.0599 30.68 17.06 30.74 17.17C30.8 17.28 30.63 17.35 30.51 17.4M30.51 22.05H34.46V23.8199H30.51V22.05ZM30.51 15.35H32.39V20.41H34.39V11.23C34.45 11.17 34.45 11.0599 34.51 10.9399C34.57 10.8199 34.62 10.59 34.51 10.53C34.1814 10.4614 33.8445 10.4412 33.51 10.47H32.45V13.6399H30.57L30.51 15.35ZM30.45 11.17V12.9999H28.0301V13.47C27.9993 14.2718 28.2466 15.0595 28.73 15.6999C29.1316 16.3606 29.767 16.8461 30.51 17.0599V17.4L30.1501 17.9399C29.9507 18.219 29.7734 18.5132 29.62 18.8199C29.0012 18.5083 28.4584 18.0645 28.0301 17.5199C27.5972 17.0513 27.2395 16.5182 26.97 15.9399C26.7705 16.4918 26.4249 16.9792 25.97 17.35C25.4365 17.9528 24.7956 18.4512 24.08 18.8199C23.9 18.5199 23.67 18.29 23.48 17.99C23.243 17.7395 22.9891 17.5056 22.72 17.29C23.2076 17.2184 23.6725 17.0371 24.08 16.7599C24.5058 16.5192 24.8824 16.2003 25.19 15.8199C25.4864 15.4917 25.7264 15.1167 25.9001 14.7099C26.092 14.4114 26.1959 14.0648 26.2 13.7099V12.9999H23.6V11.17H30.45ZM30.51 13.6399H30.2701V15.35H30.51V13.6399ZM30.51 22.05V23.8199H24.43V19.47H25.6C25.8955 19.4321 26.1946 19.4321 26.49 19.47C26.55 19.53 26.55 19.6499 26.49 19.8799L26.43 20.1199V21.9999L30.51 22.05Z" fill="#231916"/>
<path d="M44.01 14.9999C44.07 15.0499 44.13 15.12 44.07 15.29L44.01 15.47V16.64H49.32V18.4H43.01V14.88C43.3481 14.8508 43.6885 14.8917 44.01 14.9999ZM43.01 20.94V19.17H47.96V24.17H46.07V20.94H43.01ZM43.01 13.1199V13.0599C43.4649 13.7583 44.0962 14.3241 44.84 14.7C45.7438 15.1854 46.7195 15.523 47.73 15.7C47.8576 15.3901 48.0185 15.095 48.21 14.82C48.3596 14.5112 48.537 14.2166 48.74 13.94C48.0605 13.9154 47.3875 13.7976 46.74 13.59C46.2319 13.3695 45.7406 13.1121 45.2701 12.82C44.9184 12.5705 44.6021 12.2744 44.33 11.94C44.1484 11.7467 44.042 11.4949 44.0301 11.23C44.1501 10.94 44.21 10.76 44.09 10.7C43.8413 10.5585 43.5545 10.499 43.2701 10.53H42.97L43.01 13.1199ZM43.01 18.4H36.87V16.64H42.12V14.88H43.01V18.4ZM43.01 10.53H42.12C42.0925 11.0137 41.9433 11.4827 41.6863 11.8934C41.4294 12.3042 41.073 12.6435 40.6501 12.88C39.6586 13.6158 38.4643 14.0279 37.23 14.0599C37.4627 14.3387 37.6766 14.6327 37.87 14.94C38.11 15.23 38.29 15.52 38.47 15.77C39.4317 15.584 40.3506 15.2211 41.18 14.7C41.921 14.3475 42.5533 13.8017 43.01 13.1199V10.53ZM43.01 20.94H38.23V19.17H43.01V20.94Z" fill="#231916"/>
<path d="M57.99 18.23C58.05 18.29 58.05 18.41 57.99 18.58C57.9759 18.681 57.9558 18.7812 57.93 18.8799C57.8811 18.9898 57.8605 19.1101 57.87 19.23V20.71H63.3V22.53H50.85V20.71H55.98V18.1299H57.0399C57.3773 18.1001 57.7172 18.1375 58.0399 18.24M61.99 11.36V13.1799H54.2V15.89H62.2V17.65H52.2899V11.36H61.99Z" fill="#231916"/>
<path d="M31.3299 43.45C32.6253 43.9285 33.6952 44.8736 34.3299 46.1C35.0871 47.4413 35.4736 48.9599 35.4499 50.5C35.5056 51.6952 35.2898 52.8874 34.8187 53.9872C34.3476 55.087 33.6335 56.0657 32.73 56.85C30.9757 58.4504 28.6741 59.3167 26.2999 59.27C25.052 59.331 23.8057 59.1201 22.6472 58.6522C21.4887 58.1843 20.4456 57.4705 19.59 56.5599C17.9647 54.5352 17.1424 51.9827 17.28 49.39V48.98H21.88V49.33C21.7937 50.7683 22.1915 52.1941 23.01 53.38C23.3755 53.9023 23.8717 54.3195 24.4491 54.5897C25.0265 54.86 25.6647 54.9738 26.2999 54.9199C26.9153 54.9663 27.5334 54.8765 28.1101 54.6569C28.6868 54.4372 29.2082 54.0933 29.6368 53.6493C30.0655 53.2053 30.391 52.6723 30.5903 52.0883C30.7896 51.5042 30.8578 50.8834 30.7899 50.27C30.8604 49.5326 30.7074 48.791 30.3507 48.1418C29.994 47.4927 29.4501 46.9659 28.7899 46.63C27.4315 46.0615 25.9591 45.8183 24.49 45.9199H24.25V41.9199H24.49C25.7607 41.994 27.0263 41.7062 28.14 41.09C28.6913 40.7634 29.1394 40.2881 29.433 39.7186C29.7266 39.1491 29.8537 38.5085 29.7999 37.87C29.8153 37.3857 29.7311 36.9033 29.5525 36.4529C29.3739 36.0024 29.1046 35.5935 28.7615 35.2513C28.4184 34.9092 28.0087 34.641 27.5577 34.4636C27.1068 34.2862 26.6243 34.2033 26.14 34.22C25.5608 34.2061 24.9882 34.346 24.4806 34.6252C23.973 34.9045 23.5484 35.3133 23.25 35.8099C22.5807 36.9464 22.2542 38.2522 22.3099 39.57V39.87H17.71V39.57C17.6077 37.054 18.4254 34.5869 20.01 32.6299C20.7574 31.7217 21.7055 30.9997 22.7798 30.5207C23.854 30.0417 25.0249 29.8189 26.1999 29.8699C28.2216 29.8184 30.1922 30.5084 31.74 31.8099C32.5928 32.5139 33.2712 33.4055 33.7223 34.4152C34.1733 35.4248 34.3847 36.5251 34.34 37.63C34.3689 38.8502 34.1084 40.0597 33.5799 41.1599C33.1347 42.1723 32.3344 42.9869 31.3299 43.45Z" fill="#231916"/>
<path d="M55.0399 44.56C55.1584 47.87 54.6179 51.1707 53.4499 54.2701C51.9099 57.5601 49.4999 59.2001 46.1899 59.2701V54.92C47.6599 54.92 48.79 53.92 49.5 51.92C50.2469 49.5442 50.5851 47.0589 50.5 44.57C50.5606 42.0856 50.223 39.6077 49.5 37.23C48.74 35.23 47.61 34.23 46.14 34.23V29.88C49.45 29.88 51.86 31.5301 53.34 34.8801C54.5495 37.9625 55.1112 41.261 54.99 44.57M46.14 59.2701C42.83 59.2701 40.41 57.5701 38.88 54.2701C36.7598 47.9772 36.7598 41.1629 38.88 34.8701C40.41 31.5201 42.88 29.87 46.14 29.87V34.22C44.61 34.22 43.48 35.22 42.77 37.22C42.0889 39.6045 41.7919 42.0821 41.89 44.56C41.7955 47.041 42.0925 49.5214 42.77 51.91C43.48 53.91 44.61 54.91 46.14 54.91V59.2701Z" fill="#231916"/>
</g>
<defs>
<clipPath id="clip0_8063_7716">
<rect width="72.32" height="68.09" fill="white"/>
</clipPath>
</defs>
</svg>
