<svg width="77" height="33" viewBox="0 0 77 33" fill="none" xmlns="http://www.w3.org/2000/svg">
<g clip-path="url(#clip0_8063_8199)">
<path d="M5.83997 31.87C4.36236 31.8596 2.94813 31.2686 1.90234 30.2247C0.856557 29.1808 0.263086 27.7676 0.25 26.29" stroke="#231916" stroke-width="0.49"/>
<path d="M0.240005 26.28V5.82996" stroke="#231916" stroke-width="0.49"/>
<path d="M0.25 5.82996C0.260502 4.35156 0.853132 2.93693 1.89948 1.89246C2.94582 0.847984 4.36156 0.257855 5.83997 0.25" stroke="#231916" stroke-width="0.49"/>
<path d="M5.84 0.23999H70.96" stroke="#231916" stroke-width="0.49"/>
<path d="M70.96 0.250022C72.4578 0.245891 73.8962 0.835641 74.96 1.89004C75.9719 2.95333 76.5404 4.36221 76.55 5.82998" stroke="#231916" stroke-width="0.49"/>
<path d="M76.56 5.82996V26.28" stroke="#231916" stroke-width="0.49"/>
<path d="M76.56 26.29C76.5519 27.7551 75.983 29.1614 74.97 30.22C74.4467 30.7475 73.8233 31.1651 73.1364 31.4485C72.4495 31.7318 71.713 31.8751 70.97 31.87" stroke="#231916" stroke-width="0.49"/>
<path d="M70.96 31.87H5.84" stroke="#231916" stroke-width="0.49"/>
<path d="M5.83997 29.75C5.38229 29.7571 4.92788 29.6723 4.5036 29.5005C4.07932 29.3287 3.69383 29.0735 3.37 28.75C2.72828 28.092 2.36938 27.2091 2.37 26.29" stroke="#231916" stroke-width="0.49"/>
<path d="M2.37 26.28V5.82996" stroke="#231916" stroke-width="0.49"/>
<path d="M2.37 5.82999C2.36938 4.91088 2.72828 4.02802 3.37 3.37003C3.6955 3.0488 4.0813 2.79506 4.50519 2.62344C4.92908 2.45183 5.38267 2.36573 5.83997 2.37003" stroke="#231916" stroke-width="0.49"/>
<path d="M5.84 2.35999H70.96" stroke="#231916" stroke-width="0.49"/>
<path d="M70.96 2.35995C71.4189 2.35488 71.8742 2.44065 72.2999 2.61227C72.7255 2.7839 73.113 3.03798 73.44 3.35995C74.0753 4.02619 74.4329 4.90939 74.44 5.82992" stroke="#231916" stroke-width="0.49"/>
<path d="M74.49 5.82996V26.28" stroke="#231916" stroke-width="0.49"/>
<path d="M74.4901 26.29C74.4747 27.2177 74.0937 28.1017 73.43 28.75C73.1068 29.0744 72.7215 29.3302 72.2971 29.5021C71.8726 29.6739 71.4179 29.7582 70.96 29.75" stroke="#231916" stroke-width="0.49"/>
<path d="M70.96 29.75H5.84" stroke="#231916" stroke-width="0.49"/>
<path d="M18.35 11.89H18.65C19.0099 11.9221 19.3727 11.8811 19.7164 11.7694C20.0601 11.6577 20.3776 11.4776 20.65 11.24C21.0013 10.8981 21.2149 10.439 21.25 9.94995H23.02V21.23H20.84V13.42H18.3" fill="#231916"/>
<path d="M32.03 9.70991C32.5862 9.66969 33.143 9.77931 33.6425 10.0273C34.1419 10.2753 34.5658 10.6526 34.87 11.1199C36.0436 13.9844 36.0436 17.1956 34.87 20.06C34.5658 20.5274 34.1419 20.9047 33.6425 21.1527C33.143 21.4006 32.5862 21.5101 32.03 21.4699V19.7099C32.3113 19.7069 32.5843 19.6141 32.8092 19.445C33.0341 19.2759 33.199 19.0394 33.28 18.77C33.5684 17.736 33.6867 16.6619 33.63 15.5899C33.6876 14.5212 33.5693 13.4504 33.28 12.42C33.2096 12.1445 33.0474 11.9012 32.8202 11.7303C32.5929 11.5594 32.3142 11.4711 32.03 11.4799M29.2 11.1199C29.5026 10.6534 29.9247 10.2765 30.4224 10.0285C30.9202 9.78052 31.4753 9.67045 32.03 9.70991V11.4799C31.7475 11.4734 31.4711 11.5628 31.2459 11.7335C31.0207 11.9042 30.86 12.1462 30.79 12.42C30.529 13.4551 30.4312 14.5246 30.5 15.5899C30.4321 16.6585 30.5299 17.7313 30.79 18.77C30.8616 19.0429 31.0227 19.2837 31.2476 19.4542C31.4724 19.6246 31.7479 19.7147 32.03 19.7099V21.4699C31.4753 21.5094 30.9202 21.3994 30.4224 21.1514C29.9247 20.9034 29.5026 20.5266 29.2 20.06C28.5802 18.6513 28.2602 17.129 28.2602 15.5899C28.2602 14.0509 28.5802 12.5287 29.2 11.1199Z" fill="#231916"/>
<path d="M42.77 9.70994C43.325 9.66833 43.8808 9.77743 44.379 10.0256C44.8771 10.2738 45.299 10.6519 45.6 11.12C46.7736 13.9844 46.7736 17.1956 45.6 20.06C45.2944 20.5236 44.8717 20.8981 44.3747 21.1457C43.8777 21.3933 43.3242 21.5052 42.77 21.47V19.7099C43.0491 19.7074 43.3199 19.6145 43.5417 19.445C43.7635 19.2756 43.9243 19.0387 44 18.77C44.2982 17.7378 44.4199 16.6627 44.36 15.5899C44.4209 14.5205 44.2992 13.4486 44 12.42C43.9354 12.1452 43.7774 11.9014 43.5532 11.73C43.3289 11.5586 43.0521 11.4702 42.77 11.48M39.93 11.12C40.2342 10.6526 40.6581 10.2753 41.1575 10.0273C41.657 9.77935 42.2138 9.66972 42.77 9.70994V11.48C42.4871 11.4716 42.2098 11.5603 41.9842 11.7313C41.7586 11.9023 41.5983 12.1453 41.53 12.42C41.2591 13.4535 41.1578 14.524 41.23 15.5899C41.159 16.6592 41.2602 17.7329 41.53 18.77C41.6 19.0438 41.7607 19.2857 41.9859 19.4564C42.2111 19.6271 42.4875 19.7165 42.77 19.7099V21.47C42.2138 21.5102 41.657 21.4007 41.1575 21.1527C40.6581 20.9047 40.2342 20.5274 39.93 20.06C39.3102 18.6513 38.9902 17.129 38.9902 15.5899C38.9902 14.0509 39.3102 12.5287 39.93 11.12Z" fill="#231916"/>
<path d="M61.7599 21.23H59.6299V16.13C59.6474 15.6655 59.5025 15.2093 59.22 14.84C59.1261 14.7302 59.0096 14.6421 58.8784 14.5817C58.7472 14.5213 58.6045 14.49 58.46 14.49C58.24 14.4823 58.0207 14.52 57.816 14.6009C57.6112 14.6817 57.4253 14.804 57.27 14.96C57.0674 15.3412 56.9676 15.7685 56.98 16.2V21.2H54.86V16.2C54.8846 15.8179 54.823 15.4352 54.68 15.08C54.5816 14.8743 54.4195 14.7058 54.2177 14.5995C54.0159 14.4932 53.7853 14.4548 53.56 14.49C53.359 14.481 53.1586 14.5187 52.9747 14.6003C52.7907 14.6818 52.6282 14.805 52.4999 14.96C52.2897 15.3131 52.1856 15.7193 52.2 16.13V21.1901H50.08V12.85H52.14V14.13H52.2C52.3704 13.7717 52.6119 13.4519 52.91 13.1901C53.3781 12.8718 53.9339 12.7074 54.4999 12.72C54.9697 12.7088 55.4357 12.8082 55.86 13.01C56.2064 13.2927 56.5038 13.6305 56.7401 14.01C56.9332 13.7019 57.1726 13.4253 57.45 13.1901C57.8813 12.8809 58.3994 12.7163 58.93 12.72C59.6605 12.6966 60.3735 12.9463 60.93 13.4201C61.2042 13.6862 61.419 14.0073 61.5604 14.3623C61.7017 14.7174 61.7662 15.0982 61.7499 15.48" fill="#231916"/>
</g>
<defs>
<clipPath id="clip0_8063_8199">
<rect width="76.81" height="32.11" fill="white"/>
</clipPath>
</defs>
</svg>
