<svg width="69" height="69" viewBox="0 0 69 69" fill="none" xmlns="http://www.w3.org/2000/svg">
<g clip-path="url(#clip0_8063_7148)">
<path d="M34.2 68C40.8998 67.9782 47.4428 65.9711 53.0024 62.2323C58.562 58.4934 62.8885 53.1906 65.4355 46.9938C67.9825 40.797 68.6356 33.9843 67.3123 27.4165C65.989 20.8487 62.7488 14.8204 58.0008 10.0934C53.2529 5.36644 47.2103 2.15276 40.6367 0.858515C34.0631 -0.435727 27.2533 0.247509 21.0678 2.82189C14.8824 5.39628 9.59871 9.74629 5.88448 15.3223C2.17025 20.8983 0.192159 27.4502 0.200032 34.15C0.2079 38.6057 1.0938 43.0161 2.80709 47.1292C4.52038 51.2423 7.02743 54.9774 10.185 58.1211C13.3426 61.2647 17.0888 63.7553 21.2094 65.4504C25.3301 67.1455 29.7444 68.0118 34.2 68Z" stroke="#004A9C" stroke-width="0.45"/>
<path d="M2.24006 34.14C2.20045 27.8026 4.04343 21.5962 7.53547 16.3076C11.0275 11.019 16.0113 6.88635 21.8549 4.43365C27.6986 1.98095 34.1389 1.31865 40.3594 2.5307C46.58 3.74275 52.3004 6.77455 56.7957 11.2418C61.291 15.709 64.3587 21.4104 65.6097 27.6232C66.8607 33.836 66.2388 40.2803 63.8228 46.1392C61.4068 51.9981 57.3055 57.0077 52.0389 60.5328C46.7723 64.058 40.5776 65.9399 34.2401 65.94C30.0505 65.9545 25.8992 65.1433 22.0233 63.5527C18.1474 61.9622 14.6228 59.6236 11.6511 56.6704C8.67933 53.7172 6.31859 50.2075 4.70381 46.3416C3.08902 42.4757 2.25186 38.3296 2.24006 34.14Z" fill="#004A9C"/>
<path d="M48.24 32.79L51.99 49.5C52.43 51.08 52.99 52.27 50.42 51.62L33.7599 47.57C30.4399 46.81 29.7599 43.88 32.7599 43.39C35.5899 42.96 37.76 42.39 36.3 41.06L14.94 19.71L20.0001 14.71L41.56 35.98C42.21 36.63 43.3 36.63 43.79 34.08C44.28 31.53 46.51 28.6 48.2 32.78" fill="white"/>
</g>
<defs>
<clipPath id="clip0_8063_7148">
<rect width="68.39" height="68.22" fill="white"/>
</clipPath>
</defs>
</svg>
