<svg width="71" height="71" viewBox="0 0 71 71" fill="none" xmlns="http://www.w3.org/2000/svg">
<g clip-path="url(#clip0_8068_5418)">
<path d="M23.92 43.5799C22.8205 43.0067 21.9002 42.1417 21.26 41.0799C20.6252 39.9982 20.2968 38.7641 20.31 37.5099C20.3001 36.5391 20.4873 35.5764 20.8601 34.6799C21.1835 33.8492 21.6973 33.106 22.3601 32.5099C22.9507 31.9591 23.6861 31.5879 24.4801 31.4399V31.2399C23.8045 31.0731 23.1862 30.7277 22.69 30.2399C22.1495 29.6898 21.7304 29.0322 21.46 28.3099C21.1015 27.3555 20.9543 26.3346 21.0285 25.3177C21.1028 24.3009 21.3967 23.3122 21.89 22.4199C22.458 21.4183 23.2968 20.5969 24.31 20.0499C25.3602 19.4736 26.5423 19.1807 27.7401 19.1999C28.9474 19.1801 30.1393 19.4729 31.2 20.0499C32.2139 20.5926 33.0504 21.4153 33.6101 22.4199C34.0992 23.3138 34.3899 24.3027 34.4624 25.3191C34.5348 26.3355 34.3874 27.3556 34.03 28.3099C33.7596 29.0322 33.3406 29.6898 32.8 30.2399C32.3053 30.7297 31.6864 31.0755 31.01 31.2399V31.4299C31.8032 31.58 32.5381 31.9509 33.13 32.4999C33.7884 33.102 34.3042 33.8433 34.64 34.6699C35.0245 35.5634 35.2187 36.5272 35.21 37.4999C35.2256 38.7484 34.8945 39.9768 34.2536 41.0484C33.6128 42.12 32.6873 42.9929 31.58 43.5699C30.3901 44.1618 29.079 44.4698 27.75 44.4698C26.4209 44.4698 25.11 44.1618 23.92 43.5699V43.5799ZM29.4901 40.1299C29.9928 39.8189 30.4008 39.3762 30.67 38.8499C30.9548 38.2789 31.0988 37.648 31.09 37.0099C31.0984 36.344 30.9475 35.6857 30.65 35.0899C30.385 34.5452 29.9709 34.0869 29.4558 33.7683C28.9406 33.4497 28.3457 33.2838 27.7401 33.2899C27.139 33.2828 26.5486 33.4495 26.04 33.7699C25.5254 34.0902 25.11 34.5472 24.84 35.0899C24.5521 35.688 24.4115 36.3464 24.43 37.0099C24.4081 37.647 24.5457 38.2794 24.83 38.8499C25.0962 39.3783 25.5049 39.8217 26.01 40.1299C26.5424 40.425 27.1412 40.5798 27.75 40.5798C28.3587 40.5798 28.9576 40.425 29.4901 40.1299ZM29.2301 29.2299C29.6694 28.936 30.0162 28.5233 30.2301 28.0399C30.4846 27.51 30.6113 26.9277 30.6001 26.3399C30.6118 25.7467 30.4887 25.1586 30.2401 24.6199C30.024 24.1433 29.6772 23.7376 29.2401 23.4499C28.7844 23.176 28.2617 23.0341 27.7301 23.0399C27.205 23.0357 26.6891 23.1777 26.2401 23.4499C25.8029 23.7376 25.4562 24.1433 25.2401 24.6199C24.9996 25.1579 24.8752 25.7406 24.8752 26.3299C24.8752 26.9192 24.9996 27.5019 25.2401 28.0399C25.4602 28.5194 25.8057 28.9305 26.2401 29.2299C26.6752 29.52 27.1871 29.6732 27.71 29.6699C28.2486 29.6838 28.7786 29.5339 29.2301 29.2399V29.2299Z" fill="#231F20"/>
<path d="M39.56 43.0001C38.3024 41.8256 37.3925 40.3275 36.93 38.6701C35.7166 34.1908 35.7166 29.4694 36.93 24.9901C37.3972 23.3347 38.3064 21.8378 39.56 20.6601C40.7042 19.7032 42.1484 19.179 43.64 19.179C45.1316 19.179 46.5758 19.7032 47.72 20.6601C48.9821 21.8367 49.8955 23.3383 50.3601 25.0001C51.016 27.2159 51.3262 29.5197 51.28 31.8301C51.3261 34.1464 51.0192 36.4562 50.3699 38.6801C49.9059 40.3363 48.9922 41.8316 47.7301 43.0001C46.5834 43.9559 45.1378 44.4794 43.645 44.4794C42.1522 44.4794 40.7067 43.9559 39.56 43.0001ZM45.56 39.3301C46.2041 38.4996 46.6365 37.5249 46.82 36.4901C47.1361 34.9577 47.2771 33.3943 47.2401 31.8301C47.2661 30.2686 47.1185 28.709 46.8 27.1801C46.6176 26.1455 46.1927 25.1688 45.56 24.3301C45.3351 24.0357 45.0452 23.7971 44.7131 23.6329C44.381 23.4687 44.0155 23.3833 43.645 23.3833C43.2745 23.3833 42.909 23.4687 42.5769 23.6329C42.2447 23.7971 41.955 24.0357 41.7301 24.3301C41.1018 25.1725 40.6743 26.1473 40.4801 27.1801C40.1566 28.7083 40.0089 30.2684 40.04 31.8301C40.0108 33.3945 40.155 34.9574 40.47 36.4901C40.6624 37.5222 41.094 38.4948 41.7301 39.3301C41.9585 39.6193 42.2493 39.8531 42.581 40.0138C42.9127 40.1745 43.2764 40.258 43.645 40.258C44.0135 40.258 44.3773 40.1745 44.7089 40.0138C45.0406 39.8531 45.3316 39.6193 45.56 39.3301Z" fill="#231F20"/>
<path d="M35.18 70.24C28.2417 70.2261 21.4632 68.1563 15.7006 64.292C9.93812 60.4276 5.45016 54.9421 2.80367 48.5284C0.157175 42.1146 -0.529116 35.0604 0.8315 28.2569C2.19212 21.4533 5.5386 15.2056 10.4482 10.303C15.3578 5.40034 21.6104 2.06275 28.4159 0.711818C35.2214 -0.639117 42.2746 0.05721 48.6845 2.71283C55.0945 5.36844 60.5735 9.8642 64.4296 15.6322C68.2858 21.4002 70.3461 28.1817 70.3501 35.12C70.3262 44.4357 66.6115 53.3624 60.0196 59.9449C53.4277 66.5275 44.4958 70.2294 35.18 70.24ZM35.18 0.49998C28.3286 0.513824 21.6351 2.55853 15.9455 6.37565C10.2559 10.1928 5.82564 15.611 3.21468 21.9454C0.603719 28.2798 -0.0707374 35.2461 1.27657 41.9637C2.62387 48.6813 5.93247 54.8488 10.7841 59.6865C15.6358 64.5242 21.8128 67.8149 28.5343 69.1429C35.2558 70.4708 42.2201 69.7762 48.547 67.147C54.8738 64.5178 60.2791 60.0719 64.0798 54.3714C67.8805 48.6708 69.9059 41.9714 69.9 35.12C69.8814 25.922 66.2159 17.1067 59.7072 10.6074C53.1986 4.10809 44.3781 0.455269 35.18 0.449993V0.49998Z" fill="#CF1F25"/>
<path d="M35.2301 2.34988C28.7545 2.36372 22.4283 4.297 17.0511 7.90534C11.674 11.5137 7.48726 16.6351 5.02011 22.6224C2.55296 28.6096 1.91604 35.1939 3.19003 41.5429C4.46402 47.892 7.59176 53.7209 12.1777 58.2929C16.7636 62.8648 22.602 65.9746 28.9549 67.2293C35.3079 68.4839 41.8902 67.827 47.8698 65.3415C53.8495 62.8561 58.9581 58.6538 62.55 53.2657C66.1419 47.8775 68.0559 41.5455 68.05 35.0699C68.0341 26.3795 64.568 18.0512 58.4137 11.9156C52.2593 5.77993 43.9204 2.33926 35.2301 2.34988ZM35.2301 60.6199C30.1837 60.61 25.2535 59.1048 21.0621 56.2944C16.8707 53.484 13.6062 49.4945 11.681 44.8298C9.75577 40.1651 9.25611 35.0345 10.2452 30.086C11.2343 25.1375 13.6678 20.5931 17.2382 17.0269C20.8087 13.4607 25.3559 11.0326 30.3055 10.0493C35.2552 9.06597 40.3851 9.57161 45.0476 11.5023C49.71 13.433 53.6957 16.7022 56.5012 20.8968C59.3067 25.0915 60.8061 30.0235 60.81 35.0699C60.7968 41.8473 58.0965 48.3429 53.3014 53.1324C48.5062 57.922 42.0075 60.6146 35.2301 60.6199Z" fill="#CF1F25"/>
<path d="M53.16 46.46H17.23V50.26H53.16V46.46Z" fill="#231F20"/>
<path d="M53.35 50.45H17.04V46.24H53.35V50.45ZM17.43 50.06H52.96V46.66H17.43V50.06Z" fill="#231F20"/>
</g>
<defs>
<clipPath id="clip0_8068_5418">
<rect width="70.39" height="70.18" fill="white"/>
</clipPath>
</defs>
</svg>
