<svg width="76" height="66" viewBox="0 0 76 66" fill="none" xmlns="http://www.w3.org/2000/svg">
<g clip-path="url(#clip0_8063_6667)">
<path d="M1.13 59.64L34.28 2.64C36.1 -0.530003 39.35 -0.530003 41.17 2.64L74.55 59.8C76.5 63.1 74.85 65.62 70.96 65.62H4.84002C0.600025 65.62 -0.869997 63.15 1.13 59.68" fill="white"/>
<path d="M1.13 59.64L34.28 2.64C36.1 -0.530003 39.35 -0.530003 41.17 2.64L74.55 59.8C76.5 63.1 74.85 65.62 70.96 65.62H4.84002C0.600025 65.58 -0.869997 63.11 1.13 59.64Z" stroke="#D20D18" stroke-width="0.49"/>
<path d="M2.59999 60.35L35.51 3.68001C36.69 1.62001 38.81 1.68001 39.94 3.68001L73.02 60.47C74.2 62.47 72.96 64.05 70.66 64.05H5.20003C2.60003 64.05 1.47999 62.35 2.59999 60.35Z" fill="#D20D18"/>
<path d="M37.93 12.91L63.82 57.65H11.51" fill="#F8B500"/>
<path d="M37.93 12.91L63.82 57.65H11.51L37.93 12.91Z" stroke="#D20D18" stroke-width="0.57"/>
<path d="M30.26 41.8C31.21 41.8 32.03 41.8 32.74 41.68L32.86 42.62L30.97 42.74V45.44H30.26M30.26 41.51V40.51C30.3693 40.5184 30.4791 40.5021 30.5812 40.4623C30.6834 40.4225 30.7752 40.3602 30.85 40.28C30.9102 40.2179 30.9572 40.1442 30.9882 40.0634C31.0191 39.9826 31.0333 39.8965 31.03 39.81C31.0369 39.7141 31.0245 39.6178 30.9936 39.5268C30.9627 39.4358 30.9138 39.3518 30.85 39.28C30.774 39.2015 30.6819 39.1403 30.5801 39.1006C30.4783 39.0609 30.3691 39.0437 30.26 39.05V38.05C30.5032 38.0258 30.7487 38.0536 30.9802 38.1317C31.2118 38.2097 31.424 38.3362 31.6028 38.5028C31.7817 38.6693 31.923 38.872 32.0173 39.0974C32.1117 39.3228 32.1569 39.5658 32.15 39.81C32.1429 40.2476 31.9756 40.6673 31.68 40.99C31.2761 41.3077 30.7737 41.474 30.26 41.46M34.21 37.93C34.2834 37.93 34.2834 37.99 34.21 38.11V38.22V38.4V45.8H33.14V37.98H33.79C34.09 37.98 34.21 37.98 34.26 38.04M30.26 41.86H30.32V45.5H29.97V42.8L28.73 42.92H28.55L28.38 42.98L28.2 43.04C28.1675 42.9429 28.1473 42.8421 28.14 42.74L28.02 41.92C28.79 41.92 29.56 41.86 30.26 41.86ZM30.32 38.16V39.16C30.2101 39.1428 30.0976 39.1551 29.994 39.1955C29.8904 39.2359 29.7993 39.303 29.73 39.39C29.6494 39.4512 29.586 39.5321 29.5457 39.625C29.5054 39.7178 29.4897 39.8193 29.5 39.92C29.4944 40.0115 29.5127 40.103 29.553 40.1854C29.5933 40.2678 29.6543 40.3383 29.73 40.39C29.85 40.57 30.02 40.62 30.32 40.62V41.62C29.7894 41.6451 29.2676 41.4782 28.85 41.15C28.5478 40.8214 28.3801 40.3914 28.3801 39.945C28.3801 39.4986 28.5478 39.0685 28.85 38.74C29.0442 38.5535 29.2754 38.41 29.5286 38.3187C29.7819 38.2274 30.0515 38.1903 30.32 38.21" fill="#231916"/>
<path d="M44.44 45.59V44.65H45.26V43.8H44.44V42.86H46.32V45.8H45.24V45.62L44.44 45.59ZM44.44 41.59H45.26V42.8H46.32V38.45L46.39 38.27L46.44 38.09L46.39 38.03L46.21 37.97H45.21V40.61H44.44V41.59ZM44.44 39.95H42.31V39.07H44.44V39.95ZM44.44 41.59H44.38V40.59H44.44V41.59ZM44.44 43.83H42.31V42.89H44.44V43.83ZM44.44 45.59H42.31V44.65H44.44V45.59ZM42.31 42.59V41.8C42.55 41.8 42.72 41.8 42.84 41.68C42.96 41.56 43.08 41.45 43.08 41.33C43.0737 41.2559 43.0482 41.1847 43.0062 41.1233C42.9641 41.062 42.9069 41.0126 42.84 40.98C42.6755 40.8982 42.4937 40.8571 42.31 40.86V40.16C42.7883 40.1359 43.2627 40.2581 43.67 40.51C43.8099 40.5974 43.926 40.7179 44.008 40.861C44.09 41.004 44.1354 41.1652 44.14 41.33C44.137 41.4966 44.0924 41.6597 44.0103 41.8046C43.9282 41.9496 43.8113 42.0717 43.67 42.16C43.2821 42.4585 42.7982 42.6044 42.31 42.57M42.31 37.98H43.44V38.86H42.32L42.31 37.98ZM42.31 39.92H40.08V39.04H42.31V39.92ZM42.31 38.86H41.19V37.98H42.31V38.86ZM42.31 40.16V40.86C42.1079 40.866 41.9084 40.9066 41.72 40.98C41.6226 41.0721 41.5621 41.1965 41.55 41.33C41.5592 41.4643 41.6202 41.5897 41.72 41.68C41.8997 41.7797 42.1057 41.8216 42.31 41.8V42.57H42.25C41.7651 42.6019 41.2853 42.4561 40.9 42.16C40.7699 42.0649 40.6646 41.9398 40.5932 41.7953C40.5218 41.6508 40.4864 41.4912 40.49 41.33C40.488 41.1706 40.5242 41.0129 40.5955 40.8703C40.6668 40.7276 40.7712 40.6041 40.9 40.51C41.3042 40.2594 41.775 40.1374 42.25 40.16H42.31ZM42.31 42.86V43.8H41.84V44.62H42.31V45.56H41.84V45.8H40.78V42.92L42.31 42.86Z" fill="#231916"/>
<path d="M26.84 49.8901H26.9C27.1855 49.8746 27.4702 49.9304 27.7286 50.0527C27.987 50.1749 28.2109 50.3595 28.38 50.59C28.5683 51.0364 28.6668 51.5156 28.67 52C28.6843 52.5314 28.5639 53.0577 28.32 53.53C28.1865 53.7881 27.9817 54.0026 27.73 54.1479C27.4784 54.2933 27.1903 54.3634 26.9 54.35H26.84V53.59C26.9937 53.5695 27.1396 53.51 27.2639 53.4173C27.3881 53.3245 27.4866 53.2016 27.55 53.06C27.6851 52.7447 27.7467 52.4027 27.73 52.06C27.7539 51.8414 27.7344 51.6202 27.6727 51.4091C27.6109 51.198 27.508 51.0013 27.37 50.8301C27.2991 50.7647 27.2154 50.7149 27.1241 50.6839C27.0328 50.6529 26.936 50.6413 26.84 50.65M25.02 49.8901H26.84V50.65H25.9V53.59H26.84V54.35H25.02V49.8901Z" fill="#231916"/>
<path d="M31.38 49.89H31.91L33.5 54.35H32.5L32.21 53.41H31.38V52.65H31.97L31.38 50.89M30.26 54.35H29.32L30.85 49.89H31.38V50.89L30.8 52.65H31.38V53.41H30.56L30.26 54.35Z" fill="#231916"/>
<path d="M36.92 49.89H37.81V54.35H36.86L35.09 51.18V54.35H34.21V49.89H35.22L36.92 53" fill="#231916"/>
<path d="M41 52.7H42C41.9736 52.8594 41.9124 53.011 41.8208 53.1441C41.7292 53.2772 41.6095 53.3884 41.47 53.47C41.3141 53.5792 41.1302 53.6417 40.94 53.65C40.6168 53.6606 40.3007 53.5541 40.05 53.35C39.7759 52.9986 39.6271 52.5657 39.6271 52.12C39.6271 51.6743 39.7759 51.2415 40.05 50.89C40.1503 50.769 40.2777 50.6733 40.4219 50.6108C40.5661 50.5482 40.7231 50.5205 40.88 50.53C41.0428 50.5404 41.2021 50.5811 41.35 50.65C41.4542 50.7025 41.5546 50.7628 41.65 50.83C41.688 50.9189 41.7462 50.9976 41.82 51.06C41.82 51.18 41.89 51.24 41.89 51.3H42.77C42.766 51.1097 42.7221 50.9224 42.6411 50.7501C42.5601 50.5779 42.4439 50.4245 42.3 50.3C42.1019 50.1163 41.8686 49.9746 41.6142 49.8835C41.3599 49.7924 41.0897 49.7538 40.82 49.77C40.5186 49.7608 40.219 49.8199 39.9436 49.9429C39.6683 50.0658 39.4243 50.2494 39.23 50.48C38.8604 50.9759 38.671 51.583 38.6928 52.2011C38.7146 52.8191 38.9464 53.4114 39.35 53.88C39.5229 54.0651 39.732 54.2129 39.9641 54.3143C40.1962 54.4158 40.4467 54.4688 40.7 54.47C41.0558 54.4722 41.4041 54.3677 41.7 54.17C41.8736 54.054 42.0315 53.9162 42.17 53.76L42.22 54.29H42.87V51.95H41.05" fill="#231916"/>
<path d="M46.95 50.65H44.65V51.59H46.71V52.36H44.65V53.53H47.01V54.35H43.7V49.89H46.95" fill="#231916"/>
<path d="M49.66 49.89H50.08C50.2918 49.8595 50.5079 49.887 50.7051 49.9698C50.9024 50.0526 51.0735 50.1875 51.2 50.36C51.3653 50.5776 51.4469 50.8473 51.43 51.12C51.4398 51.3457 51.3805 51.569 51.26 51.76C51.2137 51.8579 51.1482 51.9455 51.0675 52.0176C50.9868 52.0897 50.8924 52.145 50.79 52.18C50.9488 52.2679 51.0883 52.3869 51.2 52.53C51.2873 52.7941 51.3246 53.0722 51.31 53.35C51.2828 53.5692 51.3068 53.7917 51.38 54C51.38 54.12 51.38 54.18 51.55 54.24V54.35H50.49C50.4987 54.2302 50.4781 54.1101 50.43 54V53.41C50.4332 53.1884 50.3959 52.9682 50.32 52.76C50.26 52.65 50.02 52.59 49.73 52.59H49.66V51.8H49.84C50.0239 51.8041 50.2059 51.7629 50.37 51.68C50.4294 51.6194 50.476 51.5474 50.507 51.4684C50.5379 51.3894 50.5525 51.3048 50.55 51.22C50.5527 51.0725 50.5147 50.9272 50.44 50.8C50.3685 50.7357 50.2846 50.6865 50.1935 50.6556C50.1024 50.6247 50.0059 50.6125 49.91 50.62H49.67M47.91 49.86H49.67V50.62H48.79V51.8H49.67V52.57H48.79V54.33H47.91V49.86Z" fill="#231916"/>
</g>
<defs>
<clipPath id="clip0_8063_6667">
<rect width="75.61" height="65.82" fill="white"/>
</clipPath>
</defs>
</svg>
