<svg width="71" height="71" viewBox="0 0 71 71" fill="none" xmlns="http://www.w3.org/2000/svg">
<g clip-path="url(#clip0_8063_6705)">
<path d="M35.32 70.07C42.2197 70.0443 48.957 67.9752 54.6818 64.1239C60.4066 60.2726 64.8622 54.8116 67.4861 48.4304C70.1101 42.0491 70.785 35.0335 69.4254 28.2691C68.0657 21.5047 64.7327 15.2946 59.8469 10.4228C54.9611 5.55094 48.7415 2.23567 41.9733 0.895388C35.205 -0.444891 28.1914 0.249929 21.8176 2.89212C15.4439 5.53432 9.99571 10.0054 6.16077 15.7412C2.32582 21.477 0.275995 28.2203 0.27002 35.12C0.276581 39.7163 1.18839 44.2662 2.95337 48.5101C4.71835 52.754 7.30195 56.6087 10.5566 59.8541C13.8113 63.0995 17.6734 65.6721 21.9223 67.4249C26.1712 69.1778 30.7237 70.0766 35.32 70.07Z" stroke="#D20D18" stroke-width="0.45"/>
<path d="M35.32 2.28999C44.0271 2.28999 52.3775 5.74887 58.5344 11.9057C64.6912 18.0625 68.15 26.413 68.15 35.12C68.15 43.8271 64.6912 52.1775 58.5344 58.3343C52.3775 64.4911 44.0271 67.95 35.32 67.95V60.73C38.7224 60.7973 42.1041 60.1852 45.2672 58.9296C48.4302 57.6741 51.311 55.8003 53.741 53.4178C56.171 51.0354 58.1014 48.1922 59.4193 45.0546C60.7371 41.917 61.4158 38.5481 61.4158 35.145C61.4158 31.7419 60.7371 28.373 59.4193 25.2354C58.1014 22.0978 56.171 19.2546 53.741 16.8722C51.311 14.4897 48.4302 12.6159 45.2672 11.3603C42.1041 10.1048 38.7224 9.49271 35.32 9.55998M2.32001 35.12C2.32787 30.7966 3.18804 26.5172 4.85132 22.5265C6.5146 18.5359 8.94837 14.9123 12.0134 11.8631C15.0784 8.81388 18.7144 6.39889 22.7136 4.75624C26.7128 3.11359 30.9966 2.27553 35.32 2.28999V9.55998C31.9176 9.49271 28.5359 10.1048 25.3729 11.3603C22.2098 12.6159 19.3291 14.4897 16.899 16.8722C14.469 19.2546 12.5386 22.0978 11.2208 25.2354C9.90293 28.373 9.22418 31.7419 9.22418 35.145C9.22418 38.5481 9.90293 41.917 11.2208 45.0546C12.5386 48.1922 14.469 51.0354 16.899 53.4178C19.3291 55.8003 22.2098 57.6741 25.3729 58.9296C28.5359 60.1852 31.9176 60.7973 35.32 60.73V67.95C30.9966 67.9644 26.7128 67.1264 22.7136 65.4838C18.7144 63.8411 15.0784 61.4261 12.0134 58.3769C8.94837 55.3277 6.5146 51.7041 4.85132 47.7135C3.18804 43.7228 2.32787 39.4434 2.32001 35.12Z" fill="#D20D18"/>
<path d="M54.88 58.34L58.69 54.76L16.17 12.38L12.36 15.91" fill="#D20D18"/>
<path d="M18.78 37.12H31.85V38.97H19.39C19.1631 38.7225 18.9913 38.4295 18.8862 38.1106C18.781 37.7916 18.7448 37.454 18.78 37.12Z" fill="#231916"/>
<path d="M32.45 37.02H38.61C38.87 37.02 38.87 37.02 38.87 37.29V38.79C38.87 39.06 38.87 39.06 38.61 39.06H32.45C32.18 39.06 32.18 39.06 32.18 38.79V37.29C32.18 37.02 32.18 37.02 32.45 37.02Z" fill="#231916"/>
<path d="M39.2 37.02H50.91C50.9567 37.3862 50.9275 37.758 50.8243 38.1124C50.7211 38.4668 50.546 38.7962 50.31 39.08H39.2" fill="#231916"/>
<path d="M18.84 33.11H35.67V36.79H18.57C18.3103 35.5592 18.4039 34.2799 18.84 33.1" fill="#231916"/>
<path d="M35.32 33.11H50.95C51.4271 34.2848 51.4837 35.5883 51.11 36.8H35.32" fill="#231916"/>
<path d="M34.63 21.34H42.63C43.0663 21.2648 43.5152 21.3486 43.895 21.5761C44.2748 21.8036 44.5605 22.1598 44.7 22.58L47.42 28.44C48.7331 29.7388 49.8515 31.2208 50.7401 32.84H34.63V28.38H45.68L43.83 23.72C43.66 22.91 43.02 22.48 41.98 22.48H34.63M19.11 32.84C19.6336 31.115 20.6567 29.5839 22.05 28.44L23.85 22.96C23.9716 22.449 24.2778 22.0009 24.7097 21.7019C25.1416 21.4028 25.6688 21.2739 26.19 21.34H34.63V22.48H26.68C25.16 22.48 25.21 22.48 24.68 23.88L23.59 28.38H34.59V32.84H19.11Z" fill="#231916"/>
<path d="M21.67 33.49C22.0678 33.49 22.4493 33.648 22.7307 33.9294C23.012 34.2107 23.17 34.5922 23.17 34.99C23.17 35.3878 23.012 35.7694 22.7307 36.0507C22.4493 36.332 22.0678 36.49 21.67 36.49C21.2722 36.49 20.8907 36.332 20.6094 36.0507C20.3281 35.7694 20.17 35.3878 20.17 34.99C20.17 34.5922 20.3281 34.2107 20.6094 33.9294C20.8907 33.648 21.2722 33.49 21.67 33.49Z" fill="white"/>
<path d="M25.43 33.54C25.8347 33.5692 26.2144 33.7465 26.4966 34.0379C26.7789 34.3294 26.9439 34.7146 26.96 35.12C26.917 35.4997 26.7386 35.8511 26.4576 36.11C26.1767 36.3689 25.8119 36.518 25.43 36.53C25.0375 36.5368 24.657 36.3955 24.3641 36.1342C24.0713 35.8728 23.8877 35.5107 23.85 35.12C23.8602 34.7042 24.0299 34.3081 24.324 34.014C24.6182 33.7199 25.0141 33.5502 25.43 33.54Z" fill="white"/>
<path d="M44.59 33.49C44.8843 33.4861 45.173 33.5695 45.42 33.7295C45.6669 33.8895 45.8609 34.119 45.9776 34.3891C46.0943 34.6593 46.1283 34.9579 46.0755 35.2474C46.0227 35.5368 45.8853 35.8042 45.6808 36.0157C45.4762 36.2272 45.2136 36.3734 44.926 36.4359C44.6385 36.4984 44.3389 36.4743 44.065 36.3667C43.7911 36.2592 43.5553 36.073 43.3871 35.8315C43.2189 35.5901 43.1259 35.3042 43.12 35.01C43.1247 34.6169 43.2796 34.2405 43.5529 33.9579C43.8262 33.6753 44.1973 33.5079 44.59 33.49Z" fill="white"/>
<path d="M48.32 33.43C48.703 33.4622 49.0604 33.6355 49.3228 33.9164C49.5852 34.1973 49.734 34.5657 49.7401 34.95C49.7144 35.3181 49.5565 35.6646 49.2956 35.9256C49.0346 36.1865 48.6882 36.3444 48.32 36.37C47.9301 36.37 47.5563 36.2152 47.2806 35.9395C47.0049 35.6638 46.85 35.2899 46.85 34.9C46.85 34.5101 47.0049 34.1362 47.2806 33.8606C47.5563 33.5849 47.9301 33.43 48.32 33.43Z" fill="white"/>
<path d="M50.19 39.24H19.39C18.95 39.4 20.04 41.36 21.13 42.17V42.54V45.42C21.13 45.42 21.04 46.14 21.65 46.14H23.96C24.0257 46.1455 24.0918 46.1379 24.1546 46.1177C24.2174 46.0975 24.2755 46.0651 24.3257 46.0224C24.3759 45.9796 24.4171 45.9273 24.447 45.8686C24.4769 45.8098 24.4949 45.7458 24.5 45.68V42.39H45.01V45.39C45.01 45.39 44.92 46.11 45.53 46.11H47.84C47.906 46.1169 47.9726 46.1103 48.0359 46.0906C48.0993 46.071 48.1581 46.0386 48.2085 45.9956C48.259 45.9526 48.3003 45.8998 48.3298 45.8404C48.3592 45.781 48.3764 45.7162 48.3801 45.65V42.65L48.65 42.11C48.93 42.11 50.72 39.34 50.17 39.18" fill="#231916"/>
</g>
<defs>
<clipPath id="clip0_8063_6705">
<rect width="70.51" height="70.29" fill="white"/>
</clipPath>
</defs>
</svg>
