<svg width="34" height="74" viewBox="0 0 34 74" fill="none" xmlns="http://www.w3.org/2000/svg">
<g clip-path="url(#clip0_8063_8764)">
<path d="M18.5238 59.8335H15.8133V73.8489H18.5238V59.8335Z" fill="white"/>
<path d="M18.5238 59.8335H15.8133V73.8489H18.5238V59.8335Z" stroke="#231916" stroke-width="0.45"/>
<path d="M22.9265 44.2173H20.518L16.8525 49.7341L13.5593 44.4028H11.1929L15.8554 51.9326L11.1929 59.0503H13.3697L16.9298 53.5334L20.518 59.4625H23.1512L18.0322 51.6303" fill="white"/>
<path d="M22.9265 44.2173H20.518L16.8525 49.7341L13.5593 44.4028H11.1929L15.8554 51.9326L11.1929 59.0503H13.3697L16.9298 53.5334L20.518 59.4625H23.1512L18.0322 51.6303L22.9265 44.2173Z" stroke="#231916" stroke-width="0.45"/>
<path d="M33.8174 15.3208L25.4474 0.0687256V12.3048C22.2735 12.3048 18.91 14.9841 17.0211 18.2613C15.1111 14.9841 11.7828 12.3048 8.59481 12.3048V0.0687256L0.168541 15.3208L9.14953 30.4355V20.7415C12.513 21.827 14.6547 24.9186 15.3779 26.856V43.0012H18.3201V27.7492C18.6642 26.0041 20.9533 22.0125 24.8505 20.7415V30.4355" fill="white"/>
<path d="M33.8174 15.3208L25.4474 0.0687256V12.3048C22.2735 12.3048 18.91 14.9841 17.0211 18.2613C15.1111 14.9841 11.7828 12.3048 8.59481 12.3048V0.0687256L0.168541 15.3208L9.14953 30.4355V20.7415C12.513 21.827 14.6547 24.9186 15.3779 26.856V43.0012H18.3201V27.7492C18.6642 26.0041 20.9533 22.0125 24.8505 20.7415V30.4355L33.8174 15.3208Z" stroke="#231916" stroke-width="0.45"/>
</g>
<defs>
<clipPath id="clip0_8063_8764">
<rect width="34" height="74" fill="white"/>
</clipPath>
</defs>
</svg>
