<svg width="67" height="67" viewBox="0 0 67 67" fill="none" xmlns="http://www.w3.org/2000/svg">
<g clip-path="url(#clip0_8063_7116)">
<path d="M33.28 66.1C39.7906 66.0782 46.1488 64.1276 51.5515 60.4945C56.9542 56.8614 61.159 51.7087 63.635 45.6873C66.111 39.6658 66.7471 33.0457 65.4629 26.6629C64.1787 20.2802 61.0318 14.4211 56.4197 9.82575C51.8076 5.23041 45.9372 2.10486 39.5498 0.843878C33.1625 -0.4171 26.5446 0.24309 20.5322 2.74097C14.5198 5.23886 9.38247 9.46244 5.76901 14.8783C2.15556 20.2942 0.228072 26.6593 0.230012 33.17C0.232623 37.5038 1.09013 41.7945 2.75345 45.7964C4.41677 49.7983 6.85322 53.4328 9.92325 56.4916C12.9933 59.5505 16.6366 61.9738 20.6445 63.6225C24.6524 65.2713 28.9462 66.1131 33.28 66.1Z" stroke="#004A9C" stroke-width="0.45"/>
<path d="M1.58998 33.17C1.57415 26.9061 3.41677 20.7783 6.88465 15.562C10.3525 10.3457 15.2898 6.27533 21.0718 3.86592C26.8537 1.4565 33.2205 0.816309 39.3663 2.02644C45.5122 3.23657 51.161 6.24261 55.5979 10.6641C60.0348 15.0857 63.0605 20.724 64.292 26.8656C65.5235 33.0072 64.9055 39.3762 62.5162 45.1665C60.1269 50.9567 56.0737 55.9081 50.8695 59.3941C45.6652 62.8801 39.5439 64.7441 33.28 64.75C29.1236 64.7645 25.0052 63.9583 21.1611 62.3778C17.3169 60.7972 13.8226 58.4734 10.8784 55.5394C7.93429 52.6055 5.59826 49.1192 4.00434 45.2806C2.41043 41.4419 1.58995 37.3264 1.58998 33.17Z" fill="#004A9C"/>
<path d="M22.33 55.25V24.62C22.33 23.62 22.33 22.3899 21.25 23.0399C20.59 23.6999 18.58 25.4899 17.43 24.2899C16.28 23.0899 16.43 22.3899 17.43 21.0299L25.49 7.73996C26.03 6.81996 26.58 7.25996 26.9 7.73996L34.75 21.37C35.61 23.04 35.18 25.37 32.51 24.37C31.4616 24.0746 30.5161 23.4928 29.78 22.69C29.78 22.69 29.14 22.36 29.24 23.69C29.34 25.02 29.24 35.25 29.24 35.25C29.24 36.38 29.57 36.93 30.6 36.38C32.83 34.92 37.96 33.29 40.73 33.62L39.04 30.8C38.28 29.39 39.04 27.59 40.84 27.92L55.76 36.27C56.57 36.71 56.35 37.36 55.76 37.8L41.83 45.7199C40.36 46.5899 38.12 45.94 39.43 43.61C40.74 41.28 41.12 40.61 41.12 40.61C39.26 39.8 36.43 40.24 33.88 42.36C31.7624 44.1369 30.1458 46.4361 29.19 49.0299V55.21" fill="white"/>
</g>
<defs>
<clipPath id="clip0_8063_7116">
<rect width="66.49" height="66.33" fill="white"/>
</clipPath>
</defs>
</svg>
