<svg width="69" height="68" viewBox="0 0 69 68" fill="none" xmlns="http://www.w3.org/2000/svg">
<g clip-path="url(#clip0_8063_7188)">
<path d="M34.09 67.7301C40.7628 67.7083 47.2795 65.7096 52.817 61.9864C58.3546 58.2631 62.6645 52.9824 65.2026 46.8111C67.7406 40.6398 68.393 33.8548 67.0771 27.313C65.7613 20.7711 62.5363 14.766 57.8095 10.056C53.0827 5.34597 47.0662 2.14231 40.5198 0.849693C33.9733 -0.442924 27.1907 0.233471 21.0284 2.79342C14.8662 5.35337 9.60073 9.68204 5.89718 15.2327C2.19363 20.7835 0.218062 27.3072 0.220003 33.9801C0.227875 38.4201 1.11019 42.815 2.81658 46.914C4.52297 51.013 7.02001 54.7358 10.1651 57.8698C13.3103 61.0038 17.0419 63.4876 21.1469 65.1794C25.2519 66.8712 29.65 67.738 34.09 67.7301Z" stroke="#004A9C" stroke-width="0.45"/>
<path d="M2.23999 33.97C2.2202 27.6665 4.07134 21.4988 7.55901 16.2479C11.0467 10.9971 16.014 6.89926 21.8321 4.47327C27.6501 2.04728 34.0572 1.40226 40.2421 2.61988C46.427 3.8375 52.1114 6.863 56.5757 11.3133C61.0401 15.7636 64.0834 21.4385 65.3205 27.6195C66.5576 33.8005 65.9327 40.2096 63.525 46.0353C61.1173 51.8609 57.0351 56.8411 51.7953 60.3453C46.5554 63.8494 40.3936 65.72 34.09 65.72C29.914 65.7266 25.7775 64.9106 21.9169 63.3185C18.0562 61.7265 14.5469 59.3897 11.5893 56.4414C8.6318 53.4931 6.28392 49.9912 4.67975 46.1356C3.07559 42.2799 2.24656 38.1461 2.23999 33.97Z" fill="#004A9C"/>
<path d="M38.59 26.37H44.95C45.0934 26.376 45.234 26.4114 45.3632 26.4739C45.4924 26.5365 45.6074 26.6248 45.7012 26.7335C45.7949 26.8422 45.8653 26.969 45.9081 27.106C45.9509 27.243 45.9652 27.3873 45.95 27.53V37.14C45.95 37.78 45.05 37.99 44.62 37.99H38.62V47.18H49.48C50.1765 47.2305 50.8758 47.1346 51.5329 46.8984C52.1901 46.6622 52.7905 46.291 53.2954 45.8087C53.8004 45.3263 54.1987 44.7435 54.4647 44.0979C54.7307 43.4523 54.8586 42.7581 54.84 42.06V23.51C54.84 20.08 53.77 17.33 49.91 17.33H38.59M32.59 26.33H38.59V17.33H26.98C23.6 17.33 20.98 20.5 20.98 21.98V38.41H17.39L18.56 33.65C18.56 33.18 18.29 33.13 18.29 33.13C18.2147 33.0939 18.1309 33.0795 18.0479 33.0883C17.9649 33.0971 17.886 33.1289 17.82 33.18L8.59999 42.69L17.18 51.99L17.24 52.09C17.3503 52.176 17.4795 52.2344 17.6169 52.2605C17.7542 52.2866 17.8959 52.2796 18.03 52.24C18.03 52.24 18.45 52.09 18.4 51.4L17.4 47.12L20.74 47.02V55.89H30.82V47.18H38.55V37.99H32.09C31.45 37.99 31.24 36.93 31.24 36.93V27.42C31.24 26.9 31.55 26.37 32.51 26.37" fill="white"/>
</g>
<defs>
<clipPath id="clip0_8063_7188">
<rect width="68.17" height="67.95" fill="white"/>
</clipPath>
</defs>
</svg>
