<svg width="19" height="72" viewBox="0 0 19 72" fill="none" xmlns="http://www.w3.org/2000/svg">
<g clip-path="url(#clip0_8063_8748)">
<path d="M17.0666 61.3586L13.8551 57.1518L10.6437 61.3127H9.00517L13.0162 56.0706L9.20179 51.0841H10.8206L13.8551 54.9829L16.8437 51.0841H18.4822L14.6547 56.0706L18.7051 61.3586H17.0666Z" fill="white"/>
<path d="M17.0666 61.3586L13.8551 57.1518L10.6437 61.3127H9.00517L13.0162 56.0706L9.20179 51.0841H10.8206L13.8551 54.9829L16.8437 51.0841H18.4822L14.6547 56.0706L18.7051 61.3586H17.0666Z" stroke="#231916" stroke-width="0.45"/>
<path d="M13.6651 0.0262451L10.0276 22.3772H12.8786V31.7277C12.2422 30.8533 11.4267 30.1246 10.4864 29.5901C9.54614 29.0557 8.50269 28.7278 7.42566 28.6284V20.4507L0.176956 31.5902L7.38634 42.5854V34.5323C7.38634 34.5323 11.9414 35.8428 12.9114 39.6302V51.1234H14.8055V22.4231H17.8137L13.6651 0.0262451Z" fill="white"/>
<path d="M13.6651 0.0262451L10.0276 22.3772H12.8786V31.7277C12.2422 30.8533 11.4267 30.1246 10.4864 29.5901C9.54614 29.0557 8.50269 28.7278 7.42566 28.6284V20.4507L0.176956 31.5902L7.38634 42.5854V34.5323C7.38634 34.5323 11.9414 35.8428 12.9114 39.6302V51.1234H14.8055V22.4231H17.8137L13.6651 0.0262451Z" stroke="#231916" stroke-width="0.45"/>
<path d="M14.6219 61.4044H12.872V71.8493H14.6219V61.4044Z" fill="white"/>
<path d="M14.6219 61.4044H12.872V71.8493H14.6219V61.4044Z" stroke="#231916" stroke-width="0.45"/>
</g>
<defs>
<clipPath id="clip0_8063_8748">
<rect width="19" height="72" fill="white"/>
</clipPath>
</defs>
</svg>
