<svg width="46" height="73" viewBox="0 0 46 73" fill="none" xmlns="http://www.w3.org/2000/svg">
<g clip-path="url(#clip0_8063_8958)">
<path d="M0.266403 0.924373L4.93597 0.880005L12.536 19.6181L5.15797 37.4392L12.6248 54.824L5.67599 72.7782L1.01383 72.8226L7.77767 54.5726L0.355206 37.661L7.91087 19.5293" fill="white"/>
<path d="M0.266403 0.924373L4.93597 0.880005L12.536 19.6181L5.15797 37.4392L12.6248 54.824L5.67599 72.7782L1.01383 72.8226L7.77767 54.5726L0.355206 37.661L7.91087 19.5293L0.266403 0.924373Z" stroke="#231916" stroke-width="0.49"/>
<path d="M45.0084 0.184814L40.9456 0.229182L34.6628 19.1003L41.471 36.7883L35.277 54.2619L41.6857 72.083H45.7484L39.4656 53.9144L45.6596 36.8771L38.7256 18.9155" fill="white"/>
<path d="M45.0084 0.184814L40.9456 0.229182L34.6628 19.1003L41.471 36.7883L35.277 54.2619L41.6857 72.083H45.7484L39.4656 53.9144L45.6596 36.8771L38.7256 18.9155L45.0084 0.184814Z" stroke="#231916" stroke-width="0.49"/>
</g>
<defs>
<clipPath id="clip0_8063_8958">
<rect width="46" height="73" fill="white"/>
</clipPath>
</defs>
</svg>
