<svg width="77" height="48" viewBox="0 0 77 48" fill="none" xmlns="http://www.w3.org/2000/svg">
<g clip-path="url(#clip0_8063_8657)">
<path d="M44.1671 46.612V8.9895" stroke="#231916" stroke-width="0.28"/>
<path d="M76.9347 8.77844L76.8881 46.612" stroke="#231916" stroke-width="0.28"/>
<path d="M44.2137 9.31773C44.5632 9.5475 44.8382 9.64131 45.1924 9.22396C45.2455 9.14613 45.3153 9.08132 45.3967 9.03437C45.4781 8.98743 45.569 8.95956 45.6626 8.9528C45.7561 8.94604 45.8501 8.96057 45.9373 8.99533C46.0245 9.0301 46.1028 9.0842 46.1664 9.15361C46.3425 9.24765 46.5438 9.28247 46.7409 9.25293C46.938 9.22339 47.1205 9.13106 47.2616 8.9895C47.4048 8.83951 47.5987 8.74905 47.8049 8.73602C48.0112 8.723 48.2148 8.78834 48.3755 8.91914C48.7483 9.22395 49.0513 8.98951 49.3775 8.82538C49.5295 8.72095 49.7158 8.67973 49.8973 8.71032C50.0789 8.74091 50.2416 8.84093 50.3515 8.9895C50.6078 9.38809 50.9574 9.38807 51.2137 9.08326C51.47 8.77845 51.6797 8.91914 51.8428 9.15361C52.006 9.38808 52.7237 9.38807 53.0266 9.08326C53.3295 8.77845 53.4927 9.08327 53.7956 9.38808C54.0985 9.69288 54.3782 9.78201 54.6298 9.4772C54.8815 9.1724 55.0306 8.75501 55.3988 9.08326C55.4848 9.1603 55.5853 9.21915 55.6944 9.25625C55.8035 9.29334 55.919 9.30793 56.0338 9.29918C56.1486 9.29043 56.2605 9.25851 56.3628 9.2053C56.4651 9.15209 56.5556 9.0787 56.6291 8.9895C56.6891 8.89857 56.7705 8.82397 56.866 8.77237C56.9616 8.72078 57.0683 8.69378 57.1768 8.69378C57.2852 8.69378 57.3919 8.72078 57.4875 8.77237C57.583 8.82397 57.6644 8.89857 57.7243 8.9895C57.7911 9.07441 57.8761 9.14302 57.9729 9.19019C58.0698 9.23736 58.176 9.26186 58.2836 9.26186C58.3912 9.26186 58.4974 9.23736 58.5943 9.19019C58.6912 9.14302 58.7761 9.07441 58.8429 8.9895C58.928 8.86551 59.0573 8.7793 59.204 8.74873C59.3507 8.71817 59.5034 8.74561 59.6305 8.82538C60.2869 9.06645 61.001 9.09916 61.6764 8.91914C62.259 8.68468 62.3522 8.52525 62.7716 8.75503C63.1911 8.98481 63.6291 9.22397 63.9554 8.82538C64.0095 8.74818 64.08 8.68406 64.1618 8.63762C64.2435 8.59118 64.3345 8.56359 64.4282 8.55685C64.5218 8.55012 64.6158 8.56442 64.7033 8.5987C64.7908 8.63297 64.8696 8.68635 64.9341 8.75503C65.1438 8.9895 66.4674 8.9895 66.6818 8.75503C66.8961 8.52056 67.6558 9.22395 68.0799 8.91914C68.504 8.61434 69.3102 8.91914 69.6132 8.68468C69.9161 8.45021 70.4986 8.75502 70.6571 8.91914C70.8155 9.08327 71.221 8.91916 71.4307 8.75503C71.6405 8.5909 72.1019 8.75503 72.3116 8.9895C72.3873 9.06222 72.4786 9.11649 72.5785 9.14817C72.6784 9.17985 72.7841 9.18812 72.8876 9.17227C72.9911 9.15642 73.0896 9.11689 73.1756 9.05676C73.2615 8.99662 73.3327 8.91748 73.3835 8.82538C73.7051 8.35645 74.008 8.68468 74.2177 8.91914C74.4274 9.15361 74.7303 9.22396 74.9867 8.75503C75.243 8.2861 75.4527 8.43148 75.8022 8.82538C76.1518 9.21928 76.5898 9.29431 76.8928 8.82538" stroke="#231916" stroke-width="0.28"/>
<path d="M44.1205 47.0105C44.47 46.612 45.4907 45.9601 46.0266 46.612C46.5626 47.2638 46.6325 47.0809 47.0007 46.7761C47.3689 46.4713 47.4015 46.5182 47.6065 46.7761C47.8233 46.8993 48.0711 46.9561 48.3195 46.9394C48.5679 46.9227 48.8061 46.8334 49.0047 46.6823C49.1682 46.5422 49.3727 46.4595 49.5872 46.4468C49.8016 46.4341 50.0143 46.4921 50.1931 46.612C50.4494 46.8464 50.7057 45.7257 51.2184 46.2181C51.731 46.7105 52.3089 46.687 52.5187 46.4479C52.7284 46.2087 53.3808 47.3341 54.01 46.6823C54.0928 46.5752 54.1988 46.4885 54.3199 46.4288C54.4411 46.3692 54.5742 46.3382 54.709 46.3382C54.8439 46.3382 54.977 46.3692 55.0982 46.4288C55.2193 46.4885 55.3253 46.5752 55.4081 46.6823C55.5384 46.837 55.7242 46.9336 55.9249 46.9511C56.1256 46.9687 56.3252 46.9058 56.48 46.7761C56.6126 46.6528 56.7865 46.5844 56.967 46.5844C57.1475 46.5844 57.3215 46.6528 57.4541 46.7761C57.6172 46.9402 58.0366 46.7761 58.3862 46.5182C58.7357 46.2603 59.5233 46.9871 59.8961 46.5182C60.269 46.0493 60.7583 46.4479 60.7583 46.4479C60.7583 46.4479 61.2244 46.8464 61.4807 46.4479C61.522 46.366 61.585 46.2973 61.6627 46.2493C61.7405 46.2013 61.8299 46.1759 61.9211 46.1759C62.0123 46.1759 62.1017 46.2013 62.1795 46.2493C62.2572 46.2973 62.3202 46.366 62.3615 46.4479C62.5713 46.7761 63.247 46.612 63.4567 46.2884C63.6664 45.9649 64.1745 46.054 64.3609 46.2884C64.4195 46.3412 64.4895 46.3794 64.5655 46.4001C64.6414 46.4207 64.7211 46.4231 64.7981 46.4072C64.8751 46.3912 64.9473 46.3573 65.009 46.3082C65.0706 46.2591 65.12 46.1961 65.1531 46.1243C65.3629 45.8242 65.9175 45.8898 66.2251 46.1243C66.2826 46.1786 66.3509 46.2201 66.4254 46.2462C66.4999 46.2723 66.579 46.2823 66.6577 46.2757C66.7363 46.269 66.8127 46.2458 66.8819 46.2077C66.951 46.1695 67.0115 46.1171 67.0592 46.054C67.2278 45.9548 67.4276 45.9238 67.618 45.9673C67.8084 46.0108 67.9752 46.1257 68.0846 46.2884C68.2477 46.612 69.4827 46.7574 69.6178 46.5182C69.6681 46.4578 69.7297 46.4079 69.7992 46.3717C69.8687 46.3354 69.9447 46.3133 70.0227 46.3068C70.1007 46.3003 70.1792 46.3094 70.2538 46.3336C70.3283 46.3578 70.3973 46.3966 70.4567 46.4479C70.7597 46.6823 72.2464 46.612 72.4561 46.3775C72.5035 46.3107 72.5661 46.2563 72.6386 46.2187C72.7112 46.1812 72.7916 46.1616 72.8732 46.1616C72.9547 46.1616 73.0352 46.1812 73.1077 46.2187C73.1803 46.2563 73.2428 46.3107 73.2903 46.3775C73.5 46.6823 73.8961 46.4479 74.1059 46.2181C74.3156 45.9883 74.5253 46.3775 74.7816 46.612C75.038 46.8464 75.504 46.612 75.7137 46.2884C75.7931 46.2067 75.8892 46.1433 75.9954 46.1029C76.1016 46.0625 76.2153 46.0459 76.3286 46.0544C76.4418 46.0629 76.5518 46.0962 76.6509 46.152C76.75 46.2078 76.8357 46.2848 76.9021 46.3775" stroke="#231916" stroke-width="0.28"/>
<path d="M60.0266 10.3447V12.5159" stroke="#231916" stroke-width="0.28"/>
<path d="M60.0266 15.0527V17.2004" stroke="#231916" stroke-width="0.28"/>
<path d="M60.0266 19.2778V21.4209" stroke="#231916" stroke-width="0.28"/>
<path d="M60.0266 23.1747V25.3412" stroke="#231916" stroke-width="0.28"/>
<path d="M60.0266 27.6483V30.5229" stroke="#231916" stroke-width="0.28"/>
<path d="M60.0266 32.2673V35.1372" stroke="#231916" stroke-width="0.28"/>
<path d="M60.0266 36.8862V39.7561" stroke="#231916" stroke-width="0.28"/>
<path d="M60.0266 41.5052V44.3751" stroke="#231916" stroke-width="0.28"/>
<path d="M61.0752 10.3447V12.5159" stroke="#231916" stroke-width="0.28"/>
<path d="M61.0752 15.0527V17.2004" stroke="#231916" stroke-width="0.28"/>
<path d="M61.0752 19.2778V21.4209" stroke="#231916" stroke-width="0.28"/>
<path d="M61.0752 23.1747V25.3412" stroke="#231916" stroke-width="0.28"/>
<path d="M61.0752 27.6483V30.5229" stroke="#231916" stroke-width="0.28"/>
<path d="M61.0752 32.2673V35.1372" stroke="#231916" stroke-width="0.28"/>
<path d="M61.0752 36.8862V39.7561" stroke="#231916" stroke-width="0.28"/>
<path d="M61.0752 41.5052V44.3751" stroke="#231916" stroke-width="0.28"/>
<path d="M53.0732 13.5381V9.15356L52.4021 9.24739V16.0328L52.4441 15.8265L53.6092 20.8159L52.4953 20.0656L52.4021 20.1407V21.7257L52.5839 21.585L54.257 22.9637L54.723 26.415L52.3928 24.6377V25.7116L55.1565 27.9109L54.5739 30.1477L53.0406 28.9097V29.9789H52.8775L54.3642 31.2638L53.735 33.4349L52.4581 32.5955L52.3928 32.619V33.6225L53.6698 34.2931L52.8775 36.769L52.4115 36.3001V37.1676L52.4767 37.1207L52.8961 37.5897L52.4301 39.1747V39.0856V46.4103L52.7983 46.3118V40.6002L56.1958 27.6999M52.4301 9.20514L51.9128 9.27549V13.5662L48.7297 27.8405L51.9128 40.5017V46.5182L52.4301 46.4056V39.0809L51.964 37.374L52.4301 37.1442V36.2767L52.3322 36.211L51.8662 36.7222L51.2184 34.5557L52.2856 33.5053L52.4301 33.5756V32.5721L51.0087 33.1301L50.4261 30.8464L51.4467 29.9086H51.3349V28.6987L50.0533 29.4912L49.6338 27.9531L49.7503 27.1606L52.239 25.5053L52.4301 25.6413V24.5674L52.1738 24.3799L50.3329 25.388L50.7989 22.9637L52.4301 21.6553V20.1313L51.1951 20.8065L52.4301 16.0234V9.20514Z" fill="white"/>
<path d="M53.0732 13.5381V9.15356L51.8895 9.31768V13.6084L48.7017 27.8828L51.8895 40.544V46.5604L52.7703 46.3541V40.6377L56.1678 27.7374L53.0732 13.5381ZM52.4441 15.8265L53.6092 20.8159L52.4907 20.0703L51.1671 20.8159L52.4441 15.8265ZM50.771 23.034L52.5839 21.585L54.257 22.9637L54.723 26.415L52.1225 24.4502L50.2816 25.4584L50.771 23.034ZM52.4208 39.2169L51.9547 37.4209L52.486 37.1442L52.9055 37.6131L52.4208 39.2169ZM52.8868 36.769L52.3042 36.2579L51.8382 36.769L51.1858 34.6026L52.253 33.5522L53.6744 34.2931L52.8868 36.769ZM54.3735 31.2638L53.749 33.4349L52.4674 32.5955L50.9807 33.177L50.3981 30.8933L51.4235 29.9554H51.307V28.7456L50.0253 29.5381L49.6105 28L49.7224 27.2075L52.2111 25.5522L55.1658 27.8969L54.5832 30.1336L53.05 28.8956V29.9789H52.8868L54.3735 31.2638Z" stroke="#231916" stroke-width="0.28"/>
<path d="M53.0499 26.5088H51.3069V29.9836H53.0499V26.5088Z" stroke="#231916" stroke-width="0.28"/>
<path d="M53.0499 26.5088L51.3069 29.9836" stroke="#231916" stroke-width="0.28"/>
<path d="M51.3069 26.5088L53.0499 29.9836" stroke="#231916" stroke-width="0.28"/>
<path d="M70.4427 26.5088H68.6764V29.9836H70.4427V26.5088Z" stroke="#231916" stroke-width="0.28"/>
<path d="M70.4474 26.5088L68.6764 29.9836" stroke="#231916" stroke-width="0.28"/>
<path d="M68.6764 26.5088L70.4474 29.9836" stroke="#231916" stroke-width="0.28"/>
<path d="M69.958 13.5381V8.61426L69.2823 8.70808V15.8265L69.7717 17.6225L69.2823 17.8711V18.6917L69.3988 18.8089L69.8882 18.2743L70.5173 20.4408L69.4594 21.5381L69.2963 21.4443V22.4666L70.741 21.9086L71.3189 24.197L69.5759 25.735L69.2963 25.5052V26.415H70.1818L71.6964 25.5287L72.1112 27.0715L72.018 27.8593L70.4614 28.8863V29.9789H69.2963V30.4009L69.5759 30.5885L71.4401 29.585L70.974 32.0328L69.3242 33.3412V34.9261L70.5826 34.2227L69.3242 39.1278V46.4525H69.6971V40.6424L73.0946 27.7421M69.3242 8.70808L68.8116 8.77843V13.6084L65.6285 27.8828L68.8116 40.544V46.4478H69.3242V39.1231V39.2356L68.1638 34.2181L69.2776 34.9683L69.3475 34.9215V33.3365L69.2124 33.4537L67.5113 32.0797L67.0452 28.6237L68.7929 29.932V28.8347L66.6259 27.1325L67.2084 24.891L69.0446 26.3868H69.3709V25.4771L67.4181 23.7983L68.0706 21.6037L69.3242 22.4666L69.3709 22.4385V21.4162L68.1172 20.7643L68.9048 18.2696L69.3709 18.687V17.8664L69.3242 17.8945L68.9048 17.4255L69.3709 15.8452L69.3242 8.70808ZM69.3242 29.9789V30.4009L68.7883 29.9789H69.3242Z" fill="white"/>
<path d="M69.958 13.5381V8.61426L68.7696 8.77843V13.6084L65.5865 27.8828L68.7696 40.544V46.4478H69.6598V40.6377L73.0526 27.7374L69.958 13.5381ZM69.2823 15.8265L69.7717 17.6178L69.2357 17.8992L68.8162 17.4302L69.2823 15.8265ZM68.8162 18.2743L69.3988 18.8089L69.8882 18.2743L70.5173 20.4455L69.4594 21.5381L68.0612 20.7925L68.8162 18.2743ZM67.982 21.6084L69.2357 22.4713L70.727 21.8851L71.3049 24.1735L69.5619 25.7116L67.3296 23.803L67.982 21.6084ZM69.259 39.2403L68.0985 34.2227L69.2124 34.973L70.5406 34.2227L69.259 39.2403ZM69.5619 30.5885L71.4261 29.585L70.96 32.0328L69.1704 33.4396L67.4694 32.0656L67.0033 28.6096L68.7463 29.9179V28.8206L66.5885 27.1184L67.1664 24.8769L69.0027 26.3728H70.2144L71.729 25.4865L72.1438 27.0293L72.0506 27.8171L70.494 28.844V29.9789H68.7929L69.5619 30.5885Z" stroke="#231916" stroke-width="0.28"/>
<path d="M0.428772 1.08325V47.5217" stroke="#231916" stroke-width="0.28"/>
<path d="M31.8961 1.08325V46.8699" stroke="#231916" stroke-width="0.28"/>
<path d="M26.01 1.82886V4.72217" stroke="#231916" stroke-width="0.28"/>
<path d="M26.01 7.14648V10.3634" stroke="#231916" stroke-width="0.28"/>
<path d="M26.01 13.0739V16.2907" stroke="#231916" stroke-width="0.28"/>
<path d="M26.01 18.9965V22.2133" stroke="#231916" stroke-width="0.28"/>
<path d="M26.01 24.9191V28.1641" stroke="#231916" stroke-width="0.28"/>
<path d="M26.01 30.8417V34.0867" stroke="#231916" stroke-width="0.28"/>
<path d="M26.01 36.7925V40.0141" stroke="#231916" stroke-width="0.28"/>
<path d="M26.01 42.7198V45.9367" stroke="#231916" stroke-width="0.28"/>
<path d="M6.47803 1.82886V4.72217" stroke="#231916" stroke-width="0.28"/>
<path d="M6.47803 7.14648V10.3634" stroke="#231916" stroke-width="0.28"/>
<path d="M6.47803 13.0739V16.2907" stroke="#231916" stroke-width="0.28"/>
<path d="M6.47803 18.9965V22.2133" stroke="#231916" stroke-width="0.28"/>
<path d="M6.47803 24.9191V28.1641" stroke="#231916" stroke-width="0.28"/>
<path d="M6.47803 30.8417V34.0867" stroke="#231916" stroke-width="0.28"/>
<path d="M6.47803 36.7925V40.0141" stroke="#231916" stroke-width="0.28"/>
<path d="M6.47803 42.7198V45.9367" stroke="#231916" stroke-width="0.28"/>
<path d="M18.7303 0.77848V3.27789H19.8256V0.243896" fill="#FFD900"/>
<path d="M16.2417 44.5393H15.0579V47.8312H16.2417V44.5393Z" fill="#EE9200"/>
<path d="M18.7303 0.77848V3.27789H19.8256V0.243896" fill="#F8B500"/>
<path d="M18.7303 0.77848V3.27789H19.8256V0.243896" stroke="#231916" stroke-width="0.28"/>
<path d="M16.2417 44.5393H15.0579V47.8312H16.2417V44.5393Z" fill="#F8B500"/>
<path d="M15.0579 47.7327V44.5393H16.2417V47.8265" stroke="#231916" stroke-width="0.28"/>
<path d="M18.2922 5.16298H17.0106L17.5466 6.86521L16.1485 8.22043V10.4385L17.8029 8.75503L18.4973 10.9262L16.1671 13.2709V15.3201L18.8189 12.544L19.518 14.7151L16.1671 18.1665V20.3846L19.751 16.6331L20.45 18.8043L17.4487 21.857V24.1408L20.7111 20.7128L21.4055 22.9028L16.1485 28.2439V30.4901L20.8975 25.7773L20.0586 29.5522L16.1485 33.5428V35.3154L19.5226 31.8828L18.6418 35.4561L16.1485 38.1149V39.6296L18.0126 37.857L17.3369 41.5194V47.4655C17.5233 47.6765 18.0359 47.2779 18.4088 47.2544V41.5663L22.8269 23.3248M16.1485 8.18763L15.0346 9.26145L15.6172 6.36348V0.905089C15.4773 0.736273 14.5453 0.87693 14.4567 0.998852V5.47249L10.4068 23.9672L14.6012 42.4666H15.5333V40.272L16.1578 39.6671V38.1525L15.0905 39.2732L14.5779 36.9285L16.1578 35.3435V33.571L14.466 35.2966L13.8835 32.7551L16.1578 30.5182V28.272L13.5805 30.8886L12.998 28.8113L15.743 25.9227H15.6265V23.7234L12.6019 26.7808L12.024 24.7034L16.1578 20.394V18.1759L12.462 21.9789L12.998 18.6401L16.1578 15.3295V13.2802L13.7903 15.6249L14.3449 12.2861L16.1578 10.4479L16.1485 8.18763Z" fill="#F8B500"/>
<path d="M18.2922 5.16298H17.0106L17.5466 6.86521L15.0346 9.29431L15.6172 6.40097V0.905091C15.4773 0.740965 14.5452 0.905068 14.452 0.998855V5.47719L10.4068 23.9719L14.6012 42.4713H15.5333V40.2767L18.022 37.8992L17.3462 41.5616V47.5124C17.5326 47.7187 18.0453 47.3248 18.4181 47.2967V41.6085L22.8362 23.367M14.3495 12.2861L17.8123 8.76442L18.5113 10.9356L13.7903 15.6249L14.3495 12.2861ZM12.998 18.6542L18.8096 12.5581L19.5086 14.7292L12.4527 22.0071L12.998 18.6542ZM12.998 28.8254L15.743 25.9367H15.6265V23.7374L12.6019 26.7949L12.0193 24.7175L19.7416 16.6753L20.4407 18.8465L17.4394 21.8945V24.1829L20.7017 20.755L21.3961 22.945L13.5619 30.9168L12.998 28.8254ZM18.6511 35.4936L15.0905 39.2779L14.5779 36.9332L19.5319 31.9156L18.6511 35.4936ZM20.0492 29.5944L14.4567 35.3107L13.8788 32.7691L20.9021 25.8148L20.0492 29.5944Z" fill="#F8B500"/>
<path d="M18.2922 5.16298H17.0106L17.5466 6.86521L15.0346 9.29431L15.6172 6.40097V0.905091C15.4773 0.740965 14.5452 0.905068 14.452 0.998855V5.47719L10.4068 23.9719L14.6012 42.4713H15.5333V40.2767L18.022 37.8992L17.3462 41.5616V47.5124C17.5326 47.7187 18.0453 47.3248 18.4181 47.2967V41.6085L22.8362 23.367L18.2922 5.16298ZM14.3402 12.2767L17.8029 8.75503L18.502 10.9262L13.781 15.6155L14.3402 12.2767ZM12.9887 18.6448L18.8003 12.5487L19.4993 14.7198L12.4527 22.0071L12.9887 18.6448ZM12.9887 28.816L15.7337 25.9274H15.6172V23.7281L12.5925 26.7855L12.01 24.7081L19.7324 16.6659L20.4314 18.8371L17.4301 21.8852V24.1736L20.6924 20.7457L21.3868 22.9356L13.5526 30.9074L12.9887 28.816ZM18.6418 35.4842L15.0812 39.2685L14.5686 36.9239L19.5226 31.9063L18.6418 35.4842ZM20.0399 29.5851L14.4474 35.3013L13.8695 32.7597L20.8928 25.8054L20.0399 29.5851Z" stroke="#231916" stroke-width="0.28"/>
<path d="M17.3602 21.191H15.5473V26.8558H17.3602V21.191Z" fill="#B5B6B6"/>
<path d="M17.3602 21.191H15.5473V26.8558H17.3602V21.191Z" stroke="#231916" stroke-width="0.28"/>
<path d="M17.3602 21.191L15.5473 26.8558" stroke="#231916" stroke-width="0.28"/>
<path d="M15.5473 21.191L17.3602 26.8558" stroke="#231916" stroke-width="0.28"/>
<path d="M0.428772 1.47719C0.732206 1.23352 1.1037 1.09127 1.49137 1.07025C1.87903 1.04924 2.26353 1.1505 2.59123 1.35996C2.87086 1.61787 3.70973 1.03643 4.10121 0.755073C4.49269 0.473713 5.49935 1.61788 6.43144 0.895718C7.36353 0.173561 7.45674 1.08333 7.71306 1.22401C7.94003 1.30328 8.18238 1.32758 8.42044 1.29499C8.6585 1.2624 8.88554 1.17383 9.08321 1.03642C9.4374 0.689411 10.7144 1.94614 11.5719 1.0833C12.4295 0.220466 12.504 0.82539 12.7603 1.0833C13.0166 1.34122 14.4334 1.08328 14.8296 0.825367C15.2257 0.567454 16.0879 0.825401 16.2976 1.03642C16.5074 1.24744 17.0852 0.895753 17.4114 0.755073C17.7377 0.614393 18.5952 1.15364 19.1312 0.497137C19.6671 -0.15937 20.5293 0.286117 20.9022 0.497137C21.275 0.708156 22.5286 0.689399 22.6638 0.497137C22.7989 0.304874 23.6471 1.435 24.225 0.61437C24.3154 0.481001 24.4335 0.368921 24.5711 0.285911C24.7087 0.2029 24.8625 0.150916 25.022 0.13353C25.1815 0.116144 25.3429 0.133783 25.4949 0.18522C25.647 0.236657 25.7862 0.32068 25.9028 0.431479C26.1312 0.689392 27.0167 0.614381 27.4594 0.215788C27.9021 -0.182805 28.6431 0.286117 28.783 0.497137C28.9228 0.708156 29.5752 0.567458 29.8316 0.361128C30.1611 0.26967 30.5094 0.271194 30.8382 0.365478C31.167 0.459762 31.4636 0.643182 31.6957 0.895718" stroke="#231916" stroke-width="0.28"/>
<path d="M0.0186462 47.6858C0.304343 47.8027 0.613237 47.8509 0.920699 47.8264C1.22816 47.802 1.52571 47.7056 1.78964 47.5451C2.02432 47.4066 2.29622 47.3458 2.5671 47.371C2.83798 47.3962 3.09419 47.5063 3.29962 47.6858C3.69576 48.0844 4.69776 47.8968 5.1638 47.5451C5.62985 47.1934 6.30559 47.5451 6.88815 47.7561C7.47071 47.9672 7.67579 47.8968 8.25835 47.4278C8.84091 46.9589 9.004 47.3622 9.27896 47.5451C9.46774 47.651 9.68029 47.7067 9.89645 47.7067C10.1126 47.7067 10.3252 47.651 10.514 47.5451C11.0499 47.3622 11.3016 47.2168 11.9121 47.6154C12.5226 48.014 14.5639 48.014 14.9601 47.7561C15.3562 47.4982 15.263 47.5451 15.9854 47.7561C16.7077 47.9672 16.6378 47.2872 18.2876 47.2872C19.9374 47.2872 19.3316 47.7561 20.0073 47.2872C20.6831 46.8183 21.3309 46.7526 21.6804 47.0293C21.8734 47.1794 22.1053 47.2703 22.3484 47.2911C22.5914 47.3119 22.8352 47.2617 23.0506 47.1465C23.2618 47.0235 23.4999 46.9548 23.7438 46.9466C23.9877 46.9384 24.2299 46.991 24.4488 47.0996C24.6827 47.1974 24.9353 47.2417 25.1883 47.2296C25.4413 47.2174 25.6885 47.149 25.9121 47.0293C26.098 46.8942 26.3214 46.8215 26.5506 46.8215C26.7799 46.8215 27.0033 46.8942 27.1891 47.0293C27.3119 47.1767 27.4862 47.2711 27.6761 47.2929C27.8661 47.3147 28.0571 47.2623 28.2097 47.1465C28.6059 46.8933 29.4447 46.6354 29.8875 47.0293C30.3302 47.4232 31.4907 47.1465 31.8868 46.6354" stroke="#231916" stroke-width="0.28"/>
</g>
<defs>
<clipPath id="clip0_8063_8657">
<rect width="77" height="48" fill="white"/>
</clipPath>
</defs>
</svg>
