<svg width="77" height="30" viewBox="0 0 77 30" fill="none" xmlns="http://www.w3.org/2000/svg">
<g clip-path="url(#clip0_8072_508)">
<path d="M5.78999 28.8801C5.04714 28.8841 4.31094 28.7402 3.62422 28.457C2.93749 28.1737 2.31396 27.7566 1.78999 27.23C1.27814 26.7127 0.874077 26.099 0.601144 25.4244C0.328212 24.7498 0.191872 24.0277 0.200021 23.3" stroke="#231F20" stroke-width="0.49"/>
<path d="M0.23999 23.2901V5.83008" stroke="#231F20" stroke-width="0.49"/>
<path d="M0.239938 5.79008C0.231789 5.0624 0.368129 4.34036 0.641061 3.66576C0.913994 2.99115 1.31818 2.37739 1.83003 1.86009C2.35366 1.33305 2.97708 0.915676 3.66389 0.63237C4.35069 0.349063 5.0871 0.205485 5.83003 0.210067" stroke="#231F20" stroke-width="0.49"/>
<path d="M5.79001 0.23999H70.48" stroke="#231F20" stroke-width="0.49"/>
<path d="M70.4801 0.250037C71.2238 0.239753 71.9619 0.380706 72.6495 0.664343C73.3371 0.94798 73.9599 1.36835 74.4801 1.9C75.0001 2.41434 75.4135 3.02622 75.6966 3.7006C75.9798 4.37498 76.127 5.0986 76.13 5.82999" stroke="#231F20" stroke-width="0.49"/>
<path d="M76.09 5.83008V23.2901" stroke="#231F20" stroke-width="0.49"/>
<path d="M76.0799 23.3C76.0769 24.0314 75.9297 24.7551 75.6466 25.4294C75.3634 26.1038 74.95 26.7157 74.43 27.23C73.9098 27.7617 73.2871 28.1821 72.5995 28.4658C71.9119 28.7494 71.1738 28.8903 70.43 28.8801" stroke="#231F20" stroke-width="0.49"/>
<path d="M70.48 28.8701H5.79001" stroke="#231F20" stroke-width="0.49"/>
<path d="M5.78998 26.7901C4.89473 26.7747 4.03939 26.4169 3.39996 25.7901C3.07049 25.4728 2.81123 25.0899 2.63897 24.6662C2.46672 24.2425 2.38532 23.7873 2.39996 23.3301" stroke="#231F20" stroke-width="0.49"/>
<path d="M2.31 23.2901V5.83008" stroke="#231F20" stroke-width="0.49"/>
<path d="M2.29999 5.79004C2.29472 5.32718 2.38624 4.86836 2.56879 4.44299C2.75134 4.01762 3.02082 3.63514 3.35993 3.32007C4.00623 2.68529 4.87409 2.32669 5.77997 2.32007" stroke="#231F20" stroke-width="0.49"/>
<path d="M5.79001 2.36011H70.48" stroke="#231F20" stroke-width="0.49"/>
<path d="M70.4801 2.35992C71.4085 2.35455 72.3014 2.71617 72.9644 3.36609C73.6275 4.016 74.0069 4.90155 74.0201 5.82989" stroke="#231F20" stroke-width="0.49"/>
<path d="M74.02 5.83008V23.2901" stroke="#231F20" stroke-width="0.49"/>
<path d="M74.0201 23.3C74.0141 23.7597 73.9173 24.2136 73.7354 24.6358C73.5535 25.058 73.29 25.44 72.9601 25.76C72.3056 26.4267 71.4142 26.8078 70.4801 26.8201" stroke="#231F20" stroke-width="0.49"/>
<path d="M70.48 26.8201H5.79001" stroke="#231F20" stroke-width="0.49"/>
<path d="M19.03 16.4301C19.68 16.4301 20.4 16.4301 21.18 16.3501C21.96 16.2701 22.71 16.2301 23.4 16.1401L23.5001 17.2801C22.7555 17.4149 22.0045 17.5118 21.2501 17.5701C20.4801 17.6401 19.78 17.6801 19.16 17.6901H16.7299L16.52 16.4101L19.03 16.4301ZM20.17 12.4901C19.9373 13.071 19.5747 13.5909 19.11 14.0101C18.605 14.4481 18.0115 14.7722 17.37 14.9601L16.58 13.7501C17.1203 13.5932 17.6259 13.3353 18.07 12.9901C18.4427 12.6921 18.7464 12.3168 18.9601 11.8901C19.1564 11.4848 19.2588 11.0404 19.26 10.5901V9.97009H20.5299V10.5901C20.5347 11.2408 20.4125 11.8862 20.17 12.4901ZM23.12 10.8101H16.9799V9.52008H23.12V10.8101ZM20.8399 16.9201H19.27V14.4901H20.8399V16.9201ZM21.14 11.7901C21.3448 12.1859 21.6394 12.5283 22.0001 12.7901C22.4272 13.1217 22.917 13.3632 23.44 13.5001L22.7101 14.7201C22.0678 14.5547 21.4723 14.2433 20.9701 13.8101C20.5131 13.4181 20.1535 12.9251 19.92 12.3701C19.6884 11.7951 19.5728 11.18 19.5799 10.5601V9.94012H20.86V10.5601C20.8549 10.9865 20.9508 11.408 21.14 11.7901ZM25.5699 19.8601H24.0001V8.61011H25.5699V19.8601ZM27.0999 14.3701H25.0999V13.0601H27.0999V14.3701Z" fill="#231F20"/>
<path d="M37.8399 16.18H27.5699V14.9H37.8399V16.18ZM34.8399 9.31003C35.3924 9.47572 35.8921 9.78241 36.2899 10.2C36.622 10.5708 36.8038 11.0522 36.7999 11.55C36.8042 12.0389 36.6217 12.511 36.2899 12.87C35.8878 13.2779 35.389 13.5772 34.8399 13.74C34.1516 13.9587 33.4322 14.0634 32.7101 14.05C31.9911 14.0641 31.2747 13.9594 30.5899 13.74C30.0409 13.5772 29.5421 13.2779 29.14 12.87C28.8081 12.511 28.6257 12.0389 28.63 11.55C28.626 11.0522 28.8079 10.5708 29.14 10.2C29.5378 9.78241 30.0375 9.47572 30.5899 9.31003C31.2747 9.09068 31.9911 8.98594 32.7101 9.00003C33.4188 8.99098 34.1243 9.09564 34.7999 9.31003H34.8399ZM31.4 10.4C31.0852 10.4757 30.7934 10.6267 30.5499 10.84C30.4572 10.9334 30.3841 11.0443 30.3343 11.1661C30.2846 11.2879 30.2593 11.4184 30.2601 11.55C30.26 11.6771 30.2855 11.8028 30.3353 11.9197C30.3851 12.0366 30.4581 12.1422 30.5499 12.23C30.7931 12.4418 31.0853 12.5895 31.4 12.66C32.2653 12.86 33.1646 12.86 34.0299 12.66C34.3453 12.5916 34.638 12.4436 34.88 12.23C34.975 12.1442 35.0509 12.0392 35.1026 11.922C35.1543 11.8049 35.1807 11.6781 35.18 11.55C35.1795 11.4177 35.1527 11.2868 35.1012 11.165C35.0497 11.0431 34.9745 10.9326 34.88 10.84C34.6391 10.6228 34.3463 10.4713 34.0299 10.4C33.1646 10.2 32.2653 10.2 31.4 10.4ZM33.4901 19.87H31.93V15.72H33.4901V19.87Z" fill="#231F20"/>
<path d="M40.4 10.7899H42.7V9.37994H44.2799V14.6499H38.8399V9.37994H40.4V10.7899ZM45.7501 15.7899C46.2459 15.9129 46.6986 16.1688 47.0599 16.5299C47.2111 16.6841 47.33 16.8672 47.409 17.0682C47.4881 17.2692 47.5258 17.484 47.5201 17.6999C47.5255 17.9172 47.4875 18.1335 47.4085 18.3361C47.3296 18.5387 47.211 18.7236 47.0599 18.8799C46.7002 19.2422 46.2522 19.5041 45.7601 19.6399C45.1092 19.8213 44.4357 19.9088 43.7601 19.8999C43.0679 19.9102 42.3777 19.8227 41.7101 19.6399C41.2084 19.5059 40.7501 19.2441 40.38 18.8799C40.2276 18.7241 40.1076 18.5395 40.0269 18.337C39.9463 18.1344 39.9065 17.9179 39.91 17.6999C39.9062 17.4834 39.9457 17.2683 40.0265 17.0673C40.1072 16.8664 40.2274 16.6836 40.38 16.5299C40.7489 16.1684 41.2084 15.9129 41.7101 15.7899C42.3763 15.601 43.0679 15.5166 43.7601 15.5399C44.4291 15.52 45.097 15.6044 45.7401 15.7899H45.7501ZM42.7 13.3999V11.9999H40.4V13.3999H42.7ZM42.4901 16.8599C42.2157 16.9012 41.9551 17.0075 41.7301 17.1699C41.6467 17.2303 41.5794 17.3102 41.534 17.4026C41.4887 17.495 41.4668 17.597 41.4701 17.6999C41.4677 17.8026 41.49 17.9045 41.5352 17.9967C41.5805 18.089 41.6474 18.1689 41.7301 18.2299C41.9519 18.4016 42.2132 18.5151 42.4901 18.5599C42.8976 18.6464 43.3135 18.6867 43.7301 18.6799C44.1433 18.6879 44.5561 18.6476 44.9601 18.5599C45.2341 18.5156 45.4922 18.402 45.7101 18.2299C45.7893 18.1662 45.8534 18.0855 45.8973 17.9938C45.9413 17.902 45.964 17.8016 45.964 17.6999C45.964 17.5982 45.9413 17.4978 45.8973 17.4061C45.8534 17.3143 45.7893 17.2336 45.7101 17.1699C45.4878 17.0092 45.2309 16.9031 44.9601 16.8599C44.5516 16.7807 44.1361 16.7439 43.7201 16.7499C43.3064 16.7212 42.891 16.7346 42.4801 16.7899L42.4901 16.8599ZM47.41 15.2799H45.8399V8.63989H47.4L47.41 15.2799ZM48.93 12.5799H46.93V11.2699H48.93V12.5799Z" fill="#231F20"/>
<path d="M56.0799 10.9301H49.4V9.70001H56.0699L56.0799 10.9301ZM54.19 11.5601C54.5831 11.7037 54.9291 11.9528 55.19 12.28C55.4115 12.5669 55.5341 12.9177 55.5399 13.28C55.5421 13.659 55.4192 14.0281 55.19 14.33C54.9276 14.651 54.5815 14.8933 54.19 15.03C53.7301 15.2045 53.242 15.2927 52.7501 15.29C52.255 15.2923 51.7634 15.2042 51.2999 15.03C50.907 14.8962 50.5602 14.6534 50.2999 14.33C50.0665 14.0304 49.9432 13.6598 49.95 13.28C49.9513 12.9169 50.0744 12.5647 50.2999 12.28C50.559 11.9509 50.9056 11.7014 51.2999 11.5601C51.7621 11.3814 52.2546 11.2931 52.7501 11.3C53.2424 11.2929 53.7313 11.3812 54.19 11.5601ZM56.67 16.1C57.161 16.2154 57.6151 16.4527 57.9901 16.79C58.1373 16.9267 58.2545 17.0923 58.3348 17.2764C58.4151 17.4605 58.4566 17.6592 58.4566 17.86C58.4566 18.0609 58.4151 18.2596 58.3348 18.4437C58.2545 18.6278 58.1373 18.7934 57.9901 18.9301C57.6151 19.2674 57.161 19.5047 56.67 19.6201C56.0173 19.7901 55.3445 19.8708 54.67 19.86C53.9956 19.8693 53.3231 19.7886 52.67 19.6201C52.179 19.5047 51.7249 19.2674 51.3499 18.9301C51.2041 18.7926 51.0878 18.6268 51.0084 18.4428C50.9289 18.2588 50.888 18.0605 50.888 17.86C50.888 17.6596 50.9289 17.4613 51.0084 17.2773C51.0878 17.0933 51.2041 16.9275 51.3499 16.79C51.7249 16.4527 52.179 16.2154 52.67 16.1C53.9849 15.7864 55.3551 15.7864 56.67 16.1ZM52.0899 12.55C51.9188 12.6084 51.7668 12.7121 51.65 12.85C51.547 12.9884 51.4942 13.1576 51.5001 13.33C51.4978 13.4927 51.5506 13.6513 51.65 13.78C51.7636 13.9194 51.9171 14.0206 52.0899 14.0701C52.5232 14.2035 52.9867 14.2035 53.42 14.0701C53.5936 14.0161 53.7491 13.9158 53.87 13.78C53.9722 13.6522 54.0285 13.4937 54.0299 13.33C54.0321 13.1566 53.9758 12.9874 53.87 12.85C53.7504 12.7106 53.5947 12.6068 53.42 12.55C52.9867 12.4166 52.5232 12.4166 52.0899 12.55ZM53.5399 10.3701H51.9701V8.56006H53.5399V10.3701ZM53.42 17.15C53.1546 17.1835 52.8992 17.2721 52.67 17.41C52.5935 17.4576 52.5304 17.5239 52.4867 17.6027C52.4429 17.6814 52.42 17.77 52.42 17.86C52.4209 17.9499 52.4442 18.0382 52.4879 18.1168C52.5315 18.1953 52.5942 18.2618 52.67 18.3101C52.8952 18.4598 53.1518 18.5555 53.42 18.59C53.83 18.6555 54.2449 18.6857 54.66 18.6801C55.0652 18.6858 55.4701 18.6557 55.87 18.59C56.1356 18.5577 56.3895 18.4617 56.61 18.3101C56.6864 18.2625 56.7496 18.1962 56.7933 18.1174C56.837 18.0387 56.86 17.9501 56.86 17.86C56.8601 17.7711 56.8383 17.6834 56.7965 17.6049C56.7546 17.5264 56.6939 17.4595 56.62 17.41C56.3946 17.2718 56.1423 17.1831 55.88 17.15C55.4768 17.0836 55.0685 17.0536 54.66 17.0601C54.2382 17.0525 53.8165 17.0825 53.4 17.15H53.42ZM58.3299 15.76H56.7501V8.61005H58.3299V15.76ZM59.7899 11.54H57.8399V10.26H59.7899V11.54ZM59.7899 13.97H57.8399V12.6901H59.7899V13.97Z" fill="#231F20"/>
</g>
<defs>
<clipPath id="clip0_8072_508">
<rect width="76.33" height="29.12" fill="white"/>
</clipPath>
</defs>
</svg>
