<svg width="68" height="67" viewBox="0 0 68 67" fill="none" xmlns="http://www.w3.org/2000/svg">
<g clip-path="url(#clip0_8063_7201)">
<path d="M1.97 59.37C1.97529 60.7828 2.54024 62.1359 3.54111 63.1331C4.54198 64.1302 5.8972 64.69 7.31 64.69H60.31C61.7228 64.69 63.078 64.1302 64.0789 63.1331C65.0798 62.1359 65.6447 60.7828 65.65 59.37V7.54999C65.6447 6.1372 65.0798 4.78411 64.0789 3.78699C63.078 2.78986 61.7228 2.22997 60.31 2.22998H7.31C5.8972 2.22997 4.54198 2.78986 3.54111 3.78699C2.54024 4.78411 1.97529 6.1372 1.97 7.54999" fill="#004A9C"/>
<path d="M0.230011 61.05C0.237913 62.5478 0.837093 63.9818 1.89713 65.04C2.95716 66.0981 4.39224 66.6948 5.89001 66.7" stroke="#004A9C" stroke-width="0.45"/>
<path d="M5.89001 66.7H61.69" stroke="#004A9C" stroke-width="0.45"/>
<path d="M61.69 66.7C63.1887 66.6948 64.6248 66.0985 65.6865 65.0406C66.7481 63.9827 67.3495 62.5487 67.36 61.05" stroke="#004A9C" stroke-width="0.45"/>
<path d="M67.35 61.05V5.91998" stroke="#004A9C" stroke-width="0.45"/>
<path d="M67.36 5.91998C67.3574 4.41517 66.7598 2.97243 65.6976 1.90649C64.6354 0.840554 63.1948 0.237898 61.69 0.22998" stroke="#004A9C" stroke-width="0.45"/>
<path d="M61.69 0.22998H5.89001" stroke="#004A9C" stroke-width="0.45"/>
<path d="M5.89001 0.22998C4.38614 0.23791 2.94656 0.840942 1.88596 1.90717C0.825354 2.97339 0.22999 4.41608 0.230011 5.91998" stroke="#004A9C" stroke-width="0.45"/>
<path d="M0.230011 5.91998V61.06" stroke="#004A9C" stroke-width="0.45"/>
<path d="M43.1 11.2H37.32C37.1666 11.2361 37.0274 11.3173 36.9205 11.4332C36.8136 11.549 36.7438 11.6942 36.72 11.85C36.7097 12.0124 36.7505 12.1739 36.8365 12.312C36.9226 12.4501 37.0497 12.5577 37.2 12.62L40.85 13.1C41.1214 13.1348 41.3971 13.1134 41.6599 13.0373C41.9228 12.9612 42.1672 12.832 42.3781 12.6577C42.5891 12.4833 42.7619 12.2675 42.8861 12.0237C43.0103 11.7798 43.0831 11.5131 43.1 11.24" fill="white"/>
<path d="M54.12 7.92999V58.99H62.12V8.13999" fill="white"/>
<path d="M5.45001 7.92999V58.99H13.45V8.13999" fill="white"/>
<path d="M21.03 33.48V34.48H19.9V34.72C19.8919 35.4197 20 36.1158 20.22 36.78C20.3764 37.3507 20.7309 37.847 21.22 38.18C21.0921 38.2872 20.9838 38.4157 20.9 38.56C20.7879 38.6829 20.7058 38.8301 20.66 38.99C20.3689 38.6988 20.1289 38.3608 19.95 37.99C19.7397 37.5509 19.5981 37.0821 19.53 36.6C19.4515 37.0835 19.2998 37.5522 19.08 37.99C18.8947 38.4043 18.6296 38.7781 18.3 39.09C18.2186 38.9393 18.125 38.7955 18.02 38.66C17.9264 38.5229 17.8192 38.3956 17.7 38.28C18.1985 37.8876 18.5677 37.3546 18.76 36.75C19.0219 36.116 19.1545 35.436 19.15 34.75V34.51H18.05V33.51M22.28 32.93C22.28 32.93 22.28 33.03 22.28 33.18V33.31V33.51V36.05H22.98V37H22.28V40.07H21.5V32.88H21.92C22.0644 32.8852 22.2082 32.9019 22.35 32.93" fill="white"/>
<path d="M27.17 36.32H27.28L27.17 36.47M27.17 38.86H28.83V39.86H27.17V38.86ZM27.17 35.41H27.95V38.05H28.76V33.32L28.83 33.17C28.8511 33.1335 28.8622 33.0921 28.8622 33.05C28.8622 33.0079 28.8511 32.9665 28.83 32.93C28.7021 32.8996 28.5714 32.8828 28.44 32.88H27.99V34.56H27.21L27.17 35.41ZM27.17 33.21V34.21H26.17V34.44C26.1383 34.8421 26.2326 35.2441 26.44 35.59C26.602 35.9164 26.8603 36.1851 27.18 36.36V36.51C27.18 36.6 27.08 36.69 27.04 36.79L26.83 37.23C26.5599 37.058 26.3339 36.8251 26.17 36.55C25.9603 36.3209 25.8123 36.0421 25.74 35.74C25.6342 36.0139 25.493 36.2727 25.32 36.51C25.0773 36.7791 24.8057 37.0205 24.51 37.23C24.44 37.13 24.34 36.98 24.26 36.84C24.1826 36.6943 24.0772 36.5652 23.95 36.46C24.1534 36.3998 24.3435 36.3013 24.51 36.17C24.6807 36.0275 24.8349 35.8666 24.97 35.69C25.0999 35.5157 25.2042 35.3237 25.28 35.12C25.3405 34.9491 25.3775 34.7709 25.39 34.59V34.21H24.34V33.21H27.17ZM27.17 34.5H27.07V35.41H27.17V34.5ZM27.17 38.86V39.86H24.67V37.56H25.13C25.2498 37.5497 25.3702 37.5497 25.49 37.56C25.49 37.56 25.49 37.65 25.49 37.75C25.49 37.85 25.49 37.85 25.49 37.89V38.89L27.17 38.86Z" fill="white"/>
<path d="M42.18 36.32H42.29L42.18 36.47M42.18 38.86H43.84V39.86H42.18V38.86ZM42.18 35.41H42.96V38.05H43.76V33.32L43.84 33.17C43.8611 33.1335 43.8722 33.0921 43.8722 33.05C43.8722 33.0079 43.8611 32.9665 43.84 32.93C43.7152 32.9012 43.588 32.8845 43.46 32.88H43V34.56H42.22L42.18 35.41ZM42.18 33.21V34.21H41.18V34.44C41.1552 34.8428 41.2528 35.2437 41.46 35.59C41.6221 35.9164 41.8803 36.1851 42.2 36.36V36.51C42.2 36.6 42.1 36.69 42.06 36.79L41.85 37.23C41.577 37.0583 41.3476 36.8255 41.18 36.55C40.9766 36.3179 40.8325 36.04 40.76 35.74C40.6542 36.0139 40.5129 36.2727 40.34 36.51C40.0973 36.7791 39.8257 37.0205 39.53 37.23C39.4342 37.1084 39.3505 36.9778 39.28 36.84C39.2026 36.6943 39.0972 36.5652 38.97 36.46C39.1725 36.3977 39.3622 36.2994 39.53 36.17C39.703 36.0301 39.8576 35.8688 39.99 35.69C40.1199 35.5157 40.2243 35.3237 40.3 35.12C40.3656 34.9506 40.4028 34.7715 40.41 34.59V34.21H39.35V33.21H42.18ZM42.18 34.5H42.08V35.41H42.18V34.5ZM42.18 38.86V39.86H39.68V37.56H40.14C40.2564 37.5484 40.3736 37.5484 40.49 37.56C40.49 37.56 40.49 37.65 40.49 37.75C40.49 37.85 40.49 37.85 40.49 37.89V38.89L42.18 38.86Z" fill="white"/>
<path d="M32.88 33.48C32.9168 34.6528 32.7371 35.8223 32.35 36.93C31.9606 37.7567 31.3979 38.49 30.7 39.08C30.59 38.94 30.52 38.75 30.42 38.6C30.32 38.45 30.2 38.32 30.1 38.17C30.4156 38.0379 30.7004 37.8417 30.9362 37.5939C31.1721 37.346 31.3538 37.0518 31.47 36.73C31.8334 36.0186 32.0154 35.2286 32 34.43H30.34V33.43M34.75 32.85H34.88V32.95V33.1V33.23V39.99H34.07V36.4H33.16V35.4H34.07V32.76H34.46C34.5693 32.747 34.6799 32.7643 34.78 32.81" fill="white"/>
<path d="M44.96 36.8401V35.94H46.25V35.11C46.0299 35.0117 45.8349 34.8647 45.68 34.68C45.58 34.5606 45.5093 34.4196 45.4735 34.268C45.4377 34.1165 45.4377 33.9587 45.4737 33.8072C45.5096 33.6557 45.5804 33.5147 45.6805 33.3954C45.7805 33.2761 45.9071 33.1818 46.05 33.12C46.49 32.8564 46.9976 32.7278 47.51 32.75C48.0308 32.7258 48.5477 32.8507 49 33.11C49.1672 33.2042 49.3069 33.3406 49.4052 33.5055C49.5034 33.6704 49.5568 33.8581 49.56 34.05C49.5667 34.2766 49.4962 34.4988 49.36 34.68C49.2107 34.8729 49.0144 35.0244 48.79 35.12V35.94H50.07V36.8401M49.07 37.5901C49.241 37.6934 49.3813 37.8406 49.4763 38.0164C49.5712 38.1923 49.6174 38.3904 49.61 38.5901C49.6059 38.7808 49.5543 38.9674 49.4601 39.1333C49.3658 39.2991 49.2317 39.4389 49.07 39.54C48.5933 39.7956 48.0609 39.9293 47.52 39.9293C46.9792 39.9293 46.4467 39.7956 45.97 39.54C45.8011 39.4344 45.6625 39.2867 45.5678 39.1114C45.4732 38.9361 45.4257 38.7392 45.43 38.54C45.4216 38.3413 45.4663 38.1439 45.5594 37.9682C45.6526 37.7924 45.7908 37.6446 45.96 37.54C46.4279 37.2641 46.9679 37.1352 47.51 37.17C48.0569 37.1316 48.6021 37.2645 49.07 37.55M46.67 38.12C46.46 38.22 46.36 38.34 46.36 38.5C46.36 38.66 46.46 38.79 46.67 38.89C46.9348 39.0038 47.2222 39.055 47.51 39.04C47.8042 39.0539 48.0979 39.0028 48.37 38.89C48.57 38.78 48.67 38.65 48.67 38.51C48.6633 38.4229 48.6313 38.3397 48.578 38.2704C48.5248 38.2012 48.4525 38.1489 48.37 38.12C48.0979 38.0073 47.8042 37.9561 47.51 37.9701C47.2222 37.955 46.9348 38.0063 46.67 38.12ZM46.67 33.64C46.45 33.73 46.34 33.85 46.34 33.99C46.34 34.13 46.45 34.26 46.66 34.36C46.9214 34.4604 47.2001 34.508 47.48 34.5C47.7658 34.5122 48.0512 34.468 48.32 34.37C48.54 34.28 48.64 34.16 48.64 34C48.64 33.84 48.53 33.73 48.31 33.64C48.0464 33.535 47.7635 33.4873 47.48 33.5C47.2031 33.488 46.9268 33.5357 46.67 33.64ZM47.98 35.29H47.74H47.24H47.01V35.9H48.01L47.98 35.29Z" fill="white"/>
<path d="M43.9 16.72C43.2848 16.7211 42.6727 16.8052 42.08 16.97L40.94 14.47V14.41C40.8894 14.2535 40.7905 14.1169 40.6576 14.0199C40.5247 13.9229 40.3646 13.8704 40.2 13.87H29.35L31.05 10.35H33.92C33.9721 10.3513 34.0239 10.3422 34.0723 10.3232C34.1208 10.3042 34.165 10.2757 34.2023 10.2394C34.2396 10.203 34.2692 10.1595 34.2894 10.1115C34.3096 10.0636 34.32 10.0121 34.32 9.96V8.72996C34.32 8.62387 34.2779 8.52214 34.2029 8.44712C34.1278 8.37211 34.0261 8.32999 33.92 8.32999H30.33C30.1726 8.31922 30.0155 8.35522 29.8785 8.43351C29.7414 8.5118 29.6306 8.62889 29.56 8.77L25.73 16.77V16.86C24.0492 16.3498 22.2376 16.495 20.6595 17.2663C19.0815 18.0377 17.854 19.3779 17.2239 21.0175C16.5939 22.6571 16.6081 24.4744 17.2636 26.104C17.9191 27.7336 19.1673 29.0546 20.7572 29.8012C22.3471 30.5479 24.1608 30.6649 25.8334 30.1286C27.506 29.5923 28.9135 28.4426 29.7729 26.9107C30.6322 25.3788 30.8797 23.5783 30.4654 21.8713C30.0512 20.1644 29.006 18.6776 27.54 17.71V17.65L28.37 15.92H39.37L40.22 17.8C38.8022 18.6843 37.7517 20.0512 37.2619 21.6488C36.7721 23.2464 36.8761 24.9672 37.5546 26.4942C38.2332 28.0212 39.4407 29.2516 40.9547 29.9588C42.4687 30.666 44.1872 30.8023 45.7937 30.3427C47.4002 29.8831 48.7866 28.8584 49.6975 27.4574C50.6083 26.0565 50.9823 24.3736 50.7505 22.7188C50.5188 21.0639 49.6969 19.5486 48.4362 18.4518C47.1755 17.355 45.561 16.7506 43.89 16.75M28.71 23.48C28.71 24.4689 28.4168 25.4356 27.8674 26.2579C27.318 27.0801 26.537 27.721 25.6234 28.0994C24.7098 28.4778 23.7045 28.5768 22.7346 28.3839C21.7647 28.191 20.8737 27.7148 20.1745 27.0155C19.4752 26.3163 18.999 25.4253 18.8061 24.4554C18.6132 23.4855 18.7122 22.4802 19.0906 21.5666C19.469 20.6529 20.1099 19.872 20.9322 19.3226C21.7544 18.7732 22.7211 18.48 23.71 18.48C24.1107 18.4809 24.51 18.5279 24.9 18.62L22.79 23.12C22.676 23.3626 22.663 23.6407 22.7539 23.8929C22.8449 24.1452 23.0323 24.351 23.275 24.465C23.5177 24.579 23.7957 24.592 24.0479 24.501C24.3002 24.4101 24.506 24.2226 24.62 23.98L26.72 19.49C27.341 19.9557 27.845 20.5597 28.1921 21.2539C28.5393 21.9482 28.72 22.7137 28.72 23.49M43.9 28.68C42.8317 28.687 41.7893 28.3516 40.9255 27.7231C40.0617 27.0945 39.4219 26.2058 39.0999 25.1872C38.7778 24.1686 38.7905 23.0737 39.1361 22.0628C39.4816 21.052 40.1419 20.1783 41.02 19.57L43.09 24.12C43.1987 24.3653 43.4005 24.5574 43.6509 24.654C43.9012 24.7506 44.1797 24.7437 44.425 24.635C44.6703 24.5262 44.8624 24.3245 44.959 24.0741C45.0556 23.8238 45.0487 23.5453 44.94 23.3L42.88 18.77C43.2087 18.6991 43.5438 18.6623 43.88 18.66C45.2061 18.66 46.4778 19.1867 47.4155 20.1244C48.3532 21.0621 48.88 22.3339 48.88 23.66C48.88 24.9861 48.3532 26.2579 47.4155 27.1955C46.4778 28.1332 45.2061 28.66 43.88 28.66" fill="white"/>
<path d="M33.75 58.98L42.44 50.77C42.44 50.77 43.16 49.13 40.44 49.5C37.72 49.87 37.05 49.99 37.05 49.99V42.32H30.57V49.98L26.57 49.32C26.57 49.32 24.24 49.06 25.1 50.7" fill="white"/>
</g>
<defs>
<clipPath id="clip0_8063_7201">
<rect width="67.58" height="66.92" fill="white"/>
</clipPath>
</defs>
</svg>
