<svg width="71" height="71" viewBox="0 0 71 71" fill="none" xmlns="http://www.w3.org/2000/svg">
<g clip-path="url(#clip0_8072_574)">
<path d="M5.84 70.4001C5.1037 70.4094 4.37294 70.2717 3.6906 69.9948C3.00827 69.718 2.38809 69.3076 1.86648 68.7878C1.34486 68.2681 0.932288 67.6494 0.65299 66.968C0.373691 66.2867 0.233286 65.5564 0.240003 64.8201" stroke="#231F20" stroke-width="0.49" stroke-linecap="round" stroke-linejoin="round"/>
<path d="M0.25 64.7901V5.83008" stroke="#231F20" stroke-width="0.49" stroke-linecap="round" stroke-linejoin="round"/>
<path d="M0.240002 5.83C0.247553 4.36184 0.816423 2.95217 1.83 1.89C2.35463 1.36431 2.97826 0.947806 3.66484 0.664594C4.35141 0.381383 5.08731 0.237116 5.83 0.240034" stroke="#231F20" stroke-width="0.49" stroke-linecap="round" stroke-linejoin="round"/>
<path d="M5.85 0.23999H65" stroke="#231F20" stroke-width="0.49" stroke-linecap="round" stroke-linejoin="round"/>
<path d="M65 0.23999C66.4793 0.247815 67.8962 0.837579 68.9441 1.88177C69.992 2.92597 70.5869 4.34064 70.6 5.81995" stroke="#231F20" stroke-width="0.49" stroke-linecap="round" stroke-linejoin="round"/>
<path d="M70.6 5.83008V64.7901" stroke="#231F20" stroke-width="0.49" stroke-linecap="round" stroke-linejoin="round"/>
<path d="M70.59 64.79C70.5937 65.5224 70.4495 66.248 70.1659 66.9233C69.8824 67.5987 69.4654 68.2098 68.94 68.72C68.4177 69.2489 67.7945 69.6674 67.1074 69.9509C66.4203 70.2343 65.6833 70.3768 64.94 70.37" stroke="#231F20" stroke-width="0.49" stroke-linecap="round" stroke-linejoin="round"/>
<path d="M65 70.3701H5.85" stroke="#231F20" stroke-width="0.49" stroke-linecap="round" stroke-linejoin="round"/>
<path d="M5.84 68.25C4.91398 68.2559 4.02294 67.8966 3.36 67.25C2.69748 66.5968 2.317 65.7102 2.3 64.78" stroke="#231F20" stroke-width="0.49" stroke-linecap="round" stroke-linejoin="round"/>
<path d="M2.3 64.7901V5.83008" stroke="#231F20" stroke-width="0.49" stroke-linecap="round" stroke-linejoin="round"/>
<path d="M2.3 5.83011C2.32524 4.91338 2.70524 4.04224 3.36 3.40012C3.68702 3.07814 4.0745 2.82406 4.50012 2.65243C4.92574 2.48081 5.38111 2.39504 5.84 2.40011" stroke="#231F20" stroke-width="0.49" stroke-linecap="round" stroke-linejoin="round"/>
<path d="M5.85 2.36011H65" stroke="#231F20" stroke-width="0.49" stroke-linecap="round" stroke-linejoin="round"/>
<path d="M65 2.40003C65.4575 2.39329 65.9118 2.47846 66.3358 2.65046C66.7599 2.82245 67.1451 3.0778 67.4687 3.40137C67.7922 3.72494 68.0476 4.11014 68.2196 4.53418C68.3916 4.95823 68.4767 5.41245 68.47 5.87" stroke="#231F20" stroke-width="0.49" stroke-linecap="round" stroke-linejoin="round"/>
<path d="M68.48 5.83008V64.7901" stroke="#231F20" stroke-width="0.49" stroke-linecap="round" stroke-linejoin="round"/>
<path d="M68.47 64.79C68.4754 65.2468 68.3892 65.6999 68.2166 66.1228C68.044 66.5457 67.7885 66.9297 67.465 67.2522C67.1416 67.5747 66.7569 67.8291 66.3335 68.0005C65.9101 68.1719 65.4567 68.2567 65 68.25" stroke="#231F20" stroke-width="0.49" stroke-linecap="round" stroke-linejoin="round"/>
<path d="M65 68.25H5.85" stroke="#231F20" stroke-width="0.49" stroke-linecap="round" stroke-linejoin="round"/>
<path d="M67.95 55.0901H2.84" stroke="#231F20" stroke-width="0.49" stroke-linecap="round" stroke-linejoin="round"/>
<path d="M25.72 59.2599V60.4H23.59V59.23M23.59 65.17V64.05C23.7017 64.0502 23.8109 64.0169 23.9036 63.9545C23.9962 63.8922 24.0681 63.8035 24.11 63.7C24.2436 63.4879 24.3099 63.2404 24.3 62.99C24.3002 62.7249 24.2349 62.4638 24.11 62.23C24.0573 62.1387 23.9815 62.0629 23.8902 62.0103C23.7989 61.9576 23.6954 61.9299 23.59 61.93V60.7599C23.8634 60.7641 24.1323 60.8302 24.3765 60.9531C24.6207 61.0761 24.8339 61.2528 25 61.47C25.3308 61.9 25.5102 62.4274 25.5102 62.97C25.5102 63.5126 25.3308 64.0399 25 64.47C24.8289 64.6772 24.6132 64.8433 24.3691 64.9558C24.125 65.0683 23.8587 65.1244 23.59 65.1199M23.59 57.47H24.88V58.65H23.59V57.47ZM29.43 57.24C29.43 57.24 29.43 57.35 29.43 57.47L29.37 57.66V66.53H28.07V62.4999H27.47V66.2599H26.13V57.4H27.01C27.31 57.4 27.42 57.4 27.48 57.47C27.54 57.54 27.55 57.47 27.48 57.65L27.42 57.8199V61.23H28.02V57.23H28.84C29.14 57.23 29.32 57.23 29.38 57.29M23.59 60.4H21.41V59.23H23.59V60.4ZM23.59 58.7H22.59V57.52H23.59V58.7ZM23.59 60.7599V61.93C23.4829 61.9281 23.3773 61.9549 23.2841 62.0077C23.1909 62.0604 23.1135 62.1372 23.06 62.23C22.9351 62.4638 22.8698 62.7249 22.87 62.99C22.8601 63.2404 22.9264 63.4879 23.06 63.7C23.1025 63.8051 23.1759 63.8949 23.2706 63.9574C23.3652 64.0199 23.4766 64.0522 23.59 64.05V65.17H23.52C23.2516 65.1723 22.986 65.1152 22.7422 65.0029C22.4984 64.8905 22.2825 64.7256 22.11 64.52C21.7945 64.073 21.6298 63.537 21.64 62.99C21.6209 62.4448 21.7865 61.9092 22.11 61.47C22.2682 61.2445 22.4798 61.0617 22.7258 60.9378C22.9718 60.8139 23.2447 60.7528 23.52 60.7599H23.59Z" fill="#231F20"/>
<path d="M46.66 58.02V59.26H46.59V58.02M46.59 63.73L46.95 64.08C46.83 64.2 46.71 64.3701 46.59 64.4901V63.73ZM46.59 61.73H47.3V66.4H48.59V57.81L48.65 57.64C48.6797 57.5956 48.6955 57.5435 48.6955 57.4901C48.6955 57.4367 48.6797 57.3844 48.65 57.34C48.4548 57.3074 48.2577 57.2874 48.06 57.28H47.35V60.45H46.59V61.73ZM50.37 57.32C50.43 57.32 50.43 57.44 50.37 57.56L50.31 57.73V66.61H49.01V57.26H49.84C50.14 57.26 50.31 57.26 50.37 57.32ZM46.59 59.26H45.36V59.85C45.3415 60.6673 45.4598 61.4818 45.71 62.26C45.8974 62.8061 46.1971 63.3069 46.59 63.73V64.4901V64.61C46.427 64.7533 46.3031 64.9357 46.23 65.14C45.8249 64.8544 45.501 64.4685 45.29 64.02C45.0331 63.5499 44.8733 63.033 44.82 62.5C44.6762 63.0191 44.4572 63.5144 44.17 63.97C43.8912 64.4388 43.5324 64.8551 43.11 65.2C42.9387 65.0587 42.7813 64.9013 42.64 64.73C42.512 64.5471 42.3529 64.388 42.17 64.26C42.8656 63.7583 43.3978 63.0626 43.7 62.26C44.0063 61.4758 44.1656 60.6419 44.17 59.8V59.21H42.81V57.97H46.59V59.26ZM46.59 60.4901H46.18V61.72H46.59V60.4901Z" fill="#231F20"/>
<path d="M2.55 49.7699L62.56 2.63989" stroke="#231F20" stroke-width="0.65" stroke-linecap="round" stroke-linejoin="round"/>
<path d="M2.76 52.69L66.17 3.21997" stroke="#231F20" stroke-width="0.65" stroke-linecap="round" stroke-linejoin="round"/>
<path d="M4.71 54.8101L68.09 5.08008" stroke="#231F20" stroke-width="0.65" stroke-linecap="round" stroke-linejoin="round"/>
<path d="M8.81 54.98L68.4 8.02002" stroke="#231F20" stroke-width="0.65" stroke-linecap="round" stroke-linejoin="round"/>
<path d="M16.3 40.7V49.01C16.3 50.2 16.88 50.38 17.65 50.46H53.19C54.19 50.31 54.46 50.2 54.46 48.61V40.56L36.09 8.71999C35.36 7.71999 34.52 7.95997 33.91 9.00997" fill="#0054A0"/>
<path d="M15.11 40.27V49.66" stroke="#0054A0" stroke-width="0.45"/>
<path d="M15.1 49.6599C15.28 51.0399 16.05 51.4299 17.39 51.4299" stroke="#0054A0" stroke-width="0.45"/>
<path d="M17.4 51.4399H54.43" stroke="#0054A0" stroke-width="0.45"/>
<path d="M54.43 51.4C55.3 51.21 55.74 50.99 55.74 49.29" stroke="#0054A0" stroke-width="0.45"/>
<path d="M55.74 49.33V40.27L36.46 6.76001" stroke="#0054A0" stroke-width="0.45"/>
<path d="M36.46 6.75992C36.2696 6.543 36.0295 6.37536 35.7603 6.27128C35.491 6.16719 35.2006 6.12979 34.9138 6.16221C34.627 6.19462 34.3522 6.29589 34.113 6.45743C33.8738 6.61898 33.6772 6.83599 33.54 7.08994" stroke="#0054A0" stroke-width="0.45"/>
<path d="M33.55 7.09009L15.11 40.2701" stroke="#0054A0" stroke-width="0.45"/>
<path d="M31.07 20.1801C30.63 20.6101 30.07 20.9801 30.78 22.4301C31.49 23.8801 31.14 23.5201 31.03 23.7701C30.92 24.0201 30.03 24.7701 29.91 25.3301C29.8131 26.0264 29.666 26.7149 29.47 27.3901C29.07 28.2301 27.14 28.9201 26.74 29.1401C26.5936 29.1982 26.4728 29.3067 26.3995 29.4461C26.3261 29.5855 26.305 29.7465 26.34 29.9001C26.45 30.0101 26.63 30.0801 27.14 29.9001C27.7043 29.6882 28.2917 29.5439 28.89 29.4701C29.0103 29.4866 29.1328 29.4681 29.2428 29.4166C29.3528 29.3652 29.4456 29.283 29.51 29.1801C29.69 28.9301 30.05 28.38 30.31 28.31C30.57 28.24 30.45 28.4901 30.42 28.6701C30.1869 29.4532 29.7604 30.165 29.18 30.7401C28.49 31.3201 29.11 31.4601 29.29 31.6101C29.47 31.7601 30.05 32.04 29.94 32.19C29.7579 32.6096 29.614 33.0447 29.51 33.4901C29.51 33.7901 29.43 35.3401 29.43 36.2101C29.4745 36.9179 29.2847 37.6208 28.89 38.2101C28.5781 38.4904 28.2436 38.7446 27.89 38.9701C27.75 39.0801 27.89 39.3001 28.04 39.4101C28.3452 39.5857 28.6882 39.6852 29.04 39.7001C29.36 39.7001 30.27 39.7701 30.04 39.0801C29.86 38.6101 30.11 38.4701 30.26 38.1701C30.563 37.4442 30.8071 36.6951 30.99 35.9301C30.9535 35.4544 30.9871 34.9759 31.09 34.5101C31.28 34.0801 32.09 32.59 32.44 32.63C32.79 32.67 32.99 33.1301 33.02 33.2401C33.05 33.3501 33.13 34.8401 33.24 35.0901C33.5032 35.6978 33.7969 36.2919 34.12 36.87C34.22 37.09 34.12 37.66 34.26 37.87C34.4 38.08 34.59 38.42 34.55 38.63C34.51 38.84 34.15 39.5701 34.41 39.7901C34.67 40.0101 34.95 39.7201 35.28 39.6101C35.61 39.5001 36.15 39.2101 35.93 38.6101C35.71 38.0101 35.75 38.3501 35.68 38.0301C35.57 37.4501 35.57 36.7601 35.39 36.1101C35.2078 35.4315 34.9874 34.7638 34.73 34.1101C34.7047 33.9974 34.705 33.8805 34.731 33.768C34.7569 33.6555 34.8079 33.5502 34.88 33.4601C35.28 32.9101 35.1 32.3301 35.39 32.0801C35.68 31.8301 36.01 31.9001 35.64 31.0301C35.43 30.3701 34.26 28.09 34.26 27.69C34.26 27.29 34.15 26.86 34.55 26.75C34.9512 26.7837 35.3355 26.9264 35.6616 27.1625C35.9876 27.3987 36.2429 27.7194 36.4 28.0901C36.4996 28.6792 36.4996 29.2809 36.4 29.87C36.3967 29.9772 36.4267 30.0828 36.4858 30.1723C36.5448 30.2619 36.6301 30.3309 36.73 30.37C36.91 30.48 37.53 30.5501 37.85 30.8501C37.9973 30.9921 38.1846 31.0855 38.3867 31.1177C38.5888 31.1498 38.7959 31.1193 38.98 31.0301C39.31 30.7801 39.98 30.0801 40.22 30.3001C40.35 30.4601 40.4404 30.6486 40.4839 30.8501C40.5273 31.0517 40.5226 31.2607 40.47 31.4601C40.4467 32.1826 40.3013 32.896 40.04 33.5701C39.6221 34.5216 39.3621 35.5349 39.27 36.5701C39.3193 37.12 39.2581 37.6742 39.09 38.2001C38.95 38.4901 38.55 38.6401 38.73 38.9601C38.909 39.1517 39.1512 39.2724 39.412 39.3C39.6728 39.3275 39.9349 39.2601 40.15 39.1101C40.73 38.7801 40.55 38.2701 40.51 37.9801C40.501 37.6268 40.538 37.2739 40.62 36.9301C40.62 36.7101 40.95 35.8101 40.95 35.5901C40.95 35.3701 41.2 34.5001 41.6 34.5401C42 34.5801 42 35.19 41.93 35.44C41.8855 35.9092 41.9867 36.3806 42.22 36.7901C42.5334 37.2574 42.7446 37.7855 42.84 38.3401C42.84 38.7801 42.76 39.4301 43.09 39.5401C43.42 39.6501 43.71 39.3601 44.09 38.8901C44.2207 38.6966 44.2905 38.4685 44.2905 38.2351C44.2905 38.0016 44.2207 37.7735 44.09 37.5801C43.8283 37.0765 43.6301 36.5425 43.5 35.9901C43.3492 35.1755 43.2755 34.3485 43.28 33.5201C43.2353 32.9498 43.1142 32.3881 42.92 31.8501C42.81 31.4901 42.67 30.5101 42.85 30.4001C43.03 30.2901 43.43 30.9101 43.65 31.2101C43.98 31.6701 43.54 32.3601 44.01 32.5401C44.48 32.7201 44.81 31.9601 44.81 31.6401C44.81 31.3201 44.45 30.0801 44.41 29.7901C44.2588 29.2066 43.9429 28.6789 43.5 28.2701C43.1 27.9401 42.23 27.2701 42.3 27.0301C42.4748 26.6373 42.5991 26.2241 42.67 25.8001C42.6838 25.4715 42.5763 25.1492 42.368 24.8948C42.1596 24.6403 41.8649 24.4713 41.54 24.4201C41.3952 24.3951 41.2467 24.4023 41.105 24.4412C40.9633 24.4801 40.8319 24.5498 40.7202 24.6453C40.6085 24.7408 40.5192 24.8597 40.4587 24.9936C40.3981 25.1275 40.3679 25.2732 40.37 25.4201C40.3401 25.8201 40.3773 26.2223 40.48 26.6101C40.56 26.8301 40.85 26.9701 40.59 27.2301C40.33 27.4901 40.12 27.3401 39.83 27.8401C39.54 28.3401 39.28 28.9301 39.14 29.1501C39 29.3701 38.7 29.7301 38.41 29.5501C38.1834 29.3943 37.9754 29.2131 37.79 29.0101C37.61 28.9301 37.65 28.4201 37.65 28.2101C37.4124 27.4608 37.0433 26.7599 36.56 26.1401C36.08 25.6701 35.56 24.7301 35.1 24.4701C34.64 24.2101 33.65 23.9601 33.54 23.7101C33.4668 23.5968 33.4279 23.4649 33.4279 23.3301C33.4279 23.1952 33.4668 23.0633 33.54 22.9501C33.9075 22.4345 34.1443 21.8374 34.23 21.2101C34.2006 20.7904 34.029 20.3933 33.7436 20.0843C33.4582 19.7752 33.076 19.5727 32.66 19.5101C32.3689 19.4758 32.074 19.5254 31.8101 19.6529C31.5461 19.7805 31.3241 19.9807 31.17 20.2301" fill="white"/>
<path d="M23.28 43.8199C23.5249 44.2876 23.6389 44.8128 23.61 45.34C23.6373 45.8702 23.5234 46.3981 23.28 46.8699C23.1808 47.0499 23.0364 47.2008 22.861 47.3078C22.6856 47.4148 22.4854 47.4742 22.28 47.48V46.7599C22.3766 46.7547 22.4693 46.7203 22.546 46.6614C22.6228 46.6026 22.6799 46.5219 22.71 46.43C22.8296 46.0797 22.8805 45.7096 22.86 45.34C22.8807 44.9736 22.8298 44.6068 22.71 44.2599C22.6799 44.168 22.6228 44.0873 22.546 44.0284C22.4693 43.9696 22.3766 43.9353 22.28 43.93V43.24C22.4833 43.2387 22.6831 43.2918 22.859 43.3938C23.0348 43.4958 23.1802 43.6429 23.28 43.8199ZM25.43 42.95C25.5 42.95 25.54 42.95 25.57 42.95V43.02V43.09C25.57 43.16 25.57 43.2 25.57 43.23V48.4H24.73V45.68H23.86V44.99H24.73V42.99H25.46L25.43 42.95ZM22.23 47.48C22.014 47.4871 21.8004 47.4338 21.6131 47.326C21.4258 47.2182 21.2723 47.0602 21.17 46.8699C20.9015 46.4067 20.7762 45.8743 20.81 45.34C20.7746 44.8086 20.9 44.2789 21.17 43.8199C21.2727 43.632 21.4272 43.4776 21.6151 43.3748C21.8029 43.272 22.0163 43.2252 22.23 43.24V43.93C22.1269 43.9286 22.026 43.9597 21.9416 44.0189C21.8572 44.0782 21.7937 44.1625 21.76 44.2599C21.6717 44.6128 21.6346 44.9766 21.65 45.34C21.6322 45.7067 21.6693 46.0742 21.76 46.43C21.7937 46.5275 21.8572 46.6118 21.9416 46.671C22.026 46.7303 22.1269 46.7614 22.23 46.7599V47.48Z" fill="white"/>
<path d="M30.81 48.21V47.52H31.28V48.21M30.81 46.9399V42.9399H30.88C31.1 42.9399 31.21 42.9399 31.25 42.9399C31.29 42.9399 31.25 42.94 31.25 43.04V43.15V46.89L30.81 46.9399ZM29.36 43.2V44.98H27.46V45.5599H27.68C27.983 45.5799 28.287 45.5799 28.59 45.5599C28.9543 45.5569 29.3182 45.5335 29.68 45.49L29.76 46.14L28.45 46.2499C28.09 46.2499 27.68 46.2499 27.25 46.2499H26.59V44.33H28.59V43.86H26.59V43.2H29.36ZM30.81 46.9399H30.38V42.9399H30.81V46.9399ZM30.81 47.52H27.81V46.9V46.79V46.68C27.81 46.61 27.81 46.54 27.81 46.54C27.81 46.54 27.66 46.54 27.44 46.54H26.97V48.2499H30.79L30.81 47.52Z" fill="white"/>
<path d="M34.59 43.8199C34.8463 44.2843 34.9708 44.81 34.95 45.34C34.9681 45.8729 34.8438 46.401 34.59 46.8699C34.4859 47.0565 34.3334 47.2116 34.1487 47.319C33.9639 47.4263 33.7537 47.4819 33.54 47.48V46.7599C33.6387 46.7626 33.7352 46.7314 33.8135 46.6713C33.8918 46.6112 33.9471 46.526 33.97 46.43C34.0896 46.0797 34.1405 45.7096 34.12 45.34C34.1407 44.9736 34.0898 44.6068 33.97 44.2599C33.9471 44.1639 33.8918 44.0788 33.8135 44.0187C33.7352 43.9586 33.6387 43.9273 33.54 43.93V43.2C33.7549 43.1979 33.9663 43.2546 34.1513 43.3638C34.3363 43.4731 34.488 43.6308 34.59 43.8199ZM36.88 42.99C36.88 42.99 36.88 42.99 36.88 43.09V43.2V48.4H36.08V42.9999H36.59C36.81 42.9999 36.92 42.9999 36.95 42.9999M33.59 47.48C33.3738 47.4883 33.1597 47.4355 32.9722 47.3276C32.7847 47.2197 32.6314 47.061 32.53 46.8699C32.2615 46.4067 32.1362 45.8743 32.17 45.34C32.1346 44.8086 32.26 44.2789 32.53 43.8199C32.6291 43.6262 32.7816 43.4649 32.9694 43.355C33.1572 43.2452 33.3726 43.1914 33.59 43.2V43.93C33.4897 43.9249 33.3907 43.9552 33.3103 44.0154C33.23 44.0757 33.1732 44.1622 33.15 44.2599C33.0302 44.6068 32.9793 44.9736 33 45.34C32.9795 45.7096 33.0304 46.0797 33.15 46.43C33.1732 46.5277 33.23 46.6142 33.3103 46.6745C33.3907 46.7348 33.4897 46.765 33.59 46.7599V47.48Z" fill="white"/>
<path d="M43.5 43.3099V43.4V43.48V46.05H41.79V46.1299V46.23V46.92H44.11V47.65H41.39V45.4H42.66V44.71H41.39V44.02H42.66V43.2499H43.13C43.2519 43.2234 43.3781 43.2234 43.5 43.2499M41.39 47.64H38.7V46.91H40.88V46.0099H39.28V43.21H39.79C39.97 43.21 40.08 43.21 40.11 43.21C40.14 43.21 40.11 43.2099 40.11 43.3199V43.9399H41.39V44.6299H40.11V45.4H41.39V47.64Z" fill="white"/>
<path d="M47.03 44.7301C47.4933 44.708 47.9554 44.7935 48.38 44.9801C48.5262 45.0369 48.6526 45.1354 48.7432 45.2634C48.8339 45.3914 48.885 45.5433 48.89 45.7001C48.8905 45.8362 48.8534 45.9699 48.7828 46.0864C48.7123 46.2028 48.6109 46.2975 48.49 46.3601C48.1593 46.5258 47.799 46.6244 47.43 46.6501V47.1601H49.69V47.8501H47V46.0701C47.2712 46.084 47.5426 46.0467 47.8 45.9601C47.8708 45.9564 47.9382 45.9286 47.9909 45.8813C48.0437 45.834 48.0787 45.77 48.09 45.7001C48.09 45.6001 47.98 45.4901 47.8 45.4201C47.543 45.332 47.2713 45.2946 47 45.3101M47 43.9601H49.33V44.5801H47V43.9601ZM47 43.0601H48.12V43.6701H47V43.0601ZM46.6 47.1601V46.6501C46.2499 46.6359 45.9063 46.5509 45.59 46.4001C45.4643 46.3395 45.3572 46.2463 45.2798 46.1302C45.2024 46.0141 45.1576 45.8794 45.15 45.7401C45.15 45.4201 45.34 45.2001 45.7 45.0201C46.1236 44.8303 46.5865 44.7445 47.05 44.7701V45.3501C46.7788 45.3361 46.5074 45.3735 46.25 45.4601C46.07 45.5301 45.99 45.6401 45.99 45.7401C45.9947 45.8075 46.0235 45.871 46.0713 45.9188C46.1191 45.9665 46.1826 45.9954 46.25 46.0001C46.5085 46.0816 46.779 46.1189 47.05 46.1101V47.8901H44.43V47.2001L46.6 47.1601ZM47 43.6701H45.9V43.0601H47V43.6701ZM47 44.5801H44.7V43.9601H47V44.5801Z" fill="white"/>
</g>
<defs>
<clipPath id="clip0_8072_574">
<rect width="70.85" height="70.61" fill="white"/>
</clipPath>
</defs>
</svg>
