<svg width="69" height="69" viewBox="0 0 69 69" fill="none" xmlns="http://www.w3.org/2000/svg">
<g clip-path="url(#clip0_8068_5358)">
<path d="M34.54 68.7201C27.7429 68.7023 21.1036 66.6701 15.461 62.8802C9.81846 59.0904 5.42592 53.713 2.83846 47.4276C0.251001 41.1422 -0.415352 34.2308 0.923787 27.5669C2.26293 20.9029 5.54745 14.7855 10.3621 9.98753C15.1768 5.1896 21.3056 1.92653 27.9742 0.610635C34.6428 -0.705257 41.5519 -0.0149097 47.8282 2.59445C54.1046 5.20382 59.4665 9.61508 63.2367 15.2708C67.0068 20.9266 69.0159 27.5729 69.01 34.3701C68.9782 43.4913 65.3326 52.2281 58.8717 58.6665C52.4107 65.105 43.6613 68.7202 34.54 68.7201ZM34.54 0.410104C27.8353 0.423951 21.2849 2.4239 15.7159 6.15749C10.1469 9.89109 5.80887 15.1909 3.24947 21.388C0.690071 27.585 0.0239811 34.4014 1.33541 40.9766C2.64684 47.5519 5.8769 53.5912 10.6179 58.3322C15.3589 63.0731 21.3982 66.3032 27.9735 67.6146C34.5487 68.9261 41.3651 68.26 47.5621 65.7006C53.7591 63.1412 59.059 58.8032 62.7926 53.2342C66.5262 47.6652 68.5262 41.1148 68.54 34.4101C68.5162 25.4037 64.9252 16.7736 58.5529 10.4089C52.1807 4.04418 43.5464 0.463299 34.54 0.450105V0.410104Z" fill="#CF1F25"/>
<path d="M34.5401 1.6299C28.0674 1.64571 21.7447 3.57914 16.3701 7.18603C10.9956 10.7929 6.81031 15.9115 4.34292 21.8954C1.87554 27.8793 1.23673 34.4602 2.50699 40.807C3.77724 47.1538 6.89967 52.9818 11.48 57.5552C16.0603 62.1286 21.8931 65.2421 28.2418 66.5027C34.5906 67.7633 41.1704 67.1143 47.1505 64.6378C53.1307 62.1613 58.2429 57.9683 61.8416 52.5883C65.4403 47.2083 67.3641 40.8825 67.37 34.4099C67.3674 30.1017 66.5161 25.8362 64.8647 21.8571C63.2132 17.878 60.7942 14.2631 57.7455 11.2191C54.6968 8.17507 51.0783 5.76146 47.0967 4.11612C43.1151 2.47078 38.8483 1.62596 34.5401 1.6299ZM34.5401 59.9099C29.492 59.898 24.5608 58.3899 20.3697 55.5761C16.1785 52.7623 12.9157 48.7691 10.9934 44.1014C9.07122 39.4336 8.57594 34.3007 9.57022 29.3515C10.5645 24.4023 13.0037 19.859 16.5795 16.2958C20.1553 12.7325 24.7072 10.3093 29.6598 9.33251C34.6125 8.35567 39.7436 8.86902 44.4046 10.8077C49.0655 12.7463 53.0472 16.0233 55.8462 20.2243C58.6452 24.4253 60.136 29.3618 60.13 34.4099C60.1141 41.1836 57.4102 47.674 52.612 52.4554C47.8138 57.2367 41.3138 59.9179 34.5401 59.9099Z" fill="#CF1F25"/>
<path d="M29.13 26.9501V26.8001H19.81V22.6001H33.2201V26.8701L25.2201 47.2201H21.15L29.13 26.9501Z" fill="#231F20"/>
<path d="M37.12 46.08C35.8718 44.8945 34.9785 43.3847 34.54 41.72C33.3266 37.2408 33.3266 32.5193 34.54 28.04C34.9986 26.3809 35.9091 24.8819 37.17 23.71C38.3117 22.7476 39.7568 22.2197 41.25 22.2197C42.7432 22.2197 44.1884 22.7476 45.3301 23.71C46.5857 24.8861 47.4952 26.3836 47.9601 28.04C48.6207 30.2549 48.9311 32.5594 48.88 34.87C48.9318 37.1867 48.6249 39.4973 47.9701 41.72C47.5142 43.3775 46.6031 44.874 45.3401 46.04C44.1918 46.9966 42.7445 47.5205 41.25 47.5205C39.7555 47.5205 38.3083 46.9966 37.16 46.04L37.12 46.08ZM43.12 42.41C43.7604 41.5823 44.1895 40.6109 44.37 39.58C44.6861 38.0443 44.827 36.4776 44.79 34.91C44.8178 33.349 44.6735 31.7896 44.36 30.26C44.175 29.2244 43.7465 28.2476 43.11 27.41C42.8861 27.1158 42.5972 26.8772 42.2659 26.713C41.9345 26.5487 41.5698 26.4633 41.2001 26.4633C40.8303 26.4633 40.4655 26.5487 40.1341 26.713C39.8028 26.8772 39.5139 27.1158 39.29 27.41C38.6574 28.2499 38.2294 29.2258 38.04 30.26C37.7138 31.7879 37.5628 33.348 37.5901 34.91C37.5636 36.4782 37.7111 38.0444 38.03 39.58C38.2147 40.6097 38.6433 41.5801 39.28 42.41C39.5071 42.7028 39.7983 42.9398 40.1311 43.1028C40.4639 43.2658 40.8295 43.3506 41.2001 43.3506C41.5706 43.3506 41.9362 43.2658 42.269 43.1028C42.6018 42.9398 42.8928 42.7028 43.12 42.41Z" fill="#231F20"/>
</g>
<defs>
<clipPath id="clip0_8068_5358">
<rect width="68.98" height="68.77" fill="white"/>
</clipPath>
</defs>
</svg>
