<svg width="67" height="67" viewBox="0 0 67 67" fill="none" xmlns="http://www.w3.org/2000/svg">
<g clip-path="url(#clip0_8063_7138)">
<path d="M33.2 66.1C39.7128 66.0881 46.0759 64.1459 51.4852 60.5187C56.8945 56.8916 61.1071 51.7423 63.5908 45.7217C66.0744 39.7011 66.7176 33.0794 65.4391 26.6933C64.1605 20.3073 61.0174 14.4436 56.4073 9.84324C51.7972 5.2429 45.9268 2.1124 39.5381 0.847388C33.1493 -0.417624 26.529 0.239623 20.5136 2.73606C14.4983 5.2325 9.35805 9.45606 5.7424 14.873C2.12676 20.29 0.198078 26.6572 0.200044 33.17C0.218584 41.91 3.70354 50.2857 9.89023 56.4593C16.0769 62.6328 24.46 66.1 33.2 66.1Z" stroke="#004A9C" stroke-width="0.45"/>
<path d="M1.58003 33.17C1.5642 26.9031 3.40849 20.7726 6.87947 15.5547C10.3504 10.3369 15.2919 6.26653 21.078 3.85916C26.864 1.4518 33.2342 0.815724 39.382 2.03153C45.5298 3.24733 51.1786 6.26028 55.6127 10.6888C60.0469 15.1174 63.067 20.7622 64.2906 26.9085C65.5142 33.0547 64.8862 39.4259 62.4862 45.2149C60.0861 51.004 56.022 55.9506 50.8085 59.4281C45.5951 62.9057 39.4669 64.7579 33.2 64.75C24.82 64.7526 16.7818 61.4276 10.8525 55.5058C4.92316 49.5839 1.58798 41.55 1.58003 33.17Z" fill="#004A9C"/>
<path d="M48.23 53.03V24.92C48.23 14.28 39.9001 10.26 32.4501 10.26C25.0001 10.26 19.0601 17.59 19.0601 23.51V37.84C19.0601 38.59 18.62 39.14 17.86 38.59C17.1 38.04 15.86 36.37 14.26 37.73C12.66 39.09 14.15 40.38 14.38 40.93L23.38 54.28L31.9201 39.73C32.6401 38.73 32.9201 36.73 30.8401 36.73C29.5801 36.73 28.8401 37.44 28.0601 37.66C27.2801 37.88 26.7001 37.66 26.5901 36.95C26.4801 36.24 26.5901 23.87 26.5901 23.87C26.5901 20.73 30.07 18.18 33.4 18.18C36.73 18.18 40.53 21.18 40.53 24.53V53.07" fill="white"/>
</g>
<defs>
<clipPath id="clip0_8063_7138">
<rect width="66.49" height="66.33" fill="white"/>
</clipPath>
</defs>
</svg>
