<svg width="75" height="25" viewBox="0 0 75 25" fill="none" xmlns="http://www.w3.org/2000/svg">
<g clip-path="url(#clip0_8063_8373)">
<path d="M28.3113 24.1936V1.32568C28.3113 1.10694 27.7571 1.32568 27.7571 1.32568C27.5337 1.51016 26.931 1.26243 26.931 1.26243C26.105 0.798589 25.7875 0.90665 25.7875 0.90665V24.7655C26.1516 24.6691 26.4958 24.5112 26.8046 24.299C27.1775 24.1429 27.5972 24.1326 27.9777 24.27C27.9777 24.27 28.2952 24.2858 28.3113 24.1936Z" fill="#F8B500"/>
<path d="M28.3113 24.1936V1.32568C28.3113 1.10694 27.7571 1.32568 27.7571 1.32568C27.5337 1.51016 26.931 1.26243 26.931 1.26243C26.105 0.798589 25.7875 0.90665 25.7875 0.90665V24.7655C26.1516 24.6691 26.4958 24.5112 26.8046 24.299C27.1775 24.1429 27.5972 24.1326 27.9777 24.27C27.9777 24.27 28.2952 24.2753 28.3113 24.1936Z" stroke="#231916" stroke-width="0.49"/>
<path d="M64.2534 24.0592V0.925054C64.2534 0.867074 63.6803 1.03576 63.6803 1.03576C63.4099 1.09204 63.1321 1.10716 62.857 1.08057C62.4659 0.992481 62.0873 0.857951 61.7296 0.679974L61.6812 23.872C61.9636 23.6384 62.3136 23.4974 62.6821 23.4688C63.1307 23.5866 63.5627 23.7583 63.9682 23.9801C63.9682 23.9801 64.2212 24.1514 64.2534 24.0592Z" fill="#F8B500"/>
<path d="M64.2534 24.0592V0.925054C64.2534 0.867074 63.6803 1.03576 63.6803 1.03576C63.4099 1.09204 63.1321 1.10716 62.857 1.08057C62.4659 0.992481 62.0873 0.857951 61.7296 0.679974L61.6812 23.872C61.9636 23.6384 62.3136 23.4974 62.6821 23.4688C63.1307 23.5866 63.5627 23.7583 63.9682 23.9801C63.9682 23.9801 64.2212 24.1514 64.2534 24.0592Z" stroke="#231916" stroke-width="0.49"/>
<path d="M69.0402 23.7639V0.787945C68.8975 0.61664 68.4859 0.787945 68.4859 0.787945L67.6598 0.959257C67.2967 1.07743 66.9147 1.13013 66.5324 1.11477V23.3317C66.5324 23.3317 67.0867 23.6111 67.5334 23.8904C67.5334 23.8904 67.8347 24.1382 68.7065 23.9669C68.7065 23.9669 69.024 23.843 69.0402 23.7507" fill="#F8B500"/>
<path d="M69.0402 23.7639V0.787945C68.8975 0.61664 68.4859 0.787945 68.4859 0.787945L67.6598 0.959257C67.2967 1.07743 66.9147 1.13013 66.5324 1.11477V23.3317C66.5324 23.3317 67.0867 23.6111 67.5334 23.8904C67.5334 23.8904 67.8347 24.1382 68.7065 23.9669C68.6958 23.98 69.0132 23.8562 69.0402 23.7639Z" stroke="#231916" stroke-width="0.49"/>
<path d="M74.9327 24.4781V0.927655" stroke="#231916" stroke-width="0.49"/>
<path d="M58.6514 23.1604V-4.66761e-05" stroke="#231916" stroke-width="0.49"/>
<path d="M58.6514 23.2685C59.4748 23.3449 60.0183 24.4149 60.7771 24.3385C61.5358 24.2621 61.9367 23.5478 62.4749 23.4688C63.013 23.3897 63.8552 24.1356 64.3314 24.0723C64.8077 24.0091 65.6337 23.3449 66.3172 23.3449C67.0006 23.3449 67.2697 24.0723 68.0284 24.0723C68.7872 24.0723 69.7424 23.4688 70.2187 23.4688C70.6949 23.4688 70.9667 24.2752 71.6474 24.2146C72.6785 24.0206 73.7444 24.1119 74.7255 24.4781" stroke="#231916" stroke-width="0.49"/>
<path d="M58.7133 0.210823C59.2703 0.0711435 59.3349 0.53498 59.8891 0.53498C60.4434 0.53498 61.3179 0.271436 61.9367 0.735278C62.5556 1.19912 63.3655 1.21758 64.3315 0.877603C65.2974 0.537628 65.7602 0.877603 66.1746 1.07526C66.5889 1.27292 67.5549 1.07526 68.0284 0.877603C68.502 0.679943 69.7424 0.735293 70.4259 1.01465C71.1093 1.29401 72.2017 1.40206 72.8851 1.01465C73.5686 0.627239 74.33 0.611426 74.9327 1.2782" stroke="#231916" stroke-width="0.49"/>
<path d="M55.907 23.7957V1.12804" stroke="#231916" stroke-width="0.49"/>
<path d="M39.6256 23.7034V0.527108" stroke="#231916" stroke-width="0.49"/>
<path d="M36.2623 24.5098V1.00671" stroke="#231916" stroke-width="0.49"/>
<path d="M20.0429 24.3069V1.00412" stroke="#231916" stroke-width="0.49"/>
<path d="M16.5531 24.5098V1.00671" stroke="#231916" stroke-width="0.49"/>
<path d="M0.0645752 24.075V1.00675" stroke="#231916" stroke-width="0.49"/>
<path d="M39.6902 0.925025C40.5781 1.79473 41.6732 1.59181 42.7683 0.867053C43.8635 0.142301 44.0061 0.603512 44.5442 1.0041C44.8207 1.17939 45.1431 1.27263 45.4725 1.27263C45.8019 1.27263 46.1242 1.17939 46.4008 1.0041C46.6278 0.838534 46.9034 0.749113 47.1864 0.749113C47.4695 0.749113 47.7451 0.838534 47.9721 1.0041C48.4484 1.3309 49.9552 1.39151 50.4314 1.06471C50.9077 0.737915 51.8117 0.925038 52.4144 1.26765C53.0171 1.61026 53.2405 1.33089 53.7167 1.12796C54.0119 1.04287 54.3215 1.01701 54.6271 1.05188C54.9327 1.08674 55.228 1.18164 55.4953 1.3309" stroke="#231916" stroke-width="0.49"/>
<path d="M39.6902 23.4029C40.2445 23.9458 41.1943 24.8735 42.354 24.2094C43.5137 23.5452 43.7343 23.6032 44.2106 23.8061C44.6868 24.0091 45.8465 24.3332 46.4627 23.8668C47.0788 23.4003 48.0367 23.4635 48.6556 23.8061C49.2744 24.1488 50.3049 24.3332 50.8431 24.0697C51.3812 23.8061 52.7642 23.9485 53.3024 24.1329C53.8405 24.3174 55.4307 24.3359 55.8424 23.6691" stroke="#231916" stroke-width="0.49"/>
<path d="M19.9783 24.2146C21.3452 24.7417 22.3757 25.0184 22.8519 24.6758C23.1189 24.5054 23.433 24.42 23.7515 24.4313C24.0699 24.4426 24.3769 24.5501 24.6305 24.7391C25.1848 25.1423 26.0727 24.7391 26.4063 24.5362C26.74 24.3332 27.1678 24.009 27.644 24.2146C28.1203 24.4202 28.9463 24.2146 29.1508 24.1356C29.6719 24.049 30.2074 24.1481 30.6603 24.4149C31.1365 24.7391 32.0245 24.8788 32.498 24.5362C32.9716 24.1935 33.2622 24.2146 33.9429 24.6152C34.6237 25.0158 34.96 25.0184 35.3717 24.7391C35.6303 24.5374 35.935 24.3999 36.2596 24.3385" stroke="#231916" stroke-width="0.49"/>
<path d="M19.9783 1.67084C20.3025 1.67802 20.6242 1.61486 20.9206 1.48592C21.2169 1.35697 21.4804 1.16541 21.6923 0.924979C22.1066 0.397886 22.5183 0.461137 23.2017 0.924979C23.8852 1.38882 24.3587 1.46789 25.0422 1.12791C25.7256 0.78794 26.0727 0.80112 26.5489 1.06467C27.0252 1.32821 27.5014 1.46789 27.7867 1.32821C28.1041 1.1773 28.4694 1.15459 28.8037 1.26496C29.0889 1.38883 29.1508 0.864358 29.6271 0.722043C30.1033 0.579728 30.1033 0.864366 30.515 1.12528C30.9267 1.38619 32.5788 1.66819 32.9743 1.26496C33.3698 0.861738 34.0721 1.00142 34.6264 1.20435C35.1806 1.40728 36.0713 1.32822 36.2596 1.20435" stroke="#231916" stroke-width="0.49"/>
<path d="M0.0645752 24.0723C0.602711 23.6084 1.36417 23.7481 1.905 24.0117C2.15853 24.1312 2.44207 24.1759 2.72108 24.1403C3.00009 24.1047 3.2625 23.9905 3.47635 23.8114C3.82614 23.4688 4.2997 23.7481 4.85667 23.951C5.41365 24.154 6.22085 24.5361 6.57064 24.2146C6.92042 23.8931 8.31689 24.3832 9.42545 24.2146C9.95013 24.1382 10.0605 24.5361 10.4587 24.2146C10.8569 23.8931 11.5538 24.3384 11.9655 24.4781C12.3771 24.6178 13.1413 24.6152 13.3485 24.4149C13.5556 24.2146 14.8364 24.1513 15.1243 24.4149C15.4122 24.6784 16.4427 24.4149 16.5827 24.2146" stroke="#231916" stroke-width="0.49"/>
<path d="M0.333649 1.00144C1.07897 1.32824 1.57137 1.46528 2.11219 1.06205C2.65302 0.658827 2.73105 0.397916 3.68355 0.864393C4.63605 1.33087 4.98583 1.26499 5.26835 1.00144C5.55088 0.737896 6.57065 0.661454 7.0469 0.922365C7.52315 1.18328 8.47565 1.32823 9.44429 0.922365C10.4129 0.516504 10.4587 0.798504 10.8704 1.1253C11.282 1.4521 11.6964 1.79208 12.3771 1.32824C13.0579 0.864395 13.822 1.1253 14.3629 1.38885C14.5842 1.50812 14.8327 1.57068 15.0853 1.57068C15.3379 1.57068 15.5864 1.50812 15.8077 1.38885C16.0156 1.27813 16.2539 1.23477 16.4885 1.26499" stroke="#231916" stroke-width="0.49"/>
<path d="M8.50792 16.8564H5.93832V12.7056H8.50792V16.8564Z" fill="#F8B500"/>
<path d="M8.50792 16.8564H5.93832V12.7056H8.50792V16.8564Z" stroke="#231916" stroke-width="0.49"/>
<path d="M8.50792 24.2146H5.93832V20.0796H8.50792V24.2146Z" fill="#F8B500"/>
<path d="M8.50792 24.2146H5.93832V20.0796H8.50792V24.2146Z" stroke="#231916" stroke-width="0.49"/>
<path d="M8.50792 9.47974H5.93832V5.32625H8.50792V9.47974Z" fill="#F8B500"/>
<path d="M8.50792 9.47974H5.93832V5.32625H8.50792V9.47974Z" stroke="#231916" stroke-width="0.49"/>
<path d="M45.1765 12.9032H42.6069V8.75234H45.1765V12.9032Z" fill="#F8B500"/>
<path d="M45.1765 12.9032H42.6069V8.75234H45.1765V12.9032Z" stroke="#231916" stroke-width="0.49"/>
<path d="M45.1765 23.8589H42.6069V17.5206H45.1765V23.8589Z" fill="#F8B500"/>
<path d="M45.1765 23.8589H42.6069V17.5206H45.1765V23.8589Z" stroke="#231916" stroke-width="0.49"/>
<path d="M45.1765 6.41211H42.6069V2.25862H45.1765V6.41211Z" fill="#F8B500"/>
<path d="M45.1765 6.41211H42.6069V2.25862H45.1765V6.41211Z" stroke="#231916" stroke-width="0.49"/>
<path d="M50.2727 16.7905H47.7004V12.6397H50.2727V16.7905Z" fill="#F8B500"/>
<path d="M50.2727 16.7905H47.7004V12.6397H50.2727V16.7905Z" stroke="#231916" stroke-width="0.49"/>
<path d="M50.2727 7.57434H47.7004V1.23605H50.2727V7.57434Z" fill="#F8B500"/>
<path d="M50.2727 7.57434H47.7004V1.23605H50.2727V7.57434Z" stroke="#231916" stroke-width="0.49"/>
<path d="M50.2727 22.8363H47.7004V18.6986H50.2727V22.8363Z" fill="#F8B500"/>
<path d="M50.2727 22.8363H47.7004V18.6986H50.2727V22.8363Z" stroke="#231916" stroke-width="0.49"/>
</g>
<defs>
<clipPath id="clip0_8063_8373">
<rect width="75" height="25" fill="white" transform="matrix(1 0 0 -1 0 25)"/>
</clipPath>
</defs>
</svg>
