<svg width="72" height="70" viewBox="0 0 72 70" fill="none" xmlns="http://www.w3.org/2000/svg">
<g clip-path="url(#clip0_8063_9104)">
<path d="M61.5922 69.7274L64.1026 68.2131C61.9813 62.4435 56.6172 58.0141 51.3447 56.0227L51.9398 53.8951L37.1445 53.524L48.8953 60.6338L49.9788 58.4759C53.9542 60.3083 59.532 64.2304 61.5922 69.7198" fill="white"/>
<path d="M61.5922 69.7274L64.1026 68.2131C61.9813 62.4511 56.6249 58.0141 51.3447 56.0227L51.9474 53.8951L37.1522 53.524L48.8953 60.6338L49.9788 58.4759C53.9542 60.3159 59.532 64.238 61.5922 69.7274Z" stroke="#231916" stroke-width="0.49"/>
<path d="M71.7177 10.5549L70.2679 8.06384C64.3697 9.94919 59.7228 15.113 57.5329 20.2542L55.404 19.6257L54.5799 34.2466L62.1034 22.8436L59.944 21.6701C61.9432 17.8843 66.0484 12.4402 71.7101 10.5549" fill="white"/>
<path d="M71.7177 10.5549L70.2679 8.06384C64.3697 9.94919 59.7228 15.113 57.5329 20.2542L55.404 19.6257L54.5799 34.2466L62.1034 22.8436L59.944 21.6701C61.9508 17.854 66.0559 12.4705 71.7177 10.5549Z" stroke="#231916" stroke-width="0.49"/>
<path d="M0.297594 60.8307L1.70919 63.337C7.63034 61.5577 12.3917 56.5225 14.6808 51.3813L16.802 52.0476L17.8474 37.457L10.1026 48.7312L12.2467 49.9351C10.1865 53.7209 5.97456 59.0211 0.282318 60.8459" fill="white"/>
<path d="M0.297577 60.8307L1.70917 63.337C7.63033 61.5577 12.3917 56.5225 14.6808 51.3813L16.802 52.0476L17.8474 37.457L10.1026 48.7312L12.2467 49.9351C10.217 53.7058 5.96693 59.0438 0.297577 60.8307Z" stroke="#231916" stroke-width="0.49"/>
<path d="M9.86603 0.272583L7.38617 1.74144C9.47689 7.5489 14.8334 11.9708 20.1136 13.9697L19.5413 16.0595L34.3289 16.4305L22.5859 9.32068L21.4795 11.5241C17.5346 9.65386 11.9262 5.76204 9.86603 0.272583Z" fill="white"/>
<path d="M9.86603 0.272583L7.38617 1.74144C9.47689 7.5489 14.8334 11.9708 20.1136 13.9697L19.5413 16.0595L34.3289 16.4305L22.5859 9.32068L21.4795 11.5241C17.5346 9.65386 11.9262 5.76204 9.86603 0.272583Z" stroke="#231916" stroke-width="0.49"/>
<path d="M23.0666 22.5786C30.4299 25.0545 45.4693 25.3877 52.8249 20.3828C49.4981 26.3947 47.0869 34.4207 48.8953 42.5451L45.0801 39.577L45.4845 39.4407C45.805 37.5932 45.4845 37.1011 45.3396 34.8977L40.8681 36.2909L38.1365 34.1784L45.9729 31.7177C46.3228 29.8929 46.8073 28.096 47.4226 26.3417L33.8482 30.8847L30.7961 28.5073L35.2064 27.3412C33.7414 27.1671 30.8343 27.008 28.4917 26.7203M20.0068 21.1173C20.9745 21.7493 22.0278 22.2412 23.1352 22.5786L28.4765 26.7203C27.3688 26.6463 26.2758 26.4274 25.2259 26.0691C26.0882 27.6365 26.0424 28.5678 26.34 29.7036L30.7808 28.5073L33.833 30.8847L28.0797 32.8155L23.7533 29.4764C23.1217 26.4531 21.8183 23.6077 19.9381 21.1476M48.8724 42.5754C49.4362 45.1394 50.4017 47.5998 51.7338 49.8669C50.7952 49.5338 49.8644 49.2688 48.964 49.0265L43.8593 45.0816C45.1335 45.2179 46.2705 45.3618 46.9953 45.5208C46.57 44.284 46.2334 43.0189 45.9881 41.735L41.593 43.3174L39.2582 41.5078L45.042 39.5997L48.8724 42.5754ZM38.0983 34.2466L40.83 36.3591L34.9699 38.2141L32.2688 36.1243L38.0983 34.2466ZM48.964 49.0416C38.2128 46.013 28.797 47.9664 20.106 53.1681C24.4553 46.0811 25.4015 36.7982 23.7304 29.5219L28.0568 32.861L26.7291 33.3077C27.1435 34.7886 27.1932 36.3467 26.8741 37.8507L32.2688 36.1471L34.9699 38.2368L26.3171 40.9247C26.7672 42.1741 25.6456 44.7106 25.2641 46.0962L39.2582 41.5532L41.593 43.3629L37.2056 44.9377C39.4229 44.7359 41.6565 44.7969 43.8593 45.1195L48.964 49.0416Z" fill="white"/>
<path d="M19.9381 21.1174C25.0123 24.8199 44.2331 26.2358 52.8097 20.3602C48.5138 28.1666 45.6981 39.3877 51.7338 49.8139C39.8075 45.6722 29.5065 47.4289 20.1136 53.1001C26.462 42.7572 25.5311 27.9925 19.9381 21.1174ZM25.1649 26.0692C26.0348 27.6441 25.989 28.5679 26.2866 29.7036L35.1377 27.3337C32.7647 27.0838 26.6986 26.8037 25.1649 26.0995V26.0692ZM45.9347 31.7404C46.2855 29.9158 46.7701 28.1191 47.3845 26.3645L26.7291 33.2623C27.1471 34.7427 27.1968 36.3016 26.8741 37.8053L45.9347 31.7404ZM45.454 39.4408C45.7592 37.5933 45.454 37.1011 45.3014 34.8978L26.3171 40.8339C26.7672 42.0833 25.6456 44.6198 25.2641 46.0054L45.454 39.4408ZM37.2056 44.8697C39.365 44.4532 44.958 45.1044 46.9953 45.4905C46.57 44.2537 46.2334 42.9886 45.9881 41.7047L37.2056 44.8697Z" stroke="#231916" stroke-width="0.49"/>
</g>
<defs>
<clipPath id="clip0_8063_9104">
<rect width="72" height="70" fill="white"/>
</clipPath>
</defs>
</svg>
