<svg width="71" height="71" viewBox="0 0 71 71" fill="none" xmlns="http://www.w3.org/2000/svg">
<g clip-path="url(#clip0_8068_5370)">
<path d="M21.01 40.4499L27.85 32.2999C28.52 31.4599 29.05 30.7699 29.42 30.2199C29.7804 29.7044 30.0697 29.1427 30.28 28.5499C30.4832 27.9752 30.5847 27.3695 30.58 26.7599C30.5943 26.1171 30.4573 25.48 30.18 24.8999C29.9492 24.3954 29.5776 23.9683 29.11 23.6699C28.6458 23.3797 28.1074 23.2303 27.56 23.2399C27.008 23.228 26.4661 23.3889 26.01 23.6999C25.5522 24.0343 25.2041 24.4973 25.01 25.0299C24.764 25.6677 24.6419 26.3464 24.65 27.0299H20.9C20.8702 25.5983 21.157 24.1778 21.74 22.8699C22.243 21.7335 23.0725 20.7721 24.123 20.108C25.1735 19.4439 26.3976 19.1069 27.64 19.1399C28.8812 19.1124 30.1059 19.4273 31.18 20.0499C32.2006 20.6639 33.026 21.5552 33.56 22.6199C34.1449 23.7926 34.4366 25.0897 34.4099 26.3999C34.4086 27.3463 34.2637 28.287 33.98 29.1899C33.6206 30.2524 33.1194 31.2615 32.49 32.1899C31.5679 33.564 30.5662 34.8829 29.49 36.1399L26.59 39.7599V39.9299H34.7199V44.1299H21.03L21.01 40.4499Z" fill="#231F20"/>
<path d="M39.12 43.0001C37.8656 41.8247 36.9592 40.3266 36.5 38.6701C35.2866 34.1908 35.2866 29.4694 36.5 24.9901C36.9634 23.3331 37.8732 21.8352 39.13 20.6601C40.2743 19.7032 41.7184 19.179 43.21 19.179C44.7016 19.179 46.1458 19.7032 47.29 20.6601C48.5457 21.8419 49.458 23.3416 49.93 25.0001C51.1434 29.4794 51.1434 34.2008 49.93 38.6801C49.4692 40.3354 48.5589 41.8307 47.3 43.0001C46.1517 43.9567 44.7045 44.4805 43.21 44.4805C41.7155 44.4805 40.2683 43.9567 39.12 43.0001ZM45.12 39.3301C45.7644 38.5009 46.1938 37.5253 46.37 36.4901C46.6861 34.9577 46.827 33.3943 46.79 31.8301C46.8188 30.269 46.6746 28.7095 46.36 27.1801C46.1791 26.1432 45.7503 25.1655 45.11 24.3301C44.8861 24.0358 44.5972 23.7972 44.2659 23.633C43.9346 23.4688 43.5698 23.3833 43.2 23.3833C42.8302 23.3833 42.4654 23.4688 42.1341 23.633C41.8028 23.7972 41.5139 24.0358 41.29 24.3301C40.6577 25.1701 40.2297 26.1459 40.04 27.1801C39.7127 28.7078 39.5617 30.268 39.59 31.8301C39.5635 33.3949 39.7111 34.9579 40.03 36.4901C40.2151 37.5226 40.6436 38.4962 41.28 39.3301C41.5094 39.6195 41.8013 39.8533 42.1337 40.014C42.4662 40.1747 42.8307 40.2582 43.2 40.2582C43.5693 40.2582 43.9338 40.1747 44.2663 40.014C44.5988 39.8533 44.8906 39.6195 45.12 39.3301Z" fill="#231F20"/>
<path d="M35.22 70.24C28.2817 70.2261 21.5032 68.1563 15.7407 64.292C9.97816 60.4276 5.4902 54.9421 2.84371 48.5284C0.197214 42.1146 -0.489076 35.0604 0.871539 28.2569C2.23215 21.4533 5.57864 15.2056 10.4882 10.303C15.3978 5.40034 21.6503 2.06275 28.4558 0.711818C35.2613 -0.639117 42.3145 0.05721 48.7245 2.71283C55.1345 5.36844 60.6135 9.8642 64.4697 15.6322C68.3258 21.4002 70.3861 28.1817 70.39 35.12C70.3662 44.4357 66.6516 53.3624 60.0597 59.9449C53.4677 66.5275 44.5358 70.2294 35.22 70.24ZM35.22 0.49998C28.3686 0.513824 21.6751 2.55853 15.9855 6.37565C10.2959 10.1928 5.86568 15.611 3.25472 21.9454C0.643758 28.2798 -0.0306983 35.2461 1.31661 41.9637C2.66391 48.6813 5.97245 54.8488 10.8241 59.6865C15.6758 64.5242 21.8527 67.8149 28.5742 69.1429C35.2957 70.4708 42.2601 69.7762 48.5869 67.147C54.9138 64.5178 60.3191 60.0719 64.1198 54.3714C67.9205 48.6708 69.9459 41.9714 69.94 35.12C69.9215 25.922 66.256 17.1067 59.7473 10.6074C53.2386 4.10809 44.418 0.455269 35.22 0.449993V0.49998Z" fill="#CF1F25"/>
<path d="M35.23 2.34988C28.7543 2.36372 22.4282 4.297 17.0511 7.90534C11.6739 11.5137 7.48722 16.6351 5.02006 22.6224C2.55291 28.6096 1.91605 35.1939 3.19005 41.5429C4.46404 47.892 7.59165 53.7209 12.1776 58.2929C16.7635 62.8648 22.6019 65.9746 28.9549 67.2293C35.3078 68.4839 41.8901 67.827 47.8698 65.3415C53.8495 62.8561 58.9581 58.6538 62.55 53.2657C66.142 47.8775 68.0559 41.5455 68.05 35.0699C68.0341 26.3795 64.568 18.0512 58.4136 11.9156C52.2592 5.77993 43.9203 2.33926 35.23 2.34988ZM35.23 60.6199C30.1836 60.61 25.2534 59.1048 21.062 56.2944C16.8706 53.484 13.6062 49.4945 11.681 44.8298C9.75572 40.1651 9.25606 35.0345 10.2452 30.086C11.2343 25.1375 13.6677 20.5931 17.2381 17.0269C20.8086 13.4607 25.3558 11.0326 30.3055 10.0493C35.2551 9.06597 40.3851 9.57161 45.0475 11.5023C49.71 13.433 53.6957 16.7022 56.5011 20.8968C59.3066 25.0915 60.806 30.0235 60.81 35.0699C60.7967 41.8473 58.0965 48.3429 53.3013 53.1324C48.5061 57.922 42.0074 60.6146 35.23 60.6199Z" fill="#CF1F25"/>
<path d="M53.16 46.46H17.23V50.26H53.16V46.46Z" fill="#231F20"/>
<path d="M53.35 50.45H17.04V46.24H53.35V50.45ZM17.43 50.06H52.96V46.66H17.43V50.06Z" fill="#231F20"/>
</g>
<defs>
<clipPath id="clip0_8068_5370">
<rect width="70.39" height="70.18" fill="white"/>
</clipPath>
</defs>
</svg>
