<svg width="71" height="71" viewBox="0 0 71 71" fill="none" xmlns="http://www.w3.org/2000/svg">
<g clip-path="url(#clip0_8068_5378)">
<path d="M23.99 43.56C22.908 42.9618 22.0198 42.0666 21.43 40.98C20.7892 39.8221 20.4456 38.5233 20.43 37.2H24.43C24.4449 37.7557 24.6071 38.2975 24.9 38.77C25.1856 39.2288 25.5898 39.602 26.07 39.85C26.5693 40.1124 27.126 40.2464 27.69 40.24C28.2816 40.2498 28.865 40.1014 29.38 39.81C29.871 39.5305 30.2731 39.118 30.54 38.62C30.8069 38.0735 30.9456 37.4732 30.9456 36.865C30.9456 36.2568 30.8069 35.6566 30.54 35.11C30.2536 34.5884 29.8185 34.1637 29.29 33.89C28.6958 33.589 28.0358 33.4412 27.37 33.46H25.58V29.68H27.35C27.9331 29.6929 28.5092 29.5514 29.02 29.27C29.5001 28.9984 29.8896 28.5915 30.14 28.1C30.413 27.5763 30.544 26.9901 30.52 26.4C30.5388 25.8329 30.4295 25.2689 30.2 24.75C29.9882 24.2837 29.6394 23.8931 29.2 23.63C28.7703 23.3747 28.2798 23.24 27.78 23.24C27.246 23.2349 26.7195 23.3657 26.25 23.62C25.7848 23.8752 25.3977 24.252 25.13 24.71C24.8357 25.2075 24.6739 25.7721 24.66 26.35H20.88C20.9085 25.0475 21.2516 23.7713 21.88 22.63C22.4482 21.5713 23.3001 20.6918 24.34 20.09C25.3963 19.4775 26.599 19.163 27.82 19.18C29.0313 19.1536 30.2259 19.4653 31.27 20.08C32.2604 20.673 33.0643 21.5323 33.59 22.56C34.1551 23.6525 34.4338 24.8705 34.4 26.1C34.4214 26.9372 34.2753 27.7702 33.97 28.55C33.6943 29.2445 33.2592 29.8645 32.7 30.36C32.1578 30.8434 31.5055 31.1867 30.8 31.36V31.54C31.6637 31.6609 32.4807 32.0057 33.17 32.54C33.8269 33.0663 34.3338 33.756 34.64 34.54C34.9871 35.414 35.1505 36.3501 35.12 37.29C35.1521 38.59 34.8343 39.8748 34.2 41.01C33.584 42.1032 32.6725 43.0008 31.57 43.6C30.4108 44.2398 29.1039 44.564 27.78 44.54C26.4521 44.5556 25.144 44.2173 23.99 43.56Z" fill="#231F20"/>
<path d="M39.5 43.0001C38.2456 41.8247 37.3391 40.3266 36.88 38.6701C35.6666 34.1908 35.6666 29.4694 36.88 24.9901C37.3434 23.3331 38.2532 21.8352 39.51 20.6601C40.6542 19.7032 42.0984 19.179 43.59 19.179C45.0816 19.179 46.5258 19.7032 47.67 20.6601C48.9289 21.8393 49.8417 23.34 50.31 25.0001C51.5234 29.4794 51.5234 34.2008 50.31 38.6801C49.8493 40.3354 48.9389 41.8307 47.68 43.0001C46.5318 43.9567 45.0845 44.4805 43.59 44.4805C42.0955 44.4805 40.6482 43.9567 39.5 43.0001ZM45.5 39.3301C46.1444 38.5009 46.5738 37.5253 46.75 36.4901C47.0661 34.9577 47.207 33.3943 47.17 31.8301C47.1989 30.269 47.0547 28.7095 46.74 27.1801C46.5591 26.1432 46.1303 25.1655 45.49 24.3301C45.2661 24.0358 44.9772 23.7972 44.6459 23.633C44.3146 23.4688 43.9498 23.3833 43.58 23.3833C43.2102 23.3833 42.8455 23.4688 42.5141 23.633C42.1828 23.7972 41.8939 24.0358 41.67 24.3301C41.0377 25.1701 40.6097 26.1459 40.42 27.1801C40.0927 28.7078 39.9417 30.268 39.97 31.8301C39.9435 33.3949 40.0911 34.9579 40.41 36.4901C40.5994 37.5213 41.0275 38.4939 41.66 39.3301C41.8894 39.6195 42.1812 39.8533 42.5137 40.014C42.8462 40.1747 43.2107 40.2582 43.58 40.2582C43.9493 40.2582 44.3138 40.1747 44.6463 40.014C44.9788 39.8533 45.2706 39.6195 45.5 39.3301Z" fill="#231F20"/>
<path d="M35.22 70.24C28.2817 70.2261 21.5032 68.1563 15.7407 64.292C9.97819 60.4276 5.49023 54.9421 2.84374 48.5284C0.197244 42.1146 -0.489046 35.0604 0.87157 28.2569C2.23219 21.4533 5.57861 15.2056 10.4882 10.303C15.3978 5.40034 21.6503 2.06275 28.4558 0.711818C35.2613 -0.639117 42.3145 0.05721 48.7245 2.71283C55.1344 5.36844 60.6136 9.8642 64.4697 15.6322C68.3259 21.4002 70.386 28.1817 70.39 35.12C70.3662 44.4357 66.6516 53.3624 60.0596 59.9449C53.4677 66.5275 44.5358 70.2294 35.22 70.24ZM35.22 0.49998C28.3686 0.513824 21.6751 2.55853 15.9855 6.37565C10.2959 10.1928 5.86565 15.611 3.25469 21.9454C0.643727 28.2798 -0.0307288 35.2461 1.31658 41.9637C2.66388 48.6813 5.97248 54.8488 10.8241 59.6865C15.6758 64.5242 21.8528 67.8149 28.5743 69.1429C35.2958 70.4708 42.26 69.7762 48.5869 67.147C54.9138 64.5178 60.3192 60.0719 64.1199 54.3714C67.9206 48.6708 69.9459 41.9714 69.94 35.12C69.9215 25.922 66.2559 17.1067 59.7472 10.6074C53.2386 4.10809 44.4181 0.455269 35.22 0.449993V0.49998Z" fill="#CF1F25"/>
<path d="M35.23 2.34988C28.7544 2.36372 22.4282 4.297 17.0511 7.90534C11.6739 11.5137 7.4872 16.6351 5.02005 22.6224C2.5529 28.6096 1.9161 35.1939 3.19009 41.5429C4.46409 47.892 7.5917 53.7209 12.1776 58.2929C16.7636 62.8648 22.602 65.9746 28.9549 67.2293C35.3079 68.4839 41.8901 67.827 47.8698 65.3415C53.8495 62.8561 58.9581 58.6538 62.55 53.2657C66.1419 47.8775 68.0559 41.5455 68.05 35.0699C68.0341 26.3795 64.568 18.0512 58.4136 11.9156C52.2592 5.77993 43.9204 2.33926 35.23 2.34988ZM35.23 60.6199C30.1824 60.6159 25.2491 59.1158 21.0538 56.309C16.8585 53.5022 13.5893 49.5147 11.6595 44.8505C9.72969 40.1864 9.2258 35.0548 10.2115 30.1043C11.1972 25.1538 13.6283 20.6067 17.1975 17.0375C20.7668 13.4682 25.314 11.0371 30.2644 10.0514C35.2149 9.0657 40.3465 9.56959 45.0107 11.4994C49.6748 13.4292 53.6623 16.6984 56.4691 20.8937C59.2759 25.089 60.776 30.0222 60.78 35.0699C60.7668 41.8473 58.0665 48.3429 53.2713 53.1324C48.4762 57.922 41.9774 60.6146 35.2 60.6199" fill="#CF1F25"/>
<path d="M53.16 46.46H17.23V50.26H53.16V46.46Z" fill="#231F20"/>
<path d="M53.35 50.45H17.04V46.24H53.35V50.45ZM17.43 50.06H52.96V46.66H17.43V50.06Z" fill="#231F20"/>
</g>
<defs>
<clipPath id="clip0_8068_5378">
<rect width="70.39" height="70.18" fill="white"/>
</clipPath>
</defs>
</svg>
