<svg width="72" height="72" viewBox="0 0 72 72" fill="none" xmlns="http://www.w3.org/2000/svg">
<g clip-path="url(#clip0_8063_6843)">
<path d="M35.94 71.42C42.9762 71.3883 49.8453 69.2723 55.6797 65.3391C61.5141 61.406 66.052 55.8321 68.7205 49.3214C71.389 42.8107 72.0683 35.6553 70.6726 28.7588C69.2769 21.8623 65.8688 15.534 60.8787 10.5733C55.8887 5.61252 49.5405 2.24182 42.6359 0.886753C35.7313 -0.468312 28.58 0.253094 22.0851 2.95987C15.5903 5.66665 10.0432 10.2374 6.14444 16.0948C2.24571 21.9523 0.170185 28.8337 0.179997 35.87C0.185242 40.5537 1.11362 45.1904 2.91205 49.515C4.71048 53.8397 7.34369 57.7674 10.6611 61.0737C13.9786 64.38 17.9151 67 22.2458 68.7838C26.5765 70.5677 31.2163 71.4805 35.9 71.4699" stroke="#D20D18" stroke-width="0.45"/>
<path d="M35.94 2.39001C29.3261 2.40385 22.8646 4.3775 17.3718 8.06165C11.879 11.7458 7.60121 16.9752 5.07885 23.0892C2.55648 29.2033 1.90268 35.9277 3.20002 42.4131C4.49735 48.8986 7.68762 54.8541 12.3679 59.5273C17.0481 64.2006 23.0084 67.382 29.4957 68.6697C35.9831 69.9573 42.7066 69.2935 48.8169 66.762C54.9271 64.2305 60.1501 59.945 63.8261 54.4467C67.502 48.9483 69.466 42.4839 69.47 35.87C69.4647 31.473 68.5932 27.1201 66.905 23.06C65.2169 18.9999 62.7453 15.3123 59.6315 12.2078C56.5177 9.10324 52.8227 6.64267 48.7576 4.96667C44.6925 3.29068 40.337 2.43212 35.94 2.44M35.94 61.97C30.787 61.9502 25.7554 60.4044 21.4802 57.5276C17.2049 54.6508 13.8777 50.5719 11.9185 45.8059C9.95934 41.0399 9.45595 35.8002 10.4719 30.7484C11.4878 25.6965 13.9776 21.0588 17.6269 17.4207C21.2762 13.7825 25.9215 11.3069 30.9765 10.3065C36.0314 9.30598 41.2695 9.82542 46.0295 11.7992C50.7895 13.773 54.8582 17.1126 57.7219 21.3966C60.5856 25.6806 62.116 30.717 62.12 35.87C62.1187 39.3039 61.4401 42.7038 60.1229 45.875C58.8058 49.0462 56.8761 51.9265 54.4443 54.3509C52.0125 56.7753 49.1263 58.6961 45.9511 60.0035C42.7758 61.3109 39.3738 61.9792 35.94 61.97Z" fill="#D20D18"/>
<path d="M55.92 59.48L59.78 55.84L16.45 12.65L12.59 16.23" fill="#D20D18"/>
<path d="M29.63 51.39H20.75V33.39C20.75 28.39 25.75 21.78 31.09 21.78H40.09C40.79 21.78 41.39 21.4 40.52 20.69C39.65 19.98 38.89 17.82 39.81 16.9C40.73 15.98 41.23 16.08 42.91 17.11L55.91 26.61C56.73 27.21 56.35 27.21 55.75 27.61C55.15 28.01 42.75 35.61 42.75 35.61C42.04 35.99 41.23 36.91 40.25 35.5C39.43 34.3 40.25 32.9 41.17 31.92C42.09 30.94 42.42 30.4 40.74 30.51H34.18C32.27 30.4 29.61 31.81 29.61 36.8V51.34" fill="#231916"/>
</g>
<defs>
<clipPath id="clip0_8063_6843">
<rect width="71.88" height="71.64" fill="white"/>
</clipPath>
</defs>
</svg>
