<svg width="76" height="66" viewBox="0 0 76 66" fill="none" xmlns="http://www.w3.org/2000/svg">
<g clip-path="url(#clip0_8063_6638)">
<path d="M1.13998 59.64L34.28 2.63999C36.12 -0.530007 39.28 -0.530007 41.19 2.63999L74.51 59.8C76.46 63.1 74.86 65.62 70.91 65.62H4.79999C0.549986 65.62 -0.870017 63.15 1.13998 59.68" fill="white"/>
<path d="M1.13998 59.64L34.28 2.63999C36.12 -0.530007 39.28 -0.530007 41.19 2.63999L74.51 59.8C76.46 63.1 74.86 65.62 70.91 65.62H4.79999C0.579988 65.58 -0.870016 63.11 1.13998 59.64Z" stroke="#D20D18" stroke-width="0.49"/>
<path d="M2.57998 60.35L35.58 3.68C36.7 1.62 38.82 1.68 40 3.68L73.08 60.47C74.27 62.47 73.02 64.05 70.73 64.05H5.14999C2.54999 64.05 1.48999 62.35 2.61999 60.35" fill="#D20D18"/>
<path d="M37.88 12.91L63.78 57.65H11.52" fill="#F8B500"/>
<path d="M37.88 12.91L63.78 57.65H11.52L37.88 12.91Z" stroke="#D20D18" stroke-width="0.57"/>
<path d="M51.92 52.07H23.08V53.66H51.92V52.07Z" fill="#231916"/>
<path d="M27.1 51.42H30.86L30.81 45.89L27.1 43.48" fill="#231916"/>
<path d="M47.67 43.83V51.42H43.84V45.71" fill="#231916"/>
<path d="M40.65 41.8L42.9 37.28C43.9 38.69 45.9 41.16 47.61 43.1L43.61 44.92C42.8037 43.7258 41.8072 42.6719 40.66 41.8" fill="#231916"/>
<path d="M32.46 37.19C36.23 36.6 40.36 36.6 42.36 37.3L40.12 41.42C37.65 40.71 37.65 40.48 34.99 41.19" fill="#231916"/>
<path d="M31.75 37.72L34.46 41.72C34.46 42.01 32.87 41.42 31.22 45.18L27.15 42.7099C28.04 41.1899 31.4 37.4799 31.75 37.7099" fill="#231916"/>
<path d="M31.81 51.18L42.96 51.36V45.89C42.6922 45.013 42.2269 44.2091 41.6 43.54C40.89 41.83 35.23 40.83 33.23 43.54C32.5336 44.0643 32.0335 44.8074 31.81 45.6499V51.18Z" fill="#231916"/>
</g>
<defs>
<clipPath id="clip0_8063_6638">
<rect width="75.58" height="65.82" fill="white"/>
</clipPath>
</defs>
</svg>
