<svg width="69" height="68" viewBox="0 0 69 68" fill="none" xmlns="http://www.w3.org/2000/svg">
<g clip-path="url(#clip0_8063_7041)">
<path d="M23.19 52.9H23.41L23.19 53.13M23.19 56.32H25.96V57.57H23.19V56.32ZM23.19 51.71H24.5V55.18H25.86V48.84C25.9027 48.7714 25.9364 48.6974 25.96 48.62C26.02 48.51 26.02 48.4 25.96 48.35C25.728 48.317 25.4943 48.297 25.26 48.29H24.5V50.52H23.19V51.71ZM23.19 48.78V50.03H21.5V50.36C21.4646 50.9149 21.6199 51.4653 21.94 51.92C22.2248 52.3911 22.6679 52.7455 23.19 52.92V53.15C23.14 53.25 23.03 53.36 22.97 53.47C22.91 53.58 22.7 53.85 22.59 54.12C22.1746 53.8599 21.7919 53.5511 21.45 53.2C21.1622 52.8726 20.9231 52.5055 20.74 52.11C20.5912 52.4977 20.347 52.8416 20.03 53.11C19.6577 53.5159 19.2178 53.8542 18.73 54.11C18.6032 53.8961 18.4558 53.6952 18.29 53.51L17.8 53.02C18.1261 52.9679 18.4408 52.8596 18.73 52.7C19.0207 52.5068 19.2775 52.2669 19.49 51.99C19.701 51.7602 19.8824 51.5049 20.03 51.23C20.1228 51.0251 20.1771 50.8047 20.19 50.58V50.04H18.4V48.79L23.19 48.78ZM23.19 50.52H23.03V51.71H23.19V50.52ZM23.19 56.32V57.57H19V54.57H19.78C20.11 54.57 20.33 54.57 20.38 54.63C20.43 54.69 20.43 54.74 20.38 54.9V55.06C20.33 55.06 20.33 55.17 20.33 55.28V56.36L23.19 56.32Z" fill="white"/>
<path d="M48.12 51.77V51.92V52.04V52.91H50.57V54.1H46.21V52.91H46.78V51.91H46.46C46.3574 51.9595 46.2434 51.9802 46.13 51.97V50.83C46.721 50.8599 47.3128 50.7889 47.88 50.62C48.2 50.51 48.37 50.34 48.37 50.13C48.37 49.92 48.2 49.75 47.88 49.64C47.3094 49.4875 46.7206 49.4135 46.13 49.42V48.35C47.0519 48.2939 47.9724 48.48 48.8 48.89C49.0495 48.9932 49.2641 49.1659 49.4183 49.3874C49.5725 49.609 49.6599 49.8702 49.67 50.14C49.6721 50.3102 49.6404 50.4791 49.5769 50.637C49.5134 50.7949 49.4193 50.9386 49.3 51.06C48.9592 51.377 48.5425 51.6009 48.09 51.71V51.77M46.09 57.95V56.95H46.15C46.755 56.9827 47.361 56.9083 47.94 56.73C48.27 56.57 48.44 56.41 48.44 56.14C48.44 55.87 48.27 55.76 47.94 55.6C47.3532 55.466 46.7515 55.4088 46.15 55.43H46.09V54.35H46.15C47.1044 54.2888 48.0585 54.4748 48.92 54.89C49.1699 54.9938 49.3853 55.1663 49.541 55.3876C49.6968 55.6088 49.7866 55.8697 49.8 56.14C49.7935 56.4108 49.7063 56.6735 49.5495 56.8945C49.3927 57.1154 49.1735 57.2845 48.92 57.38C48.065 57.8186 47.1099 58.0255 46.15 57.98L46.09 57.95ZM46.09 54.1H41.79V52.91H44.13V51.71C43.6833 51.6011 43.273 51.3769 42.94 51.06C42.808 50.9446 42.7009 50.8035 42.6252 50.6453C42.5496 50.4871 42.507 50.3152 42.5 50.14C42.5202 49.873 42.6116 49.6162 42.7646 49.3964C42.9175 49.1765 43.1266 49.0017 43.37 48.89C44.2134 48.4741 45.1516 48.2878 46.09 48.35V49.45C45.5027 49.4433 44.9172 49.5173 44.35 49.67C44.02 49.78 43.86 49.94 43.86 50.16C43.86 50.38 44.02 50.54 44.35 50.65C44.9128 50.8234 45.5021 50.8945 46.09 50.86V52C45.9799 52.0094 45.8692 51.9886 45.77 51.94H45.38V52.94H46.09V54.1ZM46.09 54.32V55.45C45.5051 55.4317 44.9203 55.4888 44.35 55.62C44.02 55.78 43.86 55.94 43.86 56.16C43.86 56.38 44.02 56.59 44.35 56.75C44.9109 56.9326 45.5013 57.0072 46.09 56.97V57.97C45.1323 57.9907 44.1833 57.7851 43.32 57.37C43.0828 57.2583 42.8808 57.0836 42.7362 56.8649C42.5916 56.6462 42.5099 56.392 42.5 56.13C42.5103 55.8668 42.592 55.6114 42.7365 55.3912C42.8809 55.1709 43.0827 54.9942 43.32 54.88C44.1815 54.4648 45.1356 54.2788 46.09 54.34" fill="white"/>
<path d="M2.21 33.72C2.1902 27.4191 4.04092 21.2541 7.52771 16.0059C11.0145 10.7577 15.9805 6.6624 21.7967 4.2388C27.6128 1.8152 34.0174 1.17235 40.1993 2.39163C46.3811 3.61092 52.0619 6.63748 56.5223 11.088C60.9826 15.5385 64.0216 21.2127 65.2546 27.3918C66.4875 33.5709 65.8587 39.9769 63.4479 45.7984C61.0372 51.6199 56.9528 56.5949 51.7123 60.0932C46.4718 63.5916 40.3109 65.4559 34.01 65.45C25.584 65.4526 17.5015 62.11 11.5387 56.1566C5.57594 50.2032 2.2206 42.126 2.21 33.7" fill="#004A9C"/>
<path d="M34.11 67.77C40.7872 67.7502 47.3087 65.752 52.8509 62.0278C58.393 58.3036 62.7071 53.0203 65.2482 46.8456C67.7893 40.6708 68.4435 33.8814 67.128 27.3351C65.8125 20.7887 62.5864 14.7791 57.8572 10.0653C53.128 5.35146 47.1079 2.14494 40.5573 0.850743C34.0067 -0.443452 27.2195 0.232746 21.053 2.79392C14.8866 5.35509 9.61742 9.68629 5.91123 15.2405C2.20504 20.7947 0.228065 27.3228 0.230012 34C0.235259 38.4425 1.11597 42.8404 2.82181 46.9424C4.52765 51.0444 7.02516 54.7699 10.1716 57.9062C13.318 61.0424 17.0517 63.5278 21.1592 65.2203C25.2667 66.9128 29.6675 67.7792 34.11 67.77Z" stroke="#004A9C" stroke-width="0.45"/>
<path d="M23.24 52.68H23.46C23.35 52.79 23.29 52.84 23.24 52.9M23.24 56.12H26.03V57.37H23.24V56.12ZM23.24 51.48H24.55V54.97H25.92V48.59C25.9628 48.5199 25.9995 48.4463 26.03 48.37C26.0593 48.3292 26.0751 48.2803 26.0751 48.23C26.0751 48.1798 26.0593 48.1308 26.03 48.09C25.92 48.09 25.71 48.09 25.32 48.09H24.55V50.33H23.24V51.48ZM23.24 48.53V49.78H21.54V50.11C21.5109 50.6736 21.6653 51.2315 21.98 51.7C22.2749 52.1662 22.719 52.5187 23.24 52.7V52.92C23.24 53.02 23.08 53.14 23.03 53.25C22.8797 53.4538 22.7491 53.6715 22.64 53.9C22.2167 53.643 21.8299 53.3302 21.49 52.97C21.2044 52.6411 20.9654 52.2742 20.78 51.88C20.6352 52.2699 20.3903 52.6147 20.07 52.88C19.6917 53.2835 19.249 53.6214 18.76 53.88C18.6265 53.6707 18.4795 53.4703 18.32 53.28L17.82 52.79C18.1561 52.7287 18.4802 52.6139 18.78 52.45C19.0707 52.2568 19.3275 52.0169 19.54 51.74C19.7533 51.5098 19.938 51.2546 20.09 50.98C20.184 50.772 20.2383 50.5481 20.25 50.32V49.77H18.45V48.52L23.24 48.53ZM23.24 50.28H23.08V51.45H23.24V50.28ZM23.24 56.12V57.37H19.03V54.31H19.78C20.11 54.31 20.33 54.31 20.39 54.37C20.45 54.43 20.44 54.47 20.39 54.64V54.81C20.33 54.81 20.33 54.92 20.33 55.02V56.12H23.24Z" fill="white"/>
<path d="M48.31 51.53V51.69V51.8V52.68H50.77V53.88H46.39V52.68H47.05V51.68H46.72C46.6171 51.7285 46.5033 51.7492 46.39 51.74V50.59C46.9811 50.6213 47.5731 50.5503 48.14 50.38C48.47 50.27 48.63 50.1 48.63 49.89C48.63 49.68 48.47 49.51 48.14 49.39C47.5695 49.2368 46.9806 49.1627 46.39 49.17V48.09C47.3151 48.0331 48.2391 48.2192 49.07 48.63C49.3207 48.7355 49.5364 48.9098 49.6921 49.1328C49.8479 49.3558 49.9373 49.6183 49.95 49.89C49.9513 50.061 49.9184 50.2305 49.8531 50.3885C49.7878 50.5465 49.6916 50.6898 49.57 50.81C49.2317 51.1325 48.8143 51.3602 48.36 51.4701V51.52M46.36 57.74V56.74H46.42C47.0281 56.7668 47.6363 56.6925 48.22 56.52C48.55 56.35 48.72 56.19 48.72 55.92C48.72 55.65 48.55 55.54 48.22 55.38C47.6307 55.2409 47.025 55.1837 46.42 55.21H46.36V54.12H46.42C47.3808 54.0603 48.3409 54.2461 49.21 54.6601C49.4595 54.766 49.6738 54.9407 49.8279 55.1638C49.9819 55.3869 50.0693 55.6491 50.08 55.92C50.0763 56.1914 49.9914 56.4555 49.8364 56.6782C49.6813 56.901 49.4632 57.0722 49.21 57.17C48.3473 57.6072 47.3862 57.8139 46.42 57.77L46.36 57.74ZM46.36 53.87H42.04V52.67H44.39V51.45C43.9367 51.3376 43.52 51.1103 43.18 50.7901C42.9215 50.5517 42.7671 50.2212 42.75 49.87C42.7705 49.6004 42.8629 49.3413 43.0177 49.1197C43.1725 48.8981 43.384 48.722 43.63 48.61C44.477 48.1941 45.4184 48.008 46.36 48.07V49.15C45.7694 49.1435 45.1806 49.2175 44.61 49.37C44.28 49.49 44.12 49.65 44.12 49.87C44.12 50.09 44.28 50.25 44.61 50.36C45.1763 50.5331 45.7688 50.6042 46.36 50.57V51.7201C46.2466 51.7293 46.1329 51.7086 46.03 51.6601H45.65V52.6601H46.36V53.87ZM46.36 54.09V55.18C45.7716 55.1568 45.1829 55.214 44.61 55.3501C44.28 55.5101 44.12 55.67 44.12 55.89C44.12 56.11 44.28 56.32 44.61 56.49C45.1757 56.6665 45.7682 56.741 46.36 56.71V57.71C45.3961 57.729 44.4409 57.5235 43.57 57.11C43.332 56.9967 43.1297 56.8202 42.9851 56.5998C42.8405 56.3793 42.7592 56.1235 42.75 55.86C42.7606 55.5956 42.8424 55.339 42.9868 55.1173C43.1311 54.8955 43.3326 54.7168 43.57 54.6001C44.4391 54.1861 45.3992 54.0003 46.36 54.06" fill="white"/>
<path d="M18.39 30.36C18.4019 30.7698 18.2913 31.1738 18.0724 31.5204C17.8534 31.867 17.536 32.1403 17.1608 32.3054C16.7856 32.4706 16.3696 32.5201 15.9662 32.4475C15.5627 32.3749 15.19 32.1836 14.8959 31.898C14.6018 31.6125 14.3995 31.2457 14.3151 30.8445C14.2306 30.4434 14.2678 30.0261 14.4218 29.6462C14.5758 29.2663 14.8396 28.9409 15.1795 28.7118C15.5195 28.4827 15.92 28.3602 16.33 28.36C16.8669 28.3572 17.3834 28.5652 17.7686 28.9392C18.1538 29.3132 18.3769 29.8233 18.39 30.36Z" stroke="#004A9C" stroke-width="0.9"/>
<path d="M49.11 30.45C49.112 30.8583 48.9926 31.2579 48.767 31.5982C48.5414 31.9385 48.2198 32.2041 47.843 32.3612C47.4661 32.5184 47.0511 32.56 46.6506 32.4809C46.25 32.4017 45.8821 32.2053 45.5934 31.9166C45.3047 31.6279 45.1083 31.2599 45.0291 30.8594C44.95 30.4589 44.9916 30.0438 45.1487 29.667C45.3059 29.2902 45.5715 28.9686 45.9118 28.743C46.2521 28.5174 46.6517 28.398 47.06 28.4C47.3311 28.3931 47.6007 28.4414 47.8525 28.542C48.1044 28.6426 48.3331 28.7934 48.5248 28.9851C48.7166 29.1769 48.8674 29.4056 48.968 29.6574C49.0686 29.9093 49.1169 30.1789 49.11 30.45Z" stroke="#004A9C" stroke-width="0.9"/>
<path d="M53.61 30.45C53.612 30.8579 53.4929 31.2572 53.2677 31.5973C53.0426 31.9373 52.7215 32.2029 52.3453 32.3603C51.969 32.5178 51.5545 32.56 51.1543 32.4817C50.754 32.4033 50.386 32.2079 50.0969 31.9202C49.8078 31.6325 49.6106 31.2655 49.5303 30.8656C49.45 30.4658 49.4903 30.051 49.6459 29.674C49.8015 29.297 50.0655 28.9747 50.4045 28.7479C50.7435 28.5211 51.1421 28.4001 51.55 28.4C51.82 28.3987 52.0877 28.4508 52.3376 28.5532C52.5875 28.6556 52.8146 28.8064 53.006 28.9969C53.1975 29.1874 53.3494 29.4139 53.453 29.6632C53.5567 29.9126 53.61 30.18 53.61 30.45Z" stroke="#004A9C" stroke-width="0.9"/>
<path d="M22.91 30.94V26.73" stroke="#004A9C" stroke-width="1.8"/>
<path d="M44.7 30.94V26.73" stroke="#004A9C" stroke-width="1.8"/>
<path d="M54.64 28.22C54.5194 27.5564 54.1983 26.9456 53.72 26.47L49.57 21.58L45.08 12.14C44.71 11.36 43.32 11.14 43.32 11.14H23.83C23.586 11.1263 23.3435 11.1855 23.1333 11.3102C22.9232 11.4348 22.7549 11.6193 22.65 11.84L17.85 21.75L12.85 27.66C12.698 27.9084 12.6346 28.2009 12.67 28.49C12.72 29 12.67 31.08 12.67 31.08L12.75 32.01L12.93 33.39L13.93 38.1C13.9891 38.278 14.0912 38.4387 14.2273 38.5677C14.3633 38.6968 14.5291 38.7904 14.71 38.84H14.6V43.6C14.5987 43.6875 14.6148 43.7744 14.6473 43.8556C14.6799 43.9369 14.7283 44.0108 14.7897 44.0732C14.8511 44.1355 14.9244 44.185 15.0051 44.2188C15.0858 44.2526 15.1725 44.27 15.26 44.27H19.57C20.37 44.27 20.22 43.68 20.22 43.68V38.85H47.01V43.61C47.01 43.786 47.0792 43.9549 47.2027 44.0803C47.3262 44.2056 47.494 44.2774 47.67 44.28H51.99C52.79 44.28 52.63 43.69 52.63 43.69V38.85C52.63 38.85 53.27 38.85 53.4 37.95L54.33 32.14V32.02L54.6 30.52C54.6 30.52 54.66 29.13 54.6 28.22" fill="#FAFBFB"/>
<path d="M38.11 34.33H29.61V38.01H38.11V34.33Z" stroke="#004A9C" stroke-width="0.7"/>
<path d="M39.29 28.52H28V31.21H39.29V28.52Z" stroke="#004A9C" stroke-width="0.7"/>
<path d="M14.59 38.85H20.21" stroke="#004A9C" stroke-width="0.7"/>
<path d="M12.9 33.41H54.15" stroke="#004A9C" stroke-width="0.7"/>
<path d="M12.82 27.8H54.55" stroke="#004A9C" stroke-width="0.7"/>
<path d="M51.98 44.28H47.66C47.484 44.2774 47.3162 44.2056 47.1927 44.0803C47.0692 43.9549 47 43.786 47 43.61V38.85H52.63V43.69C52.63 43.69 52.78 44.28 51.98 44.28Z" stroke="#004A9C" stroke-width="0.7"/>
<path d="M22.65 32.02V27.8" stroke="#004A9C" stroke-width="0.7"/>
<path d="M44.43 32.02V27.8" stroke="#004A9C" stroke-width="0.7"/>
<path d="M20.08 21.78H47.38L44.1 13.68C44.1 13.68 44.19 12.45 41.64 12.54C39.09 12.63 25.06 12.54 25.06 12.54C24.631 12.5214 24.2086 12.65 23.8629 12.9047C23.5173 13.1594 23.2692 13.5248 23.16 13.94C22.59 15.5 20.08 21.79 20.08 21.79" fill="#004A9C"/>
<path d="M17.26 29.91C17.26 30.3056 17.1427 30.6923 16.923 31.0212C16.7032 31.3501 16.3908 31.6064 16.0254 31.7578C15.6599 31.9091 15.2578 31.9488 14.8698 31.8716C14.4819 31.7944 14.1255 31.6039 13.8458 31.3242C13.5661 31.0445 13.3756 30.6881 13.2984 30.3002C13.2213 29.9122 13.2609 29.5101 13.4122 29.1447C13.5636 28.7792 13.82 28.4668 14.1489 28.2471C14.4778 28.0273 14.8645 27.91 15.26 27.91C15.7905 27.91 16.2992 28.1207 16.6742 28.4958C17.0493 28.8709 17.26 29.3796 17.26 29.91Z" stroke="#004A9C" stroke-width="0.7"/>
<path d="M22.04 29.91C22.04 30.3056 21.9227 30.6923 21.703 31.0212C21.4832 31.3501 21.1708 31.6064 20.8054 31.7578C20.4399 31.9091 20.0378 31.9488 19.6498 31.8716C19.2619 31.7944 18.9055 31.6039 18.6258 31.3242C18.3461 31.0445 18.1556 30.6881 18.0784 30.3002C18.0013 29.9122 18.0409 29.5101 18.1922 29.1447C18.3436 28.7792 18.6 28.4668 18.9289 28.2471C19.2578 28.0273 19.6445 27.91 20.04 27.91C20.5705 27.91 21.0792 28.1207 21.4542 28.4958C21.8293 28.8709 22.04 29.3796 22.04 29.91Z" stroke="#004A9C" stroke-width="0.7"/>
<path d="M49.24 29.91C49.24 30.3056 49.1227 30.6923 48.9029 31.0212C48.6832 31.3501 48.3708 31.6064 48.0054 31.7578C47.6399 31.9091 47.2378 31.9488 46.8498 31.8716C46.4619 31.7944 46.1055 31.6039 45.8258 31.3242C45.5461 31.0445 45.3556 30.6881 45.2785 30.3002C45.2013 29.9122 45.2409 29.5101 45.3923 29.1447C45.5436 28.7792 45.8 28.4668 46.1289 28.2471C46.4578 28.0273 46.8444 27.91 47.24 27.91C47.7704 27.91 48.2791 28.1207 48.6542 28.4958C49.0293 28.8709 49.24 29.3796 49.24 29.91Z" stroke="#004A9C" stroke-width="0.7"/>
<path d="M54.03 29.87C54.03 30.2656 53.9127 30.6522 53.6929 30.9811C53.4732 31.31 53.1608 31.5664 52.7954 31.7178C52.4299 31.8691 52.0278 31.9088 51.6398 31.8316C51.2519 31.7544 50.8955 31.5639 50.6158 31.2842C50.3361 31.0045 50.1456 30.6482 50.0684 30.2602C49.9913 29.8722 50.0309 29.4701 50.1823 29.1047C50.3336 28.7392 50.59 28.4269 50.9189 28.2071C51.2478 27.9873 51.6344 27.87 52.03 27.87C52.5604 27.87 53.0691 28.0807 53.4442 28.4558C53.8193 28.8309 54.03 29.3396 54.03 29.87Z" stroke="#004A9C" stroke-width="0.7"/>
<path d="M54.37 32.02V32.14L53.44 37.95C53.31 38.85 52.67 38.85 52.67 38.85H14.7C14.521 38.7998 14.3567 38.7072 14.2209 38.5801C14.0852 38.4531 13.982 38.2953 13.92 38.12L12.92 33.41L12.74 32.02L12.66 31.09C12.66 31.09 12.71 29.01 12.66 28.5C12.6246 28.2109 12.688 27.9184 12.84 27.67L17.84 21.76L22.64 11.85C22.7432 11.6301 22.9097 11.446 23.1181 11.3213C23.3265 11.1966 23.5674 11.137 23.81 11.15H43.31C43.31 11.15 44.69 11.36 45.07 12.15L49.56 21.59L53.71 26.48C54.1847 26.9583 54.5052 27.5678 54.63 28.23C54.69 29.14 54.63 30.53 54.63 30.53L54.36 32.03L54.37 32.02Z" stroke="#004A9C" stroke-width="0.7"/>
<path d="M19.56 44.28H15.25C15.1625 44.28 15.0758 44.2626 14.9951 44.2288C14.9144 44.195 14.8412 44.1455 14.7797 44.0832C14.7183 44.0208 14.6699 43.9469 14.6373 43.8657C14.6048 43.7844 14.5887 43.6975 14.59 43.61V38.85H20.21V43.69C20.21 43.69 20.36 44.28 19.56 44.28Z" stroke="#004A9C" stroke-width="0.7"/>
</g>
<defs>
<clipPath id="clip0_8063_7041">
<rect width="68.21" height="67.99" fill="white"/>
</clipPath>
</defs>
</svg>
