<svg width="62" height="74" viewBox="0 0 62 74" fill="none" xmlns="http://www.w3.org/2000/svg">
<g clip-path="url(#clip0_8063_8431)">
<path d="M10.822 8.82116V4.23975L8.06694 5.0347V8.82116" fill="white"/>
<path d="M10.822 8.82116V4.23975L8.06694 5.0347V8.82116H10.822Z" stroke="#231916" stroke-width="0.41" stroke-linecap="round"/>
<path d="M10.822 13.7443H8.06694V20.6408H10.822V13.7443Z" fill="white"/>
<path d="M10.822 13.7443H8.06694V20.6408H10.822V13.7443Z" stroke="#231916" stroke-width="0.41" stroke-linecap="round"/>
<path d="M10.822 25.536H8.06694V32.4325H10.822V25.536Z" fill="white"/>
<path d="M10.822 25.536H8.06694V32.4325H10.822V25.536Z" stroke="#231916" stroke-width="0.41" stroke-linecap="round"/>
<path d="M10.822 37.3625H8.06694V44.2661H10.822V37.3625Z" fill="white"/>
<path d="M10.822 37.3625H8.06694V44.2661H10.822V37.3625Z" stroke="#231916" stroke-width="0.41" stroke-linecap="round"/>
<path d="M10.822 49.1892H8.06694V56.0927H10.822V49.1892Z" fill="white"/>
<path d="M10.822 49.1892H8.06694V56.0927H10.822V49.1892Z" stroke="#231916" stroke-width="0.41" stroke-linecap="round"/>
<path d="M10.822 61.0228H8.06694V67.9263H10.822V61.0228Z" fill="white"/>
<path d="M10.822 61.0228H8.06694V67.9263H10.822V61.0228Z" stroke="#231916" stroke-width="0.41" stroke-linecap="round"/>
<path d="M20.5746 8.82109V6.22008H19.1652L17.8195 5.83655V8.82109" fill="white"/>
<path d="M20.5746 8.82109V6.22008H19.1652L17.8195 5.83655V8.82109H20.5746Z" stroke="#231916" stroke-width="0.41" stroke-linecap="round"/>
<path d="M20.5746 13.7443H17.8195V20.6408H20.5746V13.7443Z" fill="white"/>
<path d="M20.5746 13.7443H17.8195V20.6408H20.5746V13.7443Z" stroke="#231916" stroke-width="0.41" stroke-linecap="round"/>
<path d="M20.5746 25.536H17.8195V32.4325H20.5746V25.536Z" fill="white"/>
<path d="M20.5746 25.536H17.8195V32.4325H20.5746V25.536Z" stroke="#231916" stroke-width="0.41" stroke-linecap="round"/>
<path d="M20.5746 37.3625H17.8195V44.2661H20.5746V37.3625Z" fill="white"/>
<path d="M20.5746 37.3625H17.8195V44.2661H20.5746V37.3625Z" stroke="#231916" stroke-width="0.41" stroke-linecap="round"/>
<path d="M20.5746 49.1892H17.8195V56.0927H20.5746V49.1892Z" fill="white"/>
<path d="M20.5746 49.1892H17.8195V56.0927H20.5746V49.1892Z" stroke="#231916" stroke-width="0.41" stroke-linecap="round"/>
<path d="M20.5746 61.0228H17.8195V67.9263H20.5746V61.0228Z" fill="white"/>
<path d="M20.5746 61.0228H17.8195V67.9263H20.5746V61.0228Z" stroke="#231916" stroke-width="0.41" stroke-linecap="round"/>
<path d="M0.148727 0.146484V71.2875" stroke="#231916" stroke-width="0.41" stroke-linecap="round"/>
<path d="M61.7167 0.146484V73.5398" stroke="#231916" stroke-width="0.41" stroke-linecap="round"/>
<path d="M42.0628 70.1438V5.03468L39.9452 4.41406V70.3879L42.0628 70.876" fill="white"/>
<path d="M39.9452 4.41406V70.1438" stroke="#231916" stroke-width="0.41" stroke-linecap="round"/>
<path d="M42.0628 5.03467V70.9387" stroke="#231916" stroke-width="0.41" stroke-linecap="round"/>
<path d="M52.0987 71.0782V4.93701L49.981 5.90629V71.392" fill="white"/>
<path d="M49.981 5.90637V71.392" stroke="#231916" stroke-width="0.41" stroke-linecap="round"/>
<path d="M52.0987 4.93005V71.0782" stroke="#231916" stroke-width="0.41" stroke-linecap="round"/>
<path d="M31.8499 9.26746V12.1125" stroke="#231916" stroke-width="0.41" stroke-linecap="round"/>
<path d="M31.8499 14.6787V17.5168" stroke="#231916" stroke-width="0.41" stroke-linecap="round"/>
<path d="M31.8499 21.4078V24.2529" stroke="#231916" stroke-width="0.41" stroke-linecap="round"/>
<path d="M31.8499 27.8232V30.6683" stroke="#231916" stroke-width="0.41" stroke-linecap="round"/>
<path d="M31.8499 34.2734V37.1185" stroke="#231916" stroke-width="0.41" stroke-linecap="round"/>
<path d="M31.8499 40.6888V43.5339" stroke="#231916" stroke-width="0.41" stroke-linecap="round"/>
<path d="M31.8499 47.139V49.9562" stroke="#231916" stroke-width="0.41" stroke-linecap="round"/>
<path d="M31.8499 53.5614V56.4065" stroke="#231916" stroke-width="0.41" stroke-linecap="round"/>
<path d="M31.8499 59.9838V62.8219" stroke="#231916" stroke-width="0.41" stroke-linecap="round"/>
<path d="M31.8499 66.427V69.2721" stroke="#231916" stroke-width="0.41" stroke-linecap="round"/>
<path d="M30.6884 9.26746V12.1125" stroke="#231916" stroke-width="0.41" stroke-linecap="round"/>
<path d="M30.6884 14.6787V17.5168" stroke="#231916" stroke-width="0.41" stroke-linecap="round"/>
<path d="M30.6884 21.4078V24.2529" stroke="#231916" stroke-width="0.41" stroke-linecap="round"/>
<path d="M30.6884 27.8232V30.6683" stroke="#231916" stroke-width="0.41" stroke-linecap="round"/>
<path d="M30.6884 34.2734V37.1185" stroke="#231916" stroke-width="0.41" stroke-linecap="round"/>
<path d="M30.6884 40.6888V43.5339" stroke="#231916" stroke-width="0.41" stroke-linecap="round"/>
<path d="M30.6884 47.139V49.9562" stroke="#231916" stroke-width="0.41" stroke-linecap="round"/>
<path d="M30.6884 53.5614V56.4065" stroke="#231916" stroke-width="0.41" stroke-linecap="round"/>
<path d="M30.6884 59.9838V62.8219" stroke="#231916" stroke-width="0.41" stroke-linecap="round"/>
<path d="M30.6884 66.427V69.2721" stroke="#231916" stroke-width="0.41" stroke-linecap="round"/>
<path d="M0.148758 5.4879C7.77659 6.38745 8.94517 4.13513 11.8065 4.13513C14.6678 4.13513 17.7487 6.2271 19.6893 6.2271C21.6299 6.2271 22.5223 5.32756 25.242 5.52978C27.9616 5.732 30.1997 6.56879 32.1332 5.52978C34.0667 4.49077 36.1631 3.43779 42.4878 5.0765C48.8124 6.71521 48.8124 6.255 51.0788 5.35545C53.3452 4.4559 54.7192 5.80869 56.4474 6.11551C58.1755 6.42233 59.4928 5.07655 61.2209 5.21602" stroke="#231916" stroke-width="0.41" stroke-linecap="round"/>
<path d="M0.148758 71.2874C7.77659 72.187 8.94517 69.9346 11.8065 69.9346C14.6678 69.9346 17.7487 72.0265 19.6893 72.0265C21.6299 72.0265 22.5223 71.127 25.242 71.3292C27.9616 71.5314 30.1997 72.3682 32.1332 71.3292C34.0667 70.2902 36.1631 69.2372 42.4878 70.8759C48.8124 72.5147 48.8124 72.0544 51.0788 71.1549C53.3452 70.2553 54.7192 71.6012 56.4474 71.9219C58.1755 72.2427 61.1147 71.1898 61.8583 73.8954" stroke="#231916" stroke-width="0.41" stroke-linecap="round"/>
</g>
<defs>
<clipPath id="clip0_8063_8431">
<rect width="62" height="74" fill="white"/>
</clipPath>
</defs>
</svg>
