<svg width="72" height="72" viewBox="0 0 72 72" fill="none" xmlns="http://www.w3.org/2000/svg">
<g clip-path="url(#clip0_8063_6849)">
<path d="M35.94 71.37C42.9674 71.3404 49.8284 69.2298 55.6575 65.3047C61.4865 61.3795 66.0223 55.8158 68.6924 49.3154C71.3625 42.815 72.0473 35.6694 70.6603 28.7802C69.2734 21.891 65.8769 15.567 60.8994 10.6062C55.9219 5.64549 49.5866 2.27029 42.6928 0.906541C35.7989 -0.457207 28.6556 0.251624 22.1643 2.94359C15.6729 5.63556 10.1244 10.19 6.21894 16.0322C2.31345 21.8744 0.225998 28.7426 0.220009 35.77C0.225254 40.4537 1.15363 45.0904 2.95206 49.4151C4.7505 53.7397 7.38368 57.6675 10.7011 60.9737C14.0186 64.28 17.9552 66.9 22.2858 68.6839C26.6165 70.4678 31.2563 71.3806 35.94 71.37Z" stroke="#D20D18" stroke-width="0.45"/>
<path d="M35.93 2.35001C29.314 2.36583 22.8511 4.34266 17.3583 8.03067C11.8655 11.7187 7.58936 16.9523 5.0703 23.07C2.55124 29.1878 1.90238 35.9149 3.20571 42.4013C4.50904 48.8877 7.70606 54.8422 12.3927 59.5121C17.0793 64.1819 23.0452 67.3576 29.5362 68.6377C36.0273 69.9177 42.7521 69.2447 48.8607 66.7038C54.9694 64.1628 60.1877 59.8679 63.8559 54.3619C67.5242 48.8559 69.4779 42.386 69.47 35.77C69.4661 31.3722 68.595 27.0184 66.9066 22.9577C65.2182 18.8969 62.7456 15.2089 59.6303 12.1048C56.5151 9.00071 52.8183 6.54137 48.7515 4.86752C44.6847 3.19368 40.3278 2.33817 35.93 2.35001ZM35.93 61.88C30.7779 61.8583 25.7476 60.311 21.474 57.4334C17.2003 54.5559 13.8746 50.477 11.9167 45.7113C9.95872 40.9457 9.45614 35.7069 10.4724 30.656C11.4887 25.605 13.9782 20.9683 17.6269 17.3307C21.2756 13.6932 25.92 11.2178 30.974 10.217C36.028 9.21621 41.2652 9.73478 46.0249 11.7073C50.7845 13.6798 54.8532 17.0179 57.7177 21.3004C60.5822 25.5829 62.114 30.6178 62.12 35.77C62.1148 39.2026 61.433 42.6006 60.1136 45.7696C58.7942 48.9386 56.8631 51.8164 54.4308 54.2386C51.9984 56.6607 49.1125 58.5797 45.938 59.8857C42.7635 61.1917 39.3627 61.8592 35.93 61.85" fill="#D20D18"/>
<path d="M55.91 59.43L59.78 55.79L16.45 12.6L12.58 16.24" fill="#D20D18"/>
<path d="M42.79 51.4H51.71V33.4C51.71 28.4 46.71 21.79 41.37 21.79H32.37C31.66 21.79 31.06 21.47 31.93 20.7C32.8 19.93 33.57 17.88 32.64 16.96C31.71 16.04 31.23 16.09 29.54 17.17L16.54 26.67C15.72 27.27 16.1 27.27 16.7 27.6L29.7 35.6801C30.46 36.0101 31.22 36.93 32.2 35.57C33.07 34.38 32.2 32.97 31.27 31.99C30.34 31.01 30.02 30.47 31.71 30.58H38.19C40.09 30.47 42.76 31.8801 42.76 36.8701V51.36" fill="#231916"/>
</g>
<defs>
<clipPath id="clip0_8063_6849">
<rect width="71.87" height="71.59" fill="white"/>
</clipPath>
</defs>
</svg>
