<svg width="71" height="71" viewBox="0 0 71 71" fill="none" xmlns="http://www.w3.org/2000/svg">
<g clip-path="url(#clip0_8063_6939)">
<path d="M51.27 27.47C51.5702 27.4875 51.8649 27.5586 52.14 27.68C52.4462 27.8528 52.7068 28.0963 52.9 28.39C53.1 28.6907 53.2299 29.0324 53.28 29.39C53.3404 29.7668 53.3604 30.1489 53.34 30.53V35.41H51.54V30.47C51.5652 30.2115 51.5275 29.9507 51.43 29.71C51.3621 29.551 51.2492 29.4153 51.1053 29.3194C50.9615 29.2235 50.7929 29.1716 50.62 29.17C50.3981 29.1605 50.1795 29.2251 49.9984 29.3537C49.8173 29.4823 49.6842 29.6674 49.62 29.88C49.4958 30.1703 49.4378 30.4845 49.4501 30.8V35.41H47.7099V30.8C47.7379 30.4633 47.704 30.1244 47.61 29.8C47.5429 29.6259 47.4204 29.4786 47.2613 29.381C47.1023 29.2835 46.9156 29.241 46.73 29.26C46.5272 29.2285 46.3197 29.2643 46.1391 29.3618C45.9586 29.4593 45.8149 29.6132 45.73 29.8C45.6541 30.1278 45.6171 30.4635 45.62 30.8V35.46H43.88V27.7H45.51V28.84C45.6605 28.5033 45.8864 28.2057 46.17 27.97C46.3336 27.8076 46.5293 27.681 46.7445 27.5984C46.9597 27.5157 47.1898 27.4788 47.42 27.49C47.8756 27.4735 48.321 27.6268 48.67 27.92C48.9288 28.1748 49.118 28.4914 49.22 28.84C49.407 28.4294 49.7093 28.082 50.09 27.84C50.4289 27.6207 50.8264 27.5091 51.23 27.52" fill="#231916"/>
<path d="M35.27 69.9C42.1559 69.8683 48.8781 67.7969 54.5875 63.9473C60.2969 60.0976 64.7374 54.6424 67.3484 48.2706C69.9593 41.8988 70.6235 34.8962 69.2572 28.1471C67.8908 21.398 64.5551 15.2052 59.6713 10.3507C54.7876 5.49626 48.5748 2.19788 41.8176 0.872142C35.0604 -0.453598 28.0619 0.252795 21.706 2.90205C15.35 5.5513 9.92157 10.0246 6.10634 15.7571C2.29112 21.4895 0.260169 28.224 0.269979 35.11C0.276529 39.6969 1.18744 44.2375 2.95064 48.4719C4.71385 52.7064 7.29471 56.5516 10.5456 59.7876C13.7964 63.0236 17.6534 65.5868 21.8959 67.3306C26.1384 69.0744 30.6831 69.9645 35.27 69.95" stroke="#D20D18" stroke-width="0.45"/>
<path d="M35.27 2.27997C28.7893 2.28195 22.4546 4.20494 17.0663 7.80585C11.6781 11.4068 7.47815 16.524 4.99718 22.511C2.51621 28.4981 1.86559 35.0861 3.12749 41.4428C4.3894 47.7995 7.5072 53.6394 12.087 58.2248C16.6667 62.8101 22.5029 65.9351 28.858 67.2048C35.2131 68.4744 41.8021 67.8318 47.7921 65.3582C53.7821 62.8845 58.9045 58.6907 62.512 53.3069C66.1194 47.923 68.0502 41.5907 68.0601 35.11C68.0574 26.4107 64.6032 18.0678 58.4556 11.9127C52.308 5.75762 43.9693 2.29321 35.27 2.27997ZM35.27 60.62C30.2126 60.62 25.2688 59.1196 21.0644 56.3088C16.86 53.4981 13.584 49.5032 11.6509 44.8298C9.71783 40.1564 9.21459 35.0146 10.2049 30.0551C11.1952 25.0955 13.6345 20.5413 17.2141 16.9686C20.7937 13.396 25.3528 10.9656 30.3142 9.98505C35.2756 9.00446 40.4165 9.51778 45.0861 11.46C49.7557 13.4023 53.7442 16.6861 56.5467 20.896C59.3493 25.1059 60.84 30.0526 60.8301 35.11C60.8037 41.8762 58.1007 48.357 53.3115 53.1368C48.5224 57.9166 42.0362 60.6068 35.27 60.62Z" fill="#D20D18"/>
<path d="M31.27 49.66L25.89 52.27C25.56 52.37 25.39 52.37 25.94 52.76L30.89 55.03C31.27 55.14 31.89 54.82 31.54 53.57H39.06V54.82C39.1588 54.8982 39.2767 54.9486 39.4015 54.9662C39.5262 54.9838 39.6534 54.9678 39.77 54.92L45.48 52.59C45.81 52.32 45.81 52.04 45.37 51.94C44.93 51.84 40.42 49.66 40.42 49.66C39.82 49.33 39.28 49.55 39.28 49.87V51.11H31.33" fill="#231916"/>
<path d="M29.13 17.48V19.7H22.27V24.21C22.3419 23.9771 22.4594 23.7608 22.6156 23.5737C22.7719 23.3866 22.9637 23.2323 23.18 23.12C23.9209 22.8014 24.7243 22.6544 25.53 22.69C26.1446 22.6416 26.7624 22.7235 27.3431 22.9302C27.9238 23.137 28.4544 23.4641 28.9 23.89C29.7345 24.8883 30.1471 26.1725 30.05 27.47V29.86C30.1768 31.4073 29.8279 32.9564 29.05 34.3C28.5633 34.873 27.9456 35.3203 27.2493 35.6041C26.553 35.8878 25.7987 35.9996 25.05 35.93C22.93 35.93 21.51 35.44 20.7 34.46C19.99 33.65 19.7 32.19 19.7 30.23V29.47H22.53V30.34C22.4623 31.1831 22.6321 32.0283 23.02 32.78C23.2512 33.0681 23.5505 33.294 23.891 33.4372C24.2315 33.5804 24.6024 33.6363 24.97 33.6C25.3601 33.6248 25.7488 33.5348 26.0882 33.3411C26.4277 33.1473 26.7029 32.8584 26.88 32.51C27.1896 31.8298 27.3368 31.0869 27.31 30.34V27.19C27.3165 26.871 27.2517 26.5546 27.1202 26.2639C26.9887 25.9732 26.7939 25.7157 26.55 25.51C26.026 25.0534 25.3439 24.8201 24.65 24.86C24.365 24.8537 24.0818 24.9085 23.8197 25.0206C23.5575 25.1327 23.3224 25.2996 23.13 25.51C22.7742 25.857 22.5603 26.324 22.53 26.82H19.75V17.48" fill="#231916"/>
<path d="M41.17 31.26C41.3032 32.5215 40.9451 33.7858 40.17 34.79C39.45 35.56 38.17 35.93 36.24 35.93H36.19V33.7H36.24C36.5582 33.7408 36.8817 33.6977 37.1781 33.5749C37.4746 33.4521 37.7338 33.2539 37.93 33C38.2492 32.4611 38.3828 31.8321 38.31 31.21V21.82C38.3843 21.1978 38.2507 20.5684 37.93 20.03C37.7193 19.7963 37.4564 19.6158 37.1628 19.5028C36.8691 19.3899 36.5529 19.3478 36.24 19.38H36.19V17.11C37.6191 16.9746 39.0469 17.3815 40.19 18.25C40.9727 19.2503 41.3317 20.5178 41.19 21.78M36.19 35.89C34.7996 35.9661 33.4339 35.5 32.38 34.59C31.4585 33.4702 31.01 32.0352 31.13 30.59V21.97C31.13 20.18 31.45 18.97 32.13 18.22C32.81 17.47 34.2 17.08 36.13 17.08H36.24V19.31C35.927 19.2778 35.6109 19.3199 35.3172 19.4328C35.0236 19.5457 34.7607 19.7263 34.55 19.96C34.2068 20.4902 34.055 21.1218 34.12 21.75V31.14C34.055 31.7683 34.2068 32.3998 34.55 32.93C34.7462 33.1839 35.0054 33.3821 35.3019 33.5049C35.5983 33.6277 35.9217 33.6708 36.24 33.63L36.19 35.89Z" fill="#231916"/>
<path d="M25.82 43.91L20.82 43.8L18.69 41.63C18.2549 41.1293 17.7098 40.736 17.0974 40.481C16.485 40.226 15.8219 40.1161 15.16 40.16H14.24V41.84C14.5222 41.7981 14.8105 41.8317 15.0757 41.937C15.3408 42.0424 15.5734 42.2159 15.75 42.44C16.75 43.36 16.68 43.25 16.68 43.85H14.27V48.46H16.55C16.5903 47.9577 16.8187 47.4893 17.1895 47.1481C17.5603 46.807 18.0462 46.6184 18.55 46.62C19.0506 46.6296 19.5303 46.822 19.8987 47.1609C20.2672 47.4999 20.4988 47.9619 20.55 48.46H26.55C26.9536 47.7352 27.0982 46.8945 26.96 46.0765C26.8219 45.2586 26.4092 44.512 25.79 43.96M14.27 40.11L9.96001 39.95L10.34 41.52C10.5411 41.5574 10.7455 41.5742 10.95 41.57L12.26 43.8H11.11L13.11 48.41H14.27V43.8H13.18L11.87 41.63C12.52 41.68 13.23 41.74 13.61 41.79H14.27V40.11Z" fill="#231916"/>
<path d="M18.52 46.89C18.0885 46.8926 17.6755 47.0652 17.3703 47.3703C17.0652 47.6754 16.8926 48.0885 16.89 48.52C16.9222 48.9315 17.1084 49.3158 17.4115 49.5961C17.7146 49.8763 18.1122 50.032 18.525 50.032C18.9378 50.032 19.3354 49.8763 19.6385 49.5961C19.9415 49.3158 20.1278 48.9315 20.16 48.52C20.1548 48.0876 19.98 47.6745 19.6733 47.3697C19.3666 47.0648 18.9524 46.8926 18.52 46.89Z" fill="#231916"/>
<path d="M56.14 48.41H57.3301L59.3301 43.79H58.1801L59.49 41.58C59.6917 41.5841 59.8931 41.564 60.09 41.52L60.47 39.95L56.1701 40.11V41.79H56.8201C57.2001 41.79 57.9101 41.68 58.5601 41.63L57.26 43.79H56.1701M43.87 48.41H49.87C49.9212 47.912 50.1529 47.4499 50.5214 47.111C50.8898 46.772 51.3695 46.5796 51.87 46.57C52.3739 46.5684 52.8598 46.757 53.2306 47.0981C53.6014 47.4392 53.8297 47.9077 53.87 48.41H56.16V43.79H53.71C53.71 43.2 53.66 43.31 54.64 42.39C54.8188 42.1659 55.0533 41.9925 55.32 41.8872C55.5867 41.7819 55.8763 41.7484 56.16 41.79V40.11H55.24C54.5765 40.0653 53.9118 40.1748 53.2976 40.4298C52.6835 40.6848 52.1368 41.0785 51.7001 41.58L49.5701 43.74L44.62 43.86C43.9977 44.4099 43.5827 45.1567 43.4444 45.9756C43.3061 46.7945 43.4528 47.6361 43.8601 48.36" fill="#231916"/>
<path d="M51.89 46.89C52.3224 46.8926 52.7366 47.0649 53.0433 47.3697C53.35 47.6745 53.5248 48.0876 53.53 48.52C53.5173 48.95 53.3401 49.3587 53.035 49.662C52.7299 49.9653 52.3201 50.1399 51.89 50.15C51.4585 50.1473 51.0455 49.9748 50.7403 49.6697C50.4352 49.3646 50.2626 48.9515 50.26 48.52C50.2573 48.3052 50.2977 48.092 50.3787 47.8931C50.4596 47.6941 50.5795 47.5133 50.7314 47.3614C50.8833 47.2095 51.0641 47.0896 51.263 47.0086C51.462 46.9276 51.6752 46.8873 51.89 46.89Z" fill="#231916"/>
</g>
<defs>
<clipPath id="clip0_8063_6939">
<rect width="70.41" height="70.12" fill="white"/>
</clipPath>
</defs>
</svg>
