<svg width="72" height="61" viewBox="0 0 72 61" fill="none" xmlns="http://www.w3.org/2000/svg">
<g clip-path="url(#clip0_8063_9124)">
<path d="M48.769 41.5828L45.3666 52.5361L45.0264 51.6903V47.4823L45.1625 47.8915L47.2039 41.7533L45.0604 36.6995V32.4232M45.0604 51.6631L41.0933 41.5555L44.4956 31.1683L45.0331 32.4232V36.6995L44.6997 35.922L42.8625 41.5555L45.0331 47.455L45.0604 51.6631Z" fill="white"/>
<path d="M48.769 41.5829L45.3666 52.5362L41.0592 41.5829L44.4616 31.1957L48.769 41.5829ZM44.6862 35.9493L42.8489 41.5829L45.1557 47.8916L47.1971 41.7534L44.6862 35.9493Z" stroke="#231916" stroke-width="0.41"/>
<path d="M66.4611 41.5828L63.0042 52.5361L62.6913 51.6903V47.4823L62.8273 47.8915L64.8687 41.7533L62.7252 36.6995V32.4232M62.7252 51.6631L58.7581 41.5555L62.1605 31.1683L62.6981 32.4232V36.6995L62.3578 35.922L60.5273 41.5555L62.6981 47.455L62.7252 51.6631Z" fill="white"/>
<path d="M66.4611 41.5829L63.0042 52.5362L58.7241 41.5829L62.1264 31.1957L66.4611 41.5829ZM62.3783 35.9493L60.5478 41.5829L62.8546 47.8916L64.896 41.7534L62.3783 35.9493Z" stroke="#231916" stroke-width="0.41"/>
<path d="M0.142899 0V60.9659" stroke="#231916" stroke-width="0.41"/>
<path d="M71.8571 0V60.9659" stroke="#231916" stroke-width="0.41"/>
<path d="M53.7908 18.7625V60.4885" stroke="#231916" stroke-width="0.41"/>
<path d="M35.459 11.9763V14.4862" stroke="#231916" stroke-width="0.41"/>
<path d="M32.6759 11.9763V14.4862" stroke="#231916" stroke-width="0.41"/>
<path d="M35.459 15.6729V18.1827" stroke="#231916" stroke-width="0.41"/>
<path d="M32.6759 15.6729V18.1827" stroke="#231916" stroke-width="0.41"/>
<path d="M35.459 19.3694V21.8451" stroke="#231916" stroke-width="0.41"/>
<path d="M32.6759 19.3694V21.8451" stroke="#231916" stroke-width="0.41"/>
<path d="M35.459 23.0319V25.5417" stroke="#231916" stroke-width="0.41"/>
<path d="M32.6759 23.0319V25.5417" stroke="#231916" stroke-width="0.41"/>
<path d="M35.459 26.7284V29.2041" stroke="#231916" stroke-width="0.41"/>
<path d="M32.6759 26.7284V29.2041" stroke="#231916" stroke-width="0.41"/>
<path d="M35.459 30.3977V32.9075" stroke="#231916" stroke-width="0.41"/>
<path d="M32.6759 30.3977V32.9075" stroke="#231916" stroke-width="0.41"/>
<path d="M35.459 34.0942V36.57" stroke="#231916" stroke-width="0.41"/>
<path d="M32.6759 34.0942V36.57" stroke="#231916" stroke-width="0.41"/>
<path d="M35.459 37.7567V40.2734" stroke="#231916" stroke-width="0.41"/>
<path d="M32.6759 37.7567V40.2734" stroke="#231916" stroke-width="0.41"/>
<path d="M35.459 41.4532V43.929" stroke="#231916" stroke-width="0.41"/>
<path d="M32.6759 41.4532V43.929" stroke="#231916" stroke-width="0.41"/>
<path d="M35.459 45.1157V47.6324" stroke="#231916" stroke-width="0.41"/>
<path d="M32.6759 45.1157V47.6324" stroke="#231916" stroke-width="0.41"/>
<path d="M35.459 48.8191V51.288" stroke="#231916" stroke-width="0.41"/>
<path d="M32.6759 48.8191V51.288" stroke="#231916" stroke-width="0.41"/>
<path d="M35.459 52.4816V54.9914" stroke="#231916" stroke-width="0.41"/>
<path d="M32.6759 52.4816V54.9914" stroke="#231916" stroke-width="0.41"/>
<path d="M35.459 56.1849V58.6539" stroke="#231916" stroke-width="0.41"/>
<path d="M32.6759 56.1849V58.6539" stroke="#231916" stroke-width="0.41"/>
<path d="M15.4534 10.619V15.2636" stroke="#231916" stroke-width="0.41"/>
<path d="M35.459 18.7283H39.2628" stroke="#231916" stroke-width="0.41"/>
<path d="M68.5364 10.2781H71.0133" stroke="#231916" stroke-width="0.41"/>
<path d="M63.2356 10.2781H65.7533" stroke="#231916" stroke-width="0.41"/>
<path d="M58.1049 10.2781H60.5818" stroke="#231916" stroke-width="0.41"/>
<path d="M51.9943 10.2781H54.4712" stroke="#231916" stroke-width="0.41"/>
<path d="M46.1491 10.2781H48.6669" stroke="#231916" stroke-width="0.41"/>
<path d="M40.3107 10.2781H42.8285" stroke="#231916" stroke-width="0.41"/>
<path d="M34.2002 10.2781H36.7111" stroke="#231916" stroke-width="0.41"/>
<path d="M28.634 10.2781H31.1449" stroke="#231916" stroke-width="0.41"/>
<path d="M22.9249 10.2781H25.4426" stroke="#231916" stroke-width="0.41"/>
<path d="M17.3927 10.2781H19.8696" stroke="#231916" stroke-width="0.41"/>
<path d="M11.5543 10.2781H14.072" stroke="#231916" stroke-width="0.41"/>
<path d="M5.7091 10.2781H8.22002" stroke="#231916" stroke-width="0.41"/>
<path d="M0.449108 10.2781H2.926" stroke="#231916" stroke-width="0.41"/>
<path d="M68.5364 8.75037H71.0133" stroke="#231916" stroke-width="0.41"/>
<path d="M63.2356 8.75037H65.7533" stroke="#231916" stroke-width="0.41"/>
<path d="M58.1049 8.75037H60.5818" stroke="#231916" stroke-width="0.41"/>
<path d="M51.9943 8.75037H54.4712" stroke="#231916" stroke-width="0.41"/>
<path d="M46.1491 8.75037H48.6669" stroke="#231916" stroke-width="0.41"/>
<path d="M40.3107 8.75037H42.8285" stroke="#231916" stroke-width="0.41"/>
<path d="M34.2002 8.75037H36.7111" stroke="#231916" stroke-width="0.41"/>
<path d="M28.634 8.75037H31.1449" stroke="#231916" stroke-width="0.41"/>
<path d="M22.9249 8.75037H25.4426" stroke="#231916" stroke-width="0.41"/>
<path d="M17.3927 8.75037H19.8696" stroke="#231916" stroke-width="0.41"/>
<path d="M11.5543 8.75037H14.072" stroke="#231916" stroke-width="0.41"/>
<path d="M5.7091 8.75037H8.22002" stroke="#231916" stroke-width="0.41"/>
<path d="M0.449108 8.75037H2.926" stroke="#231916" stroke-width="0.41"/>
<path d="M68.5364 3.19189H71.0133" stroke="#231916" stroke-width="0.41"/>
<path d="M63.2356 3.19189H65.7533" stroke="#231916" stroke-width="0.41"/>
<path d="M58.1049 3.19189H60.5818" stroke="#231916" stroke-width="0.41"/>
<path d="M51.9943 3.19189H54.4712" stroke="#231916" stroke-width="0.41"/>
<path d="M46.1491 3.19189H48.6669" stroke="#231916" stroke-width="0.41"/>
<path d="M40.3107 3.19189H42.8285" stroke="#231916" stroke-width="0.41"/>
<path d="M34.2002 3.19189H36.7111" stroke="#231916" stroke-width="0.41"/>
<path d="M28.634 3.19189H31.1449" stroke="#231916" stroke-width="0.41"/>
<path d="M22.9249 3.19189H25.4426" stroke="#231916" stroke-width="0.41"/>
<path d="M17.3927 3.19189H19.8696" stroke="#231916" stroke-width="0.41"/>
<path d="M11.5543 3.19189H14.072" stroke="#231916" stroke-width="0.41"/>
<path d="M5.7091 3.19189H8.22002" stroke="#231916" stroke-width="0.41"/>
<path d="M0.449108 3.19189H2.926" stroke="#231916" stroke-width="0.41"/>
<path d="M68.5364 0.845703H71.0133" stroke="#231916" stroke-width="0.41"/>
<path d="M63.2356 0.845703H65.7533" stroke="#231916" stroke-width="0.41"/>
<path d="M58.1049 0.845703H60.5818" stroke="#231916" stroke-width="0.41"/>
<path d="M51.9943 0.845703H54.4712" stroke="#231916" stroke-width="0.41"/>
<path d="M46.1491 0.845703H48.6669" stroke="#231916" stroke-width="0.41"/>
<path d="M40.3107 0.845703H42.8285" stroke="#231916" stroke-width="0.41"/>
<path d="M34.2002 0.845703H36.7111" stroke="#231916" stroke-width="0.41"/>
<path d="M28.634 0.845703H31.1449" stroke="#231916" stroke-width="0.41"/>
<path d="M22.9249 0.845703H25.4426" stroke="#231916" stroke-width="0.41"/>
<path d="M17.3927 0.845703H19.8696" stroke="#231916" stroke-width="0.41"/>
<path d="M11.5543 0.845703H14.072" stroke="#231916" stroke-width="0.41"/>
<path d="M5.7091 0.845703H8.22002" stroke="#231916" stroke-width="0.41"/>
<path d="M0.449108 0.845703H2.926" stroke="#231916" stroke-width="0.41"/>
<path d="M43.6042 18.7283H47.408" stroke="#231916" stroke-width="0.41"/>
<path d="M51.7221 18.7283H55.5259" stroke="#231916" stroke-width="0.41"/>
<path d="M59.8741 18.7283H63.6779" stroke="#231916" stroke-width="0.41"/>
<path d="M68.0261 18.7283H71.8231" stroke="#231916" stroke-width="0.41"/>
<path d="M35.459 14.452H39.2628" stroke="#231916" stroke-width="0.41"/>
<path d="M43.6042 14.452H47.408" stroke="#231916" stroke-width="0.41"/>
<path d="M51.7221 14.452H55.5259" stroke="#231916" stroke-width="0.41"/>
<path d="M59.8741 14.452H63.6779" stroke="#231916" stroke-width="0.41"/>
<path d="M68.0261 14.452H71.8231" stroke="#231916" stroke-width="0.41"/>
<path d="M15.4534 18.2168V22.8955" stroke="#231916" stroke-width="0.41"/>
<path d="M15.4534 25.8486V30.5341" stroke="#231916" stroke-width="0.41"/>
<path d="M15.4534 33.4873V38.1319" stroke="#231916" stroke-width="0.41"/>
<path d="M15.4534 41.085V45.7636" stroke="#231916" stroke-width="0.41"/>
<path d="M15.4534 48.7168V53.3955" stroke="#231916" stroke-width="0.41"/>
<path d="M15.4534 56.3486V61" stroke="#231916" stroke-width="0.41"/>
</g>
<defs>
<clipPath id="clip0_8063_9124">
<rect width="72" height="61" fill="white"/>
</clipPath>
</defs>
</svg>
