<svg width="71" height="47" viewBox="0 0 71 47" fill="none" xmlns="http://www.w3.org/2000/svg">
<g clip-path="url(#clip0_8063_9318)">
<path d="M67.4658 32.8567L66.6769 35.2547H67.2449V37.4142H67.7498V35.2924H68.2547" fill="white"/>
<path d="M64.1588 32.8567L63.3383 35.2547H63.9063V37.251H64.4112V35.2924H64.9161" fill="white"/>
<path d="M10.1167 17.8031H0.132538V20.4899H10.1167V17.8031Z" fill="white"/>
<path d="M10.1167 17.8031H0.132538V20.4899H10.1167V17.8031Z" stroke="#231916" stroke-width="0.41"/>
<path d="M60.126 15.493H50.1418V18.1484H60.126V15.493Z" fill="white"/>
<path d="M60.126 15.493H50.1418V18.1484H60.126V15.493Z" stroke="#231916" stroke-width="0.41"/>
<path d="M60.126 20.8979H50.1418V23.5785H60.126V20.8979Z" fill="white"/>
<path d="M60.126 20.8979H50.1418V23.5785H60.126V20.8979Z" stroke="#231916" stroke-width="0.41"/>
<path d="M60.126 26.2966H50.1418V28.9771H60.126V26.2966Z" fill="white"/>
<path d="M60.126 26.2966H50.1418V28.9771H60.126V26.2966Z" stroke="#231916" stroke-width="0.41"/>
<path d="M60.126 31.733H50.1418V34.3884H60.126V31.733Z" fill="white"/>
<path d="M60.126 31.733H50.1418V34.3884H60.126V31.733Z" stroke="#231916" stroke-width="0.41"/>
<path d="M70.8675 13.1515H60.8833V15.8069H70.8675V13.1515Z" fill="white"/>
<path d="M70.8675 13.1515H60.8833V15.8069H70.8675V13.1515Z" stroke="#231916" stroke-width="0.41"/>
<path d="M70.8675 18.5502H60.8833V21.2056H70.8675V18.5502Z" fill="white"/>
<path d="M70.8675 18.5502H60.8833V21.2056H70.8675V18.5502Z" stroke="#231916" stroke-width="0.41"/>
<path d="M70.8675 23.9551H60.8833V26.6105H70.8675V23.9551Z" fill="white"/>
<path d="M70.8675 23.9551H60.8833V26.6105H70.8675V23.9551Z" stroke="#231916" stroke-width="0.41"/>
<path d="M70.8675 29.3538H60.8833V32.0092H70.8675V29.3538Z" fill="white"/>
<path d="M70.8675 29.3601H60.8833V32.0155H70.8675V29.3601Z" stroke="#231916" stroke-width="0.41"/>
<path d="M10.1167 23.2081H0.132538V25.8949H10.1167V23.2081Z" fill="white"/>
<path d="M10.1167 23.2081H0.132538V25.8949H10.1167V23.2081Z" stroke="#231916" stroke-width="0.41"/>
<path d="M10.1167 28.6382H0.132538V31.2936H10.1167V28.6382Z" fill="white"/>
<path d="M10.1167 28.6382H0.132538V31.2936H10.1167V28.6382Z" stroke="#231916" stroke-width="0.41"/>
<path d="M21.0412 15.2733H11.0571V17.9287H21.0412V15.2733Z" fill="white"/>
<path d="M21.0412 15.2733H11.0571V17.9287H21.0412V15.2733Z" stroke="#231916" stroke-width="0.41"/>
<path d="M21.0412 20.6782H11.0571V23.365H21.0412V20.6782Z" fill="white"/>
<path d="M21.0412 20.6782H11.0571V23.365H21.0412V20.6782Z" stroke="#231916" stroke-width="0.41"/>
<path d="M21.0412 26.1146H11.0571V28.77H21.0412V26.1146Z" fill="white"/>
<path d="M21.0412 26.1146H11.0571V28.77H21.0412V26.1146Z" stroke="#231916" stroke-width="0.41"/>
<path d="M18.3022 29.448L17.4818 31.8209H18.0813V34.357H18.5547V31.89H19.0596" fill="white"/>
<path d="M13.6699 29.448L12.8494 31.8209H13.449V34.357H13.9223V31.89H14.4335" fill="white"/>
<path d="M2.90312 17.4265L3.71725 15.0222H3.15556V12.53H2.65067V14.9908H2.14578" fill="white"/>
<path d="M7.28303 17.4265L8.09716 15.0222H7.52916V12.53H7.02427V14.9908H6.5257" fill="white"/>
<path d="M52.4706 14.6769L53.291 12.2789H52.723V9.7804H52.2245V12.2412H51.7133" fill="white"/>
<path d="M56.9451 14.6769L57.7656 12.2789H57.166V9.7804H56.6927V12.2412H56.1878" fill="white"/>
<path d="M29.637 37.3828H26.8664V46.8682H29.637V37.3828Z" fill="white"/>
<path d="M29.637 37.3828H26.8664V46.8682H29.637V37.3828Z" stroke="#231916" stroke-width="0.41"/>
<path d="M34.5849 37.3828H31.7827V46.8682H34.5849V37.3828Z" fill="white"/>
<path d="M34.5849 37.3828H31.7827V46.8682H34.5849V37.3828Z" stroke="#231916" stroke-width="0.41"/>
<path d="M39.5265 37.3828H36.7244V46.8682H39.5265V37.3828Z" fill="white"/>
<path d="M39.5265 37.3828H36.7244V46.8682H39.5265V37.3828Z" stroke="#231916" stroke-width="0.41"/>
<path d="M44.4744 37.3828H41.6723V46.8682H44.4744V37.3828Z" fill="white"/>
<path d="M44.4744 37.3828H41.6723V46.8682H44.4744V37.3828Z" stroke="#231916" stroke-width="0.41"/>
<path d="M29.637 0.131836H26.8664V9.65488H29.637V0.131836Z" fill="white"/>
<path d="M29.637 0.131836H26.8664V9.65488H29.637V0.131836Z" stroke="#231916" stroke-width="0.41"/>
<path d="M34.5849 0.131836H31.7827V9.65488H34.5849V0.131836Z" fill="white"/>
<path d="M34.5849 0.131836H31.7827V9.65488H34.5849V0.131836Z" stroke="#231916" stroke-width="0.41"/>
<path d="M39.5265 0.131836H36.7244V9.65488H39.5265V0.131836Z" fill="white"/>
<path d="M39.5265 0.131836H36.7244V9.65488H39.5265V0.131836Z" stroke="#231916" stroke-width="0.41"/>
<path d="M44.4744 0.131836H41.6723V9.65488H44.4744V0.131836Z" fill="white"/>
<path d="M44.4744 0.131836H41.6723V9.65488H44.4744V0.131836Z" stroke="#231916" stroke-width="0.41"/>
</g>
<defs>
<clipPath id="clip0_8063_9318">
<rect width="71" height="47" fill="white"/>
</clipPath>
</defs>
</svg>
