<svg width="77" height="33" viewBox="0 0 77 33" fill="none" xmlns="http://www.w3.org/2000/svg">
<g clip-path="url(#clip0_8063_8153)">
<path d="M5.83999 31.87C4.35699 31.8637 2.9368 31.2704 1.88998 30.22C1.36864 29.7066 0.954396 29.095 0.671165 28.4204C0.387934 27.7458 0.241386 27.0217 0.240013 26.29" stroke="#231916" stroke-width="0.49"/>
<path d="M0.240002 26.28V5.82996" stroke="#231916" stroke-width="0.49"/>
<path d="M0.290001 5.82996C0.300527 4.34984 0.894518 2.93367 1.94302 1.88892C2.99151 0.844163 4.40983 0.25523 5.88998 0.25" stroke="#231916" stroke-width="0.49"/>
<path d="M5.85 0.23999H71.01" stroke="#231916" stroke-width="0.49"/>
<path d="M71.01 0.25C72.4913 0.254718 73.9109 0.844128 74.96 1.89001C75.979 2.9495 76.5518 4.36001 76.56 5.82996" stroke="#231916" stroke-width="0.49"/>
<path d="M76.56 5.82996V26.28" stroke="#231916" stroke-width="0.49"/>
<path d="M76.56 26.29C76.5519 27.7551 75.9829 29.1614 74.97 30.22C74.4464 30.747 73.8229 31.1644 73.1361 31.4478C72.4493 31.7311 71.7129 31.8746 70.97 31.87" stroke="#231916" stroke-width="0.49"/>
<path d="M71.01 31.87H5.85" stroke="#231916" stroke-width="0.49"/>
<path d="M5.83998 29.75C5.38329 29.7567 4.92986 29.6719 4.50649 29.5005C4.08311 29.3291 3.69839 29.0747 3.37496 28.7522C3.05152 28.4297 2.79597 28.0457 2.62337 27.6228C2.45077 27.1999 2.36462 26.7468 2.37001 26.29" stroke="#231916" stroke-width="0.49"/>
<path d="M2.37 26.28V5.82996" stroke="#231916" stroke-width="0.49"/>
<path d="M2.37002 5.82996C2.3694 4.91085 2.7283 4.02799 3.37002 3.37C4.034 2.73124 4.91865 2.37307 5.83999 2.37" stroke="#231916" stroke-width="0.49"/>
<path d="M5.85 2.35999H71.01" stroke="#231916" stroke-width="0.49"/>
<path d="M71.01 2.35999C71.9324 2.3725 72.8169 2.72914 73.49 3.35999C74.1296 4.02339 74.488 4.90841 74.49 5.82996" stroke="#231916" stroke-width="0.49"/>
<path d="M74.49 5.82996V26.28" stroke="#231916" stroke-width="0.49"/>
<path d="M74.49 26.29C74.4885 27.2087 74.1299 28.0908 73.49 28.75C72.8149 29.384 71.9261 29.741 71 29.75" stroke="#231916" stroke-width="0.49"/>
<path d="M71.01 29.75H5.85" stroke="#231916" stroke-width="0.49"/>
<path d="M24.84 14.5301H25.19C25.5788 14.561 25.9681 14.4776 26.31 14.2901C26.5535 14.1662 26.7526 13.9698 26.8797 13.728C27.0069 13.4862 27.0559 13.2109 27.02 12.9401C27.0101 12.5938 26.9284 12.2532 26.78 11.9401C26.6425 11.7803 26.4698 11.6546 26.2754 11.573C26.081 11.4915 25.8703 11.4562 25.66 11.47C25.3894 11.4422 25.117 11.5021 24.883 11.6407C24.649 11.7793 24.4657 11.9894 24.36 12.24C24.231 12.5988 24.1733 12.9792 24.19 13.36H22.19C22.1382 12.4138 22.4575 11.4846 23.08 10.7701C23.4268 10.4061 23.8492 10.1225 24.3174 9.93938C24.7856 9.75624 25.2883 9.67793 25.79 9.71001C26.5917 9.69172 27.3765 9.94168 28.02 10.4201C28.397 10.7071 28.6974 11.0826 28.8945 11.5135C29.0916 11.9443 29.1793 12.4172 29.15 12.8901C29.1394 13.3848 28.998 13.8678 28.74 14.2901C28.5138 14.6184 28.2074 14.8835 27.85 15.0601V15.12C28.2273 15.2304 28.571 15.4331 28.85 15.71C29.327 16.3051 29.5594 17.0596 29.5 17.82C29.5288 18.2982 29.4544 18.777 29.2819 19.2239C29.1093 19.6708 28.8427 20.0753 28.5 20.4101C28.1474 20.7481 27.7298 21.0109 27.2725 21.1828C26.8153 21.3547 26.328 21.432 25.84 21.4101C25.0409 21.4302 24.2497 21.2478 23.54 20.8801C23.0412 20.5215 22.6431 20.0406 22.3839 19.4837C22.1247 18.9268 22.0132 18.3125 22.06 17.7H24.18C24.1348 18.112 24.2186 18.5278 24.42 18.8901C24.5345 19.1333 24.72 19.3361 24.9521 19.4717C25.1842 19.6074 25.4519 19.6696 25.72 19.6501C25.9353 19.6686 26.152 19.6406 26.3556 19.5682C26.5592 19.4957 26.7448 19.3804 26.9 19.23C27.232 18.8379 27.4003 18.3329 27.37 17.82C27.3978 17.5055 27.3283 17.1901 27.1709 16.9164C27.0135 16.6428 26.7758 16.4242 26.49 16.2901C25.9714 16.1547 25.4355 16.0973 24.9 16.12" fill="#231916"/>
<path d="M35.74 18.9301H33.44V21.2201H35.74V18.9301Z" fill="#231916"/>
<path d="M42 14.35V14.29C42.2357 14.1384 42.4915 14.0207 42.7599 13.9401C43.1279 13.7662 43.5336 13.687 43.94 13.71C44.7415 13.7129 45.5153 14.004 46.12 14.53C46.4814 14.9022 46.7628 15.3444 46.9468 15.8293C47.1308 16.3143 47.2136 16.8318 47.19 17.35C47.2426 18.3139 46.9716 19.2678 46.42 20.0601C46.061 20.5391 45.5867 20.9195 45.0412 21.166C44.4957 21.4125 43.8967 21.5171 43.3 21.47C42.4296 21.5046 41.5743 21.236 40.88 20.71C40.5081 20.4027 40.2125 20.0136 40.0164 19.5729C39.8204 19.1322 39.7292 18.652 39.75 18.17H41.88C41.8602 18.3755 41.8868 18.5828 41.9578 18.7766C42.0287 18.9704 42.1422 19.1459 42.29 19.29C42.4328 19.4402 42.6077 19.5559 42.8017 19.6287C42.9957 19.7014 43.2037 19.7292 43.41 19.71C43.6433 19.7316 43.8779 19.6869 44.0867 19.5807C44.2956 19.4745 44.47 19.3113 44.59 19.11C44.9081 18.6455 45.0725 18.0929 45.06 17.53C45.0657 17.0298 44.923 16.5391 44.65 16.12C44.5136 15.9171 44.3288 15.7514 44.1123 15.6379C43.8958 15.5244 43.6544 15.4667 43.41 15.47C43.1883 15.4752 42.9689 15.5157 42.7599 15.59C42.4333 15.7022 42.1616 15.9347 42 16.24L40.11 16.17L40.82 9.94006H46.82V11.83H42.4" fill="#231916"/>
<path d="M53.29 12.8199H54.59V14.35H53.29V19.13C53.2597 19.3174 53.2988 19.5094 53.4 19.67C53.6462 19.76 53.9085 19.7974 54.17 19.78H54.59V21.4301H54.29L53.64 21.49H53.41C53.085 21.5283 52.7557 21.5012 52.4414 21.4102C52.1271 21.3191 51.8342 21.166 51.58 20.96C51.4221 20.7876 51.3037 20.583 51.2329 20.3602C51.1621 20.1375 51.1406 19.9019 51.17 19.67V14.37H50.1V12.84H51.17V10.55H53.29" fill="#231916"/>
</g>
<defs>
<clipPath id="clip0_8063_8153">
<rect width="76.8" height="32.11" fill="white"/>
</clipPath>
</defs>
</svg>
