<svg width="76" height="66" viewBox="0 0 76 66" fill="none" xmlns="http://www.w3.org/2000/svg">
<g clip-path="url(#clip0_8062_5653)">
<path d="M1.13003 59.84L34.39 2.65001C36.16 -0.529985 39.39 -0.529985 41.3 2.65001L74.68 59.97C76.68 63.2 75.03 65.79 71.07 65.79H4.83999C0.599989 65.79 -0.869972 63.31 1.13003 59.84Z" fill="white"/>
<path d="M1.13003 59.84L34.39 2.65001C36.16 -0.529985 39.39 -0.529985 41.3 2.65001L74.68 59.97C76.68 63.2 75.03 65.79 71.07 65.79H4.83999C0.599989 65.77 -0.869972 63.29 1.13003 59.84Z" stroke="#D20D18" stroke-width="0.49"/>
<path d="M2.6 60.3L35.6 3.51001C36.78 1.45001 38.91 1.51001 40.08 3.51001L73.23 60.35C74.41 62.41 73.17 64 70.87 64H5.20004C2.60004 64 1.48 62.24 2.6 60.3Z" fill="#D20D18"/>
<path d="M37.99 12.74L63.94 57.53H11.56" fill="#F8B500"/>
<path d="M37.99 12.74L63.94 57.53H11.56L37.99 12.74Z" stroke="#D20D18" stroke-width="0.57"/>
<path d="M32.03 28.26V53.88H40.64V45.42H49.42V36.84H40.64V28.26" fill="#231916"/>
</g>
<defs>
<clipPath id="clip0_8062_5653">
<rect width="75.77" height="66.01" fill="white"/>
</clipPath>
</defs>
</svg>
