<svg width="77" height="30" viewBox="0 0 77 30" fill="none" xmlns="http://www.w3.org/2000/svg">
<g clip-path="url(#clip0_8072_430)">
<path d="M5.79001 28.8701C5.0481 28.8737 4.31277 28.7307 3.62631 28.4493C2.93985 28.1678 2.3158 27.7535 1.79001 27.23C1.27786 26.7109 0.873705 26.0955 0.600797 25.4192C0.327889 24.7429 0.19167 24.0192 0.20004 23.29" stroke="#231F20" stroke-width="0.49"/>
<path d="M0.23999 23.2901V5.83008" stroke="#231F20" stroke-width="0.49"/>
<path d="M0.239938 5.81987C0.231789 5.09219 0.368129 4.37009 0.641061 3.69548C0.913994 3.02087 1.31818 2.40718 1.83003 1.88988C2.35366 1.36284 2.97708 0.945462 3.66389 0.662155C4.35069 0.378848 5.0871 0.23527 5.83003 0.239852" stroke="#231F20" stroke-width="0.49"/>
<path d="M5.79001 0.23999H70.48" stroke="#231F20" stroke-width="0.49"/>
<path d="M70.4799 0.250037C71.2237 0.239753 71.9618 0.380706 72.6494 0.664343C73.337 0.94798 73.9598 1.36841 74.4799 1.90006C75 2.41441 75.4134 3.02628 75.6965 3.70066C75.9796 4.37504 76.127 5.09866 76.13 5.83005" stroke="#231F20" stroke-width="0.49"/>
<path d="M76.09 5.83008V23.2901" stroke="#231F20" stroke-width="0.49"/>
<path d="M76.08 23.25C76.0773 23.9829 75.9301 24.7081 75.6469 25.3842C75.3638 26.0602 74.9503 26.6738 74.43 27.19C73.9079 27.7184 73.2846 28.136 72.5973 28.4178C71.9099 28.6996 71.1728 28.8399 70.43 28.83" stroke="#231F20" stroke-width="0.49"/>
<path d="M70.48 28.8701H5.79001" stroke="#231F20" stroke-width="0.49"/>
<path d="M5.78997 26.8201C4.87112 26.7953 3.99857 26.4112 3.35992 25.7501C3.03045 25.4328 2.77131 25.0499 2.59906 24.6262C2.4268 24.2024 2.34528 23.7472 2.35992 23.29" stroke="#231F20" stroke-width="0.49"/>
<path d="M2.31 23.2901V5.83008" stroke="#231F20" stroke-width="0.49"/>
<path d="M2.30005 5.81989C2.29557 5.35862 2.38753 4.90148 2.57007 4.47784C2.75261 4.05421 3.02164 3.67341 3.35999 3.35986C4.00451 2.72238 4.87351 2.3633 5.78003 2.35986" stroke="#231F20" stroke-width="0.49"/>
<path d="M5.79001 2.36011H70.48" stroke="#231F20" stroke-width="0.49"/>
<path d="M70.4799 2.36008C70.9388 2.355 71.3943 2.44077 71.8199 2.6124C72.2455 2.78402 72.633 3.0381 72.9601 3.36008C73.622 4.00958 74.0025 4.89291 74.02 5.8201" stroke="#231F20" stroke-width="0.49"/>
<path d="M74.02 5.83008V23.2901" stroke="#231F20" stroke-width="0.49"/>
<path d="M74.03 23.25C74.0022 24.1791 73.6201 25.0624 72.9619 25.7188C72.3037 26.3752 71.4192 26.7549 70.49 26.78" stroke="#231F20" stroke-width="0.49"/>
<path d="M70.48 26.8201H5.79001" stroke="#231F20" stroke-width="0.49"/>
<path d="M8.74997 12.4899C8.57479 13.076 8.2822 13.6204 7.88998 14.0899C7.49884 14.5613 6.99737 14.9288 6.43002 15.1599L5.58005 13.9399C6.05412 13.7472 6.48064 13.4538 6.83005 13.0799C7.14591 12.7401 7.39369 12.3429 7.56003 11.9099C7.71838 11.4982 7.79972 11.0609 7.80002 10.6199V9.29987H9.03V10.6199C9.02889 11.2536 8.93452 11.8836 8.74997 12.4899ZM13.61 15.8999C14.1146 16.0192 14.5798 16.2672 14.9601 16.6199C15.1116 16.7654 15.2321 16.9402 15.3144 17.1335C15.3968 17.3268 15.4393 17.5347 15.4393 17.7449C15.4393 17.955 15.3968 18.163 15.3144 18.3563C15.2321 18.5496 15.1116 18.7243 14.9601 18.8699C14.5749 19.2155 14.1116 19.4626 13.61 19.5899C12.9354 19.7726 12.2388 19.86 11.54 19.8499C10.8646 19.8555 10.1916 19.7681 9.54001 19.5899C9.03457 19.4649 8.56758 19.2176 8.18002 18.8699C8.03096 18.7229 7.91254 18.5477 7.83176 18.3546C7.75097 18.1615 7.70944 17.9542 7.70944 17.7449C7.70944 17.5355 7.75097 17.3283 7.83176 17.1351C7.91254 16.942 8.03096 16.7669 8.18002 16.6199C8.56023 16.2672 9.02533 16.0192 9.53 15.8999C10.2026 15.7258 10.8954 15.6417 11.5901 15.6499C12.2713 15.6461 12.9502 15.7301 13.61 15.8999ZM9.55002 11.8199C9.7143 12.1966 9.95226 12.5366 10.25 12.8199C10.5934 13.1434 10.998 13.395 11.44 13.5599L10.61 14.7599C10.0631 14.5457 9.57601 14.2026 9.19003 13.7599C8.80957 13.34 8.52611 12.8416 8.35995 12.2999C8.17733 11.7312 8.0863 11.1371 8.09006 10.5399V9.21985H9.32004V10.5399C9.30941 10.9777 9.38763 11.4131 9.55002 11.8199ZM10.29 16.9299C10.007 16.9736 9.7372 17.0795 9.49997 17.2399C9.42143 17.2975 9.35759 17.3727 9.31357 17.4596C9.26954 17.5465 9.24655 17.6425 9.24655 17.7399C9.24655 17.8373 9.26954 17.9333 9.31357 18.0201C9.35759 18.107 9.42143 18.1823 9.49997 18.2399C9.73623 18.4021 10.0065 18.5081 10.29 18.5499C10.7024 18.6242 11.1211 18.6577 11.54 18.6499C11.9623 18.6576 12.3843 18.6241 12.8 18.5499C13.0825 18.5042 13.3519 18.3985 13.5901 18.2399C13.6705 18.1836 13.7361 18.1088 13.7815 18.0218C13.8268 17.9347 13.8506 17.838 13.8506 17.7399C13.8506 17.6417 13.8268 17.545 13.7815 17.4579C13.7361 17.3709 13.6705 17.2961 13.5901 17.2399C13.349 17.0799 13.076 16.9741 12.79 16.9299C12.3776 16.8556 11.9589 16.8221 11.54 16.8299C11.1211 16.8225 10.7024 16.856 10.29 16.9299ZM12.94 15.1499H11.49V8.81989H12.94V15.1499ZM14.29 12.6499H12.49V11.3699H14.29V12.6499ZM15.38 15.4999H13.88V8.62988H15.38V15.4999Z" fill="#231F20"/>
<path d="M20.3401 13.97C21.4074 13.9425 22.4723 13.8558 23.53 13.71L23.65 14.71C22.5706 14.8828 21.4821 14.993 20.39 15.04C19.27 15.09 18.04 15.12 16.69 15.12L16.53 14.04C17.95 14.0333 19.2201 14.01 20.3401 13.97ZM23.25 10.38H16.82V9.32001H23.25V10.38ZM21.49 10.77C21.8627 10.8423 22.2085 11.0152 22.49 11.27C22.5992 11.3659 22.6862 11.4845 22.745 11.6175C22.8037 11.7505 22.8327 11.8946 22.83 12.04C22.8305 12.1924 22.8006 12.3434 22.7423 12.4841C22.6839 12.6249 22.5981 12.7526 22.49 12.86C22.2091 13.1176 21.8634 13.2939 21.49 13.37C21.0103 13.497 20.5162 13.5609 20.02 13.56C19.5271 13.561 19.0363 13.4971 18.56 13.37C18.188 13.2898 17.8434 13.114 17.56 12.86C17.4532 12.7522 17.369 12.6241 17.3123 12.4833C17.2557 12.3425 17.2276 12.1917 17.2299 12.04C17.226 11.8954 17.2535 11.7517 17.3105 11.6188C17.3675 11.4858 17.4526 11.3669 17.56 11.27C17.844 11.0189 18.1887 10.8465 18.56 10.77C19.5168 10.5433 20.5132 10.5433 21.4699 10.77H21.49ZM25.64 18.15H19.64V19.08H18.03V17.18H24.03V16.67H18.03V15.67H25.64V18.15ZM26.01 19.77H18.01V18.77H26.01V19.77ZM19.3499 11.63C19.1999 11.6452 19.0558 11.6967 18.93 11.78C18.885 11.8071 18.8476 11.8451 18.8214 11.8906C18.7951 11.9361 18.7809 11.9875 18.78 12.04C18.7795 12.0969 18.7929 12.153 18.8191 12.2036C18.8452 12.2541 18.8833 12.2975 18.93 12.33C19.0552 12.4181 19.1988 12.4762 19.3499 12.5C19.5742 12.5427 19.8017 12.5661 20.03 12.57C20.2583 12.5669 20.4859 12.5435 20.7101 12.5C20.8612 12.4762 21.0048 12.4181 21.13 12.33C21.1755 12.297 21.2121 12.2532 21.2365 12.2026C21.261 12.152 21.2724 12.0961 21.27 12.04C21.2711 11.9882 21.2588 11.9372 21.2342 11.8916C21.2097 11.846 21.1738 11.8076 21.13 11.78C21.0071 11.6982 20.8666 11.6468 20.7199 11.63C20.4905 11.6067 20.2594 11.6067 20.03 11.63C19.8039 11.6067 19.576 11.6067 19.3499 11.63ZM20.82 9.91998H19.26V8.53003H20.82V9.91998ZM20.82 14.69H19.26V13.1H20.82V14.69ZM25.64 15.23H24.03V8.60999H25.62L25.64 15.23ZM27.07 12.59H25.07V11.25H27.07V12.59Z" fill="#231F20"/>
<path d="M37.8499 18.58H27.58V17.2499H37.8499V18.58ZM36.64 10.6599H30.36V14.2499H28.79V9.45996H36.64V10.6599ZM36.7199 14.89H28.79V13.64H36.7199V14.89ZM33.4699 17.7H31.92V14.2499H33.4699V17.7Z" fill="#231F20"/>
<path d="M48.77 18.6001H38.5V17.3101H48.77V18.6001ZM47.58 13.0701H41.25V14.9901H39.69V11.8301H46.03V10.6101H39.67V9.3501H47.58V13.0701ZM47.8499 15.6101H39.69V14.3301H47.8499V15.6101ZM44.39 17.8501H42.8401V15.1801H44.39V17.8501Z" fill="#231F20"/>
<path d="M59.67 15.33H49.42V14.06H59.67V15.33ZM57.67 10.53H50.55V9.25H57.67V10.53ZM55.24 19.86H53.66V14.94H55.24V19.86ZM58.4 11.72C58.3847 12.1818 58.3447 12.6425 58.28 13.1C58.21 13.63 58.1099 14.2 57.9699 14.81L56.42 14.64C56.55 14.06 56.6499 13.51 56.7199 13C56.7899 12.49 56.82 12 56.83 11.66C56.84 11.32 56.83 10.81 56.83 10.29V9.28998H58.4V10.29C58.46 10.85 58.46 11.33 58.44 11.72H58.4Z" fill="#231F20"/>
<path d="M65.03 9.56989C65.4752 9.7938 65.8465 10.1409 66.1 10.5699C66.3698 10.9937 66.5089 11.4875 66.5 11.9899C66.5091 12.4954 66.37 12.9925 66.1 13.4199C65.8443 13.8471 65.4736 14.1937 65.03 14.4199C64.5646 14.6639 64.0455 14.7877 63.52 14.7799C62.9913 14.7877 62.469 14.664 62 14.4199C61.5519 14.1932 61.1765 13.8452 60.9166 13.4156C60.6567 12.986 60.5228 12.4919 60.53 11.9899C60.5213 11.4914 60.655 11.0009 60.9154 10.5757C61.1758 10.1506 61.552 9.80865 62 9.5899C62.4681 9.34433 62.9917 9.22373 63.52 9.23987C64.0435 9.21609 64.5642 9.32989 65.03 9.56989ZM62.75 10.7198C62.527 10.8237 62.3394 10.9906 62.2101 11.1999C62.0819 11.4361 62.0164 11.7012 62.02 11.9698C62.0165 12.2417 62.0819 12.5101 62.2101 12.7499C62.3353 12.9673 62.5236 13.1417 62.75 13.2499C62.9874 13.3738 63.2523 13.4357 63.52 13.4299C63.7812 13.4345 64.0393 13.3725 64.27 13.2499C64.4921 13.1344 64.6762 12.9573 64.8001 12.7399C64.9318 12.5051 64.9974 12.239 64.99 11.9698C64.9986 11.7038 64.9329 11.4406 64.8001 11.2099C64.6779 10.996 64.4928 10.8249 64.27 10.7198C64.0368 10.6053 63.7799 10.547 63.52 10.5499C63.2368 10.5377 62.9551 10.5961 62.7001 10.7198H62.75ZM69.85 19.8499H68.29V16.9999H62.14V15.7599H69.85V19.8499ZM68.76 11.3999H65.42V10.1299H68.76V11.3999ZM68.76 13.8299H65.42V12.5699H68.76V13.8299ZM69.85 15.2599H68.29V8.60986H69.85V15.2599Z" fill="#231F20"/>
</g>
<defs>
<clipPath id="clip0_8072_430">
<rect width="76.33" height="29.12" fill="white"/>
</clipPath>
</defs>
</svg>
