<svg width="77" height="46" viewBox="0 0 77 46" fill="none" xmlns="http://www.w3.org/2000/svg">
<g clip-path="url(#clip0_8063_7642)">
<path d="M5.85003 45.21C4.36407 45.2123 2.93328 44.6472 1.85003 43.63C1.32254 43.1067 0.904856 42.4834 0.621517 41.7965C0.338178 41.1096 0.194866 40.373 0.200009 39.63" stroke="#231916" stroke-width="0.49"/>
<path d="M0.240005 39.63V5.82996" stroke="#231916" stroke-width="0.49"/>
<path d="M0.249983 5.81993C0.243975 5.08718 0.387156 4.36086 0.670821 3.68522C0.954485 3.00959 1.37272 2.39878 1.90001 1.88993C2.42297 1.36199 3.0463 0.943997 3.73326 0.660626C4.42022 0.377254 5.15692 0.234206 5.90001 0.23991" stroke="#231916" stroke-width="0.49"/>
<path d="M5.85001 0.23999H70.55" stroke="#231916" stroke-width="0.49"/>
<path d="M70.55 0.239929C71.2928 0.236459 72.0288 0.380575 72.7155 0.663819C73.4021 0.947062 74.0257 1.36382 74.55 1.88995C75.0745 2.40091 75.4909 3.01217 75.7743 3.68732C76.0578 4.36247 76.2025 5.08771 76.2 5.81995" stroke="#231916" stroke-width="0.49"/>
<path d="M76.14 5.82996V39.63" stroke="#231916" stroke-width="0.49"/>
<path d="M76.15 39.63C76.1529 40.3727 76.0086 41.1086 75.7254 41.7952C75.4422 42.4817 75.0257 43.1054 74.5 43.63C73.4184 44.6498 71.9865 45.2154 70.5 45.21" stroke="#231916" stroke-width="0.49"/>
<path d="M70.55 45.22H5.85001" stroke="#231916" stroke-width="0.49"/>
<path d="M5.85004 43.15C5.39077 43.1579 4.93456 43.0734 4.50855 42.9016C4.08254 42.7298 3.69536 42.4743 3.37 42.15C2.72586 41.4896 2.36677 40.6026 2.37 39.6801" stroke="#231916" stroke-width="0.49"/>
<path d="M2.37 39.63V5.82996" stroke="#231916" stroke-width="0.49"/>
<path d="M2.36998 5.81995C2.36622 5.36273 2.4526 4.90929 2.62419 4.48547C2.79577 4.06166 3.0492 3.6758 3.36998 3.34998C4.03816 2.71148 4.92582 2.35357 5.85002 2.34998" stroke="#231916" stroke-width="0.49"/>
<path d="M5.85001 2.35999H70.55" stroke="#231916" stroke-width="0.49"/>
<path d="M70.55 2.39002C71.0067 2.38331 71.4601 2.46815 71.8835 2.63953C72.3068 2.81091 72.6916 3.06538 73.015 3.38788C73.3385 3.71038 73.594 4.0944 73.7666 4.51728C73.9392 4.94015 74.0254 5.39333 74.02 5.85004" stroke="#231916" stroke-width="0.49"/>
<path d="M74.02 5.82996V39.63" stroke="#231916" stroke-width="0.49"/>
<path d="M74.02 39.63C74.0248 40.0874 73.939 40.5411 73.7673 40.9651C73.5957 41.3891 73.3417 41.7748 73.02 42.1C72.7004 42.4292 72.3157 42.6883 71.8904 42.8605C71.4651 43.0327 71.0086 43.1142 70.55 43.1" stroke="#231916" stroke-width="0.49"/>
<path d="M70.55 43.16H5.85001" stroke="#231916" stroke-width="0.49"/>
<path d="M9.42998 11.23H9.67003C9.9703 11.2538 10.2722 11.2144 10.5563 11.1145C10.8405 11.0146 11.1006 10.8564 11.32 10.65C11.6003 10.3415 11.7662 9.94617 11.79 9.53003H13.14V19.46H11.44V12.58H9.43999" fill="#231916"/>
<path d="M20.51 9.59004C20.58 9.70004 20.58 9.82001 20.51 10C20.51 10.0649 20.4889 10.1281 20.45 10.18C20.4077 10.2491 20.3868 10.3291 20.39 10.41C20.33 10.58 20.33 10.8801 20.27 11.1701V12.39C20.3171 13.4477 20.6227 14.4778 21.16 15.39C21.6031 16.3866 22.3168 17.2389 23.22 17.8501C22.9568 18.0164 22.7179 18.2183 22.51 18.45C22.2769 18.65 22.0777 18.8864 21.92 19.15C21.267 18.5912 20.7272 17.9123 20.33 17.15C19.9318 16.4738 19.6353 15.7426 19.45 14.9801C19.2554 15.713 18.9769 16.421 18.62 17.09C18.2321 17.8595 17.7146 18.5564 17.09 19.15C16.8872 18.9387 16.67 18.7415 16.44 18.56C16.2 18.33 15.97 18.15 15.78 17.97C16.8104 17.1309 17.5718 16.0078 17.97 14.74C18.5547 13.0597 18.8357 11.2888 18.8 9.51002H19.74C20.019 9.48092 20.301 9.52217 20.56 9.63002M26.23 8.86C26.28 8.92 26.28 8.98005 26.23 9.10005C26.18 9.22005 26.17 9.27003 26.17 9.33003V20.91H24.46V8.81001H25.46C25.715 8.76857 25.975 8.76857 26.23 8.81001" fill="#231916"/>
<path d="M36.55 20.52V18.93H37.62V20.52M36.55 17.64V8.76001H37.02C37.14 8.76001 37.25 8.82001 37.32 8.82001L37.43 9L37.32 9.23004L37.25 9.47003V12.88H38.67V14.58H37.25V17.64H36.55ZM34.14 9.35004C34.1656 10.8003 33.7316 12.2215 32.9 13.41C31.9414 14.7764 30.5874 15.8163 29.02 16.39C28.9 16.15 28.72 15.86 28.55 15.56C28.38 15.26 28.19 15.04 28.02 14.8C28.5971 14.6894 29.1537 14.4904 29.67 14.21C30.1504 13.9428 30.5885 13.6058 30.97 13.21C31.31 12.8713 31.5876 12.4752 31.79 12.04C31.9676 11.7134 32.0701 11.3513 32.09 10.98H28.55V9.39001L34.14 9.35004ZM36.55 8.76001V17.64H35.55V8.76001H36.55ZM36.55 18.93H31.02V17.29V17.12C31.08 16.88 31.08 16.82 31.02 16.76C30.7788 16.6638 30.5191 16.6228 30.26 16.64H29.26V20.52H36.5L36.55 18.93Z" fill="#231916"/>
<path d="M50.1 10.64C50.6337 11.7158 50.8816 12.9107 50.82 14.11C50.8845 15.2902 50.6362 16.4666 50.1 17.52C49.9131 17.9201 49.6121 18.2559 49.2349 18.4854C48.8578 18.7149 48.4212 18.8279 47.98 18.81V17.2901C48.4 17.2901 48.69 17 48.87 16.52C49.0849 15.7354 49.1827 14.9232 49.16 14.11C49.1812 13.2968 49.0835 12.485 48.87 11.7C48.69 11.23 48.4 10.94 47.98 10.94V9.39004C48.4188 9.38465 48.8502 9.50275 49.2251 9.73086C49.5999 9.95896 49.9031 10.2878 50.1 10.68M54.82 8.86001C54.88 8.92001 54.88 8.98006 54.82 9.10006C54.76 9.22006 54.82 9.27004 54.82 9.33004V20.9101H53.02V8.81002H54.02C54.2716 8.76824 54.5284 8.76824 54.78 8.81002M47.94 18.81C47.4895 18.836 47.0416 18.7272 46.6533 18.4974C46.2651 18.2676 45.954 17.9274 45.76 17.52C45.2321 16.464 44.9875 15.289 45.05 14.11C44.9919 12.9121 45.236 11.7189 45.76 10.64C45.9754 10.2354 46.3036 9.902 46.7047 9.68014C47.1059 9.45827 47.5627 9.35751 48.02 9.39004V10.9801H47.96C47.55 10.9801 47.26 11.27 47.08 11.74C46.8622 12.5243 46.7611 13.3363 46.78 14.15C46.7597 14.9638 46.8608 15.7761 47.08 16.56C47.26 17.04 47.55 17.33 47.96 17.33H48.02L47.94 18.81Z" fill="#231916"/>
<path d="M59.02 9.76997C59.08 9.76997 59.08 9.93995 59.02 10.0599C58.96 10.1799 59.02 10.23 59.02 10.29V16.7H59.48C59.95 16.7 60.37 16.64 60.73 16.64L62.25 16.46L62.43 18.0499C61.84 18.1099 61.14 18.23 60.37 18.29C59.6 18.35 58.89 18.35 58.24 18.35H57.3V9.69996H58.42C58.78 9.69996 59.02 9.69997 59.07 9.76997M66.97 8.76997C67.0433 8.82997 67.0433 8.94995 66.97 9.12995L66.91 9.29994C66.8994 9.39755 66.8827 9.49445 66.86 9.58998V20.82H65.27V15.48H64.38V20.39H62.79V8.98994H63.91C64.1285 8.96165 64.3504 8.98214 64.56 9.04994C64.56 9.10994 64.56 9.16998 64.5 9.33998L64.44 9.51997C64.4261 9.6178 64.4061 9.71464 64.38 9.80995V13.98H65.27V8.75996H66.27C66.5031 8.74554 66.7369 8.74554 66.97 8.75996" fill="#231916"/>
<path d="M15.69 26.8101V28.39H13.33C13.3503 29.3263 13.572 30.2471 13.98 31.09C14.3235 31.9397 14.9483 32.6458 15.75 33.09C15.5384 33.2712 15.3412 33.4685 15.16 33.6801C14.98 33.9701 14.8 34.2101 14.68 34.4401C14.129 34.0784 13.6674 33.5962 13.33 33.03C12.922 32.4337 12.6052 31.7798 12.39 31.09C12.1635 31.831 11.7778 32.5135 11.26 33.09C10.8066 33.674 10.2711 34.1894 9.67003 34.62C9.53922 34.3579 9.36317 34.121 9.15001 33.92C8.9608 33.6565 8.73901 33.4179 8.48997 33.21C9.4159 32.7959 10.1838 32.0946 10.68 31.21C11.246 30.3746 11.5681 29.3982 11.61 28.39H9.02V26.8001M14.1 26.16H10.62V24.63H14.1V26.16ZM18.02 24.39C18.08 24.45 18.08 24.5101 18.02 24.6901C17.9769 24.7805 17.9563 24.8799 17.96 24.98C17.9119 25.0901 17.8913 25.2102 17.9 25.33V29.5601H19.31V31.22H17.9V36.39H16.22V24.28H17.16C17.4609 24.2612 17.7628 24.2985 18.05 24.39" fill="#231916"/>
<path d="M30.9 30.6901H26.31V31.22H29.79V34.28H22.79V34.92H29.93V36.22H21.2V33.04H28.04V32.4501H21.2V31.22H24.62V30.6901H20.02V29.28H30.93M29.82 24.58V25.9301H22.97V27.23H29.87V28.63H21.26V24.63L29.82 24.58Z" fill="#231916"/>
<path d="M44.72 30.64V32.22H40.12V36.33H38.41V32.22H33.81V30.64M40.24 24.5201C40.36 24.6401 40.3 24.8101 40.18 25.0501C40.2101 25.3426 40.3096 25.6236 40.47 25.87C40.7142 26.1924 40.9925 26.4874 41.3 26.75C41.7118 27.059 42.1711 27.2987 42.66 27.46C43.1912 27.6763 43.7445 27.834 44.31 27.9301C44.2 28.1001 44.02 28.34 43.83 28.63C43.6637 28.8911 43.5263 29.1693 43.42 29.46C42.5428 29.2485 41.7077 28.8902 40.95 28.4001C40.2911 28.0749 39.724 27.5901 39.3 26.99C38.8365 27.6432 38.2314 28.1834 37.53 28.5701C36.8724 29.037 36.1329 29.3762 35.35 29.5701C35.17 29.3301 35.05 29.1 34.87 28.86C34.69 28.62 34.4 28.33 34.23 28.1C35.3327 27.9585 36.3727 27.5078 37.23 26.8001C37.6033 26.5299 37.9093 26.1773 38.1244 25.7698C38.3394 25.3623 38.4577 24.9107 38.47 24.4501H39.47C39.7326 24.4273 39.9968 24.4684 40.24 24.5701" fill="#231916"/>
<path d="M52.22 25.51C52.7121 26.1038 52.9652 26.8596 52.93 27.63C52.9599 28.3814 52.7065 29.1166 52.22 29.6901M52.22 35.5701V35.16C52.7761 34.8758 53.2458 34.4476 53.58 33.92C54.0067 33.1886 54.2311 32.3568 54.23 31.51H55.23C55.4505 31.4863 55.673 31.5281 55.87 31.63C55.94 31.69 55.94 31.7501 55.82 31.9301L55.76 32.04L55.7 32.22C55.6077 32.7766 55.7369 33.3474 56.06 33.8101C56.3477 34.3508 56.8042 34.7827 57.36 35.04C57.151 35.2271 56.9692 35.4425 56.82 35.6801C56.6686 35.8906 56.5317 36.111 56.41 36.34C56.0707 36.0904 55.7529 35.8128 55.46 35.51C55.236 35.1936 55.0386 34.8591 54.87 34.51C54.7014 34.8885 54.4865 35.2446 54.23 35.5701C53.8899 35.9449 53.4914 36.2623 53.05 36.51C52.8521 36.3152 52.6745 36.1007 52.52 35.87C52.3965 35.7966 52.2934 35.6936 52.22 35.5701ZM52.22 34.74C52.34 34.63 52.4 34.5101 52.52 34.4501C52.4 34.3401 52.28 34.28 52.22 34.22V34.74ZM56.64 24.28C56.6804 24.3173 56.708 24.3664 56.7188 24.4203C56.7296 24.4742 56.723 24.53 56.7 24.58C56.6593 24.6497 56.6385 24.7293 56.64 24.8101C56.5863 24.8966 56.565 24.9993 56.58 25.1V31.1H54.93V24.23H55.93C56.1641 24.2322 56.3979 24.2489 56.63 24.28M52.15 25.46H52.21V29.64L52.15 29.7001C51.8668 30.0094 51.5199 30.2536 51.1332 30.4159C50.7464 30.5782 50.3291 30.6546 49.91 30.64V29.12C50.098 29.1334 50.2865 29.1024 50.4602 29.0294C50.6339 28.9565 50.788 28.8437 50.91 28.7001C51.1067 28.3614 51.2103 27.9766 51.2103 27.585C51.2103 27.1933 51.1067 26.8086 50.91 26.47C50.7865 26.3282 50.6321 26.2166 50.4588 26.1438C50.2854 26.071 50.0977 26.039 49.91 26.05V24.53C50.3249 24.5051 50.7402 24.5709 51.1271 24.7229C51.5139 24.8749 51.863 25.1094 52.15 25.41M52.21 34.17V34.6901C52.15 34.8201 52.03 34.87 51.97 34.99C51.8027 35.1821 51.6646 35.3977 51.56 35.63C51.3289 35.5226 51.1417 35.339 51.03 35.11C50.836 34.9003 50.6772 34.6606 50.56 34.4C50.402 34.7354 50.1814 35.0375 49.91 35.29V32.23C49.9597 31.9765 49.9799 31.7181 49.97 31.46H51.02C51.37 31.46 51.62 31.46 51.67 31.58C51.6726 31.6356 51.6633 31.6913 51.6426 31.743C51.6219 31.7948 51.5903 31.8415 51.55 31.88L51.49 31.99V32.17C51.4313 32.3527 51.4107 32.5455 51.4297 32.7365C51.4486 32.9274 51.5066 33.1124 51.6 33.28C51.7403 33.6256 51.9635 33.9313 52.25 34.17M52.25 35.11C52.1402 35.1519 52.0386 35.2129 51.95 35.29C52.0409 35.3779 52.1415 35.4551 52.25 35.52V35.11ZM49.95 30.64C49.5206 30.6664 49.0908 30.5956 48.6926 30.4329C48.2944 30.2701 47.938 30.0196 47.65 29.7001C47.157 29.1068 46.9037 28.3505 46.94 27.58C46.9135 26.7956 47.165 26.0271 47.65 25.41C47.9533 25.1145 48.3137 24.884 48.7092 24.7327C49.1047 24.5813 49.5269 24.5124 49.95 24.53V26.05C49.7624 26.0397 49.5749 26.0721 49.4017 26.1449C49.2284 26.2177 49.074 26.3288 48.95 26.47C48.7533 26.8086 48.6497 27.1933 48.6497 27.585C48.6497 27.9766 48.7533 28.3614 48.95 28.7001C49.0725 28.8431 49.2267 28.9554 49.4003 29.0283C49.5739 29.1012 49.7621 29.1326 49.95 29.12V30.64ZM49.95 32.23V35.39C49.89 35.5 49.77 35.5601 49.71 35.6801C49.3134 36.0481 48.8569 36.3458 48.36 36.5601C48.1976 36.3325 48.017 36.1184 47.82 35.92C47.6575 35.6747 47.4624 35.4527 47.24 35.26C48.0376 35.0397 48.7536 34.5913 49.3 33.97C49.6423 33.4819 49.865 32.92 49.95 32.33" fill="#231916"/>
<path d="M69.09 31.16H63.61V29.5701H69.09M63.61 36.04V34.63H66.26V33.3299H63.61V31.93H68.02V36.3299H66.31V36.04H63.61ZM63.61 28.93V27.46C64.3441 27.4936 65.0791 27.4161 65.79 27.23C66.19 27.05 66.43 26.8701 66.43 26.5701C66.43 26.2701 66.19 26.11 65.79 25.99C65.0851 25.7694 64.3483 25.6681 63.61 25.6901V24.28C64.7888 24.2198 65.9632 24.4643 67.02 24.99C67.3259 25.129 67.5871 25.3505 67.7743 25.6295C67.9616 25.9086 68.0674 26.2343 68.08 26.5701C68.0734 26.9163 67.9708 27.2538 67.7837 27.5452C67.5965 27.8365 67.3321 28.07 67.02 28.22C65.966 28.7536 64.7894 28.9986 63.61 28.93ZM63.61 31.16H58.18V29.5701H63.61V31.16ZM63.61 24.28V25.6901C62.8713 25.6597 62.133 25.7612 61.43 25.99C61.01 26.11 60.77 26.3401 60.77 26.5701C60.77 26.8001 61.01 27.05 61.43 27.23C62.1397 27.4227 62.8757 27.5003 63.61 27.46V28.93C62.4248 28.991 61.2437 28.7464 60.18 28.22C59.8653 28.067 59.5962 27.8341 59.3997 27.5445C59.2032 27.255 59.086 26.919 59.06 26.5701C59.0878 26.2305 59.2066 25.9046 59.4036 25.6266C59.6007 25.3486 59.8688 25.1287 60.18 24.99C61.2437 24.4635 62.4248 24.2191 63.61 24.28ZM63.61 31.93V33.3299H61.02V34.63H63.57V36.04H61.02V36.3299H59.32V31.93H63.61Z" fill="#231916"/>
</g>
<defs>
<clipPath id="clip0_8063_7642">
<rect width="76.39" height="45.46" fill="white"/>
</clipPath>
</defs>
</svg>
