<svg width="71" height="71" viewBox="0 0 71 71" fill="none" xmlns="http://www.w3.org/2000/svg">
<g clip-path="url(#clip0_8068_5402)">
<path d="M24.1401 43.24C22.8435 42.2521 21.8747 40.8965 21.36 39.35C20.5756 37.1024 20.2129 34.7293 20.2901 32.35C20.2506 29.9522 20.5881 27.5631 21.2901 25.27C21.7758 23.5331 22.7185 21.9584 24.0201 20.71C25.1444 19.6827 26.6172 19.1215 28.1401 19.14C29.323 19.1207 30.4863 19.4437 31.49 20.07C32.4901 20.7091 33.3095 21.5939 33.87 22.64C34.4902 23.7726 34.865 25.023 34.97 26.31H31.08C30.9917 25.7786 30.8016 25.2692 30.5201 24.81C30.2847 24.3913 29.9388 24.0454 29.5201 23.81C28.9467 23.5122 28.2912 23.4116 27.655 23.5237C27.0187 23.6357 26.4371 23.9542 26 24.43C25.3061 25.2324 24.8308 26.2002 24.62 27.24C24.2944 28.6159 24.1366 30.0261 24.1501 31.44H24.31C24.5867 30.7509 24.9904 30.12 25.5 29.58C25.9781 29.0742 26.5527 28.6696 27.19 28.39C27.8194 28.1101 28.5011 27.9669 29.19 27.97C30.2718 27.97 31.3245 28.3209 32.19 28.97C33.1403 29.7058 33.8758 30.6831 34.32 31.8C34.8544 33.1031 35.1165 34.5018 35.09 35.91C35.1173 37.4379 34.8101 38.9533 34.19 40.35C33.6407 41.565 32.7649 42.6035 31.6601 43.35C30.5531 44.086 29.2492 44.4695 27.9201 44.45C26.5665 44.4396 25.2481 44.0175 24.1401 43.24ZM29.6601 39.83C30.1991 39.4143 30.6169 38.8618 30.87 38.23C31.1682 37.5282 31.3179 36.7724 31.31 36.01C31.3221 35.2417 31.1758 34.4792 30.8801 33.77C30.6291 33.1507 30.2143 32.6114 29.6801 32.21C29.1896 31.8346 28.5876 31.634 27.97 31.64C27.3486 31.6392 26.7441 31.843 26.25 32.22C25.7164 32.6351 25.2967 33.1787 25.0301 33.8C24.727 34.4956 24.5705 35.2462 24.5705 36.005C24.5705 36.7637 24.727 37.5144 25.0301 38.21C25.2886 38.8388 25.7054 39.39 26.24 39.81C26.7235 40.2098 27.3327 40.4258 27.96 40.42C28.5595 40.4185 29.1422 40.222 29.62 39.86L29.6601 39.83Z" fill="#231F20"/>
<path d="M39.56 43.0001C38.2991 41.8283 37.3887 40.3292 36.9301 38.6701C35.7167 34.1908 35.7167 29.4694 36.9301 24.9901C37.3972 23.3347 38.3063 21.8378 39.56 20.6601C40.7042 19.7032 42.1484 19.179 43.64 19.179C45.1316 19.179 46.5758 19.7032 47.72 20.6601C48.982 21.8367 49.8955 23.3383 50.36 25.0001C51.0159 27.2159 51.3263 29.5197 51.28 31.8301C51.3262 34.1464 51.0193 36.4562 50.37 38.6801C49.9049 40.3335 48.9953 41.8277 47.74 43.0001C46.5917 43.9567 45.1445 44.4805 43.65 44.4805C42.1555 44.4805 40.7082 43.9567 39.56 43.0001ZM45.56 39.3301C46.204 38.4996 46.6365 37.5249 46.82 36.4901C47.3933 33.4132 47.3933 30.2569 46.82 27.1801C46.6376 26.1455 46.2126 25.1688 45.58 24.3301C45.355 24.0357 45.0653 23.7971 44.7332 23.6329C44.401 23.4687 44.0356 23.3833 43.6651 23.3833C43.2946 23.3833 42.9289 23.4687 42.5968 23.6329C42.2647 23.7971 41.975 24.0357 41.75 24.3301C41.1218 25.1725 40.6942 26.1473 40.5 27.1801C39.9133 30.2557 39.9133 33.4145 40.5 36.4901C40.6851 37.5226 41.1136 38.4962 41.75 39.3301C41.9784 39.6193 42.2693 39.8531 42.601 40.0138C42.9326 40.1745 43.2965 40.258 43.6651 40.258C44.0336 40.258 44.3974 40.1745 44.729 40.0138C45.0607 39.8531 45.3516 39.6193 45.58 39.3301H45.56Z" fill="#231F20"/>
<path d="M35.22 70.24C28.2817 70.2261 21.5033 68.1563 15.7408 64.292C9.97826 60.4276 5.49018 54.9421 2.84368 48.5284C0.197188 42.1146 -0.48898 35.0604 0.871636 28.2569C2.23225 21.4533 5.57861 15.2056 10.4882 10.303C15.3978 5.40034 21.6504 2.06275 28.4559 0.711818C35.2614 -0.639117 42.3146 0.05721 48.7245 2.71283C55.1345 5.36844 60.6136 9.8642 64.4698 15.6322C68.3259 21.4002 70.3861 28.1817 70.3901 35.12C70.3663 44.4357 66.6516 53.3624 60.0596 59.9449C53.4677 66.5275 44.5358 70.2294 35.22 70.24ZM35.22 0.49998C28.3686 0.513824 21.6751 2.55853 15.9855 6.37565C10.2959 10.1928 5.86565 15.611 3.25469 21.9454C0.643733 28.2798 -0.0307237 35.2461 1.31658 41.9637C2.66389 48.6813 5.97249 54.8488 10.8242 59.6865C15.6758 64.5242 21.8528 67.8149 28.5743 69.1429C35.2958 70.4708 42.2601 69.7762 48.587 67.147C54.9138 64.5178 60.3192 60.0719 64.1199 54.3714C67.9206 48.6708 69.9459 41.9714 69.94 35.12C69.9215 25.922 66.2559 17.1067 59.7472 10.6074C53.2386 4.10809 44.4181 0.455269 35.22 0.449993V0.49998Z" fill="#CF1F25"/>
<path d="M35.23 2.34988C28.7544 2.36372 22.4282 4.297 17.0511 7.90534C11.674 11.5137 7.48724 16.6351 5.02008 22.6224C2.55293 28.6096 1.91613 35.1939 3.19013 41.5429C4.46412 47.892 7.59173 53.7209 12.1777 58.2929C16.7636 62.8648 22.6021 65.9746 28.955 67.2293C35.308 68.4839 41.8901 67.827 47.8698 65.3415C53.8495 62.8561 58.9582 58.6538 62.5501 53.2657C66.142 47.8775 68.056 41.5455 68.0501 35.0699C68.0342 26.3795 64.568 18.0512 58.4136 11.9156C52.2593 5.77993 43.9204 2.33926 35.23 2.34988ZM35.23 60.6199C30.1837 60.61 25.2534 59.1048 21.0621 56.2944C16.8707 53.484 13.6062 49.4945 11.681 44.8298C9.75574 40.1651 9.2562 35.0345 10.2453 30.086C11.2344 25.1375 13.6678 20.5931 17.2382 17.0269C20.8086 13.4607 25.3558 11.0326 30.3055 10.0493C35.2551 9.06597 40.3852 9.57161 45.0477 11.5023C49.7101 13.433 53.6957 16.7022 56.5012 20.8968C59.3066 25.0915 60.806 30.0235 60.81 35.0699C60.7968 41.8473 58.0966 48.3429 53.3015 53.1324C48.5063 57.922 42.0075 60.6146 35.23 60.6199Z" fill="#CF1F25"/>
<path d="M53.16 46.46H17.23V50.26H53.16V46.46Z" fill="#231F20"/>
<path d="M53.35 50.45H17.04V46.24H53.35V50.45ZM17.4301 50.06H52.96V46.66H17.4301V50.06Z" fill="#231F20"/>
</g>
<defs>
<clipPath id="clip0_8068_5402">
<rect width="70.39" height="70.18" fill="white"/>
</clipPath>
</defs>
</svg>
