<svg width="68" height="68" viewBox="0 0 68 68" fill="none" xmlns="http://www.w3.org/2000/svg">
<g clip-path="url(#clip0_8063_7072)">
<path d="M33.92 67.4C40.5588 67.3783 47.0422 65.3898 52.5515 61.6857C58.0609 57.9815 62.3491 52.728 64.8746 46.5883C67.4001 40.4487 68.0496 33.6983 66.7411 27.1897C65.4326 20.6812 62.2249 14.7063 57.5229 10.0196C52.8209 5.33299 46.8355 2.14478 40.3227 0.857595C33.8099 -0.429592 27.0618 0.241978 20.9304 2.78753C14.799 5.33307 9.55946 9.63846 5.87338 15.1599C2.18731 20.6813 0.220037 27.1712 0.220001 33.81C0.225248 38.2289 1.1013 42.6034 2.7981 46.6835C4.49489 50.7637 6.97916 54.4694 10.1089 57.5889C13.2386 60.7084 16.9525 63.1806 21.0381 64.864C25.1238 66.5475 29.5011 67.4092 33.92 67.4Z" fill="white"/>
<path d="M33.92 67.4C40.5588 67.3783 47.0422 65.3898 52.5515 61.6857C58.0609 57.9815 62.3491 52.728 64.8746 46.5883C67.4001 40.4487 68.0496 33.6983 66.7411 27.1897C65.4326 20.6812 62.2249 14.7063 57.5229 10.0196C52.8209 5.33299 46.8355 2.14478 40.3227 0.857595C33.8099 -0.429592 27.0618 0.241978 20.9304 2.78753C14.799 5.33307 9.55946 9.63846 5.87338 15.1599C2.18731 20.6813 0.220037 27.1712 0.220001 33.81C0.225248 38.2289 1.1013 42.6034 2.7981 46.6835C4.49489 50.7637 6.97916 54.4694 10.1089 57.5889C13.2386 60.7084 16.9525 63.1806 21.0381 64.864C25.1238 66.5475 29.5011 67.4092 33.92 67.4Z" stroke="#004A9C" stroke-width="0.45"/>
<path d="M2.24 33.81C2.22417 27.5457 4.06705 21.4175 7.53538 16.201C11.0037 10.9845 15.9416 6.91408 21.7241 4.50495C27.5066 2.09582 33.8739 1.45624 40.02 2.66718C46.1662 3.87812 51.815 6.88516 56.2515 11.3077C60.688 15.7302 63.7129 21.3694 64.9432 27.5117C66.1736 33.654 65.5542 40.0232 63.1633 45.8134C60.7725 51.6035 56.7177 56.5542 51.5122 60.039C46.3066 63.5238 40.1843 65.386 33.92 65.39C29.7663 65.3966 25.652 64.585 21.8119 63.0015C17.9719 61.418 14.4813 59.0937 11.5396 56.1612C8.5978 53.2287 6.26244 49.7455 4.66682 45.9105C3.0712 42.0755 2.24656 37.9637 2.24 33.81Z" fill="#004A9C"/>
<path d="M18.25 47.26V48.37H16.84V48.64C16.8259 49.4512 16.9615 50.258 17.24 51.02C17.4314 51.6817 17.8536 52.2529 18.43 52.63C18.2702 52.7502 18.1345 52.8995 18.03 53.07C17.8887 53.2099 17.7824 53.3812 17.72 53.57C17.3634 53.2357 17.0659 52.8435 16.84 52.41C16.5771 51.9048 16.395 51.3615 16.3 50.8C16.1992 51.3642 16.0066 51.9081 15.73 52.41C15.4838 52.8952 15.1439 53.3268 14.73 53.68C14.6234 53.5041 14.503 53.3369 14.37 53.18C14.2522 53.0199 14.1182 52.8725 13.97 52.74C14.5823 52.2982 15.046 51.681 15.3 50.97C15.6337 50.2392 15.8011 49.4434 15.79 48.64V48.37H14.42V47.26M19.73 46.6C19.73 46.6 19.73 46.71 19.73 46.87V47.04V47.26V50.19H20.61V51.3H19.73V54.84H18.73V46.54H19.25C19.4313 46.546 19.6118 46.566 19.79 46.6" fill="white"/>
<path d="M26.02 50.59H26.13L26 50.76M26 53.53H28.13V54.63H26.06L26 53.53ZM26 49.53H27V52.53H28V47L28.08 46.83C28.1071 46.7902 28.1216 46.7432 28.1216 46.695C28.1216 46.6469 28.1071 46.5998 28.08 46.56C27.919 46.5243 27.7549 46.5042 27.59 46.5H27.02V48.44H26.02L26 49.53ZM26 46.99V48.09H24.73V48.37C24.7031 48.8406 24.8294 49.3073 25.09 49.7C25.3008 50.083 25.626 50.3906 26.02 50.58V50.75C25.97 50.86 25.88 50.97 25.84 51.08L25.57 51.57C25.2313 51.3858 24.9429 51.1214 24.73 50.8C24.4787 50.535 24.2967 50.2121 24.2 49.86C24.065 50.1796 23.8867 50.4791 23.67 50.75C23.3744 51.0663 23.0381 51.3421 22.67 51.57C22.5537 51.4329 22.45 51.2857 22.36 51.13C22.2587 50.9602 22.1264 50.811 21.97 50.69C22.2239 50.6303 22.4624 50.5178 22.67 50.36C22.8846 50.2005 23.0793 50.0158 23.25 49.81C23.4119 49.605 23.5464 49.3798 23.65 49.14C23.7239 48.9479 23.7678 48.7455 23.78 48.54V48.09H22.43V46.99H26ZM26 48.48H25.86V49.48H26V48.48ZM26 53.48V54.58H22.85V51.92H23.43C23.5782 51.9267 23.7254 51.9468 23.87 51.98C23.92 52.03 23.92 52.09 23.87 52.2C23.82 52.31 23.87 52.31 23.87 52.37V53.48H26Z" fill="white"/>
<path d="M44.07 50.59H44.2L44.07 50.76M44.07 53.53H46.13V54.63H44.05L44.07 53.53ZM44.07 49.53H45.07V52.53H46.07V47L46.17 46.83C46.17 46.67 46.17 46.61 46.17 46.56C46.0088 46.5251 45.8448 46.5051 45.68 46.5H45.11V48.44H44.11L44.07 49.53ZM44.07 46.99V48.09H42.78V48.37C42.7486 48.841 42.8753 49.3091 43.14 49.7C43.354 50.0806 43.6782 50.3874 44.07 50.58V50.75C44.02 50.86 43.93 50.97 43.89 51.08L43.62 51.57C43.2813 51.3858 42.9929 51.1214 42.78 50.8C42.5287 50.535 42.3467 50.2121 42.25 49.86C42.1111 50.1776 41.9331 50.4766 41.72 50.75C41.4206 51.0623 41.0849 51.3376 40.72 51.57C40.5938 51.4386 40.4861 51.2906 40.4 51.13C40.2985 50.9573 40.1623 50.8075 40 50.69C40.2596 50.6291 40.5044 50.5169 40.72 50.36C40.9292 50.1976 41.1203 50.0133 41.29 49.81C41.4519 49.605 41.5864 49.3798 41.69 49.14C41.7596 48.9466 41.8033 48.7449 41.82 48.54V48.09H40.49V46.99H44.07ZM44.07 48.48H43.93V49.48H44.07V48.48ZM44.07 53.48V54.58H40.92V51.92H41.5C41.6482 51.9267 41.7954 51.9468 41.94 51.98C41.94 52.03 41.94 52.09 41.94 52.2C41.94 52.31 41.94 52.31 41.94 52.37V53.48H44.07Z" fill="white"/>
<path d="M33.23 47.26C33.2781 48.6248 33.0502 49.9853 32.56 51.26C32.0643 52.2368 31.353 53.0883 30.48 53.75C30.35 53.59 30.26 53.37 30.13 53.2L29.73 52.7C30.1152 52.5559 30.4666 52.3342 30.7625 52.0487C31.0584 51.7631 31.2924 51.4198 31.45 51.04C31.907 50.2328 32.1384 49.3174 32.12 48.39H30.04V47.26M35.57 46.6H35.75V46.71V46.87L35.7 47.04V54.84H34.7V50.69H33.55V49.59H34.7V46.54H35.13C35.2663 46.523 35.4047 46.5438 35.53 46.6" fill="white"/>
<path d="M47.6 51.16V50.16H49.21V49.16C48.9336 49.0536 48.6891 48.878 48.5 48.65C48.3252 48.4477 48.2324 48.1873 48.24 47.92C48.2514 47.693 48.3245 47.4735 48.4514 47.285C48.5782 47.0964 48.7541 46.9461 48.96 46.85C49.5411 46.5736 50.1765 46.4302 50.82 46.4302C51.4635 46.4302 52.0989 46.5736 52.68 46.85C52.8851 46.9504 53.0588 47.1051 53.1822 47.2972C53.3056 47.4894 53.374 47.7117 53.38 47.94C53.3843 48.202 53.2957 48.4571 53.13 48.66C52.936 48.8871 52.6886 49.0623 52.41 49.17V50.11H54.02V51.11M52.76 51.97C52.9623 52.0773 53.132 52.2369 53.2516 52.4321C53.3712 52.6274 53.4363 52.8511 53.44 53.08C53.4335 53.3058 53.3683 53.5259 53.2508 53.7188C53.1333 53.9117 52.9676 54.0706 52.77 54.18C52.1586 54.5135 51.4649 54.6661 50.77 54.62C50.0916 54.6598 49.4156 54.5073 48.82 54.18C48.621 54.0688 48.454 53.9082 48.3349 53.7139C48.2159 53.5195 48.1487 53.2978 48.14 53.07C48.1405 52.8404 48.2042 52.6153 48.3241 52.4195C48.4441 52.2237 48.6156 52.0647 48.82 51.96C49.4302 51.6737 50.096 51.5252 50.77 51.5252C51.4441 51.5252 52.1098 51.6737 52.72 51.96M49.72 52.62C49.47 52.73 49.34 52.88 49.34 53.06C49.34 53.24 49.47 53.4 49.72 53.51C50.0618 53.6373 50.4256 53.6951 50.79 53.68C51.1555 53.6974 51.5204 53.6361 51.86 53.5C52.12 53.38 52.25 53.24 52.25 53.07C52.25 52.9 52.12 52.73 51.86 52.62C51.1647 52.3932 50.4153 52.3932 49.72 52.62ZM49.72 47.44C49.44 47.55 49.31 47.68 49.31 47.85C49.31 48.02 49.44 48.16 49.71 48.27C50.0297 48.3889 50.3689 48.4465 50.71 48.44C51.066 48.4513 51.4214 48.4006 51.76 48.29C52.02 48.19 52.16 48.04 52.16 47.86C52.16 47.68 52.02 47.55 51.74 47.44C51.4181 47.3304 51.08 47.2763 50.74 47.28C50.4001 47.2773 50.0621 47.3313 49.74 47.44M51.39 49.35H51.08H50.46H50.16V50.05H51.39V49.35Z" fill="white"/>
<path d="M47.13 24.96C46.3295 24.9634 45.5328 25.0709 44.76 25.2801L43.27 22.01L43.21 21.9C43.1309 21.7001 42.9929 21.529 42.8143 21.4093C42.6357 21.2897 42.425 21.2271 42.21 21.23H28.13L30.34 16.63H34.1C34.1691 16.6314 34.2378 16.6189 34.3021 16.5933C34.3663 16.5678 34.4248 16.5297 34.4742 16.4813C34.5235 16.4329 34.5627 16.3751 34.5895 16.3114C34.6162 16.2476 34.63 16.1791 34.63 16.11V14.5C34.63 14.4309 34.6162 14.3625 34.5895 14.2987C34.5627 14.235 34.5235 14.1772 34.4742 14.1287C34.4248 14.0803 34.3663 14.0422 34.3021 14.0167C34.2378 13.9911 34.1691 13.9787 34.1 13.98H29.41C29.2038 13.9612 28.9968 14.007 28.8177 14.1109C28.6386 14.2148 28.4961 14.3717 28.41 14.56L23.41 24.98V25.09C21.2161 24.4301 18.8538 24.6248 16.7976 25.635C14.7414 26.6453 13.1437 28.3963 12.3254 30.5362C11.5072 32.676 11.5291 35.0463 12.3867 37.1707C13.2442 39.2952 14.874 41.0163 16.9485 41.9885C19.023 42.9606 21.3885 43.1117 23.5699 42.4114C25.7512 41.7111 27.5866 40.2112 28.7075 38.2132C29.8284 36.2151 30.1517 33.8669 29.6123 31.6403C29.073 29.4137 27.711 27.4737 25.8 26.21V26.15L26.9 23.89H41.28L42.4 26.36C40.5431 27.5205 39.1681 29.313 38.5283 31.4072C37.8885 33.5014 38.0271 35.7562 38.9185 37.7563C39.8099 39.7564 41.3941 41.367 43.3792 42.2913C45.3643 43.2157 47.6165 43.3916 49.721 42.7865C51.8255 42.1815 53.6404 40.8363 54.8315 38.9988C56.0225 37.1613 56.5094 34.9553 56.2025 32.7872C55.8955 30.6191 54.8154 28.6349 53.1611 27.2003C51.5068 25.7656 49.3898 24.9771 47.2 24.98M27.33 33.7801C27.334 35.0827 26.9512 36.3572 26.2301 37.4422C25.5091 38.5271 24.4822 39.3736 23.2796 39.8744C22.0771 40.3752 20.7529 40.5077 19.4749 40.2553C18.197 40.0028 17.0227 39.3768 16.1008 38.4563C15.179 37.5359 14.5511 36.3626 14.2967 35.085C14.0423 33.8074 14.1729 32.483 14.6718 31.2797C15.1708 30.0764 16.0157 29.0482 17.0996 28.3255C18.1834 27.6028 19.4573 27.2181 20.76 27.2201C21.2864 27.2207 21.8105 27.2878 22.32 27.42L19.48 33.26C19.3599 33.5735 19.3627 33.9208 19.4879 34.2323C19.6132 34.5437 19.8516 34.7963 20.1554 34.9394C20.4591 35.0824 20.8056 35.1052 21.1255 35.0033C21.4454 34.9014 21.7149 34.6824 21.88 34.39L24.63 28.51C25.4421 29.1191 26.1016 29.9087 26.5563 30.8163C27.011 31.724 27.2485 32.7248 27.25 33.74M47.13 40.56C45.7328 40.5651 44.3706 40.1233 43.2423 39.2992C42.1141 38.475 41.2789 37.3116 40.8589 35.979C40.4389 34.6464 40.4561 33.2144 40.9078 31.8922C41.3596 30.5701 42.2223 29.427 43.37 28.63L46.07 34.63C46.1303 34.8042 46.2262 34.964 46.3515 35.0992C46.4768 35.2344 46.6289 35.342 46.798 35.4153C46.9672 35.4886 47.1497 35.5259 47.334 35.5249C47.5184 35.5239 47.7005 35.4846 47.8689 35.4095C48.0372 35.3344 48.1881 35.2251 48.3119 35.0885C48.4358 34.952 48.5299 34.7912 48.5883 34.6164C48.6467 34.4415 48.6681 34.2564 48.6512 34.0728C48.6343 33.8893 48.5794 33.7112 48.49 33.55L45.8 27.62C46.6942 27.447 47.6145 27.4621 48.5025 27.6643C49.3905 27.8664 50.2267 28.2513 50.9578 28.7943C51.6889 29.3374 52.299 30.0267 52.7491 30.8184C53.1992 31.6102 53.4795 32.4869 53.5722 33.3929C53.6649 34.2989 53.5679 35.2143 53.2874 36.0808C53.007 36.9472 52.5492 37.7458 51.9432 38.4256C51.3372 39.1055 50.5962 39.6517 49.7676 40.0295C48.9389 40.4073 48.0407 40.6084 47.13 40.62" fill="white"/>
<path d="M46.13 17.73L38.56 17.68C38.3563 17.7219 38.1707 17.8263 38.0291 17.9787C37.8875 18.1311 37.7969 18.3238 37.77 18.53C37.7559 18.7432 37.8104 18.9553 37.9255 19.1353C38.0407 19.3152 38.2105 19.4536 38.41 19.53L43.18 20.16C43.5338 20.1972 43.8915 20.1636 44.2321 20.0612C44.5728 19.9587 44.8897 19.7895 45.1643 19.5633C45.4389 19.3371 45.6657 19.0585 45.8315 18.7438C45.9973 18.429 46.0988 18.0844 46.13 17.73Z" fill="white"/>
</g>
<defs>
<clipPath id="clip0_8063_7072">
<rect width="67.85" height="67.62" fill="white"/>
</clipPath>
</defs>
</svg>
