<svg width="27" height="73" viewBox="0 0 27 73" fill="none" xmlns="http://www.w3.org/2000/svg">
<g clip-path="url(#clip0_8063_8772)">
<path d="M2.72542 27.5686L1.8673 10.8806C1.64075 9.25188 1.86729 0.373822 11.2105 0.160216C20.5538 -0.0533909 21.8238 8.17046 22.0435 9.4254V44.2366H19.9153V15.1861C19.9153 12.3291 17.1693 8.59768 11.6774 8.59768C9.32266 8.59768 6.7826 10.2598 6.33637 15.8002L5.69793 27.3617H9.13043L4.91536 56.9929L0.233429 27.5753" fill="white"/>
<path d="M2.72542 27.5686L1.8673 10.8806C1.64075 9.25188 1.86729 0.373822 11.2105 0.160216C20.5538 -0.0533909 21.8238 8.17046 22.0435 9.4254V44.2366H19.9153V15.1861C19.9153 12.3291 17.1693 8.59768 11.6774 8.59768C9.32266 8.59768 6.7826 10.2598 6.33637 15.8002L5.69793 27.3617H9.13043L4.91536 56.9929L0.233429 27.5753L2.72542 27.5686Z" stroke="#231916" stroke-width="0.45"/>
<path d="M22.0503 60.6842H19.73V72.8464H22.0503V60.6842Z" fill="white"/>
<path d="M22.0503 60.6842H19.73V72.8464H22.0503V60.6842Z" stroke="#231916" stroke-width="0.45"/>
<path d="M15.2403 44.4167H17.6018L21.1854 49.7769L24.405 44.6304H26.7185L22.1602 51.9464L26.7185 58.8285H24.5904L21.0755 53.4683L17.6018 59.2624H15.0206L20.032 51.6193" fill="white"/>
<path d="M15.2403 44.4167H17.6018L21.1854 49.7769L24.405 44.6304H26.7185L22.1602 51.9464L26.7185 58.8285H24.5904L21.0755 53.4683L17.6018 59.2624H15.0206L20.032 51.6193L15.2403 44.4167Z" stroke="#231916" stroke-width="0.45"/>
</g>
<defs>
<clipPath id="clip0_8063_8772">
<rect width="27" height="73" fill="white"/>
</clipPath>
</defs>
</svg>
