<svg width="76" height="67" viewBox="0 0 76 67" fill="none" xmlns="http://www.w3.org/2000/svg">
<g clip-path="url(#clip0_8063_6473)">
<path d="M74.67 59.82L41.4001 2.62001C39.6401 -0.549992 36.33 -0.549992 34.5 2.62001L1.06003 59.94C-0.939974 63.23 0.770062 65.82 4.66006 65.82H70.95C75.2 65.82 76.67 63.35 74.67 59.82Z" fill="white"/>
<path d="M74.67 59.82L41.4001 2.62001C39.6401 -0.549992 36.33 -0.549992 34.5 2.62001L1.06003 59.94C-0.939974 63.23 0.770062 65.82 4.66006 65.82H70.95C75.2 65.82 76.67 63.35 74.67 59.82Z" stroke="#D20D18" stroke-width="0.49"/>
<path d="M73.01 60.35L40.1601 3.86C39.0401 1.8 36.92 1.86 35.74 3.86L2.74001 60.47C1.57001 62.47 2.80006 64.05 5.10006 64.05H70.39C72.98 64.05 74.1001 62.35 72.9801 60.35" fill="#D20D18"/>
<path d="M37.81 13.03L11.97 57.65H64.11" fill="#F8B500"/>
<path d="M37.81 13.03L11.97 57.65H64.11L37.81 13.03Z" stroke="#D20D18" stroke-width="0.57"/>
<path d="M35.5 27.43H41.5C41.5 31.19 40.97 35.49 38.38 35.49C35.79 35.49 35.48 29.84 35.48 27.43" fill="#231916"/>
<path d="M48.42 42.19C49.19 43.48 48.54 44.07 47.6 44.07H47C46.8635 45.4386 46.3879 46.7516 45.6161 47.89C44.8443 49.0285 43.8008 49.9565 42.58 50.59C41.94 50.89 41.4 50.83 40.99 51.36C40.7667 51.7517 40.6625 52.2 40.69 52.65C40.76 53.24 40.82 54.83 40.82 55.47H35.82C35.82 55.47 35.76 53.59 35.82 53.06C35.8832 52.8314 35.8945 52.5914 35.853 52.3578C35.8115 52.1242 35.7182 51.9029 35.58 51.71C35.2898 51.2896 34.8497 50.9962 34.35 50.89C33.0949 50.1463 32.0002 49.1602 31.1298 47.9894C30.2594 46.8185 29.6306 45.4862 29.28 44.07H28.68C27.74 44.07 27.09 43.48 27.86 42.19C28.63 40.9 31.52 35.01 31.52 35.01C32.04 34.25 32.28 34.37 32.64 35.07L36.11 42.48C36.94 43.66 36.35 44.24 35.35 44.24H34.15C34.15 44.24 35.37 48.18 38.28 48.18C38.28 48.18 41.5 48.13 42.03 44.24H41.17C40.17 44.24 39.57 43.66 40.4 42.48L44.12 35.01C44.47 34.31 44.71 34.19 45.18 34.96C45.18 34.96 47.66 40.84 48.42 42.19Z" fill="#231916"/>
</g>
<defs>
<clipPath id="clip0_8063_6473">
<rect width="75.8" height="66.07" fill="white"/>
</clipPath>
</defs>
</svg>
