<svg width="69" height="69" viewBox="0 0 69 69" fill="none" xmlns="http://www.w3.org/2000/svg">
<g clip-path="url(#clip0_8068_5364)">
<path d="M34.51 68.7201C27.7129 68.7023 21.0735 66.6701 15.4309 62.8802C9.78837 59.0904 5.39583 53.713 2.80837 47.4276C0.220912 41.1422 -0.445319 34.2308 0.893821 27.5669C2.23296 20.9029 5.51736 14.7855 10.3321 9.98753C15.1467 5.1896 21.2757 1.92653 27.9442 0.610635C34.6128 -0.705257 41.5218 -0.0149097 47.7981 2.59445C54.0745 5.20382 59.4365 9.61508 63.2067 15.2708C66.9768 20.9266 68.9859 27.5729 68.98 34.3701C68.9482 43.4913 65.3026 52.2281 58.8417 58.6665C52.3808 65.105 43.6313 68.7202 34.51 68.7201ZM34.51 0.410104C27.8053 0.423951 21.255 2.4239 15.6859 6.15749C10.1169 9.89109 5.7789 15.1909 3.2195 21.388C0.660104 27.585 -0.00598562 34.4014 1.30544 40.9766C2.61687 47.5519 5.84694 53.5912 10.5879 58.3322C15.3289 63.0731 21.3683 66.3032 27.9435 67.6146C34.5187 68.9261 41.3351 68.26 47.5321 65.7006C53.7292 63.1412 59.029 58.8032 62.7626 53.2342C66.4962 47.6652 68.4962 41.1148 68.51 34.4101C68.4994 25.3997 64.9126 16.7619 58.5375 10.3943C52.1624 4.02674 43.5205 0.450099 34.51 0.450105V0.410104Z" fill="#CF1F25"/>
<path d="M34.51 1.62991C28.0378 1.6477 21.716 3.5828 16.3428 7.19089C10.9696 10.799 6.78594 15.9183 4.32009 21.9023C1.85423 27.8864 1.21667 34.467 2.48806 40.8131C3.75944 47.1592 6.88266 52.9863 11.4634 57.5587C16.0441 62.1311 21.877 65.2436 28.2255 66.5034C34.5739 67.7632 41.1533 67.1137 47.1328 64.6369C53.1124 62.1601 58.224 57.9671 61.8223 52.5873C65.4205 47.2075 67.344 40.8821 67.35 34.4099C67.3487 30.1013 66.4982 25.8353 64.8473 21.8555C63.1964 17.8758 60.7772 14.2605 57.7283 11.2162C54.6794 8.17189 51.0604 5.75832 47.0781 4.11345C43.0959 2.46858 38.8286 1.62465 34.52 1.62991M34.52 59.9099C29.472 59.898 24.5406 58.3899 20.3495 55.5761C16.1584 52.7623 12.8955 48.7691 10.9733 44.1014C9.05106 39.4336 8.55579 34.3007 9.55007 29.3515C10.5443 24.4023 12.9835 19.859 16.5593 16.2958C20.1352 12.7325 24.6871 10.3094 29.6398 9.33252C34.5924 8.35568 39.7236 8.86903 44.3845 10.8077C49.0455 12.7463 53.0272 16.0233 55.8262 20.2243C58.6252 24.4253 60.1159 29.3618 60.11 34.4099C60.0941 41.1836 57.39 47.6741 52.5918 52.4554C47.7936 57.2367 41.2938 59.9179 34.52 59.9099Z" fill="#CF1F25"/>
<path d="M22.5999 46.6601C21.4962 46.0929 20.5743 45.2266 19.9399 44.1601C19.2809 43.0863 18.9345 41.8499 18.9399 40.5901C18.9357 39.6198 19.1226 38.6581 19.4899 37.7601C19.823 36.932 20.3392 36.1901 20.9999 35.5901C21.5933 35.0487 22.3226 34.6789 23.1099 34.5201V34.3301C22.4374 34.163 21.8224 33.8175 21.3299 33.3301C20.7842 32.7879 20.3643 32.1325 20.0999 31.4101C19.7964 30.6153 19.6438 29.7708 19.65 28.9201C19.6325 27.7251 19.9364 26.5474 20.53 25.5101C21.1028 24.5156 21.936 23.6962 22.9399 23.1401C24.0043 22.582 25.1882 22.2905 26.39 22.2905C27.5917 22.2905 28.7755 22.582 29.8399 23.1401C30.846 23.6933 31.68 24.5134 32.2499 25.5101C32.8359 26.55 33.1361 27.7265 33.1199 28.9201C33.1261 29.7708 32.9734 30.6153 32.6699 31.4101C32.4018 32.1306 31.9824 32.7853 31.4399 33.3301C30.9452 33.8199 30.3264 34.1656 29.65 34.3301V34.5201C30.4373 34.6789 31.1666 35.0487 31.76 35.5901C32.4411 36.1737 32.9841 36.9012 33.3499 37.7201C33.7311 38.6143 33.9218 39.5781 33.91 40.5501C33.9153 41.8099 33.569 43.0463 32.91 44.1201C32.2726 45.1842 31.3515 46.0499 30.2499 46.6201C29.06 47.212 27.7489 47.52 26.4199 47.52C25.0908 47.52 23.7799 47.212 22.5899 46.6201L22.5999 46.6601ZM28.16 43.2101C28.6672 42.9044 29.0765 42.4604 29.3399 41.9301C29.6261 41.3631 29.7703 40.7351 29.76 40.1001C29.7742 39.4347 29.6266 38.7758 29.3299 38.1801C29.0612 37.637 28.6499 37.1773 28.14 36.8501C27.6247 36.528 27.0274 36.3614 26.4199 36.3701C25.8186 36.3612 25.2278 36.5281 24.7199 36.8501C24.2046 37.1739 23.7893 37.6343 23.52 38.1801C23.2225 38.7752 23.0781 39.4351 23.0999 40.1001C23.0811 40.7348 23.2221 41.364 23.51 41.9301C23.7734 42.4604 24.1827 42.9044 24.6899 43.2101C25.2184 43.5117 25.8164 43.6704 26.4249 43.6704C27.0334 43.6704 27.6315 43.5117 28.16 43.2101ZM27.91 32.3201C28.3421 32.0181 28.687 31.6077 28.91 31.1301C29.158 30.5944 29.2843 30.0104 29.28 29.4201C29.2886 28.8261 29.162 28.238 28.91 27.7001C28.6819 27.2311 28.3265 26.8358 27.8845 26.5592C27.4424 26.2826 26.9314 26.136 26.41 26.136C25.8885 26.136 25.3776 26.2826 24.9355 26.5592C24.4934 26.8358 24.1381 27.2311 23.91 27.7001C23.6614 28.2388 23.5382 28.8269 23.5499 29.4201C23.5396 30.011 23.6663 30.5963 23.9199 31.1301C24.1429 31.6077 24.4878 32.0181 24.9199 32.3201C25.3558 32.6072 25.868 32.757 26.39 32.7501C26.9286 32.7646 27.4588 32.6146 27.91 32.3201Z" fill="#231F20"/>
<path d="M38.23 46.0801C36.9735 44.9104 36.0665 43.4149 35.61 41.7601C34.3966 37.2808 34.3966 32.5594 35.61 28.0801C36.0686 26.421 36.9791 24.9219 38.24 23.7501C39.3817 22.7876 40.8268 22.2598 42.32 22.2598C43.8132 22.2598 45.2584 22.7876 46.4 23.7501C47.6557 24.9262 48.5652 26.4237 49.03 28.0801C49.6907 30.2949 50.001 32.5994 49.95 34.9101C50.0018 37.2267 49.6948 39.5374 49.0399 41.7601C48.5841 43.4175 47.6731 44.9141 46.41 46.0801C45.2618 47.0367 43.8145 47.5605 42.32 47.5605C40.8255 47.5605 39.3783 47.0367 38.23 46.0801ZM44.23 42.4101C44.8704 41.5823 45.2995 40.611 45.48 39.5801C45.7961 38.0443 45.937 36.4776 45.9 34.9101C45.9278 33.349 45.7836 31.7896 45.47 30.2601C45.285 29.2245 44.8565 28.2477 44.22 27.4101C43.9961 27.1158 43.7072 26.8772 43.3759 26.713C43.0446 26.5488 42.6797 26.4633 42.31 26.4633C41.9402 26.4633 41.5755 26.5488 41.2442 26.713C40.9128 26.8772 40.624 27.1158 40.4 27.4101C39.7715 28.2523 39.3439 29.2272 39.15 30.2601C38.8238 31.7879 38.6727 33.348 38.7 34.9101C38.6735 36.4782 38.8212 38.0445 39.14 39.5801C39.3247 40.6097 39.7534 41.5801 40.39 42.4101C40.6172 42.7029 40.9082 42.9398 41.241 43.1029C41.5738 43.2659 41.9394 43.3506 42.31 43.3506C42.6805 43.3506 43.0463 43.2659 43.379 43.1029C43.7118 42.9398 44.0029 42.7029 44.23 42.4101Z" fill="#231F20"/>
</g>
<defs>
<clipPath id="clip0_8068_5364">
<rect width="68.98" height="68.77" fill="white"/>
</clipPath>
</defs>
</svg>
