<svg width="70" height="70" viewBox="0 0 70 70" fill="none" xmlns="http://www.w3.org/2000/svg">
<g clip-path="url(#clip0_8063_9398)">
<path d="M65.7365 1.16235V68.3605" stroke="#231916" stroke-width="0.45"/>
<path d="M69.8541 1.16235V68.3605" stroke="#231916" stroke-width="0.45"/>
<path d="M34.9834 2.21729H30.2889V11.8458H34.9834V2.21729Z" fill="white"/>
<path d="M34.9834 2.21729H30.2889V11.8458H34.9834V2.21729Z" stroke="#231916" stroke-width="0.45"/>
<path d="M34.9834 23.2213H30.2889V32.8431H34.9834V23.2213Z" fill="white"/>
<path d="M34.9834 23.228H30.2889V32.8498H34.9834V23.228Z" stroke="#231916" stroke-width="0.45"/>
<path d="M34.9834 44.0775H30.2889V53.706H34.9834V44.0775Z" fill="white"/>
<path d="M34.9834 44.0775H30.2889V53.706H34.9834V44.0775Z" stroke="#231916" stroke-width="0.45"/>
<path d="M34.9834 69.8186V64.2014H30.2889V69.6708" fill="white"/>
<path d="M34.9834 64.2081H30.2889V69.8522H34.9834V64.2081Z" stroke="#231916" stroke-width="0.45"/>
<path d="M0.152496 0V66.2776" stroke="#231916" stroke-width="0.45"/>
<path d="M69.8541 1.16235H65.7365V68.3605H69.8541V1.16235Z" fill="white"/>
<path d="M57.6868 55.789C57.2389 55.7911 56.7931 55.852 56.3607 55.9704L55.5319 54.1226L55.4921 54.0554C55.4511 53.9452 55.3775 53.8506 55.2813 53.7844C55.1852 53.7183 55.0712 53.6839 54.955 53.6859H47.0645L48.3044 51.0856H50.4064C50.482 51.0822 50.5536 51.0497 50.6066 50.9948C50.6595 50.9399 50.6899 50.8667 50.6915 50.7899V49.8762C50.6915 49.8382 50.6841 49.8006 50.6698 49.7656C50.6554 49.7305 50.6344 49.6987 50.608 49.6718C50.5815 49.645 50.5501 49.6238 50.5155 49.6093C50.4809 49.5947 50.4438 49.5872 50.4064 49.5872H47.7541C47.6385 49.5792 47.5232 49.6062 47.4228 49.6649C47.3224 49.7235 47.2416 49.8111 47.1905 49.9165L44.3923 55.8091V55.8697C43.375 55.5588 42.2869 55.5808 41.2826 55.9326C40.2784 56.2845 39.4092 56.9482 38.7986 57.8294C38.188 58.7106 37.8671 59.7644 37.8815 60.841C37.8959 61.9177 38.2449 62.9623 38.8789 63.8264C39.5129 64.6905 40.3995 65.3301 41.4128 65.6542C42.4261 65.9782 43.5144 65.9703 44.5231 65.6316C45.5317 65.2929 46.4092 64.6405 47.031 63.7674C47.6527 62.8942 47.9869 61.8446 47.9862 60.7679C47.9871 59.9219 47.7803 59.089 47.3844 58.3441C46.9885 57.5993 46.416 56.966 45.7185 56.5012L46.3285 55.2178H54.3516L54.9749 56.6222C53.9441 57.2793 53.1822 58.2914 52.8293 59.4725C52.4765 60.6536 52.5565 61.9241 53.0545 63.0502C53.5526 64.1762 54.4353 65.0821 55.5401 65.6011C56.6449 66.1201 57.8975 66.2174 59.0675 65.8749C60.2374 65.5324 61.2459 64.7733 61.9074 63.7372C62.5688 62.7011 62.8388 61.4578 62.6675 60.236C62.4963 59.0143 61.8953 57.8963 60.9753 57.0878C60.0553 56.2794 58.8781 55.8348 57.6603 55.836M46.5672 60.8149C46.5698 61.552 46.3564 62.2733 45.9541 62.8874C45.5518 63.5014 44.9786 63.9805 44.3072 64.2642C43.6359 64.5478 42.8965 64.623 42.1829 64.4804C41.4693 64.3377 40.8135 63.9836 40.2987 63.4629C39.7839 62.9422 39.4333 62.2783 39.2912 61.5554C39.1491 60.8325 39.222 60.0831 39.5007 59.4023C39.7793 58.7214 40.2512 58.1398 40.8564 57.731C41.4617 57.3221 42.1731 57.1046 42.9004 57.106C43.1936 57.1062 43.4855 57.1447 43.7691 57.2202L42.2374 60.5798C42.1531 60.758 42.1421 60.9628 42.2067 61.1493C42.2714 61.3357 42.4064 61.4886 42.5822 61.5742C42.7603 61.6559 42.9628 61.6644 43.147 61.598C43.3312 61.5316 43.4829 61.3954 43.5701 61.2181L45.1018 57.8585C45.556 58.202 45.9249 58.648 46.1792 59.1612C46.4336 59.6744 46.5664 60.2407 46.5672 60.8149ZM57.6603 64.6583C56.887 64.6549 56.1346 64.4029 55.5116 63.9387C54.8886 63.4744 54.427 62.8218 54.1933 62.0748C53.9596 61.3277 53.9659 60.5249 54.2112 59.7817C54.4565 59.0385 54.9282 58.3933 55.5584 57.9391L57.0636 61.2987C57.1591 61.4497 57.3051 61.5608 57.4749 61.6115C57.6447 61.6623 57.8268 61.6493 57.9879 61.575C58.1491 61.5007 58.2784 61.37 58.3521 61.207C58.4259 61.0439 58.4393 60.8594 58.3897 60.6872L56.8911 57.3277C57.138 57.2791 57.3889 57.2543 57.6404 57.2538C58.1455 57.2101 58.654 57.2732 59.1337 57.439C59.6134 57.6049 60.054 57.87 60.4273 58.2174C60.8007 58.5648 61.0987 58.9871 61.3026 59.4573C61.5065 59.9276 61.6118 60.4356 61.6118 60.9493C61.6118 61.4629 61.5065 61.971 61.3026 62.4412C61.0987 62.9115 60.8007 63.3337 60.4273 63.6811C60.054 64.0286 59.6134 64.2936 59.1337 64.4595C58.654 64.6254 58.1455 64.6885 57.6404 64.6448" fill="white"/>
<path d="M57.6868 55.789C57.2389 55.7911 56.7931 55.852 56.3607 55.9704L55.5319 54.1226L55.4921 54.0554C55.4511 53.9452 55.3775 53.8506 55.2813 53.7844C55.1852 53.7183 55.0712 53.6839 54.955 53.6859H47.0645L48.3044 51.0856H50.4064C50.482 51.0822 50.5536 51.0497 50.6066 50.9948C50.6595 50.9399 50.6899 50.8667 50.6915 50.7899V49.8762C50.6915 49.8382 50.6841 49.8006 50.6698 49.7656C50.6554 49.7305 50.6344 49.6987 50.608 49.6718C50.5815 49.645 50.5501 49.6238 50.5155 49.6093C50.4809 49.5947 50.4438 49.5872 50.4064 49.5872H47.7541C47.6385 49.5792 47.5232 49.6062 47.4228 49.6649C47.3224 49.7235 47.2416 49.8111 47.1905 49.9165L44.3923 55.8091V55.8697C43.375 55.5588 42.2869 55.5808 41.2826 55.9326C40.2784 56.2845 39.4092 56.9482 38.7986 57.8294C38.188 58.7106 37.8671 59.7644 37.8815 60.841C37.8959 61.9177 38.2449 62.9623 38.8789 63.8264C39.5129 64.6905 40.3995 65.3301 41.4128 65.6542C42.4261 65.9782 43.5144 65.9703 44.5231 65.6316C45.5317 65.2929 46.4092 64.6405 47.031 63.7674C47.6527 62.8942 47.9869 61.8446 47.9862 60.7679C47.9871 59.9219 47.7803 59.089 47.3844 58.3441C46.9885 57.5993 46.416 56.966 45.7185 56.5012L46.3285 55.2178H54.3516L54.9749 56.6222C53.9441 57.2793 53.1822 58.2914 52.8293 59.4725C52.4765 60.6536 52.5565 61.9241 53.0545 63.0502C53.5526 64.1762 54.4353 65.0821 55.5401 65.6011C56.6449 66.1201 57.8975 66.2174 59.0675 65.8749C60.2374 65.5324 61.2459 64.7733 61.9074 63.7372C62.5688 62.7011 62.8388 61.4578 62.6675 60.236C62.4963 59.0143 61.8953 57.8963 60.9753 57.0878C60.0553 56.2794 58.8781 55.8348 57.6603 55.836L57.6868 55.789ZM46.5937 60.7679C46.5963 61.5049 46.383 62.2262 45.9806 62.8403C45.5783 63.4543 45.0051 63.9336 44.3338 64.2172C43.6624 64.5008 42.923 64.576 42.2094 64.4334C41.4958 64.2907 40.84 63.9365 40.3252 63.4158C39.8104 62.8951 39.4598 62.2312 39.3177 61.5083C39.1756 60.7855 39.2486 60.0361 39.5272 59.3553C39.8059 58.6744 40.2777 58.0928 40.883 57.684C41.4882 57.2751 42.1996 57.0576 42.927 57.059C43.2201 57.0592 43.512 57.0976 43.7956 57.1731L42.2639 60.5327C42.1796 60.7109 42.1686 60.9158 42.2332 61.1023C42.2979 61.2887 42.4329 61.4415 42.6087 61.5271C42.7868 61.6088 42.9893 61.6173 43.1735 61.5509C43.3577 61.4845 43.5094 61.3484 43.5967 61.1711L45.1283 57.8115C45.5825 58.155 45.9514 58.601 46.2057 59.1142C46.4601 59.6274 46.5929 60.1936 46.5937 60.7679ZM57.6868 64.6113C56.9135 64.6079 56.1612 64.356 55.5381 63.8917C54.9151 63.4274 54.4535 62.7748 54.2198 62.0278C53.9861 61.2807 53.9924 60.4778 54.2377 59.7346C54.483 58.9914 54.9547 58.3463 55.5849 57.8921L57.0901 61.2517C57.1856 61.4027 57.3317 61.5137 57.5014 61.5644C57.6712 61.6152 57.8533 61.6022 58.0145 61.5279C58.1756 61.4537 58.3049 61.323 58.3787 61.16C58.4525 60.997 58.4658 60.8124 58.4162 60.6402L56.9177 57.2807C57.1646 57.2321 57.4154 57.2073 57.6669 57.2068C58.172 57.1631 58.6805 57.2262 59.1602 57.392C59.64 57.5579 60.0805 57.823 60.4538 58.1704C60.8272 58.5178 61.1253 58.9401 61.3292 59.4103C61.5331 59.8806 61.6384 60.3886 61.6384 60.9023C61.6384 61.4159 61.5331 61.924 61.3292 62.3942C61.1253 62.8645 60.8272 63.2867 60.4538 63.6342C60.0805 63.9816 59.64 64.2466 59.1602 64.4125C58.6805 64.5784 58.172 64.6415 57.6669 64.5978L57.6868 64.6113Z" stroke="#231916" stroke-width="0.45"/>
<path d="M57.0967 51.7037H52.873C52.7616 51.7303 52.6605 51.7899 52.5825 51.8748C52.5046 51.9598 52.4534 52.0663 52.4354 52.1809C52.4282 52.3021 52.459 52.4225 52.5233 52.525C52.5875 52.6275 52.6821 52.707 52.7934 52.752L55.4457 53.1081C55.643 53.1294 55.8424 53.1104 56.0324 53.0522C56.2223 52.9941 56.3988 52.898 56.5514 52.7696C56.7041 52.6412 56.8298 52.4831 56.9212 52.3047C57.0126 52.1263 57.0677 51.931 57.0835 51.7306" fill="white"/>
<path d="M57.0967 51.7037H52.873C52.7616 51.7303 52.6605 51.7899 52.5825 51.8748C52.5046 51.9598 52.4534 52.0663 52.4354 52.1809C52.4282 52.3021 52.459 52.4225 52.5233 52.525C52.5875 52.6275 52.6821 52.707 52.7934 52.752L55.4457 53.1081C55.6461 53.1313 55.849 53.1129 56.0422 53.054C56.2353 52.9951 56.4146 52.8969 56.5691 52.7655C56.7235 52.6341 56.85 52.4722 56.9407 52.2897C57.0314 52.1072 57.0845 51.9077 57.0967 51.7037Z" stroke="#231916" stroke-width="0.45"/>
<path d="M22.3387 4.39436C21.2448 4.38154 20.1764 4.7293 19.2944 5.38533C18.4125 6.04137 17.7649 6.97012 17.4492 8.03157C17.1334 9.09302 17.1667 10.2297 17.5439 11.2703C17.9211 12.311 18.6219 13.1992 19.5406 13.8012L18.9306 15.0777H10.8876L10.2643 13.6869C11.3014 13.0305 12.0692 12.016 12.426 10.8309C12.7828 9.64567 12.7045 8.3697 12.2056 7.23843C11.7067 6.10716 10.8208 5.19696 9.71139 4.67577C8.60203 4.15458 7.34406 4.0576 6.16966 4.40272C4.99525 4.74785 3.98366 5.51179 3.32159 6.55355C2.65951 7.59532 2.39163 8.84452 2.56738 10.0708C2.74313 11.297 3.35065 12.4175 4.27782 13.2254C5.205 14.0332 6.38925 14.474 7.61202 14.4663C8.05996 14.4645 8.50575 14.4035 8.93815 14.2849L9.76699 16.126L9.80677 16.1999C9.84857 16.3095 9.92238 16.4036 10.0183 16.4696C10.1143 16.5356 10.2279 16.5705 10.3439 16.5694H18.2344L17.001 19.1765H14.9058C14.8284 19.1765 14.7542 19.2076 14.6995 19.263C14.6447 19.3184 14.614 19.3937 14.614 19.4721V20.3791C14.614 20.418 14.6216 20.4565 14.6362 20.4923C14.6509 20.5282 14.6724 20.5608 14.6995 20.5882C14.7265 20.6157 14.7587 20.6374 14.7941 20.6523C14.8295 20.6671 14.8674 20.6748 14.9058 20.6748H17.558C17.6739 20.6847 17.79 20.6585 17.8907 20.5996C17.9914 20.5408 18.072 20.4522 18.1216 20.3456L20.9198 14.4529V14.3924C21.3972 14.5384 21.8931 14.6131 22.3918 14.6141C23.7318 14.6141 25.0169 14.0747 25.9645 13.1146C26.912 12.1544 27.4444 10.8521 27.4444 9.49416C27.4444 8.13626 26.912 6.83395 25.9645 5.87377C25.0169 4.91358 23.7318 4.37418 22.3918 4.37418M7.63191 13.062C6.75603 13.0623 5.90899 12.7448 5.24406 12.1671C4.57913 11.5894 4.14023 10.7896 4.00679 9.91239C3.87335 9.03519 4.05418 8.13856 4.51656 7.38475C4.97894 6.63095 5.69233 6.06984 6.52763 5.80282C7.36293 5.5358 8.26495 5.58055 9.07048 5.92905C9.87602 6.27754 10.5318 6.90674 10.9193 7.70275C11.3067 8.49875 11.4002 9.40899 11.1827 10.2688C10.9653 11.1285 10.4513 11.881 9.73383 12.3901L8.22867 9.0305C8.12842 8.88898 7.98283 8.78708 7.81672 8.7422C7.65062 8.69731 7.47429 8.71221 7.31781 8.78436C7.16134 8.8565 7.03441 8.98147 6.95868 9.13786C6.88295 9.29425 6.86311 9.4724 6.90254 9.64196L8.4077 13.0015C8.16129 13.0534 7.91008 13.0782 7.65843 13.0754M22.4183 13.2166C22.123 13.2163 21.8288 13.1779 21.5431 13.1023L23.088 9.78304C23.1625 9.60664 23.1677 9.40807 23.1025 9.22792C23.0374 9.04778 22.9067 8.89969 22.7374 8.81388C22.568 8.72808 22.3727 8.71105 22.1914 8.76631C22.0101 8.82157 21.8564 8.94489 21.7619 9.11113L20.2302 12.4304C19.7344 12.0486 19.3429 11.5448 19.0928 10.9668C18.8427 10.3889 18.7423 9.75587 18.801 9.12761C18.8598 8.49935 19.0757 7.89671 19.4285 7.37663C19.7812 6.85656 20.2591 6.43628 20.8169 6.15559C21.3746 5.8749 21.9939 5.74305 22.6159 5.77255C23.238 5.80205 23.8424 5.99189 24.3718 6.32414C24.9013 6.6564 25.3384 7.12006 25.6416 7.67125C25.9449 8.22244 26.1044 8.84291 26.105 9.47399C26.1014 10.4589 25.7129 11.4022 25.0244 12.0974C24.3359 12.7926 23.4035 13.183 22.4316 13.183" fill="white"/>
<path d="M22.3387 4.39436C21.2448 4.38154 20.1764 4.7293 19.2944 5.38533C18.4125 6.04137 17.7649 6.97012 17.4492 8.03157C17.1334 9.09302 17.1667 10.2297 17.5439 11.2703C17.9211 12.311 18.6219 13.1992 19.5406 13.8012L18.9306 15.0777H10.8876L10.2643 13.6869C11.3014 13.0305 12.0692 12.016 12.426 10.8309C12.7828 9.64567 12.7045 8.3697 12.2056 7.23843C11.7067 6.10716 10.8208 5.19696 9.71139 4.67577C8.60203 4.15458 7.34406 4.0576 6.16966 4.40272C4.99525 4.74785 3.98366 5.51179 3.32159 6.55355C2.65951 7.59532 2.39163 8.84452 2.56738 10.0708C2.74313 11.297 3.35065 12.4175 4.27782 13.2254C5.205 14.0332 6.38925 14.474 7.61202 14.4663C8.05996 14.4645 8.50575 14.4035 8.93815 14.2849L9.76699 16.126L9.80677 16.1999C9.84857 16.3095 9.92238 16.4036 10.0183 16.4696C10.1143 16.5356 10.2279 16.5705 10.3439 16.5694H18.2344L17.001 19.1765H14.9058C14.8284 19.1765 14.7542 19.2076 14.6995 19.263C14.6447 19.3184 14.614 19.3937 14.614 19.4721V20.3791C14.614 20.418 14.6216 20.4565 14.6362 20.4923C14.6509 20.5282 14.6724 20.5608 14.6995 20.5882C14.7265 20.6157 14.7587 20.6374 14.7941 20.6523C14.8295 20.6671 14.8674 20.6748 14.9058 20.6748H17.558C17.6739 20.6847 17.79 20.6585 17.8907 20.5996C17.9914 20.5408 18.072 20.4522 18.1216 20.3456L20.9198 14.4529V14.3924C21.3972 14.5384 21.8931 14.6131 22.3918 14.6141C23.7318 14.6141 25.0169 14.0747 25.9645 13.1146C26.912 12.1544 27.4444 10.8521 27.4444 9.49416C27.4444 8.13626 26.912 6.83395 25.9645 5.87377C25.0169 4.91358 23.7318 4.37418 22.3918 4.37418L22.3387 4.39436ZM7.57886 13.0822C6.70299 13.0824 5.85595 12.765 5.19102 12.1873C4.52608 11.6096 4.08719 10.8098 3.95375 9.93256C3.8203 9.05536 4.00113 8.15874 4.46352 7.40493C4.9259 6.65112 5.63928 6.08993 6.47458 5.82291C7.30988 5.5559 8.21191 5.60073 9.01744 5.94923C9.82297 6.29772 10.4788 6.92692 10.8662 7.72292C11.2537 8.51893 11.3471 9.42917 11.1297 10.2889C10.9122 11.1487 10.3983 11.9012 9.68078 12.4102L8.17562 9.05068C8.07538 8.90916 7.92978 8.80726 7.76367 8.76237C7.59757 8.71749 7.42124 8.73239 7.26477 8.80453C7.10829 8.87668 6.98136 9.00165 6.90563 9.15804C6.8299 9.31443 6.81006 9.49258 6.84949 9.66214L8.35465 13.0217C8.09907 13.071 7.83887 13.0913 7.57886 13.0822ZM22.3387 13.2232C22.0434 13.2229 21.7493 13.1846 21.4635 13.1091L23.0084 9.78977C23.0829 9.61337 23.0881 9.4148 23.023 9.23465C22.9578 9.0545 22.8272 8.90642 22.6578 8.82061C22.4885 8.7348 22.2932 8.71778 22.1118 8.77304C21.9305 8.82829 21.7769 8.95162 21.6823 9.11785L20.1506 12.4371C19.6548 12.0553 19.2633 11.5515 19.0132 10.9736C18.7631 10.3956 18.6627 9.7626 18.7214 9.13434C18.7802 8.50608 18.9962 7.90335 19.3489 7.38328C19.7016 6.8632 20.1795 6.44301 20.7373 6.16232C21.2951 5.88162 21.9143 5.74978 22.5364 5.77928C23.1584 5.80878 23.7628 5.99862 24.2923 6.33087C24.8217 6.66312 25.2588 7.12679 25.5621 7.67798C25.8653 8.22916 26.0248 8.84964 26.0254 9.48071C26.028 9.97237 25.9345 10.4597 25.7503 10.9145C25.566 11.3693 25.2946 11.7827 24.9519 12.1306C24.6091 12.4786 24.2017 12.7544 23.7532 12.9419C23.3047 13.1294 22.8239 13.225 22.3387 13.2232Z" stroke="#231916" stroke-width="0.45"/>
<path d="M8.16898 18.5785H12.3861C12.4987 18.5531 12.6013 18.494 12.6805 18.409C12.7597 18.324 12.8119 18.2168 12.8303 18.1013C12.8371 17.981 12.806 17.8617 12.7417 17.7603C12.6774 17.6589 12.5831 17.5807 12.4723 17.537L9.82002 17.1674C9.62274 17.1471 9.42345 17.167 9.2339 17.226C9.04435 17.285 8.86838 17.3819 8.71635 17.5109C8.56433 17.6399 8.43933 17.7984 8.34874 17.9772C8.25815 18.1559 8.20379 18.3512 8.18887 18.5515" fill="white"/>
<path d="M8.16898 18.5785H12.3861C12.4987 18.5531 12.6013 18.494 12.6805 18.409C12.7597 18.324 12.8119 18.2168 12.8303 18.1013C12.8371 17.981 12.806 17.8617 12.7417 17.7603C12.6774 17.6589 12.5831 17.5807 12.4723 17.537L9.82002 17.1674C9.6191 17.1442 9.41563 17.1629 9.22207 17.2222C9.02851 17.2815 8.84893 17.3802 8.69435 17.5123C8.53977 17.6444 8.41344 17.8071 8.3231 17.9905C8.23276 18.1738 8.18031 18.3739 8.16898 18.5785Z" stroke="#231916" stroke-width="0.45"/>
</g>
<defs>
<clipPath id="clip0_8063_9398">
<rect width="70" height="70" fill="white"/>
</clipPath>
</defs>
</svg>
