<svg width="71" height="71" viewBox="0 0 71 71" fill="none" xmlns="http://www.w3.org/2000/svg">
<g clip-path="url(#clip0_8063_8246)">
<path d="M22.39 53.27C23.1962 53.3053 23.9745 53.5766 24.6279 54.0502C25.2813 54.5238 25.7812 55.1788 26.0656 55.9341C26.3501 56.6893 26.4065 57.5115 26.2278 58.2985C26.049 59.0854 25.6431 59.8026 25.0604 60.361C24.4777 60.9193 23.7438 61.2942 22.9499 61.4391C22.156 61.584 21.337 61.4926 20.5946 61.1761C19.8522 60.8597 19.219 60.3323 18.7738 59.6592C18.3285 58.9861 18.0908 58.197 18.0901 57.39C18.0991 56.8363 18.2178 56.2899 18.4393 55.7823C18.6608 55.2748 18.9808 54.8162 19.3807 54.4331C19.7806 54.05 20.2524 53.7499 20.7689 53.5503C21.2854 53.3506 21.8364 53.2554 22.39 53.27Z" fill="#231916"/>
<path d="M51.82 51.74L52.5901 52.8L66.16 54.91V43.1L57.31 41.5699L51.41 45.92L40.0901 47.1L40.15 48.4401L40.68 49.03L40.79 50.5601H39.79L39.49 36.8101L39.8401 36.1V35.22L37.4799 35.28L29.87 38.75C23.33 41.63 16.87 44.92 10.41 47.98V54.45H7.17001V46.38H5.51999V59.02L17.02 58.1901C17.13 58.1901 17.2599 53.19 21.8499 52.85C26.4399 52.51 27.28 57.14 27.52 57.14L34.88 56.9L34.95 54.9H33.36L33.29 50.4301L25.63 50.61L25.52 48.67C25.52 48.31 25.69 48.08 24.81 47.67L38.01 36.4401C38.2509 36.6082 38.4723 36.8027 38.67 37.02L39.02 51.9L41.02 51.84L41.2 51.78L45.0901 51.66C45.4605 51.1988 45.927 50.8238 46.4572 50.5613C46.9874 50.2988 47.5686 50.155 48.16 50.14C48.16 50.14 50.87 49.72 51.81 51.78" fill="#231916"/>
<path d="M22.81 48.21C22.1 48.21 21.34 48.27 20.56 48.27C20.4821 48.1587 20.4354 48.0286 20.4249 47.8932C20.4143 47.7578 20.4402 47.622 20.4999 47.5C26.6399 42.98 29 41.6301 33.3 38.6901C33.66 38.4501 34.3 38.1 34.42 38.04C34.6 38.33 33.84 38.92 32.83 39.74C28.7 43.16 27.58 43.74 22.83 48.21" fill="white"/>
<path d="M17.73 48.15C21.86 45.39 25.94 42.69 30.12 40.04C31.19 39.51 31.89 38.92 31.77 38.86C30.9903 39.0376 30.2372 39.3167 29.5301 39.6901C23.9301 42.1601 20.1501 44.2699 15.5301 46.5699C15.1801 46.9799 14.94 47.04 15.12 48.21" fill="white"/>
<path d="M57.55 42.51L55.55 46.45L53.19 46.22C53.07 45.98 53.0099 45.51 53.1299 45.51" fill="white"/>
<path d="M58.2 42.5699L64.62 43.6899L62.55 47.4499L56.13 46.5099" fill="white"/>
<path d="M65.21 43.98L63.09 47.56L65.27 47.86" fill="white"/>
<path d="M22.39 54.7399C23.1217 54.7316 23.8279 55.009 24.3582 55.5133C24.8886 56.0175 25.2014 56.7088 25.2299 57.44C25.2299 58.1985 24.9287 58.9259 24.3923 59.4622C23.8559 59.9986 23.1285 60.3 22.37 60.3C21.6114 60.3 20.884 59.9986 20.3476 59.4622C19.8113 58.9259 19.51 58.1985 19.51 57.44C19.5387 56.7017 19.8569 56.0043 20.396 55.499C20.935 54.9936 21.6514 54.721 22.39 54.7399Z" fill="white"/>
<path d="M22.39 56.21C22.6199 56.2041 22.8463 56.2672 23.0399 56.3913C23.2335 56.5153 23.3856 56.6946 23.4763 56.9059C23.567 57.1172 23.5923 57.3508 23.5489 57.5767C23.5055 57.8025 23.3954 58.0103 23.2328 58.1729C23.0702 58.3355 22.8625 58.4455 22.6367 58.4889C22.4109 58.5323 22.1772 58.5071 21.9659 58.4164C21.7546 58.3257 21.5753 58.1736 21.4513 57.98C21.3272 57.7863 21.2641 57.5599 21.27 57.33C21.28 57.0361 21.4012 56.757 21.6091 56.5491C21.817 56.3412 22.0961 56.2199 22.39 56.21Z" fill="#231916"/>
<path d="M48.66 50.5C49.2051 50.5118 49.7347 50.6843 50.1822 50.9957C50.6298 51.3072 50.9755 51.7438 51.176 52.2509C51.3765 52.758 51.4229 53.3129 51.3093 53.8462C51.1957 54.3795 50.9272 54.8675 50.5376 55.2489C50.1479 55.6303 49.6544 55.8883 49.1187 55.9904C48.5831 56.0925 48.0292 56.0342 47.5266 55.8229C47.0239 55.6116 46.5947 55.2566 46.2929 54.8025C45.9911 54.3484 45.8302 53.8153 45.83 53.27C45.8432 52.5291 46.1474 51.8231 46.677 51.3047C47.2066 50.7863 47.9189 50.4973 48.66 50.5Z" fill="#231916"/>
<path d="M48.66 51.5C49.143 51.4891 49.6109 51.6687 49.9626 51.9999C50.3144 52.331 50.5218 52.7872 50.54 53.27C50.54 53.7686 50.3419 54.2468 49.9893 54.5993C49.6368 54.9519 49.1586 55.15 48.66 55.15C48.1614 55.15 47.6832 54.9519 47.3307 54.5993C46.9781 54.2468 46.78 53.7686 46.78 53.27C46.7983 52.7872 47.0056 52.331 47.3574 51.9999C47.7091 51.6687 48.177 51.4891 48.66 51.5Z" fill="white"/>
<path d="M48.66 52.45C48.7564 52.4525 48.8513 52.4743 48.939 52.5142C49.0267 52.554 49.1055 52.6111 49.1708 52.682C49.2361 52.7529 49.2865 52.8361 49.319 52.9268C49.3515 53.0175 49.3654 53.1138 49.36 53.21C49.3699 53.3071 49.3591 53.4054 49.3283 53.498C49.2974 53.5907 49.2473 53.6757 49.1812 53.7476C49.115 53.8194 49.0343 53.8765 48.9445 53.9148C48.8546 53.9531 48.7577 53.9719 48.66 53.97C48.5587 53.9741 48.4576 53.9574 48.3629 53.9208C48.2683 53.8842 48.1821 53.8286 48.1099 53.7573C48.0377 53.686 47.981 53.6006 47.9431 53.5065C47.9053 53.4123 47.8872 53.3114 47.89 53.21C47.8952 53.0083 47.9783 52.8165 48.1218 52.6748C48.2654 52.5331 48.4583 52.4525 48.66 52.45Z" fill="#231916"/>
<path d="M39.49 51.09H38.96V53.86H39.49V51.09Z" fill="#231916"/>
<path d="M18.9701 23.38V22.15H20.5V23.38M18.9701 19.15V17.92H19.03V16.74H18.9701V15.5699H19.03V13.86H19.86C20.0751 13.8347 20.2932 13.8552 20.5 13.92C20.5151 14.0195 20.5151 14.1205 20.5 14.2199L20.44 14.39V21.0899H19.08V19.15H18.9701ZM17.27 14.39C17.2998 15.5959 16.969 16.7832 16.32 17.8C15.5392 18.9245 14.4532 19.8022 13.19 20.3299C13.08 20.0899 12.9601 19.92 12.8401 19.68C12.6977 19.4755 12.5406 19.2816 12.37 19.1C13.2835 18.8513 14.104 18.3403 14.7299 17.63C15.251 17.0887 15.5629 16.3799 15.61 15.63H12.9601V14.38L17.27 14.39ZM18.9701 16.74H17.44V15.5699H18.9701V16.74ZM18.9701 19.15H17.44V17.92H18.9701V19.15ZM18.9701 22.15V23.38H13.55V20.38H14.32C14.5426 20.3588 14.7669 20.3967 14.9701 20.49C14.9701 20.49 14.9701 20.61 14.9701 20.73L14.9 20.9V22.0799L18.9701 22.15Z" fill="#231916"/>
<path d="M32.95 23.38V22.15H33.7201V23.38M32.95 21.09V13.86H33.07C33.43 13.86 33.6 13.86 33.66 13.92C33.72 13.98 33.72 14.04 33.66 14.16L33.5999 14.33V21.09H32.95ZM30.06 14.92C30.4569 15.4425 30.6649 16.084 30.65 16.74C30.6645 17.4174 30.4573 18.0811 30.06 18.63C29.8305 18.8845 29.5472 19.0847 29.2307 19.2162C28.9142 19.3476 28.5723 19.407 28.2299 19.39V18.21C28.3825 18.2125 28.5332 18.1762 28.6679 18.1045C28.8026 18.0328 28.9169 17.9281 29 17.8C29.2018 17.4842 29.3029 17.1145 29.29 16.74C29.3024 16.3843 29.2007 16.0339 29 15.74C28.9156 15.6133 28.8011 15.5095 28.6667 15.438C28.5323 15.3664 28.3822 15.3292 28.2299 15.33V14.1C28.5769 14.0911 28.9214 14.1602 29.2381 14.3021C29.5548 14.444 29.8357 14.6552 30.06 14.92ZM32.95 21.09H32.24V13.86H32.95V21.09ZM32.95 23.38H28.18V22.15H32.95V23.38ZM28.18 19.38C27.8378 19.3963 27.4962 19.3366 27.1798 19.2052C26.8634 19.0738 26.5799 18.8739 26.3499 18.62C25.9277 18.0834 25.7146 17.4118 25.75 16.73C25.714 16.0694 25.9282 15.4197 26.3499 14.91C26.5751 14.6463 26.8562 14.4359 27.1727 14.2941C27.4892 14.1523 27.8333 14.0825 28.18 14.09V15.3199C28.0305 15.3322 27.8851 15.3749 27.7527 15.4454C27.6202 15.5159 27.5036 15.6127 27.41 15.73C27.2057 16.0227 27.1005 16.3732 27.11 16.73C27.1 17.1056 27.2047 17.4754 27.41 17.79C27.5019 17.9091 27.6181 18.0072 27.7508 18.0779C27.8836 18.1486 28.0299 18.1902 28.18 18.2V19.38ZM28.18 22.14V23.38H26.51V20.27H27.3499C27.5675 20.2787 27.7845 20.2987 28 20.33C28.0254 20.3759 28.0387 20.4275 28.0387 20.48C28.0387 20.5325 28.0254 20.5841 28 20.63L27.94 20.8V22.15L28.18 22.14Z" fill="#231916"/>
<path d="M44.45 14.64V15.9401H42.51V16.29C42.4908 17.2626 42.6925 18.2267 43.0999 19.11C43.3714 19.9131 43.9356 20.5844 44.68 20.99C44.4848 21.1437 44.31 21.3219 44.16 21.52C43.9888 21.6903 43.8499 21.8902 43.75 22.11C43.2277 21.7483 42.802 21.2642 42.51 20.7C42.1428 20.1307 41.9008 19.4898 41.8 18.8199C41.6655 19.5055 41.4044 20.1601 41.03 20.75C40.6595 21.3135 40.2002 21.8133 39.67 22.23C39.5353 22.0168 39.3777 21.819 39.2 21.64C39.0421 21.4672 38.8679 21.3098 38.68 21.17C39.4691 20.643 40.0985 19.9098 40.5 19.05C40.9027 18.184 41.1239 17.2447 41.15 16.29V15.9401H39.26V14.64M46.87 13.88C46.93 13.88 46.93 14 46.93 14.12L46.87 14.23C46.8215 14.3221 46.8007 14.4263 46.81 14.53V23.64H45.4601V13.8199H46.27C46.63 13.8199 46.81 13.82 46.87 13.88Z" fill="#231916"/>
<path d="M56.54 14.8199C56.9491 15.3126 57.1594 15.9403 57.13 16.58C57.1506 16.8899 57.1091 17.201 57.0078 17.4946C56.9065 17.7883 56.7474 18.0587 56.54 18.29C56.3162 18.5522 56.034 18.7584 55.7163 18.8921C55.3985 19.0258 55.054 19.0833 54.7101 19.0601V17.8199C54.867 17.8294 55.0239 17.8018 55.1681 17.7393C55.3123 17.6767 55.4397 17.581 55.54 17.46C55.7104 17.1995 55.7911 16.8905 55.77 16.58C55.8056 16.2682 55.7236 15.9544 55.54 15.7C55.4387 15.5808 55.3108 15.4871 55.1666 15.4263C55.0224 15.3655 54.8661 15.3393 54.7101 15.35V14.0601C55.0517 14.0485 55.3918 14.1103 55.7075 14.2415C56.0232 14.3726 56.3071 14.5698 56.54 14.8199ZM54.7101 21.29V20H60.0801V23.64H58.66V21.29H54.7101ZM60.14 13.88C60.2 13.94 60.2 14 60.14 14.17L60.0801 14.35V19.35H58.66V18.24H57.2V17.01H58.66V16.1801H57.2V14.95H58.66V13.77H59.49C59.7077 13.7751 59.925 13.7951 60.14 13.83M54.7101 19.01C54.3582 19.0389 54.0044 18.9842 53.6777 18.8503C53.351 18.7165 53.0606 18.5074 52.8301 18.24C52.6207 18.01 52.4604 17.7397 52.359 17.4457C52.2575 17.1517 52.217 16.8402 52.24 16.53C52.2055 15.8897 52.4166 15.2602 52.8301 14.77C53.0698 14.5149 53.362 14.3148 53.6866 14.1836C54.0112 14.0524 54.3604 13.9932 54.7101 14.01V15.38C54.5448 15.3661 54.3784 15.3905 54.2241 15.4512C54.0698 15.5119 53.9316 15.6072 53.82 15.73C53.6407 15.9864 53.5592 16.2986 53.5901 16.61C53.5738 16.9201 53.6541 17.2275 53.82 17.49C53.9296 17.6158 54.0672 17.7139 54.2219 17.7765C54.3765 17.839 54.5438 17.8642 54.7101 17.85V19.01ZM54.7101 21.24H52.88V19.9401H54.7101V21.24Z" fill="#231916"/>
<path d="M5.84991 70.38C5.11323 70.3907 4.38187 70.2539 3.69891 69.9775C3.01596 69.7012 2.39524 69.2908 1.87335 68.7708C1.35145 68.2507 0.939029 67.6315 0.660214 66.9496C0.381399 66.2676 0.241849 65.5368 0.249936 64.8" stroke="#231916" stroke-width="0.49" stroke-linecap="round" stroke-linejoin="round"/>
<path d="M0.23999 64.79V5.82996" stroke="#231916" stroke-width="0.49" stroke-linecap="round" stroke-linejoin="round"/>
<path d="M0.249969 5.82993C0.257521 4.36176 0.826483 2.95216 1.84006 1.88998C2.36552 1.3661 2.98946 0.951493 3.67599 0.670013C4.36253 0.388533 5.09807 0.245739 5.84006 0.249969" stroke="#231916" stroke-width="0.49" stroke-linecap="round" stroke-linejoin="round"/>
<path d="M5.85001 0.23999H65" stroke="#231916" stroke-width="0.49" stroke-linecap="round" stroke-linejoin="round"/>
<path d="M65 0.250015C65.7426 0.241307 66.4794 0.381976 67.1666 0.663711C67.8538 0.945446 68.4772 1.36251 69 1.89003C69.5266 2.40201 69.9449 3.01458 70.2301 3.69142C70.5152 4.36826 70.6615 5.09551 70.66 5.82997" stroke="#231916" stroke-width="0.49" stroke-linecap="round" stroke-linejoin="round"/>
<path d="M70.61 5.82996V64.79" stroke="#231916" stroke-width="0.49" stroke-linecap="round" stroke-linejoin="round"/>
<path d="M70.66 64.79C70.6667 65.5253 70.5229 66.2541 70.2374 66.9316C69.9519 67.6092 69.5308 68.2212 69 68.73C68.4772 69.2575 67.8538 69.6746 67.1666 69.9563C66.4794 70.238 65.7426 70.3787 65 70.37" stroke="#231916" stroke-width="0.49" stroke-linecap="round" stroke-linejoin="round"/>
<path d="M65 70.37H5.85001" stroke="#231916" stroke-width="0.49" stroke-linecap="round" stroke-linejoin="round"/>
<path d="M5.84995 68.26C4.92351 68.2681 4.0317 67.9084 3.36996 67.26C2.72854 66.5978 2.36992 65.712 2.36996 64.79" stroke="#231916" stroke-width="0.49" stroke-linecap="round" stroke-linejoin="round"/>
<path d="M2.31 64.79V5.82996" stroke="#231916" stroke-width="0.49" stroke-linecap="round" stroke-linejoin="round"/>
<path d="M2.32004 5.82997C2.31999 4.90802 2.67862 4.02224 3.32004 3.36C3.98177 2.71156 4.87358 2.35195 5.80002 2.36" stroke="#231916" stroke-width="0.49" stroke-linecap="round" stroke-linejoin="round"/>
<path d="M5.85001 2.35999H65" stroke="#231916" stroke-width="0.49" stroke-linecap="round" stroke-linejoin="round"/>
<path d="M65 2.38005C65.4588 2.37199 65.9147 2.45608 66.3404 2.62736C66.7662 2.79864 67.1532 3.05367 67.4786 3.37724C67.804 3.70081 68.0612 4.08639 68.235 4.51115C68.4087 4.93591 68.4954 5.39113 68.49 5.85002" stroke="#231916" stroke-width="0.49" stroke-linecap="round" stroke-linejoin="round"/>
<path d="M68.49 5.82996V64.79" stroke="#231916" stroke-width="0.49" stroke-linecap="round" stroke-linejoin="round"/>
<path d="M68.49 64.79C68.4954 65.2485 68.4087 65.7032 68.2348 66.1274C68.061 66.5517 67.8037 66.9366 67.4781 67.2594C67.1525 67.5822 66.7654 67.8363 66.3397 68.0065C65.914 68.1766 65.4583 68.2594 65 68.25" stroke="#231916" stroke-width="0.49" stroke-linecap="round" stroke-linejoin="round"/>
<path d="M65 68.25H5.85001" stroke="#231916" stroke-width="0.49" stroke-linecap="round" stroke-linejoin="round"/>
</g>
<defs>
<clipPath id="clip0_8063_8246">
<rect width="70.86" height="70.61" fill="white"/>
</clipPath>
</defs>
</svg>
