<svg width="68" height="68" viewBox="0 0 68 68" fill="none" xmlns="http://www.w3.org/2000/svg">
<g clip-path="url(#clip0_8063_7094)">
<path d="M33.92 67.4C40.5578 67.3743 47.0394 65.3825 52.5461 61.676C58.0528 57.9695 62.3379 52.7145 64.8603 46.5745C67.3827 40.4345 68.0294 33.6849 66.7187 27.1776C65.408 20.6704 62.1986 14.6974 57.4958 10.0127C52.793 5.32805 46.8076 2.14184 40.2954 0.856268C33.7832 -0.429308 27.036 0.243434 20.9058 2.78956C14.7756 5.33568 9.53724 9.641 5.85204 15.162C2.16684 20.683 0.20005 27.1721 0.200001 33.81C0.205247 38.2289 1.08133 42.6034 2.77813 46.6835C4.47492 50.7637 6.95913 54.4694 10.0889 57.5889C13.2186 60.7084 16.9325 63.1806 21.0181 64.864C25.1038 66.5475 29.4811 67.4092 33.9 67.4" stroke="#004A9C" stroke-width="0.45"/>
<path d="M2.19998 33.81C2.18415 27.5461 4.02677 21.4184 7.49466 16.202C10.9625 10.9857 15.8998 6.91535 21.6818 4.50593C27.4637 2.09651 33.8305 1.45632 39.9763 2.66645C46.1222 3.87658 51.771 6.88262 56.2079 11.3041C60.6448 15.7257 63.6705 21.364 64.902 27.5056C66.1335 33.6473 65.5155 40.0162 63.1262 45.8065C60.7369 51.5968 56.6837 56.5481 51.4795 60.0341C46.2752 63.5201 40.1539 65.3841 33.89 65.39C25.5003 65.4033 17.4488 62.0839 11.506 56.1618C5.56327 50.2396 2.21588 42.1997 2.19998 33.81Z" fill="#004A9C"/>
<path d="M34.95 11.02L34.51 9.39004C34.3 7.92004 33.21 7.00004 31.31 8.58004C29.41 10.16 22.92 15.58 22.92 15.58C21.92 16.58 22.16 16.83 23.3 17.27L34.03 21.34C36.15 22.21 36.86 21.18 36.59 19.65C36.59 19.49 36.26 17.75 36.26 17.75L35.93 16.13C39.4672 16.3842 42.8566 17.6507 45.6937 19.7785C48.5307 21.9063 50.6956 24.8055 51.93 28.13L56.72 26.34C55.0598 21.8884 52.0903 18.0438 48.2025 15.3127C44.3147 12.5816 39.6909 11.092 34.94 11.0401" fill="white"/>
<path d="M14.81 44.33L13.56 45.47C12.36 46.47 12.15 47.81 14.43 48.67C16.71 49.53 24.66 52.53 24.66 52.53C26.08 52.91 26.19 52.58 25.97 51.34L24.2 40.05C23.93 37.77 22.67 37.66 21.48 38.64C21.37 38.64 20.01 39.83 20.01 39.83L18.76 40.92C17.224 37.7347 16.6482 34.1713 17.1028 30.6643C17.5574 27.1574 19.0227 23.8584 21.32 21.17L17.39 17.91C14.3092 21.5204 12.4077 25.9875 11.9411 30.7106C11.4745 35.4338 12.4652 40.1866 14.78 44.33" fill="white"/>
<path d="M54.11 44.77L55.75 45.2C57.16 45.69 58.53 45.2 58.03 42.81C57.53 40.42 55.97 32.07 55.97 32.07C55.63 30.72 55.26 30.77 54.33 31.58L45.57 38.96C43.72 40.37 44.26 41.51 45.78 41.96C45.9 42.02 47.58 42.61 47.58 42.61L49.16 43.1C47.218 46.074 44.46 48.4253 41.2162 49.8725C37.9725 51.3197 34.3804 51.8014 30.87 51.26L30.11 56.26C34.804 56.9939 39.6102 56.2878 43.8948 54.2347C48.1793 52.1817 51.7409 48.8783 54.11 44.76" fill="white"/>
</g>
<defs>
<clipPath id="clip0_8063_7094">
<rect width="67.84" height="67.62" fill="white"/>
</clipPath>
</defs>
</svg>
