<svg width="68" height="68" viewBox="0 0 68 68" fill="none" xmlns="http://www.w3.org/2000/svg">
<g clip-path="url(#clip0_8063_7101)">
<path d="M33.92 67.4C40.5592 67.3802 47.0436 65.3934 52.5543 61.6905C58.065 57.9876 62.3547 52.7347 64.8817 46.5952C67.4087 40.4557 68.0597 33.7051 66.7524 27.1958C65.445 20.6866 62.238 14.7108 57.5364 10.0232C52.8348 5.33552 46.8495 2.14624 40.3364 0.858251C33.8233 -0.429742 27.0746 0.241275 20.9427 2.78653C14.8107 5.33179 9.57059 9.63713 5.88408 15.1588C2.19756 20.6804 0.230052 27.1708 0.230022 33.81C0.256493 42.7278 3.81762 51.2713 10.1329 57.5678C16.4481 63.8643 25.0022 67.4 33.92 67.4Z" stroke="#004A9C" stroke-width="0.45"/>
<path d="M2.30001 33.81C2.28418 27.5431 4.12853 21.4126 7.59951 16.1947C11.0705 10.9769 16.0119 6.90655 21.7979 4.49918C27.584 2.09181 33.9543 1.45574 40.1021 2.67154C46.2499 3.88735 51.8986 6.9003 56.3327 11.3288C60.7669 15.7574 63.787 21.4022 65.0106 27.5485C66.2342 33.6947 65.6061 40.0659 63.2061 45.855C60.806 51.644 56.742 56.5906 51.5285 60.0681C46.3151 63.5457 40.1869 65.3979 33.92 65.39C25.5408 65.39 17.5042 62.0641 11.5754 56.1429C5.64665 50.2216 2.31061 42.1892 2.30001 33.81Z" fill="#004A9C"/>
<path d="M45.14 20.41L34.14 8.47003C34.14 8.47003 23.8 19.81 23.04 20.68C21.95 21.93 23.04 22.57 23.48 22.57H29.35V59.04H38.77V22.63L44.2 22.69C45.13 22.69 46.55 21.76 45.2 20.41" fill="white"/>
</g>
<defs>
<clipPath id="clip0_8063_7101">
<rect width="67.9" height="67.62" fill="white"/>
</clipPath>
</defs>
</svg>
