<svg width="74" height="34" viewBox="0 0 74 34" fill="none" xmlns="http://www.w3.org/2000/svg">
<g clip-path="url(#clip0_8063_8984)">
<path d="M32.0206 33.3975H44.0699V30.0612H42.369V31.513H32.0206" fill="white"/>
<path d="M32.0206 33.3975H44.0699V30.0612H42.369V31.513H32.0206V33.3975Z" stroke="#231916" stroke-width="0.49"/>
<path d="M32.0206 1.27556H44.0699V4.62781H42.369V3.17923H32.0206" fill="white"/>
<path d="M32.0206 1.27556H44.0699V4.62781H42.369V3.17923H32.0206V1.27556Z" stroke="#231916" stroke-width="0.49"/>
<path d="M44.0699 25.9751H32.0206V24.0907H44.0699V25.9751Z" fill="white"/>
<path d="M44.0699 25.9751H32.0206V24.0907H44.0699V25.9751Z" stroke="#231916" stroke-width="0.49"/>
<path d="M44.0699 17.7227H32.0206V15.8574H44.0699V17.7227Z" fill="white"/>
<path d="M44.0699 17.7227H32.0206V15.8574H44.0699V17.7227Z" stroke="#231916" stroke-width="0.49"/>
<path d="M44.0699 10.5054H32.0206V8.62414H44.0699V10.5054Z" fill="white"/>
<path d="M44.0699 10.5054H32.0206V8.62414H44.0699V10.5054Z" stroke="#231916" stroke-width="0.49"/>
<path d="M31.9636 29.6671V27.8019" stroke="#231916" stroke-width="0.49"/>
<path d="M31.9636 21.7736V19.9084" stroke="#231916" stroke-width="0.49"/>
<path d="M31.9636 13.9026V12.0182" stroke="#231916" stroke-width="0.49"/>
<path d="M31.9636 6.87109V5.00589" stroke="#231916" stroke-width="0.49"/>
<path d="M24.2126 33.3046V0.596108" stroke="#231916" stroke-width="0.49"/>
<path d="M63.0688 26.709V24.8438" stroke="#231916" stroke-width="0.49"/>
<path d="M63.0688 19.5142V17.6297" stroke="#231916" stroke-width="0.49"/>
<path d="M63.0688 12.204V10.3388" stroke="#231916" stroke-width="0.49"/>
<path d="M63.0688 5.19177V3.32977" stroke="#231916" stroke-width="0.49"/>
<path d="M57.2406 33.3046V0.596108" stroke="#231916" stroke-width="0.49"/>
<path d="M73.905 29.7632V33.3975L63.0657 29.8561V28.2922L72.3149 31.3432V29.7632" fill="white"/>
<path d="M73.905 29.7632V33.3975L63.0657 29.8561V28.2922L72.3149 31.3432V29.7632H73.905Z" stroke="#231916" stroke-width="0.49"/>
<path d="M73.9208 26.3726L63.0657 22.8312V21.248L73.9208 24.7317" fill="white"/>
<path d="M73.9208 26.3726L63.0657 22.8312V21.248L73.9208 24.7317V26.3726Z" stroke="#231916" stroke-width="0.49"/>
<path d="M73.9208 19.1937L63.0657 15.63V14.0692L73.9208 17.5529" fill="white"/>
<path d="M73.9208 19.1937L63.0657 15.63V14.0692L73.9208 17.5529V19.1937Z" stroke="#231916" stroke-width="0.49"/>
<path d="M73.9208 11.8451L63.0657 8.30376V6.72057L73.9208 10.2074" fill="white"/>
<path d="M73.9208 11.8451L63.0657 8.30376V6.72057L73.9208 10.2074V11.8451Z" stroke="#231916" stroke-width="0.49"/>
<path d="M73.905 7.3999V3.76243L63.0657 0.108923V1.6889L72.3149 4.93219V7.3999" fill="white"/>
<path d="M73.905 7.3999V3.76243L63.0657 0.108923V1.6889L72.3149 4.93219V7.3999H73.905Z" stroke="#231916" stroke-width="0.49"/>
<path d="M0.0760193 33.7372V0.596075" stroke="#231916" stroke-width="0.49"/>
<path d="M8.61254 34H13.3195V0.596104H8.61254V0.560855H11.8814V1.14412H8.61254V2.35555H11.8814V11.0791H8.61254V12.8514H11.8814V21.5909H8.61254V23.5074H11.8814V32.2277H8.61254V33.1892H11.8814V34M4.07346 0.596104V34H5.36264V33.1892H8.61254V32.2277H5.36264V23.5074H8.61254V21.6038H5.36264V12.8642H8.61254V11.0919H5.36264V2.35555H8.61254V1.13132H5.36264V0.548023H8.61254V0.583272L4.07346 0.596104Z" fill="white"/>
<path d="M4.07346 34V0.596096" stroke="#231916" stroke-width="0.49"/>
<path d="M13.3195 34V0.596096" stroke="#231916" stroke-width="0.49"/>
<path d="M11.8814 32.2278H5.36264V23.5075H11.8814V32.2278Z" stroke="#231916" stroke-width="0.49"/>
<path d="M11.8814 21.5653H5.36264V12.8257H11.8814V21.5653Z" stroke="#231916" stroke-width="0.49"/>
<path d="M11.8814 11.0919H5.36264V2.36838H11.8814V11.0919Z" stroke="#231916" stroke-width="0.49"/>
<path d="M11.8846 0.560887V1.14417H5.36264V0.560887" stroke="#231916" stroke-width="0.49"/>
<path d="M5.36264 33.9071V33.2309H11.8846V33.9071" stroke="#231916" stroke-width="0.49"/>
</g>
<defs>
<clipPath id="clip0_8063_8984">
<rect width="74" height="34" fill="white" transform="matrix(1 0 0 -1 0 34)"/>
</clipPath>
</defs>
</svg>
