<svg width="76" height="66" viewBox="0 0 76 66" fill="none" xmlns="http://www.w3.org/2000/svg">
<g clip-path="url(#clip0_8063_6524)">
<path d="M1.16996 59.55L34.17 2.54999C36 -0.570009 39.24 -0.570009 41.07 2.54999L74.34 59.63C76.28 62.86 74.69 65.44 70.8 65.44H4.79996C0.549961 65.44 -0.920013 62.97 1.13999 59.51" fill="white"/>
<path d="M1.16998 59.55L34.17 2.54999C36 -0.570009 39.24 -0.570009 41.07 2.54999L74.34 59.63C76.28 62.86 74.69 65.44 70.8 65.44H4.79998C0.579984 65.48 -0.890021 63.01 1.16998 59.55Z" stroke="#D20D18" stroke-width="0.49"/>
<path d="M2.59005 60.19L35.44 3.69998C36.62 1.63998 38.74 1.69998 39.86 3.69998L72.8601 60.31C74.0401 62.31 72.8001 63.9 70.5001 63.9H5.18002C2.59002 63.9 1.47005 62.2 2.59005 60.19Z" fill="#D20D18"/>
<path d="M37.8 12.87L63.69 57.49H11.55" fill="#F8B500"/>
<path d="M37.8 12.87L63.69 57.49H11.55L37.8 12.87Z" stroke="#D20D18" stroke-width="0.56"/>
<path d="M33.26 57.37H11.73L25.05 35.03H31.72H33.43V36.68" fill="#231916"/>
<path d="M41.27 28.98L44.11 30.62V33.68L46.65 35.86C47.53 36.74 47.65 37.21 47 37.86L45.46 39.74L43.81 38.68L42.99 39.56C42.58 40.03 41.81 39.86 41.27 39.5V31.62L43.17 32.8L43.34 30.86L41.27 29.63M39.63 27.98L41.27 28.98V29.63L40.45 29.15L39.63 29.98V29.21L39.98 28.86L39.63 28.63V27.98ZM41.27 39.5C41.0793 39.3888 40.9271 39.2219 40.8342 39.0216C40.7412 38.8214 40.7118 38.5975 40.75 38.38L41.27 37.32L39.63 36.27V30.56L41.27 31.62V39.5ZM37.86 26.98L39.63 27.98V28.63L37.86 27.51V26.98ZM39.63 36.27L37.86 35.15V29.5L38.68 30.04L39.68 29.21V29.98L39.32 30.33L39.68 30.56L39.63 36.27ZM32.02 32.86C32.25 32.33 32.37 32.04 32.55 31.68L29.72 29.5L32.25 27.68C32.37 27.68 32.73 27.22 33.03 27.51L34.44 27.98L37.44 26.69L37.86 26.98V27.51L37.62 27.33L35.73 28.1L37.86 29.5V35.15L35.27 33.39C34.73 34.03 34.44 34.51 33.73 34.51C31.84 33.8 32.02 32.86 32.02 32.86Z" fill="#231916"/>
<path d="M33.14 54.02L32.96 55.49C33.55 55.25 34.32 54.55 35.14 54.55C35.96 54.55 36.74 55.49 37.68 55.49C38.45 55.49 40.1 54.38 40.68 54.38C41.44 54.38 42.21 55.66 43.68 55.66C44.44 55.66 46.21 54.55 46.8 54.73C49.75 55.25 47.57 54.55 49.93 55.66C50.34 55.79 51.52 54.73 53.17 54.73C53.7 54.73 55.24 55.66 56.17 55.66C57.1 55.66 57.8801 54.73 59.1201 54.73C60.3601 54.73 61.41 55.55 62.42 55.73L61.71 54.56C61.19 54.56 60.4801 53.62 59.1201 53.62C57.7601 53.62 57.12 54.74 56.17 54.74C55.22 54.74 53.9301 53.85 52.9901 53.85C52.5201 53.85 50.8101 54.56 49.9901 54.56C48.8701 54.56 47.46 53.62 46.63 53.62C45.63 53.85 44.5 54.56 43.5 54.56C42.6712 54.0398 41.7518 53.6802 40.79 53.5C39.79 53.5 38.79 54.39 37.79 54.39C36.79 54.39 36.26 53.62 35.25 53.62C33.9 53.62 34.25 54.03 33.25 54.03M33.25 51.09C33.9787 50.6577 34.8273 50.4719 35.67 50.56C36.61 50.74 37.2 51.27 38.2 51.27C39.8 51.27 39.44 50.56 41.09 50.56C42.51 50.56 42.75 51.62 43.92 51.44C45.09 51.26 46.46 50.56 47.11 50.56C48.05 50.56 50.2401 52.03 50.2401 52.03C51.4201 52.03 51.42 50.85 53.36 50.85C54.2783 51.0821 55.1673 51.4176 56.0099 51.85C57.0099 51.97 57.1901 50.85 58.6201 50.85C59.5501 50.85 59.9699 51.85 60.3799 52.15L61.09 53.5C60.32 52.92 59.55 51.74 58.73 51.74C57.73 51.74 56.9599 52.74 56.0099 52.92C54.8899 52.74 54.13 51.8 53.36 51.8C52.24 51.8 51.42 52.92 50.36 53.09C48.83 52.92 48.36 51.8 47.06 51.8C45.76 51.8 45.06 52.56 43.87 52.74C42.93 52.74 41.7 51.62 40.98 51.62C39.92 51.62 38.92 52.56 37.92 52.56C37.1851 52.219 36.4134 51.9639 35.62 51.8C34.38 51.44 33.97 52.39 33.2 52.39L33.25 51.09Z" fill="#231916"/>
</g>
<defs>
<clipPath id="clip0_8063_6524">
<rect width="75.44" height="65.72" fill="white"/>
</clipPath>
</defs>
</svg>
