<svg width="22" height="70" viewBox="0 0 22 70" fill="none" xmlns="http://www.w3.org/2000/svg">
<g clip-path="url(#clip0_8063_8724)">
<path d="M6.92509 56.573H4.45001V69.8567H6.92509V56.573Z" fill="white"/>
<path d="M6.92509 56.573H4.45001V69.8567H6.92509V56.573Z" stroke="#231916" stroke-width="0.45"/>
<path d="M0.436006 41.7656H2.63536L5.98249 46.9945L8.98978 41.9414H11.1507L6.89302 49.0847L11.1507 55.8307H9.16291L5.91837 50.5954L2.63536 56.2149H0.262878L4.90526 48.7982" fill="white"/>
<path d="M0.436006 41.7656H2.63536L5.98249 46.9945L8.98978 41.9414H11.1507L6.89302 49.0847L11.1507 55.8307H9.16291L5.91837 50.5954L2.63536 56.2149H0.262878L4.90526 48.7982L0.436006 41.7656Z" stroke="#231916" stroke-width="0.45"/>
<path d="M14.1516 0.0716553L21.8461 14.56L13.6385 28.8856V19.6912C10.0798 20.9024 7.98305 24.64 7.70733 26.3005V40.7563H5.02069V22.2373C5.02069 17.5749 9.76567 11.7079 14.1644 11.7079" fill="white"/>
<path d="M14.1516 0.0716553L21.8461 14.56L13.6385 28.8856V19.6912C10.0798 20.9024 7.98305 24.64 7.70733 26.3005V40.7563H5.02069V22.2373C5.02069 17.5749 9.76567 11.7079 14.1644 11.7079L14.1516 0.0716553Z" stroke="#231916" stroke-width="0.45"/>
</g>
<defs>
<clipPath id="clip0_8063_8724">
<rect width="22" height="70" fill="white"/>
</clipPath>
</defs>
</svg>
