<svg width="69" height="69" viewBox="0 0 69 69" fill="none" xmlns="http://www.w3.org/2000/svg">
<g clip-path="url(#clip0_8068_5352)">
<path d="M34.52 68.7201C27.7229 68.7023 21.0835 66.6701 15.4409 62.8802C9.79838 59.0904 5.40584 53.713 2.81838 47.4276C0.230922 41.1422 -0.435309 34.2308 0.90383 27.5669C2.24297 20.9029 5.52737 14.7855 10.3421 9.98753C15.1568 5.1896 21.2857 1.92653 27.9542 0.610635C34.6228 -0.705257 41.5318 -0.0149097 47.8081 2.59445C54.0845 5.20382 59.4465 9.61508 63.2167 15.2708C66.9868 20.9266 68.9959 27.5729 68.99 34.3701C68.9556 43.4905 65.3091 52.2257 58.8488 58.6636C52.3884 65.1015 43.6405 68.7175 34.52 68.7201ZM34.52 0.410104C27.8153 0.423951 21.265 2.4239 15.6959 6.15749C10.1269 9.89109 5.78891 15.1909 3.22951 21.388C0.670114 27.585 0.00402415 34.4014 1.31545 40.9766C2.62688 47.5519 5.85695 53.5912 10.5979 58.3322C15.3389 63.0731 21.3783 66.3032 27.9535 67.6146C34.5288 68.9261 41.3451 68.26 47.5421 65.7006C53.7392 63.1412 59.039 58.8032 62.7726 53.2342C66.5062 47.6652 68.5062 41.1148 68.52 34.4101C68.4962 25.4037 64.9052 16.7736 58.533 10.4089C52.1608 4.04418 43.5264 0.463299 34.52 0.450105V0.410104Z" fill="#CF1F25"/>
<path d="M34.52 1.62989C28.047 1.64373 21.7231 3.57547 16.3473 7.18117C10.9715 10.7869 6.78472 15.9048 4.3158 21.8885C1.84688 27.8722 1.20646 34.4534 2.47559 40.8009C3.74472 47.1483 6.86647 52.9773 11.4464 57.5517C16.0264 62.126 21.8592 65.2406 28.2081 66.502C34.5571 67.7634 41.1374 67.115 47.1182 64.6388C53.0989 62.1626 58.2118 57.9696 61.8109 52.5893C65.4101 47.2091 67.334 40.883 67.34 34.4099C67.3373 30.1025 66.4864 25.8379 64.8356 21.8594C63.1848 17.8809 60.7666 14.2665 57.719 11.2226C54.6714 8.17873 51.054 5.76491 47.0735 4.11898C43.093 2.47305 38.8274 1.62726 34.52 1.62989ZM34.52 59.9099C29.472 59.898 24.5407 58.3899 20.3496 55.5761C16.1585 52.7623 12.8955 48.7691 10.9733 44.1013C9.05105 39.4336 8.5559 34.3007 9.55018 29.3515C10.5445 24.4023 12.9836 19.859 16.5595 16.2957C20.1353 12.7325 24.6871 10.3093 29.6398 9.3325C34.5924 8.35567 39.7236 8.86901 44.3845 10.8077C49.0455 12.7463 53.0272 16.0233 55.8262 20.2243C58.6252 24.4253 60.1159 29.3618 60.11 34.4099C60.0941 41.1836 57.39 47.674 52.5918 52.4554C47.7936 57.2367 41.2938 59.9179 34.52 59.9099Z" fill="#CF1F25"/>
<path d="M22.82 46.3601C21.5285 45.3632 20.5613 44.0061 20.0401 42.4601C19.2586 40.212 18.8992 37.8388 18.98 35.4601C18.946 33.0626 19.2833 30.6743 19.98 28.3801C20.4657 26.6432 21.4085 25.0685 22.71 23.8201C23.8343 22.7928 25.3072 22.2316 26.83 22.2501C28.0175 22.2308 29.1849 22.5574 30.19 23.1901C31.1848 23.8311 32.0031 24.7112 32.57 25.7501C33.1858 26.8881 33.5603 28.1408 33.6701 29.4301H29.74C29.6545 28.8948 29.4642 28.3817 29.18 27.9201C28.9414 27.5038 28.5962 27.1586 28.18 26.9201C27.7531 26.7021 27.2793 26.5923 26.8001 26.6001C26.3967 26.5933 25.9966 26.6739 25.6272 26.8361C25.2579 26.9983 24.928 27.2385 24.6601 27.5401C24.002 28.3174 23.5452 29.2446 23.33 30.2401C22.9933 31.614 22.8353 33.0257 22.86 34.4401H23.0101C23.2871 33.7483 23.6906 33.1141 24.2 32.5701C24.6806 32.0673 25.2547 31.6631 25.8901 31.3801C26.5219 31.1089 27.2025 30.9694 27.8901 30.9701C28.9924 30.957 30.0681 31.3085 30.95 31.9701C31.8996 32.7066 32.635 33.6837 33.08 34.8001C34.1366 37.5575 34.0901 40.6161 32.95 43.3401C32.4079 44.5786 31.5276 45.6392 30.4101 46.4001C29.3036 47.1361 27.9987 47.5164 26.6701 47.4901C25.3011 47.5181 23.9566 47.1236 22.82 46.3601ZM28.35 42.9501C28.8827 42.5282 29.2991 41.9775 29.56 41.3501C30.1357 39.9157 30.1357 38.3145 29.56 36.8801C29.3067 36.2649 28.8964 35.7269 28.37 35.3201C27.8724 34.9522 27.2689 34.7557 26.6501 34.7601C26.0281 34.7563 25.4226 34.9604 24.93 35.3401C24.3941 35.753 23.9739 36.2972 23.71 36.9201C23.4056 37.6244 23.2458 38.3828 23.24 39.1501C23.2434 39.8962 23.3964 40.6341 23.69 41.3201C23.955 41.948 24.3707 42.5009 24.9001 42.9301C25.3878 43.3211 25.9949 43.5329 26.62 43.5301C27.2455 43.5369 27.855 43.3325 28.35 42.9501Z" fill="#231F20"/>
<path d="M38.24 46.0801C36.9802 44.9131 36.0725 43.4166 35.62 41.7601C34.3934 37.2826 34.3934 32.5576 35.62 28.0801C36.0746 26.4193 36.9858 24.9192 38.25 23.7501C39.3916 22.7876 40.8367 22.2598 42.3299 22.2598C43.8231 22.2598 45.2683 22.7876 46.41 23.7501C47.6656 24.9262 48.5752 26.4237 49.04 28.0801C50.2611 32.5583 50.2611 37.2818 49.04 41.7601C48.5802 43.4158 47.6697 44.9114 46.41 46.0801C45.2617 47.0367 43.8144 47.5605 42.3199 47.5605C40.8254 47.5605 39.3782 47.0367 38.2299 46.0801H38.24ZM44.24 42.4101C44.8766 41.5801 45.3052 40.6097 45.49 39.5801C45.806 38.0443 45.947 36.4776 45.91 34.9101C45.9378 33.349 45.7935 31.7896 45.4799 30.2601C45.2906 29.2258 44.8626 28.2499 44.2299 27.4101C44.0084 27.1093 43.7213 26.863 43.3903 26.6897C43.0594 26.5164 42.6933 26.4208 42.3199 26.4101C41.9461 26.4186 41.5793 26.5132 41.248 26.6867C40.9167 26.8601 40.63 27.1077 40.41 27.4101C39.7779 28.2514 39.3468 29.2263 39.15 30.2601C38.8326 31.7892 38.685 33.3486 38.7099 34.9101C38.6785 36.4784 38.8262 38.0452 39.15 39.5801C39.3347 40.6097 39.7633 41.5801 40.4 42.4101C40.6297 42.7 40.9213 42.9349 41.2535 43.0976C41.5857 43.2602 41.95 43.3465 42.3199 43.3501C42.6911 43.3459 43.0567 43.2594 43.3905 43.0968C43.7242 42.9343 44.0178 42.6997 44.25 42.4101H44.24Z" fill="#231F20"/>
</g>
<defs>
<clipPath id="clip0_8068_5352">
<rect width="68.98" height="68.77" fill="white"/>
</clipPath>
</defs>
</svg>
