<svg width="77" height="30" viewBox="0 0 77 30" fill="none" xmlns="http://www.w3.org/2000/svg">
<g clip-path="url(#clip0_8063_7513)">
<path d="M5.84 28.87C4.36065 28.8622 2.94384 28.2723 1.8959 27.2281C0.847966 26.184 0.253108 24.7692 0.23999 23.2899" stroke="#231916" stroke-width="0.49"/>
<path d="M0.23999 23.29V5.82996" stroke="#231916" stroke-width="0.49"/>
<path d="M0.240004 5.82996C0.238376 5.09637 0.383517 4.36988 0.666884 3.69324C0.950251 3.01659 1.36611 2.40346 1.89 1.88995C2.4082 1.37026 3.02384 0.95793 3.70164 0.676514C4.37945 0.395097 5.10611 0.250171 5.84001 0.25" stroke="#231916" stroke-width="0.49"/>
<path d="M5.85001 0.23999H70.54" stroke="#231916" stroke-width="0.49"/>
<path d="M70.54 0.220013C71.2831 0.214309 72.0198 0.357357 72.7068 0.640728C73.3937 0.924099 74.0171 1.34209 74.54 1.87004C75.0639 2.38354 75.4798 2.99661 75.7631 3.67326C76.0465 4.34991 76.1916 5.07646 76.19 5.81004" stroke="#231916" stroke-width="0.49"/>
<path d="M76.15 5.82996V23.29" stroke="#231916" stroke-width="0.49"/>
<path d="M76.15 23.2899C76.1317 24.7693 75.5338 26.1826 74.4849 27.226C73.4359 28.2693 72.0195 28.8596 70.54 28.87" stroke="#231916" stroke-width="0.49"/>
<path d="M70.54 28.87H5.85001" stroke="#231916" stroke-width="0.49"/>
<path d="M5.84 26.75C5.38263 26.7549 4.92882 26.669 4.50485 26.4973C4.08088 26.3257 3.69517 26.0717 3.37 25.75C2.73793 25.0857 2.38067 24.2068 2.37 23.2899" stroke="#231916" stroke-width="0.49"/>
<path d="M2.37 23.29V5.82996" stroke="#231916" stroke-width="0.49"/>
<path d="M2.34 5.82996C2.33492 5.37106 2.42066 4.91574 2.59228 4.49011C2.76391 4.06449 3.01802 3.677 3.34 3.34998C4.00224 2.70855 4.88805 2.34993 5.81 2.34998" stroke="#231916" stroke-width="0.49"/>
<path d="M5.85001 2.30005H70.54" stroke="#231916" stroke-width="0.49"/>
<path d="M70.54 2.30005C71.4721 2.32177 72.3601 2.70133 73.02 3.36005C73.3414 3.68337 73.5953 4.06731 73.7669 4.48962C73.9386 4.91194 74.0246 5.36416 74.02 5.82001" stroke="#231916" stroke-width="0.49"/>
<path d="M74.02 5.82996V23.29" stroke="#231916" stroke-width="0.49"/>
<path d="M74.02 23.2899C74.0093 24.2068 73.6521 25.0857 73.02 25.75C72.3541 26.392 71.465 26.7505 70.54 26.75" stroke="#231916" stroke-width="0.49"/>
<path d="M70.54 26.76H5.85001" stroke="#231916" stroke-width="0.49"/>
<path d="M6.79001 11.53H7.03C7.5614 11.5616 8.08551 11.394 8.5 11.06C8.6341 10.9438 8.74052 10.7991 8.81146 10.6364C8.8824 10.4738 8.91607 10.2973 8.91 10.12H10.21V18.22H8.67999V12.64H6.79001" fill="#231916"/>
<path d="M14.99 9.94002C15.3822 9.9138 15.7742 9.99264 16.1258 10.1684C16.4774 10.3442 16.7757 10.6105 16.99 10.94C17.5004 11.9359 17.7221 13.0548 17.63 14.1701C17.7164 15.2689 17.4947 16.3701 16.99 17.3501C16.7757 17.6795 16.4774 17.9459 16.1258 18.1217C15.7742 18.2974 15.3822 18.3763 14.99 18.3501V17.06C15.1889 17.0687 15.3848 17.009 15.545 16.8907C15.7051 16.7724 15.8198 16.6027 15.87 16.41C16.0744 15.682 16.1522 14.9244 16.1 14.1701C16.1542 13.3992 16.0764 12.6247 15.87 11.88C15.8198 11.6873 15.7051 11.5177 15.545 11.3994C15.3848 11.2811 15.1889 11.2214 14.99 11.2301M12.99 10.94C13.2028 10.609 13.5008 10.3415 13.8528 10.1655C14.2047 9.98958 14.5975 9.91166 14.99 9.94002V11.2201C14.7898 11.2109 14.5925 11.2703 14.4306 11.3884C14.2688 11.5066 14.1522 11.6766 14.1 11.8701C13.9246 12.6202 13.8472 13.39 13.87 14.1601C13.849 14.9135 13.9263 15.6666 14.1 16.4001C14.1522 16.5936 14.2688 16.7635 14.4306 16.8817C14.5925 16.9999 14.7898 17.0592 14.99 17.05V18.34C14.5975 18.3684 14.2047 18.2906 13.8528 18.1146C13.5008 17.9386 13.2028 17.671 12.99 17.34C12.4533 16.3701 12.2068 15.2662 12.28 14.1601C12.2017 13.0376 12.4481 11.9162 12.99 10.9301" fill="#231916"/>
<path d="M21.06 9.93993C21.4447 9.91753 21.8284 9.99847 22.1712 10.1743C22.5141 10.3501 22.8037 10.6145 23.01 10.9399C23.5519 11.9261 23.7984 13.0475 23.72 14.17C23.7932 15.2761 23.5467 16.38 23.01 17.35C22.8037 17.6754 22.5141 17.9398 22.1712 18.1156C21.8284 18.2914 21.4447 18.3724 21.06 18.35V17.0599C21.2546 17.0751 21.4478 17.0167 21.6014 16.8964C21.7551 16.776 21.858 16.6024 21.89 16.4099C22.1172 15.686 22.2154 14.9279 22.18 14.17C22.2178 13.3956 22.1196 12.6205 21.89 11.8799C21.858 11.6874 21.7551 11.5138 21.6014 11.3935C21.4478 11.2731 21.2546 11.2148 21.06 11.23M19 10.9399C19.2173 10.6134 19.5161 10.3494 19.867 10.1739C20.2178 9.99853 20.6084 9.91783 21 9.93993H21.06V11.22H21C20.8011 11.2113 20.6052 11.271 20.445 11.3893C20.2849 11.5076 20.1702 11.6773 20.12 11.87C19.9687 12.6234 19.9082 13.3922 19.94 14.16C19.9096 14.9112 19.9701 15.6633 20.12 16.4C20.1702 16.5927 20.2849 16.7623 20.445 16.8806C20.6052 16.9989 20.8011 17.0586 21 17.0499H21.06V18.34H21C20.6084 18.3621 20.2178 18.2814 19.867 18.1059C19.5161 17.9305 19.2173 17.6665 19 17.34C18.5169 16.3735 18.2897 15.2993 18.34 14.22C18.2715 13.1051 18.4956 11.9916 18.99 10.99" fill="#231916"/>
<path d="M32.91 18.22H31.44V14.58C31.4541 14.4213 31.4357 14.2614 31.3858 14.1101C31.336 13.9588 31.2557 13.8192 31.15 13.7C31.0921 13.6153 31.0121 13.5481 30.9186 13.5058C30.8251 13.4634 30.7218 13.4476 30.62 13.46C30.3163 13.4461 30.019 13.55 29.79 13.75C29.6154 14.009 29.531 14.3182 29.55 14.63V18.22H28.08V14.63C28.02 14.29 28.02 13.99 27.9 13.87C27.79 13.58 27.55 13.46 27.13 13.46C26.9888 13.4546 26.8479 13.4774 26.7157 13.5272C26.5835 13.577 26.4625 13.6528 26.36 13.75C26.2392 14.0096 26.181 14.2938 26.19 14.58V18.22H24.66V12.22H26.13V13.1C26.2365 12.8155 26.4243 12.5686 26.67 12.39C26.9903 12.1449 27.3871 12.0209 27.79 12.04C28.1349 12.0525 28.4743 12.1306 28.79 12.27C29.0134 12.4831 29.2114 12.7214 29.38 12.98C29.5223 12.758 29.6976 12.559 29.9 12.39C30.1865 12.1679 30.5375 12.045 30.9 12.04C31.4399 12.0293 31.9655 12.214 32.38 12.56C32.5619 12.7589 32.7018 12.9926 32.7912 13.2469C32.8805 13.5012 32.9175 13.771 32.9 14.04" fill="#231916"/>
<path d="M41.71 10.47C42.1237 10.9585 42.3474 11.5799 42.34 12.22C42.3587 12.8488 42.1288 13.4597 41.7 13.92C41.4392 14.1808 41.1262 14.3834 40.7815 14.5144C40.4367 14.6454 40.0681 14.7019 39.7 14.6801V13.45C39.8636 13.4543 40.0264 13.4246 40.1779 13.3626C40.3294 13.3006 40.4663 13.2078 40.58 13.09C40.7852 12.8477 40.8923 12.5373 40.88 12.22C40.8925 11.8966 40.7857 11.5799 40.58 11.33C40.4658 11.2136 40.3286 11.1223 40.177 11.062C40.0255 11.0017 39.863 10.9738 39.7 10.98V9.69C40.4401 9.67399 41.1573 9.94656 41.7 10.45M39.7 19.0301V16.7401H39.93C40.35 16.7401 40.58 16.74 40.64 16.8C40.7 16.86 40.7 16.9201 40.64 17.0301V17.32L40.7 17.56L40.76 17.86H42.34L42.46 16.7401H43.34C43.69 16.7401 43.92 16.74 43.98 16.8C44.04 16.86 44.04 16.92 43.98 17.09L43.92 17.1501L43.86 17.32L43.75 17.86H45.4V19.0301H39.7ZM39.7 15.3901H45.24V16.56H39.7V15.3901ZM45.01 9.45001C45.1017 9.48935 45.2003 9.50975 45.3 9.51001L45.36 9.63V9.86005L45.24 10.04V12.04H46.54V13.34H45.24V14.98H43.71V9.40002H45.01V9.45001ZM39.7 14.6801C39.322 14.7106 38.942 14.6585 38.5862 14.5272C38.2304 14.396 37.9075 14.1888 37.64 13.92C37.4099 13.7041 37.2311 13.4392 37.1169 13.145C37.0026 12.8508 36.9559 12.5347 36.98 12.22C36.9604 11.8953 37.0089 11.57 37.1226 11.2651C37.2362 10.9603 37.4125 10.6826 37.64 10.45C37.9157 10.193 38.2399 9.9934 38.5936 9.86292C38.9473 9.73243 39.3234 9.67362 39.7 9.69V10.98C39.5342 10.9594 39.3659 10.9806 39.2105 11.0417C39.055 11.1029 38.9173 11.202 38.81 11.33C38.6998 11.4483 38.6167 11.5893 38.5666 11.743C38.5165 11.8967 38.5006 12.0595 38.52 12.22C38.5001 12.3775 38.5159 12.5374 38.5661 12.688C38.6162 12.8386 38.6996 12.976 38.81 13.09C38.9163 13.2199 39.0535 13.3209 39.209 13.3839C39.3645 13.4468 39.5334 13.4695 39.7 13.45V14.6801ZM39.7 16.56H37.81V15.3901H39.7V16.56ZM39.7 16.7401V19.0301H37.64V17.86H39.34L39.11 16.7401H39.7Z" fill="#231916"/>
<path d="M59.39 14.7V15.94H55.21V19.29H54.5V14.7M54.5 13.94V12.76H56.86V12.0001H54.5V10.82H56.86V9.82H57.75C58.1 9.82 58.33 9.82 58.39 9.88C58.45 9.94 58.45 10.0001 58.39 10.1201V10.24L58.33 10.35V13.94H54.5ZM54.5 19.29H53.73V15.94H49.54V14.7H54.54L54.5 19.29ZM54.5 10.82V12.0001H52.14V12.76H54.5V13.94H50.61V9.82H51.67C51.8489 9.80256 52.0295 9.823 52.2 9.88V10.0601L52.14 10.17V10.82H54.5Z" fill="#231916"/>
<path d="M65.53 16.58C65.53 16.76 65.59 16.9299 65.59 17.0599H65.53M65.53 14.11H67.06V19.2899H68.6V10.35C68.5909 10.2495 68.6118 10.1486 68.66 10.06C68.6572 9.97596 68.678 9.89277 68.72 9.81995L68.78 9.64996L68.72 9.52997C68.6166 9.53492 68.5135 9.51432 68.42 9.46997H67.06V12.8199H65.53V14.11ZM65 10.23V11.52H61.75V12.9399H64.75V14.22H61.75V16.0399H62.17C62.623 16.0636 63.077 16.0636 63.53 16.0399C64.1434 16.0212 64.7547 15.9612 65.36 15.86C65.4207 16.0514 65.4577 16.2495 65.47 16.45L65.53 16.62V17.1C64.8464 17.2355 64.1551 17.329 63.46 17.38C62.75 17.38 61.99 17.4399 61.28 17.4399H60.28V10.22L65 10.23ZM65.53 12.8199H65.41V14.11H65.53V12.8199Z" fill="#231916"/>
</g>
<defs>
<clipPath id="clip0_8063_7513">
<rect width="76.39" height="29.11" fill="white"/>
</clipPath>
</defs>
</svg>
