<svg width="72" height="72" viewBox="0 0 72 72" fill="none" xmlns="http://www.w3.org/2000/svg">
<g clip-path="url(#clip0_8063_6861)">
<path d="M35.94 71.37C42.9686 71.3463 49.8327 69.2408 55.6657 65.3192C61.4987 61.3977 66.0391 55.8359 68.7138 49.336C71.3885 42.8361 72.0776 35.6895 70.694 28.7984C69.3105 21.9072 65.9163 15.5804 60.94 10.6167C55.9637 5.6529 49.6284 2.27475 42.7337 0.908589C35.8391 -0.457576 28.6942 0.249529 22.2011 2.94063C15.708 5.63174 10.1578 10.1862 6.25098 16.0291C2.34417 21.872 0.255968 28.7413 0.25 35.77C0.255247 40.4528 1.1833 45.0887 2.98111 49.4127C4.77892 53.7367 7.41123 57.664 10.7276 60.9702C14.044 64.2763 17.9794 66.8965 22.3089 68.681C26.6384 70.4654 31.2772 71.3792 35.96 71.37" stroke="#D20D18" stroke-width="0.45"/>
<path d="M35.94 2.34998C29.3235 2.36383 22.8597 4.33901 17.3656 8.02582C11.8715 11.7126 7.59375 16.9455 5.07315 23.0631C2.55256 29.1806 1.90227 35.9081 3.20447 42.3952C4.50667 48.8823 7.70289 54.8377 12.3891 59.5085C17.0754 64.1794 23.0412 67.356 29.5325 68.6369C36.0238 69.9178 42.7492 69.2454 48.8584 66.7047C54.9677 64.164 60.1865 59.8691 63.8553 54.3629C67.524 48.8567 69.4779 42.3864 69.47 35.77C69.4661 31.373 68.5953 27.02 66.9075 22.9599C65.2197 18.8998 62.7481 15.2123 59.6339 12.1083C56.5196 9.00435 52.824 6.5448 48.7584 4.87037C44.6928 3.19593 40.3369 2.33946 35.94 2.34998ZM35.94 61.88C30.7853 61.8701 25.7491 60.3329 21.4675 57.4625C17.1859 54.5921 13.8509 50.5173 11.8838 45.7527C9.91664 40.9881 9.40553 35.7474 10.415 30.6924C11.4246 25.6375 13.9094 20.9952 17.5557 17.3516C21.2021 13.7081 25.8464 11.2268 30.902 10.2211C35.9577 9.21549 41.198 9.73062 45.9611 11.7014C50.7242 13.6722 54.7965 17.0103 57.6636 21.2941C60.5307 25.5779 62.0641 30.6152 62.07 35.77C62.0568 42.6914 59.2979 49.3248 54.3991 54.2144C49.5002 59.1039 42.8615 61.85 35.94 61.85" fill="#D20D18"/>
<path d="M55.92 59.43L59.78 55.79L16.45 12.6L12.58 16.24" fill="#D20D18"/>
<path d="M47.64 53.79V28.61C47.64 19.61 40.64 16.29 34.41 16.29C28.18 16.29 22.82 22.43 22.82 27.41V35.18C22.82 35.83 22.77 36.26 22.17 35.83C21.57 35.4 20.42 33.93 19.12 35.12C17.82 36.31 19.01 37.34 19.23 37.78L26.79 49.01L33.79 37.18C34.39 36.32 34.66 34.63 32.87 34.63C32.0667 34.7416 31.2906 34.9991 30.58 35.39C29.92 35.61 29.58 35.01 29.49 34.39C29.4 33.77 29.49 28.1 29.49 28.1C29.49 25.44 32.43 23.32 35.2 23.32C37.97 23.32 41.2 25.87 40.81 28.64V53.82" fill="#231916"/>
</g>
<defs>
<clipPath id="clip0_8063_6861">
<rect width="71.87" height="71.59" fill="white"/>
</clipPath>
</defs>
</svg>
