<svg width="29" height="59" viewBox="0 0 29 59" fill="none" xmlns="http://www.w3.org/2000/svg">
<g clip-path="url(#clip0_8063_8415)">
<path d="M28.8458 12.0835V1.58911" stroke="#231916" stroke-width="0.49" stroke-linecap="round" stroke-linejoin="round"/>
<path d="M28.6915 2.40906C26.6904 1.80193 24.6019 1.52488 22.5098 1.58906C20.9998 1.7734 19.4447 0.171599 16.6366 0.171599C13.8285 0.171599 13.9892 1.91962 11.4959 1.77342C9.00268 1.62722 8.92555 -0.0190924 7.2998 0.171599C5.67405 0.362291 4.79372 2.55524 2.2555 2.55524C0.732567 2.55524 1.15666 2.55524 0.436966 1.91961" stroke="#231916" stroke-width="0.49" stroke-linecap="round" stroke-linejoin="round"/>
<path d="M28.6915 56.5845C26.7073 57.1959 24.6311 57.4625 22.5548 57.3727C20.9998 57.2202 19.4447 58.8284 16.6816 58.8284C13.9184 58.8284 13.9891 57.074 11.4831 57.2202C8.97696 57.3664 8.91268 59.0191 7.28693 58.8284C5.66118 58.6377 4.78085 56.4002 2.24263 56.4002C0.719698 56.4002 0.835364 55.7645 0.154221 56.4002" stroke="#231916" stroke-width="0.49" stroke-linecap="round" stroke-linejoin="round"/>
<path d="M28.5438 23.525V34.3182" stroke="#231916" stroke-width="0.49" stroke-linecap="round" stroke-linejoin="round"/>
<path d="M28.5438 45.6007V56.4002" stroke="#231916" stroke-width="0.49" stroke-linecap="round" stroke-linejoin="round"/>
<path d="M0.424103 12.0835V1.58911" stroke="#231916" stroke-width="0.49" stroke-linecap="round" stroke-linejoin="round"/>
<path d="M0.160645 23.525V34.3182" stroke="#231916" stroke-width="0.49" stroke-linecap="round" stroke-linejoin="round"/>
<path d="M0.160645 45.6007V56.4002" stroke="#231916" stroke-width="0.49" stroke-linecap="round" stroke-linejoin="round"/>
<path d="M17.3627 5.80969H12.1321V15.821H17.3627V5.80969Z" fill="white"/>
<path d="M17.3563 5.80969H12.1321V15.821H17.3563V5.80969Z" stroke="#231916" stroke-width="0.49" stroke-linecap="round" stroke-linejoin="round"/>
<path d="M17.3627 24.3069H12.1321V34.2801H17.3627V24.3069Z" fill="white"/>
<path d="M17.3563 24.3069H12.1321V34.2801H17.3563V24.3069Z" stroke="#231916" stroke-width="0.49" stroke-linecap="round" stroke-linejoin="round"/>
<path d="M17.3627 43.8146H12.1321V53.7941H17.3627V43.8146Z" fill="white"/>
<path d="M17.3563 43.8146H12.1321V53.7941H17.3563V43.8146Z" stroke="#231916" stroke-width="0.49" stroke-linecap="round" stroke-linejoin="round"/>
</g>
<defs>
<clipPath id="clip0_8063_8415">
<rect width="29" height="59" fill="white"/>
</clipPath>
</defs>
</svg>
