<svg width="70" height="69" viewBox="0 0 70 69" fill="none" xmlns="http://www.w3.org/2000/svg">
<g clip-path="url(#clip0_8063_6742)">
<path d="M34.58 68.71C41.351 68.6942 47.9655 66.6717 53.5875 62.8983C59.2096 59.1248 63.587 53.7695 66.1667 47.5092C68.7465 41.2489 69.4128 34.3644 68.0814 27.7256C66.75 21.0867 63.4808 14.9915 58.6866 10.2099C53.8925 5.42836 47.7887 2.17509 41.1464 0.86115C34.504 -0.452793 27.6213 0.231535 21.3678 2.8277C15.1143 5.42387 9.77055 9.81538 6.01184 15.4473C2.25313 21.0793 0.248043 27.6989 0.250001 34.47C0.273838 43.5627 3.90401 52.2746 10.3439 58.6939C16.7837 65.1131 25.5072 68.7153 34.6 68.71" stroke="#D20D18" stroke-width="0.45"/>
<path d="M34.58 1.63999C38.9388 1.56391 43.2692 2.35673 47.3184 3.97218C51.3675 5.58763 55.0544 7.99337 58.1638 11.049C61.2732 14.1046 63.743 17.7489 65.4288 21.7693C67.1147 25.7896 67.9829 30.1055 67.9829 34.465C67.9829 38.8245 67.1147 43.1404 65.4288 47.1607C63.743 51.1811 61.2732 54.8254 58.1638 57.881C55.0544 60.9366 51.3675 63.3424 47.3184 64.9578C43.2692 66.5733 38.9388 67.3661 34.58 67.29V60.11C41.3722 60.11 47.8862 57.4118 52.689 52.609C57.4918 47.8062 60.1899 41.2922 60.1899 34.5C60.1899 27.7078 57.4918 21.1938 52.689 16.391C47.8862 11.5882 41.3722 8.89 34.58 8.89M1.64001 34.5C1.65591 25.7788 5.13497 17.4209 11.3121 11.2644C17.4893 5.10782 25.8587 1.65672 34.58 1.66999V8.89C31.2168 8.88999 27.8866 9.5524 24.7794 10.8394C21.6723 12.1264 18.8491 14.0129 16.4709 16.391C14.0928 18.7691 12.2065 21.5923 10.9194 24.6995C9.63241 27.8066 8.96997 31.1369 8.96997 34.5C8.96997 37.8632 9.63241 41.1934 10.9194 44.3005C12.2065 47.4077 14.0928 50.2309 16.4709 52.609C18.8491 54.9871 21.6723 56.8735 24.7794 58.1605C27.8866 59.4476 31.2168 60.11 34.58 60.11V67.32C25.8604 67.3333 17.4925 63.8836 11.3157 57.7292C5.1388 51.5748 1.65856 43.2195 1.64001 34.5Z" fill="#D20D18"/>
<path d="M54.18 57.63L57.99 54.11L15.47 11.67L11.65 15.26" fill="#D20D18"/>
<path d="M33.55 42.11C33.49 42.98 33 43.69 32.35 43.69C31.7 43.69 31.26 42.93 31.26 42.06C31.26 41.19 31.8 40.43 32.4 40.49C33 40.55 33.55 41.19 33.55 42.11Z" fill="#231916"/>
<path d="M53.25 39.46C52.8188 37.9515 51.9695 36.5959 50.8001 35.55L51.61 35.01C50.7205 34.4878 49.7744 34.0684 48.7901 33.76C49.1262 33.5923 49.4186 33.3487 49.6442 33.0484C49.8698 32.7481 50.0224 32.3994 50.09 32.03C49.1265 31.9912 48.1616 32.0079 47.2 32.08V37.08C51.61 37.19 51.12 41.48 51.12 41.48C51.0006 42.4506 50.5414 43.3475 49.8239 44.0119C49.1064 44.6763 48.1769 45.0654 47.2 45.11V48.04C51.01 47.12 54.01 44.68 53.2 39.47M47.2 43.92V39.03C48.51 39.63 49.6 40.45 49.11 41.42C49.0174 41.96 48.7952 42.4696 48.4626 42.905C48.1299 43.3404 47.6967 43.6887 47.2 43.92ZM47.2 32.09C45.6162 32.238 44.0516 32.5463 42.5301 33.01C42.728 32.253 42.6718 31.4519 42.37 30.73C42.2517 30.5734 42.1176 30.4294 41.97 30.3V34.11L42.0401 34.05C42.264 34.1503 42.4989 34.2242 42.74 34.27L42.58 34.44C42.37 34.44 42.14 34.54 41.97 34.6V46.54C43.2784 47.6378 44.9544 48.1989 46.6601 48.11C46.8433 48.0917 47.0242 48.0549 47.2 48V45.11C45.9535 45.2225 44.6973 45.0761 43.5101 44.68C44.7835 44.7296 46.0498 44.4687 47.2 43.92V39.03C45.907 38.5086 44.5677 38.1102 43.2 37.84C44.4847 37.3767 45.8349 37.1201 47.2 37.08V32.09ZM41.97 30.3C41.76 30.13 41.5401 29.92 41.5401 29.92C41.3861 29.5121 41.2591 29.0946 41.1601 28.67C40.7156 26.8702 40.0786 25.1234 39.2601 23.46C39.1401 23.24 39.04 22.64 38.87 22.46C38.5244 22.2377 38.2142 21.9647 37.95 21.65C37.7759 21.4739 37.6309 21.2714 37.5201 21.05C37.4001 20.84 36.92 20.62 36.86 20.45C36.7467 19.6785 36.6898 18.8998 36.69 18.12C36.6232 17.4622 36.3887 16.8326 36.0087 16.2915C35.6287 15.7505 35.1161 15.3161 34.5201 15.03V28.11C34.9368 28.963 35.2717 29.8537 35.5201 30.77C35.5442 31.1044 35.4599 31.4377 35.2798 31.7205C35.0997 32.0033 34.8333 32.2205 34.5201 32.34V36.74L35.7701 35.74L34.63 40.56C34.6209 40.411 34.5836 40.2651 34.5201 40.13V44.86C36.7501 44.86 40.2901 44.91 40.2901 44.91C40.727 45.4644 41.2385 45.9558 41.8101 46.37L41.97 46.54V34.63C41.6894 34.7525 41.4187 34.8962 41.1601 35.06C41.3801 34.79 41.65 34.47 41.97 34.14V30.3ZM34.5201 15.05C34.1976 14.9427 33.8599 14.8887 33.5201 14.89C33.0837 14.872 32.6497 14.9629 32.2572 15.1546C31.8648 15.3463 31.5263 15.6327 31.2723 15.988C31.0182 16.3432 30.8567 16.7562 30.8022 17.1895C30.7477 17.6228 30.8019 18.0629 30.96 18.47L31.5601 19.47C32.2101 21.47 32.3101 20.71 33.6701 20.82C33.7825 21.1046 33.8222 21.4128 33.7856 21.7166C33.7489 22.0204 33.6369 22.3103 33.46 22.56C33.134 23.0068 32.8431 23.4782 32.59 23.97C31.45 25.55 32.1 25.6 30.96 27.6C30.96 27.71 30.63 27.99 30.46 28.42L30.74 29.12L31.34 29.18C31.94 28.69 33.1901 28.58 33.6701 28.18C33.7968 28.0843 33.9512 28.0325 34.11 28.0325C34.2688 28.0325 34.4234 28.0843 34.5501 28.18L34.5201 15.05ZM34.5201 32.36V36.76L33.2701 37.76C33.2701 37.76 33.9201 38.09 34.5201 40.15V44.88H33.6401L33.49 43.79L33.8101 42.27C33.2701 39.61 30.1601 37.66 30.1601 37.66L27.1601 35.11L27 36.47C28.73 38.09 29.0001 40.91 29.0601 42.47C28.6301 44.6 26.1201 47.96 22.3101 47.9V45.63C22.8047 45.625 23.2974 45.568 23.7801 45.46C24.3743 45.2353 24.9064 44.8723 25.3324 44.401C25.7585 43.9297 26.0662 43.3638 26.23 42.75C26.61 41.5 26.6101 38.9 25.4101 38.46H24.87C24.145 39.5943 23.3038 40.65 22.36 41.61V41.72V39.82C22.5552 39.2595 22.7925 38.7146 23.07 38.19C23.5 38.41 23.28 37.32 23.34 37.1H22.34V33.85C23.4171 33.8941 24.4818 34.0963 25.5 34.45C25.77 33.8 26.7501 31.84 26.9101 31.51C27.0701 31.18 25.8301 30.64 25.5501 30.51C25.5501 29.75 25.55 29.75 25.44 28.72C25.5 28.72 25.6601 28.66 25.7701 28.66C25.7701 28.34 25.93 27.91 26.86 27.66C27.6924 27.5396 28.5399 27.5735 29.36 27.76C29.5936 27.9223 29.8113 28.1065 30.0101 28.31C30.3568 29.0928 30.4341 29.9685 30.23 30.8C30.01 30.91 29.7901 30.97 29.5201 31.13C29.0901 31.45 28.6001 31.67 28.2701 31.95C27.9862 32.2158 27.7966 32.5669 27.73 32.95C28.2118 33.4175 28.7415 33.8331 29.3101 34.19C30.7801 35.01 31 35.19 32.25 34.19L32.9001 33.54L33.07 32.88C33.61 32.94 33.77 32.61 34.21 32.5L34.59 32.34M22.25 33.87C20.51 33.87 18.7101 34.2 17.7901 35.33C14.6301 39.24 16.79 36.58 16.7 38.26C16.64 38.7 15.88 40.26 15.88 40.76C15.8526 40.9591 15.8526 41.1609 15.88 41.36V41.9C15.9268 43.1832 16.3703 44.4204 17.1493 45.4412C17.9284 46.462 19.0046 47.2162 20.23 47.6C20.9002 47.8091 21.598 47.917 22.3001 47.92V45.65C17.6701 45.53 16.6901 39.46 20.3001 37.65L20.84 37.1C21.3287 37.0496 21.8214 37.0496 22.3101 37.1L22.25 33.87ZM22.25 39.87V41.77C21.1 42.69 21.32 42.31 21.25 42.31C21.58 41.6 21.9 40.73 22.25 39.87Z" fill="#231916"/>
</g>
<defs>
<clipPath id="clip0_8063_6742">
<rect width="69.15" height="68.93" fill="white"/>
</clipPath>
</defs>
</svg>
