<svg width="54" height="76" viewBox="0 0 54 76" fill="none" xmlns="http://www.w3.org/2000/svg">
<g clip-path="url(#clip0_8063_9572)">
<path d="M34.3587 75.5978L29.1592 75.5241V57.3602H34.2713V60.1552H31.5403V72.9637H34.2377" fill="white"/>
<path d="M34.3587 75.5978L29.1592 75.5241V57.3602H34.2713V60.1552H31.5403V72.9637H34.2377L34.3587 75.5978Z" stroke="#231916" stroke-width="0.49"/>
<path d="M35.1525 72.9973V75.7922H37.574V65.591H38.6771V75.7922H41.1861V56.7302H38.5628V62.9502H37.574V56.7302H35.1525V70.0012" fill="white"/>
<path d="M35.1525 72.9973V75.7922H37.574V65.591H38.6771V75.7922H41.1861V56.7302H38.5628V62.9502H37.574V56.7302H35.1525V70.0012V72.9973Z" stroke="#231916" stroke-width="0.49"/>
<path d="M30.4238 0.58313L40.3856 17.2054L30.4238 32.3799V21.6558C26.3879 21.81 23.0247 25.9857 23.0247 29.967V48.6871H19.6615V28.0836C19.6615 18.7871 25.6211 14.9601 30.296 12.3997" fill="white"/>
<path d="M30.4238 0.58313L40.3856 17.2054L30.4238 32.3799V21.6558C26.3879 21.81 23.0247 25.9857 23.0247 29.967V48.6871H19.6615V28.0836C19.6615 18.7871 25.6211 14.9601 30.296 12.3997L30.4238 0.58313Z" stroke="#231916" stroke-width="0.49"/>
<path d="M4.17039 57.5948H5.79819L7.81613 67.5213L5.44169 67.6017L4.08967 62.796L2.70402 67.6822H0.316132L2.74438 57.5948" fill="white"/>
<path d="M4.17039 57.5948H5.79819L7.81613 67.5213L5.44169 67.6017L4.08967 62.796L2.70402 67.6822H0.316132L2.74438 57.5948H4.17039Z" stroke="#231916" stroke-width="0.49"/>
<path d="M17.8116 57.5948H19.4798L21.4641 67.5213L19.0829 67.6017L17.7713 62.796L16.3453 67.6822H13.9641L16.3856 57.5948" fill="white"/>
<path d="M17.8116 57.5948H19.4798L21.4641 67.5213L19.0829 67.6017L17.7713 62.796L16.3453 67.6822H13.9641L16.3856 57.5948H17.8116Z" stroke="#231916" stroke-width="0.49"/>
<path d="M7.66144 60.4703H9.24216V57.119H11.8251V67.5213H9.24216V62.9502H7.66144" fill="white"/>
<path d="M7.66144 60.4703H9.24216V57.119H11.8251V67.5213H9.24216V62.9502H7.66144V60.4703Z" stroke="#231916" stroke-width="0.49"/>
<path d="M6.34977 69.0562H9.47759C10.9507 69.0562 12.3767 70.7988 12.3767 72.4878C12.3767 73.3767 12.0223 74.2291 11.3916 74.8575C10.7609 75.486 9.90541 75.8391 9.01342 75.8391H6.35651V73.5938H8.5426C9.64574 73.5938 9.76678 71.4222 8.50221 71.4222H6.35651M3.85428 69.0562H6.35651V71.4222H4.58071C2.78475 71.4222 2.90582 73.5938 4.58071 73.5938H6.36324V75.8727H3.54481C2.66664 75.8729 1.8232 75.5309 1.19474 74.9197C0.56628 74.3085 0.202658 73.4766 0.181582 72.6018C0.181081 72.1267 0.277311 71.6565 0.464451 71.2196C0.651591 70.7826 0.925773 70.3881 1.27036 70.0597C1.61495 69.7314 2.02281 69.4761 2.46925 69.3094C2.91569 69.1426 3.3914 69.0679 3.86767 69.0897" fill="white"/>
<path d="M3.84757 69.0561H9.47761C10.9507 69.0561 12.3767 70.7987 12.3767 72.4878C12.3767 73.3766 12.0223 74.229 11.3916 74.8575C10.7609 75.4859 9.90543 75.839 9.01344 75.839H3.5381C2.65992 75.8393 1.81648 75.4973 1.18802 74.8861C0.559565 74.2749 0.195943 73.443 0.174867 72.5682C0.174448 72.0943 0.270274 71.6252 0.456587 71.1892C0.642899 70.7532 0.915917 70.3593 1.25905 70.0312C1.60218 69.703 2.0084 69.4475 2.45326 69.2799C2.89812 69.1124 3.3724 69.0362 3.84757 69.0561ZM4.56726 73.5937H8.52916C9.64575 73.5937 9.7601 71.4221 8.52916 71.4221H4.58073C2.77131 71.4221 2.89239 73.5937 4.58073 73.5937H4.56726Z" stroke="#231916" stroke-width="0.49"/>
<path d="M26.6973 60.8255H25.1099V57.119H22.5336V58.6606V61.1338V70.953H25.1099V63.4663H26.6973" fill="white"/>
<path d="M26.6973 60.8255H25.1099V57.119H22.5336V58.6606V61.1338V70.953H25.1099V63.4663H26.6973V60.8255Z" stroke="#231916" stroke-width="0.49"/>
<path d="M14.2063 68.7009H16.8229V73.2788H24.8744V75.7587H14.2063" fill="white"/>
<path d="M14.2063 68.7009H16.8229V73.2788H24.8744V75.7587H14.2063V68.7009Z" stroke="#231916" stroke-width="0.49"/>
<path d="M41.3745 56.6498H52.8027V70.7988H50.4619V59.0493H41.3745" fill="white"/>
<path d="M41.3745 56.6498H52.8027V70.7988H50.4619V59.0493H41.3745V56.6498Z" stroke="#231916" stroke-width="0.49"/>
<path d="M42.6458 64.5654H45.0673V73.1179H46.574V64.5654H49.0762V73.1179H53.8386V75.5241H41.5359V73.1916H42.6458" fill="white"/>
<path d="M42.6458 64.5654H45.0673V73.1179H46.574V64.5654H49.0762V73.1179H53.8386V75.5241H41.5359V73.1916H42.6458V64.5654Z" stroke="#231916" stroke-width="0.49"/>
</g>
<defs>
<clipPath id="clip0_8063_9572">
<rect width="54" height="76" fill="white"/>
</clipPath>
</defs>
</svg>
