<svg width="71" height="71" viewBox="0 0 71 71" fill="none" xmlns="http://www.w3.org/2000/svg">
<g clip-path="url(#clip0_8063_6693)">
<path d="M20.87 34.25L20.75 34.41V34.52H20.7V35.23H24.62V35.93H20.26V34.2H20.43C20.5786 34.1814 20.7294 34.1986 20.87 34.25ZM20.26 39.57V38.86C20.8763 38.8878 21.4911 38.7785 22.06 38.54C22.5 38.37 22.66 38.16 22.66 37.94C22.66 37.72 22.5 37.45 22.06 37.29C21.4877 37.0666 20.8726 36.9743 20.26 37.02V36.25C21.1242 36.2189 21.9837 36.3901 22.77 36.75C23.0056 36.839 23.2086 36.9977 23.3518 37.2049C23.4951 37.4122 23.5718 37.6581 23.5718 37.91C23.5718 38.1619 23.4951 38.4079 23.3518 38.6151C23.2086 38.8223 23.0056 38.981 22.77 39.07C21.9837 39.43 21.1242 39.6012 20.26 39.57ZM20.26 33.33H23.58V34.08H20.26V33.33ZM20.26 32.08H23.26V32.78H20.26V32.08ZM20.26 30.83H23.32V31.53H20.26V30.83ZM20.26 35.93H15.91V35.23H19.79V34.23H20.22L20.26 35.93ZM20.26 30.83V31.54H18.14V32.08H20.26V32.78H18.14V33.33H20.26V34.08H17.21V30.79L20.26 30.83ZM20.26 36.25V37.02C19.6309 36.9722 18.9992 37.0645 18.41 37.29C18.03 37.45 17.82 37.66 17.82 37.94C17.82 38.22 18.03 38.37 18.41 38.54C18.9972 38.7759 19.6277 38.8849 20.26 38.86V39.57C19.398 39.6147 18.5385 39.4428 17.76 39.07C17.16 38.75 16.88 38.37 16.88 37.94C16.9048 37.681 17.0038 37.4347 17.1653 37.2307C17.3267 37.0267 17.5436 36.8736 17.79 36.79C18.5685 36.4173 19.428 36.2454 20.29 36.29" fill="#231916"/>
<path d="M30.39 39.62V38.86C30.9784 38.8898 31.5675 38.8153 32.13 38.64C32.52 38.48 32.74 38.26 32.74 38.05C32.74 37.84 32.52 37.56 32.13 37.4C31.5675 37.2247 30.9784 37.1503 30.39 37.18V36.42C31.2347 36.3773 32.0767 36.5457 32.84 36.91C33.0781 36.9823 33.2867 37.1292 33.4349 37.3291C33.5831 37.5289 33.6631 37.7712 33.6631 38.02C33.6631 38.2688 33.5831 38.5111 33.4349 38.711C33.2867 38.9108 33.0781 39.0578 32.84 39.13C32.0767 39.4944 31.2347 39.6628 30.39 39.62ZM31.81 30.88C31.81 30.94 31.74 30.99 31.69 31.1V31.15V31.21V33.33H32.69V30.72H33.34C33.55 30.72 33.67 30.72 33.72 30.78C33.7374 30.8489 33.7374 30.9211 33.72 30.99L33.66 31.05V36.2H32.74V34.03H31.74V35.79H30.79V30.79H31.44C31.66 30.79 31.76 30.79 31.83 30.84M30.3 32.69H27.96V31.98H30.3V32.69ZM30.41 36.38V37.14C29.8181 37.1037 29.2245 37.1783 28.66 37.36C28.23 37.52 28.07 37.74 28.07 38.01C28.07 38.28 28.23 38.44 28.66 38.6C29.2245 38.7817 29.8181 38.8564 30.41 38.82V39.58C29.5653 39.6227 28.7233 39.4543 27.96 39.09V36.87C28.7233 36.5057 29.5653 36.3373 30.41 36.38ZM27.96 35.84V35.08C28.1888 35.0899 28.4153 35.0307 28.61 34.91C28.7606 34.7911 28.8606 34.6196 28.89 34.43C28.8889 34.3313 28.8626 34.2344 28.8136 34.1487C28.7646 34.0629 28.6945 33.9911 28.61 33.94C28.5236 33.8591 28.4209 33.7976 28.3088 33.7597C28.1967 33.7217 28.0778 33.7082 27.96 33.72V32.96C28.452 32.9341 28.9364 33.0908 29.32 33.4C29.4746 33.5164 29.5995 33.6676 29.6847 33.8414C29.7698 34.0152 29.8128 34.2065 29.81 34.4C29.8144 34.5937 29.7721 34.7857 29.6869 34.9597C29.6016 35.1338 29.4758 35.2847 29.32 35.4C28.9342 35.7051 28.4514 35.8612 27.96 35.84ZM27.96 30.84H29.1V31.61H27.96V30.84ZM27.96 32.69H25.68V31.98H27.96V32.69ZM27.96 31.6H26.96V30.84H27.96V31.6ZM27.96 32.96V33.79C27.8422 33.7776 27.7231 33.7908 27.6109 33.8288C27.4987 33.8667 27.3961 33.9285 27.31 34.01C27.2322 34.0639 27.1706 34.138 27.1319 34.2244C27.0931 34.3107 27.0786 34.4061 27.09 34.5C27.0891 34.5913 27.1083 34.6816 27.1463 34.7646C27.1844 34.8476 27.2403 34.9211 27.31 34.98C27.5042 35.1019 27.731 35.1612 27.96 35.15V35.91C27.4712 35.9129 26.9945 35.7587 26.6 35.47C26.461 35.3432 26.3501 35.1887 26.2743 35.0165C26.1986 34.8443 26.1596 34.6581 26.16 34.47C26.1608 34.2821 26.2003 34.0963 26.276 33.9242C26.3517 33.7522 26.462 33.5976 26.6 33.47C27.0051 33.2029 27.4752 33.0508 27.96 33.03M27.96 36.94V39.16C27.7219 39.0877 27.5134 38.9408 27.3651 38.7409C27.2169 38.5411 27.1369 38.2988 27.1369 38.05C27.1369 37.8012 27.2169 37.5589 27.3651 37.359C27.5134 37.1592 27.7219 37.0123 27.96 36.94Z" fill="#231916"/>
<path d="M44.65 34.95H40.3V34.25H42.3C42.41 33.71 42.46 33.25 42.51 32.84C42.5893 32.4469 42.6461 32.0496 42.68 31.65H40.34V30.94H43.61C43.6104 31.5242 43.5535 32.107 43.44 32.68C43.38 33.22 43.33 33.68 43.22 34.25H44.69M40.34 39.13V38.37H42.57V36.85H40.34V36.15H43.5V39.4H42.57V39.13H40.34ZM40.34 34.95H35.98V34.25H40.34V34.95ZM40.34 31.65H37.07V30.94H40.34V31.65ZM40.34 36.15V36.85H38.11V38.37H40.34V39.13H38.11V39.4H37.23V36.15H40.34Z" fill="#231916"/>
<path d="M51.13 31.7V32.4H49.33C49.3191 33.5138 49.5836 34.6131 50.1 35.6C50.471 36.3569 51.0831 36.969 51.84 37.34C51.73 37.45 51.57 37.5 51.46 37.61C51.3208 37.7047 51.1932 37.8155 51.08 37.94C50.4845 37.6163 49.9722 37.1588 49.5835 36.6035C49.1948 36.0483 48.9403 35.4104 48.84 34.74C48.6862 35.434 48.4084 36.0946 48.02 36.69C47.7079 37.2454 47.2608 37.7132 46.72 38.05C46.6199 37.9275 46.4886 37.8342 46.34 37.78C46.23 37.67 46.06 37.56 45.96 37.45C46.667 37.0637 47.2235 36.4508 47.54 35.71C48.082 34.6911 48.3637 33.5541 48.36 32.4H46.51V31.7M53.79 30.79C53.85 30.79 53.79 30.89 53.74 31.01H53.68V39.32H52.76V30.63H53.41C53.63 30.63 53.79 30.63 53.79 30.74" fill="#231916"/>
<path d="M35.29 70.07C42.1892 70.0424 48.9257 67.9715 54.6491 64.119C60.3726 60.2665 64.8266 54.8049 67.449 48.4235C70.0714 42.042 70.7448 35.0268 69.3841 28.2631C68.0233 21.4993 64.6895 15.2902 59.8033 10.4193C54.9171 5.54848 48.6976 2.2342 41.9296 0.894731C35.1616 -0.444743 28.1485 0.250633 21.7754 2.89311C15.4022 5.53559 9.95459 10.0067 6.12009 15.7423C2.28558 21.4778 0.235994 28.2207 0.230011 35.12C0.236572 39.7171 1.14867 44.2679 2.91428 48.5124C4.67988 52.7569 7.26442 56.6121 10.5202 59.8576C13.7759 63.1032 17.6391 65.6756 21.8892 67.4278C26.1393 69.1801 30.6929 70.0779 35.29 70.07Z" stroke="#D20D18" stroke-width="0.45"/>
<path d="M35.29 2.29C43.9971 2.29 52.3475 5.74887 58.5043 11.9057C64.6611 18.0625 68.12 26.413 68.12 35.12C68.12 43.8271 64.6611 52.1775 58.5043 58.3343C52.3475 64.4911 43.9971 67.95 35.29 67.95V60.73C38.6924 60.7973 42.0741 60.1852 45.2372 58.9296C48.4002 57.6741 51.2809 55.8003 53.711 53.4178C56.141 51.0354 58.0714 48.1922 59.3893 45.0546C60.7071 41.917 61.3858 38.5481 61.3858 35.145C61.3858 31.7419 60.7071 28.373 59.3893 25.2354C58.0714 22.0978 56.141 19.2546 53.711 16.8722C51.2809 14.4897 48.4002 12.6159 45.2372 11.3603C42.0741 10.1048 38.6924 9.49272 35.29 9.55999M2.35001 35.12C2.36591 26.3988 5.84496 18.0409 12.0221 11.8844C18.1993 5.72783 26.5688 2.27673 35.29 2.29V9.55999C31.8876 9.49272 28.5059 10.1048 25.3429 11.3603C22.1799 12.6159 19.2991 14.4897 16.869 16.8722C14.439 19.2546 12.5086 22.0978 11.1908 25.2354C9.87293 28.373 9.19418 31.7419 9.19418 35.145C9.19418 38.5481 9.87293 41.917 11.1908 45.0546C12.5086 48.1922 14.439 51.0354 16.869 53.4178C19.2991 55.8003 22.1799 57.6741 25.3429 58.9296C28.5059 60.1852 31.8876 60.7973 35.29 60.73V67.95C26.5688 67.9632 18.1993 64.5122 12.0221 58.3557C5.84496 52.1991 2.36591 43.8413 2.35001 35.12Z" fill="#D20D18"/>
<path d="M32.84 28.98L16.18 12.38L12.37 15.9L25.49 28.98" fill="#D20D18"/>
<path d="M45.09 41.19H37.69L54.89 58.34L58.7 54.76" fill="#D20D18"/>
<path d="M45.57 28.98L58.59 16.01L54.99 12.21L38.23 28.98" fill="#D20D18"/>
<path d="M25.98 41.19L12.48 54.65L16.02 58.45L33.38 41.19" fill="#D20D18"/>
</g>
<defs>
<clipPath id="clip0_8063_6693">
<rect width="70.52" height="70.29" fill="white"/>
</clipPath>
</defs>
</svg>
