<svg width="76" height="66" viewBox="0 0 76 66" fill="none" xmlns="http://www.w3.org/2000/svg">
<g clip-path="url(#clip0_8062_5637)">
<path d="M1.12999 59.6L34.27 2.59999C36.1 -0.510013 39.27 -0.510013 41.17 2.59999L74.49 59.73C76.44 62.96 74.79 65.55 70.89 65.55H4.77999C0.589988 65.55 -0.880006 63.07 1.12999 59.6Z" fill="white"/>
<path d="M1.12999 59.6L34.27 2.59999C36.1 -0.510013 39.27 -0.510013 41.17 2.59999L74.49 59.73C76.44 62.96 74.79 65.55 70.89 65.55H4.77999C0.589988 65.55 -0.880006 63.07 1.12999 59.6Z" stroke="#D20D18" stroke-width="0.49"/>
<path d="M2.6 60.08L35.51 3.47C36.62 1.4 38.75 1.47 39.93 3.47L72.93 60.19C74.16 62.19 72.87 63.78 70.57 63.78H5.18999C2.59999 63.78 1.48 62.08 2.6 60.08Z" fill="#D20D18"/>
<path d="M37.87 12.69L63.76 57.37H11.51" fill="#F8B500"/>
<path d="M37.87 12.69L63.76 57.37H11.51L37.87 12.69Z" stroke="#D20D18" stroke-width="0.57"/>
<path d="M30.27 32.03L38.16 37.62L45.77 32.27L49.78 38.91L42.35 44.26V54.66H33.33V44.08L26.01 38.61" fill="#231916"/>
</g>
<defs>
<clipPath id="clip0_8062_5637">
<rect width="75.56" height="65.79" fill="white"/>
</clipPath>
</defs>
</svg>
