<svg width="77" height="30" viewBox="0 0 77 30" fill="none" xmlns="http://www.w3.org/2000/svg">
<g clip-path="url(#clip0_8063_7986)">
<path d="M5.84001 28.87C4.35701 28.8637 2.93681 28.2704 1.88999 27.22C1.36382 26.7082 0.946446 26.0954 0.662912 25.4183C0.379379 24.7413 0.235531 24.014 0.24 23.28" stroke="#231916" stroke-width="0.49"/>
<path d="M0.240005 23.29V5.82996" stroke="#231916" stroke-width="0.49"/>
<path d="M0.240005 5.81995C0.24193 5.08838 0.388722 4.36447 0.671921 3.68994C0.95512 3.01541 1.36911 2.40369 1.89 1.89001C2.93682 0.839539 4.35701 0.246276 5.84001 0.23999" stroke="#231916" stroke-width="0.49"/>
<path d="M5.84 0.23999H70.54" stroke="#231916" stroke-width="0.49"/>
<path d="M70.54 0.219971C72.0214 0.224689 73.4409 0.814099 74.49 1.85999C75.013 2.37417 75.4283 2.98745 75.7116 3.66394C75.9949 4.34043 76.1405 5.06651 76.14 5.79993" stroke="#231916" stroke-width="0.49"/>
<path d="M76.14 5.82996V23.29" stroke="#231916" stroke-width="0.49"/>
<path d="M76.14 23.2899C76.146 24.0227 76.0028 24.749 75.7192 25.4247C75.4355 26.1003 75.0173 26.7111 74.49 27.22C73.973 27.7419 73.3578 28.1564 72.6798 28.4396C72.0019 28.7228 71.2747 28.8691 70.54 28.87" stroke="#231916" stroke-width="0.49"/>
<path d="M70.54 28.87H5.85001" stroke="#231916" stroke-width="0.49"/>
<path d="M5.84001 26.8099C4.91398 26.7739 4.03408 26.3964 3.37001 25.75C3.04954 25.426 2.79622 25.0419 2.62462 24.6198C2.45301 24.1976 2.36648 23.7456 2.37001 23.2899" stroke="#231916" stroke-width="0.49"/>
<path d="M2.36 23.29V5.82996" stroke="#231916" stroke-width="0.49"/>
<path d="M2.36 5.81995C2.36308 4.89861 2.72125 4.01396 3.36 3.34998C4.0316 2.72307 4.91143 2.36687 5.83 2.34998" stroke="#231916" stroke-width="0.49"/>
<path d="M5.84 2.35999H70.54" stroke="#231916" stroke-width="0.49"/>
<path d="M70.54 2.36C71.4664 2.35195 72.3583 2.71156 73.02 3.36C73.662 4.02589 74.0205 4.91497 74.02 5.83998" stroke="#231916" stroke-width="0.49"/>
<path d="M74.02 5.82996V23.29" stroke="#231916" stroke-width="0.49"/>
<path d="M73.99 23.2899C73.9941 23.7457 73.9078 24.1978 73.7362 24.62C73.5645 25.0422 73.3109 25.4263 72.99 25.75C72.3393 26.4161 71.4511 26.7972 70.52 26.8099" stroke="#231916" stroke-width="0.49"/>
<path d="M70.54 26.8101H5.85001" stroke="#231916" stroke-width="0.49"/>
<path d="M13.75 17.22C13.81 17.46 13.81 17.6299 13.87 17.7999H13.75M13.75 14.46H15.11V20.33H16.4V10.22C16.3905 10.1001 16.4111 9.97984 16.46 9.87002C16.4569 9.78911 16.4777 9.7091 16.52 9.64004L16.58 9.45998L16.52 9.33999C16.46 9.27999 16.4 9.28005 16.28 9.28005C16.1081 9.24893 15.9319 9.24893 15.76 9.28005H15.11V13.09H13.75V14.46ZM13.33 10.1V11.52H10.56V13.11H13.1V14.58H10.56V16.69H10.92C11.314 16.697 11.708 16.6804 12.1 16.64C12.6147 16.5937 13.1258 16.5135 13.63 16.4C13.7095 16.6249 13.75 16.8615 13.75 17.1V17.7999C13.1887 17.9444 12.617 18.0448 12.04 18.1C11.39 18.16 10.8 18.22 10.15 18.22H9.26001V10.1H13.33ZM13.75 13.0399H13.69V14.46H13.75V13.0399Z" fill="#231916"/>
<path d="M21.83 13.0599C21.9806 13.006 22.1403 12.9823 22.3 12.99L22.42 14.4099C22.24 14.4699 22.07 14.47 21.83 14.53M21.83 18.99H24.99V20.22H21.87L21.83 18.99ZM21.83 18.4V17.2899H23.48V16.6999H21.83V15.58H24.78V18.4H21.83ZM21.83 12.0599H23.48V15.0599H24.78V10.22C24.7705 10.1001 24.7911 9.97982 24.84 9.86999C24.8374 9.78915 24.8583 9.7093 24.9 9.64001C24.95 9.46001 24.95 9.33996 24.9 9.33996C24.679 9.23494 24.4332 9.1934 24.19 9.21997H23.48V10.64H21.83V12.0599ZM18.76 9.77002C18.82 9.77002 18.82 9.87992 18.76 10.0499L18.71 10.23V13.23H19.23C19.7208 13.2414 20.2118 13.2213 20.7 13.1699C21.0787 13.1581 21.4562 13.1213 21.83 13.0599V14.53L20.35 14.6999C19.88 14.6999 19.23 14.76 18.47 14.76H17.4V9.69995H18.17C18.47 9.69995 18.71 9.70002 18.76 9.77002ZM21.83 10.59H21.3V12.0599H21.83V10.59ZM21.83 16.6999H18.23V15.58H21.83V16.6999ZM21.83 17.2899V18.4H19.53V18.99H21.83V20.22H18.23V17.34L21.83 17.2899Z" fill="#231916"/>
<path d="M30.38 9.69995C30.4043 10.8532 30.1213 11.9922 29.56 13C28.8293 14.0426 27.8012 14.8406 26.61 15.2899C26.5375 15.0457 26.4368 14.8109 26.31 14.59C26.1842 14.3343 26.0262 14.0957 25.84 13.88C26.2676 13.8214 26.6849 13.7037 27.08 13.53C27.4081 13.3161 27.7044 13.0568 27.96 12.76C28.2263 12.5299 28.4468 12.2517 28.61 11.9399C28.716 11.6788 28.7768 11.4015 28.79 11.12H26.25V9.69995M33.15 15.59V18.46H28.31V18.99H33.31V20.22H26.99V17.34H31.82V16.8099H26.99V15.64L33.15 15.59ZM32.99 9.21997C33.11 9.21997 33.23 9.22003 33.23 9.28003L33.35 9.40002L33.29 9.57996C33.2477 9.64902 33.2268 9.72903 33.23 9.80994C33.1811 9.91976 33.1604 10.0401 33.17 10.1599V15.0399H31.87V9.21997H32.99Z" fill="#231916"/>
<path d="M37.99 10.9399C38.6963 12.9976 38.6963 15.2321 37.99 17.2899C37.8615 17.6262 37.6362 17.9169 37.3425 18.1252C37.0488 18.3335 36.6999 18.45 36.34 18.4599V16.9899C36.63 16.9899 36.87 16.7599 37.04 16.2899C37.2106 15.576 37.2912 14.8438 37.28 14.1099C37.2913 13.3794 37.2107 12.6503 37.04 11.9399C36.87 11.4699 36.63 11.2299 36.34 11.2299V9.75995C36.7014 9.76935 37.0517 9.88668 37.3458 10.097C37.6399 10.3073 37.8643 10.6009 37.99 10.9399ZM41.65 9.29987V9.52997L41.58 9.6999C41.58 9.8199 41.53 9.87994 41.53 9.99994V20.28H40.29V9.27997H41.05C41.2527 9.25587 41.4583 9.2798 41.65 9.34992M36.34 18.51C35.9717 18.5039 35.6133 18.3897 35.3093 18.1817C35.0053 17.9737 34.769 17.681 34.63 17.3399C33.9097 15.2845 33.9097 13.0453 34.63 10.9899C34.7664 10.6462 35.0017 10.3506 35.306 10.1406C35.6104 9.93054 35.9702 9.81544 36.34 9.80988V11.2199C35.98 11.2199 35.74 11.4599 35.63 11.9299C35.429 12.6347 35.3478 13.3682 35.39 14.0999C35.348 14.8349 35.4291 15.5717 35.63 16.28C35.74 16.75 35.98 16.9799 36.34 16.9799V18.51Z" fill="#231916"/>
<path d="M44.99 12.99C44.9312 12.4983 44.9736 11.9998 45.1146 11.5251C45.2557 11.0505 45.4923 10.6097 45.81 10.2299C45.9784 10.0566 46.1808 9.92004 46.4045 9.82882C46.6282 9.73761 46.8684 9.69373 47.11 9.69991C47.4171 9.70153 47.72 9.77145 47.9967 9.90463C48.2735 10.0378 48.5171 10.2309 48.71 10.4699C49.1795 11.0955 49.4068 11.8699 49.35 12.65C49.3773 13.3015 49.2361 13.949 48.94 14.53C48.6889 14.9526 48.3903 15.3451 48.05 15.6999L47.64 16.0499C47.29 16.4599 47.05 16.7 46.87 16.88C46.7142 17.0468 46.595 17.2443 46.52 17.4599H49.41V18.99H44.87C44.9012 18.4379 44.9781 17.8893 45.1 17.3499C45.3809 16.5958 45.8248 15.9129 46.4 15.3499L46.52 15.2299C46.9615 14.8244 47.3572 14.3717 47.7 13.88C47.9643 13.4977 48.1072 13.0446 48.11 12.5799C48.1037 12.2534 48.0252 11.9325 47.88 11.64C47.8105 11.5132 47.7075 11.408 47.5823 11.3357C47.4571 11.2634 47.3145 11.2268 47.17 11.2299C46.75 11.2299 46.52 11.41 46.34 11.88C46.2587 12.2443 46.2184 12.6166 46.22 12.99" fill="#231916"/>
<path d="M51.2 13.47V13.4099C51.3251 13.2905 51.4665 13.1895 51.62 13.11C51.8371 12.9906 52.0824 12.9318 52.33 12.9399C52.595 12.9381 52.8564 13.001 53.0916 13.1229C53.3269 13.2449 53.5288 13.4224 53.68 13.64C54.1414 14.2928 54.3702 15.0816 54.33 15.88C54.3579 16.6313 54.1963 17.3775 53.86 18.0499C53.6913 18.4022 53.4259 18.6992 53.0948 18.9064C52.7637 19.1135 52.3806 19.2223 51.99 19.22C51.7117 19.2206 51.4363 19.1631 51.1814 19.0511C50.9266 18.9392 50.6979 18.7753 50.51 18.5699C50.0256 18.0196 49.7745 17.3023 49.81 16.5699H51.11C51.1143 16.8776 51.1932 17.1796 51.34 17.45C51.42 17.5634 51.5265 17.6555 51.6503 17.7183C51.774 17.781 51.9113 17.8124 52.05 17.8099C52.35 17.8099 52.58 17.63 52.82 17.28C52.9759 16.8645 53.0539 16.4238 53.05 15.98C53.0427 15.5989 52.9647 15.2226 52.82 14.87C52.7587 14.7197 52.6508 14.593 52.5123 14.5084C52.3737 14.4238 52.2117 14.3859 52.05 14.4C51.9105 14.3867 51.7698 14.4072 51.64 14.46C51.4284 14.5743 51.2625 14.7579 51.17 14.98H50.05L50.46 9.97998H54.12V11.45H51.4" fill="#231916"/>
<path d="M58.92 18.2199C58.7562 18.5444 58.5042 18.8161 58.1928 19.0036C57.8814 19.1911 57.5234 19.287 57.16 19.28V17.8699C57.3116 17.8469 57.4551 17.7864 57.5773 17.6938C57.6996 17.6012 57.7967 17.4796 57.86 17.3399C58.036 17.0592 58.1199 16.7307 58.1 16.4C58.1106 16.0577 58.0492 15.7171 57.92 15.4C57.8423 15.2692 57.7306 15.162 57.5967 15.0898C57.4629 15.0176 57.3119 14.9831 57.16 14.9899V13.64C57.2823 13.649 57.4044 13.619 57.5086 13.5543C57.6128 13.4896 57.6938 13.3936 57.74 13.28C57.916 13.0217 58.0005 12.7119 57.98 12.4C58.0179 12.0866 57.9317 11.7708 57.74 11.52C57.6933 11.4179 57.6188 11.3309 57.5251 11.269C57.4314 11.2071 57.3223 11.1728 57.21 11.1699H57.16V9.74995C57.7403 9.77763 58.2864 10.0327 58.68 10.4599C59.0518 10.9696 59.242 11.5894 59.22 12.2199C59.2278 12.601 59.1669 12.9804 59.04 13.3399C58.9364 13.6695 58.7296 13.9569 58.45 14.1599C58.7715 14.3229 59.0235 14.5962 59.16 14.9299C59.3656 15.3711 59.4682 15.8532 59.46 16.3399C59.4698 17.0062 59.2819 17.6604 58.92 18.2199ZM57.16 19.28C56.8084 19.2929 56.4596 19.2127 56.1488 19.0477C55.838 18.8826 55.5763 18.6385 55.39 18.3399C55.0157 17.8049 54.8261 17.1625 54.85 16.51C54.8501 16.1367 54.8903 15.7646 54.97 15.4C55.1096 14.9097 55.4269 14.4889 55.86 14.2199C55.6134 14.0096 55.4126 13.7509 55.27 13.4599C55.1386 13.0808 55.0776 12.681 55.09 12.28C55.0512 11.6208 55.2618 10.971 55.68 10.4599C55.8398 10.2337 56.0531 10.0505 56.3008 9.92659C56.5486 9.80271 56.8231 9.74206 57.1 9.74995H57.16V11.1699C56.91 11.1699 56.68 11.28 56.57 11.52C56.3783 11.7708 56.2921 12.0866 56.33 12.4C56.3263 12.6824 56.3843 12.9622 56.5 13.2199C56.5607 13.3439 56.6545 13.4487 56.7709 13.5228C56.8874 13.5969 57.022 13.6375 57.16 13.64V14.9899C56.86 14.9899 56.62 14.99 56.5 15.28C56.267 15.6041 56.1636 16.0035 56.21 16.4C56.1906 16.7687 56.2737 17.1355 56.45 17.4599C56.5274 17.5796 56.6322 17.6792 56.7556 17.7504C56.879 17.8217 57.0177 17.8627 57.16 17.8699V19.28Z" fill="#231916"/>
<path d="M67.24 18.99H65.88V14.9299C65.9297 14.5796 65.8477 14.2233 65.65 13.9299C65.6184 13.8333 65.5543 13.7507 65.4686 13.696C65.3829 13.6414 65.2809 13.618 65.18 13.63C65.0493 13.6183 64.918 13.6452 64.8024 13.7074C64.6869 13.7696 64.5922 13.8644 64.53 13.98C64.3481 14.2803 64.2642 14.6298 64.29 14.98V18.98H62.99V14.98C63.0088 14.6853 62.9886 14.3894 62.93 14.1C62.8899 13.9482 62.7954 13.8164 62.6645 13.7297C62.5336 13.6431 62.3754 13.6076 62.22 13.63C62.0911 13.6215 61.9624 13.6499 61.8491 13.7119C61.7358 13.7739 61.6424 13.8669 61.58 13.98C61.4448 14.2741 61.383 14.5966 61.4 14.9199V18.98H60.1V12.28H61.34V13.28H61.4C61.4888 13.0036 61.6278 12.746 61.81 12.52C62.0814 12.2634 62.4368 12.1141 62.81 12.1C63.1086 12.1086 63.3963 12.2139 63.63 12.4C63.8717 12.6254 64.0538 12.907 64.16 13.22C64.34 12.93 64.45 12.75 64.58 12.58C64.8184 12.3459 65.1281 12.198 65.46 12.1599C65.6978 12.1586 65.9328 12.2111 66.1475 12.3132C66.3622 12.4154 66.551 12.5647 66.7 12.75C67.0834 13.2341 67.2724 13.8439 67.23 14.46" fill="#231916"/>
</g>
<defs>
<clipPath id="clip0_8063_7986">
<rect width="76.38" height="29.11" fill="white"/>
</clipPath>
</defs>
</svg>
