<svg width="76" height="66" viewBox="0 0 76 66" fill="none" xmlns="http://www.w3.org/2000/svg">
<g clip-path="url(#clip0_8062_5621)">
<path d="M1.13998 59.67L34.28 2.58C36.11 -0.530002 39.28 -0.530002 41.18 2.58L74.5 59.76C76.45 62.99 74.86 65.58 70.9 65.58H4.79999C0.549986 65.58 -0.870017 63.1 1.13998 59.64" fill="white"/>
<path d="M1.13998 59.67L34.28 2.58C36.11 -0.530002 39.28 -0.530002 41.18 2.58L74.5 59.76C76.45 62.99 74.86 65.58 70.9 65.58H4.79999C0.549986 65.61 -0.870017 63.13 1.13998 59.67Z" stroke="#D20D18" stroke-width="0.49"/>
<path d="M2.60999 60.43L35.52 3.76C36.7 1.7 38.76 1.82 39.95 3.82L73.05 60.55C74.23 62.55 72.99 64.14 70.69 64.14H5.21C2.55 64.14 1.48999 62.43 2.60999 60.43Z" fill="#D20D18"/>
<path d="M37.88 12.99L63.77 57.72H11.52" fill="#F8B500"/>
<path d="M37.88 12.99L63.77 57.72H11.52L37.88 12.99Z" stroke="#E6002D" stroke-width="0.57"/>
<path d="M27.98 33.03H47.49V40.79H42.19V53.84L33.99 53.9V40.86L27.98 40.79" fill="#231916"/>
</g>
<defs>
<clipPath id="clip0_8062_5621">
<rect width="75.58" height="65.85" fill="white"/>
</clipPath>
</defs>
</svg>
