<svg width="72" height="72" viewBox="0 0 72 72" fill="none" xmlns="http://www.w3.org/2000/svg">
<g clip-path="url(#clip0_8063_6837)">
<path d="M35.94 71.37C42.9673 71.3404 49.8284 69.2298 55.6575 65.3047C61.4865 61.3795 66.0223 55.8158 68.6924 49.3154C71.3625 42.815 72.0473 35.6694 70.6604 28.7802C69.2734 21.891 65.8769 15.567 60.8994 10.6062C55.9219 5.64549 49.5866 2.27029 42.6928 0.906541C35.7989 -0.457207 28.6557 0.251624 22.1643 2.94359C15.6729 5.63556 10.1244 10.19 6.21893 16.0322C2.31344 21.8744 0.225991 28.7426 0.220001 35.77C0.225246 40.4537 1.15363 45.0904 2.95206 49.4151C4.75049 53.7397 7.38369 57.6675 10.7011 60.9737C14.0186 64.28 17.9552 66.9 22.2858 68.6839C26.6165 70.4678 31.2563 71.3806 35.94 71.37Z" stroke="#D20D18" stroke-width="0.45"/>
<path d="M35.94 2.35003C29.3235 2.36388 22.8597 4.33906 17.3656 8.02587C11.8715 11.7127 7.59375 16.9456 5.07316 23.0631C2.55256 29.1807 1.90227 35.9082 3.20447 42.3953C4.50667 48.8823 7.70291 54.8377 12.3891 59.5086C17.0754 64.1795 23.0412 67.3561 29.5325 68.637C36.0239 69.9178 42.7492 69.2454 48.8585 66.7048C54.9677 64.1641 60.1865 59.8692 63.8552 54.363C67.524 48.8568 69.4779 42.3865 69.47 35.77C69.4515 26.8931 65.9094 18.3867 59.6221 12.1201C53.3349 5.8535 44.8169 2.33941 35.94 2.35003ZM35.94 61.8801C30.7875 61.8603 25.7562 60.3147 21.4812 57.4383C17.2062 54.5619 13.879 50.4837 11.9195 45.7183C9.96002 40.9528 9.45605 35.7136 10.4712 30.662C11.4863 25.6104 13.9751 20.9728 17.6234 17.3342C21.2717 13.6957 25.916 11.2193 30.9704 10.2177C36.0247 9.2161 41.2624 9.73411 46.0226 11.7064C50.7828 13.6786 54.8521 17.0167 57.717 21.2994C60.5819 25.5821 62.114 30.6174 62.12 35.77C62.1134 39.2015 61.4311 42.598 60.1119 45.7657C58.7926 48.9335 56.8624 51.8104 54.4314 54.2321C52.0003 56.6539 49.1161 58.573 45.9433 59.8801C42.7706 61.1872 39.3715 61.8566 35.94 61.85" fill="#D20D18"/>
<path d="M55.91 59.43L59.79 55.79L16.45 12.6L12.59 16.24" fill="#D20D18"/>
<path d="M46.33 27.25L35.33 15.32C35.33 15.32 24.98 26.65 24.22 27.47C23.14 28.72 24.22 29.47 24.66 29.47H30.54V56.07L39.9 55.85V29.48H45.35C46.27 29.48 47.68 28.56 46.35 27.25" fill="#231916"/>
</g>
<defs>
<clipPath id="clip0_8063_6837">
<rect width="71.87" height="71.59" fill="white"/>
</clipPath>
</defs>
</svg>
