<svg width="59" height="69" viewBox="0 0 59 69" fill="none" xmlns="http://www.w3.org/2000/svg">
<g clip-path="url(#clip0_8063_7388)">
<path d="M1.71008 61.05C1.72329 62.5088 2.31334 63.903 3.35144 64.928C4.38954 65.953 5.79117 66.5253 7.25 66.52H51.3201C52.7693 66.5121 54.157 65.9337 55.1827 64.9098C56.2085 63.886 56.7895 62.4992 56.8 61.05V7.48C56.8001 6.76083 56.6582 6.04873 56.3827 5.38442C56.1072 4.72012 55.7033 4.11667 55.1943 3.60861C54.6853 3.10054 54.0812 2.69785 53.4164 2.42355C52.7516 2.14924 52.0392 2.00872 51.3201 2.01003H7.25C6.52616 2.00211 5.80799 2.13762 5.13684 2.40884C4.46569 2.68006 3.85495 3.08158 3.33984 3.59017C2.82474 4.09877 2.41547 4.70439 2.13574 5.37203C1.85601 6.03968 1.71136 6.75613 1.71008 7.48" fill="white"/>
<path d="M1.71008 61.05C1.72329 62.5088 2.31334 63.903 3.35144 64.928C4.38954 65.953 5.79117 66.5253 7.25 66.52H51.3201C52.7693 66.5121 54.157 65.9337 55.1827 64.9098C56.2085 63.886 56.7895 62.4992 56.8 61.05V7.48C56.8001 6.76083 56.6582 6.04873 56.3827 5.38442C56.1072 4.72012 55.7033 4.11667 55.1943 3.60861C54.6853 3.10054 54.0812 2.69785 53.4164 2.42355C52.7516 2.14924 52.0392 2.00872 51.3201 2.01003H7.25C6.52616 2.00211 5.80799 2.13762 5.13684 2.40884C4.46569 2.68006 3.85495 3.08158 3.33984 3.59017C2.82474 4.09877 2.41547 4.70439 2.13574 5.37203C1.85601 6.03968 1.71136 6.75613 1.71008 7.48V61.05Z" stroke="#004A9C" stroke-width="0.45"/>
<path d="M0.23999 62.44C0.245225 63.2017 0.400453 63.9549 0.696777 64.6566C0.993101 65.3582 1.42474 65.9947 1.96704 66.5295C2.50934 67.0644 3.15172 67.4872 3.85742 67.7738C4.56313 68.0604 5.31841 68.2053 6.08008 68.2" stroke="#004A9C" stroke-width="0.49"/>
<path d="M6.09003 68.2H52.5" stroke="#004A9C" stroke-width="0.49"/>
<path d="M52.49 68.2C54.0204 68.2 55.4886 67.5941 56.5736 66.5148C57.6586 65.4354 58.2721 63.9704 58.28 62.44" stroke="#004A9C" stroke-width="0.49"/>
<path d="M58.28 62.44V6.07001" stroke="#004A9C" stroke-width="0.49"/>
<path d="M58.27 6.04999C58.2753 5.28712 58.1298 4.53072 57.8418 3.82428C57.5538 3.11783 57.129 2.47523 56.5919 1.93347C56.0548 1.39171 55.4159 0.961482 54.7119 0.667419C54.008 0.373357 53.2529 0.22127 52.49 0.219971" stroke="#004A9C" stroke-width="0.49"/>
<path d="M52.5 0.23999H6.09003" stroke="#004A9C" stroke-width="0.49"/>
<path d="M6.08011 0.240007C5.31293 0.236041 4.55249 0.384036 3.84281 0.675493C3.13313 0.966949 2.48818 1.3961 1.94523 1.93813C1.40227 2.48015 0.972028 3.12433 0.679356 3.83351C0.386684 4.54269 0.237374 5.30283 0.240025 6.07002" stroke="#004A9C" stroke-width="0.49"/>
<path d="M0.23999 6.07001V62.44" stroke="#004A9C" stroke-width="0.49"/>
<path d="M1.71008 51.21H56.8V7.48C56.8001 6.76083 56.6582 6.04873 56.3827 5.38442C56.1072 4.72012 55.7033 4.11667 55.1943 3.60861C54.6853 3.10054 54.0812 2.69785 53.4164 2.42355C52.7516 2.14924 52.0392 2.00872 51.3201 2.01003H7.25C6.52616 2.00211 5.80799 2.13762 5.13684 2.40884C4.46569 2.68006 3.85495 3.08158 3.33984 3.59017C2.82474 4.09877 2.41547 4.70439 2.13574 5.37203C1.85601 6.03968 1.71136 6.75613 1.71008 7.48" fill="#004A9C"/>
<path d="M39.9 23.35C39.02 22.23 29.4601 7.11997 29.4601 7.11997C28.9901 6.35997 28.99 6.23997 28.34 7.11997C27.69 7.99997 17.78 23.76 17.78 23.76C17.78 23.76 17.37 24.46 17.66 24.94C17.8107 25.1489 18.0222 25.3062 18.2656 25.3903C18.5091 25.4744 18.7725 25.4813 19.02 25.41L24.74 23.4699V46.4699H32.65V28.35L32.35 22.94L38.1901 25.64C38.1901 25.64 39.8401 26.58 40.1901 25.41C40.1901 25.41 40.85 24.58 39.9 23.35Z" fill="white"/>
<path d="M13.4401 57.5C12.8726 57.951 12.1647 58.1881 11.4401 58.17C10.7401 58.178 10.0585 57.945 9.51001 57.51C9.24769 57.3022 9.03583 57.0376 8.89014 56.7363C8.74445 56.435 8.6687 56.1046 8.6687 55.77C8.6687 55.4353 8.74445 55.105 8.89014 54.8036C9.03583 54.5023 9.24769 54.2378 9.51001 54.03C10.0699 53.6018 10.7552 53.3698 11.4601 53.3698C12.1649 53.3698 12.8501 53.6018 13.41 54.03C13.6739 54.2357 13.8874 54.4989 14.0342 54.7996C14.181 55.1002 14.2573 55.4304 14.2573 55.765C14.2573 56.0996 14.181 56.4298 14.0342 56.7304C13.8874 57.0311 13.6739 57.2943 13.41 57.5M12.5801 54.78C12.2631 54.5243 11.8673 54.3865 11.4601 54.39C11.0578 54.3898 10.6682 54.5314 10.36 54.79C10.2017 54.9028 10.074 55.0534 9.9884 55.228C9.90285 55.4026 9.86215 55.5957 9.87 55.79C9.86726 55.9835 9.91022 56.1749 9.99536 56.3486C10.0805 56.5224 10.2054 56.6736 10.36 56.79C10.6659 57.0524 11.057 57.1946 11.4601 57.19C11.8693 57.195 12.2666 57.053 12.5801 56.79C12.7335 56.6725 12.8575 56.5211 12.9425 56.3476C13.0275 56.1741 13.0712 55.9832 13.0701 55.79C13.0736 55.5964 13.031 55.4047 12.9458 55.2308C12.8606 55.0569 12.7353 54.9058 12.5801 54.79M10.2001 63.27V60.68H16.38V59.88H10.2001V58.97H17.67V61.56H11.51V62.35H17.9501V63.27H10.2001ZM16.5 53.06H17.6801V58.51H16.5V53.06Z" fill="#231916"/>
<path d="M19.59 58.67V53.51H20.77V55.24H23.5801V53.51H24.75V58.67M27.2001 62.98C25.3319 63.7267 23.2481 63.7267 21.38 62.98C21.0949 62.8609 20.8497 62.6633 20.6726 62.4101C20.4956 62.1569 20.394 61.8586 20.38 61.55C20.3957 61.2406 20.4977 60.9417 20.6744 60.6872C20.8512 60.4327 21.0955 60.2328 21.38 60.11C22.3024 59.7271 23.2913 59.53 24.29 59.53C25.2888 59.53 26.2777 59.7271 27.2001 60.11C27.4845 60.2328 27.7289 60.4327 27.9056 60.6872C28.0824 60.9417 28.1844 61.2406 28.2001 61.55C28.186 61.8586 28.0845 62.1569 27.9075 62.4101C27.7304 62.6633 27.4851 62.8609 27.2001 62.98ZM23.5801 56.23H20.77V57.69H23.5801V56.23ZM26.2001 60.77C24.9548 60.3698 23.6153 60.3698 22.37 60.77C21.89 60.97 21.64 61.23 21.64 61.56C21.64 61.89 21.89 62.13 22.37 62.33C23.6153 62.7302 24.9548 62.7302 26.2001 62.33C26.6801 62.13 26.9301 61.88 26.9301 61.56C26.9301 61.24 26.6801 60.97 26.2001 60.77ZM27.9301 56.68V59.27H26.75V53.05H27.9V55.65H29.3301V56.65L27.9301 56.68Z" fill="#231916"/>
<path d="M29.79 59.37V58.37H34.3V57.47H31.13V53.23H38.8201V54.17H32.3201V54.89H38.8V55.81H32.3201V56.53H38.92V57.47H35.62V58.37H40.15V59.37M38.04 60.37C38.78 60.72 39.13 61.15 39.13 61.69C39.13 62.23 38.78 62.64 38.04 62.98C37.0644 63.3657 36.0179 63.5395 34.97 63.49C33.9269 63.5646 32.8801 63.4145 31.9 63.05C31.17 62.69 30.8101 62.26 30.8101 61.73C30.8101 61.2 31.17 60.73 31.89 60.43C32.8734 60.0478 33.9263 59.8775 34.98 59.93C36.029 59.878 37.0767 60.0555 38.05 60.45M37.05 61.08C36.3965 60.9152 35.724 60.8379 35.05 60.85C34.3573 60.8338 33.6652 60.9044 32.99 61.06C32.46 61.2 32.2001 61.42 32.2001 61.72C32.2001 62.02 32.46 62.23 32.99 62.41C33.6399 62.596 34.3141 62.6837 34.99 62.67C35.6646 62.6833 36.3377 62.6025 36.99 62.43C37.52 62.26 37.78 62.03 37.78 61.74C37.78 61.45 37.52 61.22 36.99 61.08" fill="#231916"/>
<path d="M40.9501 55.58V54.67H46.22V55.58M45.3101 58.87C44.7834 59.1717 44.187 59.3304 43.5801 59.3304C42.9731 59.3304 42.3766 59.1717 41.85 58.87C41.6522 58.7411 41.49 58.5645 41.3782 58.3566C41.2664 58.1487 41.2086 57.9161 41.2101 57.68C41.2053 57.4449 41.2629 57.2128 41.3771 57.0073C41.4913 56.8017 41.6579 56.6302 41.86 56.51C42.3801 56.1947 42.9824 56.0415 43.59 56.07C44.1961 56.0376 44.7974 56.1948 45.3101 56.52C45.5096 56.6421 45.6736 56.8144 45.7859 57.0197C45.8982 57.225 45.9548 57.4561 45.9501 57.69C45.949 57.9242 45.89 58.1545 45.7783 58.3604C45.6667 58.5663 45.5058 58.7413 45.3101 58.87ZM42.2101 53.16H44.9V54.06H42.1801L42.2101 53.16ZM49.35 63.04C48.4058 63.4516 47.3784 63.6366 46.35 63.58C45.3194 63.638 44.2902 63.4458 43.35 63.02C43.0694 62.9058 42.8268 62.7148 42.6499 62.4689C42.473 62.2231 42.369 61.9323 42.35 61.63C42.35 61.08 42.71 60.63 43.35 60.28C44.2976 59.8807 45.3229 59.6996 46.35 59.75C47.3785 59.6927 48.406 59.8776 49.35 60.29C49.6488 60.3753 49.9117 60.5557 50.0989 60.8038C50.286 61.0519 50.3872 61.3542 50.3872 61.665C50.3872 61.9757 50.286 62.2781 50.0989 62.5262C49.9117 62.7743 49.6488 62.9546 49.35 63.04ZM44.5 57.13C44.222 56.9778 43.9062 56.9084 43.59 56.93C43.2706 56.9087 42.9518 56.9781 42.67 57.13C42.5756 57.1892 42.4983 57.2719 42.4457 57.3701C42.3931 57.4683 42.3669 57.5786 42.37 57.69C42.3671 57.8027 42.3933 57.9143 42.4458 58.0141C42.4983 58.1139 42.5755 58.1985 42.67 58.26C42.9475 58.4244 43.2681 58.501 43.59 58.48C43.9087 58.5015 44.2263 58.4248 44.5 58.26C44.5945 58.1985 44.6717 58.1139 44.7242 58.0141C44.7768 57.9143 44.8029 57.8027 44.8 57.69C44.8031 57.5786 44.777 57.4683 44.7244 57.3701C44.6717 57.2719 44.5944 57.1892 44.5 57.13ZM48.3301 60.9C47.6797 60.7176 47.0051 60.6367 46.3301 60.66C45.6552 60.6404 44.9812 60.7213 44.3301 60.9C43.8301 61.07 43.5701 61.31 43.5701 61.64C43.5701 61.97 43.8301 62.21 44.3301 62.39C44.9773 62.5889 45.6535 62.6768 46.3301 62.65C46.9867 62.6725 47.6425 62.5846 48.27 62.39C48.77 62.21 49.02 61.97 49.02 61.66C49.02 61.35 48.77 61.07 48.29 60.9M49.29 59.51V56.7H48.0801V59.29H46.98V53.23H48.0801V55.64H49.29V53.05H50.4V59.51H49.29Z" fill="#231916"/>
</g>
<defs>
<clipPath id="clip0_8063_7388">
<rect width="58.53" height="68.45" fill="white"/>
</clipPath>
</defs>
</svg>
