<svg width="69" height="65" viewBox="0 0 69 65" fill="none" xmlns="http://www.w3.org/2000/svg">
<g clip-path="url(#clip0_8063_7352)">
<path d="M61.52 63.94C63.2123 63.9427 64.8374 63.2771 66.0416 62.088C67.2457 60.8988 67.9316 59.2823 67.95 57.59" stroke="#004A9C" stroke-width="0.49"/>
<path d="M67.95 57.56V6.65997" stroke="#004A9C" stroke-width="0.49"/>
<path d="M67.96 6.65997C67.9521 4.95718 67.27 3.32686 66.0632 2.12561C64.8563 0.924357 63.2228 0.249982 61.52 0.25" stroke="#004A9C" stroke-width="0.49"/>
<path d="M61.52 0.23999H6.60999" stroke="#004A9C" stroke-width="0.49"/>
<path d="M6.62006 0.25C4.92778 0.263178 3.30906 0.94401 2.11615 2.14441C0.923242 3.34481 0.252646 4.96764 0.250061 6.65997" stroke="#004A9C" stroke-width="0.49"/>
<path d="M0.23999 6.65997V57.56" stroke="#004A9C" stroke-width="0.49"/>
<path d="M0.250061 57.56C0.263196 59.2435 0.939071 60.8541 2.13141 62.0427C3.32375 63.2313 4.9365 63.9021 6.62006 63.91" stroke="#004A9C" stroke-width="0.49"/>
<path d="M6.60999 63.91H61.52" stroke="#004A9C" stroke-width="0.49"/>
<path d="M59.9901 62.27C61.5814 62.27 63.1074 61.6379 64.2326 60.5126C65.3578 59.3874 65.9901 57.8613 65.9901 56.27V7.94C65.9901 6.3487 65.3578 4.82261 64.2326 3.69739C63.1074 2.57217 61.5814 1.94 59.9901 1.94H8.21002C6.61872 1.94 5.09256 2.57217 3.96735 3.69739C2.84213 4.82261 2.21002 6.3487 2.21002 7.94V56.27C2.21002 57.8613 2.84213 59.3874 3.96735 60.5126C5.09256 61.6379 6.61872 62.27 8.21002 62.27" fill="white"/>
<path d="M59.9901 62.27C61.5814 62.27 63.1074 61.6379 64.2326 60.5126C65.3578 59.3874 65.9901 57.8613 65.9901 56.27V7.94C65.9901 6.3487 65.3578 4.82261 64.2326 3.69739C63.1074 2.57217 61.5814 1.94 59.9901 1.94H8.21002C6.61872 1.94 5.09256 2.57217 3.96735 3.69739C2.84213 4.82261 2.21002 6.3487 2.21002 7.94V56.27C2.21002 57.8613 2.84213 59.3874 3.96735 60.5126C5.09256 61.6379 6.61872 62.27 8.21002 62.27H59.9901Z" stroke="#004A9C" stroke-width="0.45"/>
<path d="M66.0101 45.4V7.94C66.0101 6.3487 65.3778 4.82261 64.2526 3.69739C63.1274 2.57217 61.6014 1.94 60.0101 1.94H8.23004C6.63874 1.94 5.11258 2.57217 3.98737 3.69739C2.86215 4.82261 2.23004 6.3487 2.23004 7.94V45.39" fill="#004A9C"/>
<path d="M43.07 33.99C44.25 33.17 59.93 23.18 59.93 23.18C60.7 22.65 60.81 22.65 59.93 22.06C59.05 21.47 43.2401 11.54 43.2401 11.54C43.0743 11.4115 42.8758 11.3322 42.6672 11.311C42.4586 11.2898 42.2482 11.3275 42.06 11.42C42.06 11.42 41.41 11.72 41.59 12.77L43.53 18.47H8.26996V27.41H42.83L41.1201 32.17C41.1201 32.17 40.24 33.76 41.29 34.46C41.29 34.46 41.82 35 43.07 33.99Z" fill="white"/>
<path d="M17.7 52.75C17.1453 53.1814 16.4628 53.4156 15.7601 53.4156C15.0574 53.4156 14.3747 53.1814 13.82 52.75C13.556 52.5433 13.3424 52.2792 13.1956 51.9777C13.0488 51.6763 12.9726 51.3453 12.9726 51.01C12.9726 50.6747 13.0488 50.3438 13.1956 50.0423C13.3424 49.7408 13.556 49.4768 13.82 49.27C14.3705 48.8327 15.0572 48.6026 15.7601 48.62C16.4821 48.597 17.1895 48.8269 17.7601 49.27C18.0222 49.4769 18.234 49.7405 18.3797 50.041C18.5254 50.3415 18.6011 50.6711 18.6011 51.005C18.6011 51.339 18.5254 51.6686 18.3797 51.9691C18.234 52.2696 18.0222 52.5331 17.7601 52.74M16.93 50.03C16.6163 49.7707 16.222 49.6288 15.815 49.6288C15.408 49.6288 15.0137 49.7707 14.7 50.03C14.5467 50.1469 14.4232 50.2985 14.3398 50.4723C14.2563 50.6461 14.2153 50.8373 14.22 51.03C14.2184 51.2223 14.2609 51.4124 14.3441 51.5857C14.4273 51.759 14.549 51.911 14.7 52.03C15.0137 52.2894 15.408 52.4312 15.815 52.4312C16.222 52.4312 16.6163 52.2894 16.93 52.03C17.0823 51.9115 17.2056 51.7598 17.2905 51.5865C17.3754 51.4133 17.4196 51.223 17.42 51.03C17.4252 50.8362 17.3834 50.6439 17.298 50.4697C17.2127 50.2956 17.0864 50.1447 16.93 50.03ZM14.54 58.51V55.94H20.72V55.14H14.54V54.23H22.02V56.82H15.86V57.62H22.3V58.54L14.54 58.51ZM20.86 48.3H22.03V53.74H20.86V48.3Z" fill="#231916"/>
<path d="M23.83 53.94V48.77H25.02V50.5H27.82V48.77H28.9901V53.94M31.45 58.24C29.5776 59.0004 27.4824 59.0004 25.61 58.24C25.3264 58.1189 25.0822 57.9208 24.9055 57.668C24.7287 57.4153 24.6264 57.118 24.61 56.81C24.628 56.5012 24.7308 56.2033 24.9073 55.9492C25.0837 55.6951 25.3269 55.4947 25.61 55.37C27.4799 54.5966 29.5802 54.5966 31.45 55.37C31.7345 55.4928 31.9789 55.6927 32.1556 55.9472C32.3323 56.2017 32.4343 56.5006 32.45 56.81C32.4348 57.1183 32.3328 57.4161 32.1559 57.6691C31.979 57.922 31.7344 58.1199 31.45 58.24ZM27.82 51.5H25.0101V52.94H27.82V51.5ZM30.44 56.03C29.1947 55.6299 27.8554 55.6299 26.61 56.03C26.12 56.23 25.8801 56.5 25.8801 56.82C25.8801 57.14 26.12 57.39 26.61 57.59C27.8554 57.9902 29.1947 57.9902 30.44 57.59C30.92 57.39 31.16 57.14 31.16 56.82C31.16 56.5 30.92 56.23 30.44 56.03ZM32.17 51.94V54.54H30.9901V48.32H32.17V50.94H33.59V51.94H32.17Z" fill="#231916"/>
<path d="M34.03 54.62V53.67H38.55V52.78H35.3701V48.53H43.07V49.47H36.56V50.2H43.04V51.11H36.56V51.83H43.16V52.83H39.85V53.72H44.39V54.67M42.29 55.72C43 56.07 43.3701 56.51 43.3701 57.04C43.3701 57.57 43 58.04 42.29 58.34C41.3073 58.7253 40.2544 58.899 39.2 58.85C38.1536 58.8974 37.1094 58.7165 36.14 58.32C35.4 57.96 35.04 57.53 35.04 57C35.04 56.47 35.4001 56 36.1201 55.7C37.1012 55.3224 38.1498 55.1521 39.2 55.2C40.2555 55.1486 41.3095 55.326 42.29 55.72ZM41.29 56.35C40.6364 56.1852 39.9639 56.1079 39.29 56.12C38.5966 56.1014 37.9039 56.1754 37.23 56.34C36.71 56.48 36.44 56.7 36.44 56.99C36.44 57.28 36.7 57.5 37.23 57.68C37.8799 57.8663 38.5541 57.954 39.23 57.94C39.9046 57.9536 40.5778 57.8728 41.23 57.7C41.76 57.53 42.02 57.3 42.02 57.02C42.02 56.74 41.76 56.5 41.23 56.35" fill="#231916"/>
<path d="M45.2 50.83V49.94H50.46V50.84M49.55 54.13C49.0254 54.4377 48.4282 54.5999 47.82 54.5999C47.2118 54.5999 46.6147 54.4377 46.09 54.13C45.8916 54.0018 45.7289 53.8254 45.617 53.6173C45.5051 53.4092 45.4476 53.1762 45.45 52.94C45.4473 52.7053 45.5058 52.474 45.6198 52.2688C45.7338 52.0636 45.8993 51.8917 46.1 51.77C46.6175 51.4572 47.2159 51.3041 47.82 51.33C48.4324 51.2987 49.0396 51.4557 49.56 51.78C49.7556 51.9056 49.9161 52.0788 50.0263 52.2835C50.1365 52.4882 50.1929 52.7176 50.19 52.95C50.1889 53.1842 50.1299 53.4145 50.0182 53.6204C49.9066 53.8263 49.7457 54.0014 49.55 54.13ZM46.45 48.42H49.18V49.33H46.45V48.42ZM53.59 58.3C52.6474 58.7167 51.6188 58.9019 50.59 58.84C49.5593 58.9004 48.5295 58.7082 47.59 58.28C47.3095 58.1659 47.0668 57.9748 46.89 57.7289C46.7131 57.4831 46.6091 57.1923 46.59 56.89C46.6105 56.593 46.7156 56.3081 46.8928 56.0689C47.07 55.8297 47.3119 55.6461 47.59 55.54C48.5385 55.1441 49.5637 54.9664 50.59 55.02C51.6189 54.9566 52.6479 55.1418 53.59 55.56C53.8704 55.6686 54.1137 55.8555 54.291 56.0983C54.4682 56.3412 54.572 56.6299 54.59 56.93C54.5696 57.2295 54.4649 57.517 54.2879 57.7595C54.1109 58.0019 53.869 58.1893 53.59 58.3ZM48.7401 52.39C48.4531 52.258 48.1409 52.1897 47.825 52.1897C47.5091 52.1897 47.197 52.258 46.91 52.39C46.8169 52.4506 46.7406 52.5336 46.6882 52.6315C46.6357 52.7294 46.6089 52.839 46.61 52.95C46.6064 53.0643 46.6321 53.1775 46.6846 53.2791C46.7371 53.3806 46.8146 53.467 46.91 53.53C47.1952 53.6681 47.5081 53.7398 47.825 53.7398C48.1419 53.7398 48.4548 53.6681 48.7401 53.53C48.8342 53.4665 48.9103 53.3797 48.9611 53.2781C49.0119 53.1765 49.0356 53.0635 49.03 52.95C49.0331 52.8397 49.0082 52.7305 48.9575 52.6325C48.9067 52.5345 48.8319 52.4511 48.7401 52.39ZM52.56 56.17C51.93 55.9876 51.2757 55.9033 50.6201 55.92C49.9446 55.9024 49.2704 55.9867 48.6201 56.17C48.1101 56.33 47.85 56.58 47.85 56.91C47.85 57.24 48.1 57.48 48.61 57.65C49.2567 57.8523 49.9329 57.9436 50.61 57.92C51.264 57.9391 51.9164 57.8479 52.54 57.65C53.04 57.48 53.29 57.23 53.29 56.92C53.29 56.61 53.04 56.33 52.55 56.17M53.55 54.77V51.94H52.34V54.52H51.23V48.46H52.34V50.94H53.55V48.36H54.66V54.81L53.55 54.77Z" fill="#231916"/>
</g>
<defs>
<clipPath id="clip0_8063_7352">
<rect width="68.2" height="64.15" fill="white"/>
</clipPath>
</defs>
</svg>
