<svg width="67" height="67" viewBox="0 0 67 67" fill="none" xmlns="http://www.w3.org/2000/svg">
<g clip-path="url(#clip0_8102_1207)">
<mask id="mask0_8102_1207" style="mask-type:luminance" maskUnits="userSpaceOnUse" x="0" y="-1" width="67" height="68">
<path d="M66.8099 -0.0100098H0V66.59H66.8099V-0.0100098Z" fill="white"/>
</mask>
<g mask="url(#mask0_8102_1207)">
<path d="M61.7399 66.3699C62.3707 66.3798 62.9969 66.2607 63.58 66.0199C64.1629 65.7908 64.6961 65.4512 65.1501 65.0199C66.0563 64.1234 66.5704 62.9045 66.58 61.6299" stroke="#124D98" stroke-width="0.45"/>
<path d="M66.58 61.59V5.05005" stroke="#124D98" stroke-width="0.45"/>
<path d="M66.58 5.05C66.58 4.41487 66.4547 3.78598 66.2114 3.19932C65.968 2.61267 65.6114 2.07975 65.1618 1.63111C64.7122 1.18248 64.1786 0.826899 63.5915 0.584758C63.0043 0.342616 62.3751 0.218666 61.7399 0.219981" stroke="#124D98" stroke-width="0.45"/>
<path d="M61.7399 0.219971H5.01996" stroke="#124D98" stroke-width="0.45"/>
<path d="M5.01997 0.219971C4.38765 0.221047 3.76177 0.34704 3.17829 0.590729C2.59482 0.834417 2.06533 1.19101 1.62007 1.63998C1.18603 2.09191 0.846118 2.62556 0.620067 3.20996C0.381036 3.79389 0.258625 4.41903 0.25996 5.04999" stroke="#124D98" stroke-width="0.45"/>
<path d="M0.230042 5.05005V61.59" stroke="#124D98" stroke-width="0.45"/>
<path d="M0.220077 61.5898C0.217302 62.2187 0.343213 62.8415 0.590072 63.4199C0.828563 64.0033 1.18149 64.5331 1.62804 64.9779C2.07459 65.4227 2.60569 65.7736 3.19005 66.0099C3.7697 66.2504 4.39249 66.3695 5.02 66.3599" stroke="#124D98" stroke-width="0.45"/>
<path d="M5.01996 66.3599H61.7399" stroke="#124D98" stroke-width="0.45"/>
<path d="M60.06 64.41C60.6543 64.4108 61.2427 64.2918 61.79 64.06C62.3405 63.8256 62.8398 63.4859 63.2599 63.06C63.6903 62.6435 64.0306 62.1432 64.2599 61.59C64.4868 61.038 64.6024 60.4467 64.6 59.85V6.72999C64.6024 6.13649 64.4868 5.54843 64.2599 4.99997C64.0236 4.45354 63.6841 3.95783 63.2599 3.53998C62.8471 3.10992 62.3502 2.76951 61.8 2.53998C61.2515 2.31318 60.6635 2.19761 60.07 2.19999H6.76996C5.56916 2.19725 4.41586 2.66826 3.56024 3.51078C2.70462 4.35329 2.21581 5.49929 2.20001 6.69999V59.91C2.20792 61.1177 2.69262 62.2735 3.54852 63.1256C4.40442 63.9778 5.56218 64.4574 6.76996 64.46" fill="#124D98"/>
</g>
<path d="M50.6801 23.0899H47.7399V6.90988H54.7399C55.3926 6.88918 56.0427 7.00215 56.6501 7.24182C57.2575 7.48149 57.8093 7.84278 58.2719 8.30355C58.7346 8.76433 59.0981 9.31485 59.3403 9.92126C59.5824 10.5277 59.6982 11.1772 59.6801 11.8299V12.0399C59.7085 12.7139 59.6001 13.3868 59.3615 14.0178C59.123 14.6489 58.7591 15.2252 58.2919 15.712C57.8248 16.1987 57.264 16.5859 56.6432 16.8502C56.0225 17.1145 55.3548 17.2505 54.6801 17.2499H50.6801V23.0899ZM50.6801 14.2899H54.6801C54.9711 14.2917 55.2591 14.2319 55.5253 14.1143C55.7915 13.9967 56.0297 13.824 56.2243 13.6076C56.4189 13.3912 56.5656 13.1361 56.6545 12.859C56.7434 12.5819 56.7724 12.2891 56.7399 11.9999V11.8099C56.7593 11.5423 56.7208 11.2736 56.6271 11.0222C56.5335 10.7708 56.3869 10.5424 56.1972 10.3527C56.0075 10.163 55.7792 10.0163 55.5278 9.92266C55.2763 9.829 55.0075 9.79052 54.7399 9.80987H50.7399L50.6801 14.2899Z" fill="white"/>
<path d="M45.1 38.12C44.4323 38.1203 43.7807 38.3245 43.2321 38.7051C42.6835 39.0857 42.2641 39.6247 42.03 40.25H25.1801C25.0173 39.8133 24.7624 39.4167 24.4328 39.0872C24.1032 38.7576 23.7067 38.5028 23.27 38.34V16.7V16.47H18.41V18.69H20.9401V38.34C20.4279 38.5342 19.9724 38.8537 19.6154 39.2691C19.2584 39.6846 19.0111 40.1828 18.8962 40.7184C18.7812 41.254 18.8023 41.8099 18.9573 42.3352C19.1124 42.8606 19.3965 43.3388 19.7839 43.7261C20.1712 44.1134 20.6494 44.3976 21.1747 44.5527C21.7001 44.7077 22.2559 44.7287 22.7914 44.6137C23.327 44.4988 23.8254 44.2515 24.2409 43.8945C24.6564 43.5375 24.9758 43.0822 25.1701 42.57H42.02C42.2317 43.1321 42.5934 43.6255 43.0656 43.9966C43.5379 44.3678 44.1027 44.6026 44.6989 44.6756C45.2951 44.7486 45.9001 44.6569 46.4479 44.4106C46.9958 44.1643 47.4657 43.7727 47.8068 43.2782C48.1479 42.7838 48.3472 42.2054 48.383 41.6058C48.4188 41.0062 48.2896 40.4083 48.0097 39.8768C47.7298 39.3453 47.3098 38.9007 46.7951 38.591C46.2804 38.2813 45.6907 38.1184 45.09 38.12H45.1Z" fill="white"/>
<path d="M9.50006 54.5399C9.37787 55.1603 9.15128 55.7554 8.83002 56.2999C8.50451 56.8552 8.07297 57.3411 7.56 57.7299L7.08002 56.9699C7.92763 56.3351 8.51722 55.4152 8.74005 54.3799C8.86656 53.8087 8.92689 53.2249 8.91998 52.6399V52.4299H9.70001C9.70966 53.1384 9.64266 53.8459 9.50006 54.5399ZM9.15997 53.3099H7.38007V52.4299H9.15997V53.3099ZM10.8801 59.0099H10.1201V51.6499H10.8801V59.0099ZM11.65 55.3299H10.65V54.4399H11.65V55.3299ZM12.21 59.3299H11.42V51.4099H12.21V59.3299Z" fill="white"/>
<path d="M15.32 52.21C15.572 52.3919 15.7719 52.6367 15.9 52.92C16.0383 53.2475 16.1097 53.5994 16.1097 53.955C16.1097 54.3105 16.0383 54.6624 15.9 54.99C15.7719 55.2732 15.572 55.518 15.32 55.7C15.0798 55.8688 14.7936 55.9595 14.5001 55.96C14.2095 55.9601 13.9262 55.8692 13.69 55.7C13.438 55.518 13.2381 55.2732 13.11 54.99C12.9717 54.6624 12.9003 54.3105 12.9003 53.955C12.9003 53.5994 12.9717 53.2475 13.11 52.92C13.2381 52.6367 13.438 52.3919 13.69 52.21C13.9274 52.0443 14.2106 51.9569 14.5001 51.96C14.7926 51.9568 15.079 52.0441 15.32 52.21ZM14.09 53.04C13.9637 53.1303 13.8664 53.2553 13.81 53.4C13.7352 53.5736 13.6978 53.761 13.7 53.95C13.6978 54.1422 13.7353 54.3328 13.81 54.51C13.8692 54.653 13.966 54.7774 14.09 54.87C14.2124 54.9484 14.3547 54.9901 14.5001 54.9901C14.6454 54.9901 14.7876 54.9484 14.91 54.87C15.034 54.7774 15.1308 54.653 15.19 54.51C15.2613 54.3321 15.2953 54.1415 15.29 53.95C15.2954 53.7617 15.2613 53.5743 15.19 53.4C15.1336 53.2553 15.0363 53.1303 14.91 53.04C14.7876 52.9616 14.6454 52.9199 14.5001 52.9199C14.3547 52.9199 14.2124 52.9616 14.09 53.04ZM14.6201 58.7H13.79V56.57H14.6201V58.7ZM17.8701 59.23H13.79V58.33H17.8701V59.23ZM17.71 57.14H16.89V51.46H17.71V57.14Z" fill="white"/>
<path d="M21.81 53.0599H18.56V52.1799H21.81V53.0599ZM20.9301 53.5099C21.1443 53.6303 21.3182 53.8112 21.4301 54.0299C21.5528 54.2677 21.6146 54.5323 21.61 54.7999C21.6158 55.0676 21.554 55.3325 21.4301 55.5699C21.3183 55.7913 21.1446 55.9754 20.9301 56.0999C20.7121 56.218 20.4679 56.2799 20.2199 56.2799C19.9719 56.2799 19.7279 56.218 19.5099 56.0999C19.2984 55.9748 19.1281 55.7906 19.02 55.5699C18.9081 55.3286 18.8502 55.0659 18.8502 54.7999C18.8502 54.5339 18.9081 54.2711 19.02 54.0299C19.1282 53.8119 19.2988 53.6309 19.5099 53.5099C19.7258 53.3853 19.9706 53.3196 20.2199 53.3196C20.4692 53.3196 20.7142 53.3853 20.9301 53.5099ZM22.57 56.7499C22.8444 56.8397 23.0873 57.0063 23.27 57.2299C23.4255 57.4472 23.5092 57.7077 23.5092 57.9749C23.5092 58.2421 23.4255 58.5026 23.27 58.7199C23.0844 58.9404 22.8425 59.1063 22.57 59.1999C22.2219 59.3149 21.8564 59.369 21.4899 59.3599C21.1267 59.3691 20.7648 59.3149 20.4201 59.1999C20.1476 59.1063 19.9054 58.9404 19.7199 58.7199C19.5585 58.5051 19.4714 58.2436 19.4714 57.9749C19.4714 57.7062 19.5585 57.4447 19.7199 57.2299C19.9026 57.0063 20.1457 56.8397 20.4201 56.7499C21.1188 56.5229 21.8713 56.5229 22.57 56.7499ZM19.9001 54.2199C19.8082 54.2733 19.735 54.3536 19.6901 54.4499C19.6343 54.5579 19.6067 54.6783 19.61 54.7999C19.6083 54.9245 19.6358 55.0477 19.6901 55.1599C19.7356 55.2532 19.8089 55.3301 19.9001 55.3799C19.9978 55.4345 20.108 55.4621 20.2199 55.4599C20.3347 55.4595 20.4478 55.4321 20.55 55.3799C20.6411 55.3301 20.7145 55.2532 20.7599 55.1599C20.8193 55.0495 20.847 54.925 20.84 54.7999C20.8479 54.6779 20.82 54.5563 20.7599 54.4499C20.7151 54.3536 20.6418 54.2733 20.55 54.2199C20.4478 54.1676 20.3347 54.1402 20.2199 54.1399C20.1082 54.139 19.9983 54.1666 19.9001 54.2199ZM20.6401 52.7799H19.82V51.3799H20.6401V52.7799ZM20.86 57.4799C20.7159 57.5027 20.5808 57.565 20.4699 57.6599C20.4282 57.7 20.3952 57.7482 20.3725 57.8014C20.3498 57.8547 20.3381 57.912 20.3381 57.9699C20.3381 58.0278 20.3498 58.0851 20.3725 58.1383C20.3952 58.1916 20.4282 58.2398 20.4699 58.2799C20.5833 58.3708 20.7173 58.4326 20.86 58.4599C21.2749 58.5532 21.7052 58.5532 22.1201 58.4599C22.2592 58.4307 22.3893 58.369 22.4999 58.2799C22.5417 58.2398 22.5749 58.1916 22.5976 58.1383C22.6203 58.0851 22.632 58.0278 22.632 57.9699C22.632 57.912 22.6203 57.8547 22.5976 57.8014C22.5749 57.7482 22.5417 57.7 22.4999 57.6599C22.3919 57.5667 22.2607 57.5045 22.1201 57.4799C21.7027 57.4133 21.2774 57.4133 20.86 57.4799ZM22.9499 55.6499H21.8701V54.7699H22.9499V55.6499ZM22.9499 54.0699H21.85V53.1799H22.9499V54.0699ZM23.4499 56.4899H22.6301V51.4399H23.4499V56.4899Z" fill="white"/>
<path d="M26.7601 52.3499C27.0189 52.6358 27.2074 52.9782 27.3101 53.3499C27.4455 53.8347 27.5094 54.3367 27.5001 54.8399C27.5108 55.3433 27.4468 55.8454 27.3101 56.33C27.2081 56.7019 27.0196 57.0446 26.7601 57.33C26.6565 57.4376 26.5323 57.5233 26.3948 57.5818C26.2574 57.6403 26.1094 57.6705 25.96 57.6705C25.8106 57.6705 25.6629 57.6403 25.5254 57.5818C25.388 57.5233 25.2638 57.4376 25.1602 57.33C24.8972 57.0471 24.7081 56.7036 24.6102 56.33C24.4698 55.846 24.4025 55.3438 24.4102 54.8399C24.4039 54.3362 24.4712 53.8342 24.6102 53.3499C24.7089 52.9766 24.8978 52.6333 25.1602 52.3499C25.2623 52.2397 25.3858 52.1517 25.5235 52.0915C25.6612 52.0313 25.8098 52.0003 25.96 52.0003C26.1103 52.0003 26.2591 52.0313 26.3968 52.0915C26.5344 52.1517 26.658 52.2397 26.7601 52.3499ZM25.5701 53.2099C25.4318 53.392 25.3392 53.6047 25.3001 53.83C25.2351 54.1592 25.2048 54.4944 25.21 54.83C25.2038 55.1656 25.234 55.5009 25.3001 55.83C25.3392 56.0552 25.4318 56.2678 25.5701 56.45C25.6141 56.5131 25.6723 56.565 25.74 56.6015C25.8078 56.638 25.8831 56.658 25.96 56.6599C26.0382 56.6573 26.1149 56.637 26.1841 56.6006C26.2534 56.5643 26.3136 56.5128 26.3602 56.45C26.4909 56.2646 26.5796 56.0531 26.6202 55.83C26.6863 55.5009 26.7163 55.1656 26.71 54.83C26.7152 54.4944 26.6852 54.1592 26.6202 53.83C26.5796 53.6068 26.4909 53.3952 26.3602 53.2099C26.3136 53.1471 26.2534 53.0956 26.1841 53.0592C26.1149 53.0229 26.0382 53.0026 25.96 52.9999C25.8831 53.0019 25.8078 53.0219 25.74 53.0583C25.6723 53.0948 25.6141 53.1468 25.5701 53.2099ZM29.1402 59.3799H28.3201V51.4399H29.1502L29.1402 59.3799Z" fill="white"/>
<path d="M35.32 56.06H29.9699V55.18H35.32V56.06ZM33.7299 56.62C34.0079 56.7131 34.2519 56.8873 34.4301 57.12C34.5939 57.354 34.6781 57.6345 34.6701 57.92C34.6781 58.1993 34.5937 58.4735 34.4301 58.7C34.2519 58.9328 34.0079 59.1069 33.7299 59.2C33.3757 59.3193 33.0038 59.3768 32.6301 59.37C32.2564 59.376 31.8844 59.3186 31.53 59.2C31.2492 59.107 31.0022 58.933 30.82 58.7C30.6564 58.4735 30.572 58.1993 30.58 57.92C30.572 57.6345 30.6562 57.354 30.82 57.12C31.0022 56.887 31.2492 56.713 31.53 56.62C32.2457 56.3931 33.0141 56.3931 33.7299 56.62ZM34.6801 52.62H31.4301V54.16H30.6201V51.76H34.6801V52.62ZM34.6801 54.46H30.59V53.59H34.6801V54.46ZM31.9201 57.33C31.7711 57.3593 31.6328 57.4284 31.52 57.53C31.4294 57.6239 31.3793 57.7495 31.3801 57.88C31.3788 57.9433 31.3904 58.0061 31.4145 58.0646C31.4386 58.1231 31.4745 58.176 31.52 58.22C31.6312 58.3238 31.7703 58.3933 31.9201 58.42C32.1436 58.4679 32.3715 58.4913 32.6 58.49C32.8253 58.4919 33.05 58.4684 33.27 58.42C33.4226 58.3929 33.5648 58.3237 33.6801 58.22C33.7233 58.1748 33.7569 58.1215 33.7792 58.0631C33.8016 58.0047 33.812 57.9425 33.81 57.88C33.8146 57.7508 33.7679 57.6249 33.6801 57.53C33.5648 57.4263 33.4226 57.3571 33.27 57.33C33.0507 57.2772 32.8255 57.2536 32.6 57.26C32.3696 57.2673 32.1411 57.3042 31.9201 57.37V57.33ZM33.02 55.49H32.2099V53.95H33.02V55.49Z" fill="white"/>
<path d="M37.4499 54.2799C37.3412 54.6996 37.1511 55.0938 36.8901 55.4399C36.6499 55.7635 36.3291 56.0186 35.9599 56.1799L35.55 55.3099C35.8513 55.1749 36.1181 54.9731 36.33 54.7199C36.5434 54.4628 36.7063 54.1676 36.81 53.8499C36.9099 53.526 36.9603 53.1889 36.9599 52.8499V52.3399H37.6401V52.8499C37.6452 53.3332 37.5811 53.8148 37.4499 54.2799ZM38.9599 52.86H35.77V51.9699H38.9599V52.86ZM39.4101 56.4799C39.6864 56.5759 39.9247 56.7577 40.0903 56.9988C40.2558 57.2399 40.3398 57.5276 40.33 57.8199C40.3362 58.1146 40.2525 58.4041 40.09 58.6499C39.921 58.8902 39.6843 59.0747 39.4101 59.1799C39.0747 59.3061 38.7183 59.3672 38.36 59.36C37.9952 59.368 37.6321 59.3069 37.29 59.1799C37.0131 59.0697 36.7712 58.8866 36.59 58.6499C36.4275 58.4041 36.3438 58.1146 36.35 57.8199C36.342 57.5282 36.4259 57.2413 36.59 56.9999C36.7671 56.7615 37.0106 56.5807 37.29 56.4799C37.6321 56.3529 37.9952 56.2919 38.36 56.3C38.7183 56.2927 39.0747 56.3538 39.4101 56.4799ZM37.9401 53.7499C38.0342 54.0384 38.1874 54.3041 38.3901 54.5299C38.5967 54.7588 38.8533 54.9367 39.1401 55.05L38.7599 55.92C38.4041 55.7737 38.0911 55.5397 37.85 55.2399C37.6016 54.9184 37.4182 54.5516 37.31 54.1599C37.1874 53.7308 37.1268 53.2863 37.1301 52.8399V52.33H37.79V52.8399C37.7886 53.1495 37.8394 53.4572 37.9401 53.7499ZM37.7099 57.2299C37.559 57.2654 37.4208 57.3415 37.31 57.45C37.22 57.5516 37.1735 57.6844 37.1801 57.8199C37.1759 57.9582 37.222 58.0933 37.31 58.2C37.4195 58.3101 37.5582 58.3865 37.7099 58.42C37.9219 58.4762 38.1407 58.5031 38.36 58.4999C38.5761 58.5032 38.7914 58.4763 38.9999 58.42C39.1489 58.3869 39.2847 58.3103 39.3901 58.2C39.4817 58.0947 39.5314 57.9595 39.53 57.8199C39.5328 57.6832 39.4827 57.5506 39.3901 57.45C39.2847 57.3396 39.1489 57.263 38.9999 57.2299C38.7908 57.1775 38.5756 57.1539 38.36 57.1599C38.1412 57.154 37.9224 57.1776 37.7099 57.2299ZM40.28 56.14H39.4599V51.4399H40.28V56.14ZM41.07 54.14H40.07V53.2299H41.07V54.14Z" fill="white"/>
<path d="M43.2599 55.5699C43.1487 56.0633 42.9596 56.5359 42.6999 56.9699C42.4793 57.3486 42.1663 57.6652 41.79 57.8899L41.36 57.0299C41.6794 56.8377 41.9498 56.5742 42.1501 56.2599C42.3672 55.9196 42.5323 55.5489 42.6401 55.1599C42.7473 54.7587 42.801 54.3451 42.8 53.9299V53.4799H43.4499V53.9099C43.4554 54.4689 43.3917 55.0265 43.2599 55.5699ZM44.83 53.5699H41.55V52.6899H44.83V53.5699ZM43.61 53.1499H42.79V51.5699H43.61V53.1499ZM43.78 55.0599C43.8869 55.4384 44.0559 55.7966 44.28 56.1199C44.4823 56.4281 44.757 56.6822 45.08 56.8599L44.6301 57.7099C44.2625 57.4947 43.9533 57.1925 43.7299 56.8299C43.4704 56.4089 43.2783 55.9501 43.1601 55.4699C43.0354 54.949 42.9715 54.4154 42.9699 53.8799V53.4299H43.6201V53.9099C43.6165 54.3154 43.6703 54.7194 43.78 55.1099V55.0599ZM46.2199 59.3099H45.4001V51.3899H46.2199V59.3099Z" fill="white"/>
<path d="M53.8901 56.6999H48.55V55.8199H53.8901V56.6999ZM51.1801 53.8499C50.9975 54.2454 50.719 54.5891 50.3701 54.8499C49.9979 55.1238 49.5661 55.3054 49.11 55.3799L48.81 54.5199C49.1834 54.4586 49.5405 54.3226 49.86 54.1199C50.1317 53.9414 50.3577 53.7016 50.52 53.4199C50.6631 53.1703 50.7389 52.8877 50.7399 52.5999V52.3599H51.4599V52.5999C51.4576 53.0319 51.3624 53.4583 51.1801 53.8499ZM53.4101 52.7299H49.03V51.9099H53.4101V52.7299ZM51.61 59.3699H50.79V56.4499H51.61V59.3699ZM51.9101 53.3699C52.0724 53.6516 52.2983 53.8914 52.57 54.0699C52.8959 54.2743 53.26 54.4104 53.6401 54.4699L53.34 55.3299C52.8857 55.2556 52.4546 55.0776 52.08 54.8099C51.7265 54.5513 51.4443 54.2072 51.2599 53.8099C51.0698 53.4103 50.974 52.9724 50.9799 52.5299V52.2899H51.6901V52.5299C51.6892 52.8306 51.7649 53.1266 51.9101 53.3899V53.3699Z" fill="white"/>
<path d="M55.9999 55.5699C55.8953 56.0622 55.7129 56.5348 55.4599 56.9699C55.2501 57.3468 54.9473 57.6636 54.58 57.8899L54.1301 57.0299C54.4486 56.8401 54.7163 56.5759 54.9101 56.2599C55.1232 55.9164 55.2817 55.5419 55.3801 55.1499C55.4879 54.7522 55.5416 54.3419 55.54 53.9299V53.4799H56.1901V53.9099C56.1945 54.4689 56.1305 55.0263 55.9999 55.5699ZM57.55 53.5699H54.32V52.6899H57.54L57.55 53.5699ZM56.36 53.1499H55.54V51.5699H56.36V53.1499ZM56.5099 55.0299C56.6031 55.4064 56.7586 55.7646 56.9699 56.0899C57.1585 56.3999 57.4149 56.6632 57.7199 56.8599L57.2599 57.7099C56.9097 57.4799 56.6214 57.1674 56.4201 56.7999C56.177 56.3764 56.0016 55.9175 55.9001 55.4399C55.7788 54.9288 55.7182 54.4052 55.7199 53.8799V53.4299H56.36V53.9099C56.3583 54.3048 56.4086 54.6982 56.5099 55.0799V55.0299ZM58.86 59.3099H58.04V51.3899H58.86V59.3099ZM59.7299 55.3999H58.7299V54.4699H59.7299V55.3999Z" fill="white"/>
</g>
<defs>
<clipPath id="clip0_8102_1207">
<rect width="66.81" height="66.6" fill="white"/>
</clipPath>
</defs>
</svg>
