<svg width="68" height="68" viewBox="0 0 68 68" fill="none" xmlns="http://www.w3.org/2000/svg">
<g clip-path="url(#clip0_8063_7193)">
<path d="M33.92 67.4C40.5587 67.3782 47.0422 65.3898 52.5515 61.6857C58.0609 57.9815 62.3491 52.7279 64.8746 46.5882C67.4001 40.4486 68.0496 33.6983 66.7411 27.1897C65.4326 20.6812 62.2249 14.7063 57.5229 10.0196C52.8209 5.33299 46.8355 2.14478 40.3227 0.857595C33.8099 -0.429592 27.0618 0.241978 20.9304 2.78753C14.799 5.33307 9.55946 9.6384 5.87338 15.1598C2.18731 20.6813 0.220037 27.1712 0.220001 33.81C0.225248 38.2289 1.1013 42.6034 2.7981 46.6835C4.49489 50.7637 6.97916 54.4694 10.1089 57.5889C13.2386 60.7084 16.9524 63.1806 21.0381 64.864C25.1238 66.5475 29.5011 67.4092 33.92 67.4Z" stroke="#004A9C" stroke-width="0.45"/>
<path d="M2.24 33.81C2.2202 27.54 4.06137 21.4052 7.53035 16.1824C10.9993 10.9595 15.9401 6.88338 21.7271 4.47026C27.5141 2.05713 33.887 1.4155 40.0389 2.62657C46.1908 3.83763 51.845 6.8469 56.2855 11.2734C60.7261 15.6999 63.7532 21.3446 64.9838 27.4927C66.2143 33.6407 65.5928 40.0156 63.1979 45.8102C60.8031 51.6048 56.7427 56.5584 51.5308 60.0439C46.3189 63.5294 40.19 65.3899 33.92 65.3899C25.5336 65.3953 17.4877 62.073 11.5483 56.1523C5.60888 50.2316 2.26118 42.1963 2.24 33.81Z" fill="#004A9C"/>
<path d="M38.94 9.77002H37.88V55.87H38.94V9.77002Z" fill="white"/>
<path d="M29.5 30.78C28.96 30.7832 28.4225 30.8538 27.9 30.99L26.9 28.79V28.73C26.8536 28.5921 26.7648 28.4723 26.6462 28.3879C26.5277 28.3035 26.3855 28.2587 26.24 28.26H16.68L18.18 25.15H20.72C20.8138 25.15 20.9038 25.1135 20.9711 25.0481C21.0383 24.9827 21.0774 24.8937 21.08 24.8V23.67C21.08 23.6232 21.0706 23.5768 21.0524 23.5337C21.0342 23.4906 21.0075 23.4515 20.974 23.4189C20.9404 23.3863 20.9006 23.3607 20.857 23.3437C20.8134 23.3267 20.7668 23.3187 20.72 23.32H17.55C17.4096 23.3117 17.2698 23.344 17.1474 23.4132C17.025 23.4824 16.9252 23.5854 16.86 23.71L13.48 30.71V30.79C12.9028 30.6144 12.3032 30.5234 11.7 30.52C10.2281 30.5234 8.8066 31.0564 7.69523 32.0214C6.58386 32.9865 5.85683 34.3192 5.64698 35.776C5.43714 37.2329 5.75849 38.7166 6.55232 39.9561C7.34615 41.1955 8.55946 42.108 9.97053 42.5267C11.3816 42.9454 12.8962 42.8424 14.2376 42.2366C15.579 41.6307 16.6577 40.5624 17.2764 39.2269C17.8952 37.8914 18.0127 36.3778 17.6076 34.9628C17.2025 33.5477 16.3018 32.3257 15.07 31.52L15.81 29.98H25.52L26.28 31.65C25.0237 32.4334 24.0927 33.6445 23.6587 35.06C23.2246 36.4755 23.3167 38.0002 23.9179 39.3532C24.5191 40.7062 25.589 41.7965 26.9305 42.423C28.2719 43.0496 29.7946 43.1704 31.2181 42.7631C32.6415 42.3557 33.8699 41.4478 34.6768 40.2064C35.4838 38.9651 35.815 37.4739 35.6095 36.0076C35.4039 34.5414 34.6755 33.1988 33.5583 32.2272C32.4412 31.2555 31.0106 30.7202 29.53 30.72M16.1 36.67C16.1039 37.5514 15.8461 38.4141 15.3591 39.1487C14.8721 39.8834 14.1779 40.4569 13.3645 40.7965C12.5512 41.136 11.6553 41.2264 10.7905 41.0562C9.92568 40.8859 9.1309 40.4627 8.50695 39.8402C7.88301 39.2176 7.45798 38.4238 7.28578 37.5594C7.11358 36.695 7.20197 35.7989 7.53972 34.9847C7.87746 34.1706 8.44936 33.4752 9.1829 32.9865C9.91645 32.4979 10.7786 32.238 11.66 32.24C12.0141 32.2376 12.3671 32.2813 12.71 32.37L10.85 36.37C10.8001 36.4764 10.7716 36.5915 10.7662 36.7089C10.7608 36.8262 10.7786 36.9435 10.8185 37.054C10.8585 37.1645 10.9198 37.2661 10.9989 37.3529C11.0781 37.4397 11.1736 37.5101 11.28 37.56C11.3864 37.6099 11.5015 37.6383 11.6189 37.6437C11.7362 37.6491 11.8535 37.6314 11.964 37.5914C12.0745 37.5515 12.1761 37.4902 12.2629 37.411C12.3497 37.3318 12.4201 37.2364 12.47 37.13L14.33 33.13C14.8793 33.5425 15.3251 34.077 15.6323 34.6914C15.9395 35.3057 16.0996 35.9831 16.1 36.67ZM29.53 41.27C28.5849 41.2732 27.6635 40.9741 26.9006 40.4164C26.1376 39.8587 25.573 39.0715 25.2892 38.17C25.0055 37.2685 25.0175 36.2999 25.3235 35.4057C25.6295 34.5115 26.2134 33.7387 26.99 33.2L28.82 37.2C28.8679 37.307 28.9365 37.4035 29.0217 37.4841C29.107 37.5646 29.2072 37.6276 29.3168 37.6694C29.4264 37.7112 29.5431 37.7309 29.6603 37.7276C29.7775 37.7243 29.893 37.6979 30 37.65C30.107 37.602 30.2035 37.5335 30.2841 37.4482C30.3646 37.363 30.4276 37.2628 30.4694 37.1532C30.5112 37.0436 30.531 36.9269 30.5276 36.8096C30.5243 36.6924 30.4979 36.577 30.45 36.47L28.63 32.47C28.9262 32.4098 29.2277 32.3797 29.53 32.38C30.1301 32.3515 30.7298 32.4451 31.2927 32.6551C31.8556 32.8651 32.37 33.1872 32.8048 33.6018C33.2396 34.0164 33.5857 34.515 33.8222 35.0673C34.0587 35.6196 34.1806 36.2142 34.1806 36.815C34.1806 37.4158 34.0587 38.0103 33.8222 38.5626C33.5857 39.1149 33.2396 39.6135 32.8048 40.0281C32.37 40.4428 31.8556 40.7648 31.2927 40.9749C30.7298 41.1849 30.1301 41.2785 29.53 41.25" fill="white"/>
<path d="M28.8 25.54H23.68C23.5358 25.5628 23.4035 25.6334 23.3044 25.7405C23.2053 25.8477 23.1451 25.9851 23.1335 26.1306C23.122 26.2761 23.1598 26.4212 23.2407 26.5427C23.3217 26.6641 23.4412 26.7547 23.58 26.8L26.81 27.22C27.0494 27.2462 27.2917 27.2244 27.5226 27.1558C27.7535 27.0871 27.9684 26.9731 28.1547 26.8204C28.341 26.6676 28.4949 26.4792 28.6074 26.2662C28.7199 26.0532 28.7888 25.8199 28.81 25.58" fill="white"/>
<path d="M59.53 43.43L59.79 43.41L59.9 43.36L60.03 43.21L60.09 43.07L60.06 42.88L59.93 42.79L59.77 42.68L59.6 42.53L59.49 42.25L59.51 41.69L59.54 41.12L59.57 39.92L59.55 39.47L59.64 39.23L59.68 39.1L60.02 39.04L60.31 38.98L60.62 38.81L60.77 38.67L60.9 38.43L60.96 38.12L60.9 37.93L60.84 37.74L60.43 37.01L60.2 36.63L59.95 36.07L59.86 35.64L59.85 35L59.87 34.81L59.97 34.69L60.11 34.76L60.25 35.09L60.34 35.42L60.36 35.71L60.43 36.1L60.5 36.51L60.7 36.84L60.83 36.74L60.99 36.51L61.14 36.16L61.15 35.82L61.17 35.5L61.18 35.2L61.19 34.89L61.21 34.22L61.11 33.63L60.83 32.97L60.47 32.46L59.92 31.83L59.63 31.46L59.42 31.1L59.32 30.73L59.24 30.12L59.18 29.64L59.16 29.34L59.12 29.1L59.04 28.92L58.85 28.78L58.65 28.7L58.43 28.65H58.25L58.05 28.64H57.89L57.63 28.62L57.39 28.66L57.14 28.75L57.02 28.84L56.87 28.94L56.7 29.07L56.58 29.32L56.54 29.59L56.52 29.85L56.56 30.13L56.6 30.5L56.69 30.72L56.84 31.02L56.9 31.31L56.82 31.65L56.72 31.79L56.45 31.92L56.29 31.96L55.82 32.01L55.41 31.99L54.86 31.77L54.33 31.34L53.73 30.65L53.24 30.02L52.92 29.49L52.77 29.13L52.53 28.57L52.46 28.38L52.33 28.01L52.23 27.66L52.17 27.32L52.07 26.74L51.93 26.33L51.79 25.92L51.57 25.46L51.19 24.89L50.79 24.54L50.39 24.25L50.05 24.01L49.36 23.66L48.97 23.46L48.4 23.3L48.35 23.16L48.39 22.92L48.48 22.74L48.74 22.52L49.11 22.25L49.43 21.97L49.61 21.76L49.75 21.38L49.76 21.07L49.77 20.92V20.54L49.78 20.08L49.68 19.86L49.56 19.64L49.4 19.43L49.2 19.18L48.87 18.93L48.66 18.79L48.31 18.61L48.02 18.53L47.75 18.45L47.34 18.44L47.07 18.43L46.8 18.52L46.52 18.71L46.26 18.97L46.07 19.28L45.95 19.64L45.88 20.04L45.95 20.52L46.04 20.91L46.12 21.15L46.19 21.39L46.43 21.68L46.58 21.88L46.77 22.25L46.87 22.54L46.82 22.81L46.71 23.14L46.36 23.44L45.84 23.79L44.99 24.47L44.21 25.37L43.59 26.21L43.18 27.04L42.98 27.42L42.78 27.92L42.58 28.62L42.5 29.68V30.87L42.49 31.46L42.46 32.27L42.72 33L42.96 33.24L43.51 33.33L44.04 33.13L44.38 32.57L44.3 31.95L44.11 31.46L44.06 30.85L44.08 30.25L44.35 29.46L44.68 28.78L44.96 28.32L45.16 27.75L45.28 27.31L45.45 27.04L45.74 27.03L45.88 27.34L46.01 28.07L46.02 28.57L45.95 29.23L45.84 30.02L45.75 30.6L45.66 30.96L45.54 31.46L45.43 31.94L45.33 32.42L45.28 32.84L45.24 33.33L45.26 33.8L45.24 34.19L45.29 34.67L45.41 35.17L45.47 35.49L45.52 35.77L45.61 36.25L45.69 36.72L45.72 37.41L45.73 37.59L45.77 38.11L45.78 38.85L45.84 39.56V40.1L45.82 40.64L45.96 42.38L45.87 45.24L46.09 45.99L46.38 46.41L46.87 46.71L47.64 46.73L48.05 46.65L48.42 46.42L48.73 46.25L48.92 46.05L49.06 45.77L49.05 45.41L48.77 45.02L48.35 44.56L48.03 44.27L48.05 40.85L48.15 39.57L48.2 38.7L48.21 38.29L48.22 38L48.27 37.6V37.39L48.42 37.17L48.51 37.35L48.65 37.7L48.68 37.87L48.71 38.46L48.78 39.13L48.85 39.66L48.96 40.09L49.1 40.68L49.23 41.33L49.33 41.69L49.68 42.67L49.99 43.56L50.14 44.05L50.59 44.32L50.94 44.43H51.29L51.73 44.36L51.98 44.22L52.19 43.95L52.34 43.75L52.46 43.54L52.52 43.21L52.51 42.87L52.41 42.46L52.09 41.84L51.51 40.8L50.97 39.86L50.83 39.43L50.7 38.95L50.82 36.29L50.99 35.74L51.17 35.14L51.27 34.18L51.23 33.27L50.99 32.31L50.69 31.39L50.47 30.45L50.49 29.84L50.53 29.27L50.64 28.93L50.96 28.88L51.31 29.08L51.55 29.43L51.79 29.84L52.06 30.44L52.41 30.98L52.86 31.7L53.23 32.21L53.83 32.73L54.66 33.2L55.16 33.47L55.69 33.7L55.96 33.84L56.1 34.03L56.15 34.25L56.17 34.48L56.14 34.76L56.06 35.09L55.79 35.81L55.39 36.46L55.21 37.02L55.17 37.4V37.68L55.21 38.04L55.35 38.27L55.57 38.6L55.83 38.88L56.04 39.11L56.37 39.39L56.74 39.8L56.84 40.18L56.88 40.38L56.91 40.86L56.89 41.31L56.84 41.52L56.74 41.87L56.66 42.16L56.61 42.34L56.48 42.7L56.38 42.9L56.28 43.12L56.16 43.37L56.12 43.59L56.18 43.77L56.4 43.96L56.7 44.03L56.92 44.02L57.05 43.97L57.21 43.82L57.3 43.73L57.58 43.15L57.75 42.54L57.89 41.89L57.94 41.23L57.96 40.52L57.97 39.93L57.96 39.42H58.1L58.28 39.56L58.33 39.72L58.4 39.9L58.38 40.39L58.46 40.73L58.57 41.02L58.58 41.23V41.59L58.47 41.99L58.4 42.48L58.45 42.76L58.55 43.04L58.63 43.19L58.86 43.36L59.11 43.41L59.29 43.44" fill="white"/>
</g>
<defs>
<clipPath id="clip0_8063_7193">
<rect width="67.85" height="67.63" fill="white"/>
</clipPath>
</defs>
</svg>
