<svg width="77" height="30" viewBox="0 0 77 30" fill="none" xmlns="http://www.w3.org/2000/svg">
<g clip-path="url(#clip0_8072_297)">
<path d="M5.78997 28.87C5.04806 28.8737 4.31286 28.7307 3.6264 28.4492C2.93994 28.1678 2.31576 27.7534 1.78997 27.23C1.27659 26.7044 0.873284 26.0817 0.60369 25.3983C0.334097 24.7149 0.203691 23.9845 0.220023 23.25" stroke="#231F20" stroke-width="0.49"/>
<path d="M0.240002 23.2901V5.83008" stroke="#231F20" stroke-width="0.49"/>
<path d="M0.21998 5.81987C0.211831 5.09219 0.34817 4.37009 0.621103 3.69548C0.894036 3.02087 1.2981 2.40718 1.80995 1.88988C2.33358 1.36284 2.957 0.945462 3.64381 0.662155C4.33061 0.378848 5.06702 0.23527 5.80995 0.239852" stroke="#231F20" stroke-width="0.49"/>
<path d="M5.79 0.23999H70.48" stroke="#231F20" stroke-width="0.49"/>
<path d="M70.48 0.250037C71.2237 0.239753 71.9618 0.380706 72.6494 0.664343C73.337 0.94798 73.9598 1.36841 74.48 1.90006C75 2.41441 75.4134 3.02628 75.6966 3.70066C75.9797 4.37504 76.127 5.09866 76.13 5.83005" stroke="#231F20" stroke-width="0.49"/>
<path d="M76.09 5.83008V23.2901" stroke="#231F20" stroke-width="0.49"/>
<path d="M76.08 23.25C76.0772 23.9829 75.93 24.7081 75.6469 25.3842C75.3638 26.0602 74.9503 26.6738 74.43 27.19C73.9079 27.7184 73.2845 28.136 72.5972 28.4178C71.9099 28.6996 71.1727 28.8399 70.43 28.83" stroke="#231F20" stroke-width="0.49"/>
<path d="M70.48 28.8701H5.79" stroke="#231F20" stroke-width="0.49"/>
<path d="M5.78998 26.8201C4.87113 26.7953 3.9987 26.4112 3.36005 25.7501C3.02153 25.4372 2.75292 25.0563 2.57197 24.6323C2.39101 24.2084 2.30175 23.7509 2.31 23.29" stroke="#231F20" stroke-width="0.49"/>
<path d="M2.31 23.2901V5.83008" stroke="#231F20" stroke-width="0.49"/>
<path d="M2.29999 5.81989C2.29551 5.35862 2.38747 4.90148 2.57001 4.47784C2.75255 4.05421 3.0217 3.67341 3.36005 3.35986C4.00457 2.72238 4.87357 2.3633 5.78009 2.35986" stroke="#231F20" stroke-width="0.49"/>
<path d="M5.79 2.36011H70.48" stroke="#231F20" stroke-width="0.49"/>
<path d="M70.48 2.36008C70.9389 2.355 71.3942 2.44077 71.8199 2.6124C72.2455 2.78402 72.633 3.0381 72.96 3.36008C73.6219 4.00958 74.0026 4.89291 74.0201 5.8201" stroke="#231F20" stroke-width="0.49"/>
<path d="M74.02 5.83008V23.2901" stroke="#231F20" stroke-width="0.49"/>
<path d="M74.0201 23.25C73.9876 24.1776 73.6038 25.0582 72.9466 25.7136C72.2893 26.3689 71.4077 26.7502 70.48 26.78" stroke="#231F20" stroke-width="0.49"/>
<path d="M70.48 26.8201H5.79" stroke="#231F20" stroke-width="0.49"/>
<path d="M10 12.53C9.82436 13.1422 9.52862 13.7133 9.13004 14.21C8.75076 14.6901 8.25501 15.0653 7.68997 15.3L7.02005 14.04C7.49375 13.852 7.91796 13.5578 8.26004 13.18C8.58912 12.8142 8.84082 12.3856 9.00003 11.92C9.16058 11.4569 9.24171 10.9701 9.24002 10.48V9.73999H10.24V10.48C10.2596 11.1713 10.1788 11.8619 10 12.53ZM12.39 10.53H7.39005V9.25H12.39V10.53ZM13.39 15.76C13.8213 15.8987 14.2033 16.1592 14.49 16.51C14.7312 16.8487 14.8607 17.2542 14.8607 17.67C14.8607 18.0858 14.7312 18.4913 14.49 18.83C14.1997 19.1747 13.8187 19.431 13.39 19.57C12.8432 19.7576 12.268 19.849 11.69 19.84C11.1186 19.8481 10.5502 19.7567 10.01 19.57C9.5814 19.431 9.20022 19.1747 8.90994 18.83C8.66877 18.4913 8.53922 18.0858 8.53922 17.67C8.53922 17.2542 8.66877 16.8487 8.90994 16.51C9.19665 16.1592 9.57874 15.8987 10.01 15.76C10.5517 15.5815 11.1198 15.4969 11.69 15.51C12.2686 15.5043 12.8438 15.599 13.39 15.79V15.76ZM10.7801 11.76C10.9409 12.1883 11.1818 12.5819 11.49 12.92C11.8241 13.2721 12.2299 13.5483 12.68 13.73L12.0399 14.96C11.4921 14.7529 11.0067 14.4086 10.63 13.96C10.2444 13.4951 9.95547 12.958 9.78006 12.38C9.59745 11.7531 9.50649 11.103 9.51004 10.45V9.71997H10.51V10.45C10.5213 10.9122 10.6127 11.369 10.7801 11.8V11.76ZM10.67 16.76C10.4307 16.8042 10.209 16.9151 10.0301 17.08C9.95673 17.1489 9.89908 17.2328 9.86111 17.326C9.82315 17.4192 9.80567 17.5195 9.80997 17.62C9.80774 17.7188 9.82616 17.8169 9.86404 17.9082C9.90193 17.9995 9.95853 18.0819 10.0301 18.15C10.2104 18.3147 10.4312 18.4286 10.67 18.48C10.9982 18.5524 11.3339 18.586 11.67 18.58C12.006 18.5846 12.3415 18.551 12.67 18.48C12.9058 18.4287 13.1235 18.3148 13.3 18.15C13.3683 18.08 13.422 17.997 13.458 17.906C13.4941 17.815 13.5118 17.7178 13.51 17.62C13.5137 17.5204 13.497 17.4211 13.4608 17.3282C13.4247 17.2354 13.37 17.1509 13.3 17.08C13.1251 16.915 12.9064 16.8039 12.67 16.76C12.3419 16.6851 12.0064 16.6482 11.67 16.65C11.3302 16.673 10.9944 16.7368 10.67 16.84V16.76ZM13.89 12.55H12.12V11.35H13.89V12.55ZM14.84 15.21H13.56V8.53003H14.84V15.21Z" fill="#231F20"/>
<path d="M18.45 14.3599C18.324 15.0566 18.0949 15.7307 17.7701 16.3599C17.5002 16.9123 17.0983 17.3898 16.6 17.7499L15.86 16.5699C16.2695 16.252 16.6097 15.8539 16.86 15.3999C17.1351 14.9084 17.3371 14.3795 17.46 13.8299C17.5857 13.2449 17.6494 12.6482 17.6501 12.0499V11.7399H18.6501V12.0499C18.6608 12.8246 18.5937 13.5985 18.45 14.3599ZM20.36 11.7799H16.22V10.5199H20.37L20.36 11.7799ZM18.9001 11.5399H17.7V8.99988H18.9001V11.5399ZM19.09 13.7399C19.2131 14.261 19.4154 14.7601 19.69 15.2198C19.9357 15.652 20.278 16.0216 20.69 16.2999L19.98 17.4599C19.4845 17.136 19.0785 16.6923 18.8 16.1699C18.4754 15.583 18.246 14.9485 18.12 14.2899C17.9757 13.5453 17.9052 12.7883 17.9099 12.0299V11.7198H18.9099V12.0299C18.9073 12.6048 18.9677 13.1782 19.09 13.7399ZM21.32 14.1699H19.82V12.8799H21.32V14.1699ZM22.12 19.3399H20.9099V8.79987H22.12V19.3399ZM24 19.8499H22.7801V8.60986H24V19.8499Z" fill="#231F20"/>
<path d="M28.0399 13.9099C27.866 14.7028 27.5656 15.4625 27.1501 16.1599C26.7886 16.7702 26.2751 17.2767 25.6599 17.6299L24.87 16.3199C25.4089 16.0405 25.8669 15.6273 26.2 15.1199C26.5728 14.568 26.8469 13.9556 27.01 13.3099C27.1844 12.6066 27.2717 11.8845 27.2701 11.1599V9.47986H28.34V11.1599C28.3463 12.085 28.2456 13.0078 28.0399 13.9099ZM28.84 13.1999C29.0046 13.8198 29.2717 14.4079 29.63 14.9399C29.9544 15.4238 30.3942 15.8191 30.9099 16.0899L30.1501 17.3599C29.5578 17.0166 29.0596 16.5323 28.7 15.9499C28.2887 15.2827 27.9881 14.5532 27.81 13.7899C27.6137 12.927 27.5165 12.0447 27.5201 11.1599V9.47986H28.58V11.1599C28.5742 11.8649 28.6616 12.5677 28.84 13.2499V13.1999ZM32.71 19.8799H31.4001V8.60986H32.71V19.8799Z" fill="#231F20"/>
<path d="M37.01 12.8599C36.8261 13.4626 36.5197 14.021 36.11 14.4999C35.7164 14.9475 35.2182 15.291 34.6599 15.4999L34 14.2599C34.4693 14.0776 34.8926 13.7942 35.24 13.4299C35.5659 13.075 35.8205 12.6609 35.99 12.2099C36.1504 11.7537 36.2316 11.2734 36.23 10.7899V9.78986H37.31V10.7899C37.3203 11.4914 37.2191 12.1901 37.01 12.8599ZM39.4001 10.6799H34.34V9.41986H39.4001V10.6799ZM36.8 19.0199H35.49V16.0199H36.8V19.0199ZM41.92 19.6599H35.49V18.3899H41.92V19.6599ZM37.7801 12.1799C37.9435 12.6108 38.1956 13.0026 38.5201 13.3299C38.8614 13.6778 39.2791 13.9414 39.74 14.0999L39.09 15.3399C38.5385 15.1289 38.0474 14.7855 37.6599 14.3399C37.2632 13.8816 36.9639 13.3475 36.7801 12.7699C36.5837 12.1455 36.4858 11.4944 36.49 10.8399V9.8399H37.49V10.8399C37.5053 11.3004 37.6036 11.7543 37.7801 12.1799ZM41.6599 16.7499H40.37V8.62988H41.6599V16.7499Z" fill="#231F20"/>
<path d="M46.87 9.40991C47.2585 9.65148 47.5706 9.99821 47.77 10.4099C47.995 10.8382 48.1085 11.3162 48.1 11.7999C48.106 12.2706 47.9925 12.7352 47.77 13.15C47.5594 13.5381 47.2486 13.8627 46.87 14.09C46.477 14.314 46.0323 14.4312 45.5799 14.4299C45.1273 14.434 44.6817 14.3167 44.2899 14.09C43.9113 13.8627 43.6006 13.5381 43.39 13.15C43.1675 12.7352 43.0539 12.2706 43.0599 11.7999C43.0514 11.3162 43.165 10.8382 43.39 10.4099C43.5895 9.99821 43.9014 9.65148 44.2899 9.40991C44.6827 9.1867 45.1282 9.0728 45.5799 9.07996C46.0314 9.07519 46.4763 9.18893 46.87 9.40991ZM44.87 10.5599C44.6781 10.6672 44.5243 10.8315 44.4299 11.03C44.3247 11.2536 44.2702 11.4978 44.2702 11.7449C44.2702 11.9921 44.3247 12.2363 44.4299 12.46C44.5275 12.6537 44.6808 12.8138 44.87 12.9199C45.0709 13.0343 45.2988 13.093 45.53 13.09C45.7549 13.0934 45.9763 13.0345 46.1699 12.9199C46.3591 12.8138 46.5123 12.6537 46.61 12.46C46.7224 12.2406 46.7775 11.9963 46.77 11.7499C46.7738 11.5007 46.719 11.2541 46.61 11.03C46.513 10.8333 46.3598 10.6697 46.1699 10.5599C45.9772 10.4441 45.7545 10.3885 45.53 10.4C45.3161 10.398 45.1053 10.4532 44.9199 10.5599H44.87ZM45.6899 16.1899H49.2899V15.1899H50.5699V19.77H44.4199V15.15H45.6899V16.1899ZM49.2899 18.46V17.4099H45.6899V18.46H49.2899ZM50.5699 14.6599H49.28V8.65991H50.5699V14.6599Z" fill="#231F20"/>
<path d="M60.3 14.4299H51.88V13.1599H60.3V14.4299ZM59.3 19.7299H52.89V15.6199H59.3V19.7299ZM58.82 10.3899H52.93V9.12988H58.82V10.3899ZM54.1599 18.4599H58.01V16.8399H54.1599V18.4599ZM59.2801 11.7699C59.2399 12.3547 59.1596 12.9361 59.0399 13.5099H57.75C57.84 13.0599 57.9 12.6399 57.95 12.2399C58 11.8399 58.0201 11.4899 58.0301 11.1899C58.0401 10.8899 58.0301 10.5199 58.0301 10.0699V9.16986H59.32V10.0699C59.31 10.6799 59.29 11.2499 59.22 11.7699H59.2801Z" fill="#231F20"/>
<path d="M63.83 14.2499C63.6405 15.0017 63.337 15.72 62.93 16.3799C62.5776 16.9612 62.0862 17.4457 61.5 17.7899L60.76 16.5499C61.2697 16.2611 61.7047 15.857 62.0301 15.3699C62.3845 14.8466 62.6512 14.269 62.82 13.6599C63.0005 13.029 63.0914 12.376 63.09 11.7198V10.4199H64.14V11.7198C64.1411 12.5727 64.037 13.4225 63.83 14.2499ZM66.34 11.0399H61.13V9.75989H66.34V11.0399ZM64.67 13.5599C64.8335 14.1382 65.0975 14.6831 65.45 15.1699C65.7783 15.6311 66.2143 16.0053 66.72 16.2599L66.0201 17.4999C65.4335 17.1842 64.935 16.727 64.57 16.1699C64.1645 15.5571 63.8638 14.8812 63.68 14.1699C63.4792 13.3757 63.3818 12.559 63.39 11.7399V10.4399H64.39V11.7399C64.3992 12.3401 64.4934 12.9361 64.67 13.5099V13.5599ZM68.55 19.8999H67.22V8.60986H68.5301L68.55 19.8999Z" fill="#231F20"/>
</g>
<defs>
<clipPath id="clip0_8072_297">
<rect width="76.33" height="29.12" fill="white"/>
</clipPath>
</defs>
</svg>
