<svg width="75" height="66" viewBox="0 0 75 66" fill="none" xmlns="http://www.w3.org/2000/svg">
<g clip-path="url(#clip0_8063_6682)">
<path d="M69.74 63.99C72.41 63.99 73.51 62.09 72.17 59.78L39.72 3.56998C38.39 1.25998 36.2 1.25998 34.86 3.56998L2.40998 59.8C1.06998 62.11 2.16003 64.01 4.84003 64.01L69.74 63.99Z" fill="#D20D18"/>
<path d="M73.55 58.98L41.1 2.8C40.7857 2.04875 40.2563 1.4072 39.5784 0.955978C38.9005 0.504752 38.1043 0.263992 37.29 0.263992C36.4756 0.263992 35.6795 0.504752 35.0016 0.955978C34.3237 1.4072 33.7943 2.04875 33.48 2.8L1.02997 59C0.53622 59.6478 0.245091 60.4272 0.193113 61.24C0.141136 62.0529 0.330636 62.8629 0.737852 63.5683C1.14507 64.2737 1.75179 64.843 2.48169 65.2045C3.21159 65.566 4.03213 65.7036 4.84002 65.6H69.74C70.5479 65.7036 71.3684 65.566 72.0983 65.2045C72.8282 64.843 73.4349 64.2737 73.8421 63.5683C74.2493 62.8629 74.4389 62.0529 74.3869 61.24C74.3349 60.4272 74.0437 59.6478 73.55 59V58.98Z" stroke="#D20D18" stroke-width="0.49"/>
<path d="M10.97 57.35L37.29 11.77L63.6 57.35H10.97Z" fill="#F8B500"/>
<path d="M31.81 31.34H30.19C29.886 31.3062 29.5791 31.3668 29.3107 31.5135C29.0424 31.6602 28.8257 31.8859 28.69 32.16C28.53 32.5 27.47 34.63 27.47 34.63C27.1644 34.6777 26.8844 34.8288 26.6769 35.0582C26.4694 35.2876 26.3469 35.5812 26.33 35.8901V38.8901H27.52C27.52 38.8901 27.52 39.6701 27.52 39.8901C27.52 40.1553 27.6253 40.4096 27.8129 40.5971C28.0004 40.7847 28.2548 40.8901 28.52 40.8901C28.7852 40.8901 29.0396 40.7847 29.2271 40.5971C29.4146 40.4096 29.52 40.1553 29.52 39.8901V38.8901H36.94V39.8901C36.94 40.1553 37.0454 40.4096 37.2329 40.5971C37.4204 40.7847 37.6748 40.8901 37.94 40.8901C38.2052 40.8901 38.4596 40.7847 38.6471 40.5971C38.8346 40.4096 38.94 40.1553 38.94 39.8901C38.94 39.6301 38.94 38.8901 38.94 38.8901H40.14V35.8901C40.1231 35.5812 40.0006 35.2876 39.7931 35.0582C39.5856 34.8288 39.3056 34.6777 39 34.63L37.77 32.16C37.6361 31.8867 37.4212 31.6614 37.1545 31.5146C36.8879 31.3679 36.5825 31.3069 36.28 31.34H31.81Z" fill="#231916"/>
<path d="M36.19 32.22C36.3349 32.2067 36.4801 32.2417 36.6031 32.3194C36.7261 32.3972 36.8199 32.5134 36.87 32.65L37.87 34.57H28.61L29.61 32.65C29.6601 32.5134 29.7539 32.3972 29.8769 32.3194C29.9999 32.2417 30.1451 32.2067 30.29 32.22H36.19Z" fill="#F8B500"/>
<path d="M38.4 36.64H36.54C36.1916 36.6015 35.8399 36.6722 35.5336 36.8424C35.2272 37.0126 34.9814 37.2739 34.83 37.59L33.43 40.41C33.08 40.4642 32.7591 40.6367 32.5208 40.8987C32.2824 41.1607 32.141 41.4964 32.12 41.85V45.34H33.49C33.49 45.34 33.49 46.25 33.49 46.54C33.5341 46.8118 33.6736 47.0591 33.8834 47.2376C34.0931 47.4161 34.3596 47.514 34.635 47.514C34.9104 47.514 35.1769 47.4161 35.3867 47.2376C35.5964 47.0591 35.7358 46.8118 35.78 46.54V45.34H44.31V46.54C44.3541 46.8118 44.4936 47.0591 44.7034 47.2376C44.9131 47.4161 45.1796 47.514 45.455 47.514C45.7304 47.514 45.9968 47.4161 46.2066 47.2376C46.4164 47.0591 46.5558 46.8118 46.6 46.54C46.6 46.25 46.6 45.34 46.6 45.34H47.97V41.85C47.9472 41.497 47.8052 41.1622 47.5672 40.9006C47.3292 40.6389 47.0092 40.4659 46.66 40.41L45.26 37.59C45.1058 37.274 44.8578 37.0133 44.55 36.8433C44.2423 36.6733 43.8896 36.6023 43.54 36.64H38.47H38.4Z" fill="#231916"/>
<path d="M43.42 37.65C43.5846 37.6338 43.75 37.6733 43.8895 37.7622C44.0291 37.851 44.1349 37.984 44.19 38.14C44.38 38.51 45.29 40.34 45.29 40.34H34.73L35.83 38.14C35.8851 37.984 35.9909 37.851 36.1304 37.7622C36.27 37.6733 36.4353 37.6338 36.6 37.65H43.42Z" fill="#F8B500"/>
<path d="M44.31 41.1H42.23C41.8402 41.0609 41.4477 41.1414 41.1048 41.3307C40.7618 41.5201 40.4846 41.8093 40.31 42.16C40.1 42.6 38.74 45.33 38.74 45.33C38.3474 45.3929 37.9879 45.5875 37.7207 45.882C37.4535 46.1765 37.2946 46.5531 37.27 46.95V50.87H38.81C38.81 50.87 38.81 51.8699 38.81 52.2099C38.8634 52.5106 39.0209 52.7829 39.2549 52.9791C39.489 53.1753 39.7846 53.2828 40.09 53.2828C40.3954 53.2828 40.691 53.1753 40.925 52.9791C41.1591 52.7829 41.3166 52.5106 41.37 52.2099V50.87H50.91V52.2099C50.9633 52.5106 51.1209 52.7829 51.3549 52.9791C51.589 53.1753 51.8846 53.2828 52.19 53.2828C52.4954 53.2828 52.791 53.1753 53.0251 52.9791C53.2591 52.7829 53.4166 52.5106 53.47 52.2099C53.47 51.8799 53.47 50.87 53.47 50.87H55.01V46.95C54.9873 46.5526 54.8289 46.1749 54.5614 45.8801C54.2939 45.5852 53.9334 45.3911 53.54 45.33C53.54 45.33 52.18 42.6 51.97 42.16C51.7953 41.8093 51.5181 41.5201 51.1752 41.3307C50.8322 41.1414 50.4398 41.0609 50.05 41.1H44.31Z" fill="#231916"/>
<path d="M49.92 42.23C50.1041 42.2128 50.2888 42.2575 50.4446 42.3571C50.6004 42.4568 50.7184 42.6056 50.78 42.78L52.01 45.25H40.17L41.4 42.78C41.4649 42.6058 41.5852 42.4577 41.7423 42.3584C41.8994 42.259 42.0848 42.2139 42.27 42.23H49.92Z" fill="#F8B500"/>
</g>
<defs>
<clipPath id="clip0_8063_6682">
<rect width="74.57" height="65.82" fill="white"/>
</clipPath>
</defs>
</svg>
