<svg width="77" height="30" viewBox="0 0 77 30" fill="none" xmlns="http://www.w3.org/2000/svg">
<g clip-path="url(#clip0_8063_7613)">
<path d="M5.85001 28.87C4.37066 28.8622 2.95385 28.2723 1.90591 27.2281C0.857976 26.184 0.263148 24.7692 0.250031 23.2899" stroke="#231916" stroke-width="0.49"/>
<path d="M0.240002 23.29V5.82996" stroke="#231916" stroke-width="0.49"/>
<path d="M0.220001 5.81995C0.233119 4.34064 0.827947 2.92597 1.87589 1.88177C2.92382 0.837579 4.34063 0.247815 5.81998 0.23999" stroke="#231916" stroke-width="0.49"/>
<path d="M5.85 0.23999H70.54" stroke="#231916" stroke-width="0.49"/>
<path d="M70.55 0.219971C72.0294 0.227795 73.4462 0.81756 74.4941 1.86176C75.542 2.90595 76.1369 4.32068 76.15 5.79999" stroke="#231916" stroke-width="0.49"/>
<path d="M76.15 5.82996V23.29" stroke="#231916" stroke-width="0.49"/>
<path d="M76.15 23.2899C76.1395 24.77 75.5455 26.1863 74.497 27.2311C73.4485 28.2758 72.0302 28.8648 70.55 28.87" stroke="#231916" stroke-width="0.49"/>
<path d="M70.54 28.87H5.85" stroke="#231916" stroke-width="0.49"/>
<path d="M5.84998 26.8199C5.38812 26.8129 4.93216 26.7147 4.50831 26.5311C4.08445 26.3475 3.701 26.0821 3.37995 25.75C3.05813 25.427 2.80397 25.0431 2.63227 24.6207C2.46057 24.1983 2.37476 23.7458 2.37995 23.2899" stroke="#231916" stroke-width="0.49"/>
<path d="M2.37 23.29V5.82996" stroke="#231916" stroke-width="0.49"/>
<path d="M2.37002 5.81996C2.36736 5.36268 2.4556 4.90944 2.62967 4.48658C2.80373 4.06372 3.06013 3.6797 3.38394 3.35682C3.70775 3.03394 4.09254 2.77863 4.5159 2.60578C4.93926 2.43293 5.39274 2.346 5.85 2.34998" stroke="#231916" stroke-width="0.49"/>
<path d="M5.85 2.35999H70.54" stroke="#231916" stroke-width="0.49"/>
<path d="M70.55 2.34998C71.4692 2.36401 72.35 2.72061 73.02 3.34998C73.6669 4.00864 74.0265 4.89676 74.02 5.81995" stroke="#231916" stroke-width="0.49"/>
<path d="M74.03 5.82996V23.29" stroke="#231916" stroke-width="0.49"/>
<path d="M74.03 23.2899C74.0352 23.7458 73.9494 24.1983 73.7777 24.6207C73.606 25.0431 73.3518 25.427 73.03 25.75C72.368 26.4009 71.4876 26.7822 70.56 26.8199" stroke="#231916" stroke-width="0.49"/>
<path d="M70.54 26.8199H5.85" stroke="#231916" stroke-width="0.49"/>
<path d="M10.16 9.30005C10.5461 9.28816 10.9267 9.3936 11.2516 9.60248C11.5765 9.81136 11.8305 10.1138 11.98 10.47C12.7802 12.9163 12.7802 15.5538 11.98 18.0001C11.8208 18.3491 11.5645 18.6449 11.2418 18.8524C10.9191 19.0598 10.5436 19.17 10.16 19.17V17.7C10.3558 17.6563 10.5339 17.5547 10.6712 17.4085C10.8085 17.2623 10.8987 17.0782 10.93 16.8801C11.133 16.0123 11.2104 15.1198 11.16 14.23C11.2053 13.3238 11.128 12.4156 10.93 11.53C10.8 11 10.51 10.76 10.16 10.76M8.26998 10.47C8.43394 10.1099 8.70107 9.80653 9.0375 9.59827C9.37393 9.39 9.76456 9.28624 10.16 9.30005V10.76C9.73999 10.76 9.44998 11 9.32998 11.53C9.12852 12.415 9.05113 13.3237 9.1 14.23C9.04957 15.1198 9.127 16.0123 9.32998 16.8801C9.44998 17.4101 9.73999 17.7 10.16 17.7V19.22C9.76456 19.2338 9.37393 19.1301 9.0375 18.9218C8.70107 18.7135 8.43394 18.4101 8.26998 18.05C7.48345 15.6016 7.48345 12.9684 8.26998 10.52" fill="#231916"/>
<path d="M18.22 18.11C18.0124 18.4499 17.7171 18.7276 17.3653 18.9141C17.0134 19.1006 16.6178 19.1889 16.22 19.17V17.7C16.3871 17.7006 16.5503 17.6502 16.6879 17.5555C16.8255 17.4608 16.9309 17.3262 16.99 17.17C17.1605 16.8654 17.2403 16.5184 17.22 16.17C17.245 15.8211 17.1649 15.4729 16.99 15.17C16.9287 15.0197 16.8208 14.893 16.6823 14.8084C16.5437 14.7238 16.3817 14.6858 16.22 14.7V13.29C16.3492 13.2917 16.4766 13.2605 16.5904 13.1993C16.7041 13.138 16.8003 13.0488 16.87 12.94C17.0241 12.6506 17.1046 12.3279 17.1046 12.0001C17.1046 11.6722 17.0241 11.3494 16.87 11.06C16.7975 10.9722 16.7077 10.9003 16.6062 10.8487C16.5047 10.7971 16.3937 10.7669 16.28 10.76H16.22V9.30004C16.5305 9.28033 16.8413 9.33331 17.1278 9.45483C17.4142 9.57634 17.6684 9.76307 17.87 10.0001C18.2669 10.5225 18.4749 11.1641 18.46 11.82C18.4473 12.2231 18.3696 12.6216 18.23 13.0001C18.1142 13.3233 17.9097 13.6074 17.64 13.82C17.9563 14.0316 18.217 14.3163 18.4 14.65C18.5924 15.1149 18.6745 15.6181 18.64 16.12C18.6437 16.8145 18.4827 17.4999 18.17 18.12M16.17 19.18C15.7826 19.2212 15.3912 19.1554 15.0385 18.9897C14.6859 18.8239 14.3855 18.5647 14.17 18.24C13.8081 17.6593 13.6271 16.9839 13.65 16.3C13.5931 15.9035 13.6308 15.4992 13.76 15.12C13.9314 14.6014 14.2872 14.1637 14.76 13.89C14.4546 13.7284 14.2223 13.4567 14.11 13.13C13.9504 12.7361 13.8689 12.315 13.87 11.89C13.8617 11.1885 14.0907 10.5049 14.52 9.95C14.7292 9.7402 14.979 9.57524 15.2541 9.4652C15.5291 9.35516 15.8238 9.3024 16.12 9.31005V10.77C15.9877 10.7706 15.8568 10.7974 15.735 10.8489C15.6131 10.9004 15.5026 10.9755 15.41 11.07C15.2522 11.3473 15.1692 11.661 15.1692 11.98C15.1692 12.2991 15.2522 12.6127 15.41 12.89C15.4786 13.0175 15.5814 13.1234 15.7068 13.1959C15.8321 13.2683 15.9753 13.3043 16.12 13.3V14.71C15.9938 14.702 15.8676 14.7251 15.7525 14.7775C15.6374 14.8298 15.5369 14.9097 15.46 15.01C15.2322 15.3694 15.1467 15.8009 15.22 16.22C15.1956 16.5973 15.3015 16.9716 15.52 17.2801C15.5896 17.422 15.6979 17.5413 15.8323 17.6244C15.9667 17.7076 16.1219 17.7512 16.28 17.7501L16.17 19.18Z" fill="#231916"/>
<path d="M21.78 12.82H20.3V10.88H21.78M21.78 17.58H20.3V15.71H21.78V17.58Z" fill="#231916"/>
<path d="M25.9 9.30005C26.2954 9.28624 26.686 9.39 27.0225 9.59827C27.3589 9.80653 27.626 10.1099 27.79 10.47C28.5765 12.9184 28.5765 15.5517 27.79 18.0001C27.6198 18.3554 27.3513 18.6545 27.0163 18.8619C26.6813 19.0692 26.2939 19.1761 25.9 19.17V17.7C26.32 17.64 26.55 17.4101 26.73 16.8801C26.9018 16.0076 26.9789 15.1191 26.96 14.23C26.9741 13.3246 26.8971 12.42 26.73 11.53C26.55 11 26.32 10.76 25.9 10.76M24.02 10.47C24.1833 10.1115 24.4488 9.80928 24.7833 9.60113C25.1177 9.39299 25.5062 9.28824 25.9 9.30005V10.76C25.49 10.76 25.25 11 25.08 11.53C24.9285 12.4216 24.8682 13.3263 24.9 14.23C24.867 15.1172 24.9274 16.0055 25.08 16.8801C25.25 17.4101 25.49 17.7 25.9 17.7V19.22C25.5062 19.2318 25.1177 19.1272 24.7833 18.919C24.4488 18.7109 24.1833 18.4085 24.02 18.05C23.2198 15.6038 23.2198 12.9662 24.02 10.52" fill="#231916"/>
<path d="M31.98 9.30005C32.3661 9.28816 32.7467 9.3936 33.0716 9.60248C33.3965 9.81136 33.6505 10.1138 33.8 10.47C34.6799 12.9029 34.6799 15.5672 33.8 18.0001C33.6505 18.3562 33.3965 18.6587 33.0716 18.8676C32.7467 19.0765 32.3661 19.1819 31.98 19.17V17.7C32.39 17.64 32.63 17.4101 32.8 16.8801C32.9869 16.0097 33.0675 15.1198 33.04 14.23C33.0622 13.3239 32.9817 12.4181 32.8 11.53C32.63 11 32.39 10.76 31.98 10.76M30.09 10.47C30.254 10.1099 30.5211 9.80653 30.8575 9.59827C31.1939 9.39 31.5846 9.28624 31.98 9.30005V10.76C31.57 10.76 31.33 11 31.15 11.53C31.0035 12.4221 30.9465 13.3266 30.98 14.23C30.9454 15.1169 31.0023 16.0049 31.15 16.8801C31.33 17.4101 31.57 17.7 31.98 17.7V19.22C31.5846 19.2338 31.1939 19.1301 30.8575 18.9218C30.5211 18.7135 30.254 18.4101 30.09 18.05C29.3035 15.6016 29.3035 12.9684 30.09 10.52" fill="#231916"/>
<path d="M40.47 13.12C40.3896 13.4305 40.2273 13.7137 40 13.94C39.7794 14.0992 39.5119 14.1802 39.24 14.17C39.0533 14.1517 38.8726 14.0937 38.71 14C38.5757 13.8359 38.4132 13.697 38.23 13.59L38.06 13.41C37.9359 13.2636 37.7673 13.1618 37.58 13.12C37.4428 13.018 37.2802 12.9556 37.11 12.94C36.9547 12.9358 36.8003 12.9649 36.6571 13.0252C36.514 13.0856 36.3854 13.1759 36.28 13.29C36.0709 13.5069 35.9106 13.766 35.81 14.05L35.99 15.23C36.0961 14.9769 36.2338 14.7383 36.4 14.52C36.4855 14.4373 36.5878 14.374 36.7 14.3343C36.8121 14.2946 36.9315 14.2795 37.05 14.29C37.1744 14.3025 37.2941 14.3435 37.4 14.41C37.535 14.4649 37.6574 14.5465 37.76 14.65L37.99 14.82C38.1809 15.0096 38.4001 15.1681 38.64 15.2899C38.821 15.4109 39.0255 15.4928 39.24 15.5301C39.3937 15.5274 39.5454 15.4941 39.6861 15.4323C39.8269 15.3705 39.954 15.2814 40.06 15.17C40.3386 14.9661 40.5451 14.6789 40.65 14.35" fill="#231916"/>
<path d="M42.22 12.7C42.1709 12.185 42.2243 11.6654 42.3771 11.1711C42.5298 10.6768 42.7789 10.2176 43.11 9.81999C43.4998 9.47866 44.0019 9.2935 44.52 9.30003C44.8529 9.28708 45.1846 9.34855 45.4909 9.48003C45.7971 9.6115 46.0701 9.80968 46.29 10.06C46.7382 10.7378 46.9652 11.5378 46.9399 12.35C46.9803 13.0291 46.8166 13.7047 46.47 14.29C46.2166 14.7447 45.8769 15.1455 45.47 15.47L45.06 15.8801L44.23 16.7C44.0647 16.8953 43.9298 17.1144 43.83 17.35H46.95V19H42.05C42.045 18.4016 42.1258 17.8055 42.29 17.23C42.5897 16.4238 43.0723 15.6981 43.7 15.11L43.83 15C44.2963 14.5826 44.7278 14.1277 45.12 13.64C45.4068 13.25 45.5514 12.7736 45.53 12.29C45.5572 11.9397 45.4732 11.5898 45.29 11.29C45.2204 11.1481 45.1121 11.0287 44.9777 10.9456C44.8432 10.8625 44.688 10.8189 44.53 10.82C44.3257 10.8252 44.1287 10.8976 43.9697 11.0259C43.8106 11.1543 43.6983 11.3314 43.65 11.53C43.5641 11.9139 43.5238 12.3066 43.53 12.7" fill="#231916"/>
<path d="M50.62 9.29997C51.0037 9.2999 51.3792 9.41015 51.7019 9.6176C52.0246 9.82504 52.2808 10.1209 52.44 10.47C53.2265 12.9183 53.2265 15.5516 52.44 18C52.2808 18.349 52.0246 18.6448 51.7019 18.8523C51.3792 19.0597 51.0037 19.17 50.62 19.1699V17.6999C50.8185 17.6641 50.9999 17.5648 51.137 17.4169C51.2741 17.2689 51.3593 17.0806 51.38 16.88C51.5878 16.0129 51.6687 15.1203 51.62 14.23C51.6629 13.3232 51.5822 12.4149 51.38 11.5299C51.26 10.9999 50.97 10.7599 50.62 10.7599M48.72 10.47C48.8741 10.113 49.132 9.8106 49.4601 9.60197C49.7881 9.39335 50.1714 9.28815 50.56 9.29997H50.62V10.7599H50.56C50.2 10.7599 49.91 10.9999 49.79 11.5299C49.5786 12.4134 49.4977 13.3231 49.55 14.23C49.4962 15.1203 49.5771 16.0138 49.79 16.88C49.91 17.41 50.2 17.6999 50.56 17.6999H50.62V19.22H50.56C50.1714 19.2318 49.7881 19.1266 49.4601 18.9179C49.132 18.7093 48.8741 18.4069 48.72 18.0499C47.8663 15.6125 47.8663 12.9574 48.72 10.5199" fill="#231916"/>
<path d="M56.16 12.82H54.68V10.88H56.16M56.16 17.58H54.68V15.71H56.16V17.58Z" fill="#231916"/>
<path d="M60.29 9.30008C60.6764 9.28678 61.0576 9.39162 61.3828 9.60067C61.708 9.80973 61.9617 10.113 62.11 10.4701C62.9766 12.9053 62.9766 15.5649 62.11 18.0001C61.9617 18.3571 61.708 18.6604 61.3828 18.8695C61.0576 19.0785 60.6764 19.1833 60.29 19.17V17.7C60.7 17.64 60.94 17.4101 61.12 16.8801C61.2867 16.0069 61.3637 15.1189 61.35 14.2301C61.359 13.3248 61.282 12.4207 61.12 11.5301C60.94 11.0001 60.7 10.76 60.29 10.76M58.4 10.4701C58.5702 10.1147 58.8387 9.81562 59.1737 9.60824C59.5087 9.40087 59.8961 9.29394 60.29 9.30008V10.76C59.87 10.76 59.64 11.0001 59.46 11.5301C59.3085 12.4216 59.2482 13.3263 59.28 14.2301C59.2471 15.1173 59.3074 16.0055 59.46 16.8801C59.64 17.4101 59.87 17.7 60.29 17.7V19.2201C59.8961 19.2262 59.5087 19.1192 59.1737 18.9118C58.8387 18.7045 58.5702 18.4054 58.4 18.05C57.6135 15.6016 57.6135 12.9684 58.4 10.52" fill="#231916"/>
<path d="M66.36 9.30005C66.7475 9.2875 67.1297 9.39254 67.4563 9.60138C67.783 9.81021 68.0387 10.1131 68.19 10.47C69.0565 12.9052 69.0565 15.5649 68.19 18.0001C68.0387 18.357 67.783 18.6599 67.4563 18.8687C67.1297 19.0775 66.7475 19.1825 66.36 19.17V17.7C66.77 17.64 67.01 17.4101 67.19 16.8801C67.3667 16.0082 67.4472 15.1195 67.43 14.23C67.4422 13.3242 67.3618 12.4195 67.19 11.53C67.01 11 66.77 10.76 66.36 10.76M64.47 10.47C64.6339 10.1099 64.9011 9.80653 65.2375 9.59827C65.5739 9.39 65.9646 9.28624 66.36 9.30005V10.76C65.95 10.76 65.65 11 65.54 11.53C65.3886 12.4216 65.3283 13.3263 65.36 14.23C65.3271 15.1172 65.3874 16.0055 65.54 16.8801C65.65 17.4101 65.95 17.7 66.36 17.7V19.22C65.9646 19.2338 65.5739 19.1301 65.2375 18.9218C64.9011 18.7135 64.6339 18.4101 64.47 18.05C63.6967 15.5996 63.6967 12.9705 64.47 10.52" fill="#231916"/>
</g>
<defs>
<clipPath id="clip0_8063_7613">
<rect width="76.39" height="29.12" fill="white"/>
</clipPath>
</defs>
</svg>
