<svg width="69" height="68" viewBox="0 0 69 68" fill="none" xmlns="http://www.w3.org/2000/svg">
<g clip-path="url(#clip0_8063_7475)">
<path d="M34.03 67.63C40.6905 67.6082 47.1952 65.6134 52.7227 61.8972C58.2501 58.181 62.5524 52.9102 65.0862 46.7505C67.62 40.5907 68.2717 33.8182 66.959 27.2883C65.6463 20.7584 62.428 14.7639 57.7106 10.0619C52.9933 5.35988 46.9883 2.16114 40.4542 0.869711C33.9201 -0.42172 27.1498 0.252056 20.9983 2.80593C14.8468 5.3598 9.59008 9.67924 5.89192 15.2188C2.19376 20.7583 0.220037 27.2695 0.220001 33.93C0.226562 38.363 1.10636 42.7512 2.80914 46.8441C4.51193 50.937 7.00435 54.6543 10.144 57.7838C13.2837 60.9132 17.0091 63.3935 21.1076 65.083C25.206 66.7724 29.597 67.6379 34.03 67.63Z" stroke="#004899" stroke-width="0.45"/>
<path d="M2.25 33.93C2.22823 27.6379 4.07416 21.4808 7.55402 16.2386C11.0339 10.9963 15.9912 6.90458 21.7981 4.48159C27.605 2.05861 34.0003 1.41336 40.1742 2.62753C46.3481 3.8417 52.0228 6.86065 56.4797 11.3022C60.9367 15.7437 63.9753 21.4079 65.2109 27.5775C66.4464 33.7472 65.8233 40.1448 63.4205 45.96C61.0177 51.7753 56.9431 56.7467 51.713 60.2447C46.4828 63.7427 40.3321 65.61 34.04 65.6101C25.6262 65.6154 17.5538 62.2829 11.5941 56.3437C5.63428 50.4046 2.27383 42.3438 2.25 33.93Z" fill="#004899"/>
<path d="M26.24 15.05C26.24 15.7462 26.0336 16.4268 25.6468 17.0056C25.26 17.5845 24.7102 18.0357 24.067 18.3021C23.4239 18.5685 22.7161 18.6382 22.0333 18.5024C21.3505 18.3666 20.7233 18.0313 20.231 17.539C19.7387 17.0467 19.4035 16.4195 19.2676 15.7367C19.1318 15.0539 19.2015 14.3462 19.468 13.703C19.7344 13.0598 20.1855 12.51 20.7644 12.1232C21.3433 11.7365 22.0238 11.53 22.72 11.53C23.1826 11.5287 23.6409 11.6189 24.0686 11.7953C24.4963 11.9717 24.8848 12.2309 25.212 12.5581C25.5391 12.8852 25.7983 13.2738 25.9747 13.7014C26.1512 14.1291 26.2413 14.5874 26.24 15.05Z" fill="white"/>
<path d="M21.64 30.58V34.22C21.64 34.22 16.13 35.69 20.24 43.96C20.24 43.96 20.83 44.61 19.44 45.49V46.73H15.84V45.73H16.84C16.8999 45.4702 17.0322 45.2327 17.2216 45.045C17.411 44.8574 17.6497 44.7274 17.91 44.6699C17.91 44.6699 13.91 36.6699 16.84 33.8799C17.4493 32.9336 18.2844 32.1535 19.27 31.6099C19.0701 31.5308 18.8989 31.3929 18.7793 31.2143C18.6596 31.0357 18.5971 30.8249 18.6 30.6099" fill="white"/>
<path d="M31.09 28.37C33.09 23.83 26.09 20.61 26.09 20.61H19.33C19.33 20.61 12.33 23.83 14.33 28.37C14.1592 28.3769 13.9917 28.4193 13.8382 28.4945C13.6846 28.5697 13.5485 28.6762 13.4384 28.8069C13.3283 28.9377 13.2467 29.0901 13.1988 29.2542C13.1508 29.4182 13.1376 29.5905 13.16 29.76C13.23 30.76 14.33 30.71 14.33 30.71H16.09C16.09 30.71 16.46 30.71 16.68 30.12H21.97V34.59C21.97 34.59 19.85 35.54 19.92 38.69L20.73 53.2501H21.17V38.7599C21.17 38.7599 21.3 36.7599 22.71 36.7599C24.12 36.7599 24.25 38.7599 24.25 38.7599V53.2501H24.69L25.5 38.69C25.58 35.54 23.44 34.59 23.44 34.59V30.12H28.73C28.95 30.71 29.32 30.71 29.32 30.71H31.08C31.08 30.71 32.18 30.78 32.26 29.76C32.2809 29.59 32.2663 29.4175 32.2171 29.2534C32.168 29.0892 32.0854 28.9371 31.9745 28.8065C31.8637 28.6759 31.727 28.5697 31.573 28.4946C31.419 28.4194 31.2512 28.377 31.08 28.37M28.66 28.88H16.77C15.97 25.22 18.46 24.12 18.46 24.12V28.37H26.97V24.12C26.97 24.12 29.47 25.22 28.66 28.88Z" fill="white"/>
<path d="M23.83 30.5599V34.1899C23.83 34.1899 30.04 36.8199 25.23 47.1899C25.23 47.1899 24.64 47.85 26.04 48.73V49.97H29.63V48.97H28.63C28.5724 48.7092 28.4408 48.4705 28.251 48.2825C28.0613 48.0945 27.8213 47.9651 27.56 47.9099C27.56 47.9099 32.44 41.24 29.75 35.62C29.75 35.62 28.51 32.4099 26.21 31.6199C26.408 31.5393 26.5771 31.4006 26.6948 31.2222C26.8126 31.0437 26.8737 30.8337 26.87 30.6199" fill="white"/>
<path d="M22.68 40.87V58.28" stroke="white" stroke-width="2.4" stroke-linecap="round" stroke-linejoin="round"/>
<path d="M48.57 15.05C48.572 15.749 48.3664 16.4329 47.9793 17.0149C47.5921 17.5969 47.0409 18.051 46.3955 18.3194C45.7501 18.5878 45.0395 18.6585 44.3538 18.5227C43.6681 18.3868 43.0382 18.0504 42.5439 17.5561C42.0497 17.0618 41.7133 16.4319 41.5774 15.7462C41.4415 15.0605 41.5122 14.35 41.7806 13.7045C42.0491 13.0591 42.5031 12.5079 43.0851 12.1207C43.6671 11.7336 44.351 11.5281 45.05 11.53C45.5126 11.5287 45.9709 11.6189 46.3986 11.7953C46.8263 11.9717 47.2148 12.2309 47.542 12.5581C47.8691 12.8852 48.1283 13.2738 48.3048 13.7014C48.4812 14.1291 48.5713 14.5874 48.57 15.05Z" fill="white"/>
<path d="M43.97 30.58V34.22C43.97 34.22 38.46 35.69 42.57 43.96C42.57 43.96 43.16 44.61 41.76 45.49V46.73H38.16V45.73H39.16C39.2169 45.4705 39.347 45.2327 39.5349 45.0448C39.7227 44.8569 39.9605 44.7268 40.22 44.6699C40.22 44.6699 36.22 36.6699 39.16 33.8799C39.7675 32.9356 40.5988 32.1558 41.58 31.6099C41.382 31.5293 41.2129 31.3906 41.0952 31.2122C40.9774 31.0337 40.9163 30.8237 40.92 30.6099" fill="white"/>
<path d="M53.42 28.37C55.42 23.83 48.42 20.61 48.42 20.61H41.67C41.67 20.61 34.67 23.83 36.67 28.37C36.4988 28.377 36.331 28.4194 36.177 28.4946C36.0231 28.5697 35.8863 28.6759 35.7755 28.8065C35.6646 28.9371 35.582 29.0892 35.5329 29.2534C35.4837 29.4175 35.4691 29.59 35.49 29.76C35.56 30.76 36.67 30.71 36.67 30.71H38.43C38.43 30.71 38.8 30.71 39.02 30.12H44.3V34.59C44.3 34.59 42.17 35.54 42.24 38.69L43.05 53.2501H43.5V38.7599C43.5 38.7599 43.63 36.7599 45.04 36.7599C46.45 36.7599 46.58 38.7599 46.58 38.7599V53.2501H47.02L47.83 38.69C47.9 35.54 45.77 34.59 45.77 34.59V30.12H51.06C51.28 30.71 51.65 30.71 51.65 30.71H53.41C53.41 30.71 54.51 30.78 54.58 29.76C54.6008 29.5908 54.5865 29.4191 54.538 29.2556C54.4895 29.0922 54.4078 28.9404 54.298 28.81C54.1882 28.6795 54.0526 28.5731 53.8998 28.4974C53.7471 28.4217 53.5803 28.3783 53.41 28.37M50.98 28.88H39.1C38.29 25.22 40.79 24.12 40.79 24.12V28.37H49.31V24.12C49.31 24.12 51.8 25.22 50.99 28.88" fill="white"/>
<path d="M46.16 30.5599V34.1899C46.16 34.1899 52.36 36.8199 47.55 47.1899C47.55 47.1899 46.96 47.85 48.36 48.73V49.97H51.97V48.97H50.97C50.9131 48.7105 50.783 48.4727 50.5951 48.2848C50.4073 48.0969 50.1695 47.9668 49.91 47.9099C49.91 47.9099 54.78 41.24 52.09 35.62C52.09 35.62 50.85 32.4099 48.55 31.6199C48.748 31.5393 48.9171 31.4006 49.0349 31.2222C49.1526 31.0437 49.2137 30.8337 49.21 30.6199" fill="white"/>
<path d="M45.01 40.87V58.28" stroke="white" stroke-width="2.4" stroke-linecap="round" stroke-linejoin="round"/>
</g>
<defs>
<clipPath id="clip0_8063_7475">
<rect width="68.07" height="67.85" fill="white"/>
</clipPath>
</defs>
</svg>
