<svg width="69" height="68" viewBox="0 0 69 68" fill="none" xmlns="http://www.w3.org/2000/svg">
<g clip-path="url(#clip0_8063_7084)">
<path d="M20.01 8.69C21.53 9.23 20.88 8.63 22.01 9.5C23.14 10.37 23.01 10.43 22.55 12C22.28 12.81 21.63 12.92 21.46 13.41C21.35 13.63 21.57 14.06 21.46 14.22C22.3992 14.9625 23.2424 15.8192 23.97 16.77C24.97 18.51 24.73 20.89 25.65 22.85C25.93 23.61 26.91 24.37 27.29 25.13C27.61 25.67 27.61 26.6 28.15 26.76C28.69 26.92 29.08 26.6 29.52 26.76C29.35 27.25 29.9 27.03 30.12 27.03C30.18 26.16 30.34 25.24 30.39 24.03L30.93 23.76C31.7 23.65 32.93 22.51 33.71 24.03C34.26 25.03 33.55 26.03 33.71 27.03C33.87 28.03 36.33 30.88 36.55 32.03C36.81 33.77 35.62 34.15 35.67 34.03C35.67 34.03 34.91 33.98 35.4 33.76C35.18 33.17 34.86 32.56 34.58 31.76H33.98C34.0597 32.5881 34.0597 33.4219 33.98 34.25L33.44 34.79C33.2757 35.8265 33.3684 36.8876 33.71 37.88C33.77 37.99 34.53 38.32 34.58 38.43C34.69 38.75 34.42 39.19 34.58 39.52C34.0334 39.3603 33.4691 39.2696 32.9 39.25C32.4407 37.8962 32.1649 36.487 32.08 35.06H31.21C31.21 35.06 30.99 39.06 30.93 39.52C30.4531 39.5933 29.9819 39.7002 29.52 39.84C29.7114 38.4532 29.7114 37.0467 29.52 35.66C29.46 35.23 28.52 34.47 28.43 33.98C28.21 32.73 28.81 31.48 28.97 30.08C28.26 29.64 26.36 28.88 25.97 28.08C25.64 27.53 25.91 27.08 25.69 26.4C25.2115 25.4296 24.6494 24.5028 24.01 23.63C23.68 23.14 22.86 22.38 22.59 21.95C23.1157 23.2731 23.3046 24.7059 23.14 26.12L22.59 26.94C22.43 28.57 23.03 29.66 22.86 31.44C22.5961 32.4167 22.5047 33.4319 22.59 34.44C22.64 34.55 23.3 35.31 23.46 35.58C23.03 36.12 22.46 37.27 21.78 37.48C21.39 37.65 20.96 37.37 20.63 37.48C20.36 35.2 19.98 31.94 19.81 29.72L19.27 30.8H19.54C19.33 32 19.05 33.04 18.94 33.9C18.83 34.76 19.05 35.53 18.94 36.39L18.4 37.8C18.34 38.35 18.73 39 18.67 39.17C18.61 39.34 17.58 40.03 17.58 40.03C17.0828 39.588 16.612 39.1172 16.17 38.62C16.0503 38.2095 16.0654 37.7714 16.213 37.3701C16.3605 36.9687 16.6329 36.6252 16.99 36.39C17.1004 35.7279 17.1004 35.0521 16.99 34.39L16.44 32.71C16.22 30.22 16.93 29.62 16.44 26.85C16.28 26.09 15.57 25.06 15.62 23.85C15.8932 22.5232 16.2574 21.2168 16.71 19.94C16.71 19.94 16.11 19.73 15.89 19.67C15.46 21.03 14.81 22.17 14.48 23.58C14.3166 24.4947 14.2263 25.4209 14.21 26.35L13.12 26.89C12.95 26.83 12.57 26.4 12.25 26.35C13.25 22.66 13.44 18.75 15.35 16.04C16.06 15.04 18.23 14.35 18.67 13.27C19.67 10.66 17.26 11.21 20.09 8.54999" fill="white"/>
<path d="M49.1 46.43C48.6303 46.4322 48.163 46.496 47.71 46.62L46.84 44.71C46.8015 44.5896 46.7252 44.4848 46.6226 44.411C46.52 44.3371 46.3964 44.2983 46.27 44.3H38L39.3 41.6H41.5C41.5394 41.6 41.5784 41.5922 41.6148 41.5772C41.6512 41.5621 41.6843 41.54 41.7121 41.5121C41.74 41.4843 41.7621 41.4512 41.7772 41.4148C41.7922 41.3784 41.8 41.3394 41.8 41.3V40.37C41.8 40.2895 41.7687 40.2121 41.7127 40.1542C41.6568 40.0964 41.5805 40.0626 41.5 40.06H38.75C38.629 40.0516 38.5082 40.0795 38.4031 40.14C38.2981 40.2006 38.2134 40.2911 38.16 40.4L35.2 46.43V46.49C34.6996 46.3442 34.1811 46.2702 33.66 46.27C32.3877 46.2725 31.1589 46.7326 30.1978 47.5662C29.2367 48.3998 28.6075 49.5514 28.4252 50.8105C28.2429 52.0696 28.5196 53.3523 29.2048 54.4243C29.8899 55.4963 30.9379 56.2861 32.1571 56.6494C33.3764 57.0126 34.6857 56.9251 35.8458 56.403C37.006 55.8808 37.9396 54.9587 38.4761 53.8051C39.0127 52.6515 39.1164 51.3435 38.7682 50.1198C38.4201 48.8961 37.6434 47.8384 36.58 47.14L37.22 45.81H45.63L46.28 47.26C45.1975 47.9389 44.3968 48.986 44.0251 50.2085C43.6535 51.431 43.736 52.7466 44.2575 53.9131C44.779 55.0796 45.7043 56.0184 46.8631 56.5567C48.022 57.095 49.3363 57.1966 50.564 56.8427C51.7918 56.4887 52.8503 55.7032 53.5448 54.6307C54.2393 53.5581 54.5229 52.2708 54.3435 51.0057C54.1641 49.7407 53.5336 48.583 52.5683 47.7459C51.603 46.9087 50.3677 46.4486 49.09 46.45M37.48 51.6C37.4926 52.4151 37.2494 53.2138 36.7846 53.8835C36.3198 54.5533 35.6568 55.0606 34.8888 55.3341C34.1208 55.6076 33.2864 55.6336 32.5029 55.4083C31.7194 55.1831 31.0262 54.7179 30.5207 54.0783C30.0152 53.4387 29.7228 52.6568 29.6847 51.8424C29.6466 51.0281 29.8646 50.2222 30.3082 49.5382C30.7518 48.8542 31.3985 48.3264 32.1576 48.0289C32.9166 47.7315 33.7498 47.6794 34.54 47.88L32.93 51.31C32.8532 51.4925 32.8487 51.6974 32.9175 51.8831C32.9862 52.0688 33.1229 52.2214 33.3 52.31C33.4822 52.3893 33.688 52.3951 33.8744 52.3261C34.0608 52.2572 34.2133 52.1188 34.3 51.94L35.91 48.51C36.386 48.8661 36.7729 49.3278 37.0401 49.8588C37.3074 50.3898 37.4477 50.9756 37.45 51.57M49.06 55.57C48.2362 55.581 47.4308 55.326 46.7634 54.843C46.096 54.36 45.6021 53.6746 45.3551 52.8887C45.1081 52.1027 45.1211 51.258 45.3922 50.48C45.6633 49.7021 46.178 49.0323 46.86 48.57L48.45 52.05C48.5335 52.237 48.6879 52.3831 48.8792 52.4562C49.0705 52.5294 49.283 52.5235 49.47 52.44C49.657 52.3565 49.8031 52.202 49.8762 52.0107C49.9494 51.8195 49.9435 51.607 49.86 51.42L48.28 47.96C48.536 47.9033 48.7978 47.8764 49.06 47.88C49.563 47.88 50.061 47.979 50.5257 48.1715C50.9903 48.364 51.4126 48.6461 51.7682 49.0018C52.1239 49.3574 52.406 49.7796 52.5985 50.2443C52.7909 50.709 52.89 51.2071 52.89 51.71C52.89 52.213 52.7909 52.711 52.5985 53.1757C52.406 53.6403 52.1239 54.0626 51.7682 54.4182C51.4126 54.7739 50.9903 55.056 50.5257 55.2485C50.061 55.441 49.563 55.54 49.06 55.54" fill="white"/>
<path d="M48.49 42.17H44.07C43.9524 42.1983 43.8459 42.261 43.764 42.35C43.682 42.4391 43.6284 42.5504 43.61 42.67C43.5995 42.7951 43.6299 42.9203 43.6966 43.0267C43.7633 43.1331 43.8628 43.215 43.98 43.26L46.78 43.63C46.9866 43.6506 47.1952 43.6297 47.3936 43.5687C47.592 43.5076 47.7763 43.4076 47.9356 43.2744C48.0948 43.1412 48.2259 42.9776 48.3211 42.7931C48.4163 42.6086 48.4737 42.407 48.49 42.2" fill="white"/>
<path d="M32.91 67.7C39.5776 67.9115 46.1584 66.1422 51.8211 62.6157C57.4838 59.0892 61.9743 53.9637 64.7257 47.8865C67.477 41.8093 68.3656 35.0531 67.2794 28.4712C66.1931 21.8892 63.1806 15.7768 58.6224 10.906C54.0642 6.03517 48.1648 2.62442 41.6693 1.10454C35.1737 -0.415342 28.3735 0.0238791 22.1274 2.36662C15.8813 4.70936 10.4696 8.85054 6.57574 14.2672C2.68192 19.6839 0.480689 26.133 0.250029 32.8C0.101814 37.2363 0.829136 41.6584 2.39044 45.8135C3.95174 49.9687 6.31642 53.7755 9.34939 57.0165C12.3824 60.2575 16.0242 62.8691 20.0668 64.7023C24.1094 66.5354 28.4736 67.554 32.91 67.7Z" stroke="#004A9C" stroke-width="0.45"/>
<path d="M2.27 32.87C2.46972 26.5737 4.53319 20.4783 8.19917 15.3555C11.8652 10.2327 16.9688 6.31283 22.8638 4.09226C28.7589 1.8717 35.1803 1.45031 41.315 2.88139C47.4497 4.31247 53.0219 7.53168 57.3259 12.1314C61.63 16.7312 64.4724 22.5047 65.4932 28.7208C66.5141 34.937 65.6676 41.3163 63.0607 47.051C60.4539 52.7857 56.2041 57.618 50.8493 60.936C45.4945 64.2539 39.2756 65.9085 32.98 65.69C24.5597 65.3978 16.5987 61.7789 10.8421 55.6268C5.08547 49.4747 2.00288 41.2911 2.27 32.87Z" fill="#004A9C"/>
<path d="M38.62 35.99L38.91 35.98L39.02 35.92L39.17 35.76L39.24 35.6L39.2 35.38L39.05 35.28L38.88 35.16L38.7 35L38.57 34.67L38.58 34.05L38.63 33.41L38.65 32.06L38.63 31.55L38.73 31.29L38.78 31.14L39.16 31.07L39.49 31.01L39.82 30.82L40.01 30.66L40.15 30.39L40.21 30.04L40.15 29.83L40.09 29.62L39.63 28.8L39.35 28.37L39.07 27.74L38.98 27.26L38.97 26.54L39 26.33L39.11 26.2L39.26 26.27L39.42 26.66L39.52 27.02L39.54 27.34L39.63 27.78L39.71 28.24L39.92 28.6L40.07 28.5L40.25 28.24L40.42 27.85L40.43 27.46L40.44 27.11L40.46 26.76L40.47 26.43L40.5 25.67L40.39 25L40.06 24.27L39.67 23.69L39.05 22.99L38.72 22.57L38.49 22.17L38.38 21.75L38.27 21.07L38.22 20.53L38.2 20.19L38.15 19.93L38.06 19.73L37.85 19.56L37.62 19.48L37.38 19.42H37.17L36.95 19.41H36.77L36.48 19.39L36.21 19.43L35.93 19.53L35.8 19.62L35.63 19.74L35.44 19.89L35.29 20.17L35.26 20.48L35.24 20.77L35.27 21.07L35.32 21.49L35.42 21.74L35.59 22.08L35.66 22.4L35.57 22.79L35.46 22.94L35.16 23.09L34.98 23.13L34.44 23.19L33.99 23.17L33.37 22.91L32.78 22.44L32.1 21.66L31.56 20.96L31.2 20.36L31.03 19.95L30.76 19.33L30.69 19.11L30.53 18.7L30.42 18.31L30.35 17.93L30.24 17.28L30.09 16.82L29.93 16.36L29.69 15.84L29.25 15.2L28.8 14.81L28.36 14.48L27.97 14.21L27.2 13.82L26.76 13.6L26.12 13.42L26.07 13.27L26.12 12.99L26.22 12.78L26.51 12.55L26.92 12.24L27.27 11.92L27.48 11.69L27.64 11.26L27.65 10.92L27.66 10.75L27.67 10.32V9.80002L27.56 9.55002L27.43 9.32002L27.25 9.07002L27.02 8.79002L26.65 8.52002L26.42 8.36002L26.02 8.15002L25.7 8.07002L25.4 7.98002L24.93 7.96002H24.64L24.33 8.06002L24.01 8.26002L23.73 8.56002L23.52 8.91002L23.38 9.31002L23.29 9.77002L23.38 10.3L23.48 10.74L23.56 11.01L23.65 11.28L23.91 11.6L24.09 11.82L24.3 12.24L24.4 12.57L24.35 12.87L24.22 13.24L23.84 13.58L23.25 13.97L22.29 14.73L21.42 15.74L20.72 16.68L20.27 17.62L20.05 18.04L19.81 18.61L19.6 19.39L19.51 20.58V21.91L19.49 22.57L19.46 23.48L19.75 24.3L20.03 24.58L20.63 24.68L21.23 24.45L21.61 23.82L21.52 23.11L21.31 22.58L21.26 21.89L21.29 21.21L21.58 20.33L21.95 19.57L22.27 19.05L22.48 18.41L22.62 17.92L22.81 17.61L23.14 17.6L23.3 17.95L23.44 18.77L23.45 19.32L23.38 20.08L23.26 20.96L23.15 21.61L23.04 22.01L22.91 22.58L22.79 23.11L22.68 23.65L22.63 24.12L22.58 24.67L22.6 25.2L22.58 25.63L22.63 26.18L22.77 26.74L22.84 27.09L22.89 27.41L22.99 27.95L23.08 28.47L23.12 29.24L23.13 29.44L23.18 30.03L23.19 30.86L23.26 31.66L23.25 32.27L23.24 32.87L23.4 34.82L23.29 38.03L23.54 38.87L23.86 39.33L24.4 39.68L25.27 39.7L25.73 39.61L26.14 39.36L26.49 39.16L26.71 38.94L26.87 38.62L26.85 38.23L26.54 37.78L26.06 37.27L25.72 36.94L25.73 33.12L25.84 31.67L25.89 30.69L25.91 30.24L25.93 29.91L25.98 29.46V29.22L26.14 28.98L26.24 29.18L26.41 29.57L26.44 29.77L26.48 30.43L26.56 31.18L26.63 31.77L26.75 32.25L26.92 32.92L27.05 33.64L27.16 34.05L27.56 35.15L27.91 36.14L28.08 36.7L28.58 37L28.97 37.13L29.37 37.12L29.86 37.04L30.14 36.88L30.38 36.59L30.54 36.37L30.68 36.12L30.76 35.75L30.74 35.38L30.63 34.91L30.27 34.21L29.61 33.05L29.01 32L28.85 31.51L28.7 30.98L28.84 27.99L29.03 27.37L29.22 26.7L29.34 25.62L29.3 24.6L29.03 23.52L28.69 22.49L28.44 21.44L28.46 20.76L28.52 20.12L28.63 19.73L29 19.68L29.39 19.9L29.66 20.29L29.93 20.75L30.23 21.43L30.62 22.03L31.13 22.84L31.54 23.41L32.21 24L33.14 24.52L33.7 24.83L34.3 25.08L34.6 25.24L34.77 25.46L34.81 25.7L34.84 25.96L34.8 26.28L34.73 26.66L34.41 27.45L33.97 28.18L33.77 28.81L33.72 29.23V29.56L33.76 29.95L33.93 30.21L34.16 30.58L34.45 30.89L34.7 31.15L35.06 31.47L35.48 31.93L35.59 32.36L35.63 32.58L35.67 33.12L35.65 33.62L35.59 33.85L35.48 34.25L35.39 34.56L35.33 34.77L35.2 35.18L35.08 35.41L34.97 35.64L34.83 35.93L34.78 36.18L34.86 36.38L35.1 36.6L35.44 36.67H35.68L35.84 36.6L36.01 36.44L36.11 36.34L36.42 35.68L36.62 35.01L36.77 34.27L36.82 33.53L36.84 32.74L36.87 32.08L36.85 31.51L37.01 31.5L37.21 31.66L37.27 31.84L37.35 32.04L37.32 32.58L37.41 32.97L37.53 33.3L37.55 33.53V33.94L37.42 34.38L37.35 34.94L37.39 35.24L37.51 35.56L37.6 35.73L37.86 35.92L38.15 35.98L38.35 36.02" fill="white"/>
<path d="M46.63 46.98C46.1222 46.9634 45.6146 47.0138 45.12 47.13L44.25 45.0299V44.95C44.2042 44.8267 44.1226 44.7198 44.0157 44.6432C43.9088 44.5666 43.7815 44.5237 43.65 44.52L34.65 44.2L36.15 41.3399L38.53 41.42C38.5728 41.4227 38.6158 41.4167 38.6563 41.4025C38.6968 41.3883 38.734 41.366 38.7657 41.3371C38.7974 41.3081 38.823 41.2731 38.8409 41.2341C38.8589 41.1951 38.8687 41.1529 38.87 41.11V40.11C38.87 40.0241 38.8366 39.9417 38.7769 39.8801C38.7171 39.8185 38.6358 39.7825 38.55 39.7799L35.6 39.68C35.47 39.6646 35.3384 39.6888 35.2224 39.7495C35.1065 39.8102 35.0115 39.9045 34.95 40.02L31.54 46.51V46.58C31.0052 46.3945 30.4457 46.29 29.88 46.27C28.4985 46.2198 27.145 46.6681 26.0667 47.5331C24.9883 48.398 24.257 49.622 24.0063 50.9815C23.7556 52.341 24.0022 53.7453 24.701 54.938C25.3999 56.1308 26.5044 57.0324 27.8129 57.4783C29.1214 57.9242 30.5466 57.8846 31.8284 57.3668C33.1102 56.849 34.1629 55.8874 34.7945 54.6578C35.4261 53.4281 35.5943 52.0122 35.2686 50.6687C34.9428 49.3253 34.1447 48.1438 33.02 47.3399L33.76 45.94L42.85 46.25L43.51 47.8399C42.3125 48.5337 41.406 49.6367 40.9573 50.9458C40.5087 52.255 40.5481 53.6822 41.0683 54.9646C41.5886 56.247 42.5547 57.2982 43.7886 57.9248C45.0226 58.5513 46.4414 58.711 47.7837 58.3743C49.1261 58.0376 50.3015 57.2273 51.0938 56.0926C51.886 54.9578 52.2416 53.5751 52.095 52.199C51.9485 50.8228 51.3097 49.546 50.2963 48.6035C49.2829 47.661 47.9631 47.1164 46.58 47.07M33.83 52.11C33.8055 52.9363 33.536 53.7367 33.0557 54.4095C32.5754 55.0823 31.906 55.5971 31.1324 55.8886C30.3589 56.1802 29.5161 56.2352 28.7112 56.0468C27.9064 55.8584 27.1757 55.4349 26.6119 54.8303C26.0482 54.2257 25.6768 53.4672 25.5451 52.6511C25.4134 51.835 25.5272 50.9981 25.872 50.2469C26.2169 49.4956 26.7773 48.8638 27.482 48.4317C28.1868 47.9996 29.004 47.7866 29.83 47.82C30.1693 47.825 30.5061 47.8788 30.83 47.98L28.96 51.63C28.9017 51.7284 28.8641 51.8377 28.8496 51.9511C28.835 52.0646 28.8438 52.1799 28.8753 52.2898C28.9069 52.3998 28.9606 52.5021 29.0331 52.5906C29.1056 52.679 29.1955 52.7518 29.2971 52.8043C29.3987 52.8568 29.51 52.888 29.6241 52.896C29.7382 52.904 29.8528 52.8885 29.9607 52.8507C30.0687 52.8128 30.1677 52.7533 30.2519 52.6758C30.336 52.5983 30.4034 52.5044 30.45 52.3999L32.32 48.74C32.8203 49.1445 33.2204 49.6591 33.4893 50.2436C33.7581 50.8282 33.8884 51.4668 33.87 52.11M46.29 56.85C45.4061 56.8227 44.5541 56.5139 43.8581 55.9684C43.1621 55.423 42.6585 54.6695 42.4208 53.8178C42.183 52.9661 42.2235 52.0607 42.5364 51.2337C42.8492 50.4066 43.4181 49.7011 44.16 49.2199L45.74 53.05C45.8263 53.2556 45.99 53.4191 46.1958 53.5052C46.4016 53.5912 46.633 53.593 46.84 53.51C47.0449 53.4257 47.2083 53.2638 47.2944 53.0597C47.3806 52.8555 47.3826 52.6256 47.3 52.42L45.73 48.61C46.007 48.5598 46.2886 48.5397 46.57 48.55C47.6706 48.5871 48.7115 49.0599 49.4635 49.8645C50.2155 50.669 50.6171 51.7393 50.58 52.8399C50.5429 53.9406 50.07 54.9814 49.2655 55.7334C48.4609 56.4855 47.3906 56.8871 46.29 56.85Z" fill="white"/>
<path d="M46.13 42.43L41.34 42.23C41.2114 42.2565 41.0939 42.3213 41.0028 42.4159C40.9118 42.5105 40.8516 42.6305 40.83 42.76C40.8165 42.8946 40.846 43.03 40.9143 43.1468C40.9826 43.2636 41.0861 43.3557 41.21 43.41L44.21 43.91C44.4339 43.9436 44.6623 43.9317 44.8815 43.8749C45.1007 43.818 45.3061 43.7175 45.4855 43.5792C45.6648 43.441 45.8143 43.2679 45.9251 43.0704C46.0359 42.8729 46.1056 42.6551 46.13 42.43Z" fill="white"/>
</g>
<defs>
<clipPath id="clip0_8063_7084">
<rect width="68.17" height="67.95" fill="white"/>
</clipPath>
</defs>
</svg>
