<svg width="44" height="66" viewBox="0 0 44 66" fill="none" xmlns="http://www.w3.org/2000/svg">
<g clip-path="url(#clip0_8063_9314)">
<path d="M43.8002 5.32248C34.8098 13.3095 24.5473 27.1598 16.083 39.8955V33.3001L17.4815 31.038L16.083 31.6315V27.9909L21.95 25.3923C21.95 25.3923 28.5697 16.8908 29.4754 15.8554L16.083 21.6857V18.2231L34.7298 9.56995L37.5135 6.52289C35.0521 5.73905 32.5373 5.13072 29.9882 4.70256L16.9021 11.3837L16.1095 10.2361V3.85173L18.2939 7.26157L25.0601 3.93087C22.1033 3.39305 19.1128 3.05596 16.1095 2.92184V0.178134C26.3054 0.659597 36.7943 2.77672 43.8268 5.29616M16.1095 39.8691C12.1138 45.8379 8.51097 51.5957 5.66066 56.3576V50.0854L8.0981 45.9962L5.66066 46.9988V41.4718L6.4132 42.659L11.974 40.0604L16.1095 33.2276V39.8691ZM5.66066 0.296806C9.13591 0.00617677 12.6274 -0.0422894 16.1095 0.151726V2.89543C15.7366 2.85586 15.5102 2.85582 15.5102 2.85582L16.1095 3.8254V10.2097L11.1815 2.85582C9.34307 2.74046 7.49909 2.74046 5.66066 2.85582V0.296806ZM16.1095 18.1967L14.1117 19.1201L5.654 5.26975V11.0275L13.5124 22.7607L16.1029 21.6131L16.1095 18.1967ZM16.1095 27.9183L9.97607 30.629L5.66066 23.8688V29.4418L9.04371 34.5994L16.1095 31.5589V27.9183ZM5.654 56.4104C3.24322 60.4204 1.31856 63.7642 0.119827 65.9539V1.0751C1.94613 0.707259 3.79483 0.458297 5.654 0.329815V2.85582C5.18464 2.89419 4.71779 2.95807 4.2555 3.04711L5.654 5.30276V11.0605L2.71709 6.68117V19.3047L5.654 23.9215V29.4946L3.35647 26.0057L3.20323 37.7059L5.654 41.5246V47.0515L5.19452 47.2824L3.19664 44.387V54.2801L5.64733 50.1646L5.654 56.4104Z" fill="#F8B500"/>
<path d="M43.8002 5.32247C27.0247 20.2148 5.78056 55.6387 0.0999146 65.9539V1.07508C13.4924 -1.50371 32.8585 1.39162 43.8002 5.32247ZM2.69718 6.70096V19.3245L9.94941 30.6818L21.9367 25.3725C21.9367 25.3725 28.5564 16.871 29.4621 15.8356L13.479 22.8134L2.69718 6.70096ZM4.2355 3.0603L14.0917 19.1728L34.7032 9.59635L37.4869 6.54928C35.0253 5.76618 32.5105 5.15786 29.9616 4.72895L16.8754 11.4101L11.1548 2.90862C8.84939 2.72485 6.53104 2.77345 4.2355 3.0537V3.0603ZM18.2673 7.28796L25.0334 3.95726C21.8756 3.40906 18.686 3.05883 15.4836 2.90862L18.2673 7.28796ZM3.18331 37.6993L6.37987 42.7117L11.9473 40.1131L17.4815 31.0181L9.01713 34.6522L3.33647 26.0123L3.18331 37.6993ZM3.18331 44.387V54.2801L8.07144 46.0754L5.17453 47.3087L3.18331 44.387Z" stroke="#231916" stroke-width="0.31"/>
</g>
<defs>
<clipPath id="clip0_8063_9314">
<rect width="44" height="66" fill="white"/>
</clipPath>
</defs>
</svg>
