<svg width="77" height="30" viewBox="0 0 77 30" fill="none" xmlns="http://www.w3.org/2000/svg">
<g clip-path="url(#clip0_8072_454)">
<path d="M5.79004 28.8701C4.29202 28.8753 2.85323 28.2854 1.79004 27.23C1.27969 26.7101 0.877256 26.0943 0.606079 25.418C0.334902 24.7418 0.200274 24.0185 0.209961 23.29" stroke="#231F20" stroke-width="0.49"/>
<path d="M0.23999 23.2901V5.83008" stroke="#231F20" stroke-width="0.49"/>
<path d="M0.239969 5.82007C0.23182 5.09239 0.368159 4.37029 0.641092 3.69568C0.914025 3.02107 1.31809 2.40738 1.82993 1.89008C2.35424 1.36394 2.97788 0.947123 3.66453 0.66388C4.35118 0.380636 5.08717 0.236581 5.82993 0.240051" stroke="#231F20" stroke-width="0.49"/>
<path d="M5.78998 0.23999H70.48" stroke="#231F20" stroke-width="0.49"/>
<path d="M70.48 0.250053C71.224 0.237421 71.9628 0.377289 72.6508 0.661064C73.3387 0.944838 73.9612 1.36653 74.48 1.90008C75.0031 2.41259 75.4193 3.0239 75.7042 3.69854C75.9892 4.37318 76.1373 5.09772 76.14 5.83007" stroke="#231F20" stroke-width="0.49"/>
<path d="M76.09 5.83008V23.2901" stroke="#231F20" stroke-width="0.49"/>
<path d="M76.09 23.25C76.0768 24.731 75.4806 26.1472 74.4305 27.1917C73.3805 28.2362 71.9611 28.8248 70.48 28.83" stroke="#231F20" stroke-width="0.49"/>
<path d="M70.48 28.8701H5.78998" stroke="#231F20" stroke-width="0.49"/>
<path d="M5.79 26.8201C4.87209 26.7911 4.00106 26.4076 3.35995 25.7501C3.03048 25.4328 2.77134 25.0499 2.59909 24.6262C2.42683 24.2024 2.34531 23.7472 2.35995 23.29" stroke="#231F20" stroke-width="0.49"/>
<path d="M2.31 23.2901V5.83008" stroke="#231F20" stroke-width="0.49"/>
<path d="M2.31 5.81989C2.30365 5.35834 2.39468 4.90065 2.57734 4.47675C2.76 4.05284 3.03011 3.67223 3.36994 3.35986C4.01324 2.72055 4.88303 2.36115 5.78998 2.35986" stroke="#231F20" stroke-width="0.49"/>
<path d="M5.78998 2.36011H70.48" stroke="#231F20" stroke-width="0.49"/>
<path d="M70.48 2.35992C71.4067 2.35452 72.2982 2.71484 72.9609 3.36261C73.6237 4.01038 74.0042 4.89335 74.02 5.81995" stroke="#231F20" stroke-width="0.49"/>
<path d="M74.02 5.83008V23.2901" stroke="#231F20" stroke-width="0.49"/>
<path d="M74.02 23.25C74.0146 23.7097 73.9181 24.1638 73.7362 24.5861C73.5543 25.0083 73.2904 25.3903 72.96 25.71C72.3078 26.3814 71.4158 26.7662 70.48 26.78" stroke="#231F20" stroke-width="0.49"/>
<path d="M70.48 26.8201H5.78998" stroke="#231F20" stroke-width="0.49"/>
<path d="M9.40002 16.2499C10.49 16.1999 11.52 16.1199 12.51 15.9999L12.6 17.1599C11.5213 17.3416 10.4327 17.4585 9.33997 17.5099C8.20997 17.5699 7.02004 17.5899 5.79004 17.5799L5.64001 16.3299C7.06001 16.2499 8.31002 16.2499 9.40002 16.2499ZM11.1 11.0299H6.22998V9.7699H11.1V11.0299ZM9.25 16.7999H7.70007V12.9899H9.25V16.7999ZM12.03 12.0199C12.03 12.3899 12.0301 12.8399 11.9501 13.3499C11.8701 13.8599 11.84 14.3499 11.75 14.9799L10.2001 14.8499C10.3201 14.0399 10.4001 13.3299 10.4301 12.7099C10.4601 12.0899 10.4301 11.4099 10.4301 10.7099V9.80988H12V10.7099C12.04 11.1699 12.04 11.6199 12.03 11.9899V12.0199ZM14.63 19.8799H13.04V8.60986H14.64L14.63 19.8799ZM16.15 14.4698H14.15V13.1599H16.15V14.4698Z" fill="#231F20"/>
<path d="M26.91 15.34H16.64V14.08H26.89L26.91 15.34ZM21.75 11.06C21.3545 11.6579 20.8145 12.1463 20.1801 12.48C19.4233 12.8853 18.6004 13.1528 17.75 13.27L17.1801 12.03C17.8984 11.9579 18.5987 11.7616 19.25 11.45C19.7476 11.2192 20.1856 10.877 20.53 10.45C20.8055 10.0912 20.9564 9.65235 20.96 9.20001V8.83002H22.3V9.20001C22.303 9.86051 22.1116 10.5073 21.75 11.06ZM25.65 19.85H24.09V17.36H17.79V16.13H25.64L25.65 19.85ZM22.54 14.62H20.98V12.62H22.54V14.62ZM22.99 10.44C23.338 10.8674 23.7793 11.2095 24.28 11.44C24.9367 11.7449 25.6397 11.9375 26.36 12.01L25.75 13.25C24.8995 13.1391 24.0762 12.8748 23.3201 12.47C22.6885 12.136 22.1517 11.6475 21.76 11.05C21.4003 10.4821 21.2127 9.82222 21.22 9.15002V8.78003H22.5601V9.15002C22.5593 9.61534 22.7102 10.0682 22.99 10.44Z" fill="#231F20"/>
<path d="M33.08 10.7799H29.58V14.3099H28.01V9.5199H33.08V10.7799ZM31.9501 13.5499C32.6223 13.5016 33.2905 13.4081 33.9501 13.2699L34.12 14.5399C33.4094 14.673 32.6914 14.7631 31.97 14.8099C31.22 14.8599 30.21 14.8899 28.91 14.8899H27.97V13.6199H28.91C30.25 13.6199 31.2501 13.5899 31.9501 13.5499ZM30.77 19.0399H29.2001V15.8799H30.77V19.0399ZM36.89 19.6599H29.2001V18.3899H36.89V19.6599ZM36.49 16.7499H34.92V8.62988H36.49V16.7499ZM38.02 12.9799H36.02V11.6899H38.02V12.9799Z" fill="#231F20"/>
<path d="M48.75 15.34H38.51V14.08H48.75V15.34ZM43.59 11.06C43.1971 11.6602 42.6565 12.1492 42.02 12.48C41.2645 12.8883 40.4411 13.156 39.59 13.27L39.02 12.03C39.7384 11.9579 40.4387 11.7616 41.09 11.45C41.5893 11.222 42.0279 10.8794 42.37 10.45C42.6454 10.0912 42.7965 9.65235 42.8 9.20001V8.83002H44.14V9.20001C44.1578 9.85545 43.9841 10.5018 43.64 11.06H43.59ZM47.5 19.85H45.9301V17.36H39.64V16.13H47.5V19.85ZM44.39 14.62H42.83V12.62H44.39V14.62ZM44.83 10.44C45.178 10.8674 45.6193 11.2095 46.12 11.44C46.7771 11.7435 47.48 11.9361 48.2001 12.01L47.64 13.25C46.7895 13.1391 45.9661 12.8748 45.21 12.47C44.5784 12.136 44.0418 11.6475 43.65 11.05C43.2903 10.4821 43.1027 9.82222 43.11 9.15002V8.78003H44.46V9.15002C44.4411 9.60866 44.5708 10.0611 44.83 10.44Z" fill="#231F20"/>
<path d="M52.91 12.6401C52.6824 13.2638 52.3165 13.8279 51.84 14.2901C51.3317 14.7727 50.7193 15.132 50.05 15.3401L49.26 14.1001C49.8148 13.9246 50.3284 13.639 50.77 13.2601C51.1515 12.9301 51.457 12.5216 51.6659 12.0624C51.8747 11.6033 51.9819 11.1045 51.98 10.6001V9.87012H53.27V10.6001C53.2761 11.2964 53.1541 11.988 52.91 12.6401ZM55.8101 10.6401H49.6901V9.38013H55.8101V10.6401ZM56.67 15.7601C57.1651 15.8906 57.6169 16.1493 57.98 16.5101C58.2745 16.8266 58.4382 17.2428 58.4382 17.6751C58.4382 18.1074 58.2745 18.5237 57.98 18.8401C57.6178 19.2043 57.166 19.4664 56.67 19.6001C56.0192 19.7818 55.3457 19.8693 54.67 19.8601C53.9946 19.8664 53.3215 19.7789 52.67 19.6001C52.1684 19.4661 51.7101 19.2043 51.34 18.8401C51.1867 18.689 51.0661 18.5081 50.9852 18.3087C50.9044 18.1092 50.8652 17.8953 50.87 17.6801C50.8643 17.4642 50.9021 17.2493 50.9811 17.0483C51.0601 16.8473 51.1787 16.6643 51.33 16.5101C51.704 16.1481 52.1659 15.8896 52.67 15.7601C53.322 15.585 53.995 15.5008 54.67 15.5101C55.3347 15.4975 55.9978 15.5783 56.64 15.7501L56.67 15.7601ZM53.85 11.9001C54.0452 12.3272 54.3361 12.7035 54.7001 13.0001C55.1276 13.3436 55.6211 13.5954 56.15 13.7401L55.41 14.9701C54.7871 14.7984 54.2122 14.4854 53.73 14.0552C53.2478 13.6251 52.8714 13.0895 52.63 12.4901C52.3992 11.887 52.2839 11.2458 52.29 10.6001V9.88013H53.5701V10.6001C53.5665 11.0456 53.662 11.4863 53.85 11.8901V11.9001ZM53.41 16.8301C53.1331 16.8735 52.8697 16.9795 52.64 17.1401C52.5577 17.2038 52.4914 17.2857 52.4463 17.3795C52.4012 17.4732 52.3784 17.5761 52.38 17.6801C52.3821 17.7821 52.4065 17.8823 52.4514 17.9739C52.4963 18.0654 52.5607 18.1461 52.64 18.2101C52.8688 18.3743 53.1323 18.4838 53.41 18.5302C53.8186 18.6084 54.234 18.6452 54.65 18.6401C55.066 18.6457 55.4815 18.6089 55.89 18.5302C56.1617 18.484 56.4187 18.3744 56.64 18.2101C56.7165 18.1443 56.7783 18.063 56.8214 17.9717C56.8645 17.8804 56.8878 17.781 56.89 17.6801C56.8913 17.5772 56.8694 17.4752 56.8262 17.3818C56.7829 17.2883 56.7193 17.2058 56.64 17.1401C56.415 16.9777 56.1544 16.8714 55.88 16.8301C55.4744 16.7553 55.0624 16.7218 54.65 16.7301C54.2347 16.7189 53.8194 16.7491 53.41 16.8201V16.8301ZM58.33 15.2901H56.76V8.62012H58.33V15.2901ZM59.85 12.5201H57.85V11.2501H59.85V12.5201Z" fill="#231F20"/>
<path d="M62.48 12.2499H64.9V9.50989H66.4501V17.2499H60.9V9.50989H62.48V12.2499ZM64.9 15.9698V13.4698H62.48V15.9698H64.9ZM69.75 19.8799H68.15V8.60986H69.75V19.8799Z" fill="#231F20"/>
</g>
<defs>
<clipPath id="clip0_8072_454">
<rect width="76.33" height="29.12" fill="white"/>
</clipPath>
</defs>
</svg>
