<svg width="76" height="66" viewBox="0 0 76 66" fill="none" xmlns="http://www.w3.org/2000/svg">
<g clip-path="url(#clip0_8063_6622)">
<path d="M1.13 59.64L34.34 2.63999C36.1 -0.530007 39.34 -0.530007 41.18 2.63999L74.53 59.8C76.48 63.1 74.83 65.62 70.93 65.62H4.85C0.6 65.62 -0.880001 63.15 1.13 59.68" fill="white"/>
<path d="M1.13 59.64L34.34 2.63999C36.1 -0.530007 39.34 -0.530007 41.18 2.63999L74.53 59.8C76.48 63.1 74.83 65.62 70.93 65.62H4.85C0.6 65.58 -0.880001 63.11 1.13 59.64Z" stroke="#D20D18" stroke-width="0.49"/>
<path d="M2.61 60.35L35.53 3.68C36.7 1.62 38.83 1.68 40.01 3.68L73.01 60.47C74.25 62.47 72.95 64.05 70.65 64.05H5.19999C2.60999 64.05 1.48 62.35 2.61 60.35Z" fill="#D20D18"/>
<path d="M37.93 12.91L63.82 57.65H11.57" fill="#F8B500"/>
<path d="M37.93 12.91L63.82 57.65H11.57L37.93 12.91Z" stroke="#D20D18" stroke-width="0.57"/>
<path d="M38.59 33.9C41.35 33.43 41.35 34.25 40.76 36.07C40.29 37.6 39.76 38.84 39.41 40.42C41.77 40.6 44.48 41.13 46.78 41.42C47.25 40.54 48.19 39.19 48.19 39.19L49.43 38.25L49.55 47.25L48.31 46.02C47.8651 45.6364 47.4688 45.1998 47.13 44.72C46.9476 44.4527 46.7506 44.1957 46.54 43.95C44.6 44.26 43.3 44.95 41.18 45.01C40.88 45.08 40.29 45.08 40 45.13C39.88 45.19 39.53 45.19 39.58 45.54C39.82 46.25 39.76 46.54 40 47.13C40.53 48.48 41.59 49.43 42.18 50.72C42.24 50.78 43 51.72 42.36 51.89C41.72 52.06 39.36 52.31 38.36 51.89C37.82 51.66 34.46 47.6 33.99 46.96C33.7 46.6 33.58 45.9 33.16 45.72C32.0979 45.4352 31.0143 45.2379 29.92 45.13C28.62 45.01 25.5 44.43 24.79 43.9C23.79 43.19 23.67 42.6 23.67 42.6C23.73 42.02 24.49 41.72 24.79 41.6C26.7921 40.9461 28.8839 40.6087 30.99 40.6H31.57C32.0986 40.6551 32.6314 40.6551 33.16 40.6C33.58 40.42 33.7 39.54 33.99 39.19C34.05 39.07 34.46 38.89 34.58 38.78C35.41 37.42 36.88 34.13 38.58 33.84" fill="#231916"/>
</g>
<defs>
<clipPath id="clip0_8063_6622">
<rect width="75.62" height="65.82" fill="white"/>
</clipPath>
</defs>
</svg>
