<svg width="67" height="67" viewBox="0 0 67 67" fill="none" xmlns="http://www.w3.org/2000/svg">
<g clip-path="url(#clip0_8072_150)">
<path d="M61.7399 66.3801C62.3711 66.3854 62.9972 66.2661 63.5822 66.0291C64.1673 65.7921 64.6998 65.4421 65.1494 64.999C65.5989 64.556 65.9567 64.0286 66.2022 63.4471C66.4477 62.8656 66.5761 62.2413 66.58 61.6101" stroke="#0054A0" stroke-width="0.45"/>
<path d="M66.58 61.6001V5.06006" stroke="#0054A0" stroke-width="0.45"/>
<path d="M66.58 5.06C66.5774 3.77808 66.0663 2.54956 65.1589 1.64404C64.2515 0.738529 63.0219 0.229978 61.7399 0.22998" stroke="#0054A0" stroke-width="0.45"/>
<path d="M61.74 0.22998H5.02" stroke="#0054A0" stroke-width="0.45"/>
<path d="M5.00999 0.22998C4.37833 0.232601 3.75345 0.35961 3.17088 0.60376C2.58831 0.847909 2.05952 1.20445 1.61473 1.65295C1.16993 2.10146 0.817769 2.63319 0.578472 3.21777C0.339175 3.80236 0.217442 4.42834 0.220074 5.06" stroke="#0054A0" stroke-width="0.45"/>
<path d="M0.230011 5.06006V61.6001" stroke="#0054A0" stroke-width="0.45"/>
<path d="M0.220075 61.6001C0.217404 62.2289 0.339549 62.8521 0.579572 63.4333C0.819595 64.0145 1.17268 64.5424 1.61827 64.9861C2.06386 65.4298 2.59316 65.7806 3.1754 66.0182C3.75763 66.2558 4.38117 66.3754 5.00999 66.3701" stroke="#0054A0" stroke-width="0.45"/>
<path d="M5.02 66.3701H61.74" stroke="#0054A0" stroke-width="0.45"/>
<path d="M60.05 64.4301C61.2533 64.4222 62.4044 63.9379 63.2515 63.0834C64.0986 62.2288 64.5727 61.0734 64.57 59.8701V6.74009C64.57 6.14746 64.4529 5.56068 64.2255 5.01341C63.9981 4.46613 63.6649 3.96913 63.2449 3.551C62.8249 3.13288 62.3265 2.80185 61.7783 2.57688C61.23 2.35192 60.6426 2.23746 60.05 2.24009H6.75995C5.55664 2.23208 4.39918 2.70106 3.54083 3.54441C2.68248 4.38777 2.19319 5.53683 2.17999 6.74009V59.8701C2.1905 61.0797 2.67703 62.2365 3.53424 63.0899C4.39146 63.9434 5.55032 64.4249 6.75995 64.4301" fill="#0054A0"/>
<path d="M12.2 8.58008H7.36V57.9101H12.2V8.58008Z" fill="white"/>
<path d="M59.13 8.58008H54.29V57.9101H59.13V8.58008Z" fill="white"/>
<path d="M29.75 28.26H36.41V31.43H41.55L33.46 38.23L24.99 31.66H29.68" fill="white"/>
<path d="M46.17 12.2701C47.1765 12.3869 48.1032 12.8748 48.769 13.6386C49.4348 14.4024 49.7917 15.3871 49.77 16.4001V22.5901C49.71 23.2401 48.77 23.1301 48.77 23.1301H46.15V17.4901H47.7301C48.1601 17.4901 48.16 17.1 48.16 16.73C48.16 16.36 48.55 14.5001 46.16 14.3901M40.83 12.11H44.97C45.3713 12.1211 45.7701 12.1748 46.16 12.2701V14.3901H45.94C45.45 14.3901 44.14 14.2901 44.14 14.8801V17.0601C44.14 17.0601 44.25 17.4501 44.58 17.4501H46.16V23.0901H44.7399C44.7399 23.0901 43.3799 21.0901 41.3699 21.0901C41.191 21.0625 41.009 21.0625 40.83 21.0901V17.29H42.19C42.57 17.29 42.8501 16.64 42.8501 16.29V14.98C42.8501 14.6 42.3 14.17 41.92 14.17H40.83V12.11ZM35.83 12.11H40.83V14.3401H39.7399C39.0899 14.3401 38.81 15.0401 38.81 15.3401V16.7501C38.81 17.1301 39.3 17.4001 39.57 17.4001H40.83V21.2001C40.2249 21.3625 39.6625 21.6551 39.1823 22.0576C38.7021 22.46 38.3156 22.9626 38.05 23.53H35.82V17.4001H37.13C37.56 17.4001 37.78 16.7501 37.78 16.4001V15.0901C37.7378 14.8706 37.6234 14.6714 37.4548 14.5246C37.2862 14.3778 37.0733 14.2917 36.8501 14.28H35.8501L35.83 12.11ZM30.71 12.11H35.83V14.3401H34.83C34.5717 14.3607 34.3291 14.4726 34.1458 14.6559C33.9626 14.8391 33.8506 15.0817 33.83 15.3401V16.7501C33.83 17.1301 34.3801 17.4001 34.6001 17.4001H35.8501V23.53H30.7301V17.4001H32.09C32.52 17.4001 32.75 16.7501 32.75 16.4001V15.0901C32.7078 14.8706 32.5933 14.6714 32.4248 14.5246C32.2562 14.3778 32.0433 14.2917 31.82 14.28H30.7301L30.71 12.11ZM25.71 12.11H30.71V14.3401H29.71C29.05 14.3401 28.78 15.0401 28.78 15.3401V16.7501C28.78 17.1301 29.32 17.4001 29.55 17.4001H30.7399V23.53H27.91C27.7272 23.0213 27.4459 22.5537 27.0821 22.1539C26.7183 21.7541 26.2792 21.43 25.79 21.2001V17.4001H27.04C27.48 17.4001 27.69 16.7501 27.69 16.4001V15.0901C27.6478 14.8706 27.5333 14.6714 27.3647 14.5246C27.1961 14.3778 26.9832 14.2917 26.76 14.28H25.76L25.71 12.11ZM20.71 12.11H25.71V14.3401H24.78C24.5148 14.3401 24.2605 14.4454 24.073 14.6329C23.8854 14.8205 23.78 15.0749 23.78 15.3401V16.7501C23.78 17.1301 24.33 17.4001 24.54 17.4001H25.69V21.2001C25.3183 21.0127 24.9061 20.92 24.4899 20.9301C23.8152 20.9629 23.162 21.1784 22.6002 21.5536C22.0383 21.9287 21.589 22.4494 21.3 23.0601H20.76V17.53H22.55C22.83 17.53 22.94 17.1401 22.94 17.1401V14.92C22.94 14.33 22.5 14.3301 21.94 14.3301H20.7399L20.71 12.11ZM16.79 22.11V16.85C16.79 15.54 17.4 12.0701 20.44 12.0701H20.71V14.2501H20C18.47 13.9801 18.53 16.2501 18.53 16.6901C18.53 17.1301 18.53 17.4501 18.97 17.4501H20.71V23.0601H17.9899C17.1699 23.0601 16.79 22.7901 16.79 22.1901" fill="white"/>
<path d="M24.5 26.8202C24.9821 26.8182 25.4529 26.6734 25.8529 26.4041C26.2528 26.1348 26.564 25.753 26.7472 25.307C26.9303 24.8609 26.9772 24.3707 26.8819 23.898C26.7867 23.4254 26.5535 22.9915 26.2119 22.6513C25.8703 22.311 25.4354 22.0797 24.9624 21.9864C24.4893 21.893 23.9992 21.9419 23.5539 22.1269C23.1087 22.3118 22.7282 22.6246 22.4605 23.0256C22.1929 23.4266 22.05 23.898 22.05 24.3801C22.0487 24.7018 22.1112 25.0205 22.234 25.3178C22.3568 25.6151 22.5373 25.8851 22.7652 26.112C22.9931 26.339 23.2638 26.5184 23.5616 26.64C23.8594 26.7615 24.1783 26.8228 24.5 26.8202Z" fill="white"/>
<path d="M41.54 26.82C42.0226 26.82 42.4943 26.6769 42.8956 26.4088C43.2969 26.1407 43.6096 25.7595 43.7943 25.3137C43.979 24.8678 44.0272 24.3773 43.9331 23.9039C43.8389 23.4306 43.6066 22.9959 43.2654 22.6546C42.9241 22.3134 42.4894 22.081 42.0161 21.9868C41.5428 21.8927 41.0521 21.941 40.6063 22.1257C40.1604 22.3104 39.7793 22.6231 39.5112 23.0244C39.2431 23.4256 39.1001 23.8974 39.1001 24.38C39.0987 24.7007 39.1609 25.0186 39.2831 25.3153C39.4052 25.6119 39.5849 25.8814 39.8117 26.1082C40.0386 26.3351 40.3081 26.5148 40.6047 26.6369C40.9013 26.7591 41.2192 26.8213 41.54 26.82Z" fill="white"/>
<path d="M46.17 12.2701C47.1765 12.3869 48.1032 12.8748 48.769 13.6386C49.4348 14.4024 49.7917 15.3871 49.77 16.4001V22.5901C49.71 23.2401 48.77 23.1301 48.77 23.1301H46.15V17.4901H47.7301C48.1601 17.4901 48.16 17.1 48.16 16.73C48.16 16.36 48.55 14.5001 46.16 14.3901M40.83 12.11H44.97C45.3713 12.1211 45.7701 12.1748 46.16 12.2701V14.3901H45.94C45.45 14.3901 44.14 14.2901 44.14 14.8801V17.0601C44.14 17.0601 44.25 17.4501 44.58 17.4501H46.16V23.0901H44.7399C44.7399 23.0901 43.3799 21.0901 41.3699 21.0901C41.191 21.0625 41.009 21.0625 40.83 21.0901V17.29H42.19C42.57 17.29 42.8501 16.64 42.8501 16.29V14.98C42.8501 14.6 42.3 14.17 41.92 14.17H40.83V12.11ZM35.83 12.11H40.83V14.3401H39.7399C39.0899 14.3401 38.81 15.0401 38.81 15.3401V16.7501C38.81 17.1301 39.3 17.4001 39.57 17.4001H40.83V21.2001C40.2249 21.3625 39.6625 21.6551 39.1823 22.0576C38.7021 22.46 38.3156 22.9626 38.05 23.53H35.82V17.4001H37.13C37.56 17.4001 37.78 16.7501 37.78 16.4001V15.0901C37.7378 14.8706 37.6234 14.6714 37.4548 14.5246C37.2862 14.3778 37.0733 14.2917 36.8501 14.28H35.8501L35.83 12.11ZM30.71 12.11H35.83V14.3401H34.83C34.5717 14.3607 34.3291 14.4726 34.1458 14.6559C33.9626 14.8391 33.8506 15.0817 33.83 15.3401V16.7501C33.83 17.1301 34.3801 17.4001 34.6001 17.4001H35.8501V23.53H30.7301V17.4001H32.09C32.52 17.4001 32.75 16.7501 32.75 16.4001V15.0901C32.7078 14.8706 32.5933 14.6714 32.4248 14.5246C32.2562 14.3778 32.0433 14.2917 31.82 14.28H30.7301L30.71 12.11ZM25.71 12.11H30.71V14.3401H29.71C29.05 14.3401 28.78 15.0401 28.78 15.3401V16.7501C28.78 17.1301 29.32 17.4001 29.55 17.4001H30.7399V23.53H27.91C27.7272 23.0213 27.4459 22.5537 27.0821 22.1539C26.7183 21.7541 26.2792 21.43 25.79 21.2001V17.4001H27.04C27.48 17.4001 27.69 16.7501 27.69 16.4001V15.0901C27.6478 14.8706 27.5333 14.6714 27.3647 14.5246C27.1961 14.3778 26.9832 14.2917 26.76 14.28H25.76L25.71 12.11ZM20.71 12.11H25.71V14.3401H24.78C24.5148 14.3401 24.2605 14.4454 24.073 14.6329C23.8854 14.8205 23.78 15.0749 23.78 15.3401V16.7501C23.78 17.1301 24.33 17.4001 24.54 17.4001H25.69V21.2001C25.3183 21.0127 24.9061 20.92 24.4899 20.9301C23.8152 20.9629 23.162 21.1784 22.6002 21.5536C22.0383 21.9287 21.589 22.4494 21.3 23.0601H20.76V17.53H22.55C22.83 17.53 22.94 17.1401 22.94 17.1401V14.92C22.94 14.33 22.5 14.3301 21.94 14.3301H20.7399L20.71 12.11ZM16.79 22.11V16.85C16.79 15.54 17.4 12.0701 20.44 12.0701H20.71V14.2501H20C18.47 13.9801 18.53 16.2501 18.53 16.6901C18.53 17.1301 18.53 17.4501 18.97 17.4501H20.71V23.0601H17.9899C17.1699 23.0601 16.79 22.7901 16.79 22.1901" fill="white"/>
<path d="M24.5 26.8202C24.9821 26.8182 25.4529 26.6734 25.8529 26.4041C26.2528 26.1348 26.564 25.753 26.7472 25.307C26.9303 24.8609 26.9772 24.3707 26.8819 23.898C26.7867 23.4254 26.5535 22.9915 26.2119 22.6513C25.8703 22.311 25.4354 22.0797 24.9624 21.9864C24.4893 21.893 23.9992 21.9419 23.5539 22.1269C23.1087 22.3118 22.7282 22.6246 22.4605 23.0256C22.1929 23.4266 22.05 23.898 22.05 24.3801C22.0487 24.7018 22.1112 25.0205 22.234 25.3178C22.3568 25.6151 22.5373 25.8851 22.7652 26.112C22.9931 26.339 23.2638 26.5184 23.5616 26.64C23.8594 26.7615 24.1783 26.8228 24.5 26.8202Z" fill="white"/>
<path d="M41.54 26.82C42.0226 26.82 42.4943 26.6769 42.8956 26.4088C43.2969 26.1407 43.6096 25.7595 43.7943 25.3137C43.979 24.8678 44.0272 24.3773 43.9331 23.9039C43.8389 23.4306 43.6066 22.9959 43.2654 22.6546C42.9241 22.3134 42.4894 22.081 42.0161 21.9868C41.5428 21.8927 41.0521 21.941 40.6063 22.1257C40.1604 22.3104 39.7793 22.6231 39.5112 23.0244C39.2431 23.4256 39.1001 23.8974 39.1001 24.38C39.0987 24.7007 39.1609 25.0186 39.2831 25.3153C39.4052 25.6119 39.5849 25.8814 39.8117 26.1082C40.0386 26.3351 40.3081 26.5148 40.6047 26.6369C40.9013 26.7591 41.2192 26.8213 41.54 26.82Z" fill="white"/>
<path d="M26.43 44.7701H19.9899V43.98H26.43V44.7701ZM23.07 42.5901C22.8121 42.9251 22.4658 43.1813 22.07 43.3301C21.5886 43.542 21.0745 43.6705 20.55 43.7101L20.22 42.9301C20.6441 42.8993 21.0616 42.8084 21.46 42.66C21.7492 42.5653 22.0103 42.4004 22.22 42.1801C22.3745 42.0289 22.4672 41.8257 22.4801 41.61V41.42H23.3501V41.61C23.3653 41.9584 23.267 42.3024 23.07 42.5901ZM25.8501 41.85H20.57V41.0601H25.8501V41.85ZM24.52 45.4301C24.8317 45.5005 25.1207 45.6484 25.3601 45.86C25.4571 45.9485 25.5341 46.0568 25.5859 46.1776C25.6376 46.2983 25.6629 46.4287 25.66 46.5601C25.6608 46.6896 25.6345 46.8179 25.5828 46.9368C25.5312 47.0556 25.4554 47.1623 25.3601 47.2501C25.1207 47.4618 24.8317 47.6096 24.52 47.6801C23.6479 47.88 22.742 47.88 21.8699 47.6801C21.5553 47.6096 21.2632 47.4618 21.02 47.2501C20.9247 47.1623 20.8487 47.0556 20.7971 46.9368C20.7454 46.8179 20.7192 46.6896 20.72 46.5601C20.7172 46.4287 20.7424 46.2983 20.7941 46.1776C20.8459 46.0568 20.9229 45.9485 21.02 45.86C21.2619 45.6465 21.5546 45.4985 21.8699 45.4301C22.742 45.2302 23.6479 45.2302 24.52 45.4301ZM22.38 46.0801C22.2059 46.1052 22.0389 46.1665 21.89 46.2601C21.8418 46.2942 21.8024 46.3391 21.7746 46.3912C21.7468 46.4432 21.7316 46.5011 21.7301 46.5601C21.7331 46.616 21.7492 46.6704 21.7769 46.719C21.8047 46.7676 21.8434 46.8091 21.89 46.8401C22.0389 46.9336 22.2059 46.9949 22.38 47.0201C22.651 47.0641 22.9255 47.0842 23.2 47.0801C23.468 47.0844 23.7357 47.0643 24 47.0201C24.1776 46.9966 24.3481 46.9352 24.5 46.8401C24.5483 46.811 24.5885 46.77 24.6165 46.7209C24.6445 46.6719 24.6595 46.6165 24.66 46.5601C24.661 46.5006 24.6468 46.4418 24.6189 46.3893C24.5909 46.3369 24.5499 46.2924 24.5 46.2601C24.3518 46.1648 24.1845 46.1034 24.01 46.0801C23.4696 46.0001 22.9204 46.0001 22.38 46.0801ZM23.69 45.5601H22.69V44.3H23.69V45.5601ZM24.13 42.1801C24.3415 42.3982 24.6021 42.5628 24.89 42.66C25.2957 42.8072 25.7196 42.8981 26.15 42.9301L25.81 43.7101C25.2855 43.6705 24.7715 43.542 24.29 43.3301C23.8976 43.1752 23.5528 42.92 23.29 42.5901C23.0696 42.3039 22.9533 41.9512 22.96 41.5901V41.4001H23.8501V41.5901C23.8538 41.7024 23.8806 41.8126 23.9288 41.9141C23.977 42.0156 24.0454 42.1061 24.13 42.1801Z" fill="white"/>
<path d="M29.82 41.37C30.1042 41.5062 30.3461 41.717 30.5199 41.98C30.6835 42.2443 30.7701 42.5491 30.7699 42.86C30.7728 43.1727 30.6823 43.4791 30.5099 43.74C30.3374 44.0003 30.0995 44.2107 29.82 44.35C29.5098 44.5043 29.1663 44.5799 28.82 44.57C28.4739 44.5771 28.1311 44.5017 27.82 44.35C27.5404 44.2107 27.3024 44.0003 27.1299 43.74C26.9575 43.4791 26.867 43.1727 26.8699 42.86C26.8682 42.5475 26.9586 42.2414 27.1299 41.98C27.3024 41.7196 27.5404 41.5093 27.82 41.37C28.1341 41.2275 28.475 41.1537 28.82 41.1537C29.1649 41.1537 29.5059 41.2275 29.82 41.37ZM31.4099 45.21C31.7209 45.2946 32.004 45.4602 32.23 45.69C32.4176 45.8947 32.5216 46.1623 32.5216 46.44C32.5216 46.7177 32.4176 46.9853 32.23 47.19C31.9981 47.4151 31.7122 47.5768 31.3999 47.66C30.9906 47.7785 30.566 47.8358 30.1399 47.83C29.7072 47.8365 29.276 47.7791 28.86 47.66C28.5424 47.5755 28.2503 47.4141 28.0099 47.19C27.8223 46.9853 27.7183 46.7177 27.7183 46.44C27.7183 46.1623 27.8223 45.8947 28.0099 45.69C28.246 45.458 28.5394 45.2924 28.86 45.21C29.6949 44.9835 30.575 44.9835 31.4099 45.21ZM28.2999 42.06C28.1562 42.124 28.0369 42.2327 27.96 42.37C27.8696 42.5059 27.8241 42.6669 27.83 42.83C27.824 42.9963 27.8694 43.1604 27.96 43.3C28.0406 43.4318 28.1591 43.5364 28.2999 43.6C28.4562 43.6737 28.6271 43.7114 28.7999 43.71C28.9694 43.7102 29.1368 43.6726 29.2899 43.6C29.432 43.5341 29.5531 43.4303 29.6399 43.3C29.7227 43.1575 29.7642 42.9948 29.7599 42.83C29.7645 42.6684 29.7229 42.5088 29.6399 42.37C29.5563 42.2345 29.4345 42.1267 29.2899 42.06C29.1377 41.9857 28.9691 41.9513 28.7999 41.96C28.6274 41.9496 28.4552 41.984 28.2999 42.06ZM29.2999 45.86C29.125 45.8891 28.9601 45.9613 28.82 46.07C28.7669 46.1093 28.7238 46.1606 28.6942 46.2197C28.6647 46.2787 28.6495 46.3439 28.6499 46.41C28.651 46.4757 28.6669 46.5405 28.6963 46.5993C28.7257 46.6581 28.768 46.7096 28.82 46.75C28.9634 46.8509 29.1273 46.9192 29.2999 46.95C29.8169 47.03 30.3431 47.03 30.86 46.95C31.0291 46.9175 31.1893 46.8494 31.33 46.75C31.3791 46.7078 31.4186 46.6557 31.4462 46.5971C31.4738 46.5385 31.4887 46.4747 31.4899 46.41C31.4888 46.3438 31.4741 46.2785 31.4466 46.2183C31.419 46.158 31.3794 46.1041 31.33 46.06C31.1889 45.9549 31.024 45.8862 30.85 45.86C30.5969 45.8072 30.3385 45.7837 30.08 45.79C29.8371 45.7979 29.5958 45.8315 29.36 45.89L29.2999 45.86ZM32.3899 44.86H31.3899V40.76H32.3899V44.86ZM33.3899 43.14H32.1599V42.34H33.3899V43.14Z" fill="white"/>
<path d="M35.8501 44.45C35.7072 44.9031 35.4836 45.3265 35.19 45.7C34.908 46.0548 34.5443 46.3362 34.13 46.52L33.59 45.75C33.9505 45.5973 34.2693 45.3607 34.52 45.06C34.7741 44.7658 34.9709 44.4266 35.1001 44.06C35.2268 43.7106 35.291 43.3416 35.29 42.97V42.57H36.07V42.97C36.0745 43.4718 36.0003 43.9712 35.8501 44.45ZM37.71 42.71H33.83V41.92H37.71V42.71ZM36.28 42.33H35.28V40.92H36.28V42.33ZM36.45 44.01C36.5745 44.3543 36.7608 44.6729 37 44.95C37.2531 45.2397 37.5628 45.4745 37.91 45.64L37.3699 46.4C36.9774 46.2126 36.6348 45.9351 36.3699 45.59C36.0868 45.2277 35.8702 44.818 35.7301 44.38C35.5898 43.9266 35.5189 43.4546 35.52 42.98V42.58H36.29V42.98C36.2782 43.3467 36.3324 43.7125 36.45 44.06V44.01ZM39.29 47.83H38.29V40.76H39.29V47.83ZM40.29 44.34H39.02V43.51H40.3L40.29 44.34Z" fill="white"/>
<path d="M47.05 47.06H40.59V46.25H47.05V47.06ZM46.3 43.59H42.3V44.79H41.3V42.79H45.3V42.06H41.3V41.27H46.3V43.59ZM46.47 45.18H41.3V44.38H46.44L46.47 45.18ZM44.29 46.59H43.29V44.92H44.29V46.59Z" fill="white"/>
<path d="M19.53 51.0601H21.76C22.1019 51.0534 22.4418 51.1146 22.76 51.24C23.0132 51.3373 23.2301 51.5107 23.3806 51.7364C23.531 51.9621 23.6077 52.2289 23.6001 52.5001C23.6051 52.6968 23.564 52.892 23.4801 53.0701C23.3934 53.2328 23.2701 53.3731 23.1199 53.48C22.9599 53.5903 22.7799 53.6685 22.59 53.7101C22.8066 53.7181 23.0172 53.7837 23.2 53.9001C23.3905 54.0123 23.5461 54.1749 23.65 54.3701C23.7694 54.5872 23.8281 54.8324 23.82 55.0801C23.8268 55.3625 23.7503 55.6408 23.6001 55.8801C23.4379 56.1234 23.2086 56.3145 22.94 56.43C22.6081 56.5701 22.2502 56.6383 21.89 56.6301H19.51L19.53 51.0601ZM22.03 53.3301C22.153 53.2742 22.2572 53.1839 22.33 53.0701C22.4122 52.9608 22.4545 52.8267 22.45 52.6901C22.4536 52.5623 22.4181 52.4364 22.3485 52.3293C22.2788 52.2221 22.1782 52.1387 22.06 52.0901C21.9167 52.0341 21.7639 52.0069 21.6101 52.0101H20.69V53.42H21.59C21.744 53.4145 21.8945 53.3734 22.03 53.3V53.3301ZM22.22 55.6301C22.3477 55.5877 22.457 55.5031 22.53 55.3901C22.6022 55.2802 22.6404 55.1515 22.64 55.0201C22.6431 54.8712 22.6013 54.7248 22.52 54.6C22.4465 54.4721 22.3346 54.3706 22.2 54.3101C22.0433 54.2387 21.8722 54.2045 21.7 54.2101H20.7V55.72H21.7C21.8793 55.7128 22.0557 55.6721 22.22 55.6V55.6301Z" fill="white"/>
<path d="M24.58 51.06H26.78C27.155 51.0532 27.5269 51.1283 27.8699 51.28C28.1572 51.4218 28.397 51.6442 28.56 51.92C28.7223 52.2276 28.8016 52.5723 28.79 52.92C28.8061 53.2693 28.7229 53.616 28.55 53.92C28.3876 54.1951 28.1427 54.412 27.8501 54.54C27.5035 54.6916 27.1282 54.7666 26.75 54.76H25.3V53.76H26.6001C26.794 53.7659 26.9873 53.7354 27.17 53.67C27.3113 53.6169 27.4308 53.5185 27.51 53.39C27.5907 53.2471 27.6289 53.0839 27.6199 52.92C27.6286 52.7529 27.5905 52.5867 27.51 52.44C27.4314 52.3088 27.312 52.2069 27.17 52.15C26.9891 52.0771 26.795 52.043 26.6001 52.05H25.78V56.71H24.6101L24.58 51.06ZM28.9899 56.68H27.7L26.3 54.06H27.56L28.9899 56.68Z" fill="white"/>
<path d="M29.38 51.0601H33.9801V52.0601H32.3V56.72H31.14V52.0601H29.42L29.38 51.0601Z" fill="white"/>
<path d="M36.69 52.9601C36.5454 53.3545 36.3167 53.7127 36.02 54.0101C35.71 54.3131 35.3333 54.5391 34.92 54.67L34.41 53.8801C34.7567 53.7705 35.0769 53.59 35.3501 53.35C35.5912 53.1378 35.7823 52.8749 35.91 52.5801C36.0387 52.2977 36.1037 51.9904 36.1001 51.6801V51.22H36.91V51.6801C36.9093 52.1161 36.8349 52.5489 36.69 52.9601ZM38.52 51.5801H34.69V50.78H38.52V51.5801ZM36.7 56.91H35.7V55.0601H36.7V56.91ZM40.57 57.2401H35.71V56.4401H40.57V57.2401ZM37.29 52.5201C37.4173 52.7983 37.6012 53.0469 37.83 53.2501C38.096 53.4771 38.4056 53.6473 38.7399 53.7501L38.25 54.53C37.844 54.4059 37.4738 54.1865 37.17 53.8901C36.8828 53.6083 36.6609 53.2669 36.52 52.8901C36.3783 52.506 36.3072 52.0994 36.31 51.6901V51.22H37.1101V51.6901C37.1131 51.9772 37.1778 52.2603 37.3 52.5201H37.29ZM39.93 52.9401H38.3V52.1301H39.9801L39.93 52.9401ZM40.4 55.47H39.4V50.3101H40.4V55.47Z" fill="white"/>
<path d="M47.76 54.4401H41.3V53.6501H47.7399L47.76 54.4401ZM45.89 50.5701C46.2238 50.6429 46.5315 50.8054 46.78 51.04C46.8768 51.1333 46.9537 51.2452 47.0063 51.3689C47.0589 51.4926 47.086 51.6257 47.086 51.7601C47.086 51.8945 47.0589 52.0275 47.0063 52.1512C46.9537 52.275 46.8768 52.3868 46.78 52.48C46.5271 52.7064 46.2209 52.8647 45.89 52.9401C44.9959 53.1534 44.0641 53.1534 43.17 52.9401C42.8373 52.8615 42.5285 52.7037 42.27 52.48C42.1732 52.3868 42.0962 52.275 42.0437 52.1512C41.9911 52.0275 41.9639 51.8945 41.9639 51.7601C41.9639 51.6257 41.9911 51.4926 42.0437 51.3689C42.0962 51.2452 42.1732 51.1333 42.27 51.04C42.5224 50.8055 42.8333 50.6431 43.17 50.5701C43.6134 50.4512 44.071 50.3941 44.53 50.4001C44.989 50.3941 45.4466 50.4512 45.89 50.5701ZM45.89 54.9501C46.2047 55.0258 46.4964 55.1768 46.7399 55.3901C46.8344 55.478 46.9092 55.5849 46.9592 55.7039C47.0092 55.8228 47.0333 55.9511 47.03 56.0801C47.0329 56.2105 47.0086 56.3401 46.9587 56.4606C46.9088 56.5811 46.8342 56.6899 46.7399 56.78C46.4968 56.9918 46.2046 57.1396 45.89 57.2101C45.4586 57.3186 45.0147 57.369 44.57 57.3601C44.1221 57.3678 43.6749 57.3174 43.2399 57.2101C42.9253 57.1396 42.6332 56.9918 42.39 56.78C42.2052 56.5938 42.1012 56.3424 42.1001 56.0801C42.0986 55.9513 42.1235 55.8237 42.1734 55.705C42.2233 55.5863 42.297 55.4791 42.39 55.3901C42.6347 55.1729 42.9306 55.0215 43.25 54.9501C43.6829 54.8514 44.126 54.8044 44.57 54.8101C44.9974 54.8072 45.4236 54.8542 45.84 54.9501H45.89ZM43.81 53.9501H42.81V52.66H43.81V53.9501ZM43.7399 51.22C43.5515 51.2499 43.3712 51.318 43.21 51.42C43.1543 51.4552 43.1082 51.5039 43.0764 51.5616C43.0445 51.6193 43.0279 51.6841 43.0279 51.7501C43.0279 51.816 43.0445 51.8808 43.0764 51.9385C43.1082 51.9963 43.1543 52.045 43.21 52.0801C43.3733 52.1779 43.5527 52.2456 43.7399 52.28C44.2971 52.36 44.8629 52.36 45.42 52.28C45.6072 52.2456 45.7868 52.1779 45.95 52.0801C46.0058 52.045 46.0517 51.9963 46.0836 51.9385C46.1154 51.8808 46.1322 51.816 46.1322 51.7501C46.1322 51.6841 46.1154 51.6193 46.0836 51.5616C46.0517 51.5039 46.0058 51.4552 45.95 51.42C45.7888 51.318 45.6084 51.2499 45.42 51.22C44.8639 51.1266 44.296 51.1266 43.7399 51.22ZM43.7399 55.6C43.5654 55.6234 43.3981 55.6848 43.25 55.78C43.2008 55.8107 43.1603 55.8535 43.1323 55.9042C43.1043 55.955 43.0898 56.0121 43.09 56.0701C43.0908 56.1292 43.1057 56.1873 43.1335 56.2395C43.1613 56.2917 43.2012 56.3365 43.25 56.3701C43.3981 56.4653 43.5654 56.5267 43.7399 56.5501C44.277 56.63 44.823 56.63 45.3601 56.5501C45.5351 56.5288 45.7028 56.4672 45.8501 56.3701C45.9 56.337 45.9415 56.2926 45.971 56.2405C46.0006 56.1883 46.0173 56.1299 46.02 56.0701C46.0183 56.0114 46.0018 55.954 45.9721 55.9033C45.9424 55.8526 45.9004 55.8102 45.8501 55.78C45.7056 55.6847 45.5415 55.6232 45.3699 55.6C45.0971 55.5766 44.8228 55.5766 44.55 55.6C44.2703 55.5781 43.9892 55.5814 43.71 55.6101L43.7399 55.6ZM46.3 53.9501H45.3V52.66H46.3V53.9501Z" fill="white"/>
</g>
<defs>
<clipPath id="clip0_8072_150">
<rect width="66.81" height="66.6" fill="white"/>
</clipPath>
</defs>
</svg>
