<svg width="76" height="67" viewBox="0 0 76 67" fill="none" xmlns="http://www.w3.org/2000/svg">
<g clip-path="url(#clip0_8063_5721)">
<path d="M1.13 59.83L34.4 2.58C36.22 -0.530002 39.46 -0.530002 41.28 2.58L74.79 59.95C76.74 63.25 75.09 65.84 71.13 65.84H4.78002C0.60002 65.84 -0.870005 63.36 1.13 59.84" fill="white"/>
<path d="M1.13001 59.83L34.4 2.58C36.22 -0.530002 39.46 -0.530002 41.28 2.58L74.79 59.95C76.74 63.25 75.09 65.84 71.13 65.84H4.78004C0.570035 65.84 -0.869989 63.36 1.13001 59.83Z" stroke="#D20D18" stroke-width="0.49"/>
<path d="M2.57 60.37L35.57 3.52C36.75 1.4 38.87 1.52 39.98 3.52L73.19 60.42C74.38 62.48 73.19 64.07 70.84 64.07H5.14001C2.48001 64.07 1.41998 62.37 2.54998 60.37" fill="#D20D18"/>
<path d="M37.99 12.75L63.99 57.6H11.57" fill="#F8B500"/>
<path d="M37.99 12.75L63.99 57.6H11.57L37.99 12.75Z" stroke="#D20D18" stroke-width="0.57"/>
<path d="M38.76 25.68L43.71 30.27V54.66H33.98V44.55L26.14 54.25L22.54 50.55L33.98 36.14V30.27" fill="#231916"/>
</g>
<defs>
<clipPath id="clip0_8063_5721">
<rect width="75.85" height="66.08" fill="white"/>
</clipPath>
</defs>
</svg>
