<svg width="69" height="69" viewBox="0 0 69 69" fill="none" xmlns="http://www.w3.org/2000/svg">
<g clip-path="url(#clip0_8068_5328)">
<path d="M34.5 68.7201C27.7029 68.7023 21.0635 66.6701 15.421 62.8802C9.77843 59.0904 5.38588 53.713 2.79842 47.4276C0.210963 41.1422 -0.455268 34.2308 0.883872 27.5669C2.22301 20.9029 5.50741 14.7855 10.3221 9.98753C15.1368 5.1896 21.2657 1.92653 27.9343 0.610635C34.6029 -0.705257 41.5118 -0.0149097 47.7882 2.59445C54.0645 5.20382 59.4266 9.61508 63.1967 15.2708C66.9669 20.9266 68.9759 27.5729 68.97 34.3701C68.9382 43.4913 65.2926 52.2281 58.8317 58.6665C52.3707 65.105 43.6213 68.7202 34.5 68.7201ZM34.5 0.410104C27.7953 0.423951 21.2449 2.4239 15.6759 6.15749C10.1069 9.89109 5.76889 15.1909 3.20949 21.388C0.650095 27.585 -0.0159343 34.4014 1.29549 40.9766C2.60692 47.5519 5.83699 53.5912 10.578 58.3322C15.3189 63.0731 21.3582 66.3032 27.9335 67.6146C34.5087 68.9261 41.3251 68.26 47.5222 65.7006C53.7192 63.1412 59.0191 58.8032 62.7526 53.2342C66.4862 47.6652 68.4862 41.1148 68.5 34.4101C68.4894 25.3997 64.9026 16.7619 58.5275 10.3943C52.1525 4.02674 43.5105 0.450099 34.5 0.450105V0.410104Z" fill="#CF1F25"/>
<path d="M34.5 1.62991C28.0274 1.64572 21.7046 3.57915 16.33 7.18604C10.9555 10.7929 6.77033 15.9115 4.30294 21.8954C1.83556 27.8793 1.19663 34.4602 2.46689 40.807C3.73714 47.1538 6.85963 52.9818 11.44 57.5552C16.0203 62.1286 21.8531 65.2421 28.2018 66.5027C34.5505 67.7633 41.1304 67.1143 47.1106 64.6378C53.0907 62.1613 58.2029 57.9683 61.8016 52.5883C65.4003 47.2083 67.3241 40.8826 67.33 34.4099C67.3287 30.1013 66.4783 25.8353 64.8274 21.8555C63.1764 17.8758 60.7573 14.2605 57.7084 11.2162C54.6595 8.17189 51.0404 5.75832 47.0582 4.11345C43.076 2.46858 38.8086 1.62465 34.5 1.62991ZM34.5 59.9099C29.452 59.898 24.5207 58.3899 20.3296 55.5761C16.1385 52.7623 12.8756 48.7691 10.9533 44.1014C9.03111 39.4336 8.5359 34.3007 9.53018 29.3515C10.5245 24.4023 12.9636 19.859 16.5395 16.2958C20.1153 12.7325 24.6672 10.3094 29.6198 9.33252C34.5725 8.35568 39.7036 8.86903 44.3645 10.8077C49.0255 12.7463 53.0072 16.0233 55.8062 20.2243C58.6052 24.4253 60.096 29.3618 60.0901 34.4099C60.0742 41.1836 57.3701 47.6741 52.5719 52.4554C47.7737 57.2367 41.2738 59.9179 34.5 59.9099Z" fill="#CF1F25"/>
<path d="M20.69 43.5301L27.53 35.3901C28.2 34.5501 28.72 33.8601 29.1 33.3001C29.4604 32.7882 29.7497 32.2297 29.96 31.6401C30.1597 31.0613 30.2578 30.4523 30.25 29.8401C30.2624 29.1985 30.129 28.5626 29.86 27.9801C29.629 27.4726 29.2533 27.0447 28.78 26.7501C28.3176 26.4642 27.7836 26.3152 27.24 26.3201C26.6855 26.3126 26.1417 26.4729 25.68 26.7801C25.2215 27.118 24.8735 27.5843 24.68 28.1201C24.4319 28.7572 24.3096 29.4364 24.32 30.1201H20.5C20.4743 28.6878 20.7645 27.2674 21.35 25.9601C21.8497 24.8211 22.6784 23.8575 23.7297 23.1929C24.7809 22.5283 26.0068 22.193 27.25 22.2301C28.4917 22.2087 29.7157 22.5268 30.79 23.1501C31.8217 23.7597 32.6579 24.6513 33.2 25.7201C33.7769 26.8917 34.0649 28.1844 34.04 29.4901C34.0428 30.436 33.9012 31.3769 33.62 32.2801C33.2539 33.3416 32.7496 34.3503 32.12 35.2801C31.1989 36.6517 30.1971 37.9673 29.12 39.2201L26.22 42.8401V43.0101H34.35V47.2101H20.71L20.69 43.5301Z" fill="#231F20"/>
<path d="M38.8 46.0801C37.5435 44.9104 36.6365 43.4149 36.18 41.7601C34.9666 37.2808 34.9666 32.5593 36.18 28.0801C36.6335 26.4101 37.5444 24.9001 38.81 23.7201C39.9517 22.7576 41.3968 22.2297 42.89 22.2297C44.3832 22.2297 45.8283 22.7576 46.97 23.7201C48.2256 24.8961 49.1352 26.3936 49.6 28.0501C50.8211 32.5283 50.8211 37.2518 49.6 41.7301C49.1402 43.3858 48.2297 44.8813 46.97 46.0501C45.8217 47.0066 44.3745 47.5305 42.88 47.5305C41.3855 47.5305 39.9383 47.0066 38.79 46.0501L38.8 46.0801ZM44.8 42.4101C45.4367 41.5801 45.8653 40.6097 46.05 39.5801C46.3661 38.0443 46.507 36.4776 46.47 34.9101C46.4978 33.349 46.3536 31.7896 46.04 30.2601C45.8506 29.2258 45.4226 28.2499 44.79 27.4101C44.5661 27.1158 44.2772 26.8772 43.9459 26.713C43.6146 26.5487 43.2498 26.4633 42.88 26.4633C42.5102 26.4633 42.1454 26.5487 41.8141 26.713C41.4828 26.8772 41.1939 27.1158 40.97 27.4101C40.3373 28.2499 39.9093 29.2258 39.72 30.2601C39.3937 31.7879 39.2428 33.348 39.27 34.9101C39.2436 36.4782 39.3912 38.0444 39.71 39.5801C39.8947 40.6097 40.3234 41.5801 40.96 42.4101C41.1897 42.7 41.4813 42.9349 41.8136 43.0976C42.1458 43.2602 42.5101 43.3465 42.88 43.3501C43.2512 43.3458 43.6168 43.2593 43.9506 43.0968C44.2843 42.9343 44.5778 42.6997 44.81 42.4101H44.8Z" fill="#231F20"/>
</g>
<defs>
<clipPath id="clip0_8068_5328">
<rect width="68.98" height="68.77" fill="white"/>
</clipPath>
</defs>
</svg>
