<svg width="14" height="66" viewBox="0 0 14 66" fill="none" xmlns="http://www.w3.org/2000/svg">
<g clip-path="url(#clip0_8063_8617)">
<path d="M4.1993 0.144531H0.145752V28.2945H4.1993V0.144531Z" fill="white"/>
<path d="M4.1993 0.144531H0.145752V28.2945H4.1993V0.144531Z" stroke="#231916" stroke-width="0.41"/>
<path d="M4.1993 36.7485H0.145752V46.063H4.1993V36.7485Z" fill="white"/>
<path d="M4.1993 36.7485H0.145752V46.063H4.1993V36.7485Z" stroke="#231916" stroke-width="0.41"/>
<path d="M4.1993 56.5134H0.145752V65.8555H4.1993V56.5134Z" fill="white"/>
<path d="M4.1993 56.5134H0.145752V65.8555H4.1993V56.5134Z" stroke="#231916" stroke-width="0.41"/>
<path d="M13.8612 36.9551H9.80765V65.7935H13.8612V36.9551Z" fill="white"/>
<path d="M13.8612 36.9551H9.80765V65.7935H13.8612V36.9551Z" stroke="#231916" stroke-width="0.41"/>
<path d="M13.8612 19.2141H9.80765V28.088H13.8612V19.2141Z" fill="white"/>
<path d="M13.8612 19.2141H9.80765V28.088H13.8612V19.2141Z" stroke="#231916" stroke-width="0.41"/>
<path d="M13.8612 0.309814H9.80765V9.21813H13.8612V0.309814Z" fill="white"/>
<path d="M13.8612 0.309814H9.80765V9.21813H13.8612V0.309814Z" stroke="#231916" stroke-width="0.41"/>
</g>
<defs>
<clipPath id="clip0_8063_8617">
<rect width="14" height="66" fill="white"/>
</clipPath>
</defs>
</svg>
