<svg width="70" height="45" viewBox="0 0 70 45" fill="none" xmlns="http://www.w3.org/2000/svg">
<g clip-path="url(#clip0_8063_8938)">
<path d="M14.3332 0.2146V11.8195H11.9974V16.2601H14.3332V29.5818H18.3841V0.2146" fill="white"/>
<path d="M14.3332 0.2146V11.8195H11.9974V16.2601H14.3332V29.5818H18.3841V0.2146H14.3332Z" stroke="#231916" stroke-width="0.53"/>
<path d="M69.7877 0.2146H65.745V44.414H69.7877V0.2146Z" fill="white"/>
<path d="M69.7877 0.2146H65.745V44.414H69.7877V0.2146Z" stroke="#231916" stroke-width="0.53"/>
<path d="M1.57623 32.8751H6.03546V39.9817H17.6V44.7854H1.57623" fill="white"/>
<path d="M1.57623 32.8751H6.03546V39.9817H17.6V44.7854H1.57623V32.8751Z" stroke="#231916" stroke-width="0.53"/>
<path d="M57.586 18.1419C58.4027 18.2905 60.0852 19.0746 60.0852 20.5438V35.6896C60.1199 36.0521 60.0823 36.4179 59.9746 36.7655C59.867 37.113 59.6915 37.4352 59.4585 37.713C59.2255 37.9908 58.9397 38.2185 58.6181 38.3828C58.2965 38.547 57.9455 38.6444 57.586 38.6692V43.3244C58.7947 43.2666 63.303 42.6972 63.303 38.8344V18.0346C63.303 15.6823 60.5017 13.6436 57.586 13.4373M57.3329 18.0842C57.4209 18.0801 57.5083 18.1 57.586 18.1419V13.4373H57.1287C55.7321 13.4373 52.2284 14.6918 51.5751 17.5642V39.4617C52.2039 42.5404 56.557 43.3244 57.3818 43.3244H57.586V38.6692H57.4145C56.7607 38.5914 56.1591 38.27 55.7272 37.7679C55.2953 37.2657 55.0641 36.619 55.0788 35.9538V20.7006C55.0812 20.0676 55.3071 19.4562 55.7158 18.9766C56.1246 18.4969 56.6893 18.1805 57.3084 18.0842" fill="white"/>
<path d="M57.3329 18.0842C57.9536 18.0842 60.0852 18.9096 60.0852 20.5603V35.7061C60.1177 36.0801 60.0738 36.4568 59.9563 36.8129C59.8388 37.1691 59.6502 37.497 59.4021 37.7763C59.154 38.0557 58.8517 38.2807 58.514 38.4371C58.1763 38.5935 57.8104 38.6782 57.4391 38.6858C56.7852 38.6079 56.1836 38.2865 55.7517 37.7844C55.3198 37.2823 55.0886 36.6354 55.1033 35.9702V20.7006C55.1057 20.0676 55.3316 19.4562 55.7403 18.9766C56.1491 18.4969 56.7138 18.1805 57.3329 18.0842ZM51.5751 17.5642V39.4617C52.2039 42.5404 56.557 43.3244 57.39 43.3244C58.2231 43.3244 63.303 42.953 63.303 38.8344V18.0346C63.303 15.5585 60.1914 13.4373 57.1287 13.4373C55.7321 13.4373 52.2039 14.6918 51.5751 17.5642Z" stroke="#231916" stroke-width="0.53"/>
<path d="M8.47739 8.31979H12.1607V3.92053H8.57539V0.313599H4.22237V3.97826H0.955541V8.31979H4.4756C4.4756 9.77247 0.27771 25.9748 0.27771 25.9748H3.91202L6.50102 15.575L8.57539 25.9253L12.1036 25.9748" fill="white"/>
<path d="M8.47739 8.31979H12.1607V3.92053H8.57539V0.313599H4.22237V3.97826H0.955541V8.31979H4.4756C4.4756 9.77247 0.27771 25.9748 0.27771 25.9748H3.91202L6.50102 15.575L8.57539 25.9253L12.1036 25.9748L8.47739 8.31979Z" stroke="#231916" stroke-width="0.53"/>
<path d="M32.9133 8.31979H36.6456V3.92053H33.0195V0.313599H28.6583V3.97826H25.3915V8.31979H28.9687C28.9687 9.77247 24.7054 25.9748 24.7054 25.9748H28.3887L30.9369 15.575L33.0604 25.9253L36.5395 25.9748" fill="white"/>
<path d="M32.9133 8.31979H36.6456V3.92053H33.0195V0.313599H28.6583V3.97826H25.3915V8.31979H28.9687C28.9687 9.77247 24.7054 25.9748 24.7054 25.9748H28.3887L30.9369 15.575L33.0604 25.9253L36.5395 25.9748L32.9133 8.31979Z" stroke="#231916" stroke-width="0.53"/>
<path d="M38.8671 0.2146V11.8195H36.5395V16.2601H38.8671V29.5818H42.918V0.2146" fill="white"/>
<path d="M38.8671 0.2146V11.8195H36.5395V16.2601H38.8671V29.5818H42.918V0.2146H38.8671Z" stroke="#231916" stroke-width="0.53"/>
<path d="M26.1591 32.8751H30.6265V39.9817H42.1421V44.7854H26.1591" fill="white"/>
<path d="M26.1591 32.8751H30.6265V39.9817H42.1421V44.7854H26.1591V32.8751Z" stroke="#231916" stroke-width="0.53"/>
<path d="M62.7803 8.31988V3.92058H59.3583V0.321899H54.9971V3.97836H51.7384V8.31988" fill="white"/>
<path d="M62.7803 8.31988V3.92058H59.3583V0.321899H54.9971V3.97836H51.7384V8.31988H62.7803Z" stroke="#231916" stroke-width="0.53"/>
</g>
<defs>
<clipPath id="clip0_8063_8938">
<rect width="70" height="45" fill="white"/>
</clipPath>
</defs>
</svg>
