<svg width="69" height="65" viewBox="0 0 69 65" fill="none" xmlns="http://www.w3.org/2000/svg">
<g clip-path="url(#clip0_8063_7370)">
<path d="M61.5099 63.91C63.1935 63.9021 64.8063 63.2313 65.9986 62.0427C67.1909 60.8541 67.8668 59.2435 67.8799 57.56" stroke="#004A9C" stroke-width="0.49"/>
<path d="M67.89 57.56V6.65997" stroke="#004A9C" stroke-width="0.49"/>
<path d="M67.8799 6.65997C67.8774 4.96764 67.2068 3.34481 66.0139 2.14441C64.8209 0.94401 63.2022 0.263178 61.5099 0.25" stroke="#004A9C" stroke-width="0.49"/>
<path d="M61.52 0.23999H6.62" stroke="#004A9C" stroke-width="0.49"/>
<path d="M6.6099 0.25C5.77038 0.251307 4.93945 0.418245 4.16459 0.741333C3.38973 1.06442 2.68617 1.53726 2.0944 2.13275C1.50263 2.72824 1.03421 3.43468 0.715982 4.21155C0.397751 4.98842 0.23596 5.82046 0.239908 6.65997" stroke="#004A9C" stroke-width="0.49"/>
<path d="M0.23999 6.65997V57.56" stroke="#004A9C" stroke-width="0.49"/>
<path d="M0.23996 57.56C0.241272 58.3952 0.407164 59.222 0.727997 59.9931C1.04883 60.7642 1.51832 61.4646 2.10983 62.0543C2.70134 62.6439 3.40325 63.1113 4.17538 63.4297C4.94752 63.7481 5.77475 63.9113 6.60995 63.91" stroke="#004A9C" stroke-width="0.49"/>
<path d="M6.62 63.91H61.52" stroke="#004A9C" stroke-width="0.49"/>
<path d="M59.92 62.2699C60.7138 62.2792 61.5016 62.1309 62.2376 61.8335C62.9737 61.5361 63.6434 61.0956 64.208 60.5375C64.7726 59.9794 65.2208 59.3149 65.5267 58.5823C65.8326 57.8498 65.99 57.0638 65.99 56.2699V7.90995C65.99 7.1161 65.8326 6.33013 65.5267 5.59758C65.2208 4.86502 64.7726 4.20045 64.208 3.64238C63.6434 3.0843 62.9737 2.6438 62.2376 2.34642C61.5016 2.04904 60.7138 1.90069 59.92 1.90995H8.17001C7.37621 1.90069 6.58844 2.04904 5.85239 2.34642C5.11633 2.6438 4.44664 3.0843 3.88205 3.64238C3.31746 4.20045 2.86922 4.86502 2.56332 5.59758C2.25743 6.33013 2.10001 7.1161 2.10007 7.90995V56.24C2.10001 57.0338 2.25743 57.8198 2.56332 58.5523C2.86922 59.2849 3.31746 59.9495 3.88205 60.5075C4.44664 61.0656 5.11633 61.5061 5.85239 61.8035C6.58844 62.1009 7.37621 62.2492 8.17001 62.24" fill="white"/>
<path d="M59.92 62.2699C60.7138 62.2792 61.5016 62.1309 62.2376 61.8335C62.9737 61.5361 63.6434 61.0956 64.208 60.5375C64.7726 59.9794 65.2208 59.3149 65.5267 58.5823C65.8326 57.8498 65.99 57.0638 65.99 56.2699V7.90995C65.99 7.1161 65.8326 6.33013 65.5267 5.59758C65.2208 4.86502 64.7726 4.20045 64.208 3.64238C63.6434 3.0843 62.9737 2.6438 62.2376 2.34642C61.5016 2.04904 60.7138 1.90069 59.92 1.90995H8.17001C7.37621 1.90069 6.58844 2.04904 5.85239 2.34642C5.11633 2.6438 4.44664 3.0843 3.88205 3.64238C3.31746 4.20045 2.86922 4.86502 2.56332 5.59758C2.25743 6.33013 2.10001 7.1161 2.10007 7.90995V56.24C2.10001 57.0338 2.25743 57.8198 2.56332 58.5523C2.86922 59.2849 3.31746 59.9495 3.88205 60.5075C4.44664 61.0656 5.11633 61.5061 5.85239 61.8035C6.58844 62.1009 7.37621 62.2492 8.17001 62.24L59.92 62.2699Z" stroke="#004A9C" stroke-width="0.45"/>
<path d="M65.99 45.3999V7.90995C65.99 7.1161 65.8326 6.33013 65.5267 5.59758C65.2208 4.86502 64.7726 4.20045 64.208 3.64238C63.6434 3.0843 62.9737 2.6438 62.2376 2.34642C61.5016 2.04904 60.7138 1.90069 59.92 1.90995H8.17001C7.37621 1.90069 6.58844 2.04904 5.85239 2.34642C5.11633 2.6438 4.44664 3.0843 3.88205 3.64238C3.31746 4.20045 2.86922 4.86502 2.56332 5.59758C2.25743 6.33013 2.10001 7.1161 2.10007 7.90995V45.36" fill="#004A9C"/>
<path d="M25.01 11.91C23.83 12.79 8.14004 22.78 8.14004 22.78C7.37004 23.25 7.26004 23.25 8.14004 23.9C9.02004 24.55 24.8301 34.42 24.8301 34.42C25.0035 34.5314 25.2006 34.6003 25.4057 34.6212C25.6107 34.642 25.8178 34.6142 26.01 34.54C26.2216 34.3941 26.3812 34.1845 26.4657 33.9418C26.5502 33.6991 26.5553 33.4358 26.4801 33.19L24.5401 27.49H59.8001V18.55H25.25L26.9601 13.73C26.9601 13.73 27.8401 12.21 26.7801 11.5C26.7801 11.5 26.25 10.97 25.01 11.91Z" fill="white"/>
<path d="M18.43 52.81C17.8794 53.2493 17.1943 53.4858 16.49 53.48C15.7846 53.4917 15.0978 53.2545 14.55 52.81C14.286 52.6033 14.0725 52.3391 13.9256 52.0377C13.7788 51.7362 13.7026 51.4053 13.7026 51.0699C13.7026 50.7346 13.7788 50.4038 13.9256 50.1023C14.0725 49.8008 14.286 49.5367 14.55 49.33C15.111 48.9089 15.7935 48.6812 16.495 48.6812C17.1964 48.6812 17.879 48.9089 18.44 49.33C18.7116 49.5299 18.9307 49.7926 19.0787 50.0956C19.2267 50.3986 19.2992 50.7329 19.29 51.0699C19.2975 51.4068 19.2243 51.7406 19.0764 52.0433C18.9285 52.346 18.7103 52.6089 18.44 52.81M17.61 50.09C17.2969 49.8343 16.9042 49.6963 16.5 49.7C16.0908 49.695 15.6934 49.8369 15.38 50.1C15.2317 50.2102 15.1112 50.3534 15.0279 50.5183C14.9446 50.6832 14.9008 50.8652 14.9 51.05C14.8969 51.2425 14.9386 51.4331 15.0219 51.6066C15.1053 51.7802 15.2278 51.932 15.38 52.05C15.6934 52.313 16.0908 52.4549 16.5 52.45C16.9062 52.4552 17.3005 52.3131 17.61 52.05C17.7645 51.9336 17.8896 51.7823 17.9747 51.6086C18.0598 51.4348 18.1028 51.2435 18.1001 51.05C18.107 50.8558 18.0659 50.663 17.9804 50.4885C17.895 50.3141 17.7676 50.1635 17.61 50.05M15.2301 58.53V55.94H21.41V55.1299H15.2301V54.22H22.7101V56.81H16.55V57.61H22.9801V58.53H15.2301ZM21.54 48.3199H22.7201V53.7599H21.54V48.3199Z" fill="#231916"/>
<path d="M24.5901 53.98V48.8199H25.77V50.54H28.58V48.8199H29.75V53.98M32.2 58.29C30.3284 59.0363 28.2416 59.0363 26.37 58.29C26.0777 58.1792 25.8261 57.9821 25.6485 57.7249C25.471 57.4676 25.3759 57.1625 25.3759 56.85C25.3759 56.5374 25.471 56.2322 25.6485 55.975C25.8261 55.7178 26.0777 55.5208 26.37 55.41C28.2365 54.6372 30.3335 54.6372 32.2 55.41C32.4923 55.5208 32.7439 55.7178 32.9215 55.975C33.099 56.2322 33.1941 56.5374 33.1941 56.85C33.1941 57.1625 33.099 57.4676 32.9215 57.7249C32.7439 57.9821 32.4923 58.1792 32.2 58.29ZM28.58 51.54H25.76V53H28.58V51.54ZM31.19 56.08C29.9481 55.6799 28.6119 55.6799 27.37 56.08C26.88 56.27 26.64 56.54 26.64 56.87C26.64 57.2 26.88 57.4299 27.37 57.6299C28.6119 58.03 29.9481 58.03 31.19 57.6299C31.68 57.4299 31.92 57.18 31.92 56.87C31.92 56.56 31.68 56.27 31.19 56.08ZM32.92 51.99V54.58H31.74V48.36H32.92V50.97H34.3501V51.97L32.92 51.99Z" fill="#231916"/>
<path d="M34.79 54.67V53.67H39.3V52.78H36.17V48.53H43.8699V49.47H37.3599V50.2H43.85V51.11H37.3599V51.91H43.97V52.86H40.66V53.75H45.17V54.75M43.07 55.75C43.79 56.1 44.16 56.5399 44.16 57.0699C44.16 57.5999 43.79 58.07 43.07 58.37C42.0909 58.7556 41.0411 58.9294 39.9899 58.8799C38.9403 58.9282 37.8927 58.7473 36.92 58.35C36.19 58 35.82 57.56 35.82 57.03C35.82 56.5 36.18 56.03 36.91 55.74C37.8886 55.3526 38.9387 55.1787 39.9899 55.23C41.0421 55.1781 42.0931 55.3556 43.07 55.75ZM42.07 56.3799C41.4162 56.2175 40.7435 56.1435 40.07 56.16C39.3772 56.1432 38.6851 56.2138 38.0099 56.37C37.4799 56.51 37.21 56.73 37.21 57.03C37.21 57.33 37.4799 57.53 37.9999 57.71C38.6484 57.9039 39.3233 57.995 39.9999 57.98C40.6751 57.9919 41.3485 57.9077 41.9999 57.73C42.5299 57.57 42.8 57.34 42.8 57.05C42.8 56.76 42.5299 56.5299 41.9999 56.3799" fill="#231916"/>
<path d="M45.95 50.91V50.0099H51.17V50.91M50.2599 54.2C49.7477 54.536 49.1419 54.7007 48.53 54.67C47.9184 54.6979 47.3134 54.5335 46.8 54.2C46.6016 54.0709 46.4385 53.8946 46.325 53.6869C46.2116 53.4792 46.1514 53.2466 46.15 53.0099C46.1513 52.7737 46.2137 52.5419 46.3311 52.3369C46.4485 52.1318 46.6169 51.9607 46.82 51.84C47.3358 51.5231 47.9354 51.3697 48.54 51.4C49.149 51.3707 49.7524 51.5277 50.27 51.85C50.466 51.977 50.6272 52.151 50.7388 52.3563C50.8504 52.5615 50.9089 52.7914 50.9089 53.025C50.9089 53.2586 50.8504 53.4884 50.7388 53.6937C50.6272 53.8989 50.466 54.0729 50.27 54.2M47.17 48.49H49.9V49.4H47.17V48.49ZM54.32 58.37C53.3751 58.7791 52.3483 58.964 51.32 58.91C50.2903 58.9707 49.2612 58.782 48.32 58.36C48.0394 58.2458 47.7967 58.0548 47.6198 57.809C47.4429 57.5631 47.3391 57.2723 47.32 56.97C47.3374 56.6709 47.4411 56.3833 47.6186 56.1419C47.7961 55.9005 48.0397 55.7158 48.32 55.61C49.2681 55.2131 50.2936 55.0354 51.32 55.09C52.3485 55.0327 53.3761 55.2176 54.32 55.6299C54.6148 55.7181 54.8733 55.8991 55.0571 56.1459C55.2408 56.3927 55.3401 56.6923 55.3401 57C55.3401 57.3077 55.2408 57.6072 55.0571 57.854C54.8733 58.1008 54.6148 58.2818 54.32 58.37ZM49.47 52.47C49.1848 52.3319 48.8719 52.2601 48.555 52.2601C48.2381 52.2601 47.9252 52.3319 47.64 52.47C47.5448 52.5284 47.467 52.611 47.4142 52.7094C47.3615 52.8078 47.3359 52.9184 47.34 53.03C47.3372 53.1427 47.3632 53.2543 47.4157 53.3541C47.4682 53.4538 47.5454 53.5385 47.64 53.6C47.9252 53.7381 48.2381 53.8098 48.555 53.8098C48.8719 53.8098 49.1848 53.7381 49.47 53.6C49.5646 53.5385 49.6418 53.4538 49.6943 53.3541C49.7468 53.2543 49.7728 53.1427 49.77 53.03C49.774 52.9184 49.7485 52.8078 49.6957 52.7094C49.643 52.611 49.5652 52.5284 49.47 52.47ZM53.28 56.24C52.6513 56.0511 51.996 55.9666 51.34 55.99C50.6643 55.9673 49.9893 56.0517 49.34 56.24C48.83 56.4 48.58 56.65 48.58 56.98C48.58 57.31 48.83 57.55 49.33 57.72C49.977 57.9208 50.653 58.012 51.33 57.99C51.984 58.0099 52.6365 57.9186 53.2599 57.72C53.7599 57.55 54.0099 57.3 54.0099 56.99C54.0099 56.68 53.76 56.4 53.27 56.24M54.27 54.84V52.04H53.05V54.62H51.94V48.62H53.05V50.91H54.27V48.33H55.3699V54.78L54.27 54.84Z" fill="#231916"/>
</g>
<defs>
<clipPath id="clip0_8063_7370">
<rect width="68.13" height="64.16" fill="white"/>
</clipPath>
</defs>
</svg>
