<svg width="77" height="30" viewBox="0 0 77 30" fill="none" xmlns="http://www.w3.org/2000/svg">
<g clip-path="url(#clip0_8063_7960)">
<path d="M5.85 28.8099C4.36365 28.8143 2.93214 28.2489 1.85 27.23C1.3252 26.7047 0.909295 26.081 0.626146 25.3945C0.342997 24.7081 0.198179 23.9725 0.199999 23.23" stroke="#231916" stroke-width="0.49"/>
<path d="M0.240005 23.23V5.82996" stroke="#231916" stroke-width="0.49"/>
<path d="M0.239997 5.81993C0.23728 5.07638 0.382663 4.33983 0.66767 3.65306C0.952678 2.96629 1.3716 2.34307 1.89999 1.81993C2.42591 1.30004 3.0511 0.891435 3.73831 0.61827C4.42552 0.345105 5.16068 0.213005 5.89999 0.229964" stroke="#231916" stroke-width="0.49"/>
<path d="M5.85001 0.23999H70.55" stroke="#231916" stroke-width="0.49"/>
<path d="M70.55 0.240021C71.2794 0.229986 72.0035 0.365457 72.68 0.638459C73.3565 0.91146 73.9718 1.31648 74.49 1.82999C75.0189 2.35226 75.4374 2.97551 75.7209 3.66263C76.0043 4.34975 76.1468 5.08674 76.14 5.82999" stroke="#231916" stroke-width="0.49"/>
<path d="M76.15 5.82996V23.23" stroke="#231916" stroke-width="0.49"/>
<path d="M76.14 23.24C76.1437 23.9819 76.0007 24.7172 75.7192 25.4037C75.4378 26.0901 75.0234 26.7142 74.5 27.24C73.4167 28.2572 71.986 28.8223 70.5 28.8199" stroke="#231916" stroke-width="0.49"/>
<path d="M70.55 28.8101H5.85001" stroke="#231916" stroke-width="0.49"/>
<path d="M5.84999 26.76C5.38555 26.7661 4.92498 26.6749 4.49788 26.4923C4.07077 26.3098 3.68658 26.0398 3.36999 25.7C3.04832 25.3748 2.79432 24.989 2.62267 24.5651C2.45102 24.1411 2.36514 23.6874 2.36999 23.23" stroke="#231916" stroke-width="0.49"/>
<path d="M2.37 23.23V5.82996" stroke="#231916" stroke-width="0.49"/>
<path d="M2.37 5.81989C2.36537 5.36405 2.45139 4.91188 2.62306 4.48957C2.79474 4.06726 3.04864 3.68326 3.37 3.35993C3.68503 3.01806 4.06892 2.74687 4.49639 2.56416C4.92386 2.38145 5.38521 2.29144 5.85001 2.3" stroke="#231916" stroke-width="0.49"/>
<path d="M5.85001 2.30005H70.55" stroke="#231916" stroke-width="0.49"/>
<path d="M70.55 2.30001C71.013 2.2935 71.4723 2.38447 71.8978 2.5671C72.3234 2.74972 72.7057 3.01985 73.02 3.35995C73.3414 3.68327 73.5953 4.06727 73.7669 4.48958C73.9386 4.9119 74.0246 5.36406 74.02 5.81991" stroke="#231916" stroke-width="0.49"/>
<path d="M74.03 5.82996V23.23" stroke="#231916" stroke-width="0.49"/>
<path d="M74.02 23.24C74.0246 23.6958 73.9386 24.148 73.7669 24.5703C73.5953 24.9926 73.3414 25.3766 73.02 25.7C72.7057 26.0401 72.3234 26.3103 71.8978 26.4929C71.4723 26.6755 71.013 26.7665 70.55 26.76" stroke="#231916" stroke-width="0.49"/>
<path d="M70.55 26.76H5.85001" stroke="#231916" stroke-width="0.49"/>
<path d="M14.32 15.5599V16.16C16.32 16.29 17.32 17.01 17.32 17.89C17.32 18.77 16.02 19.64 13.51 19.64C11 19.64 9.68 18.88 9.68 17.89C9.68 16.9 10.68 16.29 12.74 16.16V15.5599H8.86V14.36H18.25V15.5599H14.32ZM16.91 13.98C15.7055 13.8747 14.5501 13.454 13.56 12.76C12.5827 13.4782 11.4203 13.9016 10.21 13.98L9.43999 12.98C9.92999 12.92 11.76 12.66 12.26 12.13H9.8V10.99H17.23V12.13H14.79C15.6867 12.6041 16.6695 12.8931 17.68 12.98L16.91 13.98ZM13.55 17.24C12.19 17.24 11.47 17.42 11.47 17.88C11.47 18.34 12.2 18.49 13.56 18.49C14.92 18.49 15.56 18.25 15.56 17.89C15.56 17.53 14.83 17.24 13.5 17.24M11.5 9.39001H15.57V10.48H11.51L11.5 9.39001Z" fill="#E6E6E6"/>
<path d="M25.67 14.6899V13.51H29.59V12.87H26.81V9.87H33.95V11.04H28.32V11.7H34.06V12.88H31.12V13.52H35.12V14.7L25.67 14.6899ZM26.81 19.38V16.72H32.34V16.24H26.81V15.12H33.95V17.79H28.41V18.28H34.17V19.39L26.81 19.38Z" fill="#E6E6E6"/>
<path d="M47.3 16.3199V19.49H45.86V16.3199H41.86V15.03H51.25V16.3199H47.3ZM49.88 14.3199C48.6264 14.0789 47.4776 13.4574 46.59 12.54C45.7418 13.515 44.5698 14.1506 43.29 14.33L42.46 13.25C43.8 13.05 45.54 12.18 45.77 11.25H42.95V9.96997H50.24V11.24H47.43C47.8 12.24 49.55 13.04 50.74 13.24L49.88 14.3199Z" fill="#E6E6E6"/>
<path d="M62.22 17.63C60.99 17.63 59.12 17.63 59.02 17.63V16.3199C59.15 16.3199 61.62 16.3199 62.91 16.3199C63.79 16.3199 65.13 16.1 65.77 16V17.24C64.5997 17.4742 63.4126 17.6147 62.22 17.66M62.17 15.3199C61.6695 15.283 61.1906 15.1009 60.792 14.7959C60.3935 14.4909 60.0925 14.0763 59.9261 13.6028C59.7596 13.1293 59.7348 12.6176 59.8548 12.1302C59.9748 11.6429 60.2343 11.2011 60.6016 10.859C60.9688 10.5169 61.4279 10.2895 61.9225 10.2043C62.4171 10.1192 62.9258 10.1802 63.3863 10.3799C63.8467 10.5795 64.239 10.9092 64.515 11.3284C64.7909 11.7476 64.9386 12.2381 64.94 12.74C64.9352 13.0937 64.8588 13.4427 64.7155 13.7661C64.5721 14.0895 64.3648 14.3804 64.1059 14.6215C63.8471 14.8625 63.5421 15.0488 63.2094 15.1688C62.8767 15.2889 62.5231 15.3402 62.17 15.3199ZM62.17 11.4399C61.9933 11.4273 61.8158 11.4519 61.6491 11.512C61.4824 11.572 61.3301 11.6663 61.202 11.7887C61.0739 11.9111 60.9729 12.0591 60.9054 12.2229C60.8379 12.3867 60.8054 12.5629 60.81 12.74C60.8042 12.9188 60.8356 13.0968 60.9023 13.2628C60.969 13.4288 61.0695 13.5791 61.1974 13.7042C61.3253 13.8293 61.4778 13.9264 61.6452 13.9894C61.8127 14.0524 61.9914 14.0797 62.17 14.0699C62.3523 14.0859 62.536 14.0637 62.7093 14.0049C62.8826 13.946 63.0417 13.8518 63.1767 13.7281C63.3116 13.6045 63.4193 13.454 63.493 13.2865C63.5667 13.119 63.6048 12.938 63.6048 12.755C63.6048 12.572 63.5667 12.3909 63.493 12.2234C63.4193 12.0559 63.3116 11.9055 63.1767 11.7819C63.0417 11.6582 62.8826 11.564 62.7093 11.5051C62.536 11.4463 62.3523 11.424 62.17 11.4399ZM66.1 9.64001H67.52V19.52H66.1V9.64001Z" fill="#E6E6E6"/>
<path d="M14.32 15.5599V16.16C16.32 16.29 17.32 17.01 17.32 17.89C17.32 18.77 16.02 19.64 13.51 19.64C11 19.64 9.68 18.88 9.68 17.89C9.68 16.9 10.68 16.29 12.74 16.16V15.5599H8.86V14.36H18.25V15.5599H14.32ZM16.91 13.98C15.7055 13.8747 14.5501 13.454 13.56 12.76C12.5827 13.4782 11.4203 13.9016 10.21 13.98L9.43999 12.98C9.92999 12.92 11.76 12.66 12.26 12.13H9.8V10.99H17.23V12.13H14.79C15.6867 12.6041 16.6695 12.8931 17.68 12.98L16.91 13.98ZM13.55 17.24C12.19 17.24 11.47 17.42 11.47 17.88C11.47 18.34 12.2 18.49 13.56 18.49C14.92 18.49 15.56 18.25 15.56 17.89C15.56 17.53 14.83 17.24 13.5 17.24M11.5 9.39001H15.57V10.48H11.51L11.5 9.39001Z" fill="#231916"/>
<path d="M25.67 14.6899V13.51H29.59V12.87H26.81V9.87H33.95V11.04H28.32V11.7H34.06V12.88H31.12V13.52H35.12V14.7L25.67 14.6899ZM26.81 19.38V16.72H32.34V16.24H26.81V15.12H33.95V17.79H28.41V18.28H34.17V19.39L26.81 19.38Z" fill="#231916"/>
<path d="M47.3 16.3199V19.49H45.86V16.3199H41.86V15.03H51.25V16.3199H47.3ZM49.88 14.3199C48.6264 14.0789 47.4776 13.4574 46.59 12.54C45.7418 13.515 44.5698 14.1506 43.29 14.33L42.46 13.25C43.8 13.05 45.54 12.18 45.77 11.25H42.95V9.96997H50.24V11.24H47.43C47.8 12.24 49.55 13.04 50.74 13.24L49.88 14.3199Z" fill="#231916"/>
<path d="M62.22 17.63C60.99 17.63 59.12 17.63 59.02 17.63V16.3199C59.15 16.3199 61.62 16.3199 62.91 16.3199C63.79 16.3199 65.13 16.1 65.77 16V17.24C64.5997 17.4742 63.4126 17.6147 62.22 17.66M62.17 15.3199C61.6695 15.283 61.1906 15.1009 60.792 14.7959C60.3935 14.4909 60.0925 14.0763 59.9261 13.6028C59.7596 13.1293 59.7348 12.6176 59.8548 12.1302C59.9748 11.6429 60.2343 11.2011 60.6016 10.859C60.9688 10.5169 61.4279 10.2895 61.9225 10.2043C62.4171 10.1192 62.9258 10.1802 63.3863 10.3799C63.8467 10.5795 64.239 10.9092 64.515 11.3284C64.7909 11.7476 64.9386 12.2381 64.94 12.74C64.9352 13.0937 64.8588 13.4427 64.7155 13.7661C64.5721 14.0895 64.3648 14.3804 64.1059 14.6215C63.8471 14.8625 63.5421 15.0488 63.2094 15.1688C62.8767 15.2889 62.5231 15.3402 62.17 15.3199ZM62.17 11.4399C61.9933 11.4273 61.8158 11.4519 61.6491 11.512C61.4824 11.572 61.3301 11.6663 61.202 11.7887C61.0739 11.9111 60.9729 12.0591 60.9054 12.2229C60.8379 12.3867 60.8054 12.5629 60.81 12.74C60.8042 12.9188 60.8356 13.0968 60.9023 13.2628C60.969 13.4288 61.0695 13.5791 61.1974 13.7042C61.3253 13.8293 61.4778 13.9264 61.6452 13.9894C61.8127 14.0524 61.9914 14.0797 62.17 14.0699C62.3523 14.0859 62.536 14.0637 62.7093 14.0049C62.8826 13.946 63.0417 13.8518 63.1767 13.7281C63.3116 13.6045 63.4193 13.454 63.493 13.2865C63.5667 13.119 63.6048 12.938 63.6048 12.755C63.6048 12.572 63.5667 12.3909 63.493 12.2234C63.4193 12.0559 63.3116 11.9055 63.1767 11.7819C63.0417 11.6582 62.8826 11.564 62.7093 11.5051C62.536 11.4463 62.3523 11.424 62.17 11.4399ZM66.1 9.64001H67.52V19.52H66.1V9.64001Z" fill="#231916"/>
</g>
<defs>
<clipPath id="clip0_8063_7960">
<rect width="76.39" height="29.05" fill="white"/>
</clipPath>
</defs>
</svg>
