<svg width="73" height="73" viewBox="0 0 73 73" fill="none" xmlns="http://www.w3.org/2000/svg">
<g clip-path="url(#clip0_8063_9542)">
<path d="M20.3018 0.552002L10.715 16.4819L20.3018 31.0061V20.737C24.17 20.8911 27.3935 24.8896 27.3935 28.6956V46.6215H30.617V26.8921C30.617 17.9837 24.9179 14.3254 20.4629 11.8736" fill="white"/>
<path d="M20.3018 0.552002L10.715 16.4819L20.3018 31.0061V20.737C24.17 20.8911 27.3935 24.8896 27.3935 28.6956V46.6215H30.617V26.8921C30.617 17.9837 24.9179 14.3254 20.4629 11.8736L20.3018 0.552002Z" stroke="#231916" stroke-width="0.49"/>
<path d="M56.9146 2.66357L52.8787 26.2503H56.7212V48.4699H59.3451V26.2503H61.9691" fill="white"/>
<path d="M56.9146 2.66357L52.8787 26.2503H56.7212V48.4699H59.3451V26.2503H61.9691L56.9146 2.66357Z" stroke="#231916" stroke-width="0.49"/>
<path d="M2.80446 54.9971H5.31881L7.98145 72.6149L5.88616 72.5379L4.02296 61.7875L2.65618 72.6149H0.180511" fill="white"/>
<path d="M2.80446 54.9971H5.31881L7.98145 72.6149L5.88616 72.5379L4.02296 61.7875L2.65618 72.6149H0.180511L2.80446 54.9971Z" stroke="#231916" stroke-width="0.49"/>
<path d="M8.62616 54.3168H11.1341V72.5764H8.73576V62.808H6.7952V60.2792H8.62616" fill="white"/>
<path d="M8.62616 54.3168H11.1341V72.5764H8.73576V62.808H6.7952V60.2792H8.62616V54.3168Z" stroke="#231916" stroke-width="0.49"/>
<path d="M17.5618 72.3902L12.5847 72.3132V54.92H17.4457V57.6028H14.8218V69.8615H17.4457" fill="white"/>
<path d="M17.5618 72.3902L12.5847 72.3132V54.92H17.4457V57.6028H14.8218V69.8615H17.4457L17.5618 72.3902Z" stroke="#231916" stroke-width="0.49"/>
<path d="M18.3161 69.9V72.5764H20.5983V62.808H21.7008V72.5764H24.0991V54.3168H21.5912V60.2792H20.5983V54.3168H18.3161V67.0311" fill="white"/>
<path d="M18.3161 69.9V72.5764H20.5983V62.808H21.7008V72.5764H24.0991V54.3168H21.5912V60.2792H20.5983V54.3168H18.3161V67.0311V69.9Z" stroke="#231916" stroke-width="0.49"/>
<path d="M31.1715 54.6184H36.9738V61.2099H31.1715V58.9828H34.2597V57.2498H31.1779M25.627 54.6441H31.1779V57.2498H28.1414V58.9828H31.1779V61.2099H25.627V54.6441Z" fill="white"/>
<path d="M25.6206 54.6184H36.9545V61.2099H25.6206V54.6184ZM28.1349 58.9571H34.2596V57.2242H28.1414L28.1349 58.9571Z" stroke="#231916" stroke-width="0.49"/>
<path d="M25.0855 62.808H37.6701V65.2597H33.789V68.5394H31.3198V65.2597H25.0855" fill="white"/>
<path d="M25.0855 62.808H37.6701V65.2597H33.789V68.5394H31.3198V65.2597H25.0855V62.808Z" stroke="#231916" stroke-width="0.49"/>
<path d="M25.5819 66.6909H28.2381V70.0155H37.135V72.4223H25.5819" fill="white"/>
<path d="M25.5819 66.6909H28.2381V70.0155H37.135V72.4223H25.5819V66.6909Z" stroke="#231916" stroke-width="0.49"/>
<path d="M44.3686 54.766H56.7985V57.0701H52.0793L56.9468 61.7489L53.8329 61.6719L50.4095 58.7324L47.3665 61.6719H44.3235L48.8558 56.9995H44.3686" fill="white"/>
<path d="M44.3686 54.766H56.7985V57.0701H52.0793L56.9468 61.7489L53.8329 61.6719L50.4095 58.7324L47.3665 61.6719H44.3235L48.8558 56.9995H44.3686V54.766Z" stroke="#231916" stroke-width="0.49"/>
<path d="M49.3071 61.1842H51.7827V62.885H57.1789V65.1891H44.1365V62.9556H49.2297" fill="white"/>
<path d="M49.3071 61.1842H51.7827V62.885H57.1789V65.1891H44.1365V62.9556H49.2297L49.3071 61.1842Z" stroke="#231916" stroke-width="0.49"/>
<path d="M50.6738 66.6204H53.9876C55.3544 66.6204 56.9146 68.1607 56.9146 69.7524C56.9146 71.3441 56.0378 72.7689 53.6395 72.7689H50.6738V70.6189H53.1882C54.2842 70.6189 54.1359 68.918 53.1882 68.918H50.6738M47.7082 66.6204H50.6738V68.9116H48.6237C46.9861 68.9116 46.9088 70.6124 48.5463 70.6124H50.6738V72.7625H47.5212C47.1178 72.7824 46.7144 72.7229 46.334 72.5875C45.9537 72.4522 45.6038 72.2435 45.3045 71.9735C45.0051 71.7036 44.7622 71.3775 44.5894 71.014C44.4167 70.6505 44.3175 70.2567 44.2977 69.8551C44.2901 69.415 44.375 68.9783 44.5466 68.5727C44.7182 68.1671 44.973 67.8017 45.2946 67.4996C45.6161 67.1976 45.9974 66.9657 46.4141 66.8187C46.8308 66.6718 47.2738 66.6129 47.7146 66.646" fill="white"/>
<path d="M47.7082 66.614H53.9876C55.3544 66.614 56.9146 68.1608 56.9146 69.7525C56.9146 71.3442 56.0378 72.769 53.6395 72.769H47.5212C47.1177 72.7889 46.7144 72.7294 46.334 72.594C45.9536 72.4587 45.6038 72.25 45.3045 71.98C45.0051 71.71 44.7621 71.384 44.5894 71.0205C44.4167 70.657 44.3175 70.2632 44.2977 69.8615C44.2857 69.4192 44.367 68.9792 44.5362 68.5699C44.7054 68.1607 44.9587 67.7912 45.28 67.4853C45.6012 67.1794 45.9832 66.9439 46.4014 66.7938C46.8197 66.6437 47.2648 66.5825 47.7082 66.614ZM48.5463 70.6125H53.1882C54.2842 70.6125 54.1359 68.9181 53.1882 68.9181H48.6237C46.9861 68.9117 46.9088 70.6125 48.5463 70.6125Z" stroke="#231916" stroke-width="0.49"/>
<path d="M60.7893 54.766H72.1619V61.1071H63.4906V63.3342H72.0845V65.6383H60.7119V58.8864H69.6862V56.7684H60.7893" fill="white"/>
<path d="M60.7893 54.766H72.1619V61.1071H63.4906V63.3342H72.0845V65.6383H60.7119V58.8864H69.6862V56.7684H60.7893V54.766Z" stroke="#231916" stroke-width="0.49"/>
<path d="M64.7478 67.2622H67.52V70.3108H72.8453V72.8396H59.6546V70.4649H64.7478" fill="white"/>
<path d="M64.7478 67.2622H67.52V70.3108H72.8453V72.8396H59.6546V70.4649H64.7478V67.2622Z" stroke="#231916" stroke-width="0.49"/>
</g>
<defs>
<clipPath id="clip0_8063_9542">
<rect width="73" height="73" fill="white"/>
</clipPath>
</defs>
</svg>
