<svg width="75" height="66" viewBox="0 0 75 66" fill="none" xmlns="http://www.w3.org/2000/svg">
<g clip-path="url(#clip0_8062_5669)">
<path d="M73.26 59.71L40.64 2.58002C38.87 -0.539979 35.64 -0.539979 33.86 2.58002L1.06999 59.84C-0.930009 63.07 0.779969 65.65 4.60997 65.65H69.66C73.79 65.65 75.26 63.18 73.26 59.71Z" fill="white"/>
<path d="M73.26 59.71L40.64 2.58002C38.87 -0.539979 35.64 -0.539979 33.86 2.58002L1.06999 59.84C-0.930009 63.07 0.779969 65.65 4.60997 65.65H69.66C73.79 65.65 75.26 63.18 73.26 59.71Z" stroke="#D20D18" stroke-width="0.49"/>
<path d="M71.78 60.18L39.47 3.45999C38.28 1.39999 36.22 1.46001 35.1 3.52001L2.54996 60.24C1.36996 62.3 2.61 63.89 4.85 63.89H69.31C71.84 63.89 72.96 62.18 71.78 60.18Z" fill="#D20D18"/>
<path d="M37.1 12.69L11.62 57.49H63.05" fill="#F8B500"/>
<path d="M37.1 12.69L11.62 57.49H63.05L37.1 12.69Z" stroke="#D20D18" stroke-width="0.56"/>
<path d="M43.11 28.5V54.07H34.62V45.61H26.02V37.03H34.62V28.5" fill="#231916"/>
</g>
<defs>
<clipPath id="clip0_8062_5669">
<rect width="74.39" height="65.9" fill="white"/>
</clipPath>
</defs>
</svg>
