<svg width="77" height="46" viewBox="0 0 77 46" fill="none" xmlns="http://www.w3.org/2000/svg">
<g clip-path="url(#clip0_8063_7830)">
<path d="M5.89006 45.21C4.40371 45.2143 2.9722 44.6489 1.89006 43.63C1.36437 43.1054 0.947928 42.4817 0.664716 41.7952C0.381505 41.1086 0.237116 40.3727 0.240034 39.63" stroke="#231916" stroke-width="0.49"/>
<path d="M0.23999 39.63V5.82996" stroke="#231916" stroke-width="0.49"/>
<path d="M0.239937 5.81993C0.236244 5.08752 0.380482 4.36194 0.66401 3.68663C0.947537 3.01132 1.36454 2.40019 1.88996 1.88993C2.41292 1.36199 3.03625 0.943997 3.72321 0.660626C4.41017 0.377254 5.14687 0.234206 5.88996 0.23991" stroke="#231916" stroke-width="0.49"/>
<path d="M5.84 0.23999H70.54" stroke="#231916" stroke-width="0.49"/>
<path d="M70.54 0.23999C71.2732 0.241145 71.9989 0.387571 72.6752 0.670776C73.3514 0.953982 73.9648 1.36838 74.48 1.89001C75.0077 2.39907 75.4269 3.00975 75.7122 3.68518C75.9975 4.36061 76.143 5.0868 76.14 5.82001" stroke="#231916" stroke-width="0.49"/>
<path d="M76.14 5.82996V39.63" stroke="#231916" stroke-width="0.49"/>
<path d="M76.14 39.63C76.1433 40.3736 75.9982 41.1105 75.7131 41.7974C75.4281 42.4842 75.0088 43.1072 74.48 43.63C73.4179 44.6425 72.0074 45.2082 70.54 45.21" stroke="#231916" stroke-width="0.49"/>
<path d="M70.54 45.22H5.84" stroke="#231916" stroke-width="0.49"/>
<path d="M5.89004 43.15C5.43061 43.159 4.97405 43.075 4.54787 42.9032C4.1217 42.7314 3.73473 42.4752 3.41006 42.15C2.76592 41.4896 2.40682 40.6026 2.41006 39.6801" stroke="#231916" stroke-width="0.49"/>
<path d="M2.35999 39.63V5.82996" stroke="#231916" stroke-width="0.49"/>
<path d="M2.35995 5.81995C2.35347 4.89676 2.71304 4.00864 3.35995 3.34998C4.02278 2.70945 4.90818 2.35098 5.82992 2.34998" stroke="#231916" stroke-width="0.49"/>
<path d="M5.84 2.35999H70.54" stroke="#231916" stroke-width="0.49"/>
<path d="M70.54 2.38993C70.9976 2.38187 71.452 2.46574 71.8766 2.63652C72.3011 2.80729 72.6871 3.0615 73.0116 3.38414C73.3361 3.70678 73.5925 4.09126 73.7657 4.51481C73.939 4.93836 74.0254 5.39239 74.02 5.84996" stroke="#231916" stroke-width="0.49"/>
<path d="M74.02 5.82996V39.63" stroke="#231916" stroke-width="0.49"/>
<path d="M74.02 39.63C74.0249 40.0874 73.939 40.5411 73.7673 40.9651C73.5957 41.3891 73.3417 41.7748 73.02 42.1C72.6975 42.428 72.3108 42.6861 71.8842 42.8582C71.4575 43.0302 70.9999 43.1125 70.54 43.1" stroke="#231916" stroke-width="0.49"/>
<path d="M70.54 43.16H5.84" stroke="#231916" stroke-width="0.49"/>
<path d="M48.98 16.23C49.16 14.94 50.57 14.7599 50.75 16.1099C50.86 16.6399 50.7501 17.6999 50.8101 18.0499C53.8701 18.5799 59.8101 20.29 59.8101 24.93C58.7501 24.34 58.1601 24.3399 57.4501 24.8699C56.7401 25.3999 56.39 24.8099 56.22 24.5799C56.05 24.3499 55.74 23.93 55.27 24.28C54.8 24.63 54.27 24.8699 53.74 24.3399C53.4712 24.1266 53.1382 24.0104 52.795 24.0104C52.4519 24.0104 52.1188 24.1266 51.85 24.3399C51.4949 24.5695 51.1201 24.767 50.73 24.93V31.57C50.73 36.1 48.3 36.81 47.14 36.81C45.98 36.81 43.24 36.33 43.24 33.57C43.24 32.51 44.89 32.57 44.89 33.45C44.89 34.92 45.48 35.2099 47.14 35.2099C49.02 35.2099 49.02 32.63 49.02 31.57V24.3899C48.8112 24.2649 48.564 24.2203 48.3247 24.2645C48.0854 24.3086 47.8703 24.4386 47.72 24.6299C47.49 24.9199 46.95 24.5699 46.54 24.2199C46.4532 24.156 46.3539 24.1111 46.2487 24.0881C46.1434 24.065 46.0344 24.0643 45.9288 24.086C45.8233 24.1077 45.7235 24.1512 45.6359 24.2139C45.5482 24.2766 45.4747 24.3571 45.42 24.45C45.24 24.8 44.65 24.6899 44.3 24.3299C44.1677 24.1845 43.9865 24.0931 43.791 24.0728C43.5955 24.0525 43.3993 24.1048 43.24 24.2199C42.89 24.4499 42.2901 24.8599 41.8201 24.3899C41.6214 24.1555 41.3433 24.0024 41.0389 23.96C40.7346 23.9176 40.4253 23.9888 40.17 24.16C39.8594 24.3609 39.523 24.519 39.17 24.6299C39.17 22.5699 42.47 18.04 48.9 18.04C48.8653 17.4327 48.8853 16.8236 48.96 16.22" fill="#231916"/>
<path d="M39.36 17.4601C40.55 15.9901 43.36 12.46 44.09 11.64C44.82 10.82 45.73 11.52 45.15 12.24C44.57 12.96 41.15 17.05 40.77 17.58C40.39 18.11 38.95 18.3501 39.36 17.4601Z" fill="#231916"/>
<path d="M43.7299 17.17C44.9099 15.64 47.73 12.17 48.45 11.35C49.17 10.53 50.1 11.2299 49.51 11.9399C48.92 12.6499 45.51 16.7 45.2 17.23C44.89 17.76 43.3199 17.99 43.7299 17.17Z" fill="#231916"/>
<path d="M55.89 17.29C57.06 15.82 59.89 12.23 60.61 11.47C61.33 10.71 62.26 11.35 61.67 12.05C61.08 12.75 57.67 16.88 57.36 17.34C57.05 17.8 55.47 18.12 55.89 17.29Z" fill="#231916"/>
<path d="M52.75 16.11C53.75 14.88 56.17 11.88 56.75 11.24C57.33 10.6 58.3401 11.41 57.8101 12C57.2801 12.59 54.45 16 54.16 16.47C53.87 16.94 52.39 16.82 52.74 16.11" fill="#231916"/>
<path d="M50.1 14.17C50.8748 13.1283 51.7026 12.1269 52.5799 11.17C53.1699 10.47 54.17 11.3499 53.64 11.9399C53.11 12.5299 51.81 14.05 51.51 14.47C51.21 14.89 49.74 14.88 50.1 14.17Z" fill="#231916"/>
<path d="M58.59 19.05C60 17.17 63.5901 12.88 64.4301 11.94C65.2701 11 66.43 11.76 65.73 12.65C65.03 13.54 60.78 18.46 60.36 19.11C59.94 19.76 58.06 20.05 58.59 19.05Z" fill="#231916"/>
<path d="M21.2601 35.16C22.8687 35.1482 24.4376 34.6599 25.769 33.757C27.1003 32.854 28.1343 31.5768 28.7403 30.0867C29.3463 28.5965 29.4973 26.9604 29.174 25.3845C28.8507 23.8087 28.0678 22.3639 26.924 21.2327C25.7803 20.1015 24.327 19.3346 22.7477 19.0287C21.1684 18.7229 19.5338 18.8918 18.0505 19.5142C16.5671 20.1366 15.3015 21.1846 14.4133 22.5258C13.5251 23.867 13.0542 25.4414 13.0601 27.05C13.0653 28.1212 13.2817 29.1808 13.6967 30.1682C14.1118 31.1557 14.7174 32.0516 15.4789 32.8048C16.2405 33.558 17.1431 34.1537 18.1351 34.5579C19.127 34.962 20.1889 35.1666 21.2601 35.16Z" stroke="#231916" stroke-width="0.98"/>
<path d="M21.3201 20.8199C22.4749 20.8121 23.5804 20.3506 24.3979 19.5349C25.2155 18.7192 25.6796 17.6148 25.6901 16.46C25.6364 15.3384 25.153 14.2806 24.3403 13.5059C23.5276 12.7311 22.4479 12.299 21.3251 12.299C20.2023 12.299 19.1224 12.7311 18.3097 13.5059C17.497 14.2806 17.0137 15.3384 16.96 16.46C16.9678 17.6139 17.4298 18.7183 18.2457 19.5342C19.0617 20.3502 20.1662 20.8121 21.3201 20.8199Z" fill="white"/>
<path d="M21.3201 20.8199C22.4749 20.8121 23.5804 20.3506 24.3979 19.5349C25.2155 18.7192 25.6796 17.6148 25.6901 16.46C25.6364 15.3384 25.153 14.2806 24.3403 13.5059C23.5276 12.7311 22.4479 12.299 21.3251 12.299C20.2023 12.299 19.1224 12.7311 18.3097 13.5059C17.497 14.2806 17.0137 15.3384 16.96 16.46C16.9678 17.6139 17.4298 18.7183 18.2457 19.5342C19.0617 20.3502 20.1662 20.8121 21.3201 20.8199Z" stroke="#231916" stroke-width="0.98"/>
<path d="M21.26 17.39C21.67 17.39 21.96 16.93 21.96 16.34C21.96 15.75 21.67 15.34 21.26 15.34C20.85 15.34 20.49 15.81 20.49 16.34C20.49 16.87 20.84 17.39 21.26 17.39Z" fill="#231916"/>
<path d="M20.67 15.06C20.7719 15.0655 20.8719 15.0309 20.9485 14.9636C21.0251 14.8963 21.0723 14.8017 21.08 14.7C21.0813 14.6458 21.0718 14.5919 21.0516 14.5415C21.0315 14.4911 21.0014 14.4454 20.963 14.407C20.9247 14.3687 20.8789 14.3385 20.8285 14.3184C20.7781 14.2983 20.7243 14.2887 20.67 14.29H18.89C18.8358 14.2887 18.7818 14.2983 18.7315 14.3184C18.6811 14.3385 18.6354 14.3687 18.5971 14.407C18.5587 14.4454 18.5285 14.4911 18.5084 14.5415C18.4883 14.5919 18.4786 14.6458 18.48 14.7C18.4877 14.8017 18.5349 14.8963 18.6116 14.9636C18.6882 15.0309 18.7882 15.0655 18.89 15.06" fill="#231916"/>
<path d="M23.89 15.06C23.9814 15.0508 24.0666 15.0097 24.1306 14.9438C24.1946 14.878 24.2334 14.7916 24.24 14.7C24.2433 14.6003 24.2092 14.503 24.1444 14.4272C24.0797 14.3513 23.989 14.3025 23.89 14.29H22.11C22.0012 14.29 21.897 14.3332 21.8201 14.4101C21.7432 14.487 21.7001 14.5913 21.7001 14.7C21.7102 14.8008 21.758 14.8939 21.8341 14.9608C21.9102 15.0276 22.0088 15.063 22.11 15.06" fill="#231916"/>
<path d="M19.73 17.76C20.08 18.99 22.44 19.05 23.21 17.82" stroke="#231916" stroke-width="0.68"/>
<path d="M21.3201 12.58C21.6345 12.5408 21.9238 12.388 22.1335 12.1505C22.3433 11.9129 22.4591 11.6069 22.4591 11.29C22.4591 10.9731 22.3433 10.6671 22.1335 10.4296C21.9238 10.192 21.6345 10.0392 21.3201 10C21.0056 10.0392 20.7162 10.192 20.5065 10.4296C20.2967 10.6671 20.1809 10.9731 20.1809 11.29C20.1809 11.6069 20.2967 11.9129 20.5065 12.1505C20.7162 12.388 21.0056 12.5408 21.3201 12.58Z" fill="#231916"/>
<path d="M21.2001 13.39C23.5701 13.39 25.4401 13.04 25.4401 12.57C25.4401 12.1 23.5701 11.74 21.2001 11.74C18.8301 11.74 16.96 12.09 16.96 12.57C16.96 13.05 18.9001 13.39 21.2001 13.39Z" fill="#231916"/>
</g>
<defs>
<clipPath id="clip0_8063_7830">
<rect width="76.39" height="45.46" fill="white"/>
</clipPath>
</defs>
</svg>
