<svg width="76" height="66" viewBox="0 0 76 66" fill="none" xmlns="http://www.w3.org/2000/svg">
<g clip-path="url(#clip0_8058_5605)">
<path d="M1.11918 59.6392L34.2913 2.57109C36.086 -0.524306 39.3327 -0.524306 41.198 2.57109L74.4709 59.7602C76.4874 63.027 74.8339 65.5679 70.9016 65.5679H4.79937C0.574716 65.5679 -0.846947 63.0774 1.11918 59.6392Z" fill="white"/>
<path d="M1.11918 59.6392L34.2913 2.57109C36.086 -0.524306 39.3327 -0.524306 41.198 2.57109L74.4709 59.7602C76.4874 63.027 74.8339 65.5679 70.9016 65.5679H4.79937C0.574716 65.5981 -0.846947 63.1077 1.11918 59.6392Z" stroke="#CF1F25" stroke-width="0.49"/>
<path d="M2.60134 60.3248L35.4811 3.72051C36.6708 1.64347 38.7579 1.70397 39.9477 3.72051L73.0089 60.4458C74.1987 62.4624 72.9484 64.0554 70.6294 64.0554H5.16235C2.60134 64.0554 1.47208 62.3313 2.60134 60.3248Z" fill="#CF1F25"/>
<path d="M37.8707 12.9059L63.7933 57.5925H11.5145" fill="#FCAF17"/>
<path d="M37.8707 12.9059L63.7933 57.5925H11.5145L37.8707 12.9059Z" stroke="#CF1F25" stroke-width="0.57"/>
<path d="M33.525 31.3976H42.2062V39.0402H49.8187V46.693H42.1457V54.3357H33.4645V46.693H25.9126V39.0402H33.525" fill="#231F20"/>
</g>
<defs>
<clipPath id="clip0_8058_5605">
<rect width="75.58" height="65.8099" fill="white"/>
</clipPath>
</defs>
</svg>
