<svg width="46" height="61" viewBox="0 0 46 61" fill="none" xmlns="http://www.w3.org/2000/svg">
<g clip-path="url(#clip0_8101_93)">
<path d="M39.6781 56.0849H38.5798V60.7255H37.4814V56.0025H36.2595L37.9757 50.7441L39.6781 56.0849Z" stroke="#231F20" stroke-width="0.41"/>
<path d="M32.4153 56.0849H31.3169V60.3685H30.2323V56.0025H28.9829L30.7677 50.7441L32.4153 56.0849Z" stroke="#231F20" stroke-width="0.41"/>
<path d="M22.0083 12.7822H0.288319V18.5898H22.0083V12.7822Z" fill="white"/>
<path d="M22.0083 12.7822H0.288319V18.5898H22.0083V12.7822Z" stroke="#231F20" stroke-width="0.41"/>
<path d="M22.0083 24.5894H0.288319V30.4518H22.0083V24.5894Z" fill="white"/>
<path d="M22.0083 24.5894H0.288319V30.4518H22.0083V24.5894Z" stroke="#231F20" stroke-width="0.41"/>
<path d="M22.0083 36.4106H0.288319V42.2731H22.0083V36.4106Z" fill="white"/>
<path d="M22.0083 36.4106H0.288319V42.2731H22.0083V36.4106Z" stroke="#231F20" stroke-width="0.41"/>
<path d="M22.0083 48.2866H0.288319V54.0942H22.0083V48.2866Z" fill="white"/>
<path d="M22.0083 48.2866H0.288319V54.0942H22.0083V48.2866Z" stroke="#231F20" stroke-width="0.41"/>
<path d="M45.3621 7.66113H23.6421V13.4687H45.3621V7.66113Z" fill="white"/>
<path d="M45.3621 7.66113H23.6421V13.4687H45.3621V7.66113Z" stroke="#231F20" stroke-width="0.41"/>
<path d="M45.3621 19.4683H23.6421V25.2758H45.3621V19.4683Z" fill="white"/>
<path d="M45.3621 19.4683H23.6421V25.2758H45.3621V19.4683Z" stroke="#231F20" stroke-width="0.41"/>
<path d="M45.3621 31.2756H23.6421V37.0832H45.3621V31.2756Z" fill="white"/>
<path d="M45.3621 31.2756H23.6421V37.0832H45.3621V31.2756Z" stroke="#231F20" stroke-width="0.41"/>
<path d="M45.3621 43.0967H23.6421V48.9042H45.3621V43.0967Z" fill="white"/>
<path d="M45.3621 43.0967H23.6421V48.9042H45.3621V43.0967Z" stroke="#231F20" stroke-width="0.41"/>
<path d="M3.70695 5.67028H4.80531V0.28833H5.88994V5.73893H7.13932L5.35449 10.9973L3.70695 5.67028Z" stroke="#231F20" stroke-width="0.41"/>
<path d="M13.4411 5.67028H14.5395V0.28833H15.5692V5.73893H16.8735L15.0887 10.9973L13.4411 5.67028Z" stroke="#231F20" stroke-width="0.41"/>
</g>
<defs>
<clipPath id="clip0_8101_93">
<rect width="45.6505" height="61" fill="white"/>
</clipPath>
</defs>
</svg>
