<svg width="70" height="70" viewBox="0 0 70 70" fill="none" xmlns="http://www.w3.org/2000/svg">
<g clip-path="url(#clip0_8072_720)">
<path d="M23.4329 5.6133L5.60678 23.4395L8.31497 26.1476L26.1411 8.32149L23.4329 5.6133Z" fill="white"/>
<path d="M23.4329 5.6133L5.60678 23.4395L8.31497 26.1476L26.1411 8.32149L23.4329 5.6133Z" stroke="#231F20" stroke-width="0.49"/>
<path d="M18.1671 0.340348L0.340942 18.1665L3.02086 20.8464L20.847 3.02027L18.1671 0.340348Z" fill="white"/>
<path d="M18.1671 0.340348L0.340942 18.1665L3.02086 20.8464L20.847 3.02027L18.1671 0.340348Z" stroke="#231F20" stroke-width="0.49"/>
<path d="M28.8184 10.9905L10.9923 28.8167L13.6722 31.4966L31.4984 13.6705L28.8184 10.9905Z" fill="white"/>
<path d="M28.8184 10.9905L10.9923 28.8167L13.6722 31.4966L31.4984 13.6705L28.8184 10.9905Z" stroke="#231F20" stroke-width="0.49"/>
<path d="M34.2618 16.4304L16.4356 34.2566L19.1156 36.9366L36.9417 19.1104L34.2618 16.4304Z" fill="white"/>
<path d="M34.2618 16.4304L16.4356 34.2566L19.1156 36.9366L36.9417 19.1104L34.2618 16.4304Z" stroke="#231F20" stroke-width="0.49"/>
<path d="M55.9136 38.0862L38.0875 55.9124L40.7957 58.6206L58.6218 40.7944L55.9136 38.0862Z" fill="white"/>
<path d="M55.9136 38.0862L38.0875 55.9124L40.7957 58.6206L58.6218 40.7944L55.9136 38.0862Z" stroke="#231F20" stroke-width="0.49"/>
<path d="M50.6507 32.8303L32.8246 50.6565L35.5045 53.3364L53.3307 35.5102L50.6507 32.8303Z" fill="white"/>
<path d="M50.6507 32.8303L32.8246 50.6565L35.5045 53.3364L53.3307 35.5102L50.6507 32.8303Z" stroke="#231F20" stroke-width="0.49"/>
<path d="M61.3021 43.4705L43.476 61.2966L46.1559 63.9765L63.982 46.1504L61.3021 43.4705Z" fill="white"/>
<path d="M61.3021 43.4705L43.476 61.2966L46.1559 63.9765L63.982 46.1504L61.3021 43.4705Z" stroke="#231F20" stroke-width="0.49"/>
<path d="M66.7454 48.9104L48.9193 66.7366L51.5992 69.4165L69.4254 51.5904L66.7454 48.9104Z" fill="white"/>
<path d="M66.7454 48.9104L48.9193 66.7366L51.5992 69.4165L69.4254 51.5904L66.7454 48.9104Z" stroke="#231F20" stroke-width="0.49"/>
<path d="M50.3091 1.63068L47.601 4.33887L65.4271 22.165L68.1353 19.4569L50.3091 1.63068Z" fill="white"/>
<path d="M50.3091 1.63068L47.601 4.33887L65.4271 22.165L68.1353 19.4569L50.3091 1.63068Z" stroke="#231F20" stroke-width="0.49"/>
<path d="M44.915 7.02316L42.2351 9.70312L60.0613 27.5293L62.7412 24.8493L44.915 7.02316Z" fill="white"/>
<path d="M44.915 7.02316L42.2351 9.70312L60.0613 27.5293L62.7412 24.8493L44.915 7.02316Z" stroke="#231F20" stroke-width="0.49"/>
<path d="M39.4779 12.4595L36.798 15.1394L54.6242 32.9656L57.3041 30.2857L39.4779 12.4595Z" fill="white"/>
<path d="M39.4779 12.4595L36.798 15.1394L54.6242 32.9656L57.3041 30.2857L39.4779 12.4595Z" stroke="#231F20" stroke-width="0.49"/>
<path d="M8.71917 43.2178L6.01096 45.926L23.8371 63.7522L26.5453 61.044L8.71917 43.2178Z" fill="white"/>
<path d="M8.71917 43.2178L6.01096 45.926L23.8371 63.7522L26.5453 61.044L8.71917 43.2178Z" stroke="#231F20" stroke-width="0.49"/>
<path d="M13.975 37.969L11.2951 40.6489L29.1213 58.4751L31.8012 55.7952L13.975 37.969Z" fill="white"/>
<path d="M13.975 37.969L11.2951 40.6489L29.1213 58.4751L31.8012 55.7952L13.975 37.969Z" stroke="#231F20" stroke-width="0.49"/>
<path d="M3.33503 48.6062L0.65509 51.2861L18.4813 69.1123L21.1612 66.4324L3.33503 48.6062Z" fill="white"/>
<path d="M3.33503 48.6062L0.65509 51.2861L18.4813 69.1123L21.1612 66.4324L3.33503 48.6062Z" stroke="#231F20" stroke-width="0.49"/>
</g>
<defs>
<clipPath id="clip0_8072_720">
<rect width="69.76" height="69.76" fill="white"/>
</clipPath>
</defs>
</svg>
