<svg width="33" height="27" viewBox="0 0 33 27" fill="none" xmlns="http://www.w3.org/2000/svg">
<g clip-path="url(#clip0_8101_337)">
<path d="M9.82 0.219971H8.22V11.49H9.82V0.219971Z" stroke="#231F20" stroke-width="0.45"/>
<path d="M6.53 1.13013H4.98001V3.87012H2.55002V1.13013H0.980011V8.87012H6.53V1.13013ZM4.98001 7.59009H2.55002V5.09009H4.98001V7.59009Z" stroke="#231F20" stroke-width="0.45"/>
<path d="M17.23 6.79993H20.47V0.949951H18.91V2.69995H14.01V0.949951H12.43V6.79993H15.69V8.89001H11.35V10.21H21.61V8.93994H17.23V6.79993ZM14.01 3.94995H18.91V5.53992H14.01V3.94995Z" stroke="#231F20" stroke-width="0.45"/>
<path d="M32.05 1.6601H28.15V0.350098H26.59V1.6601H22.7V2.9201H32.05V1.6601Z" stroke="#231F20" stroke-width="0.45"/>
<path d="M28.15 9.06006V7.76013C28.5728 7.72781 28.9915 7.65403 29.4 7.54004C29.9027 7.4032 30.3611 7.13793 30.73 6.77014C31.0351 6.45347 31.2038 6.02977 31.2 5.59009C31.2059 5.15 31.0369 4.7255 30.73 4.41003C30.3588 4.04951 29.9006 3.79114 29.4 3.66003C28.0655 3.31319 26.6645 3.31319 25.33 3.66003C24.8282 3.78809 24.3692 4.04688 24 4.41003C23.6931 4.7255 23.524 5.15 23.53 5.59009C23.5262 6.02977 23.6949 6.45347 24 6.77014C24.3647 7.14334 24.8247 7.40952 25.33 7.54004C25.7417 7.65487 26.1638 7.72866 26.59 7.76013V9.06006H22.27V10.3301H32.53V9.06006H28.15ZM25.4 6.12011C25.3221 6.05441 25.2595 5.97241 25.2166 5.88C25.1736 5.7876 25.1514 5.68697 25.1514 5.58508C25.1514 5.48319 25.1736 5.38256 25.2166 5.29016C25.2595 5.19775 25.3221 5.11576 25.4 5.05005C25.6174 4.88559 25.8712 4.77589 26.14 4.7301C26.5462 4.66026 26.9578 4.62681 27.37 4.63012C27.7755 4.62715 28.1805 4.66059 28.58 4.7301C28.8517 4.77622 29.1087 4.88581 29.33 5.05005C29.4079 5.11576 29.4705 5.19775 29.5134 5.29016C29.5563 5.38256 29.5786 5.48319 29.5786 5.58508C29.5786 5.68697 29.5563 5.7876 29.5134 5.88C29.4705 5.97241 29.4079 6.05441 29.33 6.12011C29.1114 6.2826 28.8581 6.39209 28.59 6.44006C28.1882 6.51889 27.7793 6.55574 27.37 6.55005C26.9573 6.55578 26.5451 6.51893 26.14 6.44006C25.8712 6.39427 25.6174 6.28458 25.4 6.12011Z" stroke="#231F20" stroke-width="0.45"/>
<path d="M4.00999 23.03H2.42999V25.17V25.99V26.44H10.15V25.17H4.00999V23.03Z" stroke="#231F20" stroke-width="0.45"/>
<path d="M9.88 23.7399V15.4099H8.32V18.6899H6.45V19.9499H8.32V23.7399H9.88Z" stroke="#231F20" stroke-width="0.45"/>
<path d="M3.80002 20.21C4.02531 20.6638 4.33009 21.0736 4.69998 21.4199C5.19851 21.8836 5.79742 22.2258 6.44998 22.4199L7.20999 21.1899C6.67332 21.0394 6.17312 20.7808 5.74002 20.4299C5.36113 20.1423 5.05606 19.7687 4.85001 19.34C4.6523 18.953 4.54948 18.5245 4.55002 18.09V18H6.81998V16.77H4.56998V15.52H2.99002V16.77H0.730011V18H2.99002V18.09C2.99439 18.5559 2.8953 19.0169 2.69998 19.4399C2.49868 19.8857 2.19759 20.2792 1.81998 20.59C1.38798 20.947 0.887855 21.2124 0.350006 21.37L1.11002 22.6C1.70319 22.4324 2.25195 22.1357 2.71701 21.7312C3.18207 21.3267 3.55191 20.8243 3.80002 20.26V20.21Z" stroke="#231F20" stroke-width="0.45"/>
<path d="M14.93 23.03H13.35V25.17V25.99V26.44H21.08V25.17H14.93V23.03Z" stroke="#231F20" stroke-width="0.45"/>
<path d="M20.8 23.7399V15.4099H19.24V18.6899H17.38V19.9499H19.24V23.7399H20.8Z" stroke="#231F20" stroke-width="0.45"/>
<path d="M14.72 20.21C14.9456 20.6663 15.2542 21.0766 15.63 21.4199C16.1272 21.8854 16.7265 22.2278 17.38 22.4199L18.13 21.1899C17.5933 21.0394 17.0931 20.7808 16.66 20.4299C16.2811 20.1423 15.976 19.7687 15.77 19.34C15.5754 18.9523 15.476 18.5238 15.48 18.09V18H17.74V16.77H15.49V15.52H13.91V16.77H11.65V18H13.91V18.09C13.9128 18.5547 13.8173 19.0147 13.63 19.4399C13.4246 19.8859 13.1202 20.2793 12.74 20.59C12.308 20.947 11.8078 21.2124 11.27 21.37L12.03 22.6C12.6812 22.4096 13.2777 22.0668 13.77 21.6C14.1742 21.2029 14.4969 20.7307 14.72 20.21Z" stroke="#231F20" stroke-width="0.45"/>
<path d="M26.65 15.54H25.05V17.1H22.5V18.35H29.21V17.1H26.65V15.54Z" stroke="#231F20" stroke-width="0.45"/>
<path d="M27.36 19.3001C26.9003 19.0718 26.3932 18.9554 25.88 18.9601C25.3637 18.9564 24.8536 19.0728 24.39 19.3001C23.97 19.5338 23.6237 19.8801 23.39 20.3001C23.1326 20.7137 23.0006 21.193 23.01 21.6801C22.9977 22.1675 23.1299 22.6477 23.39 23.0601C23.6237 23.48 23.97 23.8264 24.39 24.0601C24.8536 24.2874 25.3637 24.4038 25.88 24.4C26.3933 24.4059 26.9007 24.2894 27.36 24.0601C27.779 23.8251 28.1251 23.4791 28.36 23.0601C28.6078 22.6428 28.7359 22.1653 28.73 21.6801C28.7341 21.1978 28.6045 20.724 28.3556 20.3109C28.1067 19.8979 27.7482 19.5618 27.32 19.3401L27.36 19.3001ZM27.09 22.3801C26.9748 22.5854 26.8053 22.755 26.6 22.8701C26.3747 22.982 26.1265 23.0402 25.875 23.0402C25.6234 23.0402 25.3753 22.982 25.15 22.8701C24.9427 22.7576 24.7725 22.5874 24.66 22.3801C24.5337 22.1545 24.4715 21.8986 24.48 21.6402C24.4753 21.3821 24.5373 21.1271 24.66 20.9C24.7702 20.6935 24.9413 20.526 25.15 20.4201C25.3753 20.3082 25.6234 20.25 25.875 20.25C26.1265 20.25 26.3747 20.3082 26.6 20.4201C26.8069 20.5285 26.9773 20.6954 27.09 20.9C27.2048 21.1296 27.2631 21.3835 27.26 21.6402C27.2664 21.8972 27.2079 22.1517 27.09 22.3801Z" stroke="#231F20" stroke-width="0.45"/>
<path d="M31.67 15.3899H30.07V26.6299H31.67V15.3899Z" stroke="#231F20" stroke-width="0.45"/>
</g>
<defs>
<clipPath id="clip0_8101_337">
<rect width="32.76" height="26.86" fill="white"/>
</clipPath>
</defs>
</svg>
