<svg width="24" height="71" viewBox="0 0 24 71" fill="none" xmlns="http://www.w3.org/2000/svg">
<g clip-path="url(#clip0_8101_182)">
<path d="M13.3465 48.2158H11.1764V59.5607H13.3465V48.2158Z" fill="white"/>
<path d="M13.3465 48.2158H11.1764V59.5607H13.3465V48.2158Z" stroke="#231F20" stroke-width="0.45"/>
<path d="M16.8995 35.5696H14.9712L12.0028 40.0352L9.39985 35.7197H7.50526L11.2382 41.8148L7.50526 47.5818H9.21995L12.0928 43.1161L14.9712 47.9155H17.0513L12.981 41.5757" fill="white"/>
<path d="M16.8995 35.5696H14.9712L12.0028 40.0352L9.39985 35.7197H7.50526L11.2382 41.8148L7.50526 47.5818H9.21995L12.0928 43.1161L14.9712 47.9155H17.0513L12.981 41.5757L16.8995 35.5696Z" stroke="#231F20" stroke-width="0.45"/>
<path d="M13.4139 23.5017V34.6964H11.0527V23.4405H8.63528L12.8292 0.0222168L15.9494 23.4405" fill="white"/>
<path d="M13.4139 23.5017V34.6964H11.0527V23.4405H8.63528L12.8292 0.0222168L15.9494 23.4405L13.4139 23.5017Z" stroke="#231F20" stroke-width="0.45"/>
<path d="M2.19818 67.1127C2.32293 67.3759 2.49644 67.6136 2.70976 67.8135C2.98981 68.0687 3.32404 68.2587 3.68797 68.3696L4.13213 67.68C3.82682 67.5912 3.54215 67.4438 3.29443 67.2462C3.08067 67.0734 2.90958 66.8547 2.7941 66.6067C2.68493 66.3732 2.62924 66.1187 2.63105 65.8615V65.7725H3.90161V65.0718H0.427261V65.7725H1.73155V65.8615C1.73257 66.1335 1.67509 66.4028 1.5629 66.6512C1.44233 66.9118 1.26581 67.1433 1.04566 67.3296C0.798764 67.5423 0.509615 67.7014 0.196777 67.7968L0.652152 68.4808C0.994808 68.3758 1.3104 68.1987 1.57728 67.9615C1.84416 67.7244 2.05599 67.433 2.19818 67.1072V67.1127Z" stroke="#231F20" stroke-width="0.45"/>
<path d="M5.44764 64.6379H4.565V69.1481H5.44764V64.6379Z" stroke="#231F20" stroke-width="0.45"/>
<path d="M2.11947 68.7366H1.22559V70.0601V70.4161V70.772H5.62755V70.0601H2.11947V68.7366Z" stroke="#231F20" stroke-width="0.45"/>
<path d="M10.7098 68.8423H8.24739V68.2861H7.37596V70.8331H11.5924V68.2861H10.7098V68.8423ZM10.7098 70.1046H8.24739V69.5207H10.7098V70.1046Z" stroke="#231F20" stroke-width="0.45"/>
<path d="M9.0176 67.6465C9.26736 67.5302 9.48093 67.3497 9.636 67.1237C9.78676 66.9021 9.86526 66.6401 9.86089 66.373C9.86593 66.0988 9.78757 65.8295 9.636 65.6C9.48676 65.3608 9.27245 65.1681 9.0176 65.0438C8.73942 64.9228 8.43884 64.8604 8.13495 64.8604C7.83106 64.8604 7.53048 64.9228 7.2523 65.0438C6.99621 65.1663 6.7814 65.3594 6.63387 65.6C6.48063 65.829 6.40036 66.0983 6.40339 66.373C6.40103 66.6406 6.48145 66.9026 6.63387 67.1237C6.78766 67.3508 7.00161 67.5316 7.2523 67.6465C7.52946 67.7713 7.83044 67.8358 8.13495 67.8358C8.43946 67.8358 8.74044 67.7713 9.0176 67.6465ZM7.3816 66.7678C7.30817 66.6479 7.26936 66.5104 7.26936 66.3702C7.26936 66.23 7.30817 66.0925 7.3816 65.9726C7.45607 65.859 7.56127 65.7685 7.6852 65.7112C7.82567 65.6461 7.97997 65.6155 8.13495 65.6222C8.28627 65.616 8.43681 65.6466 8.57344 65.7112C8.69737 65.7685 8.80258 65.859 8.87705 65.9726C8.94907 66.0938 8.98603 66.2324 8.98387 66.373C8.98805 66.5121 8.95091 66.6494 8.87705 66.7678C8.8037 66.8809 8.69802 66.97 8.57344 67.0236C8.43652 67.088 8.28651 67.1203 8.13495 67.1182C7.97978 67.1202 7.82611 67.0879 7.6852 67.0236C7.56063 66.97 7.45494 66.8809 7.3816 66.7678Z" stroke="#231F20" stroke-width="0.45"/>
<path d="M11.5924 64.627H10.7098V67.9915H11.5924V64.627Z" stroke="#231F20" stroke-width="0.45"/>
<path d="M13.1497 70.811H17.5404V68.5254H13.1497V70.811ZM14.0267 69.2094H16.6634V70.1048H14.0267V69.2094Z" stroke="#231F20" stroke-width="0.45"/>
<path d="M17.5067 66.3842C17.5292 66.1024 17.5404 65.7798 17.5404 65.4165V64.916H13.1497V65.6167H16.6521C16.6521 65.778 16.6521 65.9226 16.6521 66.0394C16.6521 66.1561 16.624 66.4064 16.5959 66.6233C16.5678 66.8402 16.5341 66.9736 16.4947 67.1794H12.4526V67.8857H18.2094V67.1794H17.3718C17.4328 66.9172 17.4778 66.6517 17.5067 66.3842Z" stroke="#231F20" stroke-width="0.45"/>
<path d="M23.8763 64.627H22.9768V70.8778H23.8763V64.627Z" stroke="#231F20" stroke-width="0.45"/>
<path d="M21.2171 67.3518C21.0967 67.0257 21.0358 66.6811 21.0373 66.3341V65.9448H22.3584V65.2329H18.7716V65.9448H20.1096V66.3285C20.1084 66.6935 20.0477 67.0559 19.9297 67.4018C19.8036 67.7505 19.6129 68.073 19.3675 68.3528C19.1341 68.6348 18.8378 68.8594 18.5018 69.009L19.0077 69.6986C19.3927 69.5186 19.7282 69.2497 19.9859 68.9145C20.2365 68.5784 20.4267 68.2021 20.5481 67.8022C20.676 68.1569 20.8664 68.4864 21.1103 68.7754C21.3746 69.0977 21.7142 69.3515 22.0998 69.5151L22.5777 68.831C22.2461 68.6944 21.9501 68.4853 21.7119 68.2193C21.4955 67.9619 21.3279 67.668 21.2171 67.3518Z" stroke="#231F20" stroke-width="0.45"/>
</g>
<defs>
<clipPath id="clip0_8101_182">
<rect width="24" height="71" fill="white"/>
</clipPath>
</defs>
</svg>
