<svg width="36" height="56" viewBox="0 0 36 56" fill="none" xmlns="http://www.w3.org/2000/svg">
<g clip-path="url(#clip0_8101_667)">
<path d="M0 56V0H35.42V56H0ZM5.28003 5.27997V50.73H30.14V5.27997H5.28003Z" fill="#231F20"/>
<path d="M22.88 21.12H12.64V19.86H22.88V21.12ZM17.55 17.38C17.1515 17.8909 16.628 18.2904 16.03 18.54C15.2667 18.8756 14.4516 19.0785 13.62 19.14L13.08 17.91C13.7628 17.8565 14.4354 17.7119 15.08 17.48C15.5342 17.3234 15.9477 17.0671 16.29 16.73C16.536 16.4897 16.6794 16.1636 16.6901 15.82V15.52H18.08V15.82C18.0628 16.3895 17.859 16.9376 17.5 17.38H17.55ZM21.95 16.2H13.5601V14.96H21.88L21.95 16.2ZM19.84 21.96C20.3398 22.0702 20.804 22.304 21.1901 22.64C21.3352 22.7799 21.4507 22.9477 21.5295 23.1332C21.6084 23.3188 21.649 23.5183 21.649 23.72C21.649 23.9216 21.6084 24.1212 21.5295 24.3068C21.4507 24.4923 21.3352 24.6601 21.1901 24.8C20.8055 25.1382 20.3406 25.3723 19.84 25.48C19.1532 25.6491 18.4471 25.7265 17.74 25.71C17.0296 25.7256 16.3203 25.6483 15.63 25.48C15.1293 25.3723 14.6646 25.1382 14.28 24.8C14.1277 24.6646 14.006 24.4982 13.9232 24.3119C13.8404 24.1256 13.7985 23.9238 13.8 23.72C13.7985 23.5171 13.8395 23.3162 13.9204 23.1301C14.0014 22.9441 14.1205 22.7771 14.27 22.64C14.6612 22.306 15.1281 22.0726 15.63 21.96C16.3212 21.7966 17.0299 21.7193 17.74 21.73C18.4301 21.7228 19.1186 21.8001 19.79 21.96H19.84ZM16.4301 23.02C16.1591 23.0566 15.8977 23.1449 15.66 23.28C15.5837 23.3252 15.5204 23.3896 15.4766 23.4668C15.4327 23.544 15.4098 23.6312 15.41 23.72C15.4111 23.8112 15.4343 23.9008 15.4779 23.981C15.5215 24.0612 15.584 24.1295 15.66 24.18C15.8984 24.3232 16.1641 24.4152 16.4401 24.45C16.8701 24.5163 17.3049 24.5465 17.74 24.54C18.1718 24.5465 18.6034 24.5164 19.03 24.45C19.306 24.4152 19.5717 24.3232 19.8101 24.18C19.8873 24.13 19.9513 24.062 19.9966 23.9819C20.0419 23.9018 20.067 23.8119 20.0699 23.72C20.0682 23.6305 20.0434 23.5429 19.9978 23.4658C19.9523 23.3887 19.8876 23.3247 19.8101 23.28C19.5693 23.1437 19.3044 23.0554 19.03 23.02C18.6025 22.9624 18.1714 22.9357 17.74 22.94C17.2853 22.9336 16.8308 22.9603 16.38 23.02H16.4301ZM18.52 20.52H16.88V18.52H18.4401L18.52 20.52ZM19.22 16.72C19.5645 17.0592 19.9818 17.3157 20.4401 17.47C21.0829 17.7095 21.7561 17.8576 22.4401 17.91L21.87 19.14C21.0388 19.0758 20.2242 18.8731 19.46 18.54C18.8608 18.2876 18.3348 17.8887 17.9301 17.38C17.5932 16.9296 17.4108 16.3825 17.41 15.82V15.52H18.83V15.82C18.8255 16.1552 18.9469 16.4799 19.17 16.73L19.22 16.72Z" fill="#231F20"/>
<path d="M16.15 33.4401C15.9213 34.0662 15.5557 34.6332 15.08 35.1001C14.5916 35.5907 13.9909 35.9545 13.33 36.1601L12.52 34.9101C13.0742 34.7404 13.5857 34.454 14.02 34.0701C14.3989 33.7364 14.702 33.3254 14.9089 32.8649C15.1159 32.4044 15.2219 31.905 15.22 31.4001V30.7301H16.5V31.4501C16.4984 32.1286 16.3801 32.8018 16.15 33.4401ZM19.0601 31.4401H12.96V30.1801H19.0601V31.4401ZM22.0601 40.7101H14.51V36.5601H22.0601V40.7101ZM17.0601 32.7101C17.2632 33.1522 17.5561 33.5472 17.92 33.8701C18.3414 34.2386 18.8353 34.5145 19.37 34.6801L18.59 35.9201C17.9501 35.7241 17.3646 35.3817 16.88 34.9201C16.434 34.4738 16.0925 33.9342 15.88 33.3401C15.6539 32.7218 15.5388 32.0684 15.54 31.4101V30.7301H16.8199V31.4701C16.8276 31.9047 16.9228 32.3332 17.1 32.7301L17.0601 32.7101ZM16.0601 39.4601H20.5V37.8101H16.0601V39.4601ZM20.87 33.4601H18.6901V32.1801H20.88L20.87 33.4601ZM22.04 36.0801H20.47V29.6301H22.04V36.0801Z" fill="#231F20"/>
</g>
<defs>
<clipPath id="clip0_8101_667">
<rect width="35.42" height="56.01" fill="white"/>
</clipPath>
</defs>
</svg>
