<svg width="16" height="61" viewBox="0 0 16 61" fill="none" xmlns="http://www.w3.org/2000/svg">
<g clip-path="url(#clip0_8101_200)">
<path d="M5.13289 37.6968V33.4309C5.13289 32.3148 6.22588 30.7745 7.66476 30.7745C8.2903 30.8031 8.88032 31.0735 9.31046 31.5286C9.7406 31.9837 9.97728 32.588 9.97065 33.2141V42.7928H12.4979V12.1844C12.4979 7.00538 8.88227 5.35436 6.86693 4.48274V0.39209L1.59105 8.7671L6.66401 15.4634L6.77007 11.3128C9.11285 11.3128 9.99832 13.6187 9.99832 14.2966V25.2726C5.47877 24.0828 2.37968 27.8276 2.37968 31.3463V37.7198H0.175232L3.82314 48.0502L7.36039 37.7198L5.13289 37.6968Z" fill="white"/>
<path d="M9.97989 53.7319V60.8848L12.5071 60.7741V53.7319H9.97989Z" fill="white"/>
<path d="M15.0344 43.323H13.4526L11.0175 47.0263L8.88229 43.4429H7.32812L10.3903 48.502L7.32812 53.2798H8.73472L11.0913 49.5766L13.4526 53.5565H15.1589L11.82 48.2991L15.0344 43.323Z" stroke="#231F20" stroke-width="0.45"/>
<path d="M5.13289 37.6968V33.4309C5.13289 32.3148 6.22588 30.7745 7.66476 30.7745C8.2903 30.8031 8.88032 31.0735 9.31046 31.5286C9.7406 31.9837 9.97728 32.588 9.97065 33.2141V42.7928H12.4979V12.1844C12.4979 7.00538 8.88227 5.35436 6.86693 4.48274V0.39209L1.59105 8.7671L6.66401 15.4634L6.77007 11.3128C9.11285 11.3128 9.99832 13.6187 9.99832 14.2966V25.2726C5.47877 24.0828 2.37968 27.8276 2.37968 31.3463V37.7198H0.175232L3.82314 48.0502L7.36039 37.7198L5.13289 37.6968Z" stroke="#231F20" stroke-width="0.49"/>
<path d="M9.97989 53.7319V60.8848L12.5071 60.7741V53.7319H9.97989Z" stroke="#231F20" stroke-width="0.49"/>
</g>
<defs>
<clipPath id="clip0_8101_200">
<rect width="15.348" height="61" fill="white"/>
</clipPath>
</defs>
</svg>
