<svg width="37" height="71" viewBox="0 0 37 71" fill="none" xmlns="http://www.w3.org/2000/svg">
<g clip-path="url(#clip0_8101_280)">
<path d="M18.3206 36.6604C8.98286 36.7509 1.48222 44.2923 1.54853 53.5017C1.61484 62.7111 9.28709 70.103 18.6561 70.0243C28.025 69.9456 35.4984 62.3649 35.4048 53.1516C35.3111 43.9382 27.6428 36.5503 18.3011 36.6683" fill="white"/>
<path d="M18.5156 70.9999C8.70981 70.9999 0.682612 63.187 0.573399 53.5056C0.548332 51.1735 0.989592 48.8603 1.87086 46.7042C2.75213 44.548 4.05534 42.5931 5.70255 40.9563C9.08938 37.5895 13.6471 35.6917 18.4025 35.6682C23.1578 35.6447 27.7338 37.4973 31.1532 40.8304C32.79 42.4292 34.0959 44.3399 34.9951 46.4515C35.8943 48.5632 36.3689 50.8338 36.3915 53.1319C36.4851 62.8566 28.536 70.874 18.6717 70.9999H18.5156ZM18.5429 37.6439H18.3284C14.1161 37.665 10.0822 39.3614 7.10281 42.3647C5.64137 43.8169 4.48482 45.5511 3.70212 47.4638C2.91942 49.3765 2.52656 51.4286 2.54702 53.4978C2.63283 62.0934 9.78244 69.029 18.5117 69.029H18.6638C27.4516 68.9189 34.531 61.7984 34.4452 53.1594C34.4261 51.1215 34.0052 49.1079 33.207 47.2358C32.4088 45.3636 31.2493 43.6703 29.7958 42.2545C26.7937 39.2823 22.7497 37.6254 18.5429 37.6439Z" fill="#CF1F25"/>
<path d="M10.5118 61.9794C9.75718 61.5144 9.14861 60.8433 8.75657 60.0439C8.32183 59.1636 8.09237 58.1948 8.08569 57.2114H10.5196C10.5366 57.6756 10.6637 58.1288 10.8901 58.5332C11.1041 58.9112 11.4155 59.2238 11.7912 59.4381C12.1716 59.6551 12.6023 59.7664 13.0393 59.7606C13.5048 59.7661 13.9627 59.6408 14.3616 59.3987C14.7511 59.1561 15.0659 58.8087 15.2704 58.3956C15.4947 57.939 15.6033 57.4335 15.5863 56.9243C15.6074 56.3814 15.4977 55.8414 15.2665 55.3507C15.0554 54.9142 14.7199 54.5512 14.303 54.3082C13.8499 54.0423 13.3334 53.9063 12.8092 53.9148H11.6156V51.2633H12.8092C13.2549 51.2704 13.6933 51.1489 14.0729 50.9132C14.4445 50.6749 14.7398 50.3334 14.9233 49.9297C15.1328 49.4754 15.2369 48.979 15.2275 48.4781C15.2368 47.9913 15.1465 47.5079 14.9623 47.0579C14.8079 46.6749 14.548 46.3446 14.2133 46.1059C13.8784 45.8786 13.4818 45.7618 13.0783 45.7715C12.6664 45.7696 12.2618 45.8811 11.9081 46.0941C11.544 46.3146 11.244 46.628 11.0383 47.0028C10.809 47.4322 10.6872 47.9116 10.6834 48.3994H8.34314C8.35412 47.4228 8.58343 46.4613 9.01401 45.5866C9.3958 44.8063 9.97926 44.1444 10.7029 43.6707C11.4108 43.2153 12.2348 42.9774 13.0744 42.9862C13.9068 42.9714 14.7236 43.2144 15.4147 43.6826C16.095 44.166 16.6338 44.825 16.9749 45.5905C17.3547 46.4332 17.5388 47.3522 17.5132 48.2774C17.5349 48.9256 17.4384 49.5724 17.2284 50.1854C17.0489 50.7226 16.7516 51.2121 16.3586 51.6174C15.9973 51.9846 15.5509 52.255 15.0598 52.4042V52.5497C15.6617 52.6504 16.2222 52.9235 16.6746 53.3365C17.1327 53.7723 17.4816 54.3116 17.6926 54.9101C18.223 56.5568 18.1143 58.3451 17.3883 59.9141C16.9817 60.7335 16.3615 61.4258 15.5941 61.9164C14.8213 62.4021 13.9264 62.6534 13.0159 62.6403C12.137 62.6552 11.2708 62.4265 10.5118 61.9794Z" fill="#939598"/>
<path d="M22.3419 61.5152C21.4745 60.5686 20.8657 59.4109 20.5751 58.1556C19.7533 54.6635 19.7533 51.026 20.5751 47.5339C20.8704 46.2796 21.4801 45.1228 22.3458 44.1743C22.7082 43.8074 23.1389 43.5162 23.6132 43.3176C24.0874 43.1189 24.5959 43.0166 25.1094 43.0166C25.6229 43.0166 26.1313 43.1189 26.6056 43.3176C27.0798 43.5162 27.5105 43.8074 27.8729 44.1743C28.7429 45.1227 29.3532 46.2833 29.6437 47.5418C30.0834 49.2723 30.2894 51.0547 30.256 52.8408C30.2893 54.6342 30.086 56.4241 29.6515 58.1635C29.3638 59.4184 28.753 60.5745 27.8807 61.5152C27.1437 62.2513 26.1485 62.6642 25.1113 62.6642C24.0742 62.6642 23.0789 62.2513 22.3419 61.5152ZM26.5623 58.9896C27.0429 58.2903 27.364 57.4922 27.5023 56.6528C27.9366 54.1317 27.9366 51.5539 27.5023 49.0327C27.3639 48.1874 27.0459 47.3822 26.5701 46.6724C26.4141 46.4271 26.1994 46.2254 25.9459 46.0856C25.6924 45.9459 25.4081 45.8726 25.1191 45.8726C24.8302 45.8726 24.5459 45.9459 24.2924 46.0856C24.0388 46.2254 23.8242 46.4271 23.6681 46.6724C23.1911 47.3823 22.8706 48.1872 22.7281 49.0327C22.4871 50.2871 22.376 51.5633 22.3966 52.8408C22.3759 54.1195 22.4858 55.3968 22.7242 56.6528C22.8626 57.4922 23.1836 58.2903 23.6642 58.9896C23.8243 59.2306 24.0408 59.4281 24.2946 59.5647C24.5483 59.7012 24.8315 59.7727 25.1191 59.7727C25.4067 59.7727 25.6899 59.7012 25.9437 59.5647C26.1974 59.4281 26.4139 59.2306 26.574 58.9896H26.5623Z" fill="#939598"/>
<path d="M3.1087 10.9167C3.88879 10.9167 4.49335 10.4525 4.899 9.52801C5.6895 7.13662 5.6895 4.5511 4.899 2.1597C4.48555 1.22735 3.88879 0.76709 3.1087 0.76709C2.3286 0.76709 1.70841 1.22735 1.29496 2.1597C0.881509 3.09205 0.709888 4.26043 0.709888 5.84975C0.658635 7.09982 0.860367 8.34733 1.30277 9.5162C1.71622 10.442 2.32081 10.9049 3.1165 10.9049M2.33641 3.26908C2.50023 2.71833 2.75376 2.44296 3.1165 2.44296C3.47925 2.44296 3.70545 2.71833 3.86927 3.26908C4.06865 4.10985 4.15395 4.97405 4.12281 5.83796C4.15492 6.69671 4.0696 7.55583 3.86927 8.39109C3.70545 8.94185 3.45585 9.21722 3.1165 9.21722C2.77716 9.21722 2.51583 8.94185 2.33641 8.39109C2.14975 7.55376 2.0711 6.69562 2.10239 5.83796C2.07175 4.97512 2.15038 4.11184 2.33641 3.26908Z" fill="white"/>
<path d="M3.1087 10.9167C3.88879 10.9167 4.49335 10.4525 4.899 9.52801C5.6895 7.13662 5.6895 4.5511 4.899 2.1597C4.48555 1.22735 3.88879 0.76709 3.1087 0.76709C2.3286 0.76709 1.70841 1.22735 1.29496 2.1597C0.881509 3.09205 0.709888 4.26043 0.709888 5.84975C0.658635 7.09982 0.860367 8.34733 1.30277 9.5162C1.71102 10.4499 2.313 10.9167 3.1087 10.9167ZM2.3286 3.28089C2.49242 2.73014 2.74595 2.45475 3.1087 2.45475C3.47144 2.45475 3.69769 2.73014 3.86151 3.28089C4.06089 4.12167 4.14614 4.98583 4.115 5.84975C4.14711 6.7085 4.06184 7.56761 3.86151 8.40288C3.69769 8.95364 3.44804 9.22903 3.1087 9.22903C2.76935 9.22903 2.50802 8.95364 2.3286 8.40288C2.14194 7.56555 2.06329 6.70741 2.09458 5.84975C2.0665 4.98657 2.14776 4.12332 2.33641 3.28089H2.3286Z" stroke="#231F20" stroke-width="0.53"/>
<path d="M7.32902 13.0803H8.71371V1.25487C8.71429 1.12297 8.72602 0.99136 8.7488 0.861475C8.7488 0.786729 8.78392 0.692322 8.81512 0.574304C8.84633 0.456285 8.86584 0.377588 8.87364 0.334314C8.87551 0.307518 8.87037 0.280706 8.85874 0.256543C8.8471 0.23238 8.82935 0.211722 8.80732 0.196635C8.72572 0.150422 8.63533 0.122251 8.54211 0.114014C8.41729 0.114014 8.23787 0.114014 7.99994 0.114014H7.32126V4.8623H5.84296V6.54998H7.32126" fill="white"/>
<path d="M7.32902 13.0803H8.71371V1.25487C8.71429 1.12297 8.72602 0.99136 8.7488 0.861475C8.7488 0.786729 8.78392 0.692322 8.81512 0.574304C8.84633 0.456285 8.86584 0.377588 8.87364 0.334314C8.87551 0.307518 8.87037 0.280706 8.85874 0.256543C8.8471 0.23238 8.82935 0.211722 8.80732 0.196635C8.72572 0.150422 8.63533 0.122251 8.54211 0.114014C8.41729 0.114014 8.23787 0.114014 7.99994 0.114014H7.32126V4.8623H5.84296V6.54998H7.32126L7.32902 13.0803Z" stroke="#231F20" stroke-width="0.53"/>
<path d="M22.6033 0.99536C22.5973 0.901043 22.5973 0.806419 22.6033 0.712103L22.6501 0.49574C22.7008 0.322646 22.7008 0.220372 22.6501 0.184966C22.4531 0.107036 22.2403 0.0786718 22.03 0.102345H21.1953V9.66185H22.5916" fill="white"/>
<path d="M22.6033 0.99536C22.5973 0.901043 22.5973 0.806419 22.6033 0.712103L22.6501 0.49574C22.7008 0.322646 22.7008 0.220372 22.6501 0.184966C22.4531 0.107036 22.2403 0.0786718 22.03 0.102345H21.1953V9.66185H22.5916L22.6033 0.99536Z" stroke="#231F20" stroke-width="0.53"/>
<path d="M17.9149 7.91897C18.656 7.87105 19.3942 7.78439 20.1265 7.65934L19.9939 6.08576C19.4166 6.1723 18.8042 6.23916 18.1567 6.28637C17.638 6.32177 17.127 6.34145 16.6239 6.34145H16.2338V4.98817H19.4361V0.739502H14.8413V2.31308H18.0748V3.41852H14.8608V7.96617H15.8671C16.6472 7.96617 17.3337 7.9465 17.9227 7.91109" fill="white"/>
<path d="M17.9149 7.91897C18.656 7.87105 19.3942 7.78439 20.1265 7.65934L19.9939 6.08576C19.4166 6.1723 18.8042 6.23916 18.1567 6.28637C17.638 6.32177 17.127 6.34145 16.6239 6.34145H16.2338V4.98817H19.4361V0.739502H14.8413V2.31308H18.0748V3.41852H14.8608V7.96617H15.8671C16.6394 7.97404 17.3259 7.94257 17.9149 7.91897Z" stroke="#231F20" stroke-width="0.53"/>
<path d="M16.8306 9.26828C16.8306 9.2132 16.854 9.13845 16.8774 9.0401C16.9203 8.85914 16.9203 8.74113 16.8774 8.68606C16.6784 8.60019 16.4607 8.56767 16.2455 8.59165H15.4264V12.7302H22.7125V11.0386H16.8189V9.53972C16.8131 9.44933 16.8131 9.35866 16.8189 9.26828" fill="white"/>
<path d="M16.8306 9.26828C16.8306 9.2132 16.854 9.13845 16.8774 9.0401C16.9203 8.85914 16.9203 8.74113 16.8774 8.68606C16.6784 8.60019 16.4607 8.56767 16.2455 8.59165H15.4264V12.7302H22.7125V11.0386H16.8189V9.53972C16.817 9.44908 16.8209 9.35841 16.8306 9.26828Z" stroke="#231F20" stroke-width="0.53"/>
<path d="M30.8723 10.9167C31.6524 10.9167 32.2479 10.4538 32.6587 9.52801C33.0488 8.65074 33.2516 7.42727 33.2516 5.84975C33.2516 4.27224 33.0566 3.04091 32.6587 2.1597C32.2609 1.2785 31.6485 0.76709 30.8723 0.76709C30.0961 0.76709 29.472 1.22735 29.0547 2.1597C28.6373 3.09205 28.4696 4.26043 28.4696 5.84975C28.4143 7.10322 28.6134 8.3549 29.0547 9.52801C29.4733 10.4538 30.0792 10.9167 30.8723 10.9167ZM30.0922 3.28089C30.256 2.73014 30.5161 2.45475 30.8723 2.45475C31.2117 2.45475 31.4652 2.73014 31.6251 3.28089C31.8282 4.12107 31.9148 4.98558 31.8825 5.84975C31.9158 6.70876 31.8291 7.56821 31.6251 8.40288C31.4652 8.95364 31.2117 9.22903 30.8723 9.22903C30.533 9.22903 30.2756 8.95364 30.0922 8.40288C29.9056 7.56555 29.8269 6.70741 29.8582 5.84975C29.8275 4.98691 29.9062 4.12366 30.0922 3.28089Z" fill="white"/>
<path d="M30.8723 10.9167C31.6524 10.9167 32.2479 10.4538 32.6587 9.52801C33.0488 8.65074 33.2516 7.42727 33.2516 5.84975C33.2516 4.27224 33.0566 3.04091 32.6587 2.1597C32.2609 1.2785 31.6485 0.76709 30.8723 0.76709C30.0961 0.76709 29.472 1.22735 29.0547 2.1597C28.6373 3.09205 28.4696 4.26043 28.4696 5.84975C28.4143 7.10322 28.6134 8.3549 29.0547 9.52801C29.4733 10.4538 30.0792 10.9167 30.8723 10.9167ZM30.0922 3.28089C30.256 2.73014 30.5161 2.45475 30.8723 2.45475C31.2117 2.45475 31.4652 2.73014 31.6251 3.28089C31.8282 4.12107 31.9148 4.98558 31.8825 5.84975C31.9158 6.70876 31.8291 7.56821 31.6251 8.40288C31.4652 8.95364 31.2117 9.22903 30.8723 9.22903C30.533 9.22903 30.2756 8.95364 30.0922 8.40288C29.9056 7.56555 29.8269 6.70741 29.8582 5.84975C29.8301 4.98657 29.9113 4.12332 30.1 3.28089H30.0922Z" stroke="#231F20" stroke-width="0.53"/>
<path d="M36.4812 1.00717C36.4825 0.899117 36.4917 0.791302 36.5085 0.684583C36.5206 0.607516 36.5375 0.531298 36.5592 0.456407C36.6021 0.299049 36.5982 0.208576 36.5592 0.169236C36.3587 0.106704 36.1481 0.0839985 35.9391 0.102366H35.1005V13.0844H36.4929" fill="white"/>
<path d="M36.4812 1.00717C36.4825 0.899117 36.4917 0.791302 36.5085 0.684583C36.5206 0.607516 36.5375 0.531298 36.5592 0.456407C36.6021 0.299049 36.5982 0.208576 36.5592 0.169236C36.3587 0.106704 36.1481 0.0839985 35.9391 0.102366H35.1005V13.0844H36.4929L36.4812 1.00717Z" stroke="#231F20" stroke-width="0.53"/>
<path d="M5.20326 25.016C5.20233 24.9027 5.21145 24.7894 5.23054 24.6777C5.2479 24.5861 5.27005 24.4955 5.29686 24.4063C5.31782 24.336 5.32961 24.2632 5.33195 24.1899H8.19494V18.2457C8.19104 18.1815 8.19104 18.1171 8.19494 18.0529C8.20462 17.9984 8.21764 17.9445 8.23394 17.8916C8.26124 17.7303 8.23391 17.6281 8.20271 17.5927C8.00797 17.5062 7.79391 17.4736 7.58254 17.4982H6.80244V19.3511H2.47292V18.2142C2.4691 18.1513 2.4691 18.0883 2.47292 18.0254C2.48834 17.9725 2.50005 17.9186 2.50801 17.8641C2.54701 17.7185 2.54311 17.6241 2.50801 17.5809C2.31604 17.5045 2.10864 17.4762 1.90346 17.4982H1.08432V24.186H3.81466V26.389H0.0975342V28.1199H9.13493V26.389H5.20326M2.47292 20.9562H6.79073V22.5927H2.47292V20.9562Z" fill="white"/>
<path d="M5.20326 25.016C5.20233 24.9027 5.21145 24.7894 5.23054 24.6777C5.2479 24.5861 5.27005 24.4955 5.29686 24.4062C5.31782 24.336 5.32961 24.2632 5.33195 24.1899H8.19494V18.2457C8.19104 18.1815 8.19104 18.1171 8.19494 18.0529C8.20462 17.9984 8.21764 17.9445 8.23394 17.8916C8.26124 17.7303 8.23391 17.632 8.20271 17.5927C8.00736 17.5083 7.79387 17.4758 7.58254 17.4982H6.80244V19.3511H2.47292V18.2142C2.4691 18.1513 2.4691 18.0883 2.47292 18.0254C2.48834 17.9725 2.50005 17.9186 2.50801 17.8641C2.54701 17.7185 2.54311 17.6241 2.50801 17.5808C2.31604 17.5045 2.10864 17.4762 1.90346 17.4982H1.08432V24.1859H3.81466V26.389H0.0975342V28.1199H9.13493V26.389H5.20326V25.016ZM2.47292 20.9601H6.79073V22.5966H2.47292V20.9601Z" stroke="#231F20" stroke-width="0.53"/>
<path d="M14.7438 25.5628C15.3292 25.5221 15.8951 25.3341 16.3899 25.016C16.6707 24.8338 16.8994 24.5808 17.0533 24.282C17.2073 23.9832 17.2811 23.649 17.2675 23.3126C17.2757 22.9701 17.1968 22.6313 17.0384 22.3283C16.88 22.0253 16.6473 21.7682 16.3625 21.5816C15.6801 21.1481 14.8826 20.9353 14.0769 20.9719C13.2535 20.9305 12.4371 21.1432 11.7366 21.5816C11.455 21.7699 11.2261 22.028 11.0718 22.331C10.9175 22.6341 10.8428 22.9721 10.8551 23.3126C10.8435 23.6504 10.9198 23.9855 11.0766 24.2843C11.2333 24.5832 11.4649 24.8355 11.7483 25.016C12.2366 25.3258 12.7919 25.5121 13.367 25.5589V26.7744H9.56403V28.3992H18.5936V26.7784H14.7516M12.2476 23.344C12.2494 23.1956 12.2929 23.0506 12.3729 22.926C12.453 22.8014 12.5664 22.7022 12.7 22.6398C13.1245 22.4471 13.5885 22.3594 14.0534 22.3842C14.526 22.3585 14.9978 22.4461 15.4303 22.6398C15.565 22.7036 15.6788 22.8049 15.7583 22.9318C15.8378 23.0586 15.8796 23.2058 15.8789 23.3558C15.8748 23.4915 15.8296 23.6226 15.7494 23.7316C15.6692 23.8407 15.5579 23.9223 15.4303 23.9656C14.9933 24.1418 14.5234 24.2197 14.0534 24.1938C13.5912 24.2185 13.1292 24.1406 12.7 23.9656C12.5725 23.918 12.4617 23.8338 12.3813 23.7233C12.3009 23.6128 12.2544 23.4809 12.2476 23.344Z" fill="white"/>
<path d="M14.7438 25.5628C15.3292 25.5221 15.8951 25.3341 16.3899 25.016C16.6707 24.8338 16.8994 24.5808 17.0533 24.282C17.2073 23.9832 17.2811 23.649 17.2675 23.3126C17.2757 22.9701 17.1968 22.6313 17.0384 22.3283C16.88 22.0253 16.6473 21.7682 16.3625 21.5816C15.6801 21.1481 14.8826 20.9353 14.0769 20.9719C13.2535 20.9305 12.4371 21.1432 11.7366 21.5816C11.455 21.7699 11.2261 22.028 11.0718 22.331C10.9175 22.6341 10.8428 22.9721 10.8551 23.3126C10.8435 23.6504 10.9198 23.9855 11.0766 24.2843C11.2333 24.5832 11.4649 24.8355 11.7483 25.016C12.2366 25.3258 12.7919 25.5121 13.367 25.5589V26.7744H9.56403V28.3992H18.5936V26.7784H14.7516L14.7438 25.5628ZM12.2398 23.3401C12.2416 23.1916 12.2851 23.0467 12.3651 22.9221C12.4452 22.7975 12.5586 22.6983 12.6922 22.6359C13.1167 22.4431 13.5808 22.3555 14.0457 22.3802C14.5182 22.3546 14.99 22.4422 15.4225 22.6359C15.5572 22.6997 15.671 22.801 15.7505 22.9278C15.83 23.0547 15.8718 23.2018 15.8711 23.3519C15.867 23.4876 15.8218 23.6187 15.7416 23.7277C15.6614 23.8367 15.5501 23.9183 15.4225 23.9616C14.9855 24.1379 14.5156 24.2157 14.0457 24.1898C13.5834 24.2146 13.1213 24.1367 12.6922 23.9616C12.5618 23.9166 12.4477 23.8334 12.3644 23.7227C12.281 23.6121 12.2322 23.4789 12.2241 23.3401H12.2398Z" stroke="#231F20" stroke-width="0.53"/>
<path d="M17.9851 19.1504H10.153V20.6099H17.9851V19.1504Z" fill="white"/>
<path d="M17.9851 19.1504H10.153V20.6099H17.9851V19.1504Z" stroke="#231F20" stroke-width="0.53"/>
<path d="M15.9569 17.0024H12.1929V18.4619H15.9569V17.0024Z" fill="white"/>
<path d="M15.9569 17.0024H12.1929V18.4619H15.9569V17.0024Z" stroke="#231F20" stroke-width="0.53"/>
<path d="M26.9953 19.8941C27.0538 19.0758 27.0811 18.1946 27.0811 17.2583H19.8613V18.9578H25.5248C25.5248 19.5243 25.4975 20.138 25.4429 20.7399C25.3922 21.2473 25.322 21.7902 25.2439 22.3528H19.0032V24.0444H22.7944V29.7053H24.1791V24.0326H28.0367V22.341H26.73C26.8509 21.5188 26.9446 20.7005 27.0031 19.8941" fill="white"/>
<path d="M26.9953 19.8941C27.0538 19.0758 27.0811 18.1946 27.0811 17.2583H19.8613V18.9578H25.5248C25.5248 19.5243 25.4975 20.138 25.4429 20.7399C25.3922 21.2473 25.322 21.7902 25.2439 22.3528H19.0032V24.0444H22.7944V29.7053H24.1791V24.0326H28.0367V22.341H26.73C26.8431 21.5188 26.9368 20.7005 26.9953 19.8941Z" stroke="#231F20" stroke-width="0.53"/>
<path d="M31.2936 23.6116C31.6694 23.6262 32.0426 23.5431 32.3774 23.3701C32.7121 23.1972 32.9971 22.9403 33.2049 22.6242C33.606 21.9283 33.8173 21.1377 33.8173 20.3327C33.8173 19.5277 33.606 18.7371 33.2049 18.0412C32.9887 17.7327 32.7024 17.481 32.3698 17.3073C32.0372 17.1336 31.6682 17.043 31.2936 17.043C30.9191 17.043 30.5501 17.1336 30.2175 17.3073C29.8849 17.481 29.5985 17.7327 29.3824 18.0412C28.9481 18.7249 28.7342 19.5274 28.77 20.3386C28.7318 21.15 28.9459 21.9533 29.3824 22.636C29.5921 22.9494 29.8778 23.2035 30.2123 23.3743C30.5468 23.545 30.919 23.6268 31.2936 23.6116ZM30.4355 19.1623C30.5246 19.0152 30.6513 18.8949 30.8022 18.8139C30.9531 18.733 31.1229 18.6944 31.2936 18.7021C31.4654 18.695 31.6359 18.7339 31.788 18.8147C31.9401 18.8955 32.0682 19.0155 32.1595 19.1623C32.3385 19.5296 32.4316 19.9333 32.4316 20.3425C32.4316 20.7517 32.3385 21.1555 32.1595 21.5227C32.0641 21.6647 31.9357 21.7809 31.7854 21.8613C31.6351 21.9416 31.4676 21.9837 31.2975 21.9837C31.1275 21.9837 30.96 21.9416 30.8097 21.8613C30.6594 21.7809 30.5309 21.6647 30.4355 21.5227C30.2349 21.1636 30.1402 20.7541 30.1625 20.3425C30.1419 19.9311 30.2365 19.5221 30.4355 19.1623Z" fill="white"/>
<path d="M31.2936 23.6116C31.6694 23.6262 32.0426 23.5431 32.3774 23.3701C32.7121 23.1972 32.9971 22.9403 33.2049 22.6242C33.606 21.9283 33.8173 21.1377 33.8173 20.3327C33.8173 19.5277 33.606 18.7371 33.2049 18.0412C32.9887 17.7327 32.7024 17.481 32.3698 17.3073C32.0372 17.1336 31.6682 17.043 31.2936 17.043C30.9191 17.043 30.5501 17.1336 30.2175 17.3073C29.8849 17.481 29.5985 17.7327 29.3824 18.0412C28.9481 18.7249 28.7342 19.5274 28.77 20.3386C28.7318 21.15 28.9459 21.9533 29.3824 22.636C29.5921 22.9494 29.8778 23.2035 30.2123 23.3743C30.5468 23.545 30.919 23.6268 31.2936 23.6116ZM30.4355 19.1623C30.5246 19.0152 30.6513 18.8949 30.8022 18.8139C30.9531 18.733 31.1229 18.6944 31.2936 18.7021C31.4654 18.695 31.6359 18.7339 31.788 18.8147C31.9401 18.8955 32.0682 19.0155 32.1595 19.1623C32.3385 19.5296 32.4316 19.9333 32.4316 20.3425C32.4316 20.7517 32.3385 21.1555 32.1595 21.5227C32.0641 21.6647 31.9357 21.7809 31.7854 21.8613C31.6351 21.9416 31.4676 21.9837 31.2975 21.9837C31.1275 21.9837 30.96 21.9416 30.8097 21.8613C30.6594 21.7809 30.5309 21.6647 30.4355 21.5227C30.2349 21.1636 30.1402 20.7541 30.1625 20.3425C30.1419 19.9311 30.2365 19.5221 30.4355 19.1623Z" stroke="#231F20" stroke-width="0.53"/>
<path d="M36.216 16.7152H35.3774V18.2141H33.8172V19.8663H35.3774V20.9875H33.8172V22.6358H35.3774V24.0717H36.7699V17.6751C36.7706 17.576 36.7811 17.4772 36.8011 17.3801C36.8011 17.325 36.8323 17.2463 36.8557 17.148C36.9064 16.967 36.9064 16.8529 36.8557 16.8097C36.6546 16.7213 36.4338 16.6888 36.216 16.7152Z" fill="white"/>
<path d="M36.216 16.7152H35.3774V18.2141H33.8172V19.8663H35.3774V20.9875H33.8172V22.6358H35.3774V24.0717H36.7699V17.6751C36.7706 17.576 36.7811 17.4772 36.8011 17.3801C36.8011 17.325 36.8323 17.2463 36.8557 17.148C36.9064 16.967 36.9064 16.8529 36.8557 16.8097C36.6546 16.7213 36.4338 16.6888 36.216 16.7152Z" stroke="#231F20" stroke-width="0.53"/>
<path d="M29.4877 26.5306H35.3813V29.6974H36.7738V24.8547H29.4877" fill="white"/>
<path d="M29.4877 26.5306H35.3813V29.6974H36.7738V24.8547H29.4877V26.5306Z" stroke="#231F20" stroke-width="0.53"/>
</g>
<defs>
<clipPath id="clip0_8101_280">
<rect width="37" height="71" fill="white"/>
</clipPath>
</defs>
</svg>
