<svg width="17" height="61" viewBox="0 0 17 61" fill="none" xmlns="http://www.w3.org/2000/svg">
<g clip-path="url(#clip0_8100_55)">
<path d="M2.6003 60.8428V27.1279H0.177139L4.60587 0.0241699L8.07296 27.2729H5.65613V41.976C6.43432 41.0876 9.16115 38.7852 10.1987 38.3501V30.8505L16.8418 42.538L10.1924 52.7752V47.022C10.1924 46.2787 6.72535 46.599 5.49163 51.1797V60.7038" fill="white"/>
<path d="M2.6003 60.8428V27.1279H0.177139L4.60587 0.0241699L8.07296 27.2729H5.65613V41.976C6.43432 41.0876 9.16115 38.7852 10.1987 38.3501V30.8505L16.8418 42.538L10.1924 52.7752V47.022C10.1924 46.2787 6.72535 46.599 5.49163 51.1797V60.7038L2.6003 60.8428Z" stroke="#231916" stroke-width="0.49"/>
</g>
<defs>
<clipPath id="clip0_8100_55">
<rect width="17" height="61" fill="white"/>
</clipPath>
</defs>
</svg>
