<svg width="79" height="62" viewBox="0 0 79 62" fill="none" xmlns="http://www.w3.org/2000/svg">
<g clip-path="url(#clip0_8101_243)">
<path d="M6.89001 8.86004H4.35001V7.79004H2.78001V8.86004H0.230011V10.1H6.89001V8.86004Z" stroke="#231F20" stroke-width="0.45"/>
<path d="M1.57999 16.6201H7.56999V19.0801H9.13999V15.3701H1.57999V16.6201Z" stroke="#231F20" stroke-width="0.45"/>
<path d="M9.14001 7.84009H7.57001V14.9001H9.14001V12.0501H10.66V10.7601H9.14001V7.84009Z" stroke="#231F20" stroke-width="0.45"/>
<path d="M3.57001 14.59C4.06164 14.6004 4.55064 14.5155 5.01001 14.34C5.4026 14.1905 5.74792 13.9384 6.01001 13.6101C6.24558 13.2962 6.36882 12.9123 6.35999 12.52C6.36972 12.1307 6.24626 11.7497 6.01001 11.4401C5.74792 11.1117 5.4026 10.8596 5.01001 10.71C4.08127 10.3636 3.05875 10.3636 2.13 10.71C1.73597 10.8569 1.38999 11.1095 1.13 11.4401C0.896325 11.7517 0.77002 12.1306 0.77002 12.52C0.77002 12.9095 0.896325 13.2885 1.13 13.6001C1.38678 13.9362 1.73349 14.1927 2.13 14.34C2.58937 14.5155 3.07837 14.6004 3.57001 14.59ZM2.47003 12.0401C2.58164 11.8943 2.73518 11.7861 2.91003 11.7301C3.33995 11.5969 3.80006 11.5969 4.22998 11.7301C4.40764 11.786 4.56442 11.894 4.67999 12.0401C4.7936 12.1819 4.85553 12.3583 4.85553 12.5401C4.85553 12.7218 4.7936 12.8982 4.67999 13.0401C4.56246 13.1797 4.40566 13.2807 4.22998 13.33C4.01756 13.4019 3.79417 13.4357 3.57001 13.4301C3.34261 13.4351 3.11605 13.4012 2.90002 13.33C2.72998 13.2805 2.57965 13.1792 2.47003 13.0401C2.35643 12.8982 2.29449 12.7218 2.29449 12.5401C2.29449 12.3583 2.35643 12.1819 2.47003 12.0401Z" stroke="#231F20" stroke-width="0.45"/>
<path d="M18.87 11.48C18.87 11.94 18.87 12.48 18.77 13.05C18.7143 13.6778 18.6242 14.3021 18.5 14.92L20.05 15.07C20.18 14.37 20.27 13.71 20.34 13.07C20.41 12.43 20.43 11.94 20.45 11.48C20.47 11.02 20.45 10.48 20.45 9.84998V8.75H12.15V9.98999H18.87C18.89 10.61 18.88 11.1 18.87 11.48Z" stroke="#231F20" stroke-width="0.45"/>
<path d="M17.69 12.8999H16.14V16.4299H14.9V12.8999H13.33V16.4299H11.16V17.7099H21.4V16.4299H17.69V12.8999Z" stroke="#231F20" stroke-width="0.45"/>
<path d="M30.98 10.3401V7.87012H29.41V14.1001H30.98V11.6101H32.5V10.3401H30.98Z" stroke="#231F20" stroke-width="0.45"/>
<path d="M25.23 13.8101C25.7738 13.8211 26.3123 13.701 26.8 13.4601C27.2515 13.2341 27.6321 12.8881 27.9 12.4601C28.1682 12.0504 28.3075 11.5697 28.3 11.0801C28.3091 10.584 28.1698 10.0965 27.9 9.68011C27.6358 9.24901 27.2542 8.90213 26.8 8.68011C26.307 8.45574 25.7716 8.3396 25.23 8.3396C24.6883 8.3396 24.153 8.45574 23.66 8.68011C23.2099 8.90824 22.8298 9.25376 22.56 9.68011C22.2826 10.0935 22.1394 10.5823 22.15 11.0801C22.1362 11.5797 22.2834 12.0706 22.57 12.4801C22.8391 12.9071 23.2193 13.2528 23.67 13.4801C24.1579 13.708 24.6916 13.8209 25.23 13.8101ZM23.9 10.3801C24.0293 10.1708 24.217 10.0039 24.44 9.90009C24.6881 9.7887 24.958 9.73407 25.23 9.74011C25.5018 9.73506 25.7715 9.78965 26.02 9.90009C26.243 10.0039 26.4307 10.1708 26.56 10.3801C26.7003 10.6044 26.77 10.8657 26.76 11.1301C26.7691 11.3881 26.6993 11.6428 26.56 11.8601C26.4277 12.0669 26.2408 12.233 26.02 12.3401C25.771 12.4499 25.5021 12.5078 25.23 12.5101C24.9578 12.5078 24.689 12.4499 24.44 12.3401C24.2191 12.233 24.0323 12.0669 23.9 11.8601C23.7607 11.6428 23.6909 11.3881 23.7 11.1301C23.69 10.8657 23.7597 10.6044 23.9 10.3801Z" stroke="#231F20" stroke-width="0.45"/>
<path d="M29.83 15.8201H31.2V14.5801H23.57V15.8201H24.96V17.6501H23.49V18.9101H31.32V17.6501H29.81L29.83 15.8201ZM26.52 15.8201H28.3V17.6501H26.57L26.52 15.8201Z" stroke="#231F20" stroke-width="0.45"/>
<path d="M16.13 24.29C13.3194 24.3866 10.5998 25.3104 8.31178 26.9456C6.0238 28.5808 4.26919 30.8548 3.26772 33.4827C2.26624 36.1106 2.06245 38.9756 2.68184 41.7188C3.30122 44.462 4.71625 46.9615 6.74971 48.9042C8.78317 50.8468 11.3446 52.1463 14.1132 52.6398C16.8819 53.1333 19.7346 52.7989 22.314 51.6785C24.8935 50.5581 27.085 48.7015 28.6141 46.3412C30.1432 43.981 30.9418 41.2221 30.91 38.41C30.8685 36.5118 30.453 34.6405 29.6875 32.9031C28.9219 31.1657 27.8211 29.5963 26.4483 28.2848C25.0755 26.9733 23.4575 25.9454 21.687 25.2599C19.9164 24.5744 18.0281 24.2448 16.13 24.29Z" fill="white"/>
<path d="M16.3 53.7001C12.2639 53.7405 8.37451 52.1887 5.47492 49.3808C2.57534 46.573 0.899266 42.7354 0.810007 38.7001C0.78847 36.7025 1.16967 34.7211 1.9308 32.8742C2.69192 31.0272 3.81737 29.3525 5.24 27.9501C8.16625 25.0621 12.1063 23.4338 16.2176 23.4133C20.3289 23.3927 24.285 24.9816 27.24 27.8401C28.6536 29.2103 29.7811 30.8475 30.557 32.6568C31.3329 34.4661 31.7418 36.4116 31.76 38.3801C31.7468 42.4356 30.1292 46.3211 27.2606 49.1878C24.392 52.0546 20.5055 53.6696 16.45 53.6801L16.3 53.7001ZM16.3 25.1301H16.12C12.4859 25.1333 8.99996 26.5708 6.41999 29.1301C5.15824 30.3736 4.15927 31.858 3.48243 33.4951C2.8056 35.1322 2.4647 36.8887 2.47999 38.6601C2.56655 42.2463 4.06238 45.654 6.64344 48.1452C9.22451 50.6364 12.683 52.0106 16.27 51.9701H16.41C20.0165 51.9596 23.4727 50.5243 26.0257 47.9769C28.5787 45.4296 30.0215 41.9766 30.04 38.3701C30.0238 36.6262 29.6621 34.9027 28.9755 33.2995C28.2889 31.6963 27.2911 30.2452 26.04 29.0301C23.4371 26.5052 19.9462 25.1046 16.32 25.1301H16.3Z" fill="#CF1F25"/>
<path d="M9.38 45.98C8.73243 45.5774 8.2096 45.0027 7.87 44.32C7.49077 43.566 7.29218 42.734 7.28998 41.89H9.39001C9.40309 42.2871 9.51294 42.675 9.71002 43.02C9.89176 43.348 10.162 43.6183 10.49 43.8C10.8194 43.9859 11.1918 44.0824 11.57 44.08C11.9711 44.082 12.3652 43.9748 12.71 43.77C13.0467 43.5605 13.3198 43.2632 13.5 42.91C13.6862 42.513 13.7786 42.0784 13.77 41.64C13.7814 41.1841 13.6855 40.732 13.49 40.32C13.305 39.9469 13.017 39.6346 12.66 39.42C12.2655 39.2021 11.8206 39.0917 11.37 39.1H10.37V36.83H11.37C11.7521 36.8346 12.1275 36.7298 12.4518 36.5277C12.7761 36.3257 13.0357 36.035 13.2 35.69C13.3738 35.2967 13.4591 34.87 13.45 34.44C13.461 34.0258 13.3861 33.6138 13.23 33.23C13.0934 32.9018 12.8684 32.6179 12.58 32.41C12.2849 32.2117 11.9354 32.1104 11.58 32.12C11.2278 32.1237 10.8829 32.2202 10.58 32.4C10.2628 32.589 10.0007 32.858 9.82001 33.18C9.62721 33.5473 9.5244 33.9552 9.52002 34.37H7.52002C7.53205 33.5368 7.73023 32.7168 8.10004 31.97C8.42855 31.3008 8.93328 30.7337 9.56 30.33C10.1549 29.9425 10.8501 29.7374 11.56 29.74C12.2723 29.7312 12.9702 29.9406 13.56 30.34C14.1555 30.7496 14.629 31.3129 14.93 31.97C15.2545 32.6923 15.4118 33.4785 15.39 34.27C15.4059 34.8264 15.3247 35.3814 15.15 35.91C14.9922 36.3689 14.7323 36.786 14.39 37.13C14.0806 37.4482 13.6951 37.6823 13.27 37.81V37.94C13.7922 38.0215 14.2789 38.2545 14.67 38.61C15.0625 38.9771 15.3609 39.4333 15.54 39.94C15.7549 40.5323 15.8534 41.1604 15.83 41.79C15.8533 42.6365 15.6643 43.4754 15.28 44.23C14.9327 44.9333 14.3958 45.5255 13.73 45.94C13.0668 46.36 12.2948 46.5757 11.51 46.56C10.7609 46.561 10.0252 46.3607 9.38 45.98Z" fill="#939598"/>
<path d="M19.57 45.5801C18.8246 44.7664 18.3011 43.7746 18.05 42.7001C17.33 39.7095 17.33 36.5907 18.05 33.6001C18.3026 32.527 18.8299 31.538 19.58 30.7301C19.8877 30.4102 20.2575 30.1565 20.6668 29.9845C21.0761 29.8126 21.5161 29.726 21.96 29.7301C22.4053 29.7264 22.8467 29.8131 23.2576 29.9849C23.6684 30.1568 24.0401 30.4104 24.35 30.7301C25.1024 31.5403 25.6299 32.5331 25.88 33.6101C26.2584 35.093 26.4367 36.6199 26.41 38.1501C26.4357 39.6862 26.2608 41.2192 25.89 42.7101C25.64 43.7842 25.1124 44.7738 24.36 45.5801C23.7206 46.2073 22.8607 46.5587 21.965 46.5587C21.0693 46.5587 20.2094 46.2073 19.57 45.5801ZM23.22 43.4101C23.6359 42.8122 23.9126 42.1289 24.03 41.4101C24.41 39.2534 24.41 37.0468 24.03 34.8901C23.9058 34.1733 23.6296 33.4914 23.22 32.8901C23.0848 32.6817 22.8996 32.5104 22.6813 32.3918C22.463 32.2732 22.2185 32.211 21.97 32.211C21.7216 32.211 21.477 32.2732 21.2587 32.3918C21.0404 32.5104 20.8552 32.6817 20.72 32.8901C20.3105 33.4914 20.0343 34.1733 19.91 34.8901C19.6964 35.9632 19.5991 37.0562 19.62 38.1501C19.6004 39.2435 19.6943 40.336 19.9 41.4101C20.0157 42.131 20.2963 42.8155 20.72 43.4101C20.8564 43.6185 21.0426 43.7897 21.2617 43.9081C21.4808 44.0265 21.726 44.0886 21.975 44.0886C22.2241 44.0886 22.4692 44.0265 22.6883 43.9081C22.9075 43.7897 23.0936 43.6185 23.23 43.4101H23.22Z" fill="#939598"/>
<path d="M49.43 7.02997C49.9191 7.03817 50.4051 6.94981 50.86 6.76996C51.2553 6.62541 51.6019 6.37243 51.86 6.03998C52.0962 5.73034 52.2198 5.34931 52.21 4.95996C52.2189 4.56766 52.0956 4.18381 51.86 3.86999C51.6009 3.54084 51.2543 3.29128 50.86 3.14996C50.4064 2.96532 49.9195 2.87678 49.43 2.88995C48.9373 2.87797 48.4474 2.96645 47.99 3.14996C47.5949 3.28981 47.2479 3.53964 46.99 3.86999C46.757 4.18376 46.6312 4.56415 46.6312 4.95496C46.6312 5.34576 46.757 5.72621 46.99 6.03998C47.2474 6.37322 47.5942 6.62638 47.99 6.76996C48.4487 6.94885 48.9377 7.03716 49.43 7.02997ZM48.32 4.47998C48.4396 4.34055 48.5953 4.23676 48.77 4.17999C49.1999 4.04678 49.6601 4.04678 50.09 4.17999C50.2647 4.23676 50.4204 4.34055 50.54 4.47998C50.6503 4.61886 50.7071 4.79274 50.7 4.96997C50.705 5.14079 50.6481 5.3077 50.54 5.44C50.4204 5.57944 50.2647 5.68322 50.09 5.73999C49.6567 5.87339 49.1933 5.87339 48.76 5.73999C48.5889 5.6816 48.4369 5.57793 48.32 5.44C48.2184 5.30473 48.1655 5.13907 48.17 4.96997C48.1641 4.79451 48.217 4.62211 48.32 4.47998Z" stroke="#231F20" stroke-width="0.45"/>
<path d="M47.44 9.05005H53.43V11.52H55V7.80005H47.44V9.05005Z" stroke="#231F20" stroke-width="0.45"/>
<path d="M55 0.27002H53.43V7.33002H55V4.48002H56.52V3.20002H55V0.27002Z" stroke="#231F20" stroke-width="0.45"/>
<path d="M52.75 1.28998H50.21V0.22998H48.64V1.28998H46.08V2.52998H52.75V1.28998Z" stroke="#231F20" stroke-width="0.45"/>
<path d="M64.73 3.94995C64.73 4.40995 64.73 4.95001 64.63 5.51001C64.53 6.07001 64.49 6.71995 64.36 7.38995L65.91 7.52997C66.04 6.82997 66.13 6.17996 66.19 5.57996C66.25 4.97996 66.29 4.43998 66.31 3.97998C66.33 3.51998 66.31 2.97998 66.31 2.34998V1.25H58.02V2.47998H64.74C64.75 3.03998 64.74 3.52995 64.73 3.94995Z" stroke="#231F20" stroke-width="0.45"/>
<path d="M63.55 5.33008H62V8.86008H60.76V5.33008H59.19V8.86008H57.02V10.1401H67.26V8.86008H63.55V5.33008Z" stroke="#231F20" stroke-width="0.45"/>
<path d="M76.84 2.77005V0.300049H75.27V6.53005H76.84V4.04005H78.36V2.77005H76.84Z" stroke="#231F20" stroke-width="0.45"/>
<path d="M77.06 8.26007V7.02002H69.45V8.26007H70.83V10.08H69.37V11.35H77.2V10.08H75.69V8.26007H77.06ZM74.16 10.08H72.38V8.26007H74.16V10.08Z" stroke="#231F20" stroke-width="0.45"/>
<path d="M69.57 5.90009C70.0593 6.13637 70.5967 6.2562 71.14 6.25012C71.6803 6.25759 72.2147 6.13765 72.7 5.90009C73.1555 5.67601 73.5398 5.3298 73.81 4.90009C74.0792 4.49455 74.2187 4.01675 74.21 3.53009C74.2206 3.03068 74.0812 2.5396 73.81 2.12012C73.5409 1.69311 73.1607 1.34741 72.71 1.12012C72.2187 0.889862 71.6827 0.770508 71.14 0.770508C70.5974 0.770508 70.0614 0.889862 69.57 1.12012C69.1194 1.34741 68.7391 1.69311 68.47 2.12012C68.1924 2.53714 68.0493 3.02923 68.06 3.53009C68.051 4.01826 68.1944 4.4971 68.47 4.90009C68.745 5.32215 69.1237 5.66649 69.57 5.90009ZM69.8 2.81012C69.936 2.60529 70.1265 2.44248 70.35 2.34009C70.5974 2.22526 70.8673 2.1672 71.14 2.1701C71.4095 2.16733 71.6761 2.22543 71.92 2.34009C72.147 2.437 72.3389 2.60103 72.47 2.81012C72.6117 3.03752 72.6814 3.30243 72.67 3.57013C72.6777 3.82483 72.608 4.07585 72.47 4.2901C72.3395 4.50207 72.1477 4.66942 71.92 4.77008C71.6761 4.88474 71.4095 4.9429 71.14 4.94012C70.8673 4.94303 70.5974 4.88491 70.35 4.77008C70.1211 4.66662 69.9283 4.49709 69.7965 4.28326C69.6646 4.06944 69.5997 3.82113 69.61 3.57013C69.585 3.3087 69.6335 3.04547 69.75 2.81012H69.8Z" stroke="#231F20" stroke-width="0.45"/>
<path d="M55.56 23.79V15.46H53.99V18.74H52.13V20H53.99V23.79H55.56Z" stroke="#231F20" stroke-width="0.45"/>
<path d="M49.47 20.27C49.6956 20.7263 50.0042 21.1366 50.38 21.48C50.8772 21.9454 51.4766 22.2879 52.13 22.48L52.88 21.25C52.3449 21.0954 51.8455 20.8372 51.41 20.49C51.0345 20.1989 50.7301 19.8261 50.52 19.4C50.3265 19.0119 50.2271 18.5836 50.23 18.15V18.06H52.49V16.82H50.24V15.48H48.66V16.73H46.4V17.97H48.66V18.06C48.6654 18.5378 48.563 19.0107 48.3604 19.4435C48.1579 19.8764 47.8603 20.258 47.49 20.56C47.058 20.917 46.5579 21.1824 46.02 21.34L46.78 22.57C47.4279 22.3719 48.0227 22.0301 48.52 21.57C48.9148 21.1996 49.237 20.7586 49.47 20.27Z" stroke="#231F20" stroke-width="0.45"/>
<path d="M49.68 23.0801H48.1V25.2201V26.0401V26.4901H55.83V25.2201H49.68V23.0801Z" stroke="#231F20" stroke-width="0.45"/>
<path d="M66.48 23.79V15.46H64.91V18.74H63.05V20H64.91V23.79H66.48Z" stroke="#231F20" stroke-width="0.45"/>
<path d="M60.39 20.27C60.6156 20.7263 60.9242 21.1366 61.3 21.48C61.7972 21.9454 62.3966 22.2879 63.05 22.48L63.8 21.25C63.2667 21.091 62.7681 20.8332 62.33 20.49C61.9573 20.196 61.6535 19.8239 61.44 19.4C61.2512 19.0102 61.1521 18.5831 61.15 18.15V18.06H63.41V16.82H61.17V15.48H59.57V16.73H57.3V17.97H59.57V18.06C59.5682 18.522 59.4694 18.9785 59.28 19.4C59.075 19.849 58.7707 20.2457 58.39 20.56C57.9601 20.9202 57.4592 21.1859 56.92 21.34L57.68 22.57C58.3298 22.3695 58.9274 22.0281 59.43 21.57C59.8258 21.1982 60.1511 20.7577 60.39 20.27Z" stroke="#231F20" stroke-width="0.45"/>
<path d="M60.6 23.0801H59.02V25.2201V26.0401V26.4901H66.75V25.2201H60.6V23.0801Z" stroke="#231F20" stroke-width="0.45"/>
<path d="M77.34 15.4399H75.74V26.6799H77.34V15.4399Z" stroke="#231F20" stroke-width="0.45"/>
<path d="M72.32 15.5901H70.73V17.1501H68.17V18.4001H74.88V17.1501H72.32V15.5901Z" stroke="#231F20" stroke-width="0.45"/>
<path d="M73.03 19.3499C72.5635 19.1197 72.0503 19 71.53 19C71.0098 19 70.4966 19.1197 70.03 19.3499C69.7137 19.5221 69.4355 19.7568 69.2126 20.0397C68.9896 20.3226 68.8265 20.6478 68.733 20.9957C68.6395 21.3435 68.6176 21.7067 68.6686 22.0633C68.7197 22.4198 68.8427 22.7623 69.03 23.0699C69.2685 23.4735 69.6148 23.8024 70.03 24.0199C70.488 24.253 70.9963 24.3698 71.51 24.3599C72.027 24.3698 72.5385 24.2531 73 24.0199C73.414 23.8007 73.7599 23.4721 74 23.0699C74.2422 22.6485 74.3696 22.171 74.3696 21.6849C74.3696 21.1989 74.2422 20.7213 74 20.2999C73.7647 19.9044 73.4304 19.577 73.03 19.3499ZM72.76 22.4299C72.6473 22.6346 72.4769 22.8015 72.27 22.9099C72.0475 23.0246 71.8003 23.083 71.55 23.0799C71.2965 23.083 71.0461 23.0247 70.82 22.9099C70.6131 22.8015 70.4427 22.6346 70.33 22.4299C70.2117 22.2012 70.1498 21.9475 70.1498 21.6899C70.1498 21.4324 70.2117 21.1786 70.33 20.9499C70.4452 20.7446 70.6147 20.5751 70.82 20.4599C71.0461 20.3451 71.2965 20.2868 71.55 20.2899C71.8003 20.2868 72.0475 20.3452 72.27 20.4599C72.4753 20.5751 72.6448 20.7446 72.76 20.9499C72.8716 21.1806 72.9295 21.4337 72.9295 21.6899C72.9295 21.9462 72.8716 22.1992 72.76 22.4299Z" stroke="#231F20" stroke-width="0.45"/>
<path d="M61.99 31.85C59.1794 31.9467 56.4598 32.8705 54.1718 34.5057C51.8838 36.1409 50.1292 38.4149 49.1277 41.0428C48.1263 43.6707 47.9224 46.5357 48.5418 49.2789C49.1612 52.0221 50.5762 54.5216 52.6097 56.4642C54.6431 58.4069 57.2046 59.7063 59.9733 60.1998C62.7419 60.6933 65.5946 60.359 68.174 59.2386C70.7535 58.1182 72.945 56.2616 74.4741 53.9013C76.0031 51.5411 76.8018 48.7821 76.77 45.97C76.7272 44.0723 76.3108 42.2016 75.5448 40.4648C74.7787 38.728 73.678 37.1592 72.3054 35.8479C70.9329 34.5366 69.3154 33.5087 67.5455 32.8227C65.7755 32.1367 63.8877 31.8062 61.99 31.85Z" fill="white"/>
<path d="M62.1601 61.2699C58.124 61.3104 54.2346 59.7585 51.335 56.9506C48.4354 54.1428 46.7593 50.3052 46.67 46.2699C46.6468 44.2721 47.0272 42.2902 47.7884 40.443C48.5496 38.5958 49.676 36.9213 51.1001 35.5199C54.0263 32.632 57.9663 31.0037 62.0776 30.9831C66.1889 30.9626 70.1451 32.5514 73.1001 35.4099C74.5067 36.7848 75.6262 38.4254 76.3935 40.2365C77.1609 42.0475 77.5608 43.993 77.57 45.9599C77.5569 50.0163 75.9396 53.9029 73.0713 56.7712C70.2029 59.6395 66.3164 61.2567 62.26 61.2699H62.1601ZM62.1601 32.6999H61.9701C58.3405 32.711 54.8606 34.1475 52.2801 36.6999C51.0174 37.9427 50.0178 39.427 49.3409 41.0643C48.664 42.7016 48.3236 44.4583 48.3401 46.2299C48.4292 49.8143 49.9261 53.2195 52.5069 55.7086C55.0876 58.1976 58.5447 59.5705 62.13 59.5299H62.27C65.8756 59.522 69.3318 58.089 71.8851 55.5432C74.4384 52.9975 75.8816 49.5455 75.9001 45.94C75.885 44.1958 75.5237 42.472 74.837 40.8687C74.1503 39.2653 73.1521 37.8143 71.9001 36.5999C69.2996 34.0714 65.807 32.67 62.18 32.6999H62.1601Z" fill="#CF1F25"/>
<path d="M55.24 53.5401C54.5886 53.1421 54.0646 52.5662 53.73 51.8801C53.3519 51.1292 53.1534 50.3007 53.15 49.46H55.25C55.2647 49.8569 55.3744 50.2444 55.57 50.59C55.7532 50.9143 56.0234 51.181 56.35 51.3601C56.6776 51.5505 57.0512 51.6473 57.43 51.64C57.8292 51.6466 58.2222 51.5402 58.5637 51.3332C58.9051 51.1262 59.1811 50.827 59.36 50.4701C59.5474 50.077 59.6399 49.6454 59.63 49.21C59.6396 48.7511 59.5439 48.2962 59.35 47.8801C59.1673 47.508 58.8785 47.1983 58.52 46.9901C58.1273 46.7675 57.6811 46.6569 57.23 46.6701H56.23V44.39H57.23C57.6146 44.3969 57.9931 44.2928 58.32 44.09C58.6405 43.8878 58.8944 43.5957 59.05 43.2501C59.232 42.8626 59.321 42.438 59.31 42.0101C59.3198 41.5927 59.245 41.1777 59.09 40.7901C58.9532 40.4647 58.7281 40.1841 58.44 39.9801C58.1449 39.7818 57.7954 39.6805 57.44 39.6901C57.0871 39.6887 56.7409 39.7857 56.44 39.9701C56.1194 40.1547 55.8563 40.4248 55.68 40.7501C55.4857 41.1168 55.3828 41.5251 55.38 41.9401H53.38C53.3909 41.1035 53.5891 40.28 53.96 39.5301C54.291 38.8625 54.7952 38.2961 55.42 37.89C56.0168 37.5067 56.7107 37.302 57.42 37.3001C58.1323 37.2913 58.8302 37.5006 59.42 37.9C60.016 38.3107 60.4868 38.8783 60.78 39.5401C61.1134 40.2597 61.2743 41.0473 61.25 41.84C61.266 42.3932 61.1848 42.9449 61.01 43.4701C60.8522 43.9319 60.5925 44.3523 60.25 44.7C59.9379 45.0149 59.5533 45.2484 59.13 45.3801V45.4801C59.6508 45.566 60.1364 45.7983 60.53 46.15C60.9226 46.521 61.2209 46.9805 61.4 47.4901C61.6157 48.0821 61.7142 48.7104 61.69 49.34C61.7146 50.1835 61.5255 51.0194 61.14 51.77C60.7903 52.4743 60.2542 53.0692 59.59 53.4901C58.921 53.9051 58.1472 54.1202 57.36 54.1101C56.6152 54.1123 55.8833 53.9155 55.24 53.5401Z" fill="#939598"/>
<path d="M65.46 53.1499C64.7146 52.3363 64.1911 51.3444 63.94 50.2699C63.22 47.2793 63.22 44.1606 63.94 41.1699C64.1901 40.093 64.7176 39.1001 65.47 38.2899C65.7777 37.97 66.1476 37.7163 66.5568 37.5443C66.9661 37.3724 67.4061 37.2858 67.85 37.2899C68.2953 37.2862 68.7368 37.3729 69.1476 37.5448C69.5584 37.7166 69.93 37.9702 70.24 38.2899C70.9943 39.1026 71.5219 40.0992 71.77 41.18C72.1491 42.6627 72.3273 44.1897 72.3 45.7199C72.3258 47.2528 72.151 48.7824 71.78 50.2699C71.5299 51.3469 71.0024 52.3398 70.25 53.1499C69.6106 53.7772 68.7507 54.1286 67.855 54.1286C66.9593 54.1286 66.0994 53.7772 65.46 53.1499ZM69.11 50.9799C69.5223 50.3802 69.7988 49.6976 69.92 48.9799C70.2999 46.8198 70.2999 44.61 69.92 42.4499C69.7954 41.7332 69.5193 41.0513 69.11 40.4499C68.9748 40.2415 68.7896 40.0702 68.5713 39.9516C68.353 39.833 68.1084 39.7709 67.86 39.7709C67.6115 39.7709 67.3671 39.833 67.1487 39.9516C66.9304 40.0702 66.7452 40.2415 66.61 40.4499C66.2007 41.0513 65.9245 41.7332 65.8 42.4499C65.5864 43.5264 65.4892 44.6227 65.51 45.7199C65.4908 46.8133 65.5846 47.9058 65.79 48.9799C65.9097 49.6997 66.19 50.3833 66.61 50.9799C66.75 51.183 66.9365 51.3497 67.1539 51.4663C67.3713 51.5828 67.6133 51.6458 67.86 51.6499C68.1065 51.645 68.3483 51.5817 68.5655 51.4652C68.7828 51.3488 68.9694 51.1824 69.11 50.9799Z" fill="#939598"/>
</g>
<defs>
<clipPath id="clip0_8101_243">
<rect width="78.59" height="61.27" fill="white"/>
</clipPath>
</defs>
</svg>
