<svg width="42" height="65" viewBox="0 0 42 65" fill="none" xmlns="http://www.w3.org/2000/svg">
<g clip-path="url(#clip0_8068_5504)">
<path d="M16.8 1.16992H11.15L0.300049 43.1099V52.0499H12.48V63.7199H16.8V52.0499H20.0701V42.8499H16.8V1.16992ZM4.93005 42.3799L12.28 13.9999H12.54V42.8999H4.93005V42.3799Z" stroke="#231F20" stroke-width="0.6"/>
<path d="M39.66 15.1001C38.9 10.2667 37.7966 6.60007 36.35 4.10007C34.9033 1.60007 33.1767 0.340068 31.17 0.320068C29.17 0.320068 27.45 1.58007 26.01 4.10007C24.57 6.62007 23.4634 10.2867 22.6901 15.1001C21.1567 26.6327 21.1567 38.3175 22.6901 49.8501C23.4567 54.6701 24.56 58.3367 26 60.8501C27.44 63.3634 29.1634 64.6167 31.17 64.6101C33.17 64.6101 34.9 63.3567 36.36 60.8501C37.82 58.3434 38.9234 54.6767 39.67 49.8501C40.4958 44.0845 40.877 38.264 40.81 32.4401C40.8769 26.639 40.4924 20.8415 39.66 15.1001ZM35.66 44.9001C35.4388 47.5206 34.8462 50.0964 33.9 52.5501C33.14 54.2601 32.23 55.1201 31.18 55.1201C30.13 55.1201 29.18 54.2601 28.46 52.5501C27.5185 50.0949 26.9262 47.5198 26.7001 44.9001C25.8801 36.6136 25.8801 28.2665 26.7001 19.9801C26.9342 17.3356 27.5262 14.7352 28.46 12.2501C29.22 10.5001 30.12 9.63007 31.17 9.63007C32.22 9.63007 33.17 10.5001 33.89 12.2501C34.8149 14.7373 35.4034 17.337 35.64 19.9801C36.0857 24.118 36.2893 28.2784 36.25 32.4401C36.299 36.6017 36.0987 40.7624 35.65 44.9001H35.66Z" stroke="#231F20" stroke-width="0.6"/>
</g>
<defs>
<clipPath id="clip0_8068_5504">
<rect width="41.11" height="64.88" fill="white"/>
</clipPath>
</defs>
</svg>
