<svg width="16" height="60" viewBox="0 0 16 60" fill="none" xmlns="http://www.w3.org/2000/svg">
<g clip-path="url(#clip0_8100_35)">
<path d="M15.8469 59.8501V21.8127C15.8469 18.641 15.4183 11.2061 7.79486 7.78254V0.491699L0.153076 11.9437L7.77038 24.6727V16.9622C9.14635 17.055 10.4368 17.6496 11.3868 18.6287C12.3368 19.6078 12.8773 20.9001 12.9016 22.2504V59.7123" fill="white"/>
<path d="M15.8469 59.8501V21.8127C15.8469 18.641 15.4183 11.2061 7.79486 7.78254V0.491699L0.153076 11.9437L7.77038 24.6727V16.9622C9.14635 17.055 10.4368 17.6496 11.3868 18.6287C12.3368 19.6078 12.8773 20.9001 12.9016 22.2504V59.7123L15.8469 59.8501Z" stroke="#231916" stroke-width="0.49"/>
</g>
<defs>
<clipPath id="clip0_8100_35">
<rect width="16" height="60" fill="white"/>
</clipPath>
</defs>
</svg>
