<svg width="19" height="61" viewBox="0 0 19 61" fill="none" xmlns="http://www.w3.org/2000/svg">
<g clip-path="url(#clip0_8101_67)">
<path d="M13.1025 22.8921V31.2332C7.16885 29.7015 3.10003 34.5222 3.10003 39.0519V47.2565H0.205872L4.99518 60.5548L9.63921 47.2565H6.74501V41.7472C6.74501 40.3105 8.17393 38.3217 10.063 38.3217C10.8838 38.36 11.6575 38.7085 12.2219 39.294C12.7864 39.8795 13.0976 40.6566 13.0904 41.4622V59.2724" fill="white"/>
<path d="M13.1025 27.8492V31.2332C7.16885 29.7015 3.10003 34.5222 3.10003 39.0519V47.2564H0.205872L4.99518 60.5548L9.63921 47.2564H6.74501V41.7472C6.74501 40.3105 8.17393 38.3217 10.063 38.3217C10.8838 38.36 11.6575 38.7085 12.2219 39.294C12.7864 39.8795 13.0976 40.6566 13.0904 41.4622V59.2724L16.4084 59.1359V27.6711" stroke="#231F20" stroke-width="0.49"/>
<path d="M16.3055 27.7067H18.685L14.3377 0.0236816L10.8502 27.8492H13.26" stroke="#231F20" stroke-width="0.49"/>
<path d="M16.3055 27.7067H18.685L14.3377 0.0236816L10.8502 27.8492H13.26" stroke="#231F20" stroke-width="0.49"/>
</g>
<defs>
<clipPath id="clip0_8101_67">
<rect width="18.8545" height="61" fill="white"/>
</clipPath>
</defs>
</svg>
