<svg width="35" height="65" viewBox="0 0 35 65" fill="none" xmlns="http://www.w3.org/2000/svg">
<g clip-path="url(#clip0_8068_5492)">
<path d="M0.300003 11.1899V21.5099L6.17 12.1399H6.31V63.7099H10.85V1.15991H6.52L0.300003 11.1899Z" stroke="#231F20" stroke-width="0.6"/>
<path d="M32.92 15.1001C32.1467 10.2667 31.04 6.60007 29.6 4.10007C28.15 1.58007 26.42 0.320068 24.43 0.320068C22.44 0.320068 20.71 1.58007 19.26 4.10007C17.81 6.62007 16.71 10.2901 15.94 15.1001C14.4067 26.6327 14.4067 38.3175 15.94 49.8501C16.7067 54.6701 17.81 58.3367 19.25 60.8501C20.69 63.3634 22.4167 64.6167 24.43 64.6101C26.43 64.6101 28.16 63.3567 29.62 60.8501C31.08 58.3434 32.1833 54.6767 32.93 49.8501C33.747 44.0837 34.1247 38.2636 34.06 32.4401C34.1246 26.6394 33.7435 20.8423 32.92 15.1001ZM28.92 44.9001C28.6963 47.5192 28.1073 50.0942 27.17 52.5501C26.4 54.2601 25.5 55.1201 24.45 55.1201C23.4 55.1201 22.45 54.2601 21.73 52.5501C20.7838 50.0964 20.1912 47.5206 19.97 44.9001C19.5185 40.7625 19.3114 36.602 19.35 32.4401C19.3111 28.2779 19.5215 24.1171 19.98 19.9801C20.2116 17.3362 20.8003 14.7359 21.73 12.2501C22.49 10.5001 23.39 9.63007 24.45 9.63007C25.51 9.63007 26.4 10.5001 27.16 12.2501C28.0897 14.7359 28.6783 17.3362 28.91 19.9801C29.3556 24.118 29.5593 28.2784 29.52 32.4401C29.5623 36.6021 29.3553 40.7628 28.9 44.9001H28.92Z" stroke="#231F20" stroke-width="0.6"/>
</g>
<defs>
<clipPath id="clip0_8068_5492">
<rect width="34.36" height="64.88" fill="white"/>
</clipPath>
</defs>
</svg>
