<svg width="56" height="36" viewBox="0 0 56 36" fill="none" xmlns="http://www.w3.org/2000/svg">
<g clip-path="url(#clip0_8101_662)">
<path d="M56.01 35.42H0.0100098V0H56.01V35.42ZM5.28003 30.14H50.73V5.27002H5.28003V30.14Z" fill="#231F20"/>
<path d="M23.29 18.41H13.04V17.14H23.29V18.41ZM17.95 14.67C17.5526 15.178 17.0331 15.577 16.4399 15.83C15.6699 16.1562 14.8532 16.3587 14.02 16.43L13.48 15.2C14.1628 15.1465 14.8355 15.0019 15.48 14.77C15.9371 14.6132 16.3537 14.3571 16.7 14.02C16.9401 13.7758 17.0824 13.4521 17.1 13.11V12.81H18.49V13.11C18.4879 13.6755 18.2979 14.2243 17.95 14.67ZM22.36 13.49H13.97V12.25H22.36V13.49ZM20.25 19.25C20.7461 19.3622 21.2065 19.5958 21.59 19.93C21.7377 20.0684 21.8555 20.2357 21.936 20.4215C22.0165 20.6073 22.0581 20.8075 22.0581 21.01C22.0581 21.2125 22.0165 21.4128 21.936 21.5986C21.8555 21.7843 21.7377 21.9516 21.59 22.09C21.2065 22.4242 20.7461 22.6579 20.25 22.77C18.8634 23.0766 17.4266 23.0766 16.04 22.77C15.5381 22.6574 15.0713 22.424 14.6801 22.09C14.5323 21.9516 14.4145 21.7843 14.334 21.5986C14.2535 21.4128 14.2119 21.2125 14.2119 21.01C14.2119 20.8075 14.2535 20.6073 14.334 20.4215C14.4145 20.2357 14.5323 20.0684 14.6801 19.93C15.0661 19.594 15.5302 19.3602 16.03 19.25C16.7246 19.0867 17.4366 19.0095 18.15 19.02C18.8568 19.0099 19.5621 19.0871 20.25 19.25ZM16.84 20.31C16.5672 20.3385 16.3042 20.4273 16.0699 20.57C15.9917 20.614 15.9265 20.6779 15.8809 20.7551C15.8352 20.8324 15.8107 20.9203 15.8099 21.01C15.8119 21.1008 15.8369 21.1897 15.8823 21.2684C15.9278 21.347 15.9923 21.4129 16.0699 21.46C16.2999 21.6147 16.5643 21.7108 16.84 21.74C17.2734 21.8063 17.7116 21.8365 18.15 21.83C18.5818 21.8358 19.0132 21.8056 19.4399 21.74C19.7147 21.7071 19.9782 21.6113 20.21 21.46C20.2877 21.4129 20.3523 21.347 20.3977 21.2684C20.4432 21.1897 20.468 21.1008 20.47 21.01C20.4692 20.9203 20.4447 20.8324 20.399 20.7551C20.3534 20.6779 20.2882 20.614 20.21 20.57C19.9738 20.4316 19.7117 20.3431 19.4399 20.31C18.5766 20.2033 17.7033 20.2033 16.84 20.31ZM18.92 17.81H17.36V15.81H18.92V17.81ZM19.63 14.01C19.9706 14.3493 20.3845 14.6059 20.84 14.76C21.4834 14.9973 22.1563 15.1454 22.84 15.2L22.28 16.43C21.4504 16.3567 20.6372 16.1543 19.87 15.83C19.2734 15.5733 18.7482 15.1752 18.34 14.67C17.9991 14.2217 17.8163 13.6732 17.8199 13.11V12.81H19.23V13.11C19.2412 13.4507 19.3847 13.7735 19.63 14.01Z" fill="#231F20"/>
<path d="M36.28 15.58C36.0463 16.2035 35.6814 16.7696 35.21 17.2399C34.7205 17.7218 34.1244 18.0816 33.47 18.29L32.65 17.04C33.2019 16.8696 33.7126 16.5871 34.15 16.21C34.5337 15.8644 34.8404 15.4419 35.05 14.97C35.2487 14.5194 35.3508 14.0324 35.35 13.54V12.8099H36.63V13.58C36.6296 14.2618 36.5112 14.9385 36.28 15.58ZM39.1899 13.58H33.12V12.3199H39.21L39.1899 13.58ZM42.1899 22.86H34.64V18.7H42.1899V22.86ZM37.1899 14.86C37.3905 15.3036 37.6839 15.6991 38.05 16.02C38.4714 16.3884 38.9653 16.6644 39.5 16.83L38.72 18.0699C38.0799 17.8742 37.4944 17.5318 37.01 17.0699C36.5617 16.6216 36.22 16.0782 36.01 15.48C35.7831 14.8619 35.668 14.2083 35.67 13.5499V12.8099H36.95V13.58C36.9576 14.021 37.0528 14.4561 37.23 14.86H37.1899ZM36.1899 21.61H40.63V19.96H36.1899V21.61ZM41 15.61H38.8199V14.33H41V15.61ZM42.17 18.2399H40.6V11.73H42.17V18.2399Z" fill="#231F20"/>
</g>
<defs>
<clipPath id="clip0_8101_662">
<rect width="56.01" height="35.42" fill="white"/>
</clipPath>
</defs>
</svg>
