<svg width="39" height="65" viewBox="0 0 39 65" fill="none" xmlns="http://www.w3.org/2000/svg">
<g clip-path="url(#clip0_8068_5516)">
<path d="M0.300003 10.5799H12.93V10.9699L2.05 63.7099H6.73L17.61 10.7999V1.15991H0.300003V10.5799Z" stroke="#231F20" stroke-width="0.6"/>
<path d="M36.6801 15.1001C35.9201 10.2667 34.8134 6.60007 33.3601 4.10007C31.9068 1.60007 30.1834 0.340068 28.1901 0.320068C26.1901 0.320068 24.47 1.58007 23.03 4.10007C21.59 6.62007 20.4834 10.2867 19.7101 15.1001C18.1635 26.6318 18.1635 38.3184 19.7101 49.8501C20.4767 54.6701 21.58 58.3367 23.02 60.8501C24.46 63.3634 26.1834 64.6167 28.1901 64.6101C30.1901 64.6101 31.92 63.3567 33.38 60.8501C34.84 58.3434 35.9434 54.6767 36.6901 49.8501C38.2034 38.3162 38.2034 26.634 36.6901 15.1001H36.6801ZM32.6801 44.9001C32.4539 47.5198 31.8615 50.0949 30.92 52.5501C30.16 54.2601 29.2501 55.1201 28.2001 55.1201C27.1501 55.1201 26.2001 54.2601 25.4801 52.5501C24.5386 50.0949 23.9462 47.5198 23.7201 44.9001C23.2686 40.7625 23.0615 36.602 23.1001 32.4401C23.0612 28.2779 23.2716 24.1171 23.7301 19.9801C23.9593 17.3348 24.5514 14.7338 25.49 12.2501C26.24 10.5001 27.1501 9.63007 28.2001 9.63007C29.2501 9.63007 30.15 10.5001 30.91 12.2501C31.8444 14.7345 32.4332 17.3355 32.66 19.9801C33.1096 24.1178 33.3166 28.2782 33.28 32.4401C33.3257 36.6019 33.122 40.7626 32.67 44.9001H32.6801Z" stroke="#231F20" stroke-width="0.6"/>
</g>
<defs>
<clipPath id="clip0_8068_5516">
<rect width="38.12" height="64.88" fill="white"/>
</clipPath>
</defs>
</svg>
