<svg width="29" height="61" viewBox="0 0 29 61" fill="none" xmlns="http://www.w3.org/2000/svg">
<g clip-path="url(#clip0_8101_74)">
<path d="M28.5026 43.5766L21.448 30.4379V40.9784C19.2818 40.9784 17.0092 42.4935 15.3698 44.5709L15.4409 26.5615H17.8496L14.2986 0.0178223L10.7773 26.5615H12.7303V43.9376C11.156 42.1917 9.1793 40.9784 7.21443 40.9784V30.4379L0.112457 43.5766L7.68788 56.5969V48.2284C10.2446 49.0688 11.955 51.3177 12.7184 52.963V60.8521H15.4172V54.2651C15.7072 52.7618 17.6425 49.3233 20.9271 48.2284V56.5791L28.5026 43.5766Z" fill="white"/>
<path d="M28.5026 43.5766L21.448 30.4379V40.9784C19.2818 40.9784 17.0092 42.4935 15.3698 44.5709L15.4409 26.5615H17.8496L14.2986 0.0178223L10.7773 26.5615H12.7303V43.9376C11.156 42.1917 9.1793 40.9784 7.21443 40.9784V30.4379L0.112457 43.5766L7.68788 56.5969V48.2284C10.2446 49.0688 11.955 51.3177 12.7184 52.963V60.8521H15.4172V54.2651C15.7072 52.7618 17.6425 49.3233 20.9271 48.2284V56.5791L28.5026 43.5766Z" stroke="#231F20" stroke-width="0.45"/>
</g>
<defs>
<clipPath id="clip0_8101_74">
<rect width="28.6564" height="61" fill="white"/>
</clipPath>
</defs>
</svg>
