<svg width="77" height="76" viewBox="0 0 77 76" fill="none" xmlns="http://www.w3.org/2000/svg">
<g clip-path="url(#clip0_8068_5456)">
<path d="M37.9799 2.09009C17.9799 2.28009 1.90993 18.3001 2.09993 37.8601C2.28993 57.4201 18.68 73.0901 38.76 72.9501C58.84 72.8101 74.84 56.6801 74.65 37.1101C74.46 17.5401 58.01 1.85008 38 2.11008" fill="white"/>
<path d="M38.4101 75.0899C17.4101 75.0899 0.200039 58.4899 3.9201e-05 37.9299C-0.051465 32.9751 0.896104 28.0606 2.78605 23.4801C4.676 18.8995 7.46956 14.7468 11 11.2699C18.2531 4.11023 28.0206 0.0741833 38.2121 0.0255904C48.4035 -0.0230026 58.2091 3.91974 65.5301 11.0099C69.0337 14.3983 71.8303 18.4481 73.758 22.9248C75.6856 27.4015 76.706 32.2161 76.76 37.0899C76.97 57.7499 59.94 74.7799 38.76 75.0899H38.4101ZM38.4101 4.23992H37.95C28.9481 4.29667 20.3289 7.88801 13.95 14.2399C10.8187 17.3222 8.34133 21.0045 6.66605 25.0664C4.99077 29.1283 4.15196 33.4864 4.19999 37.8799C4.37999 56.2499 19.87 70.9999 38.73 70.8799C57.59 70.7599 72.7301 55.5099 72.5301 37.1599C72.4815 32.8294 71.5724 28.5518 69.8556 24.5758C68.1389 20.5998 65.6488 17.0048 62.5301 13.9999C56.107 7.69606 47.4597 4.17533 38.46 4.19991L38.4101 4.23992Z" fill="#CF1F25"/>
<path d="M21.64 55.84C20.0915 54.8109 18.8481 53.3845 18.04 51.71C17.1459 49.8517 16.6649 47.8219 16.63 45.76H21.63C21.6892 46.7811 21.9689 47.7773 22.4499 48.68C22.8775 49.4899 23.5038 50.1781 24.27 50.68C25.0025 51.1553 25.8567 51.4088 26.73 51.41C27.7646 51.4201 28.77 51.0662 29.5701 50.41C30.4656 49.6716 31.1547 48.7138 31.5701 47.63C32.0673 46.356 32.3118 44.9974 32.29 43.63C32.3165 42.232 32.0685 40.8425 31.56 39.54C31.1541 38.4399 30.464 37.4669 29.56 36.72C28.7248 36.0574 27.686 35.7041 26.62 35.72C25.5937 35.677 24.5807 35.9645 23.73 36.54C22.8496 37.2148 22.197 38.1431 21.86 39.2H17.0799L18.81 16.2H35.81V22.31H23.11L22.24 33.11H22.48C23.0734 32.1769 23.8873 31.4042 24.85 30.86C25.8256 30.2859 26.9381 29.9854 28.0701 29.99C29.8116 29.9845 31.4983 30.5976 32.8299 31.72C34.3394 32.9983 35.4876 34.6498 36.16 36.51C36.989 38.7283 37.396 41.082 37.36 43.45C37.4018 45.9101 36.9425 48.353 36.01 50.63C35.2402 52.6052 33.9473 54.3336 32.27 55.63C30.7001 56.8096 28.7836 57.4356 26.8201 57.41C24.9744 57.4223 23.1683 56.8749 21.64 55.84Z" fill="#939598"/>
<path d="M46.31 54.9C44.4463 52.8947 43.1396 50.4366 42.52 47.77C40.7601 40.353 40.7601 32.627 42.52 25.21C43.1445 22.5423 44.4504 20.0822 46.31 18.07C47.8811 16.5018 50.0101 15.6211 52.2299 15.6211C54.4497 15.6211 56.5789 16.5018 58.15 18.07C60.0166 20.0825 61.3262 22.5469 61.9499 25.22C62.8878 28.8979 63.3284 32.685 63.2599 36.48C63.3289 40.2876 62.8917 44.0875 61.9599 47.78C61.3421 50.4444 60.0353 52.8997 58.17 54.9C56.5916 56.4621 54.4606 57.3383 52.2399 57.3383C50.0193 57.3383 47.8883 56.4621 46.31 54.9ZM55.31 49.53C56.3447 48.0352 57.0284 46.326 57.31 44.53C57.8183 41.8644 58.0461 39.153 57.9899 36.44C58.0341 33.7265 57.7996 31.0156 57.29 28.35C56.9939 26.558 56.3114 24.8519 55.29 23.35C54.9559 22.8298 54.4966 22.4019 53.954 22.1055C53.4115 21.8091 52.8032 21.6537 52.185 21.6537C51.5668 21.6537 50.9584 21.8091 50.4158 22.1055C49.8733 22.4019 49.4139 22.8298 49.0799 23.35C48.0626 24.8541 47.3806 26.5593 47.0799 28.35C46.5575 31.0141 46.3162 33.7256 46.3599 36.44C46.317 39.1539 46.555 41.865 47.07 44.53C47.3562 46.3247 48.0395 48.033 49.07 49.53C49.4113 50.0436 49.8742 50.4649 50.4177 50.7563C50.9611 51.0476 51.5683 51.2001 52.185 51.2001C52.8017 51.2001 53.4087 51.0476 53.9522 50.7563C54.4957 50.4649 54.9587 50.0436 55.3 49.53H55.31Z" fill="#939598"/>
</g>
<defs>
<clipPath id="clip0_8068_5456">
<rect width="76.74" height="75.05" fill="white"/>
</clipPath>
</defs>
</svg>
