<svg width="17" height="61" viewBox="0 0 17 61" fill="none" xmlns="http://www.w3.org/2000/svg">
<g clip-path="url(#clip0_8100_63)">
<path d="M16.3159 59.197V15.3664C16.3159 8.83481 11.5992 6.75258 8.97614 5.65333V0.494385L2.09365 11.0566L8.71147 19.5017L8.84983 14.238C11.9061 14.238 13.0612 17.1461 13.0612 17.9952V31.8436C7.16529 30.343 3.12239 35.0657 3.12239 39.5035V47.5414H0.252655L5.01149 60.5696L9.61992 47.5414H6.74416V42.1382C6.74416 40.7306 8.16397 38.788 10.041 38.788C10.8571 38.8242 11.6268 39.1651 12.1879 39.7391C12.749 40.313 13.0578 41.0751 13.0491 41.8648V59.3133" fill="white"/>
<path d="M16.3159 59.197V15.3664C16.3159 8.83481 11.5992 6.75258 8.97614 5.65333V0.494385L2.09365 11.0566L8.71147 19.5017L8.84983 14.238C11.9061 14.238 13.0612 17.1461 13.0612 17.9952V31.8436C7.16529 30.343 3.12239 35.0657 3.12239 39.5035V47.5414H0.252655L5.01149 60.5696L9.61992 47.5414H6.74416V42.1382C6.74416 40.7306 8.16397 38.788 10.041 38.788C10.8571 38.8242 11.6268 39.1651 12.1879 39.7391C12.749 40.313 13.0578 41.0751 13.0491 41.8648V59.3133L16.3159 59.197Z" stroke="#231916" stroke-width="0.49"/>
</g>
<defs>
<clipPath id="clip0_8100_63">
<rect width="16.4603" height="61" fill="white"/>
</clipPath>
</defs>
</svg>
