<svg width="56" height="36" viewBox="0 0 56 36" fill="none" xmlns="http://www.w3.org/2000/svg">
<g clip-path="url(#clip0_8101_652)">
<path d="M56.01 35.41H0.0100136V0H56.01V35.41ZM5.28003 30.1299H50.73V5.26996H5.28003V30.1299Z" fill="#231F20"/>
<path d="M18.63 16.22C18.29 17.2303 17.7298 18.1525 16.99 18.92C16.1042 19.8271 15.0561 20.5597 13.9 21.08L13.07 19.82C14.0299 19.3922 14.9121 18.8075 15.6801 18.09C16.3092 17.4933 16.7947 16.7616 17.1 15.95C17.4127 15.0744 17.5652 14.1497 17.5501 13.22V12.9401H19.12C19.1311 14.0524 18.9657 15.1595 18.63 16.22ZM18.27 14.22H13.67V12.98H18.27V14.22ZM22.48 23.04H20.88V11.76H22.48V23.04Z" fill="#231F20"/>
<path d="M36.28 15.5699C36.0463 16.1935 35.6814 16.7596 35.21 17.23C34.7154 17.6938 34.1197 18.0361 33.47 18.23L32.65 16.98C33.2019 16.8097 33.7126 16.5271 34.15 16.15C34.5337 15.8044 34.8404 15.3819 35.05 14.91C35.2487 14.4594 35.3508 13.9724 35.35 13.48V12.75H36.63V13.48C36.6402 14.192 36.5217 14.9001 36.28 15.5699ZM39.1899 13.5699H33.12V12.31H39.21L39.1899 13.5699ZM42.1899 22.85H34.64V18.69H42.1899V22.85ZM37.1899 14.85C37.3956 15.2906 37.6882 15.6851 38.05 16.0099C38.4763 16.3714 38.9687 16.6465 39.5 16.8199L38.72 18.05C38.0947 17.8561 37.5219 17.522 37.0453 17.0731C36.5687 16.6243 36.2009 16.0725 35.97 15.46C35.7439 14.8382 35.6289 14.1815 35.63 13.52V12.78H36.91V13.52C36.9231 13.9871 37.0319 14.4467 37.23 14.87L37.1899 14.85ZM36.1899 21.59H40.63V19.94H36.1899V21.59ZM41 15.59H38.8199V14.41H41V15.59ZM42.17 18.22H40.6V11.71H42.17V18.22Z" fill="#231F20"/>
</g>
<defs>
<clipPath id="clip0_8101_652">
<rect width="56.01" height="35.42" fill="white"/>
</clipPath>
</defs>
</svg>
