<svg width="16" height="61" viewBox="0 0 16 61" fill="none" xmlns="http://www.w3.org/2000/svg">
<g clip-path="url(#clip0_8101_215)">
<path d="M10.1432 18.0789V24.6645C5.54971 23.4551 2.39989 27.2612 2.39989 30.8376V37.3154H0.164062L3.86698 47.8148L7.46213 37.3154H5.22161V32.9609C5.22161 31.8266 6.32782 30.261 7.79024 30.261C8.42603 30.2902 9.02567 30.5649 9.46285 31.0275C9.90004 31.49 10.1406 32.1042 10.1339 32.7406" fill="white"/>
<path d="M12.7118 53.6316V60.7703L10.1432 60.8828V53.6644L12.7118 53.6316Z" stroke="#231F20" stroke-width="0.49"/>
<path d="M10.1432 21.9926V24.6643C5.54971 23.455 2.39989 27.2611 2.39989 30.8374V37.3152H0.164062L3.86698 47.8147L7.46213 37.3152H5.22161V32.9608C5.22161 31.8264 6.32782 30.2609 7.79024 30.2609C8.42603 30.29 9.02567 30.5648 9.46285 31.0273C9.90004 31.4899 10.1406 32.1041 10.1339 32.7405V42.9821L12.7025 42.954V21.8613" stroke="#231F20" stroke-width="0.49"/>
<path d="M12.6228 21.8755H14.4649L11.0994 0.0187988L8.39957 21.988H10.2651" stroke="#231F20" stroke-width="0.49"/>
<path d="M12.6228 21.8755H14.4649L11.0994 0.0187988L8.39957 21.988H10.2651" stroke="#231F20" stroke-width="0.49"/>
<path d="M15.557 43.343H13.9493L11.4744 47.1069L9.30422 43.4696H7.72461L10.837 48.6068L7.72461 53.4675H9.15422L11.5494 49.6989L13.9493 53.744H15.6836L12.29 48.4006L15.557 43.343Z" stroke="#231F20" stroke-width="0.45"/>
</g>
<defs>
<clipPath id="clip0_8101_215">
<rect width="15.8757" height="61" fill="white"/>
</clipPath>
</defs>
</svg>
