<svg width="18" height="61" viewBox="0 0 18 61" fill="none" xmlns="http://www.w3.org/2000/svg">
<g clip-path="url(#clip0_8100_59)">
<path d="M16.9754 60.853H14.1638V11.858C14.1638 7.89103 11.6314 7.6029 9.98663 7.6029C8.34184 7.6029 5.64194 8.75556 5.64194 10.8095V17.1186H8.60875L4.17715 41.521L0.148972 17.2596H3.25235L3.10336 7.6029C3.10336 3.34779 6.25018 0.141113 10.3901 0.141113C14.53 0.141113 17.2175 2.91855 17.2175 7.16752" fill="white"/>
<path d="M16.9754 60.853H14.1638V11.858C14.1638 7.89103 11.6314 7.6029 9.98663 7.6029C8.34184 7.6029 5.64194 8.75556 5.64194 10.8095V17.1186H8.60875L4.17715 41.521L0.148972 17.2596H3.25235L3.10336 7.6029C3.10336 3.34779 6.25018 0.141113 10.3901 0.141113C14.53 0.141113 17.2175 2.91855 17.2175 7.16752L16.9754 60.853Z" stroke="#231916" stroke-width="0.49"/>
</g>
<defs>
<clipPath id="clip0_8100_59">
<rect width="17.4286" height="61" fill="white"/>
</clipPath>
</defs>
</svg>
