<svg width="77" height="76" viewBox="0 0 77 76" fill="none" xmlns="http://www.w3.org/2000/svg">
<g clip-path="url(#clip0_8068_5432)">
<path d="M37.99 2.09009C17.99 2.28009 1.90999 18.3001 2.09999 37.8601C2.28999 57.4201 18.68 73.0901 38.75 72.9501C58.82 72.8101 74.83 56.6801 74.63 37.1101C74.43 17.5401 58 1.85008 37.99 2.11008" fill="white"/>
<path d="M38.38 75.0899C17.38 75.0899 0.180028 58.4899 -0.0299723 37.9299C-0.080905 32.9751 0.866858 28.0609 2.75677 23.4804C4.64668 18.9 7.44001 14.7472 10.97 11.2699C18.2226 4.11322 27.988 0.0790637 38.177 0.0304733C48.366 -0.018117 58.1695 3.92274 65.49 11.0099C68.9972 14.3961 71.7969 18.4453 73.7264 22.9223C75.6559 27.3994 76.6768 32.2151 76.73 37.0899C76.94 57.7499 59.91 74.7799 38.73 75.0899H38.38ZM38.43 4.23992H37.97C28.9681 4.29667 20.3489 7.88801 13.97 14.2399C10.8405 17.3236 8.36429 21.0061 6.68914 25.0677C5.014 29.1293 4.17429 33.4867 4.22003 37.8799C4.40003 56.2499 19.91 70.9999 38.75 70.8799C57.59 70.7599 72.75 55.5099 72.55 37.1599C72.5085 32.8329 71.6075 28.5572 69.8993 24.5813C68.1912 20.6054 65.7101 17.0087 62.6 13.9999C56.1572 7.68267 47.4831 4.16122 38.46 4.19991L38.43 4.23992Z" fill="#CF1F25"/>
<path d="M16.85 51.4801L26.99 37.69C28.1033 36.1167 28.9633 34.83 29.57 33.83C30.1502 32.8884 30.6168 31.8814 30.96 30.83C31.2843 29.8152 31.4463 28.7555 31.44 27.69C31.4618 26.581 31.2364 25.4811 30.78 24.47C30.4008 23.5979 29.7926 22.8446 29.02 22.2901C28.2734 21.7769 27.3859 21.5078 26.48 21.52C25.5651 21.5098 24.6724 21.8016 23.94 22.35C23.1556 22.9607 22.5622 23.7831 22.23 24.72C21.8191 25.8611 21.6192 27.0674 21.64 28.28H16.74C16.6911 25.9974 17.1168 23.7296 17.99 21.62C18.7081 19.8415 19.9145 18.3023 21.47 17.18C22.9578 16.1312 24.7399 15.5815 26.56 15.61C28.3779 15.5681 30.1648 16.0847 31.68 17.09C33.1937 18.1409 34.3904 19.5866 35.14 21.27C35.9908 23.1753 36.4141 25.2437 36.38 27.33C36.3857 28.8662 36.1702 30.3953 35.74 31.87C35.2136 33.5583 34.485 35.1767 33.57 36.69C32.2286 38.9205 30.7629 41.0739 29.18 43.14L24.06 50.32V50.63H36.81V56.74H16.88L16.85 51.4801Z" fill="#939598"/>
<path d="M46.01 54.9001C44.1501 52.8921 42.8441 50.4351 42.22 47.7701C40.4602 40.3531 40.4602 32.6272 42.22 25.2101C42.8518 22.543 44.1606 20.0838 46.02 18.0701C47.5894 16.5026 49.7169 15.6221 51.935 15.6221C54.1532 15.6221 56.2806 16.5026 57.85 18.0701C59.7166 20.0827 61.0264 22.547 61.65 25.2201C62.5928 28.8971 63.0335 32.6849 62.96 36.4801C63.0343 40.288 62.597 44.0886 61.66 47.7801C61.0463 50.446 59.7388 52.9023 57.87 54.9001C56.2917 56.4622 54.1607 57.3385 51.94 57.3385C49.7193 57.3385 47.5884 56.4622 46.01 54.9001ZM55.01 49.5301C56.0405 48.0331 56.7238 46.3249 57.01 44.5301C57.5222 41.865 57.7534 39.1535 57.7 36.4401C57.7414 33.7262 57.5035 31.0153 56.99 28.3501C56.6893 26.5594 56.0073 24.8542 54.99 23.3501C54.656 22.8299 54.1966 22.402 53.6541 22.1056C53.1115 21.8092 52.5032 21.6539 51.885 21.6539C51.2668 21.6539 50.6585 21.8092 50.116 22.1056C49.5734 22.402 49.1141 22.8299 48.78 23.3501C47.7625 24.8541 47.0804 26.5593 46.78 28.3501C45.8401 33.7025 45.8401 39.1777 46.78 44.5301C47.0617 46.3261 47.7453 48.0353 48.78 49.5301C49.1213 50.0437 49.5843 50.465 50.1278 50.7564C50.6712 51.0478 51.2784 51.2003 51.895 51.2003C52.5117 51.2003 53.1188 51.0478 53.6622 50.7564C54.2057 50.465 54.6687 50.0437 55.01 49.5301Z" fill="#939598"/>
</g>
<defs>
<clipPath id="clip0_8068_5432">
<rect width="76.74" height="75.05" fill="white"/>
</clipPath>
</defs>
</svg>
