<svg width="17" height="61" viewBox="0 0 17 61" fill="none" xmlns="http://www.w3.org/2000/svg">
<g clip-path="url(#clip0_8100_51)">
<path d="M14.4313 60.8428V27.1279H16.8165L12.451 0.0241699L8.94603 27.2729H11.3692V41.976C10.6226 41.0876 7.90212 38.7852 6.85821 38.3501V30.8505L0.170822 42.5441L6.85188 52.7752V47.022C6.85188 46.2787 10.3189 46.599 11.5147 51.1797V60.7038" fill="white"/>
<path d="M14.4313 60.8428V27.1279H16.8165L12.451 0.0241699L8.94603 27.2729H11.3692V41.976C10.6226 41.0876 7.90212 38.7852 6.85821 38.3501V30.8505L0.170822 42.5441L6.85188 52.7752V47.022C6.85188 46.2787 10.3189 46.599 11.5147 51.1797V60.7038L14.4313 60.8428Z" stroke="#231916" stroke-width="0.49"/>
</g>
<defs>
<clipPath id="clip0_8100_51">
<rect width="17" height="61" fill="white"/>
</clipPath>
</defs>
</svg>
