<svg width="36" height="56" viewBox="0 0 36 56" fill="none" xmlns="http://www.w3.org/2000/svg">
<g clip-path="url(#clip0_8101_657)">
<path d="M0 56V0H35.42V56H0ZM5.28003 5.27997V50.73H30.14V5.27997H5.28003Z" fill="#231F20"/>
<path d="M18.17 18.93C17.834 19.9428 17.2772 20.8684 16.54 21.64C15.651 22.5406 14.6034 23.2694 13.45 23.79L12.62 22.53C13.5744 22.1018 14.4526 21.5209 15.22 20.81C15.8503 20.2084 16.3388 19.4739 16.65 18.66C16.9563 17.783 17.1052 16.8588 17.09 15.93V15.65H18.66C18.6764 16.7627 18.5109 17.8706 18.17 18.93ZM17.8101 16.93H13.22V15.69H17.8101V16.93ZM22.02 25.75H20.42V14.47H22.02V25.75Z" fill="#231F20"/>
<path d="M16.15 33.4401C15.9213 34.0661 15.5557 34.6332 15.08 35.1C14.5916 35.5906 13.9909 35.9545 13.33 36.16L12.52 34.91C13.0742 34.7403 13.5857 34.4539 14.02 34.0701C14.3989 33.7363 14.702 33.3254 14.9089 32.8649C15.1159 32.4044 15.2219 31.905 15.22 31.4001V30.6801H16.5V31.4001C16.5042 32.0954 16.3858 32.7859 16.15 33.4401ZM19.0601 31.4401H12.96V30.1801H19.0601V31.4401ZM22.0601 40.7101H14.51V36.5601H22.0601V40.7101ZM17.0601 32.7101C17.2632 33.1522 17.5561 33.5472 17.92 33.8701C18.3414 34.2385 18.8353 34.5145 19.37 34.6801L18.59 35.92C17.9501 35.724 17.3646 35.3816 16.88 34.92C16.434 34.4737 16.0925 33.9342 15.88 33.3401C15.6539 32.7218 15.5388 32.0684 15.54 31.41V30.67H16.8199V31.41C16.8179 31.8682 16.9134 32.3216 17.1 32.7401L17.0601 32.7101ZM16.0601 39.4601H20.5V37.8101H16.0601V39.4601ZM20.87 33.4601H18.6901V32.1801H20.88L20.87 33.4601ZM22.04 36.0801H20.47V29.5701H22.04V36.0801Z" fill="#231F20"/>
</g>
<defs>
<clipPath id="clip0_8101_657">
<rect width="35.42" height="56.01" fill="white"/>
</clipPath>
</defs>
</svg>
