<svg width="77" height="76" viewBox="0 0 77 76" fill="none" xmlns="http://www.w3.org/2000/svg">
<g clip-path="url(#clip0_8068_5462)">
<path d="M37.99 2.09009C17.99 2.28009 1.91997 18.3001 2.10997 37.8601C2.29997 57.4201 18.69 73.1201 38.75 72.9401C58.81 72.7601 74.83 56.6701 74.64 37.1001C74.45 17.5301 58 1.8401 37.99 2.1001" fill="white"/>
<path d="M38.41 75.0899C17.41 75.0899 0.21008 58.4899 0.0100797 37.9299C-0.0414244 32.9751 0.906022 28.0606 2.79597 23.4801C4.68591 18.8995 7.4796 14.7468 11.0101 11.2699C18.2631 4.11023 28.0306 0.0741833 38.222 0.0255904C48.4134 -0.0230026 58.219 3.91974 65.54 11.0099C69.0382 14.4008 71.8293 18.4518 73.7518 22.9283C75.6742 27.4049 76.6899 32.2183 76.7401 37.0899C76.9401 57.7499 59.9101 74.7799 38.7401 75.0899H38.41ZM38.47 4.23992H38.0101C28.9908 4.28357 20.3513 7.87589 13.96 14.2399C10.8287 17.3222 8.35125 21.0045 6.67597 25.0664C5.00069 29.1283 4.162 33.4864 4.21003 37.8799C4.39003 56.1399 19.7 70.8799 38.41 70.8799H38.73C57.55 70.6399 72.73 55.5099 72.54 37.1599C72.4914 32.8294 71.5824 28.5518 69.8657 24.5758C68.1489 20.5998 65.6587 17.0048 62.54 13.9999C56.1169 7.69606 47.4697 4.17533 38.47 4.19991V4.23992Z" fill="#CF1F25"/>
<path d="M21.44 55.4C19.5 53.7304 18.0775 51.5411 17.34 49.09C16.1783 45.385 15.6476 41.511 15.7701 37.63C15.6958 33.6308 16.1702 29.6403 17.18 25.77C17.8555 22.9534 19.2314 20.353 21.18 18.21C22.5903 16.7617 24.4653 15.8558 26.4765 15.651C28.4877 15.4462 30.5067 15.9556 32.18 17.09C33.6657 18.1345 34.8629 19.5381 35.66 21.17C36.5863 23.0205 37.1562 25.0288 37.34 27.09H32.2401C32.0716 26.1255 31.7509 25.1939 31.29 24.33C30.9038 23.6035 30.3352 22.9901 29.6401 22.55C28.946 22.1334 28.1494 21.9186 27.34 21.93C26.6686 21.9267 26.0049 22.0721 25.3963 22.3556C24.7877 22.6392 24.2494 23.0539 23.82 23.57C22.7213 24.9508 21.9642 26.5714 21.61 28.3C21.0618 30.7274 20.8067 33.2118 20.85 35.7H21.1301C21.5794 34.606 22.2043 33.5927 22.98 32.7C23.6851 31.8915 24.55 31.2378 25.5201 30.78C26.4589 30.3406 27.4835 30.1152 28.5201 30.12C30.2218 30.1218 31.8684 30.7238 33.17 31.82C34.6542 33.0782 35.7848 34.7016 36.45 36.53C37.2768 38.7105 37.6808 41.0284 37.6401 43.36C37.6779 45.817 37.2292 48.2572 36.32 50.54C35.5539 52.5145 34.2644 54.2431 32.59 55.54C30.9805 56.7325 29.0244 57.3645 27.0214 57.3392C25.0184 57.3139 23.079 56.6327 21.5001 55.4H21.44ZM29.83 50.4C30.7208 49.6168 31.4072 48.6282 31.83 47.52C32.3394 46.2489 32.5909 44.8892 32.57 43.52C32.5945 42.1533 32.3534 40.7948 31.86 39.52C31.4487 38.4228 30.7595 37.4511 29.86 36.7C29.0636 36.0255 28.0538 35.6554 27.0101 35.6554C25.9664 35.6554 24.9564 36.0255 24.16 36.7C23.2651 37.4715 22.5776 38.4547 22.16 39.56C21.642 40.8038 21.3754 42.1377 21.3754 43.485C21.3754 44.8323 21.642 46.1663 22.16 47.41C22.5806 48.5222 23.2673 49.5145 24.16 50.3C24.9493 50.9974 25.9668 51.3816 27.0201 51.38C28.0452 51.3874 29.04 51.0333 29.83 50.38V50.4Z" fill="#939598"/>
<path d="M46.64 54.9001C44.7801 52.8921 43.474 50.4351 42.85 47.7701C41.0901 40.3531 41.0901 32.6272 42.85 25.2101C43.4817 22.543 44.7905 20.0838 46.65 18.0701C48.2194 16.5026 50.3468 15.6221 52.5649 15.6221C54.7831 15.6221 56.9106 16.5026 58.48 18.0701C60.3466 20.0827 61.6562 22.547 62.2799 25.2201C63.2227 28.8971 63.6634 32.6849 63.5899 36.4801C63.6642 40.288 63.2269 44.0886 62.2899 47.7801C61.6761 50.446 60.3687 52.9023 58.5 54.9001C56.9216 56.4622 54.7906 57.3385 52.5699 57.3385C50.3493 57.3385 48.2183 56.4622 46.64 54.9001ZM55.64 49.5301C56.6705 48.0331 57.3538 46.3249 57.64 44.5301C58.1522 41.865 58.3834 39.1535 58.3299 36.4401C58.3714 33.7262 58.1335 31.0153 57.62 28.3501C57.3193 26.5594 56.6372 24.8542 55.62 23.3501C55.2859 22.8299 54.8266 22.402 54.284 22.1056C53.7415 21.8092 53.1332 21.6539 52.515 21.6539C51.8968 21.6539 51.2884 21.8092 50.7458 22.1056C50.2033 22.402 49.7439 22.8299 49.4099 23.3501C48.3924 24.8541 47.7103 26.5593 47.4099 28.3501C46.4699 33.7025 46.4699 39.1777 47.4099 44.5301C47.6915 46.3261 48.3752 48.0353 49.4099 49.5301C49.7512 50.0437 50.2142 50.465 50.7577 50.7564C51.3012 51.0478 51.9083 51.2003 52.525 51.2003C53.1417 51.2003 53.7487 51.0478 54.2922 50.7564C54.8357 50.465 55.2987 50.0437 55.64 49.5301Z" fill="#939598"/>
</g>
<defs>
<clipPath id="clip0_8068_5462">
<rect width="76.74" height="75.05" fill="white"/>
</clipPath>
</defs>
</svg>
