<svg width="74" height="42" viewBox="0 0 74 42" fill="none" xmlns="http://www.w3.org/2000/svg">
<mask id="mask0_8101_115" style="mask-type:luminance" maskUnits="userSpaceOnUse" x="4" y="6" width="65" height="29">
<path d="M68.52 6.75H4.94995V34.9H68.52V6.75Z" fill="white"/>
</mask>
<g mask="url(#mask0_8101_115)">
<path d="M28.7645 6.63277L22.443 0.311279L19.2822 3.47207L25.6037 9.79356L28.7645 6.63277Z" stroke="#231F20" stroke-width="0.41"/>
<path d="M41.4023 6.64067L35.0808 0.319092L31.92 3.47988L38.2415 9.80146L41.4023 6.64067Z" stroke="#231F20" stroke-width="0.41"/>
<path d="M31.9161 3.47115L25.5946 9.79272L28.7553 12.9535L35.0769 6.63189L31.9161 3.47115Z" stroke="#231F20" stroke-width="0.41"/>
<path d="M41.4163 12.9849L35.0948 6.66333L31.934 9.82408L38.2556 16.1457L41.4163 12.9849Z" stroke="#231F20" stroke-width="0.41"/>
<path d="M54.0542 12.9827L47.7326 6.66113L44.5719 9.82188L50.8934 16.1435L54.0542 12.9827Z" stroke="#231F20" stroke-width="0.41"/>
<path d="M44.5782 9.81938L38.2567 16.1409L41.4175 19.3017L47.739 12.9802L44.5782 9.81938Z" stroke="#231F20" stroke-width="0.41"/>
<path d="M44.5793 3.50028L38.2578 9.82178L41.4185 12.9826L47.74 6.66107L44.5793 3.50028Z" stroke="#231F20" stroke-width="0.41"/>
<path d="M16.0895 6.60958L9.76804 0.288086L6.6073 3.44883L12.9288 9.77033L16.0895 6.60958Z" stroke="#231F20" stroke-width="0.41"/>
<path d="M6.61508 3.4539L0.293587 9.77539L3.45438 12.9362L9.77587 6.61469L6.61508 3.4539Z" stroke="#231F20" stroke-width="0.41"/>
<path d="M16.1177 12.9538L9.79624 6.63232L6.63545 9.79311L12.9569 16.1146L16.1177 12.9538Z" stroke="#231F20" stroke-width="0.41"/>
<path d="M28.7556 12.9616L22.4341 6.64014L19.2733 9.80093L25.5948 16.1224L28.7556 12.9616Z" stroke="#231F20" stroke-width="0.41"/>
<path d="M19.2772 9.7878L12.9557 16.1094L16.1164 19.2701L22.438 12.9485L19.2772 9.7878Z" stroke="#231F20" stroke-width="0.41"/>
<path d="M19.2783 3.46895L12.9567 9.79053L16.1175 12.9513L22.4391 6.62969L19.2783 3.46895Z" stroke="#231F20" stroke-width="0.41"/>
<path d="M16.0905 19.2785L9.76901 12.957L6.60822 16.1178L12.9297 22.4393L16.0905 19.2785Z" stroke="#231F20" stroke-width="0.41"/>
<path d="M6.60415 16.1228L0.282661 22.4443L3.44341 25.6051L9.7649 19.2836L6.60415 16.1228Z" stroke="#231F20" stroke-width="0.41"/>
<path d="M6.60523 9.804L0.283741 16.1255L3.44449 19.2862L9.76598 12.9647L6.60523 9.804Z" stroke="#231F20" stroke-width="0.41"/>
<path d="M16.1116 25.6399L9.79013 19.3184L6.62934 22.4791L12.9508 28.8006L16.1116 25.6399Z" stroke="#231F20" stroke-width="0.41"/>
<path d="M28.7495 25.6379L22.428 19.3164L19.2672 22.4772L25.5887 28.7987L28.7495 25.6379Z" stroke="#231F20" stroke-width="0.41"/>
<path d="M19.2833 22.4641L12.9618 28.7856L16.1225 31.9464L22.4441 25.6248L19.2833 22.4641Z" stroke="#231F20" stroke-width="0.41"/>
<path d="M19.2844 16.145L12.9628 22.4666L16.1236 25.6273L22.4452 19.3058L19.2844 16.145Z" stroke="#231F20" stroke-width="0.41"/>
<path d="M54.0926 6.64083L47.7711 0.319336L44.6103 3.48013L50.9318 9.80162L54.0926 6.64083Z" stroke="#231F20" stroke-width="0.41"/>
<path d="M66.7233 6.63155L60.4018 0.310059L57.241 3.47085L63.5625 9.79234L66.7233 6.63155Z" stroke="#231F20" stroke-width="0.41"/>
<path d="M57.2571 3.47017L50.9356 9.79175L54.0963 12.9525L60.4179 6.63092L57.2571 3.47017Z" stroke="#231F20" stroke-width="0.41"/>
<path d="M66.7615 12.9758L60.44 6.6543L57.2792 9.81509L63.6007 16.1366L66.7615 12.9758Z" stroke="#231F20" stroke-width="0.41"/>
<path d="M69.9192 9.80415L63.5977 16.1257L66.7585 19.2865L73.08 12.9649L69.9192 9.80415Z" stroke="#231F20" stroke-width="0.41"/>
<path d="M69.9204 3.48506L63.5988 9.80664L66.7595 12.9674L73.0811 6.64581L69.9204 3.48506Z" stroke="#231F20" stroke-width="0.41"/>
<path d="M54.1006 19.2929L47.7791 12.9714L44.6183 16.1322L50.9398 22.4537L54.1006 19.2929Z" stroke="#231F20" stroke-width="0.41"/>
<path d="M66.7384 19.2907L60.4169 12.9692L57.2562 16.13L63.5777 22.4515L66.7384 19.2907Z" stroke="#231F20" stroke-width="0.41"/>
<path d="M57.2562 16.135L50.9346 22.4565L54.0954 25.6173L60.417 19.2958L57.2562 16.135Z" stroke="#231F20" stroke-width="0.41"/>
<path d="M57.2572 9.81612L50.9357 16.1377L54.0965 19.2985L60.418 12.9769L57.2572 9.81612Z" stroke="#231F20" stroke-width="0.41"/>
<path d="M66.7595 25.6279L60.438 19.3064L57.2772 22.4672L63.5987 28.7887L66.7595 25.6279Z" stroke="#231F20" stroke-width="0.41"/>
<path d="M69.9212 22.476L63.5997 28.7976L66.7604 31.9584L73.082 25.6368L69.9212 22.476Z" stroke="#231F20" stroke-width="0.41"/>
<path d="M69.9223 16.1572L63.6007 22.4788L66.7615 25.6395L73.0831 19.318L69.9223 16.1572Z" stroke="#231F20" stroke-width="0.41"/>
<path d="M54.1015 31.9619L47.78 25.6404L44.6193 28.8012L50.9407 35.1227L54.1015 31.9619Z" stroke="#231F20" stroke-width="0.41"/>
<path d="M66.7394 31.9697L60.4179 25.6482L57.2571 28.809L63.5786 35.1305L66.7394 31.9697Z" stroke="#231F20" stroke-width="0.41"/>
<path d="M57.2552 28.8042L50.9337 35.1257L54.0944 38.2865L60.416 31.9649L57.2552 28.8042Z" stroke="#231F20" stroke-width="0.41"/>
<path d="M57.2563 22.4851L50.9347 28.8066L54.0955 31.9674L60.4171 25.6458L57.2563 22.4851Z" stroke="#231F20" stroke-width="0.41"/>
<path d="M66.7534 38.3139L60.4319 31.9924L57.2711 35.1532L63.5926 41.4747L66.7534 38.3139Z" stroke="#231F20" stroke-width="0.41"/>
<path d="M69.9184 28.8332L63.5968 35.1548L66.7576 38.3156L73.0792 31.994L69.9184 28.8332Z" stroke="#231F20" stroke-width="0.41"/>
<path d="M28.7808 19.2889L22.4592 12.9673L19.2984 16.1281L25.62 22.4497L28.7808 19.2889Z" stroke="#231F20" stroke-width="0.41"/>
<path d="M41.4287 19.2867L35.1071 12.9651L31.9463 16.1259L38.2679 22.4475L41.4287 19.2867Z" stroke="#231F20" stroke-width="0.41"/>
<path d="M31.9522 16.1148L25.6307 22.4363L28.7915 25.597L35.113 19.2755L31.9522 16.1148Z" stroke="#231F20" stroke-width="0.41"/>
<path d="M31.9533 9.79594L25.6318 16.1174L28.7925 19.2782L35.114 12.9567L31.9533 9.79594Z" stroke="#231F20" stroke-width="0.41"/>
<path d="M41.4497 25.6241L35.1282 19.3025L31.9674 22.4632L38.289 28.7848L41.4497 25.6241Z" stroke="#231F20" stroke-width="0.41"/>
<path d="M54.0875 25.6218L47.766 19.3003L44.6052 22.461L50.9267 28.7825L54.0875 25.6218Z" stroke="#231F20" stroke-width="0.41"/>
<path d="M44.6072 22.4559L38.2858 28.7773L41.4465 31.9381L47.768 25.6166L44.6072 22.4559Z" stroke="#231F20" stroke-width="0.41"/>
<path d="M44.6083 16.137L38.2868 22.4585L41.4476 25.6193L47.7691 19.2978L44.6083 16.137Z" stroke="#231F20" stroke-width="0.41"/>
<path d="M28.8159 31.9664L22.4944 25.6448L19.3336 28.8056L25.6551 35.1271L28.8159 31.9664Z" stroke="#231F20" stroke-width="0.41"/>
<path d="M41.4467 31.9671L35.1251 25.6455L31.9643 28.8063L38.2859 35.1279L41.4467 31.9671Z" stroke="#231F20" stroke-width="0.41"/>
<path d="M31.9725 28.8067L25.651 35.1282L28.8117 38.2889L35.1332 31.9674L31.9725 28.8067Z" stroke="#231F20" stroke-width="0.41"/>
<path d="M31.9636 22.4878L25.6421 28.8093L28.8028 31.9701L35.1243 25.6486L31.9636 22.4878Z" stroke="#231F20" stroke-width="0.41"/>
<path d="M41.4777 38.3183L35.1562 31.9968L31.9955 35.1576L38.317 41.4791L41.4777 38.3183Z" stroke="#231F20" stroke-width="0.41"/>
<path d="M54.1155 38.3161L47.794 31.9946L44.6333 35.1554L50.9548 41.4769L54.1155 38.3161Z" stroke="#231F20" stroke-width="0.41"/>
<path d="M44.6427 28.8288L38.3212 35.1504L41.482 38.3112L47.8035 31.9896L44.6427 28.8288Z" stroke="#231F20" stroke-width="0.41"/>
<path d="M16.1369 31.9531L9.81537 25.6316L6.65458 28.7924L12.9761 35.1139L16.1369 31.9531Z" stroke="#231F20" stroke-width="0.41"/>
<path d="M6.65857 28.7966L0.336994 35.1182L3.49774 38.2789L9.81932 31.9573L6.65857 28.7966Z" stroke="#231F20" stroke-width="0.41"/>
<path d="M6.65966 22.4677L0.338078 28.7893L3.49882 31.9501L9.8204 25.6285L6.65966 22.4677Z" stroke="#231F20" stroke-width="0.41"/>
<path d="M16.1579 38.2903L9.83636 31.9688L6.67562 35.1295L12.9972 41.4511L16.1579 38.2903Z" stroke="#231F20" stroke-width="0.41"/>
<path d="M28.8058 38.2981L22.4842 31.9766L19.3235 35.1373L25.645 41.4589L28.8058 38.2981Z" stroke="#231F20" stroke-width="0.41"/>
<path d="M19.3146 28.8186L12.9931 35.1401L16.1539 38.3009L22.4754 31.9794L19.3146 28.8186Z" stroke="#231F20" stroke-width="0.41"/>
</g>
<path d="M68.52 6.75H4.95V34.9H68.52V6.75Z" stroke="#231F20" stroke-width="0.41"/>
</svg>
