<svg width="28" height="62" viewBox="0 0 28 62" fill="none" xmlns="http://www.w3.org/2000/svg">
<g clip-path="url(#clip0_8100_47)">
<path d="M27.8497 12.8363L20.9566 0.0576172V10.3094C18.3428 10.3094 15.5729 12.5543 14.0173 15.3C12.4444 12.5543 9.70342 10.3094 7.07806 10.3094V0.0576172L0.138779 12.8363L7.53492 25.5V17.3607C10.3048 18.2702 12.0686 20.8605 12.6642 22.4837V61.8676H15.093V23.232C15.3705 21.77 17.2615 18.4256 20.4709 17.3607V25.4827" fill="white"/>
<path d="M27.8497 12.8363L20.9566 0.0576172V10.3094C18.3428 10.3094 15.5729 12.5543 14.0173 15.3C12.4444 12.5543 9.70342 10.3094 7.07806 10.3094V0.0576172L0.138779 12.8363L7.53492 25.5V17.3607C10.3048 18.2702 12.0686 20.8605 12.6642 22.4837V61.8676H15.093V23.232C15.3705 21.77 17.2615 18.4256 20.4709 17.3607V25.4827L27.8497 12.8363Z" stroke="#231F20" stroke-width="0.45"/>
</g>
<defs>
<clipPath id="clip0_8100_47">
<rect width="28" height="62" fill="white"/>
</clipPath>
</defs>
</svg>
