<svg width="40" height="65" viewBox="0 0 40 65" fill="none" xmlns="http://www.w3.org/2000/svg">
<g clip-path="url(#clip0_8068_5508)">
<path d="M14.3901 25.0799C13.1601 23.2999 11.7701 22.4199 10.2401 22.4199C9.70317 22.4376 9.17567 22.5657 8.69049 22.7962C8.20531 23.0268 7.77277 23.3548 7.41998 23.7599C6.49034 24.748 5.78439 25.9246 5.35004 27.2099H5.14008L5.90009 10.5799H16.9901V1.16992H2.17999L0.669983 36.5899H4.85004C5.07524 35.1142 5.63259 33.7089 6.48004 32.4799C6.76688 32.08 7.14772 31.7568 7.58893 31.5388C8.03013 31.3209 8.51818 31.2148 9.01007 31.2299C9.53426 31.2607 10.0426 31.4211 10.4894 31.6969C10.9363 31.9727 11.3075 32.3551 11.57 32.8099C12.433 34.1285 13.0308 35.6026 13.33 37.1499C13.7738 39.2233 13.9851 41.3397 13.96 43.4599C13.9819 45.5332 13.774 47.6025 13.34 49.6299C13.0429 51.1526 12.4592 52.605 11.6201 53.9099C11.3733 54.3584 11.0158 54.7363 10.5817 55.0076C10.1476 55.2789 9.65135 55.4346 9.14008 55.4599C8.72269 55.4434 8.31412 55.3343 7.94403 55.1406C7.57394 54.9469 7.25155 54.6734 7.00006 54.3399C6.25418 53.4271 5.70903 52.3675 5.40009 51.2299C4.97598 49.769 4.73736 48.2604 4.69 46.7399H0.309998C0.328145 49.8332 0.741473 52.9114 1.53998 55.8999C2.11186 58.226 3.18336 60.3997 4.67999 62.2699C5.20522 62.962 5.87801 63.5283 6.64948 63.9279C7.42094 64.3275 8.27178 64.5502 9.14008 64.5799C10.0943 64.5351 11.0241 64.2631 11.852 63.7865C12.6799 63.31 13.3821 62.6426 13.9001 61.8399C15.4961 59.5445 16.6085 56.9486 17.17 54.2099C17.9946 50.5821 18.3907 46.87 18.35 43.1499C18.4046 39.5609 18.0693 35.9765 17.35 32.4599C16.8479 29.8322 15.8428 27.3263 14.3901 25.0799Z" stroke="#231F20" stroke-width="0.6"/>
<path d="M38.0901 15.1001C37.3301 10.2667 36.2235 6.60007 34.7701 4.10007C33.3168 1.60007 31.5934 0.340068 29.6001 0.320068C27.6001 0.320068 25.88 1.58007 24.44 4.10007C23 6.62007 21.8934 10.2867 21.1201 15.1001C19.5735 26.6318 19.5735 38.3184 21.1201 49.8501C21.8868 54.6701 22.99 58.3367 24.43 60.8501C25.86 63.3601 27.5901 64.6101 29.6001 64.6101C31.6101 64.6101 33.34 63.3601 34.79 60.8501C36.24 58.3401 37.3401 54.6901 38.1001 49.8501C39.6134 38.3162 39.6134 26.634 38.1001 15.1001H38.0901ZM34.0901 44.9001C33.864 47.5198 33.2715 50.0949 32.3301 52.5501C31.5701 54.2601 30.6601 55.1201 29.6101 55.1201C28.5601 55.1201 27.6101 54.2601 26.8901 52.5501C25.9487 50.0949 25.3562 47.5198 25.1301 44.9001C24.6786 40.7625 24.4716 36.602 24.5101 32.4401C24.4712 28.2779 24.6816 24.1171 25.1401 19.9801C25.3693 17.3348 25.9615 14.7338 26.9001 12.2501C27.6501 10.5001 28.5601 9.63007 29.6101 9.63007C30.6601 9.63007 31.6101 10.5001 32.3201 12.2501C33.2544 14.7345 33.8432 17.3355 34.0701 19.9801C34.5196 24.1178 34.7266 28.2782 34.69 32.4401C34.7391 36.6017 34.5387 40.7624 34.0901 44.9001Z" stroke="#231F20" stroke-width="0.6"/>
</g>
<defs>
<clipPath id="clip0_8068_5508">
<rect width="39.55" height="64.88" fill="white"/>
</clipPath>
</defs>
</svg>
