<svg width="40" height="65" viewBox="0 0 40 65" fill="none" xmlns="http://www.w3.org/2000/svg">
<g clip-path="url(#clip0_8068_5496)">
<path d="M6.68999 53.82L11.16 42.7701C12.82 38.85 14.1 35.5367 15 32.83C15.8189 30.4053 16.4508 27.9213 16.89 25.4C17.267 23.0858 17.4543 20.7447 17.45 18.4C17.4901 15.2567 17.1271 12.1211 16.37 9.07004C15.8429 6.73325 14.8198 4.53701 13.37 2.63004C12.8529 1.92548 12.181 1.34903 11.4061 0.945068C10.6311 0.541111 9.77371 0.320448 8.90001 0.300049C8.02282 0.330825 7.16484 0.565535 6.39415 0.985596C5.62346 1.40566 4.96125 1.9995 4.46001 2.72003C2.97923 4.76117 1.95597 7.0976 1.46001 9.57004C0.686193 12.9339 0.320199 16.3787 0.36998 19.83H4.64C4.62061 17.9869 4.79492 16.1468 5.16002 14.34C5.39628 13.0326 5.90384 11.7893 6.65001 10.69C6.87608 10.323 7.18439 10.0137 7.55058 9.78632C7.91678 9.55896 8.33081 9.41987 8.75999 9.38004C9.19594 9.39237 9.62313 9.5053 10.0082 9.70999C10.3933 9.91468 10.7259 10.2056 10.98 10.56C11.7225 11.5563 12.2473 12.6977 12.52 13.91C12.928 15.5447 13.123 17.2253 13.1 18.91C13.1067 20.5327 12.9661 22.1527 12.68 23.75C12.3929 25.3116 11.9885 26.8493 11.47 28.35C10.93 29.89 10.1767 31.87 9.21001 34.29L0.35997 55.54V63.71H17.77V54.29H6.68999V53.82Z" stroke="#231F20" stroke-width="0.6"/>
<path d="M37.76 15.1001C37 10.2667 35.8933 6.60007 34.44 4.10007C32.9867 1.60007 31.2633 0.340068 29.27 0.320068C27.27 0.320068 25.55 1.58007 24.11 4.10007C22.67 6.62007 21.5634 10.2867 20.79 15.1001C19.2567 26.6327 19.2567 38.3175 20.79 49.8501C21.5567 54.6701 22.66 58.3367 24.1 60.8501C25.54 63.3634 27.2633 64.6167 29.27 64.6101C31.27 64.6101 33 63.3567 34.46 60.8501C35.92 58.3434 37.0233 54.6767 37.77 49.8501C39.2833 38.3162 39.2833 26.634 37.77 15.1001H37.76ZM33.76 44.9001C33.5339 47.5198 32.9414 50.0949 32 52.5501C31.24 54.2601 30.33 55.1201 29.28 55.1201C28.23 55.1201 27.28 54.2601 26.56 52.5501C25.6185 50.0949 25.0261 47.5198 24.8 44.9001C24.3524 40.7623 24.1487 36.6018 24.19 32.4401C24.1484 28.2781 24.3554 24.1174 24.81 19.9801C25.0441 17.3356 25.6362 14.7352 26.57 12.2501C27.32 10.5001 28.23 9.63007 29.28 9.63007C30.33 9.63007 31.28 10.5001 31.99 12.2501C32.9243 14.7345 33.5132 17.3355 33.74 19.9801C34.1896 24.1178 34.3966 28.2782 34.36 32.4401C34.409 36.6017 34.2087 40.7624 33.76 44.9001Z" stroke="#231F20" stroke-width="0.6"/>
</g>
<defs>
<clipPath id="clip0_8068_5496">
<rect width="39.2" height="64.88" fill="white"/>
</clipPath>
</defs>
</svg>
