<svg width="77" height="76" viewBox="0 0 77 76" fill="none" xmlns="http://www.w3.org/2000/svg">
<g clip-path="url(#clip0_8068_5468)">
<path d="M37.9899 2.09009C17.9899 2.28009 1.9099 18.3001 2.0999 37.8601C2.2899 57.4201 18.6799 73.1201 38.7499 72.9401C58.8199 72.7601 74.8299 56.6701 74.6399 37.1001C74.4499 17.5301 57.9999 1.8401 37.9899 2.1001" fill="white"/>
<path d="M38.41 75.0899C17.41 75.0899 0.209919 58.4899 -8.10485e-05 37.9299C-0.0487314 32.9755 0.900055 28.0619 2.78984 23.4817C4.67962 18.9016 7.47175 14.7486 10.9999 11.2699C18.253 4.11023 28.0205 0.0741833 38.212 0.0255904C48.4034 -0.0230026 58.209 3.91974 65.5299 11.0099C69.0282 14.4014 71.8199 18.4522 73.7439 22.9285C75.668 27.4048 76.6862 32.2179 76.7399 37.0899C76.9399 57.7499 59.9099 74.7799 38.7399 75.0899H38.41ZM38.47 4.23992H38.0099C29.0072 4.29238 20.3864 7.88436 14.0099 14.2399C10.8791 17.3231 8.40138 21.0053 6.72453 25.0668C5.04768 29.1284 4.20605 33.4861 4.24992 37.8799C4.43992 56.1399 19.75 70.8799 38.45 70.8799H38.7799C57.5999 70.6399 72.78 55.5099 72.59 37.1599C72.5387 32.8299 71.6282 28.553 69.9117 24.5774C68.1951 20.6018 65.7065 17.0065 62.59 13.9999C56.1534 7.68571 47.4865 4.16433 38.47 4.19991V4.23992Z" fill="#CF1F25"/>
<path d="M31.41 22.5399V22.2899H16.91V16.1799H36.7299V22.4299L24.27 56.7799H18.91L31.41 22.5399Z" fill="#939598"/>
<path d="M44.9899 54.9C43.13 52.892 41.824 50.435 41.2 47.77C39.4401 40.353 39.4401 32.627 41.2 25.21C41.8317 22.5429 43.1404 20.0837 44.9999 18.07C46.571 16.5018 48.7002 15.6211 50.92 15.6211C53.1398 15.6211 55.2689 16.5018 56.84 18.07C58.7028 20.0852 60.0119 22.5485 60.6399 25.22C61.5741 28.8985 62.0113 32.6855 61.94 36.48C62.0122 40.2872 61.5784 44.0871 60.6499 47.78C60.0322 50.4444 58.7252 52.8997 56.8599 54.9C56.0779 55.6928 55.1427 56.318 54.1111 56.7375C53.0796 57.157 51.9733 57.362 50.8599 57.34C49.7677 57.349 48.6849 57.1375 47.6763 56.7183C46.6677 56.299 45.7539 55.6806 44.9899 54.9ZM53.9899 49.53C55.0204 48.033 55.7037 46.3247 55.9899 44.53C56.5021 41.8649 56.7334 39.1534 56.68 36.44C56.7214 33.7261 56.4835 31.0152 55.97 28.35C55.6693 26.5593 54.9873 24.8541 53.97 23.35C53.636 22.8298 53.1765 22.4019 52.634 22.1055C52.0914 21.8091 51.4831 21.6537 50.8649 21.6537C50.2467 21.6537 49.6384 21.8091 49.0959 22.1055C48.5533 22.4019 48.094 22.8298 47.7599 23.35C46.7424 24.854 46.0603 26.5592 45.7599 28.35C45.2464 31.0152 45.0086 33.7261 45.05 36.44C45.0094 39.1534 45.2439 41.8639 45.7499 44.53C46.0362 46.3247 46.7194 48.033 47.7499 49.53C48.0912 50.0436 48.5542 50.4649 49.0977 50.7563C49.6412 51.0476 50.2482 51.2001 50.8649 51.2001C51.4816 51.2001 52.0888 51.0476 52.6322 50.7563C53.1757 50.4649 53.6386 50.0436 53.9799 49.53H53.9899Z" fill="#939598"/>
</g>
<defs>
<clipPath id="clip0_8068_5468">
<rect width="76.74" height="75.05" fill="white"/>
</clipPath>
</defs>
</svg>
