<svg width="41" height="65" viewBox="0 0 41 65" fill="none" xmlns="http://www.w3.org/2000/svg">
<g clip-path="url(#clip0_8068_5500)">
<path d="M16.43 34.19C15.7746 32.998 14.7085 32.0846 13.43 31.62V31.15C14.4664 30.5267 15.3081 29.6262 15.86 28.55C16.6414 27.0844 17.1881 25.5051 17.48 23.87C17.8751 21.8109 18.0561 19.7164 18.0201 17.62C18.077 14.6587 17.7407 11.7029 17.0201 8.83005C16.4817 6.55805 15.4583 4.42936 14.0201 2.59003C13.5123 1.89789 12.8524 1.33152 12.0913 0.934509C11.3302 0.537494 10.4882 0.320445 9.63004 0.300049C8.77018 0.326197 7.92656 0.541315 7.15921 0.930176C6.39186 1.31904 5.71953 1.8721 5.18997 2.55005C3.68949 4.37919 2.61066 6.51653 2.03006 8.81003C1.20434 11.8071 0.783931 14.9013 0.78006 18.01H5.12003C5.12639 16.4693 5.3519 14.9372 5.78995 13.46C6.09338 12.3472 6.65141 11.3201 7.41995 10.46C7.69071 10.1402 8.02554 9.88063 8.40274 9.69806C8.77994 9.51549 9.19119 9.41395 9.61002 9.40002C10.0247 9.40543 10.4324 9.50774 10.8004 9.69873C11.1685 9.88972 11.4868 10.1641 11.73 10.5C12.4271 11.4179 12.9091 12.4808 13.14 13.61C13.488 15.1316 13.6525 16.6893 13.63 18.25C13.6512 19.851 13.4628 21.4479 13.07 23C12.7957 24.1837 12.2478 25.2866 11.47 26.22C11.186 26.5774 10.826 26.867 10.416 27.0677C10.0061 27.2683 9.55644 27.375 9.10001 27.38H6.86002V36.06H9.10001C9.62675 36.0581 10.148 36.1665 10.6303 36.3784C11.1125 36.5902 11.5452 36.9008 11.9001 37.29C12.7711 38.2615 13.3893 39.4327 13.7 40.7C14.1344 42.3574 14.3363 44.0671 14.3 45.78C14.3317 47.4065 14.1331 49.0293 13.71 50.6C13.3976 51.8095 12.8127 52.9314 12 53.88C11.7149 54.2393 11.3545 54.5317 10.9442 54.7368C10.534 54.9418 10.0838 55.0545 9.62527 55.0669C9.1668 55.0793 8.71117 54.9911 8.29044 54.8085C7.8697 54.6259 7.49408 54.3534 7.18997 54.01C6.40461 53.1541 5.82949 52.1269 5.51004 51.01C5.07866 49.6095 4.84632 48.1553 4.81998 46.69H0.26004C0.264215 49.8191 0.688001 52.9336 1.52005 55.95C2.10074 58.2885 3.22436 60.4571 4.79996 62.28C5.38174 62.9947 6.11771 63.5686 6.95267 63.9586C7.78762 64.3486 8.70002 64.5447 9.62149 64.5322C10.543 64.5197 11.4496 64.299 12.2737 63.8864C13.0978 63.4739 13.8179 62.8803 14.38 62.15C15.9706 60.2458 17.1182 58.012 17.74 55.61C19.095 50.2562 19.2859 44.674 18.3 39.24C17.9702 37.4621 17.3377 35.754 16.43 34.19Z" stroke="#231F20" stroke-width="0.6"/>
<path d="M38.87 15.1001C38.1033 10.2667 36.9966 6.60007 35.5499 4.10007C34.0999 1.58007 32.37 0.320068 30.38 0.320068C28.39 0.320068 26.66 1.58007 25.21 4.10007C23.76 6.62007 22.66 10.2901 21.89 15.1001C20.3567 26.6327 20.3567 38.3175 21.89 49.8501C22.6567 54.6701 23.76 58.3367 25.2 60.8501C26.64 63.3634 28.3667 64.6167 30.38 64.6101C32.38 64.6101 34.11 63.3567 35.57 60.8501C37.03 58.3434 38.1334 54.6767 38.88 49.8501C39.697 44.0837 40.0748 38.2636 40.01 32.4401C40.0747 26.6394 39.6935 20.8423 38.87 15.1001ZM34.87 44.9001C34.6439 47.5198 34.0515 50.0949 33.11 52.5501C32.34 54.2601 31.44 55.1201 30.39 55.1201C29.34 55.1201 28.3899 54.2601 27.6699 52.5501C26.7238 50.0964 26.1313 47.5206 25.9101 44.9001C25.4585 40.7625 25.2514 36.602 25.2899 32.4401C25.2511 28.2779 25.4614 24.1171 25.9199 19.9801C26.1516 17.3362 26.7403 14.7359 27.6699 12.2501C28.4299 10.5001 29.34 9.63007 30.39 9.63007C31.44 9.63007 32.39 10.5001 33.1 12.2501C34.0343 14.7345 34.6232 17.3355 34.85 19.9801C35.2957 24.118 35.4993 28.2784 35.46 32.4401C35.5135 36.6017 35.3131 40.7628 34.86 44.9001H34.87Z" stroke="#231F20" stroke-width="0.6"/>
</g>
<defs>
<clipPath id="clip0_8068_5500">
<rect width="40.31" height="64.88" fill="white"/>
</clipPath>
</defs>
</svg>
