<svg width="77" height="76" viewBox="0 0 77 76" fill="none" xmlns="http://www.w3.org/2000/svg">
<g clip-path="url(#clip0_8068_5438)">
<path d="M37.98 2.09009C17.98 2.28009 1.91003 18.3001 2.10003 37.8601C2.29003 57.4201 18.71 73.0901 38.71 72.9501C58.71 72.8101 74.79 56.6801 74.6 37.1101C74.41 17.5401 57.96 1.85008 37.95 2.11008" fill="white"/>
<path d="M38.41 75.0899C17.41 75.0899 0.199948 58.4899 -5.22321e-05 37.9299C-0.0515564 32.9751 0.895952 28.0606 2.7859 23.4801C4.67584 18.8995 7.46947 14.7468 10.9999 11.2699C18.253 4.11023 28.0205 0.0741833 38.212 0.0255904C48.4034 -0.0230026 58.209 3.91974 65.53 11.0099C69.0245 14.4025 71.8119 18.4542 73.7309 22.9307C75.6499 27.4072 76.6624 32.2197 76.71 37.0899C76.91 57.7499 59.89 74.7799 38.71 75.0899H38.41ZM38.41 4.23992H37.95C28.9481 4.29667 20.3289 7.88801 13.95 14.2399C10.8186 17.3222 8.34124 21.0045 6.66596 25.0664C4.99068 29.1283 4.15193 33.4864 4.19996 37.8799C4.37996 56.2499 19.87 70.9999 38.72 70.8799C57.57 70.7599 72.72 55.5099 72.53 37.1599C72.4814 32.8294 71.5723 28.5518 69.8555 24.5758C68.1388 20.5998 65.6487 17.0048 62.53 13.9999C56.1069 7.69606 47.4596 4.17533 38.46 4.19991L38.41 4.23992Z" fill="#CF1F25"/>
<path d="M29.43 56.7799H24.24V23.2999H24.08L17.35 29.3799V22.6799L24.47 16.1799H29.47L29.43 56.7799Z" fill="#939598"/>
<path d="M41.09 54.9001C39.2301 52.8921 37.9241 50.4351 37.3 47.7701C35.5402 40.3531 35.5402 32.6272 37.3 25.2101C37.9318 22.543 39.2406 20.0838 41.1 18.0701C42.6694 16.5026 44.7968 15.6221 47.015 15.6221C49.2332 15.6221 51.3606 16.5026 52.93 18.0701C54.7966 20.0827 56.1064 22.547 56.73 25.2201C57.6728 28.8971 58.1135 32.6849 58.04 36.4801C58.1142 40.288 57.677 44.0886 56.74 47.7801C56.1263 50.446 54.8187 52.9023 52.95 54.9001C51.3716 56.4622 49.2407 57.3385 47.02 57.3385C44.7993 57.3385 42.6684 56.4622 41.09 54.9001ZM50.09 49.5301C51.1205 48.0331 51.8038 46.3249 52.09 44.5301C52.6022 41.865 52.8334 39.1535 52.78 36.4401C52.8214 33.7262 52.5835 31.0153 52.07 28.3501C51.7693 26.5594 51.0872 24.8542 50.07 23.3501C49.736 22.8299 49.2766 22.402 48.7341 22.1056C48.1915 21.8092 47.5832 21.6539 46.965 21.6539C46.3468 21.6539 45.7385 21.8092 45.196 22.1056C44.6534 22.402 44.1941 22.8299 43.86 23.3501C42.8425 24.8541 42.1604 26.5593 41.86 28.3501C40.92 33.7025 40.92 39.1777 41.86 44.5301C42.1416 46.3261 42.8253 48.0353 43.86 49.5301C44.2013 50.0437 44.6643 50.465 45.2077 50.7564C45.7512 51.0478 46.3584 51.2003 46.975 51.2003C47.5917 51.2003 48.1988 51.0478 48.7422 50.7564C49.2857 50.465 49.7487 50.0437 50.09 49.5301Z" fill="#939598"/>
</g>
<defs>
<clipPath id="clip0_8068_5438">
<rect width="76.74" height="75.05" fill="white"/>
</clipPath>
</defs>
</svg>
