<svg width="16" height="60" viewBox="0 0 16 60" fill="none" xmlns="http://www.w3.org/2000/svg">
<g clip-path="url(#clip0_8100_43)">
<path d="M0.153076 59.8501V21.8127C0.153076 18.641 0.581717 11.2061 8.20514 7.78254V0.491699L15.8224 11.9437L8.20514 24.6727V16.9622C6.82916 17.055 5.53873 17.6496 4.58872 18.6287C3.63871 19.6078 3.09819 20.9001 3.07387 22.2504V59.7123" fill="white"/>
<path d="M0.153076 59.8501V21.8127C0.153076 18.641 0.581717 11.2061 8.20514 7.78254V0.491699L15.8224 11.9437L8.20514 24.6727V16.9622C6.82916 17.055 5.53873 17.6496 4.58872 18.6287C3.63871 19.6078 3.09819 20.9001 3.07387 22.2504V59.7123L0.153076 59.8501Z" stroke="#231916" stroke-width="0.49"/>
</g>
<defs>
<clipPath id="clip0_8100_43">
<rect width="16" height="60" fill="white"/>
</clipPath>
</defs>
</svg>
