<svg width="41" height="65" viewBox="0 0 41 65" fill="none" xmlns="http://www.w3.org/2000/svg">
<g clip-path="url(#clip0_8068_5512)">
<path d="M15.4199 25.2499C14.1999 23.5099 12.8433 22.6399 11.35 22.6399C10.395 22.6533 9.47616 23.008 8.75991 23.6399C7.82188 24.4769 7.06622 25.4981 6.53994 26.6399C5.82382 28.1263 5.28028 29.6898 4.91994 31.2999H4.67995C4.64019 27.489 4.8641 23.6799 5.35 19.8999C5.61268 17.3879 6.2637 14.932 7.27993 12.6199C8.11993 10.9399 9.15 10.0899 10.35 10.0899C10.7357 10.1027 11.1141 10.1987 11.4593 10.3713C11.8044 10.5439 12.1083 10.789 12.35 11.0899C13.0293 11.8853 13.5243 12.8209 13.7999 13.8299C14.2068 15.2175 14.4814 16.6405 14.62 18.0799H19.07C18.9398 14.9843 18.4533 11.914 17.62 8.92987C17.0523 6.6531 16.0321 4.51395 14.62 2.63989C14.1351 1.9613 13.5003 1.40352 12.765 1.00986C12.0297 0.616191 11.2135 0.397196 10.3799 0.369873C8.37991 0.369873 6.55995 1.69987 5.04995 4.36987C3.53995 7.03987 2.37996 10.9099 1.55996 16.0099C0.673293 22.0584 0.262053 28.1671 0.329979 34.2799C0.214966 40.1937 0.673775 46.1047 1.69997 51.9299C2.61331 56.4365 3.79991 59.6765 5.25991 61.6499C6.71991 63.6232 8.34002 64.6232 10.12 64.6499C11.0891 64.6091 12.0338 64.3339 12.8733 63.848C13.7128 63.3621 14.4219 62.6799 14.94 61.8599C16.5494 59.5437 17.6596 56.9181 18.2 54.1499C19.0056 50.5194 19.3915 46.8084 19.35 43.0899C19.4054 39.5604 19.0701 36.0356 18.35 32.5799C17.8589 29.9694 16.8636 27.4796 15.4199 25.2499ZM14.31 49.3799C13.9957 50.9507 13.3994 52.4516 12.5499 53.8099C12.3034 54.2635 11.9474 54.6484 11.5143 54.9296C11.0812 55.2108 10.5847 55.3793 10.07 55.4199C9.54752 55.3795 9.04417 55.2057 8.60818 54.915C8.17218 54.6244 7.81816 54.2266 7.57998 53.7599C6.73357 52.3929 6.13757 50.886 5.81997 49.3099C5.36923 47.3419 5.1444 45.3288 5.14993 43.3099C5.15311 41.2672 5.38461 39.2312 5.83999 37.2399C6.16019 35.6722 6.76694 34.1772 7.62991 32.8299C7.84617 32.3478 8.19733 31.9385 8.64089 31.6513C9.08445 31.3641 9.6015 31.2113 10.1299 31.2113C10.6583 31.2113 11.1755 31.3641 11.619 31.6513C12.0626 31.9385 12.4136 32.3478 12.6299 32.8299C13.4744 34.1538 14.0583 35.6269 14.35 37.1699C15.2032 41.2154 15.2032 45.3944 14.35 49.4399L14.31 49.3799Z" stroke="#231F20" stroke-width="0.6"/>
<path d="M39.12 15.1001C38.36 10.2667 37.2533 6.60007 35.8 4.10007C34.3466 1.60007 32.6233 0.340068 30.6299 0.320068C28.6299 0.320068 26.91 1.58007 25.47 4.10007C24.03 6.62007 22.9233 10.2867 22.15 15.1001C20.6166 26.6327 20.6166 38.3175 22.15 49.8501C22.9166 54.6701 24.02 58.3367 25.46 60.8501C26.9 63.3634 28.6233 64.6167 30.6299 64.6101C32.6299 64.6101 34.36 63.3567 35.82 60.8501C37.28 58.3434 38.3833 54.6767 39.1299 49.8501C39.9557 44.0845 40.3369 38.264 40.2699 32.4401C40.3368 26.639 39.9524 20.8415 39.12 15.1001ZM35.12 44.9001C34.8939 47.5198 34.3015 50.0949 33.36 52.5501C32.6 54.2601 31.6899 55.1201 30.6399 55.1201C29.5899 55.1201 28.64 54.2601 27.92 52.5501C26.9785 50.0949 26.3861 47.5198 26.16 44.9001C25.34 36.6136 25.34 28.2665 26.16 19.9801C26.3941 17.3356 26.9862 14.7352 27.92 12.2501C28.68 10.5001 29.5799 9.63007 30.6299 9.63007C31.6799 9.63007 32.63 10.5001 33.34 12.2501C34.2744 14.7345 34.8632 17.3355 35.09 19.9801C35.5396 24.1178 35.7466 28.2782 35.71 32.4401C35.759 36.6017 35.5587 40.7624 35.11 44.9001H35.12Z" stroke="#231F20" stroke-width="0.6"/>
</g>
<defs>
<clipPath id="clip0_8068_5512">
<rect width="40.57" height="64.88" fill="white"/>
</clipPath>
</defs>
</svg>
