<svg width="77" height="76" viewBox="0 0 77 76" fill="none" xmlns="http://www.w3.org/2000/svg">
<g clip-path="url(#clip0_8068_5444)">
<path d="M37.9899 2.0901C17.9899 2.2801 1.90993 18.3001 2.09993 37.8601C2.28993 57.4201 18.68 73.1201 38.75 72.9401C58.82 72.7601 74.8299 56.6801 74.6199 37.0901C74.4099 17.5001 57.9799 1.8301 37.9699 2.0901" fill="white"/>
<path d="M38.41 75.0899C17.41 75.0899 0.209996 58.4899 -4.04206e-06 37.9299C-0.0509367 32.9751 0.896826 28.0609 2.78674 23.4804C4.67665 18.9 7.46998 14.7472 11 11.2699C18.2526 4.11322 28.018 0.0790637 38.207 0.0304733C48.396 -0.018117 58.1995 3.92274 65.52 11.0099C69.0218 14.3987 71.8158 18.4489 73.7401 22.9258C75.6644 27.4027 76.6807 32.2172 76.73 37.0899C76.94 57.7499 59.91 74.7799 38.73 75.0899H38.41ZM38.47 4.23992H38.01C28.9875 4.28202 20.3442 7.87438 13.9499 14.2399C10.8223 17.325 8.34737 21.0077 6.67236 25.069C4.99734 29.1303 4.15649 33.487 4.19995 37.8799C4.37995 56.1399 19.7 70.8799 38.4 70.8799H38.73C57.55 70.6399 72.73 55.5099 72.54 37.1599C72.4887 32.8299 71.5783 28.553 69.8617 24.5774C68.1451 20.6018 65.6565 17.0065 62.54 13.9999C56.1152 7.69881 47.469 4.17857 38.47 4.19991V4.23992Z" fill="#CF1F25"/>
<path d="M21.26 55.8901C19.6489 54.8963 18.3468 53.473 17.5 51.7801C16.5723 49.9148 16.0799 47.8633 16.0599 45.7801H21.28C21.3164 46.7662 21.5871 47.7295 22.0699 48.5901C22.5294 49.3916 23.1961 50.0548 24 50.5101C24.8178 50.969 25.7424 51.2036 26.6801 51.1901C27.6741 51.2061 28.6521 50.9391 29.5 50.4201C30.3572 49.9167 31.0515 49.1773 31.5 48.2901C31.9775 47.3214 32.2078 46.2495 32.17 45.1701C32.2154 44.0311 31.982 42.8983 31.49 41.8701C31.0329 40.9462 30.3173 40.1749 29.4301 39.6501C28.4502 39.1039 27.3414 38.831 26.22 38.8601H23.62V33.2201H26.1801C27.1355 33.2375 28.076 32.9807 28.89 32.4801C29.6815 31.9689 30.3123 31.2443 30.71 30.3901C31.1562 29.422 31.3784 28.3659 31.36 27.3001C31.3792 26.2715 31.1851 25.25 30.79 24.3001C30.4607 23.4931 29.905 22.7986 29.1899 22.3001C28.4737 21.815 27.6249 21.5635 26.76 21.5801C25.8758 21.575 25.0073 21.8138 24.25 22.2701C23.4653 22.7347 22.8196 23.4011 22.38 24.2001C21.8858 25.1232 21.6249 26.1531 21.62 27.2001H16.62C16.6347 25.1163 17.1273 23.0636 18.0599 21.2001C18.8799 19.5434 20.1304 18.1377 21.6801 17.1301C23.1959 16.1622 24.9616 15.6582 26.76 15.6801C28.5387 15.6513 30.2836 16.1678 31.76 17.1601C33.2289 18.1806 34.3935 19.5802 35.13 21.2101C35.9474 22.9999 36.3443 24.9532 36.29 26.9201C36.3344 28.2967 36.1242 29.6698 35.67 30.9701C35.2901 32.115 34.6538 33.1581 33.8099 34.0201C33.0359 34.8006 32.081 35.3777 31.03 35.7001V36.0101C32.3174 36.2212 33.5158 36.8013 34.48 37.6801C35.462 38.5903 36.2128 39.7216 36.67 40.9801C37.1928 42.452 37.4336 44.0091 37.38 45.5701C37.429 47.6517 36.9618 49.7131 36.02 51.5701C35.1498 53.3124 33.8182 54.7825 32.17 55.8201C30.5171 56.8551 28.6 57.3899 26.65 57.3601C24.752 57.3776 22.8863 56.8688 21.26 55.8901Z" fill="#939598"/>
<path d="M46.6199 54.9001C44.76 52.8921 43.4539 50.4351 42.8299 47.7701C41.07 40.3531 41.07 32.6272 42.8299 25.2101C43.4581 22.5497 44.7638 20.0969 46.6199 18.0901C48.1893 16.5226 50.3168 15.6421 52.535 15.6421C54.7531 15.6421 56.8805 16.5226 58.4499 18.0901C60.3165 20.1026 61.6263 22.567 62.25 25.2401C63.9901 32.6594 63.9901 40.3808 62.25 47.8001C61.6322 50.4645 60.3252 52.9198 58.4599 54.9201C56.8816 56.4822 54.7507 57.3585 52.53 57.3585C50.3093 57.3585 48.1783 56.4822 46.5999 54.9201L46.6199 54.9001ZM55.6199 49.5301C56.6547 48.0353 57.3383 46.3261 57.6199 44.5301C58.1332 41.8652 58.3612 39.1533 58.3 36.4401C58.3442 33.7266 58.1096 31.0157 57.5999 28.3501C57.3038 26.5581 56.6214 24.852 55.5999 23.3501C55.2659 22.8299 54.8065 22.402 54.264 22.1056C53.7215 21.8092 53.1132 21.6539 52.4949 21.6539C51.8767 21.6539 51.2684 21.8092 50.7259 22.1056C50.1834 22.402 49.724 22.8299 49.39 23.3501C48.3768 24.8564 47.6951 26.5607 47.39 28.3501C46.8715 31.0146 46.6335 33.7261 46.68 36.4401C46.6344 39.1537 46.8689 41.8647 47.38 44.5301C47.6662 46.3249 48.3495 48.0331 49.38 49.5301C49.7212 50.0437 50.1843 50.465 50.7277 50.7564C51.2712 51.0478 51.8783 51.2003 52.4949 51.2003C53.1116 51.2003 53.7187 51.0478 54.2622 50.7564C54.8056 50.465 55.2686 50.0437 55.6099 49.5301H55.6199Z" fill="#939598"/>
</g>
<defs>
<clipPath id="clip0_8068_5444">
<rect width="76.74" height="75.05" fill="white"/>
</clipPath>
</defs>
</svg>
