<svg width="41" height="65" viewBox="0 0 41 65" fill="none" xmlns="http://www.w3.org/2000/svg">
<g clip-path="url(#clip0_8068_5520)">
<path d="M16.69 34.13C16.1312 32.9198 15.17 31.9408 13.9701 31.36V30.97C14.9777 30.3096 15.7728 29.372 16.26 28.2701C17.008 26.7174 17.5365 25.0683 17.8301 23.37C18.2297 21.2908 18.4239 19.1773 18.41 17.06C18.448 14.152 18.0743 11.2533 17.3 8.45004C16.7421 6.24217 15.6889 4.19031 14.2201 2.45004C13.7026 1.77781 13.0376 1.23339 12.2765 0.858765C11.5153 0.48414 10.6784 0.289307 9.83005 0.289307C8.98172 0.289307 8.14465 0.48414 7.38352 0.858765C6.62238 1.23339 5.9575 1.77781 5.44004 2.45004C3.97831 4.19359 2.92884 6.24453 2.36997 8.45004C1.58727 11.2518 1.21011 14.1513 1.24997 17.06C1.2379 19.1767 1.42884 21.2897 1.82004 23.37C2.10591 25.0689 2.63107 26.7186 3.37998 28.2701C3.87002 29.3701 4.66467 30.307 5.67002 30.97V31.38C4.46882 31.9623 3.5048 32.9405 2.94004 34.15C2.01654 35.8984 1.36242 37.7763 0.999974 39.72C0.516941 42.1094 0.282408 44.5424 0.300023 46.98C0.262634 50.0237 0.673682 53.0562 1.51999 55.98C2.1439 58.3184 3.30467 60.479 4.91001 62.29C5.51262 63.0071 6.2648 63.5837 7.11387 63.9792C7.96293 64.3748 8.88836 64.5798 9.82505 64.5798C10.7617 64.5798 11.687 64.3748 12.5361 63.9792C13.3852 63.5837 14.1374 63.0071 14.74 62.29C16.345 60.4772 17.5087 58.3175 18.14 55.98C18.9863 53.0562 19.3973 50.0237 19.36 46.98C19.3763 44.5414 19.1349 42.1079 18.64 39.72C18.2719 37.77 17.6147 35.8859 16.69 34.13ZM5.69004 18.13C5.67468 16.5449 5.84928 14.9636 6.21006 13.42C6.45514 12.2582 6.96121 11.1674 7.69004 10.23C7.93555 9.88134 8.26134 9.59676 8.63987 9.40033C9.0184 9.2039 9.4385 9.10138 9.86496 9.10138C10.2914 9.10138 10.7117 9.2039 11.0902 9.40033C11.4687 9.59676 11.7945 9.88134 12.04 10.23C12.761 11.1722 13.2662 12.2612 13.52 13.42C13.8857 14.9628 14.0604 16.5447 14.04 18.13C14.0651 19.7294 13.8869 21.3255 13.51 22.88C13.2435 24.0609 12.7363 25.1741 12.02 26.15C11.7883 26.5113 11.4696 26.8085 11.093 27.0144C10.7164 27.2203 10.2941 27.3282 9.86496 27.3282C9.4358 27.3282 9.01362 27.2203 8.63706 27.0144C8.26049 26.8085 7.94172 26.5113 7.71006 26.15C6.99731 25.1733 6.49339 24.0601 6.22995 22.88C5.83667 21.331 5.64182 19.7382 5.65 18.14L5.69004 18.13ZM14.13 51.01C13.8333 52.2704 13.2479 53.4445 12.42 54.44C12.1119 54.8203 11.7235 55.1278 11.2827 55.3405C10.8418 55.5531 10.3594 55.6657 9.86997 55.67C9.37788 55.6645 8.89297 55.5515 8.44907 55.3391C8.00517 55.1266 7.61303 54.8198 7.30002 54.44C6.4721 53.4445 5.88676 52.2704 5.59006 51.01C5.16175 49.3585 4.96313 47.6558 4.99997 45.95C4.96756 44.1674 5.17268 42.3885 5.60996 40.66C5.91132 39.3212 6.50935 38.067 7.35996 36.99C7.65241 36.5957 8.02993 36.2723 8.46445 36.0438C8.89897 35.8153 9.37934 35.6875 9.86997 35.67C10.3593 35.6869 10.8386 35.8143 11.2716 36.043C11.7046 36.2716 12.0801 36.5954 12.37 36.99C13.217 38.0679 13.8116 39.322 14.11 40.66C14.5495 42.3884 14.7613 44.1668 14.74 45.95C14.7538 47.6617 14.5352 49.3673 14.0901 51.0201L14.13 51.01Z" stroke="#231F20" stroke-width="0.6"/>
<path d="M39.04 15.1001C38.28 10.2667 37.1734 6.60007 35.72 4.10007C34.2667 1.60007 32.5433 0.340068 30.55 0.320068C28.55 0.320068 26.83 1.58007 25.39 4.10007C23.95 6.62007 22.8434 10.2867 22.07 15.1001C20.5367 26.6327 20.5367 38.3175 22.07 49.8501C22.8367 54.6701 23.94 58.3367 25.38 60.8501C26.82 63.3634 28.5433 64.6167 30.55 64.6101C32.55 64.6101 34.2799 63.3567 35.7399 60.8501C37.1999 58.3434 38.3033 54.6767 39.05 49.8501C40.5767 38.317 40.5767 26.6331 39.05 15.1001H39.04ZM35.04 44.9001C34.8139 47.5198 34.2214 50.0949 33.28 52.5501C32.52 54.2601 31.61 55.1201 30.56 55.1201C29.51 55.1201 28.56 54.2601 27.84 52.5501C26.8986 50.0949 26.3061 47.5198 26.08 44.9001C25.6324 40.7623 25.4288 36.6018 25.47 32.4401C25.4284 28.2781 25.6354 24.1174 26.09 19.9801C26.3242 17.3356 26.9162 14.7352 27.8501 12.2501C28.6101 10.5001 29.51 9.63007 30.56 9.63007C31.61 9.63007 32.56 10.5001 33.27 12.2501C34.2043 14.7345 34.7931 17.3355 35.02 19.9801C35.4695 24.1178 35.6766 28.2782 35.64 32.4401C35.689 36.6017 35.4886 40.7624 35.04 44.9001Z" stroke="#231F20" stroke-width="0.6"/>
</g>
<defs>
<clipPath id="clip0_8068_5520">
<rect width="40.52" height="64.88" fill="white"/>
</clipPath>
</defs>
</svg>
