<svg width="77" height="76" viewBox="0 0 77 76" fill="none" xmlns="http://www.w3.org/2000/svg">
<g clip-path="url(#clip0_8068_5450)">
<path d="M37.98 2.09009C17.98 2.28009 1.91 18.3001 2.1 37.8601C2.29 57.4201 18.68 73.1201 38.75 72.9401C58.82 72.7601 74.8299 56.6701 74.6299 37.1001C74.4299 17.5301 58 1.8401 37.98 2.1001" fill="white"/>
<path d="M38.41 75.0899C17.41 75.0899 0.210057 58.4899 5.69931e-05 37.9299C-0.0508757 32.9751 0.896887 28.0609 2.7868 23.4804C4.67671 18.9 7.47004 14.7472 11.0001 11.2699C18.2527 4.11322 28.018 0.0790637 38.207 0.0304733C48.396 -0.018117 58.1994 3.92274 65.52 11.0099C69.0217 14.3987 71.8158 18.4489 73.7402 22.9258C75.6645 27.4027 76.6808 32.2172 76.73 37.0899C76.94 57.7499 59.91 74.7799 38.73 75.0899H38.41ZM38.41 4.23992H37.95C28.9481 4.29667 20.3289 7.88801 13.95 14.2399C10.8205 17.3236 8.34427 21.0061 6.66912 25.0677C4.99398 29.1293 4.15427 33.4867 4.20001 37.8799C4.38001 56.1399 19.7 70.8799 38.4 70.8799H38.73C57.55 70.6399 72.73 55.5099 72.53 37.1599C72.4884 32.8329 71.5874 28.5572 69.8793 24.5813C68.1712 20.6054 65.6901 17.0087 62.58 13.9999C56.1422 7.68755 47.4761 4.16649 38.46 4.19991L38.41 4.23992Z" fill="#CF1F25"/>
<path d="M15.44 43.4099L27.86 16.1799H31.27V24.4799H29.19L20.78 42.8999V43.2399H38.1201V49.2399H15.4901L15.44 43.4099ZM29.3799 47.4699L29.44 44.8399V16.1799H34.32V56.7799H29.3799V47.4699Z" fill="#939598"/>
<path d="M46.8899 54.9C45.03 52.892 43.724 50.435 43.1 47.77C41.3401 40.353 41.3401 32.627 43.1 25.21C43.7317 22.5429 45.0404 20.0837 46.8999 18.07C48.471 16.5018 50.6002 15.6211 52.82 15.6211C55.0398 15.6211 57.1689 16.5018 58.74 18.07C60.6028 20.0852 61.9119 22.5485 62.5399 25.22C63.4778 28.8979 63.9184 32.685 63.85 36.48C63.919 40.2876 63.4817 44.0875 62.5499 47.78C61.9322 50.4444 60.6252 52.8997 58.7599 54.9C57.1799 56.4627 55.0473 57.3392 52.825 57.3392C50.6027 57.3392 48.47 56.4627 46.8899 54.9ZM55.8899 49.53C56.9204 48.033 57.6037 46.3247 57.8899 44.53C58.4021 41.8649 58.6334 39.1534 58.58 36.44C58.6214 33.7261 58.3835 31.0152 57.87 28.35C57.5693 26.5593 56.8873 24.8541 55.87 23.35C55.536 22.8298 55.0766 22.4019 54.5341 22.1055C53.9915 21.8091 53.3831 21.6537 52.7649 21.6537C52.1467 21.6537 51.5384 21.8091 50.9959 22.1055C50.4533 22.4019 49.994 22.8298 49.6599 23.35C48.6385 24.8519 47.956 26.558 47.6599 28.35C47.1376 31.0141 46.8963 33.7256 46.94 36.44C46.897 39.1539 47.1349 41.865 47.6499 44.53C47.9362 46.3247 48.6194 48.033 49.6499 49.53C49.9912 50.0436 50.4542 50.4649 50.9977 50.7563C51.5412 51.0476 52.1482 51.2001 52.7649 51.2001C53.3816 51.2001 53.9888 51.0476 54.5322 50.7563C55.0757 50.4649 55.5386 50.0436 55.8799 49.53H55.8899Z" fill="#939598"/>
</g>
<defs>
<clipPath id="clip0_8068_5450">
<rect width="76.74" height="75.05" fill="white"/>
</clipPath>
</defs>
</svg>
