<svg width="77" height="76" viewBox="0 0 77 76" fill="none" xmlns="http://www.w3.org/2000/svg">
<g clip-path="url(#clip0_8068_5474)">
<path d="M37.99 2.09009C17.99 2.28009 1.90995 18.3001 2.09995 37.8601C2.28995 57.4201 18.68 73.1201 38.75 72.9401C58.82 72.7601 74.83 56.6701 74.64 37.1001C74.45 17.5301 58 1.8401 37.99 2.1001" fill="white"/>
<path d="M38.41 75.0899C17.41 75.0899 0.209969 58.4899 -3.14574e-05 37.9299C-0.0486818 32.9755 0.900105 28.0619 2.78989 23.4817C4.67967 18.9016 7.4718 14.7486 11 11.2699C18.2526 4.11322 28.018 0.0790637 38.207 0.0304733C48.396 -0.018117 58.1995 3.92274 65.52 11.0099C69.0213 14.3995 71.8158 18.4497 73.7417 22.9263C75.6676 27.4029 76.6866 32.2169 76.74 37.0899C76.94 57.7499 59.91 74.7799 38.74 75.0899H38.41ZM38.4699 4.23992H38.01C28.9875 4.28202 20.3442 7.87438 13.9499 14.2399C10.8223 17.325 8.34735 21.0077 6.67233 25.069C4.99732 29.1303 4.15646 33.487 4.19992 37.8799C4.37992 56.1399 19.7 70.8799 38.4 70.8799H38.7299C57.5499 70.6399 72.73 55.5099 72.54 37.1599C72.4887 32.8299 71.5782 28.553 69.8617 24.5774C68.1451 20.6018 65.6565 17.0065 62.54 13.9999C56.1176 7.70124 47.4755 4.1812 38.4799 4.19991L38.4699 4.23992Z" fill="#CF1F25"/>
<path d="M21.08 55.86C19.4364 54.8735 18.0944 53.4555 17.2 51.76C16.252 49.954 15.7707 47.9395 15.8 45.9C15.7871 44.2943 16.0615 42.6992 16.61 41.19C17.0769 39.8357 17.8346 38.6001 18.83 37.57C19.6718 36.68 20.7569 36.0575 21.95 35.78V35.53C20.9389 35.1861 20.0379 34.5785 19.34 33.77C18.5272 32.8454 17.9145 31.7627 17.5401 30.59C17.1038 29.271 16.8876 27.8892 16.9001 26.5C16.8676 24.5584 17.3031 22.6376 18.17 20.9C18.9695 19.3112 20.1863 17.9699 21.69 17.02C23.1872 16.0819 24.9233 15.5958 26.69 15.62C28.4558 15.6025 30.1901 16.0881 31.69 17.02C33.1983 17.9644 34.4165 19.3071 35.21 20.9C36.0725 22.6392 36.5079 24.5589 36.48 26.5C36.4911 27.8907 36.268 29.2734 35.82 30.59C35.4414 31.7609 34.8291 32.8428 34.0201 33.77C33.3195 34.58 32.4148 35.1877 31.4001 35.53V35.78C32.5921 36.0531 33.6752 36.6765 34.5101 37.57C35.5018 38.6066 36.265 39.8399 36.7501 41.19C37.3021 42.6986 37.5797 44.2937 37.57 45.9C37.5993 47.9395 37.118 49.954 36.17 51.76C35.2775 53.4602 33.931 54.8794 32.2801 55.86C30.5622 56.83 28.6229 57.3398 26.6501 57.3398C24.6773 57.3398 22.7379 56.83 21.0201 55.86H21.08ZM29.6401 50.77C30.5041 50.2306 31.1975 49.4574 31.6401 48.54C32.1159 47.5132 32.3518 46.3915 32.33 45.26C32.3465 44.0753 32.1043 42.9013 31.6201 41.82C31.1886 40.8556 30.4958 40.0311 29.6201 39.44C28.7766 38.8687 27.7788 38.5686 26.7601 38.58C25.7355 38.5708 24.7319 38.8705 23.8801 39.44C23.0018 40.0283 22.3083 40.8535 21.8801 41.82C21.3897 42.899 21.1503 44.0752 21.18 45.26C21.1453 46.3916 21.3783 47.5155 21.86 48.54C22.2965 49.4615 22.9913 50.2362 23.86 50.77C24.7438 51.3113 25.7638 51.5888 26.8 51.57C27.8029 51.5748 28.7871 51.2976 29.6401 50.77ZM29.18 32.4C29.9262 31.8583 30.5134 31.1261 30.8801 30.28C31.2844 29.307 31.4925 28.2637 31.4925 27.21C31.4925 26.1563 31.2844 25.113 30.8801 24.14C30.5274 23.3019 29.9406 22.5832 29.19 22.07C28.4449 21.5891 27.5769 21.3333 26.69 21.3333C25.8032 21.3333 24.9351 21.5891 24.19 22.07C23.4367 22.5802 22.8492 23.2998 22.5001 24.14C22.0867 25.1063 21.8823 26.1491 21.9001 27.2C21.8817 28.2594 22.0932 29.3102 22.5201 30.28C22.8867 31.1261 23.4738 31.8583 24.22 32.4C24.9442 32.9015 25.8041 33.1701 26.685 33.1701C27.5659 33.1701 28.4259 32.9015 29.1501 32.4H29.18Z" fill="#939598"/>
<path d="M46.5899 54.9001C44.73 52.8921 43.4239 50.4351 42.7999 47.7701C41.04 40.3531 41.04 32.6272 42.7999 25.2101C43.4278 22.5415 44.7371 20.0815 46.5999 18.0701C48.1693 16.5026 50.2968 15.6221 52.515 15.6221C54.7331 15.6221 56.8605 16.5026 58.4299 18.0701C60.2965 20.0827 61.6063 22.547 62.2299 25.2201C63.9701 32.6395 63.9701 40.3608 62.2299 47.7801C61.6122 50.4445 60.3052 52.8998 58.4399 54.9001C56.8616 56.4622 54.7306 57.3385 52.51 57.3385C50.2893 57.3385 48.1583 56.4622 46.5799 54.9001H46.5899ZM55.5899 49.5301C56.6246 48.0353 57.3083 46.3261 57.5899 44.5301C58.0982 41.8646 58.3262 39.1531 58.27 36.4401C58.3142 33.7266 58.0796 31.0157 57.5699 28.3501C57.2738 26.5581 56.5914 24.852 55.5699 23.3501C55.2359 22.8299 54.7765 22.402 54.234 22.1056C53.6914 21.8092 53.0831 21.6539 52.4649 21.6539C51.8467 21.6539 51.2384 21.8092 50.6959 22.1056C50.1534 22.402 49.694 22.8299 49.36 23.3501C48.3468 24.8564 47.6651 26.5607 47.36 28.3501C46.8415 31.0146 46.6035 33.7261 46.65 36.4401C46.6044 39.1537 46.8389 41.8647 47.3499 44.5301C47.6362 46.3249 48.3195 48.0331 49.3499 49.5301C49.6912 50.0437 50.1542 50.465 50.6977 50.7564C51.2412 51.0478 51.8483 51.2003 52.4649 51.2003C53.0816 51.2003 53.6887 51.0478 54.2321 50.7564C54.7756 50.465 55.2386 50.0437 55.5799 49.5301H55.5899Z" fill="#939598"/>
</g>
<defs>
<clipPath id="clip0_8068_5474">
<rect width="76.74" height="75.05" fill="white"/>
</clipPath>
</defs>
</svg>
