<svg width="44" height="27" viewBox="0 0 44 27" fill="none" xmlns="http://www.w3.org/2000/svg">
<g clip-path="url(#clip0_8101_316)">
<path d="M6.49001 7.74998V11.47H8.09001V7.74998H10.49V6.47998H0.230011V7.74998H2.57001V11.47H4.19001V7.74998H6.49001Z" stroke="#231F20" stroke-width="0.45"/>
<path d="M3.20002 5.34002C3.88918 5.55528 4.60811 5.65997 5.33003 5.65008C6.04181 5.65536 6.75011 5.55074 7.43 5.34002C7.97901 5.18365 8.4762 4.88327 8.87001 4.47002C9.20426 4.11981 9.39054 3.65416 9.39003 3.17004C9.38873 2.67436 9.2034 2.19681 8.87001 1.83001C8.47439 1.41682 7.97816 1.11357 7.43 0.950004C6.0401 0.536522 4.55989 0.536522 3.16999 0.950004C2.62184 1.11357 2.12561 1.41682 1.72999 1.83001C1.40023 2.1983 1.21853 2.67569 1.21998 3.17004C1.21573 3.65297 1.3985 4.11881 1.72999 4.47002C2.13544 4.88364 2.64235 5.18363 3.20002 5.34002ZM3.20002 2.48003C3.44357 2.26673 3.73523 2.11574 4.05 2.04003C4.47813 1.93242 4.91862 1.88196 5.36 1.89001C5.80133 1.88288 6.2417 1.93333 6.66999 2.04003C6.98933 2.11142 7.28525 2.26284 7.52998 2.48003C7.62579 2.56741 7.70209 2.67405 7.7538 2.79296C7.8055 2.91187 7.83147 3.04038 7.83003 3.17004C7.83055 3.29663 7.80406 3.42187 7.75233 3.53741C7.7006 3.65294 7.62476 3.7561 7.52998 3.84002C7.28153 4.04756 6.98643 4.19167 6.66999 4.26C6.2417 4.3667 5.80133 4.41709 5.36 4.40997C4.91862 4.41801 4.47813 4.36761 4.05 4.26C3.7371 4.19015 3.4456 4.04612 3.20002 3.84002C3.10655 3.7556 3.03228 3.65208 2.98225 3.53649C2.93222 3.4209 2.90756 3.29596 2.90998 3.17004C2.89842 3.03834 2.91568 2.90571 2.96058 2.78136C3.00548 2.65702 3.07696 2.54393 3.16999 2.45L3.20002 2.48003Z" stroke="#231F20" stroke-width="0.45"/>
<path d="M20.54 0.219971H18.96V11.46H20.54V0.219971Z" stroke="#231F20" stroke-width="0.45"/>
<path d="M18.34 7.99005C17.7604 7.75417 17.2385 7.39597 16.81 6.94C16.3827 6.50562 16.0432 5.99292 15.81 5.42999C15.5972 4.899 15.4886 4.33205 15.49 3.76001V3.34003H17.83V2.09003H15.53V0.5H13.97V2.09003H11.58V3.34003H13.98V3.78003C13.9776 4.37444 13.8692 4.96371 13.66 5.52008C13.4486 6.09509 13.1296 6.62448 12.72 7.08002C12.3061 7.55591 11.7899 7.93194 11.21 8.17999L12.05 9.39008C12.7218 9.10503 13.3151 8.66255 13.78 8.10004C14.2186 7.5575 14.5573 6.94116 14.78 6.27997C15.0144 6.89321 15.3527 7.46156 15.78 7.96002C16.2494 8.50796 16.8424 8.93641 17.51 9.21002L18.34 7.99005Z" stroke="#231F20" stroke-width="0.45"/>
<path d="M27.86 6.77V7.84H30.01V8.73H31.59V0.25H30.01V6.77H27.86Z" stroke="#231F20" stroke-width="0.45"/>
<path d="M25.03 6.41003V7.92004H23.43V11.2701H31.8V10.0001H25.01V8.46008H26.59V6.34009C27.4981 6.28465 28.4028 6.18111 29.3 6.03003L29.22 4.90015C28.22 5.03015 27.1 5.12003 25.98 5.16003C24.86 5.20003 23.54 5.23012 21.98 5.25012L22.17 6.49011C23.18 6.47011 24.11 6.45003 25.03 6.41003Z" stroke="#231F20" stroke-width="0.45"/>
<path d="M24.22 4.33988C24.6868 4.51338 25.182 4.59817 25.68 4.58988C26.1749 4.60004 26.6671 4.51517 27.13 4.33988C27.5172 4.19986 27.8617 3.96218 28.13 3.64988C28.3604 3.3673 28.4874 3.01449 28.49 2.64988C28.4821 2.28623 28.3557 1.93511 28.13 1.64988C27.8638 1.32827 27.5194 1.0804 27.13 0.929906C26.6669 0.755326 26.1748 0.670483 25.68 0.679906C25.182 0.671618 24.6868 0.756405 24.22 0.929906C23.8271 1.07403 23.4813 1.32302 23.22 1.64988C22.9943 1.93511 22.8679 2.28623 22.86 2.64988C22.8625 3.01449 22.9895 3.3673 23.22 3.64988C23.4861 3.96462 23.8313 4.20279 24.22 4.33988ZM24.52 2.13987C24.6424 1.9989 24.8017 1.89499 24.98 1.83988C25.2069 1.7724 25.4433 1.74199 25.68 1.74985C25.9102 1.74047 26.1402 1.77094 26.36 1.83988C26.5383 1.89499 26.6977 1.9989 26.82 2.13987C26.93 2.26986 26.9903 2.43463 26.9903 2.60489C26.9903 2.77515 26.93 2.93987 26.82 3.06986C26.6934 3.2035 26.5352 3.30325 26.36 3.3599C26.1397 3.42755 25.9104 3.46125 25.68 3.45987C25.4431 3.45961 25.2075 3.42597 24.98 3.3599C24.8048 3.30325 24.6467 3.2035 24.52 3.06986C24.4133 2.94062 24.3565 2.77744 24.36 2.6099C24.362 2.44936 24.4185 2.29425 24.52 2.1699V2.13987Z" stroke="#231F20" stroke-width="0.45"/>
<path d="M34.58 5.8501C35.0714 6.08035 35.6073 6.19971 36.15 6.19971C36.6926 6.19971 37.2286 6.08035 37.72 5.8501C38.1706 5.6228 38.5509 5.27711 38.82 4.8501C39.0853 4.44274 39.2244 3.96618 39.22 3.4801C39.2305 2.9807 39.0912 2.48955 38.82 2.07007C38.5509 1.64306 38.1706 1.29737 37.72 1.07007C37.2286 0.839814 36.6926 0.720459 36.15 0.720459C35.6073 0.720459 35.0714 0.839814 34.58 1.07007C34.1282 1.29956 33.7452 1.64459 33.47 2.07007C33.2015 2.4908 33.0625 2.98109 33.07 3.4801C33.0613 3.96677 33.2008 4.44456 33.47 4.8501C33.7452 5.27558 34.1282 5.6206 34.58 5.8501ZM34.81 2.77008C34.9458 2.56261 35.1361 2.39656 35.36 2.2901C35.6074 2.17527 35.8773 2.11721 36.15 2.12012C36.4195 2.11734 36.6861 2.17544 36.93 2.2901C37.1577 2.39076 37.3495 2.55811 37.48 2.77008C37.6221 2.99362 37.6919 3.25548 37.68 3.52008C37.6855 3.77143 37.6175 4.01892 37.4842 4.23212C37.351 4.44531 37.1584 4.61491 36.93 4.72009C36.6861 4.83475 36.4195 4.89291 36.15 4.89014C35.8773 4.89305 35.6074 4.83492 35.36 4.72009C35.1361 4.61364 34.9458 4.44758 34.81 4.24011C34.6784 4.02354 34.6124 3.77341 34.62 3.52008C34.61 3.25702 34.6759 2.99663 34.81 2.77008Z" stroke="#231F20" stroke-width="0.45"/>
<path d="M40.75 8.20996H42.12V6.96997H34.51V8.20996H35.89V10.0299H34.43V11.34H42.26V10.0699H40.75V8.20996ZM37.44 8.20996H39.22V10.0299H37.43L37.44 8.20996Z" stroke="#231F20" stroke-width="0.45"/>
<path d="M41.91 2.72V0.25H40.33V6.48H41.91V4H43.42V2.72H41.91Z" stroke="#231F20" stroke-width="0.45"/>
<path d="M9.07001 20.22C9.2953 20.6738 9.60008 21.0836 9.96997 21.4299C10.4685 21.8936 11.0674 22.2358 11.72 22.4299L12.48 21.2C11.9433 21.0494 11.4431 20.7908 11.01 20.4399C10.6345 20.1489 10.3301 19.7762 10.12 19.35C9.92336 18.9626 9.8206 18.5344 9.82001 18.1V18.01H12.09V16.7799H9.83997V15.52H8.26001V16.7799H6V18.01H8.26001V18.1C8.26536 18.5778 8.16295 19.0507 7.96039 19.4835C7.75783 19.9163 7.4603 20.298 7.08997 20.6C6.65797 20.957 6.15784 21.2224 5.62 21.38L6.38 22.61C7.02789 22.4119 7.62267 22.0701 8.12 21.61C8.52416 21.2129 8.84688 20.7407 9.07001 20.22Z" stroke="#231F20" stroke-width="0.45"/>
<path d="M9.28001 23.03H7.70001V25.17V25.99V26.44H15.43V25.17H9.28001V23.03Z" stroke="#231F20" stroke-width="0.45"/>
<path d="M15.16 23.7399V15.4099H13.59V18.6899H11.73V19.9499H13.59V23.7399H15.16Z" stroke="#231F20" stroke-width="0.45"/>
<path d="M20.2 23.03H18.63V25.17V25.99V26.44H26.35V25.17H20.2V23.03Z" stroke="#231F20" stroke-width="0.45"/>
<path d="M26.08 23.7399V15.4099H24.51V18.6899H22.65V19.9499H24.51V23.7399H26.08Z" stroke="#231F20" stroke-width="0.45"/>
<path d="M19.99 20.22C20.2156 20.6763 20.5241 21.0866 20.9 21.4299C21.3972 21.8954 21.9965 22.2379 22.65 22.4299L23.4 21.2C22.8633 21.0494 22.3631 20.7908 21.93 20.4399C21.5544 20.1489 21.2501 19.7762 21.04 19.35C20.8464 18.9619 20.7471 18.5336 20.75 18.1V18.01H23.01V16.7799H20.77V15.52H19.19V16.7799H16.92V18.01H19.19V18.1C19.1899 18.5779 19.084 19.05 18.88 19.4822C18.676 19.9144 18.3789 20.2961 18.01 20.6C17.578 20.957 17.0778 21.2224 16.54 21.38L17.3 22.61C17.9479 22.4119 18.5426 22.0701 19.04 21.61C19.4441 21.2129 19.7669 20.7407 19.99 20.22Z" stroke="#231F20" stroke-width="0.45"/>
<path d="M36.94 15.3899H35.34V26.6299H36.94V15.3899Z" stroke="#231F20" stroke-width="0.45"/>
<path d="M32.63 19.3399C32.1724 19.106 31.6638 18.9892 31.15 18.9999C30.6331 18.9913 30.1219 19.1079 29.66 19.3399C29.24 19.5736 28.8937 19.9199 28.66 20.3399C28.4042 20.7542 28.2723 21.2331 28.28 21.7199C28.275 22.2064 28.4067 22.6845 28.66 23.0999C28.8897 23.5229 29.237 23.8702 29.66 24.0999C30.1256 24.3331 30.6392 24.4545 31.16 24.4545C31.6807 24.4545 32.1943 24.3331 32.66 24.0999C33.083 23.8702 33.4303 23.5229 33.66 23.0999C33.9055 22.6817 34.0333 22.2049 34.03 21.7199C34.0377 21.2331 33.9058 20.7542 33.65 20.3399C33.4109 19.9172 33.0574 19.5706 32.63 19.3399ZM32.36 22.4199C32.2473 22.6245 32.0769 22.7915 31.87 22.9C31.6447 23.0119 31.3966 23.07 31.145 23.07C30.8935 23.07 30.6453 23.0119 30.42 22.9C30.2131 22.7915 30.0427 22.6245 29.93 22.4199C29.8051 22.1936 29.743 21.9382 29.75 21.6799C29.744 21.4217 29.806 21.1665 29.93 20.9399C30.0452 20.7346 30.2147 20.5651 30.42 20.4499C30.6453 20.338 30.8935 20.2798 31.145 20.2798C31.3966 20.2798 31.6447 20.338 31.87 20.4499C32.0753 20.5651 32.2448 20.7346 32.36 20.9399C32.476 21.1691 32.5343 21.4231 32.53 21.6799C32.5227 21.9097 32.4646 22.1351 32.36 22.3399V22.4199Z" stroke="#231F20" stroke-width="0.45"/>
<path d="M31.92 15.54H30.33V17.1H27.78V18.35H34.48V17.1H31.92V15.54Z" stroke="#231F20" stroke-width="0.45"/>
</g>
<defs>
<clipPath id="clip0_8101_316">
<rect width="43.65" height="26.86" fill="white"/>
</clipPath>
</defs>
</svg>
