<svg width="34" height="68" viewBox="0 0 34 68" fill="none" xmlns="http://www.w3.org/2000/svg">
<mask id="mask0_8101_520" style="mask-type:luminance" maskUnits="userSpaceOnUse" x="2" y="2" width="29" height="64">
<path d="M30.89 65.88L30.89 2.31006L2.74005 2.31006L2.74005 65.88H30.89Z" fill="white"/>
</mask>
<g mask="url(#mask0_8101_520)">
<path d="M32.87 21.3101H29.23V22.7401H32.87V21.3101Z" fill="#231F20"/>
<path d="M30.66 27.9199H27.02V29.3499H30.66V27.9199Z" fill="#231F20"/>
<path d="M30.66 23.5H29.23V25.51H30.66V23.5Z" fill="#231F20"/>
<path d="M28.45 24.9299H27.02V26.9399H28.45V24.9299Z" fill="#231F20"/>
<path d="M28 31.79H24.36V33.22H28V31.79Z" fill="#231F20"/>
<path d="M25.79 38.3999H22.15V39.8299H25.79V38.3999Z" fill="#231F20"/>
<path d="M27.99 33.98H26.56V37.43H27.99V33.98Z" fill="#231F20"/>
<path d="M25.79 33.98H24.36V35.99H25.79V33.98Z" fill="#231F20"/>
<path d="M23.58 35.4099H22.15V37.4199H23.58V35.4099Z" fill="#231F20"/>
<path d="M23.13 26.77H19.49V28.2H23.13V26.77Z" fill="#231F20"/>
<path d="M20.92 33.3799H17.28V34.8099H20.92V33.3799Z" fill="#231F20"/>
<path d="M23.12 28.95H21.69V32.4H23.12V28.95Z" fill="#231F20"/>
<path d="M20.92 28.95H19.49V30.9599H20.92V28.95Z" fill="#231F20"/>
<path d="M18.71 30.3899H17.28V32.3999H18.71V30.3899Z" fill="#231F20"/>
<path d="M31.92 4.36011H28.28V5.79011H31.92V4.36011Z" fill="#231F20"/>
<path d="M29.71 10.96H26.07V12.39H29.71V10.96Z" fill="#231F20"/>
<path d="M31.91 6.54004H30.48V9.99004H31.91V6.54004Z" fill="#231F20"/>
<path d="M29.71 6.54004H28.28V8.55004H29.71V6.54004Z" fill="#231F20"/>
<path d="M27.5 7.97998H26.07V9.98998H27.5V7.97998Z" fill="#231F20"/>
<path d="M27.05 14.8401H23.41V16.2701H27.05V14.8401Z" fill="#231F20"/>
<path d="M24.85 21.4399H21.21V22.8699H24.85V21.4399Z" fill="#231F20"/>
<path d="M27.05 17.02H25.62V20.47H27.05V17.02Z" fill="#231F20"/>
<path d="M24.84 17.02H23.41V19.03H24.84V17.02Z" fill="#231F20"/>
<path d="M22.64 18.46H21.21V20.47H22.64V18.46Z" fill="#231F20"/>
<path d="M22.18 9.81006H18.54V11.2401H22.18V9.81006Z" fill="#231F20"/>
<path d="M19.98 16.4199H16.34V17.8499H19.98V16.4199Z" fill="#231F20"/>
<path d="M22.18 12H20.75V15.45H22.18V12Z" fill="#231F20"/>
<path d="M19.97 12H18.54V14.01H19.97V12Z" fill="#231F20"/>
<path d="M17.77 13.4299H16.34V15.4399H17.77V13.4299Z" fill="#231F20"/>
<path d="M17.77 20.6299H14.13V22.0599H17.77V20.6299Z" fill="#231F20"/>
<path d="M15.57 27.23H11.93V28.66H15.57V27.23Z" fill="#231F20"/>
<path d="M17.77 22.8101H16.34V26.2601H17.77V22.8101Z" fill="#231F20"/>
<path d="M15.56 22.8101H14.13V24.8201H15.56V22.8101Z" fill="#231F20"/>
<path d="M13.36 24.25H11.93V26.26H13.36V24.25Z" fill="#231F20"/>
<path d="M12.9 14.77H9.25999V16.2H12.9V14.77Z" fill="#231F20"/>
<path d="M10.7 21.3799H7.06V22.8099H10.7V21.3799Z" fill="#231F20"/>
<path d="M12.9 16.96H11.47V20.41H12.9V16.96Z" fill="#231F20"/>
<path d="M10.69 16.96H9.25999V18.97H10.69V16.96Z" fill="#231F20"/>
<path d="M8.49 18.3899H7.06V20.3999H8.49V18.3899Z" fill="#231F20"/>
<path d="M8.03999 25.25H4.39999V26.68H8.03999V25.25Z" fill="#231F20"/>
<path d="M5.83 31.8601H2.19V33.2901H5.83V31.8601Z" fill="#231F20"/>
<path d="M8.03001 27.4399H6.60001V30.8899H8.03001V27.4399Z" fill="#231F20"/>
<path d="M5.82999 27.4399H4.39999V29.4499H5.82999V27.4399Z" fill="#231F20"/>
<path d="M3.62 28.8701H2.19V30.8801H3.62V28.8701Z" fill="#231F20"/>
<path d="M3.16 22.4099H1.73V25.8599H3.16V22.4099Z" fill="#231F20"/>
<path d="M16.83 3.66992H13.19V5.09992H16.83V3.66992Z" fill="#231F20"/>
<path d="M14.62 10.28H10.98V11.71H14.62V10.28Z" fill="#231F20"/>
<path d="M16.82 5.8501H15.39V9.3001H16.82V5.8501Z" fill="#231F20"/>
<path d="M14.62 5.8501H13.19V7.8601H14.62V5.8501Z" fill="#231F20"/>
<path d="M12.41 7.29004H10.98V9.30004H12.41V7.29004Z" fill="#231F20"/>
<path d="M9.75 4.41992H6.11V5.84992H9.75V4.41992Z" fill="#231F20"/>
<path d="M11.95 0H10.52V3.45H11.95V0Z" fill="#231F20"/>
<path d="M7.54 1.43994H6.11V3.44994H7.54V1.43994Z" fill="#231F20"/>
<path d="M7.09 8.30005H3.45V9.73005H7.09V8.30005Z" fill="#231F20"/>
<path d="M4.88001 14.8999H1.24001V16.3299H4.88001V14.8999Z" fill="#231F20"/>
<path d="M7.07999 10.48H5.64999V13.93H7.07999V10.48Z" fill="#231F20"/>
<path d="M4.88 10.48H3.45V12.49H4.88V10.48Z" fill="#231F20"/>
<path d="M19.19 55.21H15.55V56.64H19.19V55.21Z" fill="#231F20"/>
<path d="M16.99 61.8201H13.35V63.2501H16.99V61.8201Z" fill="#231F20"/>
<path d="M19.19 57.3999H17.76V60.8499H19.19V57.3999Z" fill="#231F20"/>
<path d="M16.98 57.3999H15.55V59.4099H16.98V57.3999Z" fill="#231F20"/>
<path d="M14.78 58.8301H13.35V60.8401H14.78V58.8301Z" fill="#231F20"/>
<path d="M14.32 49.3601H10.68V50.7901H14.32V49.3601Z" fill="#231F20"/>
<path d="M12.12 55.96H8.48V57.39H12.12V55.96Z" fill="#231F20"/>
<path d="M14.32 51.54H12.89V54.99H14.32V51.54Z" fill="#231F20"/>
<path d="M12.11 51.54H10.68V53.55H12.11V51.54Z" fill="#231F20"/>
<path d="M9.91 52.98H8.48V54.99H9.91V52.98Z" fill="#231F20"/>
<path d="M9.45 59.8401H5.81V61.2701H9.45V59.8401Z" fill="#231F20"/>
<path d="M9.45 62.02H8.02V65.47H9.45V62.02Z" fill="#231F20"/>
<path d="M7.24 62.02H5.81V64.03H7.24V62.02Z" fill="#231F20"/>
<path d="M5.04 63.46H3.61V65.47H5.04V63.46Z" fill="#231F20"/>
<path d="M4.59 54.8101H0.949997V56.2401H4.59V54.8101Z" fill="#231F20"/>
<path d="M4.57999 57H3.14999V60.45H4.57999V57Z" fill="#231F20"/>
<path d="M18.25 38.25H14.61V39.68H18.25V38.25Z" fill="#231F20"/>
<path d="M16.04 44.8601H12.4V46.2901H16.04V44.8601Z" fill="#231F20"/>
<path d="M18.24 40.4399H16.81V43.8899H18.24V40.4399Z" fill="#231F20"/>
<path d="M16.04 40.4399H14.61V42.4499H16.04V40.4399Z" fill="#231F20"/>
<path d="M13.83 41.8799H12.4V43.8899H13.83V41.8799Z" fill="#231F20"/>
<path d="M13.38 32.3999H9.74001V33.8299H13.38V32.3999Z" fill="#231F20"/>
<path d="M11.17 39.01H7.53V40.44H11.17V39.01Z" fill="#231F20"/>
<path d="M13.37 34.5901H11.94V38.0401H13.37V34.5901Z" fill="#231F20"/>
<path d="M11.17 34.5901H9.74001V36.6001H11.17V34.5901Z" fill="#231F20"/>
<path d="M8.96 36.02H7.53V38.03H8.96V36.02Z" fill="#231F20"/>
<path d="M8.51 42.8799H4.87V44.3099H8.51V42.8799Z" fill="#231F20"/>
<path d="M6.3 49.49H2.66V50.92H6.3V49.49Z" fill="#231F20"/>
<path d="M8.50001 45.0701H7.07001V48.5201H8.50001V45.0701Z" fill="#231F20"/>
<path d="M6.3 45.0701H4.87V47.0801H6.3V45.0701Z" fill="#231F20"/>
<path d="M4.09 46.5H2.66V48.51H4.09V46.5Z" fill="#231F20"/>
<path d="M3.64 37.8601H0V39.2901H3.64V37.8601Z" fill="#231F20"/>
<path d="M3.63 40.04H2.2V43.49H3.63V40.04Z" fill="#231F20"/>
<path d="M24.3 4.6001H20.66V6.0301H24.3V4.6001Z" fill="#231F20"/>
<path d="M26.5 0.179932H25.07V3.62993H26.5V0.179932Z" fill="#231F20"/>
<path d="M22.09 1.61011H20.66V3.62011H22.09V1.61011Z" fill="#231F20"/>
<path d="M33.34 63.22H29.7V64.65H33.34V63.22Z" fill="#231F20"/>
<path d="M31.13 60.24H29.7V62.25H31.13V60.24Z" fill="#231F20"/>
<path d="M25.81 62.0701H22.17V63.5001H25.81V62.0701Z" fill="#231F20"/>
<path d="M25.8 64.26H24.37V67.71H25.8V64.26Z" fill="#231F20"/>
<path d="M23.6 64.26H22.17V66.27H23.6V64.26Z" fill="#231F20"/>
<path d="M32.39 46.26H28.75V47.69H32.39V46.26Z" fill="#231F20"/>
<path d="M30.18 43.28H28.75V45.29H30.18V43.28Z" fill="#231F20"/>
<path d="M29.73 50.1399H26.09V51.5699H29.73V50.1399Z" fill="#231F20"/>
<path d="M27.52 56.74H23.88V58.17H27.52V56.74Z" fill="#231F20"/>
<path d="M29.72 52.3201H28.29V55.7701H29.72V52.3201Z" fill="#231F20"/>
<path d="M27.52 52.3201H26.09V54.3301H27.52V52.3201Z" fill="#231F20"/>
<path d="M25.31 53.76H23.88V55.77H25.31V53.76Z" fill="#231F20"/>
<path d="M24.86 45.1101H21.22V46.5401H24.86V45.1101Z" fill="#231F20"/>
<path d="M22.65 51.72H19.01V53.15H22.65V51.72Z" fill="#231F20"/>
<path d="M24.85 47.3H23.42V50.75H24.85V47.3Z" fill="#231F20"/>
<path d="M22.65 47.3H21.22V49.3101H22.65V47.3Z" fill="#231F20"/>
<path d="M20.44 48.73H19.01V50.74H20.44V48.73Z" fill="#231F20"/>
</g>
<path d="M30.89 65.88L30.89 2.31006L2.74002 2.31006L2.74002 65.88H30.89Z" stroke="#231F20" stroke-width="0.41"/>
</svg>
