<svg width="79" height="67" viewBox="0 0 79 67" fill="none" xmlns="http://www.w3.org/2000/svg">
<g clip-path="url(#clip0_8110_725)">
<path d="M75.64 39.3899H0.210007L3.28001 35.6899H78.7L75.64 39.3899Z" fill="#939598" stroke="#231F20" stroke-width="0.2"/>
<path d="M75.64 39.3899H0.210007L3.28001 35.6899H78.7L75.64 39.3899Z" fill="#939598" stroke="#231F20" stroke-width="0.2"/>
<path d="M3.28001 30.3299H78.7L75.64 26.6299H0.210007L3.28001 30.3299Z" fill="#CED1D3" stroke="#231F20" stroke-width="0.2"/>
<path d="M78.71 30.3301H3.28V35.6901H78.71V30.3301Z" fill="#B3B6BA" stroke="#231F20" stroke-width="0.2"/>
<path d="M75.64 21.2601H0.210007L3.28001 17.5601H78.7L75.64 21.2601Z" fill="#939598" stroke="#231F20" stroke-width="0.2"/>
<path d="M75.64 21.2601H0.210007L3.28001 17.5601H78.7L75.64 21.2601Z" fill="#939598" stroke="#231F20" stroke-width="0.2"/>
<path d="M3.28001 12.2H78.7L75.64 8.5H0.210007L3.28001 12.2Z" fill="#CED1D3" stroke="#231F20" stroke-width="0.2"/>
<path d="M78.71 12.2H3.28V17.56H78.71V12.2Z" fill="#B3B6BA" stroke="#231F20" stroke-width="0.2"/>
<path d="M75.64 21.26H0.210007V26.62H75.64V21.26Z" fill="#B3B6BA" stroke="#231F20" stroke-width="0.2"/>
<path d="M58.28 39.3899H20.63L23.7 35.6899H61.35L58.28 39.3899Z" fill="#939598" stroke="#231F20" stroke-width="0.2"/>
<path d="M58.28 39.3899H20.63L23.7 35.6899H61.35L58.28 39.3899Z" fill="#939598" stroke="#231F20" stroke-width="0.2"/>
<path d="M23.7 30.3299H61.35L58.28 26.6299H20.63L23.7 30.3299Z" fill="#CED1D3" stroke="#231F20" stroke-width="0.2"/>
<path d="M61.35 30.3301H23.7V35.6901H61.35V30.3301Z" fill="#B3B6BA" stroke="#231F20" stroke-width="0.2"/>
<path d="M58.28 21.2601H20.63L23.7 17.5601H61.35L58.28 21.2601Z" fill="#939598" stroke="#231F20" stroke-width="0.2"/>
<path d="M58.28 21.2601H20.63L23.7 17.5601H61.35L58.28 21.2601Z" fill="#939598" stroke="#231F20" stroke-width="0.2"/>
<path d="M23.7 12.2H61.35L58.28 8.5H20.63L23.7 12.2Z" fill="#CED1D3" stroke="#231F20" stroke-width="0.2"/>
<path d="M61.35 12.2H23.7V17.56H61.35V12.2Z" fill="#B3B6BA" stroke="#231F20" stroke-width="0.2"/>
<path d="M58.28 21.26H20.63V26.62H58.28V21.26Z" fill="#B3B6BA" stroke="#231F20" stroke-width="0.2"/>
<path d="M54.23 39.4499C55.2849 39.4499 56.14 38.5947 56.14 37.5399C56.14 36.485 55.2849 35.6299 54.23 35.6299C53.1751 35.6299 52.32 36.485 52.32 37.5399C52.32 38.5947 53.1751 39.4499 54.23 39.4499Z" fill="url(#paint0_linear_8110_725)" stroke="#231F20" stroke-width="0.2" stroke-miterlimit="10"/>
<path d="M54.23 30.3901C55.2849 30.3901 56.14 29.5349 56.14 28.4801C56.14 27.4252 55.2849 26.5701 54.23 26.5701C53.1751 26.5701 52.32 27.4252 52.32 28.4801C52.32 29.5349 53.1751 30.3901 54.23 30.3901Z" fill="url(#paint1_linear_8110_725)" stroke="#231F20" stroke-width="0.2" stroke-miterlimit="10"/>
<path d="M54.23 25.85C55.2849 25.85 56.14 24.9949 56.14 23.94C56.14 22.8852 55.2849 22.03 54.23 22.03C53.1751 22.03 52.32 22.8852 52.32 23.94C52.32 24.9949 53.1751 25.85 54.23 25.85Z" fill="url(#paint2_linear_8110_725)" stroke="#231F20" stroke-width="0.2" stroke-miterlimit="10"/>
<path d="M54.23 21.32C55.2849 21.32 56.14 20.4649 56.14 19.41C56.14 18.3551 55.2849 17.5 54.23 17.5C53.1751 17.5 52.32 18.3551 52.32 19.41C52.32 20.4649 53.1751 21.32 54.23 21.32Z" fill="url(#paint3_linear_8110_725)" stroke="#231F20" stroke-width="0.2" stroke-miterlimit="10"/>
<path d="M54.23 12.2599C55.2849 12.2599 56.14 11.4048 56.14 10.3499C56.14 9.29508 55.2849 8.43994 54.23 8.43994C53.1751 8.43994 52.32 9.29508 52.32 10.3499C52.32 11.4048 53.1751 12.2599 54.23 12.2599Z" fill="url(#paint4_linear_8110_725)" stroke="#231F20" stroke-width="0.2" stroke-miterlimit="10"/>
<path d="M27.43 39.4499C28.4849 39.4499 29.34 38.5947 29.34 37.5399C29.34 36.485 28.4849 35.6299 27.43 35.6299C26.3751 35.6299 25.52 36.485 25.52 37.5399C25.52 38.5947 26.3751 39.4499 27.43 39.4499Z" fill="url(#paint5_linear_8110_725)" stroke="#231F20" stroke-width="0.2" stroke-miterlimit="10"/>
<path d="M27.43 30.3901C28.4849 30.3901 29.34 29.5349 29.34 28.4801C29.34 27.4252 28.4849 26.5701 27.43 26.5701C26.3751 26.5701 25.52 27.4252 25.52 28.4801C25.52 29.5349 26.3751 30.3901 27.43 30.3901Z" fill="url(#paint6_linear_8110_725)" stroke="#231F20" stroke-width="0.2" stroke-miterlimit="10"/>
<path d="M27.43 25.85C28.4849 25.85 29.34 24.9949 29.34 23.94C29.34 22.8852 28.4849 22.03 27.43 22.03C26.3751 22.03 25.52 22.8852 25.52 23.94C25.52 24.9949 26.3751 25.85 27.43 25.85Z" fill="url(#paint7_linear_8110_725)" stroke="#231F20" stroke-width="0.2" stroke-miterlimit="10"/>
<path d="M27.43 21.32C28.4849 21.32 29.34 20.4649 29.34 19.41C29.34 18.3551 28.4849 17.5 27.43 17.5C26.3751 17.5 25.52 18.3551 25.52 19.41C25.52 20.4649 26.3751 21.32 27.43 21.32Z" fill="url(#paint8_linear_8110_725)" stroke="#231F20" stroke-width="0.2" stroke-miterlimit="10"/>
<path d="M27.43 12.2599C28.4849 12.2599 29.34 11.4048 29.34 10.3499C29.34 9.29508 28.4849 8.43994 27.43 8.43994C26.3751 8.43994 25.52 9.29508 25.52 10.3499C25.52 11.4048 26.3751 12.2599 27.43 12.2599Z" fill="url(#paint9_linear_8110_725)" stroke="#231F20" stroke-width="0.2" stroke-miterlimit="10"/>
<path d="M47.41 65.9201H35.2601V2.9801C35.2601 2.9801 36.5499 0.100098 41.3399 0.100098C46.1299 0.100098 47.41 2.9801 47.41 2.9801V65.9201Z" fill="url(#paint10_linear_8110_725)" stroke="#231F20" stroke-width="0.2" stroke-miterlimit="10"/>
<path d="M41.37 25.85C42.4249 25.85 43.28 24.9949 43.28 23.94C43.28 22.8852 42.4249 22.03 41.37 22.03C40.3151 22.03 39.46 22.8852 39.46 23.94C39.46 24.9949 40.3151 25.85 41.37 25.85Z" fill="url(#paint11_linear_8110_725)" stroke="#231F20" stroke-width="0.2" stroke-miterlimit="10"/>
<path d="M41.37 16.79C42.4249 16.79 43.28 15.9348 43.28 14.88C43.28 13.8251 42.4249 12.97 41.37 12.97C40.3151 12.97 39.46 13.8251 39.46 14.88C39.46 15.9348 40.3151 16.79 41.37 16.79Z" fill="url(#paint12_linear_8110_725)" stroke="#231F20" stroke-width="0.2" stroke-miterlimit="10"/>
<path d="M41.37 34.9201C42.4249 34.9201 43.28 34.065 43.28 33.0101C43.28 31.9552 42.4249 31.1001 41.37 31.1001C40.3151 31.1001 39.46 31.9552 39.46 33.0101C39.46 34.065 40.3151 34.9201 41.37 34.9201Z" fill="url(#paint13_linear_8110_725)" stroke="#231F20" stroke-width="0.2" stroke-miterlimit="10"/>
</g>
<defs>
<linearGradient id="paint0_linear_8110_725" x1="52.32" y1="37.5399" x2="56.15" y2="37.5399" gradientUnits="userSpaceOnUse">
<stop stop-color="#CED1D3"/>
<stop offset="1" stop-color="#939598"/>
</linearGradient>
<linearGradient id="paint1_linear_8110_725" x1="52.32" y1="28.4801" x2="56.15" y2="28.4801" gradientUnits="userSpaceOnUse">
<stop stop-color="#CED1D3"/>
<stop offset="1" stop-color="#939598"/>
</linearGradient>
<linearGradient id="paint2_linear_8110_725" x1="52.32" y1="23.94" x2="56.15" y2="23.94" gradientUnits="userSpaceOnUse">
<stop stop-color="#CED1D3"/>
<stop offset="1" stop-color="#939598"/>
</linearGradient>
<linearGradient id="paint3_linear_8110_725" x1="52.32" y1="19.41" x2="56.15" y2="19.41" gradientUnits="userSpaceOnUse">
<stop stop-color="#CED1D3"/>
<stop offset="1" stop-color="#939598"/>
</linearGradient>
<linearGradient id="paint4_linear_8110_725" x1="52.32" y1="10.3499" x2="56.15" y2="10.3499" gradientUnits="userSpaceOnUse">
<stop stop-color="#CED1D3"/>
<stop offset="1" stop-color="#939598"/>
</linearGradient>
<linearGradient id="paint5_linear_8110_725" x1="25.51" y1="37.5399" x2="29.34" y2="37.5399" gradientUnits="userSpaceOnUse">
<stop stop-color="#CED1D3"/>
<stop offset="1" stop-color="#939598"/>
</linearGradient>
<linearGradient id="paint6_linear_8110_725" x1="25.51" y1="28.4801" x2="29.34" y2="28.4801" gradientUnits="userSpaceOnUse">
<stop stop-color="#CED1D3"/>
<stop offset="1" stop-color="#939598"/>
</linearGradient>
<linearGradient id="paint7_linear_8110_725" x1="25.51" y1="23.94" x2="29.34" y2="23.94" gradientUnits="userSpaceOnUse">
<stop stop-color="#CED1D3"/>
<stop offset="1" stop-color="#939598"/>
</linearGradient>
<linearGradient id="paint8_linear_8110_725" x1="25.51" y1="19.41" x2="29.34" y2="19.41" gradientUnits="userSpaceOnUse">
<stop stop-color="#CED1D3"/>
<stop offset="1" stop-color="#939598"/>
</linearGradient>
<linearGradient id="paint9_linear_8110_725" x1="25.51" y1="10.3499" x2="29.34" y2="10.3499" gradientUnits="userSpaceOnUse">
<stop stop-color="#CED1D3"/>
<stop offset="1" stop-color="#939598"/>
</linearGradient>
<linearGradient id="paint10_linear_8110_725" x1="35.3001" y1="33.0101" x2="47.45" y2="33.0101" gradientUnits="userSpaceOnUse">
<stop stop-color="#CED1D3"/>
<stop offset="1" stop-color="#939598"/>
</linearGradient>
<linearGradient id="paint11_linear_8110_725" x1="39.46" y1="23.94" x2="43.29" y2="23.94" gradientUnits="userSpaceOnUse">
<stop stop-color="#CED1D3"/>
<stop offset="1" stop-color="#939598"/>
</linearGradient>
<linearGradient id="paint12_linear_8110_725" x1="39.46" y1="14.88" x2="43.29" y2="14.88" gradientUnits="userSpaceOnUse">
<stop stop-color="#CED1D3"/>
<stop offset="1" stop-color="#939598"/>
</linearGradient>
<linearGradient id="paint13_linear_8110_725" x1="39.46" y1="33.0101" x2="43.29" y2="33.0101" gradientUnits="userSpaceOnUse">
<stop stop-color="#CED1D3"/>
<stop offset="1" stop-color="#939598"/>
</linearGradient>
<clipPath id="clip0_8110_725">
<rect width="78.91" height="66.02" fill="white"/>
</clipPath>
</defs>
</svg>
