<svg width="80" height="58" viewBox="0 0 80 58" fill="none" xmlns="http://www.w3.org/2000/svg">
<g clip-path="url(#clip0_8110_759)">
<path d="M15.7999 50.34H3.65001V2.88C3.65001 2.88 4.94009 0 9.73009 0C14.5201 0 15.7999 2.88 15.7999 2.88V50.34Z" fill="#5F6367"/>
<path d="M19.73 57.2201H-0.279999V53.4901L3.65 50.3401H15.8L19.73 53.4901V57.2201Z" fill="#5F6367"/>
<path d="M15.8 13.6699H3.64999V16.2399H15.8V13.6699Z" fill="#FCAF17"/>
<path d="M15.8 28.0701H3.64999V30.6401H15.8V28.0701Z" fill="#FCAF17"/>
<path d="M76.5001 50.34H64.39V2.88C64.39 2.88 65.6801 0 70.4701 0C75.2601 0 76.5399 2.88 76.5399 2.88L76.5001 50.34Z" fill="#5F6367"/>
<path d="M80.43 57.2201H60.42V53.4901L64.35 50.3401H76.5L80.43 53.4901V57.2201Z" fill="#5F6367"/>
<path d="M76.5 13.6699H64.35V16.2399H76.5V13.6699Z" fill="#FCAF17"/>
<path d="M76.5 28.0701H64.35V30.6401H76.5V28.0701Z" fill="#FCAF17"/>
<path d="M3.65 5.87988H-1V10.9599H3.65V5.87988Z" fill="#5F6367"/>
<path d="M20.45 5.87988H15.8V10.9599H20.45V5.87988Z" fill="#5F6367"/>
<path d="M64.35 5.87988H59.7V10.9599H64.35V5.87988Z" fill="#5F6367"/>
<path d="M81.15 5.87988H76.5V10.9599H81.15V5.87988Z" fill="#5F6367"/>
<path d="M59.7 6.46997H20.45V10.37H59.7V6.46997Z" fill="#FCAF17"/>
<path d="M3.65 19.6101H-1V24.6901H3.65V19.6101Z" fill="#5F6367"/>
<path d="M20.45 19.6101H15.8V24.6901H20.45V19.6101Z" fill="#5F6367"/>
<path d="M64.35 19.6101H59.7V24.6901H64.35V19.6101Z" fill="#5F6367"/>
<path d="M81.15 19.6101H76.5V24.6901H81.15V19.6101Z" fill="#5F6367"/>
<path d="M59.7 20.2H20.45V24.1H59.7V20.2Z" fill="#FCAF17"/>
<path d="M3.65 34.98H-1V40.06H3.65V34.98Z" fill="#5F6367"/>
<path d="M20.45 34.98H15.8V40.06H20.45V34.98Z" fill="#5F6367"/>
<path d="M64.35 34.98H59.7V40.06H64.35V34.98Z" fill="#5F6367"/>
<path d="M81.15 34.98H76.5V40.06H81.15V34.98Z" fill="#5F6367"/>
<path d="M59.7 35.5701H20.45V39.4701H59.7V35.5701Z" fill="#FCAF17"/>
</g>
<defs>
<clipPath id="clip0_8110_759">
<rect width="82.15" height="57.22" fill="white" transform="translate(-1)"/>
</clipPath>
</defs>
</svg>
