<svg width="53" height="53" viewBox="0 0 53 53" fill="none" xmlns="http://www.w3.org/2000/svg">
<g clip-path="url(#clip0_8102_1030)">
<path d="M51.8212 26.5014L26.4977 1.17798L1.17427 26.5014L26.4977 51.8249L51.8212 26.5014Z" fill="white" stroke="#231F20" stroke-width="3" stroke-miterlimit="10"/>
<path d="M26.4167 15.5268C28.4347 15.5268 30.0707 13.8908 30.0707 11.8728C30.0707 9.85471 28.4347 8.21875 26.4167 8.21875C24.3986 8.21875 22.7627 9.85471 22.7627 11.8728C22.7627 13.8908 24.3986 15.5268 26.4167 15.5268Z" fill="white" stroke="#231F20" stroke-miterlimit="10"/>
<path d="M33.7692 22.885C35.7872 22.885 37.4232 21.249 37.4232 19.2309C37.4232 17.2129 35.7872 15.5769 33.7692 15.5769C31.7511 15.5769 30.1151 17.2129 30.1151 19.2309C30.1151 21.249 31.7511 22.885 33.7692 22.885Z" fill="white" stroke="#231F20" stroke-miterlimit="10"/>
<path d="M41.1272 30.2429C43.1453 30.2429 44.7812 28.6069 44.7812 26.5888C44.7812 24.5708 43.1453 22.9348 41.1272 22.9348C39.1091 22.9348 37.4732 24.5708 37.4732 26.5888C37.4732 28.6069 39.1091 30.2429 41.1272 30.2429Z" fill="white" stroke="#231F20" stroke-miterlimit="10"/>
<path d="M19.1475 22.8015C21.1656 22.8015 22.8015 21.1655 22.8015 19.1474C22.8015 17.1294 21.1656 15.4934 19.1475 15.4934C17.1295 15.4934 15.4935 17.1294 15.4935 19.1474C15.4935 21.1655 17.1295 22.8015 19.1475 22.8015Z" fill="white" stroke="#231F20" stroke-miterlimit="10"/>
<path d="M26.5 30.154C28.5181 30.154 30.154 28.518 30.154 26.5C30.154 24.4819 28.5181 22.8459 26.5 22.8459C24.4819 22.8459 22.846 24.4819 22.846 26.5C22.846 28.518 24.4819 30.154 26.5 30.154Z" fill="white" stroke="#231F20" stroke-miterlimit="10"/>
<path d="M33.858 37.5122C35.8761 37.5122 37.5121 35.8762 37.5121 33.8581C37.5121 31.8401 35.8761 30.2041 33.858 30.2041C31.84 30.2041 30.204 31.8401 30.204 33.8581C30.204 35.8762 31.84 37.5122 33.858 37.5122Z" fill="white" stroke="#231F20" stroke-miterlimit="10"/>
<path d="M11.8728 30.0707C13.8909 30.0707 15.5268 28.4348 15.5268 26.4167C15.5268 24.3987 13.8909 22.7627 11.8728 22.7627C9.85474 22.7627 8.21878 24.3987 8.21878 26.4167C8.21878 28.4348 9.85474 30.0707 11.8728 30.0707Z" fill="white" stroke="#231F20" stroke-miterlimit="10"/>
<path d="M19.2308 37.4233C21.2489 37.4233 22.8849 35.7873 22.8849 33.7693C22.8849 31.7512 21.2489 30.1152 19.2308 30.1152C17.2128 30.1152 15.5768 31.7512 15.5768 33.7693C15.5768 35.7873 17.2128 37.4233 19.2308 37.4233Z" fill="white" stroke="#231F20" stroke-miterlimit="10"/>
<path d="M26.5888 44.7812C28.6069 44.7812 30.2429 43.1452 30.2429 41.1272C30.2429 39.1091 28.6069 37.4731 26.5888 37.4731C24.5708 37.4731 22.9348 39.1091 22.9348 41.1272C22.9348 43.1452 24.5708 44.7812 26.5888 44.7812Z" fill="white" stroke="#231F20" stroke-miterlimit="10"/>
</g>
<defs>
<clipPath id="clip0_8102_1030">
<rect width="53" height="53" fill="white"/>
</clipPath>
</defs>
</svg>
