<svg width="36" height="61" viewBox="0 0 36 61" fill="none" xmlns="http://www.w3.org/2000/svg">
<g clip-path="url(#clip0_8102_951)">
<path d="M27.1182 15.8755H26.899C24.0513 15.8755 21.7427 18.2014 21.7427 21.0707V21.2915C21.7427 24.1607 24.0513 26.4866 26.899 26.4866H27.1182C29.966 26.4866 32.2745 24.1607 32.2745 21.2915V21.0707C32.2745 18.2014 29.966 15.8755 27.1182 15.8755Z" fill="#FCAF17"/>
<path d="M36 21.179L28.7854 11.3082C28.5814 8.17732 27.1775 5.24896 24.8703 3.14166C22.5631 1.03436 19.5332 -0.0868133 16.4207 0.014908C13.3082 0.116629 10.3568 1.43327 8.18995 3.68679C6.02312 5.94031 4.81053 8.95421 4.80834 12.0918V55.7442H2.7415L0.0172119 57.9435V61H13.8964V57.9435L11.1722 55.7442H9.10531V12.0918C9.11413 10.0995 9.88295 8.18685 11.2526 6.74981C12.6223 5.31277 14.4879 4.46137 16.4634 4.37181C18.4388 4.28225 20.3728 4.96139 21.8651 6.26868C23.3573 7.57597 24.2935 9.41132 24.4798 11.3948L17.3082 21.179H36Z" fill="#231F20"/>
</g>
<defs>
<clipPath id="clip0_8102_951">
<rect width="36" height="61" fill="white"/>
</clipPath>
</defs>
</svg>
