<svg width="67" height="67" viewBox="0 0 67 67" fill="none" xmlns="http://www.w3.org/2000/svg">
<g clip-path="url(#clip0_8102_1058)">
<mask id="mask0_8102_1058" style="mask-type:luminance" maskUnits="userSpaceOnUse" x="0" y="-1" width="67" height="68">
<path d="M66.81 -0.0100098H0V66.59H66.81V-0.0100098Z" fill="white"/>
</mask>
<g mask="url(#mask0_8102_1058)">
<path d="M61.74 66.3699C62.374 66.3798 63.0034 66.2607 63.59 66.0199C64.1685 65.7882 64.6979 65.4488 65.15 65.0199C65.6036 64.5797 65.964 64.0527 66.2097 63.4703C66.4554 62.8879 66.5813 62.262 66.58 61.6299" stroke="#124D98" stroke-width="0.45"/>
<path d="M66.58 61.59V5.05005" stroke="#124D98" stroke-width="0.45"/>
<path d="M66.58 5.05C66.58 4.41487 66.4547 3.78595 66.2114 3.19929C65.968 2.61263 65.6113 2.07975 65.1618 1.63111C64.7122 1.18248 64.1786 0.82693 63.5914 0.584788C63.0043 0.342647 62.3751 0.218666 61.74 0.219981" stroke="#124D98" stroke-width="0.45"/>
<path d="M61.74 0.219971H5.02002" stroke="#124D98" stroke-width="0.45"/>
<path d="M5.02 0.219971C4.38848 0.222834 3.76353 0.348496 3.17999 0.589966C2.59826 0.838152 2.0689 1.19444 1.61999 1.63995C1.18921 2.09443 0.849725 2.62743 0.619991 3.20996C0.380959 3.79389 0.258655 4.41903 0.25999 5.04999" stroke="#124D98" stroke-width="0.45"/>
<path d="M0.22998 5.05005V61.59" stroke="#124D98" stroke-width="0.45"/>
<path d="M0.220001 61.5898C0.222108 62.2182 0.347824 62.84 0.589996 63.4199C0.816265 64.0012 1.15623 64.5315 1.59 64.9799C2.04212 65.4088 2.57146 65.7481 3.14999 65.9799C3.72989 66.2196 4.35256 66.3387 4.98 66.3298" stroke="#124D98" stroke-width="0.45"/>
<path d="M5.02002 66.3599H61.74" stroke="#124D98" stroke-width="0.45"/>
<path d="M60.06 64.41C60.6557 64.4106 61.2455 64.2925 61.795 64.0624C62.3444 63.8323 62.8425 63.4949 63.26 63.07C63.6865 62.6504 64.0263 62.1509 64.26 61.6C64.4844 61.0477 64.5966 60.4562 64.59 59.8601V6.73004C64.5971 6.13611 64.4813 5.54708 64.25 5C64.0143 4.4532 63.6747 3.9574 63.25 3.54004C62.8335 3.10972 62.3332 2.76938 61.78 2.54004C61.2318 2.31246 60.6436 2.19683 60.05 2.20002H6.75C5.54921 2.19728 4.3958 2.66829 3.54018 3.51081C2.68456 4.35332 2.19579 5.49932 2.17999 6.70002V59.83C2.1879 61.0378 2.67256 62.1935 3.52846 63.0457C4.38436 63.8978 5.54222 64.3774 6.75 64.38" fill="#124D98"/>
</g>
</g>
<defs>
<clipPath id="clip0_8102_1058">
<rect width="66.81" height="66.6" fill="white"/>
</clipPath>
</defs>
</svg>
