<svg width="20" height="58" viewBox="0 0 20 58" fill="none" xmlns="http://www.w3.org/2000/svg">
<g clip-path="url(#clip0_8102_1009)">
<path d="M16.0799 50.35H3.93004V2.88C3.93004 2.88 5.21998 0 9.99998 0C14.78 0 16.0799 2.88 16.0799 2.88V50.35Z" fill="#939598"/>
<path d="M16.0799 35.39H3.93004V2.88C3.93004 2.88 5.21998 0 9.99998 0C14.78 0 16.0799 2.88 16.0799 2.88V35.39Z" fill="#3F61AD"/>
<path d="M20 57.2201H0V53.4901L3.93 50.3401H16.08L20 53.4901V57.2201Z" fill="#939598"/>
<path d="M16.08 6.27002H3.92999V8.84002H16.08V6.27002Z" fill="#FCAF17"/>
<path d="M16.08 10.97H3.92999V13.54H16.08V10.97Z" fill="#FCAF17"/>
<path d="M16.08 28.0701H3.92999V30.6401H16.08V28.0701Z" fill="#FCAF17"/>
</g>
<defs>
<clipPath id="clip0_8102_1009">
<rect width="20" height="57.22" fill="white"/>
</clipPath>
</defs>
</svg>
