<svg width="51" height="33" viewBox="0 0 51 33" fill="none" xmlns="http://www.w3.org/2000/svg">
<g clip-path="url(#clip0_8102_972)">
<path d="M42.9697 20.0946H8.32034L11.6168 10.386C11.7906 9.95886 12.0863 9.59136 12.4675 9.32863C12.8487 9.06589 13.2989 8.91934 13.7629 8.90698H37.2998C37.8209 8.92638 38.3245 9.09868 38.747 9.40212C39.1694 9.70557 39.4918 10.1265 39.6733 10.6118L42.9697 20.0946Z" fill="#939598"/>
<path d="M44.4136 20.0913H6.87648V22.7221H44.4136V20.0913Z" fill="#74797F"/>
<path d="M28.7586 22.7253H22.5315V33H28.7586V22.7253Z" fill="#5A6167"/>
<path d="M34.7351 12.5325H16.555C15.0675 12.5325 13.8617 13.7294 13.8617 15.2058C13.8617 16.6823 15.0675 17.8792 16.555 17.8792H34.7351C36.2225 17.8792 37.4283 16.6823 37.4283 15.2058C37.4283 13.7294 36.2225 12.5325 34.7351 12.5325Z" fill="#FCAF17"/>
<path d="M25.3797 0H25.3764C24.9121 0 24.5358 0.373577 24.5358 0.834408V4.61705C24.5358 5.07789 24.9121 5.45146 25.3764 5.45146H25.3797C25.8439 5.45146 26.2203 5.07789 26.2203 4.61705V0.834408C26.2203 0.373577 25.8439 0 25.3797 0Z" fill="#FCAF17"/>
<path d="M46.3588 5.50689L46.3565 5.50458C46.0282 5.17872 45.496 5.17869 45.1677 5.50455L42.4731 8.1793C42.1448 8.50515 42.1448 9.03347 42.4731 9.35932L42.4754 9.36164C42.8037 9.6875 43.3359 9.68752 43.6642 9.36167L46.3588 6.68692C46.6871 6.36106 46.6871 5.83275 46.3588 5.50689Z" fill="#FCAF17"/>
<path d="M36.7364 0.926258L36.7333 0.925159C36.2959 0.770573 35.8151 0.99721 35.6594 1.43134L34.3811 4.99479C34.2253 5.42892 34.4536 5.90617 34.891 6.06076L34.8941 6.06186C35.3314 6.21645 35.8122 5.98982 35.968 5.55569L37.2463 1.99224C37.402 1.55811 37.1737 1.08084 36.7364 0.926258Z" fill="#FCAF17"/>
<path d="M51 14.5022V14.499C51 14.0381 50.6237 13.6646 50.1594 13.6646H46.3486C45.8844 13.6646 45.5081 14.0381 45.5081 14.499V14.5022C45.5081 14.9631 45.8844 15.3366 46.3486 15.3366H50.1594C50.6237 15.3366 51 14.9631 51 14.5022Z" fill="#FCAF17"/>
<path d="M8.52401 9.36282L8.52635 9.36051C8.85462 9.03465 8.85462 8.50637 8.52635 8.18051L5.83173 5.50576C5.50346 5.1799 4.97125 5.1799 4.64297 5.50576L4.64064 5.50808C4.31236 5.83393 4.31233 6.36224 4.64061 6.6881L7.33522 9.36285C7.6635 9.68871 8.19574 9.68868 8.52401 9.36282Z" fill="#FCAF17"/>
<path d="M16.0684 6.07031L16.0715 6.06922C16.5089 5.91463 16.7372 5.43736 16.5815 5.00323L15.3031 1.43978C15.1474 1.00565 14.6666 0.779027 14.2292 0.933614L14.2261 0.934713C13.7888 1.0893 13.5605 1.56657 13.7162 2.0007L14.9945 5.56415C15.1503 5.99828 15.6311 6.2249 16.0684 6.07031Z" fill="#FCAF17"/>
<path d="M5.48865 14.5022V14.4989C5.48865 14.0381 5.11232 13.6646 4.64807 13.6646H0.837305C0.373052 13.6646 -0.00327587 14.0381 -0.00327587 14.4989V14.5022C-0.00327587 14.963 0.373052 15.3366 0.837305 15.3366H4.64807C5.11232 15.3366 5.48865 14.963 5.48865 14.5022Z" fill="#FCAF17"/>
</g>
<defs>
<clipPath id="clip0_8102_972">
<rect width="51" height="33" fill="white"/>
</clipPath>
</defs>
</svg>
