<svg width="68" height="68" viewBox="0 0 68 68" fill="none" xmlns="http://www.w3.org/2000/svg">
<g clip-path="url(#clip0_8102_1073)">
<path d="M33.92 67.4C40.5583 67.3783 47.0413 65.39 52.5505 61.6864C58.0596 57.9827 62.3478 52.7297 64.8736 46.5906C67.3994 40.4515 68.0495 33.7017 66.7419 27.1935C65.4342 20.6852 62.2274 14.7103 57.5264 10.0232C52.8254 5.33619 46.841 2.14718 40.3289 0.858869C33.8167 -0.429447 27.0688 0.240695 20.9373 2.78471C14.8058 5.32873 9.56552 9.63251 5.87824 15.1526C2.19096 20.6728 0.222013 27.1617 0.220001 33.8C0.24648 42.7186 3.80932 51.2627 10.127 57.5578C16.4447 63.853 25.0013 67.3854 33.92 67.3801" stroke="#0054A0" stroke-width="0.45"/>
<path d="M2.29002 33.8C2.27419 27.5336 4.1183 21.4035 7.58884 16.1858C11.0594 10.9682 16.0002 6.89782 21.7857 4.49016C27.5711 2.0825 33.9409 1.44588 40.0884 2.66088C46.236 3.87587 51.8847 6.88782 56.3192 11.3154C60.7537 15.7429 63.7747 21.3868 64.9994 27.5324C66.2241 33.678 65.5975 40.0488 63.199 45.8381C60.8005 51.6273 56.738 56.5745 51.5258 60.0533C46.3137 63.5321 40.1864 65.386 33.92 65.3801C25.5391 65.3827 17.4999 62.058 11.569 56.1365C5.63805 50.2149 2.30062 42.181 2.29002 33.8Z" fill="#0054A0"/>
</g>
<defs>
<clipPath id="clip0_8102_1073">
<rect width="67.9" height="67.62" fill="white"/>
</clipPath>
</defs>
</svg>
