<svg width="47" height="14" viewBox="0 0 47 14" fill="none" xmlns="http://www.w3.org/2000/svg">
<g clip-path="url(#clip0_8102_1025)">
<path d="M6.97389 13.7913C10.7106 13.7913 13.7399 10.7508 13.7399 7.00003C13.7399 3.24931 10.7106 0.20874 6.97389 0.20874C3.23714 0.20874 0.207916 3.24931 0.207916 7.00003C0.207916 10.7508 3.23714 13.7913 6.97389 13.7913Z" fill="white" stroke="#231F20" stroke-miterlimit="10"/>
<path d="M40.0261 13.7913C43.7628 13.7913 46.7921 10.7508 46.7921 7.00003C46.7921 3.24931 43.7628 0.20874 40.0261 0.20874C36.2894 0.20874 33.2601 3.24931 33.2601 7.00003C33.2601 10.7508 36.2894 13.7913 40.0261 13.7913Z" fill="white" stroke="#231F20" stroke-miterlimit="10"/>
<path d="M39.4023 4.28271H7.59351C6.09836 4.28271 4.88629 5.49932 4.88629 7.00007C4.88629 8.50082 6.09836 9.71742 7.59351 9.71742H39.4023C40.8975 9.71742 42.1095 8.50082 42.1095 7.00007C42.1095 5.49932 40.8975 4.28271 39.4023 4.28271Z" fill="black"/>
</g>
<defs>
<clipPath id="clip0_8102_1025">
<rect width="47" height="14" fill="white"/>
</clipPath>
</defs>
</svg>
