<svg width="20" height="55" viewBox="0 0 20 55" fill="none" xmlns="http://www.w3.org/2000/svg">
<g clip-path="url(#clip0_8102_672)">
<path d="M15.9938 48.1204V1.49592H13.2919V0.129883H6.70807V1.49592H4.00621V48.1204L0.130432 51.211V54.8703H19.8696V51.211L15.9938 48.1204Z" fill="#F16022"/>
<path d="M16 6.9353H4.00623V11.1941H16V6.9353Z" fill="white"/>
<path d="M16 14.0559H4.00623V18.3147H16V14.0559Z" fill="white"/>
<path d="M16 21.1704H4.00623V25.4292H16V21.1704Z" fill="white"/>
<path d="M15.9938 48.1204V25.4294V21.1706V18.3087V14.056V11.1942V6.93534V1.49592H13.2919V0.129883H6.70807V1.49592H4.00621V6.93534V11.1942V14.056V18.3087V21.1706V25.4294V48.1204L0.130432 51.211V54.8703H19.8696V51.211L15.9938 48.1204Z" stroke="#231F20" stroke-width="0.41"/>
</g>
<defs>
<clipPath id="clip0_8102_672">
<rect width="20" height="55" fill="white"/>
</clipPath>
</defs>
</svg>
