<svg width="35" height="42" viewBox="0 0 35 42" fill="none" xmlns="http://www.w3.org/2000/svg">
<g clip-path="url(#clip0_8102_721)">
<path d="M4.42994 1.33008C4.88226 1.69912 5.22755 2.18254 5.42994 2.7301C5.92326 4.09695 5.92326 5.59323 5.42994 6.96008C5.22755 7.50765 4.88226 7.99107 4.42994 8.36011C3.99346 8.67571 3.46856 8.84558 2.92994 8.84558C2.39132 8.84558 1.86641 8.67571 1.42994 8.36011C0.976164 7.99243 0.63057 7.50858 0.429938 6.96008C-0.0763572 5.59553 -0.0763572 4.09465 0.429938 2.7301C0.633192 2.183 0.978327 1.69978 1.42994 1.33008C1.86641 1.01448 2.39132 0.844604 2.92994 0.844604C3.46856 0.844604 3.99346 1.01448 4.42994 1.33008ZM2.17994 2.56006C1.94041 2.80397 1.77114 3.10799 1.68995 3.44006C1.56935 3.89673 1.5121 4.36783 1.5199 4.84009C1.51146 5.31238 1.56872 5.78357 1.68995 6.24011C1.77114 6.57219 1.94041 6.87621 2.17994 7.12012C2.38172 7.31336 2.65054 7.42082 2.92994 7.42004C3.06728 7.42355 3.20387 7.39878 3.33118 7.34717C3.4585 7.29555 3.57381 7.21827 3.66993 7.12012C3.9127 6.87708 4.08543 6.57307 4.16993 6.24011C4.29116 5.78357 4.34841 5.31238 4.33997 4.84009C4.35048 4.36704 4.28975 3.89507 4.15992 3.44006C4.07873 3.10799 3.90945 2.80397 3.66993 2.56006C3.57381 2.4619 3.4585 2.38462 3.33118 2.33301C3.20387 2.28139 3.06728 2.25662 2.92994 2.26013C2.656 2.24845 2.38787 2.34129 2.17994 2.52002V2.56006ZM8.41993 5.37012H5.41993V4.11011H8.41993V5.37012ZM9.30994 11.3101H7.75001V0.0400391H9.30994V11.3101Z" fill="#FCAF17"/>
<path d="M5.58 19.5H1.93999V21.12H0.39006V18.33H4.02995V17.1599H0.380051V15.9199H5.58V19.5ZM4.41997 20.6799C5.17845 20.6289 5.93317 20.5321 6.67998 20.39L6.84001 21.6599C6.06305 21.8027 5.27839 21.8995 4.49004 21.95C3.69004 22 2.65005 22.0299 1.38005 22.0299H0.380051V20.75H1.38005C2.68005 20.75 3.69 20.7199 4.45 20.6799H4.41997ZM3.21001 25.6H1.64006V22.7699H3.21001V25.6ZM9.49004 26.22H1.64006V24.95H9.49004V26.22ZM9.18999 23.45H7.62004V15.1899H9.18999V23.45Z" fill="#FCAF17"/>
<path d="M4.64991 31.6201C5.12464 31.981 5.49134 32.4652 5.70997 33.02C6.21626 34.3846 6.21626 35.8856 5.70997 37.2501C5.49111 37.8021 5.12429 38.283 4.64991 38.6401C4.21078 38.9659 3.67674 39.1381 3.13001 39.1301C2.58021 39.1381 2.04287 38.966 1.59998 38.6401C1.12259 38.2861 0.755046 37.8042 0.539924 37.2501C0.0336282 35.8856 0.0336282 34.3846 0.539924 33.02C0.755325 32.4634 1.12263 31.9784 1.59998 31.6201C2.04195 31.2913 2.57918 31.1158 3.13001 31.1201C3.67777 31.1158 4.2117 31.2914 4.64991 31.6201ZM2.37 32.8401C2.12552 33.0874 1.94973 33.3941 1.85999 33.7301C1.63334 34.6497 1.63334 35.6105 1.85999 36.53C1.94779 36.8639 2.12398 37.1679 2.37 37.41C2.57485 37.6048 2.84736 37.7124 3.13001 37.7101C3.40961 37.7119 3.67881 37.6042 3.88001 37.41C4.12603 37.1679 4.30222 36.8639 4.39002 36.53C4.63022 35.6122 4.63022 34.648 4.39002 33.7301C4.30315 33.3952 4.13087 33.0885 3.89002 32.8401C3.68101 32.6531 3.41043 32.5498 3.13001 32.5498C2.8496 32.5498 2.57901 32.6531 2.37 32.8401ZM9.22999 41.6001H7.64002V30.3301H9.22999V41.6001Z" fill="#FCAF17"/>
<path d="M21.79 6.41992H11.58V5.17993H21.82L21.79 6.41992ZM16.67 2.41992C16.2672 3.01263 15.7245 3.49694 15.09 3.82996C14.3314 4.23197 13.5034 4.48646 12.6499 4.57996L12.04 3.34998C12.7586 3.28598 13.4599 3.09282 14.11 2.77991C14.6159 2.55326 15.0611 2.21068 15.41 1.77991C15.6875 1.4401 15.8457 1.01849 15.86 0.579956V0.199951H17.22V0.579956C17.2204 1.22762 17.029 1.86084 16.67 2.3999V2.41992ZM18.75 7.41992C19.2491 7.53772 19.7122 7.77451 20.1 8.10999C20.2493 8.25519 20.3672 8.42953 20.4463 8.62219C20.5255 8.81486 20.5641 9.02174 20.56 9.22998C20.5632 9.43512 20.524 9.63872 20.4449 9.828C20.3657 10.0173 20.2483 10.1882 20.1 10.33C19.7156 10.6725 19.2515 10.9131 18.75 11.0299C18.0637 11.2024 17.3575 11.2831 16.6499 11.2699C15.9391 11.2826 15.2298 11.2019 14.54 11.0299C14.0373 10.9164 13.5724 10.6754 13.19 10.33C13.0384 10.1902 12.9182 10.0199 12.8372 9.83032C12.7562 9.64073 12.7162 9.43612 12.72 9.22998C12.7159 9.02174 12.7545 8.81486 12.8337 8.62219C12.9128 8.42953 13.0307 8.25519 13.18 8.10999C13.5702 7.7724 14.0371 7.53544 14.54 7.41992C15.2311 7.25653 15.9398 7.17929 16.6499 7.18994C17.3564 7.17539 18.062 7.24927 18.75 7.40991V7.41992ZM15.35 8.46997C15.0752 8.50287 14.8117 8.59872 14.58 8.75C14.5012 8.80315 14.4364 8.87456 14.3912 8.95813C14.3459 9.0417 14.3215 9.13495 14.32 9.22998C14.3186 9.3242 14.3418 9.41718 14.3874 9.49963C14.433 9.58209 14.4994 9.6511 14.58 9.69995C14.8109 9.8529 15.0748 9.94889 15.35 9.97998C15.7801 10.046 16.2149 10.076 16.6499 10.0699C17.0817 10.0765 17.5133 10.0464 17.94 9.97998C18.2182 9.94859 18.4853 9.85268 18.72 9.69995C18.7993 9.64967 18.8646 9.58029 18.9101 9.49817C18.9555 9.41604 18.9795 9.32383 18.98 9.22998C18.9786 9.13495 18.9541 9.0417 18.9089 8.95813C18.8636 8.87456 18.7988 8.80315 18.72 8.75C18.4832 8.60157 18.2171 8.50603 17.94 8.46997C17.5133 8.40352 17.0817 8.37345 16.6499 8.38C16.2151 8.37019 15.7803 8.39691 15.35 8.45996V8.46997ZM17.92 1.76001C18.2663 2.19328 18.7124 2.53636 19.22 2.76001C19.8484 3.06498 20.5253 3.25782 21.22 3.32996L20.6499 4.55994C19.7997 4.4664 18.9751 4.21187 18.22 3.80994C17.5842 3.47046 17.039 2.98361 16.6301 2.39001C16.2645 1.84978 16.0694 1.21222 16.07 0.559937V0.179932H17.43V0.559937C17.4524 1.00098 17.6253 1.42107 17.92 1.75V1.76001Z" fill="#FCAF17"/>
<path d="M18.08 18.12H11.49V16.85H18.08V18.12ZM16.29 19.12C16.6053 19.2932 16.8824 19.5284 17.1045 19.8114C17.3267 20.0944 17.4893 20.4194 17.5827 20.7668C17.6761 21.1143 17.6983 21.477 17.648 21.8333C17.5977 22.1895 17.4759 22.532 17.29 22.84C17.0585 23.2616 16.7116 23.6085 16.29 23.84C15.832 24.0731 15.3237 24.1898 14.81 24.1799C14.2994 24.1898 13.7944 24.073 13.34 23.84C12.9194 23.6071 12.5728 23.2606 12.34 22.84C12.0979 22.4185 11.9704 21.941 11.9704 21.455C11.9704 20.9689 12.0979 20.4914 12.34 20.0699C12.5758 19.6516 12.9216 19.3057 13.34 19.0699C13.7944 18.8369 14.2994 18.7201 14.81 18.73C15.3246 18.7232 15.8329 18.8434 16.29 19.08V19.12ZM14.11 20.23C13.9035 20.3402 13.736 20.5112 13.6301 20.72C13.5117 20.9487 13.4499 21.2024 13.4499 21.46C13.4499 21.7175 13.5117 21.9712 13.6301 22.2C13.736 22.4061 13.9038 22.574 14.11 22.6799C14.3258 22.7934 14.5662 22.8518 14.81 22.85C15.0572 22.8544 15.3015 22.7958 15.5199 22.6799C15.7261 22.574 15.8941 22.4061 16 22.2C16.1116 21.9692 16.1695 21.7163 16.1695 21.46C16.1695 21.2037 16.1116 20.9507 16 20.72C15.8941 20.5112 15.7265 20.3402 15.5199 20.23C15.3015 20.1141 15.0572 20.0556 14.81 20.0599C14.5695 20.0457 14.3293 20.0903 14.11 20.1899V20.23ZM15.58 17.33H14.0101V15.33H15.58V17.33ZM20.3801 26.4099H18.83V15.1599H20.3801V26.4099ZM22.05 20.87H20.05V19.58H22.05V20.87Z" fill="#FCAF17"/>
<path d="M14.93 36.1901C14.7204 36.9117 14.3816 37.5894 13.93 38.1901C13.4866 38.7586 12.9095 39.2087 12.25 39.5001L11.3801 38.27C11.9549 38.0278 12.4652 37.6546 12.87 37.1801C13.2683 36.7161 13.5799 36.1844 13.79 35.6101C13.9871 35.0546 14.0886 34.4696 14.09 33.8801V33.2301H15.33V33.8801C15.3129 34.6658 15.178 35.4444 14.93 36.1901ZM17.93 33.4301H11.75V32.17H17.93V33.4301ZM15.6401 32.8301H14.07V30.5901H15.58L15.6401 32.8301ZM15.92 35.5001C16.115 36.0516 16.4137 36.5608 16.8 37.0001C17.2002 37.4608 17.6903 37.8351 18.24 38.1001L17.37 39.29C16.7351 38.9996 16.1795 38.5606 15.75 38.0101C15.3004 37.4378 14.9612 36.7866 14.75 36.0901C14.5221 35.3722 14.4073 34.6233 14.41 33.8701V33.2201H15.58V33.8701C15.5893 34.4272 15.6942 34.9785 15.8901 35.5001H15.92ZM20.43 41.5701H18.85V30.3301H20.43V41.5701ZM22.1 36.02H20.1V34.7001H22.1V36.02Z" fill="#FCAF17"/>
<path d="M28.28 0.179932H23.88V41.5999H28.28V0.179932Z" fill="#FCAF17"/>
<path d="M34.49 0.179932H30.09V41.5999H34.49V0.179932Z" fill="#FCAF17"/>
</g>
<defs>
<clipPath id="clip0_8102_721">
<rect width="34.49" height="41.6" fill="white"/>
</clipPath>
</defs>
</svg>
