<svg width="50" height="71" viewBox="0 0 50 71" fill="none" xmlns="http://www.w3.org/2000/svg">
<g clip-path="url(#clip0_8102_1077)">
<path d="M50 0H0V71H50V0Z" fill="#C44727"/>
<path d="M5.04067 0H2.28015V71H5.04067V0Z" fill="#FCAF17"/>
<path d="M47.7198 0H44.9593V71H47.7198V0Z" fill="#FCAF17"/>
<path d="M25.0176 66.139C16.9634 66.139 10.376 59.8128 10.2863 51.9734C10.2672 50.0853 10.6302 48.2126 11.3536 46.4669C12.0771 44.7212 13.1463 43.1381 14.4975 41.8119C17.2783 39.0857 21.0204 37.549 24.9247 37.53C28.8291 37.5109 32.5861 39.011 35.3936 41.7099C36.7375 43.0045 37.8097 44.5516 38.548 46.2615C39.2863 47.9714 39.676 49.81 39.6945 51.6708C39.7714 59.5452 33.2479 66.0371 25.1457 66.139H25.0176ZM25.0368 39.1298H24.8607C21.4022 39.1468 18.0903 40.5204 15.644 42.9523C14.4441 44.128 13.4948 45.5323 12.8526 47.0812C12.2105 48.63 11.8888 50.2917 11.9068 51.967C11.9772 58.9272 17.8441 64.5431 25.0144 64.5463H25.1393C32.3512 64.4571 38.1637 58.6915 38.0933 51.6963C38.0775 50.0465 37.7322 48.4163 37.0774 46.9004C36.4226 45.3845 35.4714 44.0132 34.2791 42.8663C31.8126 40.4597 28.4919 39.1172 25.0368 39.1298Z" fill="white"/>
<path d="M18.443 58.8348C17.8241 58.4575 17.3246 57.9143 17.0019 57.2676C16.6464 56.5543 16.4581 55.7701 16.451 54.9741H18.4526C18.4699 55.3515 18.5799 55.7189 18.7728 56.0444C18.9474 56.3502 19.2019 56.6034 19.5094 56.777C19.751 56.9162 20.0187 57.0049 20.296 57.0376C20.5732 57.0704 20.8543 57.0465 21.122 56.9675C21.3897 56.8885 21.6384 56.756 21.8528 56.5781C22.0673 56.4002 22.243 56.1806 22.3692 55.9329C22.5512 55.5625 22.6391 55.1535 22.6254 54.7415C22.6416 54.3072 22.5515 53.8754 22.3628 53.4833C22.1899 53.1306 21.9157 52.8369 21.575 52.6392C21.2015 52.4244 20.7765 52.3143 20.3452 52.3206H19.3525V50.1736H20.3324C20.6968 50.1828 21.0557 50.0854 21.3649 49.8934C21.674 49.7014 21.9197 49.4234 22.0714 49.0938C22.2412 48.7253 22.3254 48.3236 22.3179 47.9183C22.3256 47.5242 22.2515 47.1327 22.1002 46.7684C21.9735 46.4583 21.7601 46.1908 21.4853 45.9976C21.2103 45.8135 20.8847 45.7189 20.5534 45.7268C20.2151 45.7243 19.8826 45.8146 19.5927 45.988C19.2919 46.1667 19.0443 46.4217 18.8753 46.727C18.6881 47.074 18.5881 47.4609 18.5839 47.8546H16.6624C16.6714 47.0639 16.8597 46.2854 17.2132 45.5771C17.5278 44.945 18.008 44.4091 18.6031 44.0258C19.1831 43.6569 19.8586 43.4642 20.547 43.4715C21.2309 43.4591 21.902 43.6572 22.4685 44.0385C23.0292 44.4276 23.4721 44.9619 23.7494 45.5834C24.0627 46.2643 24.2149 47.0075 24.1946 47.7559C24.2098 48.2809 24.1295 48.8043 23.9576 49.3008C23.8108 49.737 23.5667 50.1345 23.2435 50.4635C22.9469 50.7594 22.5818 50.9781 22.1802 51.1006V51.2185C22.6735 51.3001 23.1326 51.5213 23.5028 51.8556C23.88 52.2076 24.1666 52.6446 24.3387 53.1297C24.54 53.6902 24.6324 54.2837 24.6109 54.8785C24.6332 55.6772 24.4549 56.4688 24.0921 57.1816C23.7571 57.8453 23.2467 58.4058 22.6158 58.803C21.9815 59.1967 21.2465 59.4002 20.4989 59.3891C19.7755 59.395 19.0644 59.2033 18.443 58.8348Z" fill="white"/>
<path d="M28.1592 58.4589C27.4447 57.6935 26.9436 56.7558 26.7053 55.7385C26.0306 52.9109 26.0306 49.9655 26.7053 47.1379C26.9475 46.1215 27.4494 45.1844 28.1624 44.4175C28.4599 44.1209 28.8133 43.8855 29.2024 43.725C29.5914 43.5644 30.0085 43.4817 30.4298 43.4817C30.851 43.4817 31.2681 43.5644 31.6572 43.725C32.0463 43.8855 32.3997 44.1209 32.6971 44.4175C33.4125 45.1852 33.9147 46.125 34.1542 47.1443C34.8182 49.9731 34.8182 52.9161 34.1542 55.7449C33.918 56.7611 33.4166 57.6972 32.7003 58.4589C32.0958 59.0547 31.2792 59.389 30.4282 59.389C29.5771 59.389 28.7605 59.0547 28.156 58.4589H28.1592ZM31.6211 56.4139C32.0157 55.8476 32.2793 55.2014 32.3929 54.5217C32.5893 53.506 32.6773 52.4724 32.6555 51.4382C32.6718 50.4029 32.5817 49.3686 32.3865 48.3516C32.2705 47.6672 32.0084 47.0155 31.6179 46.4403C31.4902 46.2417 31.3143 46.0782 31.1063 45.965C30.8984 45.8518 30.6652 45.7925 30.4282 45.7925C30.1911 45.7925 29.9579 45.8518 29.75 45.965C29.5421 46.0782 29.3662 46.2417 29.2385 46.4403C28.8455 47.0145 28.5822 47.6665 28.4667 48.3516C28.1016 50.3923 28.1016 52.481 28.4667 54.5217C28.5794 55.2011 28.8419 55.8473 29.2353 56.4139C29.3667 56.609 29.5445 56.7689 29.7528 56.8795C29.9611 56.9901 30.1936 57.0479 30.4298 57.0479C30.6659 57.0479 30.8984 56.9901 31.1068 56.8795C31.3151 56.7689 31.4928 56.609 31.6243 56.4139H31.6211Z" fill="white"/>
<path d="M12.3679 17.488C13.0084 17.488 13.4973 17.1131 13.8346 16.3635C14.1549 15.6531 14.3214 14.6625 14.3214 13.3851C14.3214 12.1078 14.1613 11.1107 13.8346 10.3972C13.508 9.68365 13.0052 9.26953 12.3679 9.26953C11.7306 9.26953 11.215 9.64224 10.8756 10.3972C10.5553 11.1044 10.3952 12.0982 10.3952 13.3851C10.3498 14.4001 10.5132 15.4136 10.8756 16.3635C11.215 17.111 11.7124 17.4858 12.3679 17.488ZM11.7274 11.305C11.8619 10.8591 12.0754 10.6361 12.3679 10.6361C12.6465 10.6361 12.8515 10.8591 12.986 11.305C13.1513 11.9855 13.2214 12.6855 13.1941 13.3851C13.2221 14.0805 13.152 14.7764 12.986 15.4525C12.8515 15.8984 12.6465 16.1214 12.3679 16.1214C12.0893 16.1214 11.8779 15.8984 11.7274 15.4525C11.5727 14.7746 11.5071 14.0797 11.532 13.3851C11.5076 12.6863 11.5732 11.9872 11.7274 11.305Z" fill="white"/>
<path d="M12.3679 17.488C13.0084 17.488 13.4973 17.1131 13.8346 16.3635C14.1549 15.6531 14.3214 14.6625 14.3214 13.3851C14.3214 12.1078 14.1613 11.1107 13.8346 10.3972C13.508 9.68365 13.0052 9.26953 12.3679 9.26953C11.7306 9.26953 11.215 9.64224 10.8756 10.3972C10.5553 11.1044 10.3952 12.0982 10.3952 13.3851C10.3498 14.4001 10.5132 15.4136 10.8756 16.3635C11.215 17.1131 11.7124 17.488 12.3679 17.488ZM11.7274 11.305C11.8619 10.8591 12.0754 10.6361 12.3679 10.6361C12.6465 10.6361 12.8515 10.8591 12.986 11.305C13.1513 11.9855 13.2214 12.6855 13.1941 13.3851C13.2221 14.0805 13.152 14.7764 12.986 15.4525C12.8515 15.8984 12.6465 16.1214 12.3679 16.1214C12.0893 16.1214 11.8779 15.8984 11.7274 15.4525C11.5727 14.7746 11.5071 14.0797 11.532 13.3851C11.5097 12.686 11.5775 11.987 11.7338 11.305H11.7274Z" fill="white"/>
<path d="M15.8298 19.2401H16.973V9.68379C16.9745 9.5769 16.9853 9.47033 17.0051 9.36525C17.0051 9.30473 17.0339 9.22828 17.0563 9.13272C17.0776 9.06936 17.0937 9.00434 17.1043 8.93837C17.1059 8.91668 17.1016 8.89498 17.0921 8.87542C17.0825 8.85585 17.068 8.83911 17.0499 8.82689C16.9839 8.7899 16.9108 8.76712 16.8353 8.76001C16.7297 8.76001 16.5823 8.76001 16.387 8.76001H15.8298V12.6048H14.616V13.9714H15.8298" fill="white"/>
<path d="M15.8298 19.2401H16.973V9.68379C16.9745 9.5769 16.9853 9.47033 17.0051 9.36525C17.0051 9.30473 17.0339 9.22828 17.0563 9.13272C17.0776 9.06936 17.0937 9.00434 17.1043 8.93837C17.1059 8.91668 17.1016 8.89498 17.0921 8.87542C17.0825 8.85585 17.068 8.83911 17.0499 8.82689C16.9839 8.7899 16.9108 8.76712 16.8353 8.76001C16.7297 8.76001 16.5823 8.76001 16.387 8.76001H15.8298V12.6048H14.616V13.9714H15.8298V19.2401Z" fill="white"/>
<path d="M28.3706 9.4544C28.364 9.37809 28.364 9.30137 28.3706 9.22506L28.409 9.04989C28.4507 8.90973 28.4507 8.82689 28.409 8.79822C28.246 8.73571 28.0704 8.71279 27.8966 8.73134H27.2113V16.4719H28.3546" fill="white"/>
<path d="M28.3706 9.4544C28.364 9.37809 28.364 9.30137 28.3706 9.22506L28.409 9.04989C28.4507 8.90973 28.4507 8.82689 28.409 8.79822C28.246 8.73571 28.0704 8.71279 27.8966 8.73134H27.2113V16.4719H28.3546L28.3706 9.4544Z" fill="white"/>
<path d="M24.5212 15.0481C25.1298 15.0094 25.7359 14.9393 26.337 14.8378L26.2281 13.5636C25.7542 13.6337 25.2674 13.6879 24.723 13.7261C24.2939 13.7548 23.8743 13.7707 23.4612 13.7707H23.141V12.6749H25.767V9.22827H21.9945V10.5024H24.6333V11.3976H21.9945V15.0799H22.8239C23.4644 15.0799 24.0248 15.0799 24.5084 15.0353" fill="white"/>
<path d="M24.5212 15.0481C25.1298 15.0094 25.7359 14.9393 26.337 14.8378L26.2281 13.5636C25.7542 13.6337 25.2674 13.6879 24.723 13.7261C24.2939 13.7548 23.8743 13.7707 23.4612 13.7707H23.141V12.6749H25.767V9.22827H21.9945V10.5024H24.6333V11.3976H21.9945V15.0799H22.8239C23.474 15.1054 24.0377 15.0895 24.5212 15.0481Z" fill="white"/>
<path d="M23.6309 16.1534C23.6309 16.1088 23.6501 16.0483 23.6694 15.9687C23.7078 15.8221 23.7046 15.7266 23.6694 15.682C23.5062 15.6116 23.3272 15.5852 23.1506 15.6055H22.4781V18.9566H28.4602V17.5964H23.6245V16.3828C23.6197 16.3096 23.6197 16.2362 23.6245 16.163" fill="white"/>
<path d="M23.6309 16.1534C23.6309 16.1088 23.6501 16.0483 23.6694 15.9687C23.7078 15.8221 23.7046 15.7266 23.6694 15.682C23.5062 15.6116 23.3272 15.5852 23.1506 15.6055H22.4781V18.9566H28.4602V17.5964H23.6245V16.3828C23.6214 16.3063 23.6236 16.2296 23.6309 16.1534Z" fill="white"/>
<path d="M35.1598 17.488C35.8003 17.488 36.2903 17.1131 36.6297 16.3635C37.2787 14.4271 37.2787 12.3336 36.6297 10.3972C36.2871 9.64224 35.8003 9.26953 35.1598 9.26953C34.5193 9.26953 34.0101 9.64224 33.6674 10.3972C33.0313 12.3356 33.0313 14.425 33.6674 16.3635C34.009 17.111 34.5065 17.4858 35.1598 17.488ZM34.5193 11.305C34.6538 10.8591 34.862 10.6361 35.1598 10.6361C35.4576 10.6361 35.6434 10.8591 35.7779 11.305C35.9416 11.9858 36.0116 12.6856 35.986 13.3851C36.0124 14.0805 35.9424 14.7761 35.7779 15.4525C35.6434 15.8984 35.4352 16.1214 35.1598 16.1214C34.8844 16.1214 34.6666 15.8984 34.5193 15.4525C34.3661 14.7744 34.3015 14.0796 34.3272 13.3851C34.302 12.6864 34.3666 11.9874 34.5193 11.305Z" fill="white"/>
<path d="M35.1598 17.488C35.8003 17.488 36.2903 17.1131 36.6297 16.3635C37.2787 14.4271 37.2787 12.3336 36.6297 10.3972C36.2871 9.64224 35.8003 9.26953 35.1598 9.26953C34.5193 9.26953 34.0101 9.64224 33.6674 10.3972C33.0313 12.3356 33.0313 14.425 33.6674 16.3635C34.009 17.1131 34.5065 17.488 35.1598 17.488ZM34.5193 11.305C34.6538 10.8591 34.862 10.6361 35.1598 10.6361C35.4576 10.6361 35.6434 10.8591 35.7779 11.305C35.9416 11.9858 36.0116 12.6856 35.986 13.3851C36.0124 14.0805 35.9424 14.7761 35.7779 15.4525C35.6434 15.8984 35.4352 16.1214 35.1598 16.1214C34.8844 16.1214 34.6666 15.8984 34.5193 15.4525C34.3661 14.7744 34.3015 14.0796 34.3272 13.3851C34.3041 12.6862 34.3708 11.9872 34.5257 11.305H34.5193Z" fill="white"/>
<path d="M39.7681 9.46395C39.7677 9.37638 39.7751 9.28897 39.7905 9.20276C39.7905 9.15816 39.8098 9.09761 39.829 9.01798C39.8482 8.93834 39.861 8.8173 39.829 8.78545C39.6644 8.73481 39.4914 8.71645 39.3198 8.73132H38.6313V19.2432H39.7778" fill="white"/>
<path d="M39.7681 9.46395C39.7677 9.37638 39.7751 9.28897 39.7905 9.20276C39.7905 9.15816 39.8098 9.09761 39.829 9.01798C39.8482 8.93834 39.861 8.8173 39.829 8.78545C39.6644 8.73481 39.4914 8.71645 39.3198 8.73132H38.6313V19.2432H39.7778L39.7681 9.46395Z" fill="white"/>
<path d="M14.0844 28.9046C14.0847 28.8127 14.0933 28.7211 14.11 28.6307C14.11 28.5734 14.1389 28.5001 14.1613 28.4109C14.1785 28.354 14.1882 28.2951 14.1901 28.2357H16.5439V23.4225C16.5408 23.3705 16.5408 23.3184 16.5439 23.2664C16.5518 23.2223 16.5625 23.1787 16.5759 23.1358C16.6015 23.0052 16.5919 22.9256 16.5535 22.8937C16.392 22.8256 16.2157 22.7993 16.0411 22.8173H15.4006V24.3176H11.8555V23.397C11.8524 23.3461 11.8524 23.295 11.8555 23.2441C11.8695 23.2015 11.8802 23.1578 11.8875 23.1135C11.9195 22.9956 11.9131 22.9192 11.8875 22.8842C11.7311 22.8221 11.5618 22.7992 11.3944 22.8173H10.7058V28.2325H12.9475V30.0163H9.89558V31.4179H17.3157V30.0195H14.0844M11.8427 25.6204H15.391V26.9456H11.8427V25.6204Z" fill="white"/>
<path d="M14.0844 28.9046C14.0847 28.8127 14.0933 28.7211 14.11 28.6307C14.11 28.5734 14.1389 28.5001 14.1613 28.4109C14.1785 28.354 14.1882 28.2951 14.1901 28.2357H16.5439V23.4225C16.5408 23.3705 16.5408 23.3184 16.5439 23.2664C16.5518 23.2223 16.5625 23.1787 16.5759 23.1358C16.6015 23.0052 16.5919 22.9256 16.5535 22.8937C16.3918 22.826 16.2157 22.7997 16.0411 22.8173H15.4006V24.3176H11.8555V23.397C11.8524 23.3461 11.8524 23.295 11.8555 23.2441C11.8699 23.2016 11.8806 23.1579 11.8875 23.1135C11.9195 22.9956 11.9131 22.9192 11.8875 22.8842C11.7311 22.8221 11.5618 22.7992 11.3944 22.8173H10.7058V28.2325H12.9475V30.0163H9.89558V31.4179H17.3157V30.0195H14.0844V28.9046ZM11.8427 25.6204H15.391V26.9456H11.8427V25.6204Z" fill="white"/>
<path d="M21.9144 29.3475C22.3961 29.3151 22.8619 29.1628 23.2691 28.9047C23.4988 28.7566 23.6858 28.5515 23.8116 28.3096C23.9373 28.0678 23.9976 27.7975 23.9864 27.5254C23.9938 27.248 23.9293 26.9734 23.7992 26.728C23.6691 26.4825 23.4777 26.2745 23.2435 26.1238C22.6833 25.7724 22.0284 25.6001 21.3668 25.6301C20.6907 25.5956 20.0201 25.7679 19.4454 26.1238C19.2138 26.2761 19.0254 26.485 18.8982 26.7303C18.7709 26.9757 18.709 27.2495 18.7184 27.5254C18.7089 27.799 18.7716 28.0703 18.9002 28.3123C19.0289 28.5543 19.2191 28.7585 19.4518 28.9047C19.8541 29.1551 20.3109 29.3059 20.784 29.3443V30.3381H17.6584V31.6505H25.0721V30.3381H21.9144M19.8584 27.5573C19.86 27.437 19.8957 27.3197 19.9614 27.2188C20.0272 27.1179 20.1202 27.0375 20.2299 26.9871C20.5787 26.8315 20.9595 26.7606 21.3412 26.78C21.7292 26.7592 22.1166 26.8302 22.4717 26.9871C22.5828 27.0382 22.6769 27.1201 22.7428 27.2228C22.8086 27.3256 22.8435 27.445 22.8432 27.5668C22.8391 27.6769 22.8014 27.7832 22.735 27.8714C22.6686 27.9596 22.5767 28.0256 22.4717 28.0605C22.1129 28.2035 21.7271 28.2666 21.3412 28.2453C20.9616 28.2654 20.5823 28.2023 20.2299 28.0605C20.1253 28.022 20.0343 27.9538 19.9683 27.8643C19.9023 27.7749 19.864 27.6681 19.8584 27.5573Z" fill="white"/>
<path d="M21.9144 29.3475C22.3961 29.3151 22.8619 29.1628 23.2691 28.9047C23.4988 28.7566 23.6858 28.5515 23.8116 28.3096C23.9373 28.0678 23.9976 27.7975 23.9864 27.5254C23.9938 27.248 23.9293 26.9734 23.7992 26.728C23.6691 26.4825 23.4777 26.2745 23.2435 26.1238C22.6833 25.7724 22.0284 25.6001 21.3668 25.6301C20.6907 25.5956 20.0201 25.7679 19.4454 26.1238C19.2138 26.2761 19.0254 26.485 18.8982 26.7303C18.7709 26.9757 18.709 27.2495 18.7184 27.5254C18.7089 27.799 18.7716 28.0703 18.9002 28.3123C19.0289 28.5543 19.2191 28.7585 19.4518 28.9047C19.8541 29.1551 20.3109 29.3059 20.784 29.3443V30.3381H17.6584V31.6505H25.0721V30.3381H21.9144V29.3475ZM19.8584 27.5477C19.86 27.4275 19.8957 27.3101 19.9614 27.2092C20.0272 27.1083 20.1202 27.028 20.2299 26.9775C20.5787 26.822 20.9595 26.751 21.3412 26.7705C21.7292 26.7497 22.1166 26.8206 22.4717 26.9775C22.5828 27.0287 22.6769 27.1105 22.7428 27.2132C22.8086 27.316 22.8435 27.4354 22.8432 27.5573C22.8391 27.6674 22.8014 27.7736 22.735 27.8618C22.6686 27.9501 22.5767 28.016 22.4717 28.051C22.1129 28.194 21.7271 28.257 21.3412 28.2358C20.9616 28.2558 20.5823 28.1927 20.2299 28.051C20.1259 28.012 20.0356 27.9435 19.9702 27.8541C19.9047 27.7647 19.867 27.6582 19.8616 27.5477H19.8584Z" fill="white"/>
<path d="M24.5789 24.155H18.1483V25.3368H24.5789V24.155Z" fill="white"/>
<path d="M24.5789 24.155H18.1483V25.3368H24.5789V24.155Z" fill="white"/>
<path d="M22.9136 22.4158H19.8232V23.5976H22.9136V22.4158Z" fill="white"/>
<path d="M22.9136 22.4158H19.8232V23.5976H22.9136V22.4158Z" fill="white"/>
<path d="M31.9766 24.757C32.0246 24.0945 32.047 23.3809 32.047 22.6228H26.1193V23.9893H30.7724C30.7724 24.448 30.75 24.945 30.702 25.4355C30.6603 25.8433 30.6059 26.2828 30.5418 26.7384H25.4179V28.1081H28.5339V32.6919H29.6708V28.1081H32.838V26.7384H31.762C31.8613 26.0726 31.9413 25.41 31.9861 24.757" fill="white"/>
<path d="M31.9766 24.757C32.0246 24.0945 32.047 23.3809 32.047 22.6228H26.1193V23.9893H30.7724C30.7724 24.448 30.75 24.945 30.702 25.4355C30.6603 25.8433 30.6059 26.2828 30.5418 26.7384H25.4179V28.1081H28.5339V32.6919H29.6708V28.1081H32.838V26.7384H31.762C31.8421 26.0726 31.9317 25.41 31.9766 24.757Z" fill="white"/>
<path d="M35.5057 27.7673C35.8142 27.7791 36.1206 27.7118 36.3955 27.5718C36.6703 27.4317 36.9042 27.2237 37.0749 26.9678C37.4042 26.4043 37.5777 25.764 37.5777 25.1122C37.5777 24.4604 37.4042 23.8202 37.0749 23.2567C36.8974 23.007 36.6623 22.8032 36.3892 22.6625C36.1162 22.5219 35.8132 22.4485 35.5057 22.4485C35.1982 22.4485 34.8952 22.5219 34.6221 22.6625C34.3491 22.8032 34.114 23.007 33.9365 23.2567C33.5799 23.8104 33.4042 24.4602 33.4337 25.117C33.4023 25.7741 33.5781 26.4245 33.9365 26.9773C34.1087 27.2311 34.3432 27.4369 34.6179 27.5751C34.8925 27.7134 35.1981 27.7796 35.5057 27.7673ZM34.8043 24.1646C34.8765 24.0452 34.9798 23.9476 35.1033 23.8819C35.2268 23.8163 35.3658 23.7852 35.5057 23.7919C35.6467 23.7858 35.7869 23.8171 35.9118 23.8826C36.0367 23.9481 36.1419 24.0454 36.2166 24.1646C36.3636 24.4619 36.44 24.7889 36.44 25.1202C36.44 25.4516 36.3636 25.7785 36.2166 26.0758C36.1424 26.1955 36.0373 26.2931 35.9123 26.3587C35.7872 26.4242 35.6468 26.4553 35.5057 26.4485C35.3658 26.4552 35.2268 26.4241 35.1033 26.3585C34.9798 26.2929 34.8765 26.1952 34.8043 26.0758C34.6383 25.7856 34.5604 25.4536 34.5802 25.1202C34.5617 24.7869 34.6395 24.4553 34.8043 24.1646Z" fill="white"/>
<path d="M35.5057 27.7673C35.8142 27.7791 36.1206 27.7118 36.3955 27.5718C36.6703 27.4317 36.9042 27.2237 37.0749 26.9678C37.4042 26.4043 37.5777 25.764 37.5777 25.1122C37.5777 24.4604 37.4042 23.8202 37.0749 23.2567C36.8974 23.007 36.6623 22.8032 36.3892 22.6625C36.1162 22.5219 35.8132 22.4485 35.5057 22.4485C35.1982 22.4485 34.8952 22.5219 34.6221 22.6625C34.3491 22.8032 34.114 23.007 33.9365 23.2567C33.5799 23.8104 33.4042 24.4602 33.4337 25.117C33.4023 25.7741 33.5781 26.4245 33.9365 26.9773C34.1087 27.2311 34.3432 27.4369 34.6179 27.5751C34.8925 27.7134 35.1981 27.7796 35.5057 27.7673ZM34.8043 24.1646C34.8765 24.0452 34.9798 23.9476 35.1033 23.8819C35.2268 23.8163 35.3658 23.7852 35.5057 23.7919C35.6467 23.7858 35.7869 23.8171 35.9118 23.8826C36.0367 23.9481 36.1419 24.0454 36.2166 24.1646C36.3636 24.4619 36.44 24.7889 36.44 25.1202C36.44 25.4516 36.3636 25.7785 36.2166 26.0758C36.1424 26.1955 36.0373 26.2931 35.9123 26.3587C35.7872 26.4242 35.6468 26.4553 35.5057 26.4485C35.3658 26.4552 35.2268 26.4241 35.1033 26.3585C34.9798 26.2929 34.8765 26.1952 34.8043 26.0758C34.6383 25.7856 34.5604 25.4536 34.5802 25.1202C34.5617 24.7869 34.6395 24.4553 34.8043 24.1646Z" fill="white"/>
<path d="M39.5472 22.1833H38.8619V23.3969H37.5809V24.7348H38.8619V25.6426H37.5809V26.9773H38.8619V28.14H40.0051V22.9605C40.0046 22.8803 40.0122 22.8003 40.0276 22.7216C40.0276 22.677 40.0531 22.6133 40.0724 22.5337C40.114 22.3871 40.114 22.2948 40.0724 22.2597C39.9074 22.1878 39.726 22.1613 39.5472 22.1833Z" fill="white"/>
<path d="M39.5472 22.1833H38.8619V23.3969H37.5809V24.7348H38.8619V25.6426H37.5809V26.9773H38.8619V28.14H40.0051V22.9605C40.0046 22.8803 40.0122 22.8003 40.0276 22.7216C40.0276 22.677 40.0531 22.6133 40.0724 22.5337C40.114 22.3871 40.114 22.2948 40.0724 22.2597C39.9074 22.1878 39.726 22.1613 39.5472 22.1833Z" fill="white"/>
<path d="M34.0229 30.1309H38.8618V32.692H40.0051V28.7739H34.0229" fill="white"/>
<path d="M34.0229 30.1309H38.8618V32.692H40.0051V28.7739H34.0229V30.1309Z" fill="white"/>
</g>
<defs>
<clipPath id="clip0_8102_1077">
<rect width="50" height="71" fill="white"/>
</clipPath>
</defs>
</svg>
