<svg width="52" height="42" viewBox="0 0 52 42" fill="none" xmlns="http://www.w3.org/2000/svg">
<g clip-path="url(#clip0_8102_707)">
<path d="M31.6217 8.76019C33.2888 8.76019 34.6402 6.83315 34.6402 4.45602C34.6402 2.0789 33.2888 0.151855 31.6217 0.151855C29.9547 0.151855 28.6032 2.0789 28.6032 4.45602C28.6032 6.83315 29.9547 8.76019 31.6217 8.76019Z" fill="#FCAF17" stroke="#231F20" stroke-width="0.41"/>
<path d="M37.5215 6.06912C38.6022 6.06912 39.4784 4.82221 39.4784 3.28407C39.4784 1.74593 38.6022 0.499023 37.5215 0.499023C36.4407 0.499023 35.5645 1.74593 35.5645 3.28407C35.5645 4.82221 36.4407 6.06912 37.5215 6.06912Z" fill="#FCAF17" stroke="#231F20" stroke-width="0.41"/>
<path d="M42.598 6.19217C43.6788 6.19217 44.5549 5.1072 44.5549 3.76881C44.5549 2.43043 43.6788 1.34546 42.598 1.34546C41.5172 1.34546 40.641 2.43043 40.641 3.76881C40.641 5.1072 41.5172 6.19217 42.598 6.19217Z" fill="#FCAF17" stroke="#231F20" stroke-width="0.41"/>
<path d="M46.7646 7.0821C47.7377 7.0821 48.5266 6.10724 48.5266 4.9047C48.5266 3.70215 47.7377 2.72729 46.7646 2.72729C45.7915 2.72729 45.0026 3.70215 45.0026 4.9047C45.0026 6.10724 45.7915 7.0821 46.7646 7.0821Z" fill="#FCAF17" stroke="#231F20" stroke-width="0.41"/>
<path d="M50.4186 9.1148C51.2122 9.1148 51.8556 8.31484 51.8556 7.32803C51.8556 6.34123 51.2122 5.54126 50.4186 5.54126C49.6249 5.54126 48.9815 6.34123 48.9815 7.32803C48.9815 8.31484 49.6249 9.1148 50.4186 9.1148Z" fill="#FCAF17" stroke="#231F20" stroke-width="0.41"/>
<path d="M50.7363 16.2546C50.7363 11.3356 46.2158 7.35693 40.6266 7.35693C35.0373 7.35693 30.5169 11.3356 30.5169 16.2546C30.5169 16.4789 30.5169 16.7031 30.5169 16.9274C30.5169 16.9274 30.5169 16.9925 30.5602 17.0937C30.6494 17.84 30.8413 18.5704 31.1306 19.2639C31.8889 22.4468 35.9401 22.8809 33.1093 35.2364C32.3006 38.7954 36.4671 41.8481 40.6049 41.8481C44.7426 41.8481 48.1005 38.8895 48.1005 35.2364C48.1005 35.2364 49.6459 24.5808 50.4691 18.121C50.6291 17.5112 50.7188 16.8849 50.7363 16.2546Z" fill="#FCAF17" stroke="#231F20" stroke-width="0.41"/>
<path d="M20.3783 8.76019C22.0453 8.76019 23.3967 6.83315 23.3967 4.45602C23.3967 2.0789 22.0453 0.151855 20.3783 0.151855C18.7112 0.151855 17.3598 2.0789 17.3598 4.45602C17.3598 6.83315 18.7112 8.76019 20.3783 8.76019Z" fill="#FCAF17" stroke="#231F20" stroke-width="0.41"/>
<path d="M14.4785 6.06912C15.5593 6.06912 16.4355 4.82221 16.4355 3.28407C16.4355 1.74593 15.5593 0.499023 14.4785 0.499023C13.3978 0.499023 12.5216 1.74593 12.5216 3.28407C12.5216 4.82221 13.3978 6.06912 14.4785 6.06912Z" fill="#FCAF17" stroke="#231F20" stroke-width="0.41"/>
<path d="M9.40925 6.19217C10.49 6.19217 11.3662 5.1072 11.3662 3.76881C11.3662 2.43043 10.49 1.34546 9.40925 1.34546C8.32845 1.34546 7.4523 2.43043 7.4523 3.76881C7.4523 5.1072 8.32845 6.19217 9.40925 6.19217Z" fill="#FCAF17" stroke="#231F20" stroke-width="0.41"/>
<path d="M5.24261 7.0821C6.21572 7.0821 7.00458 6.10724 7.00458 4.9047C7.00458 3.70215 6.21572 2.72729 5.24261 2.72729C4.26949 2.72729 3.48063 3.70215 3.48063 4.9047C3.48063 6.10724 4.26949 7.0821 5.24261 7.0821Z" fill="#FCAF17" stroke="#231F20" stroke-width="0.41"/>
<path d="M1.58867 9.1148C2.38231 9.1148 3.02569 8.31484 3.02569 7.32803C3.02569 6.34123 2.38231 5.54126 1.58867 5.54126C0.795023 5.54126 0.151646 6.34123 0.151646 7.32803C0.151646 8.31484 0.795023 9.1148 1.58867 9.1148Z" fill="#FCAF17" stroke="#231F20" stroke-width="0.41"/>
<path d="M1.27091 16.2546C1.27091 11.3356 5.7914 7.35693 11.3806 7.35693C16.9698 7.35693 21.4903 11.3356 21.4903 16.2546C21.4903 16.4789 21.4904 16.7031 21.4543 16.9274H21.4903C21.4903 16.9274 21.4904 16.9925 21.447 17.0937C21.3578 17.84 21.1658 18.5704 20.8765 19.2639C20.1544 22.4468 16.0672 22.8809 18.8979 35.2364C19.7067 38.7954 15.5401 41.8481 11.4023 41.8481C7.26455 41.8481 3.89945 38.8895 3.89945 35.2364C3.89945 35.2364 2.36131 24.5808 1.53809 18.121C1.37463 17.5118 1.28493 16.8852 1.27091 16.2546Z" fill="#FCAF17" stroke="#231F20" stroke-width="0.41"/>
</g>
<defs>
<clipPath id="clip0_8102_707">
<rect width="52" height="42" fill="white"/>
</clipPath>
</defs>
</svg>
