<svg width="71" height="71" viewBox="0 0 71 71" fill="none" xmlns="http://www.w3.org/2000/svg">
<g clip-path="url(#clip0_8102_879)">
<path d="M27.77 7.16003H25.26V9.67004H24.13V6.25H27.77V7.16003ZM27.01 8.98999C27.5077 8.96114 28.0024 8.89433 28.49 8.79004L28.59 9.69995C28.0925 9.80491 27.5877 9.87184 27.08 9.90002C26.55 9.90002 25.79 9.90002 24.81 9.90002H24.13V9H24.81C25.76 9 26.49 9 27.01 9V8.98999ZM29.06 10.73C29.4216 10.8268 29.7501 11.0205 30.01 11.29C30.1215 11.4053 30.2089 11.5416 30.2673 11.6909C30.3257 11.8403 30.3538 11.9997 30.35 12.16C30.354 12.3219 30.3261 12.4829 30.2677 12.6339C30.2094 12.7849 30.1218 12.9229 30.01 13.04C29.7534 13.3109 29.4288 13.5077 29.07 13.61C28.5957 13.7468 28.1035 13.8109 27.61 13.8C27.1133 13.8101 26.6178 13.746 26.14 13.61C25.7612 13.5139 25.4156 13.317 25.14 13.04C25.0282 12.9229 24.9406 12.7849 24.8823 12.6339C24.8239 12.4829 24.7959 12.3219 24.8 12.16C24.7962 11.9997 24.8243 11.8403 24.8827 11.6909C24.941 11.5416 25.0285 11.4053 25.14 11.29C25.4159 11.0155 25.7617 10.8218 26.14 10.73C26.6137 10.5895 27.106 10.5221 27.6 10.53C28.0941 10.521 28.5865 10.5884 29.06 10.73ZM26.72 11.51C26.5121 11.5444 26.3161 11.6303 26.15 11.76C26.0914 11.809 26.044 11.8702 26.0112 11.9392C25.9784 12.0083 25.9609 12.0836 25.96 12.16C25.9614 12.2388 25.98 12.3164 26.0146 12.3872C26.0491 12.458 26.0988 12.5203 26.16 12.5699C26.3234 12.6978 26.5157 12.7836 26.72 12.8199C27.3086 12.9264 27.9114 12.9264 28.5 12.8199C28.7029 12.7793 28.8942 12.6939 29.06 12.5699C29.1184 12.5186 29.1654 12.4556 29.1982 12.385C29.2309 12.3144 29.2485 12.2378 29.25 12.16C29.249 12.0836 29.2316 12.0083 29.1988 11.9392C29.166 11.8702 29.1186 11.809 29.06 11.76C28.8965 11.6322 28.7043 11.5463 28.5 11.51C28.2069 11.4528 27.9084 11.4292 27.61 11.4399C27.3116 11.4288 27.013 11.4523 26.72 11.51ZM30.28 10.39H29.14V5.69995H30.33L30.28 10.39ZM31.37 8.55005H29.95V7.63H31.33L31.37 8.55005Z" fill="#231F20"/>
<path d="M34.33 8.46997C34.1625 8.93767 33.8964 9.36394 33.55 9.71997C33.196 10.0836 32.7608 10.3578 32.28 10.52L31.69 9.62C32.1004 9.49784 32.477 9.28219 32.79 8.98999C33.0777 8.70864 33.2997 8.36716 33.44 7.98999C33.5784 7.63975 33.6497 7.26661 33.65 6.89001V6.10999H34.59V6.89001C34.5974 7.42791 34.5094 7.96282 34.33 8.46997ZM34.22 13.23H33.07V11.05H34.22V13.23ZM38.72 13.67H33.07V12.75H38.72V13.67ZM35.03 8C35.1673 8.34196 35.3831 8.64685 35.66 8.89001C35.9665 9.1633 36.3279 9.36785 36.72 9.48999L36.14 10.39C35.6687 10.24 35.2401 9.97943 34.89 9.63C34.5501 9.29574 34.2903 8.88885 34.13 8.43994C33.9555 7.96265 33.8675 7.45811 33.87 6.94995V6.17004H34.87V6.94995C34.853 7.30711 34.9074 7.66411 35.03 8ZM38.5 11.64H37.33V5.71997H38.47L38.5 11.64Z" fill="#231F20"/>
<path d="M41.41 11.22C41.95 11.22 42.51 11.22 43.12 11.15C43.73 11.08 44.28 11.06 44.82 10.99L44.9 11.8C44.3317 11.9128 43.7574 11.993 43.18 12.04C42.58 12.04 42.02 12.13 41.5 12.14C40.98 12.15 40.4 12.14 39.77 12.14L39.63 11.21L41.41 11.22ZM43.41 6.5C43.7362 6.65965 44.0128 6.90505 44.21 7.20996C44.4066 7.50634 44.511 7.85431 44.51 8.20996C44.5092 8.56535 44.405 8.91283 44.21 9.20996C44.0114 9.51119 43.735 9.75314 43.41 9.91003C43.0526 10.0813 42.6613 10.1702 42.265 10.1702C41.8687 10.1702 41.4774 10.0813 41.12 9.91003C40.7891 9.75822 40.5082 9.51537 40.31 9.20996C40.115 8.91283 40.0108 8.56535 40.01 8.20996C40.009 7.85431 40.1134 7.50634 40.31 7.20996C40.5076 6.90158 40.7884 6.65546 41.12 6.5C41.4774 6.32876 41.8687 6.23987 42.265 6.23987C42.6613 6.23987 43.0526 6.32876 43.41 6.5ZM41.68 7.33997C41.5162 7.42388 41.3788 7.55146 41.2828 7.7085C41.1868 7.86553 41.136 8.04593 41.136 8.22998C41.136 8.41403 41.1868 8.59456 41.2828 8.75159C41.3788 8.90862 41.5162 9.03608 41.68 9.12C41.8623 9.20181 42.0602 9.24276 42.26 9.23999C42.463 9.24294 42.6643 9.20201 42.85 9.12C43.0152 9.04573 43.1545 8.92389 43.25 8.77002C43.3534 8.60889 43.4083 8.42143 43.4083 8.22998C43.4083 8.03854 43.3534 7.85107 43.25 7.68994C43.1545 7.53607 43.0152 7.41423 42.85 7.33997C42.6643 7.25795 42.463 7.21703 42.26 7.21997C42.0468 7.21114 41.8345 7.25223 41.64 7.33997H41.68ZM46.44 13.83H45.33V5.69995H46.45L46.44 13.83Z" fill="#231F20"/>
<path d="M16.93 18.3899H12.43V17.4899H16.93V18.3899ZM15.72 18.8799C15.9955 18.9978 16.2314 19.1921 16.4 19.4398C16.5625 19.6843 16.6492 19.9713 16.6492 20.2649C16.6492 20.5584 16.5625 20.8454 16.4 21.0898C16.2289 21.3377 15.9939 21.5347 15.72 21.6599C15.4041 21.7958 15.0639 21.8658 14.72 21.8658C14.3761 21.8658 14.0359 21.7958 13.72 21.6599C13.4505 21.532 13.2194 21.3353 13.05 21.0898C12.8823 20.8497 12.7948 20.5627 12.8 20.2699C12.7947 19.9739 12.8822 19.6837 13.05 19.4398C13.2185 19.1921 13.4545 18.9978 13.73 18.8799C14.0421 18.732 14.3848 18.6601 14.73 18.6699C15.0717 18.6638 15.4102 18.7356 15.72 18.8799ZM15 24.1099H13.85V22.2899H15V24.1099ZM19.41 24.5999H13.85V23.6799H19.41V24.5999ZM14.29 19.5999C14.1732 19.6519 14.0729 19.7349 14 19.8398C13.9284 19.9574 13.8906 20.0923 13.8906 20.2299C13.8906 20.3674 13.9284 20.5024 14 20.6199C14.0699 20.7276 14.1711 20.8113 14.29 20.8599C14.428 20.9228 14.5784 20.9536 14.73 20.9498C14.8816 20.9536 15.0321 20.9228 15.17 20.8599C15.2916 20.8114 15.396 20.7279 15.47 20.6199C15.5415 20.5024 15.5794 20.3674 15.5794 20.2299C15.5794 20.0923 15.5415 19.9574 15.47 19.8398C15.3932 19.7345 15.2896 19.6516 15.17 19.5999C15.03 19.5447 14.8805 19.5175 14.73 19.5199C14.5908 19.5368 14.4555 19.5774 14.33 19.6399L14.29 19.5999ZM15.29 18.0099H14.15V16.5898H15.33L15.29 18.0099ZM18.51 19.5399H17V18.6199H18.51V19.5399ZM18.51 21.2499H17V20.3499H18.51V21.2499ZM19.22 22.7799H18.09V16.6099H19.22V22.7799Z" fill="#231F20"/>
<path d="M22.45 20.5698C22.3439 21.1136 22.1515 21.6369 21.88 22.1199C21.6375 22.5518 21.2945 22.9187 20.88 23.1898L20.18 22.3198C20.5808 22.1046 20.9238 21.7959 21.18 21.4199C21.4325 21.036 21.6122 20.6089 21.71 20.1599C21.8138 19.66 21.8641 19.1504 21.86 18.6399V17.8899H22.72V18.6399C22.6905 19.2902 22.6001 19.9363 22.45 20.5698ZM24.11 18.3799H20.4V17.4799H24.11V18.3799ZM23.03 19.9999C23.1363 20.4181 23.3157 20.8142 23.56 21.1699C23.8228 21.5194 24.1658 21.8006 24.56 21.9899L23.9 22.8599C23.4639 22.6232 23.0956 22.279 22.83 21.8599C22.543 21.4089 22.3366 20.9116 22.22 20.3899C22.0958 19.7981 22.0354 19.1946 22.04 18.5898V17.8398H22.91V18.5898C22.8909 19.063 22.9312 19.5367 23.03 19.9999ZM25.58 24.3298H24.51V16.7198H25.58V24.3298ZM26.64 20.6399H25.27V19.7198H26.64V20.6399ZM27.36 24.6998H26.27V16.5898H27.33L27.36 24.6998Z" fill="#231F20"/>
<path d="M35.56 21.49H28.17V20.58H35.56V21.49ZM31.84 18.4C31.5499 18.82 31.1621 19.1632 30.71 19.4C30.1608 19.6886 29.565 19.8781 28.95 19.96L28.54 19.0699C29.0577 19.0197 29.5623 18.8776 30.03 18.65C30.392 18.477 30.71 18.2239 30.96 17.91C31.1534 17.649 31.2616 17.3347 31.27 17.01V16.74H32.27V17.01C32.2689 17.5059 32.1191 17.9901 31.84 18.4ZM34.65 24.74H33.52V22.9399H28.99V22.0601H34.65V24.74ZM32.41 20.97H31.33V19.51H32.45L32.41 20.97ZM32.73 17.97C32.9806 18.2807 33.2986 18.5304 33.66 18.7C34.1341 18.9181 34.6409 19.0566 35.16 19.11L34.72 20C34.1078 19.9197 33.515 19.73 32.97 19.4399C32.5143 19.2083 32.1253 18.8641 31.84 18.4399C31.5804 18.0305 31.445 17.5547 31.45 17.0699V16.8H32.45V17.0699C32.4434 17.4017 32.5413 17.7271 32.73 18V17.97Z" fill="#231F20"/>
<path d="M43.45 23.8199H36.05V22.89H43.45V23.8199ZM42.58 18.11H38.05V20.67H36.92V17.21H42.58V18.11ZM42.64 21.17H36.92V20.26H42.64V21.17ZM40.29 23.17H39.18V20.66H40.33L40.29 23.17Z" fill="#231F20"/>
<path d="M44.74 19.1899C44.9757 18.4788 45.3125 17.8052 45.74 17.1899H47C46.7562 17.5539 46.5517 17.9428 46.39 18.35C46.1918 18.8428 46.0346 19.3513 45.9201 19.87C45.8032 20.3886 45.7428 20.9183 45.74 21.45C45.7428 21.9849 45.8032 22.518 45.9201 23.04C46.0346 23.5588 46.1918 24.0672 46.39 24.5601C46.5561 24.9684 46.7603 25.3601 47 25.73H45.74C45.3109 25.1157 44.974 24.4419 44.74 23.73C44.4959 22.9948 44.3743 22.2245 44.38 21.45C44.3796 20.6823 44.5011 19.9195 44.74 19.1899Z" fill="#231F20"/>
<path d="M54.87 21.4999H47.47V20.5999H54.87V21.4999ZM49.46 23.9099H48.33V22.1599H49.47L49.46 23.9099ZM54.1 24.5599H48.33V23.6399H54.11L54.1 24.5599ZM49.53 19.2999H48.39V16.9199H49.53V19.2999ZM54.06 19.7399H48.39V18.8499H54.06V19.7399Z" fill="#231F20"/>
<path d="M57.96 21.46C57.9557 22.2338 57.8344 23.0025 57.6 23.74C57.362 24.4502 57.0254 25.1234 56.6 25.74H55.33C55.5663 25.3697 55.7671 24.9779 55.93 24.5699C56.1328 24.0787 56.2901 23.57 56.4 23.05C56.5169 22.528 56.5772 21.9949 56.58 21.46C56.5772 20.9283 56.5168 20.3986 56.4 19.88C56.2901 19.36 56.1328 18.8512 55.93 18.36C55.7713 17.9533 55.5702 17.5645 55.33 17.2H56.58C57.0114 17.8129 57.3485 18.4871 57.58 19.2C57.8257 19.9284 57.954 20.6912 57.96 21.46Z" fill="#231F20"/>
<path d="M24.96 59.47H26.33V65.91H25.01L24.96 59.47ZM26.15 62.92H26.35L27.92 61.08H29.43L27.34 63.51H27.04L26.15 64.51V62.92ZM26.54 63.8L27.41 62.87L29.52 65.87H27.98L26.54 63.8Z" fill="#231F20"/>
<path d="M30.04 61.08H31.33V61.9301C31.4266 61.6594 31.6048 61.4253 31.84 61.2601C32.0895 61.0974 32.3822 61.0138 32.68 61.0201C32.8819 61.018 33.0824 61.0553 33.27 61.1301C33.4434 61.1999 33.6002 61.3055 33.73 61.44C33.8532 61.5812 33.9421 61.749 33.99 61.9301H34.04C34.1035 61.7477 34.2098 61.583 34.35 61.45C34.4963 61.3095 34.6699 61.2007 34.86 61.1301C35.0653 61.0564 35.2819 61.0192 35.5 61.0201C35.7786 61.0127 36.0544 61.0781 36.3 61.21C36.5295 61.3429 36.7141 61.5415 36.83 61.7801C36.9649 62.0569 37.0301 62.3624 37.02 62.6701V65.9101H35.7V62.9101C35.7078 62.8011 35.6933 62.6915 35.6571 62.5883C35.621 62.4851 35.5641 62.3905 35.49 62.3101C35.419 62.2401 35.3346 62.1854 35.2417 62.1493C35.1489 62.1131 35.0496 62.0964 34.95 62.1001C34.8002 62.094 34.6517 62.1285 34.52 62.2C34.4055 62.275 34.3125 62.3784 34.25 62.5001C34.1855 62.6411 34.1547 62.7951 34.16 62.95V65.95H32.88V62.95C32.8823 62.8082 32.8515 62.6679 32.79 62.5401C32.7276 62.4296 32.6381 62.3366 32.53 62.2701C32.4097 62.2075 32.2755 62.1766 32.14 62.1801C31.9991 62.1795 31.8607 62.2176 31.74 62.2901C31.6168 62.3651 31.5166 62.4722 31.45 62.6001C31.3761 62.7492 31.3385 62.9136 31.34 63.08V65.9801H30.02L30.04 61.08Z" fill="#231F20"/>
<path d="M38.76 66.8799H37.63L39.7 59.1699H40.84L38.76 66.8799Z" fill="#231F20"/>
<path d="M42.76 65.91H41.45V59.47H42.73V61.9301H42.78C42.8875 61.6569 43.0759 61.4231 43.32 61.26C43.5903 61.0942 43.9031 61.0108 44.22 61.02C44.5311 61.012 44.8386 61.088 45.11 61.24C45.3636 61.3853 45.5661 61.6053 45.69 61.87C45.8394 62.1813 45.9082 62.5252 45.89 62.87V65.95H44.58V63.1C44.5816 62.925 44.5476 62.7514 44.48 62.59C44.4158 62.4547 44.3108 62.3429 44.18 62.27C44.0375 62.1873 43.8748 62.1457 43.71 62.15C43.5415 62.1427 43.3744 62.1829 43.2277 62.266C43.0809 62.3491 42.9604 62.4718 42.88 62.62C42.7959 62.7873 42.7547 62.9729 42.76 63.16V65.91Z" fill="#231F20"/>
<path d="M5.84002 70.38C5.10287 70.3894 4.37129 70.2512 3.68829 69.9738C3.00529 69.6963 2.3846 69.2851 1.86285 68.7643C1.34109 68.2435 0.928779 67.6235 0.65008 66.941C0.371382 66.2585 0.231927 65.5272 0.239985 64.79" stroke="#231F20" stroke-width="0.49" stroke-linecap="round" stroke-linejoin="round"/>
<path d="M0.25 64.7901V5.83008" stroke="#231F20" stroke-width="0.49" stroke-linecap="round" stroke-linejoin="round"/>
<path d="M0.23996 5.83003C0.249532 4.36226 0.818143 2.95338 1.82999 1.89008C2.35578 1.36665 2.97983 0.952294 3.66629 0.670846C4.35275 0.389397 5.08808 0.246389 5.82999 0.250069" stroke="#231F20" stroke-width="0.49" stroke-linecap="round" stroke-linejoin="round"/>
<path d="M5.85001 0.23999H65" stroke="#231F20" stroke-width="0.49" stroke-linecap="round" stroke-linejoin="round"/>
<path d="M65 0.25C66.4801 0.25523 67.8985 0.844163 68.947 1.88892C69.9955 2.93367 70.5895 4.34984 70.6 5.82996" stroke="#231F20" stroke-width="0.49" stroke-linecap="round" stroke-linejoin="round"/>
<path d="M70.6 5.83008V64.7901" stroke="#231F20" stroke-width="0.49" stroke-linecap="round" stroke-linejoin="round"/>
<path d="M70.6 64.79C70.6039 65.524 70.4598 66.2511 70.1763 66.9281C69.8928 67.6051 69.4757 68.2179 68.95 68.73C68.4264 69.257 67.803 69.6745 67.1161 69.9578C66.4293 70.2411 65.6929 70.3846 64.95 70.38" stroke="#231F20" stroke-width="0.49" stroke-linecap="round" stroke-linejoin="round"/>
<path d="M65 70.3701H5.85001" stroke="#231F20" stroke-width="0.49" stroke-linecap="round" stroke-linejoin="round"/>
<path d="M5.84 68.26C5.38247 68.266 4.92836 68.1806 4.50424 68.0089C4.08012 67.8372 3.69448 67.5826 3.36996 67.26C3.03786 66.939 2.77239 66.5554 2.58878 66.1316C2.40516 65.7077 2.30701 65.2519 2.29996 64.79" stroke="#231F20" stroke-width="0.49" stroke-linecap="round" stroke-linejoin="round"/>
<path d="M2.29999 64.7901V5.83008" stroke="#231F20" stroke-width="0.49" stroke-linecap="round" stroke-linejoin="round"/>
<path d="M2.32999 5.83013C2.34642 4.89778 2.73109 4.00985 3.39999 3.36016C3.72451 3.03758 4.11009 2.78296 4.53421 2.61125C4.95833 2.43954 5.41244 2.35419 5.86996 2.36016" stroke="#231F20" stroke-width="0.49" stroke-linecap="round" stroke-linejoin="round"/>
<path d="M5.85001 2.36011H65" stroke="#231F20" stroke-width="0.49" stroke-linecap="round" stroke-linejoin="round"/>
<path d="M65 2.35991C65.4584 2.35181 65.9137 2.43595 66.3389 2.60734C66.7641 2.77874 67.1506 3.03388 67.4752 3.35759C67.7999 3.6813 68.0561 4.06703 68.2287 4.49174C68.4013 4.91646 68.4868 5.37147 68.48 5.82988" stroke="#231F20" stroke-width="0.49" stroke-linecap="round" stroke-linejoin="round"/>
<path d="M68.48 5.83008V64.7901" stroke="#231F20" stroke-width="0.49" stroke-linecap="round" stroke-linejoin="round"/>
<path d="M68.48 64.79C68.4868 65.2484 68.4013 65.7035 68.2287 66.1282C68.0561 66.5529 67.7999 66.9386 67.4752 67.2623C67.1506 67.586 66.7641 67.8412 66.3389 68.0126C65.9137 68.184 65.4584 68.2681 65 68.26" stroke="#231F20" stroke-width="0.49" stroke-linecap="round" stroke-linejoin="round"/>
<path d="M65 68.25H5.85001" stroke="#231F20" stroke-width="0.49" stroke-linecap="round" stroke-linejoin="round"/>
<path d="M10.84 57.2098C10.1033 57.2206 9.37198 57.0837 8.68902 56.8074C8.00607 56.531 7.38536 56.1207 6.86346 55.6007C6.34156 55.0807 5.92902 54.4614 5.6502 53.7794C5.37139 53.0975 5.2319 52.3666 5.23999 51.6299" stroke="#231F20" stroke-width="0.49" stroke-linecap="round" stroke-linejoin="round"/>
<path d="M5.25 51.6299V34.6699" stroke="#231F20" stroke-width="0.49" stroke-linecap="round" stroke-linejoin="round"/>
<path d="M5.23996 34.67C5.24953 33.2022 5.81814 31.7932 6.82999 30.7299C7.35578 30.2065 7.97983 29.7921 8.66629 29.5107C9.35275 29.2292 10.0881 29.0862 10.83 29.0899" stroke="#231F20" stroke-width="0.49" stroke-linecap="round" stroke-linejoin="round"/>
<path d="M10.85 29.0801H60" stroke="#231F20" stroke-width="0.49" stroke-linecap="round" stroke-linejoin="round"/>
<path d="M60 29.0898C61.4801 29.0951 62.8985 29.684 63.947 30.7288C64.9955 31.7735 65.5895 33.1898 65.6 34.6699" stroke="#231F20" stroke-width="0.49" stroke-linecap="round" stroke-linejoin="round"/>
<path d="M65.6 34.6699V51.6299" stroke="#231F20" stroke-width="0.49" stroke-linecap="round" stroke-linejoin="round"/>
<path d="M65.6 51.6299C65.6039 52.3638 65.4598 53.091 65.1763 53.7679C64.8928 54.4449 64.4757 55.0577 63.95 55.5698C63.4259 56.0955 62.8021 56.5114 62.1153 56.793C61.4285 57.0746 60.6923 57.2163 59.95 57.2098" stroke="#231F20" stroke-width="0.49" stroke-linecap="round" stroke-linejoin="round"/>
<path d="M60 57.21H10.85" stroke="#231F20" stroke-width="0.49" stroke-linecap="round" stroke-linejoin="round"/>
<path d="M10.84 55.0999C10.3825 55.1058 9.92836 55.0205 9.50424 54.8488C9.08012 54.677 8.69448 54.4224 8.36996 54.0999C7.70106 53.4502 7.31639 52.5622 7.29996 51.6299" stroke="#231F20" stroke-width="0.49" stroke-linecap="round" stroke-linejoin="round"/>
<path d="M7.29999 51.6299V34.6699" stroke="#231F20" stroke-width="0.49" stroke-linecap="round" stroke-linejoin="round"/>
<path d="M7.32999 34.6701C7.34642 33.7377 7.73109 32.8497 8.39999 32.2C8.72451 31.8774 9.11009 31.6229 9.53421 31.4512C9.95833 31.2795 10.4124 31.194 10.87 31.2" stroke="#231F20" stroke-width="0.49" stroke-linecap="round" stroke-linejoin="round"/>
<path d="M10.85 31.2H60" stroke="#231F20" stroke-width="0.49" stroke-linecap="round" stroke-linejoin="round"/>
<path d="M60 31.2C60.4584 31.1919 60.9137 31.2762 61.3389 31.4476C61.7641 31.6189 62.1506 31.874 62.4752 32.1977C62.7999 32.5214 63.0561 32.9071 63.2287 33.3318C63.4013 33.7565 63.4868 34.2117 63.48 34.6701" stroke="#231F20" stroke-width="0.49" stroke-linecap="round" stroke-linejoin="round"/>
<path d="M63.48 34.6699V51.6299" stroke="#231F20" stroke-width="0.49" stroke-linecap="round" stroke-linejoin="round"/>
<path d="M63.48 51.6299C63.4868 52.0883 63.4013 52.5434 63.2287 52.9681C63.0561 53.3929 62.7999 53.7785 62.4752 54.1022C62.1506 54.4259 61.7641 54.681 61.3389 54.8524C60.9137 55.0238 60.4584 55.1079 60 55.0999" stroke="#231F20" stroke-width="0.49" stroke-linecap="round" stroke-linejoin="round"/>
<path d="M60 55.0901H10.85" stroke="#231F20" stroke-width="0.49" stroke-linecap="round" stroke-linejoin="round"/>
<path d="M24.51 34.7H23.83L23.17 35.3499V41.7299L23.83 42.38H24.51L25.16 41.7299V35.3499L24.51 34.7Z" fill="#231F20"/>
<path d="M33.41 34.7H32.73L32.07 35.3499V41.7299L32.73 42.38H33.41L34.06 41.7299V35.3499L33.41 34.7Z" fill="#231F20"/>
<path d="M32.44 34.4501V33.7701L31.78 33.1201H25.41L24.76 33.7701V34.4501L25.41 35.1101H31.78L32.44 34.4501Z" fill="#231F20"/>
<path d="M32.44 43.4001V42.7201L31.78 42.0601H25.41L24.76 42.7201V43.4001L25.41 44.0501H31.78L32.44 43.4001Z" fill="#231F20"/>
<path d="M24.51 43.8201H23.83L23.17 44.4801V50.8501L23.83 51.5101H24.51L25.16 50.8501V44.4801L24.51 43.8201Z" fill="#231F20"/>
<path d="M33.41 43.8201H32.73L32.07 44.4801V50.8501L32.73 51.5101H33.41L34.06 50.8501V44.4801L33.41 43.8201Z" fill="#231F20"/>
<path d="M32.44 52.5199V51.8399L31.78 51.1899H25.41L24.76 51.8399V52.5199L25.41 53.1799H31.78L32.44 52.5199Z" fill="#231F20"/>
<path d="M38.12 34.7H37.44L36.78 35.3499V41.7299L37.44 42.38H38.12L38.77 41.7299V35.3499L38.12 34.7Z" fill="#231F20"/>
<path d="M47.02 34.7H46.34L45.69 35.3499V41.7299L46.34 42.38H47.02L47.67 41.7299V35.3499L47.02 34.7Z" fill="#231F20"/>
<path d="M46.05 34.4501V33.7701L45.39 33.1201H39.02L38.37 33.7701V34.4501L39.02 35.1101H45.39L46.05 34.4501Z" fill="#231F20"/>
<path d="M46.05 43.4001V42.7201L45.39 42.0601H39.02L38.37 42.7201V43.4001L39.02 44.0501H45.39L46.05 43.4001Z" fill="#231F20"/>
<path d="M38.12 43.8201H37.44L36.78 44.4801V50.8501L37.44 51.5101H38.12L38.77 50.8501V44.4801L38.12 43.8201Z" fill="#231F20"/>
<path d="M47.02 43.8201H46.34L45.69 44.4801V50.8501L46.34 51.5101H47.02L47.67 50.8501V44.4801L47.02 43.8201Z" fill="#231F20"/>
<path d="M46.05 52.5199V51.8399L45.39 51.1899H39.02L38.37 51.8399V52.5199L39.02 53.1799H45.39L46.05 52.5199Z" fill="#231F20"/>
</g>
<defs>
<clipPath id="clip0_8102_879">
<rect width="70.85" height="70.61" fill="white"/>
</clipPath>
</defs>
</svg>
