<svg width="71" height="71" viewBox="0 0 71 71" fill="none" xmlns="http://www.w3.org/2000/svg">
<g clip-path="url(#clip0_8102_821)">
<path d="M27.73 47.3401H25.22V49.8501H24.13V46.4302H27.73V47.3401ZM26.97 49.1702C27.4676 49.1405 27.9623 49.0736 28.45 48.9701L28.55 49.8801C28.0525 49.9851 27.5477 50.0519 27.04 50.0801C26.51 50.0801 25.75 50.1301 24.77 50.1301H24.09V49.2201H24.77C25.73 49.2201 26.49 49.2002 27.01 49.1702H26.97ZM29.02 50.9102C29.3829 51.0041 29.7121 51.1981 29.97 51.4701C30.1915 51.7053 30.3134 52.017 30.31 52.3401C30.3139 52.6662 30.1921 52.9813 29.97 53.2201C29.711 53.4929 29.3826 53.69 29.02 53.7902C28.5493 53.9276 28.0603 53.9917 27.57 53.9801C27.0733 53.9902 26.5778 53.9262 26.1 53.7902C25.7201 53.697 25.3737 53.4995 25.1 53.2201C24.9882 53.103 24.9007 52.965 24.8423 52.814C24.784 52.663 24.756 52.5019 24.76 52.3401C24.7562 52.1798 24.7843 52.0203 24.8427 51.871C24.9011 51.7216 24.9885 51.5853 25.1 51.4701C25.3716 51.1899 25.7192 50.9953 26.1 50.9102C26.5737 50.7697 27.066 50.7022 27.56 50.7101C28.0675 50.6968 28.5738 50.7644 29.06 50.9102H29.02ZM26.68 51.6901C26.4743 51.7259 26.2794 51.8081 26.11 51.9302C26.0511 51.9812 26.0037 52.0441 25.971 52.1147C25.9382 52.1854 25.9208 52.2622 25.92 52.3401C25.9215 52.4179 25.9391 52.4946 25.9718 52.5652C26.0045 52.6358 26.0516 52.6987 26.11 52.7501C26.2785 52.8758 26.4735 52.9613 26.68 53.0001C27.2686 53.1066 27.8714 53.1066 28.46 53.0001C28.6629 52.9595 28.8543 52.8741 29.02 52.7501C29.0784 52.6987 29.1255 52.6358 29.1582 52.5652C29.1909 52.4946 29.2085 52.4179 29.21 52.3401C29.2092 52.2622 29.1918 52.1854 29.1591 52.1147C29.1263 52.0441 29.0789 51.9812 29.02 51.9302C28.8534 51.8097 28.6621 51.7277 28.46 51.6901C28.1667 51.634 27.8686 51.6072 27.57 51.6101C27.2881 51.61 27.0068 51.6368 26.73 51.6901H26.68ZM30.24 50.5701H29.1V45.8701H30.24V50.5701ZM31.33 48.7301H29.91V47.8102H31.33V48.7301Z" fill="#231F20"/>
<path d="M34.33 48.6501C34.1625 49.1178 33.8965 49.5441 33.55 49.9001C33.1961 50.2637 32.7608 50.5379 32.28 50.7001L31.69 49.8002C32.0836 49.6859 32.4458 49.4833 32.7491 49.2078C33.0523 48.9322 33.2887 48.5909 33.44 48.2101C33.5796 47.8637 33.6508 47.4936 33.65 47.1201V46.3401H34.59V47.1201C34.5916 47.6412 34.5036 48.1588 34.33 48.6501ZM34.22 53.4102H33.07V51.2301H34.22V53.4102ZM38.72 53.8401H33.07V52.9302H38.73L38.72 53.8401ZM35.03 48.1702C35.1673 48.5121 35.3831 48.817 35.66 49.0602C35.9665 49.3335 36.3279 49.538 36.72 49.6602L36.14 50.5602C35.6687 50.4102 35.2401 50.1496 34.89 49.8002C34.5522 49.4642 34.2928 49.0578 34.13 48.6101C33.9556 48.1328 33.8676 47.6283 33.87 47.1201V46.3401H34.87V47.1201C34.8538 47.4772 34.9082 47.8341 35.03 48.1702ZM38.5 51.8102H37.36V45.8901H38.5V51.8102Z" fill="#231F20"/>
<path d="M41.41 51.4001C41.95 51.4001 42.51 51.4001 43.11 51.3301C43.71 51.2601 44.28 51.2402 44.82 51.1702L44.9 51.9801C44.3317 52.0929 43.7575 52.173 43.18 52.2201C42.58 52.2201 42.02 52.3101 41.5 52.3201C40.98 52.3301 40.4 52.3201 39.77 52.3201L39.63 51.4001H41.41ZM43.41 46.6802C43.7349 46.8371 44.0114 47.0789 44.21 47.3801C44.4039 47.6777 44.5081 48.0249 44.51 48.3801C44.5093 48.7355 44.405 49.083 44.21 49.3801C44.0114 49.6814 43.7349 49.9232 43.41 50.0801C43.0525 50.2561 42.6585 50.3452 42.26 50.3401C41.8618 50.343 41.4683 50.254 41.11 50.0801C40.7851 49.9232 40.5087 49.6814 40.31 49.3801C40.115 49.083 40.0108 48.7355 40.01 48.3801C40.012 48.0249 40.1161 47.6777 40.31 47.3801C40.5087 47.0789 40.7851 46.8371 41.11 46.6802C41.4683 46.5063 41.8618 46.4173 42.26 46.4202C42.645 46.4213 43.0246 46.5102 43.37 46.6802H43.41ZM41.68 47.5201C41.5162 47.6041 41.3787 47.7315 41.2827 47.8885C41.1868 48.0456 41.136 48.2261 41.136 48.4102C41.136 48.5942 41.1868 48.7746 41.2827 48.9316C41.3787 49.0887 41.5162 49.2163 41.68 49.3002C41.8623 49.382 42.0603 49.4229 42.26 49.4202C42.4631 49.4231 42.6643 49.3822 42.85 49.3002C43.0152 49.2259 43.1545 49.1039 43.25 48.9501C43.3534 48.7889 43.4084 48.6016 43.4084 48.4102C43.4084 48.2187 43.3534 48.0312 43.25 47.8701C43.1545 47.7162 43.0152 47.5944 42.85 47.5201C42.6643 47.4381 42.4631 47.3972 42.26 47.4001C42.0468 47.3913 41.8345 47.4324 41.64 47.5201H41.68ZM46.44 54.0001H45.31V45.8701H46.44V54.0001Z" fill="#231F20"/>
<path d="M16.93 58.5699H12.43V57.67H16.93V58.5699ZM15.72 59.05C15.9939 59.1753 16.2289 59.3722 16.4 59.62C16.5625 59.8644 16.6493 60.1514 16.6493 60.4449C16.6493 60.7385 16.5625 61.0256 16.4 61.27C16.2289 61.5179 15.9939 61.7148 15.72 61.84C15.4041 61.9759 15.0639 62.046 14.72 62.046C14.3761 62.046 14.0359 61.9759 13.72 61.84C13.4505 61.712 13.2195 61.5155 13.05 61.27C12.8824 61.0299 12.7949 60.7428 12.8 60.45C12.7948 60.154 12.8822 59.8638 13.05 59.62C13.2211 59.3722 13.4561 59.1753 13.73 59.05C14.0446 58.9107 14.386 58.8423 14.73 58.85C15.0738 58.8442 15.4149 58.9125 15.73 59.05H15.72ZM15 64.29H13.85V62.47H15V64.29ZM19.41 64.78H13.85V63.86H19.41V64.78ZM14.29 59.78C14.172 59.8345 14.069 59.9168 13.99 60.02C13.9198 60.1376 13.885 60.2731 13.89 60.41C13.8833 60.544 13.9183 60.6767 13.99 60.79C14.063 60.9013 14.1674 60.9883 14.29 61.04C14.428 61.103 14.5784 61.1338 14.73 61.13C14.8816 61.1338 15.0321 61.103 15.17 61.04C15.2943 60.9912 15.3995 60.9035 15.47 60.79C15.5447 60.6776 15.583 60.545 15.58 60.41C15.582 60.2721 15.5438 60.1366 15.47 60.02C15.3932 59.9147 15.2896 59.8318 15.17 59.78C15.03 59.7248 14.8805 59.6976 14.73 59.7C14.577 59.7112 14.4276 59.752 14.29 59.8199V59.78ZM15.29 58.1801H14.15V56.77H15.29V58.1801ZM18.51 59.72H17V58.8H18.51V59.72ZM18.51 61.4301H17V60.53H18.51V61.4301ZM19.22 62.96H18.09V56.79H19.22V62.96Z" fill="#231F20"/>
<path d="M22.45 60.75C22.3439 61.2938 22.1515 61.8171 21.88 62.3C21.6234 62.7411 21.2586 63.1093 20.82 63.37L20.13 62.5C20.5309 62.2847 20.8739 61.976 21.13 61.6C21.3777 61.2135 21.5569 60.7873 21.66 60.34C21.7638 59.8401 21.8141 59.3305 21.81 58.8199V58.0601H22.67V58.8199C22.6569 59.4687 22.5833 60.1149 22.45 60.75ZM24.11 58.5601H20.4V57.66H24.11V58.5601ZM23.03 60.22C23.1321 60.6396 23.3119 61.0365 23.56 61.39C23.8229 61.7395 24.1658 62.0207 24.56 62.21L23.9 63.08C23.4625 62.8415 23.0914 62.4978 22.82 62.08C22.5386 61.6309 22.3357 61.1372 22.22 60.62C22.0958 60.0282 22.0354 59.4247 22.04 58.8199V58.0601H22.91V58.8199C22.8917 59.2898 22.932 59.7601 23.03 60.22ZM25.58 64.54H24.51V56.9301H25.58V64.54ZM26.64 60.86H25.27V59.9399H26.64V60.86ZM27.36 64.92H26.27V56.8101H27.36V64.92Z" fill="#231F20"/>
<path d="M35.56 61.67H28.17V60.76H35.56V61.67ZM31.84 58.58C31.5547 59.0041 31.1657 59.3483 30.71 59.58C30.1633 59.8765 29.5667 60.0698 28.95 60.15L28.54 59.26C29.0577 59.2098 29.5623 59.0675 30.03 58.84C30.392 58.6669 30.71 58.4139 30.96 58.1C31.1534 57.839 31.2616 57.5247 31.27 57.2V57H32.27V57.27C32.2534 57.7386 32.1043 58.1927 31.84 58.58ZM34.65 64.92H33.52V63.12H28.98V62.24H34.65V64.92ZM32.41 61.15H31.29V59.6899H32.41V61.15ZM32.73 58.15C32.9771 58.4668 33.2958 58.7204 33.66 58.89C34.1336 59.1096 34.6406 59.2482 35.16 59.3L34.72 60.1899C34.1078 60.1097 33.515 59.9201 32.97 59.63C32.5143 59.3984 32.1253 59.0542 31.84 58.63C31.5796 58.2246 31.444 57.7518 31.45 57.27V57H32.45V57.27C32.4545 57.5784 32.5521 57.8781 32.73 58.13V58.15Z" fill="#231F20"/>
<path d="M43.45 64.0001H36.05V63.0701H43.45V64.0001ZM42.58 58.2902H38.05V60.8501H36.92V57.3901H42.58V58.2902ZM42.64 61.2902H36.92V60.3901H42.64V61.2902ZM40.29 63.2902H39.18V60.7701H40.29V63.2902Z" fill="#231F20"/>
<path d="M44.73 59.3701C44.9657 58.6589 45.3025 57.9854 45.73 57.3701H46.99C46.7462 57.7341 46.5418 58.123 46.3801 58.5302C46.1818 59.023 46.0246 59.5314 45.91 60.0502C45.6692 61.0897 45.6692 62.1705 45.91 63.2101C46.0215 63.7296 46.1788 64.2383 46.3801 64.7301C46.5419 65.1403 46.7464 65.5325 46.99 65.9001H45.73C45.2971 65.2881 44.9598 64.6137 44.73 63.9001C44.4858 63.1685 44.3642 62.4015 44.37 61.6301C44.3696 60.8625 44.4911 60.0996 44.73 59.3701Z" fill="#231F20"/>
<path d="M54.87 61.6702H47.47V60.7802H54.87V61.6702ZM49.46 64.0801H48.32V62.3401H49.46V64.0801ZM54.1 64.7401H48.32V63.8201H54.1V64.7401ZM49.53 59.4801H48.39V57.1001H49.53V59.4801ZM54.06 59.9202H48.39V59.0001H54.06V59.9202Z" fill="#231F20"/>
<path d="M57.96 61.6399C57.9565 62.4105 57.8351 63.1761 57.6 63.9099C57.3656 64.6216 57.0288 65.2954 56.6 65.9099H55.33C55.5701 65.5418 55.7712 65.1496 55.93 64.7399C56.1356 64.2496 56.293 63.7406 56.4 63.2198C56.6409 62.1803 56.6409 61.0995 56.4 60.0599C56.2901 59.54 56.1328 59.0312 55.93 58.5399C55.7714 58.1332 55.5702 57.7444 55.33 57.3799H56.58C57.0075 57.9951 57.3443 58.6687 57.58 59.3799C57.8257 60.1083 57.9539 60.8712 57.96 61.6399Z" fill="#231F20"/>
<path d="M5.84002 70.38C5.10287 70.3894 4.37129 70.2512 3.68829 69.9738C3.00529 69.6963 2.38467 69.2851 1.86291 68.7643C1.34115 68.2435 0.928779 67.6235 0.65008 66.941C0.371382 66.2585 0.231988 65.5272 0.240046 64.79" stroke="#231F20" stroke-width="0.49" stroke-linecap="round" stroke-linejoin="round"/>
<path d="M0.25 64.7901V5.83008" stroke="#231F20" stroke-width="0.49" stroke-linecap="round" stroke-linejoin="round"/>
<path d="M0.240021 5.83003C0.249593 4.36226 0.818143 2.95338 1.82999 1.89008C2.35578 1.36665 2.97989 0.952294 3.66635 0.670846C4.35281 0.389397 5.08808 0.246389 5.82999 0.250069" stroke="#231F20" stroke-width="0.49" stroke-linecap="round" stroke-linejoin="round"/>
<path d="M5.85001 0.23999H65" stroke="#231F20" stroke-width="0.49" stroke-linecap="round" stroke-linejoin="round"/>
<path d="M65 0.25C66.4802 0.25523 67.8985 0.844163 68.947 1.88892C69.9955 2.93367 70.5895 4.34984 70.6 5.82996" stroke="#231F20" stroke-width="0.49" stroke-linecap="round" stroke-linejoin="round"/>
<path d="M70.6 5.83008V64.7901" stroke="#231F20" stroke-width="0.49" stroke-linecap="round" stroke-linejoin="round"/>
<path d="M70.6 64.79C70.6039 65.524 70.4598 66.2511 70.1763 66.9281C69.8928 67.6051 69.4757 68.2179 68.95 68.73C68.4263 69.257 67.8029 69.6745 67.1161 69.9578C66.4293 70.2411 65.6929 70.3846 64.95 70.38" stroke="#231F20" stroke-width="0.49" stroke-linecap="round" stroke-linejoin="round"/>
<path d="M65 70.3701H5.85001" stroke="#231F20" stroke-width="0.49" stroke-linecap="round" stroke-linejoin="round"/>
<path d="M5.84 68.26C5.38247 68.266 4.92836 68.1806 4.50424 68.0089C4.08012 67.8372 3.69454 67.5826 3.37003 67.26C3.03792 66.939 2.77245 66.5554 2.58884 66.1316C2.40522 65.7077 2.30707 65.2519 2.30002 64.79" stroke="#231F20" stroke-width="0.49" stroke-linecap="round" stroke-linejoin="round"/>
<path d="M2.29999 64.7901V5.83008" stroke="#231F20" stroke-width="0.49" stroke-linecap="round" stroke-linejoin="round"/>
<path d="M2.30002 5.83013C2.31645 4.89778 2.70112 4.00985 3.37003 3.36016C3.69454 3.03758 4.08012 2.78296 4.50424 2.61125C4.92836 2.43954 5.38247 2.35419 5.84 2.36016" stroke="#231F20" stroke-width="0.49" stroke-linecap="round" stroke-linejoin="round"/>
<path d="M5.85001 2.36011H65" stroke="#231F20" stroke-width="0.49" stroke-linecap="round" stroke-linejoin="round"/>
<path d="M65 2.35991C65.4584 2.35181 65.9137 2.43595 66.339 2.60734C66.7642 2.77874 67.1505 3.03388 67.4752 3.35759C67.7998 3.6813 68.0561 4.06703 68.2287 4.49174C68.4013 4.91646 68.4868 5.37147 68.48 5.82988" stroke="#231F20" stroke-width="0.49" stroke-linecap="round" stroke-linejoin="round"/>
<path d="M68.48 5.83008V64.7901" stroke="#231F20" stroke-width="0.49" stroke-linecap="round" stroke-linejoin="round"/>
<path d="M68.48 64.79C68.4868 65.2484 68.4013 65.7035 68.2287 66.1282C68.0561 66.5529 67.7998 66.9386 67.4752 67.2623C67.1505 67.586 66.7642 67.8412 66.339 68.0126C65.9137 68.184 65.4584 68.2681 65 68.26" stroke="#231F20" stroke-width="0.49" stroke-linecap="round" stroke-linejoin="round"/>
<path d="M65 68.25H5.85001" stroke="#231F20" stroke-width="0.49" stroke-linecap="round" stroke-linejoin="round"/>
<path d="M10.84 41.9999C10.1033 42.0106 9.37198 41.8738 8.68902 41.5974C8.00607 41.321 7.38536 40.9107 6.86346 40.3906C6.34156 39.8706 5.92908 39.2514 5.65027 38.5695C5.37145 37.8875 5.23196 37.1566 5.24005 36.4199" stroke="#231F20" stroke-width="0.49" stroke-linecap="round" stroke-linejoin="round"/>
<path d="M5.25 36.3999V11.4399" stroke="#231F20" stroke-width="0.49" stroke-linecap="round" stroke-linejoin="round"/>
<path d="M5.24002 11.4399C5.24757 9.97173 5.81641 8.56212 6.82999 7.49995C7.35578 6.97651 7.97989 6.56216 8.66635 6.28071C9.35281 5.99926 10.0881 5.85625 10.83 5.85993" stroke="#231F20" stroke-width="0.49" stroke-linecap="round" stroke-linejoin="round"/>
<path d="M10.85 5.8501H60" stroke="#231F20" stroke-width="0.49" stroke-linecap="round" stroke-linejoin="round"/>
<path d="M60 5.85986C61.4802 5.86509 62.8985 6.45403 63.947 7.49878C64.9955 8.54353 65.5895 9.9597 65.6 11.4398" stroke="#231F20" stroke-width="0.49" stroke-linecap="round" stroke-linejoin="round"/>
<path d="M65.6 11.4299V36.3899" stroke="#231F20" stroke-width="0.49" stroke-linecap="round" stroke-linejoin="round"/>
<path d="M65.6 36.3999C65.6039 37.1338 65.4598 37.861 65.1763 38.538C64.8928 39.2149 64.4757 39.8277 63.95 40.3398C63.4259 40.8655 62.8021 41.2814 62.1153 41.563C61.4284 41.8446 60.6923 41.9863 59.95 41.9799" stroke="#231F20" stroke-width="0.49" stroke-linecap="round" stroke-linejoin="round"/>
<path d="M60 41.98H10.85" stroke="#231F20" stroke-width="0.49" stroke-linecap="round" stroke-linejoin="round"/>
<path d="M10.84 39.8699C10.3825 39.8758 9.92836 39.7905 9.50424 39.6188C9.08012 39.4471 8.69454 39.1925 8.37003 38.8699C7.70112 38.2202 7.31645 37.3322 7.30002 36.3999" stroke="#231F20" stroke-width="0.49" stroke-linecap="round" stroke-linejoin="round"/>
<path d="M7.29999 36.3999V11.4399" stroke="#231F20" stroke-width="0.49" stroke-linecap="round" stroke-linejoin="round"/>
<path d="M7.30002 11.44C7.31645 10.5076 7.70112 9.61971 8.37003 8.97002C8.69454 8.64744 9.08012 8.39283 9.50424 8.22112C9.92836 8.04941 10.3825 7.96406 10.84 7.97002" stroke="#231F20" stroke-width="0.49" stroke-linecap="round" stroke-linejoin="round"/>
<path d="M10.85 7.95996H60" stroke="#231F20" stroke-width="0.49" stroke-linecap="round" stroke-linejoin="round"/>
<path d="M60 8.00004C60.4584 7.99195 60.9137 8.07609 61.339 8.24748C61.7642 8.41887 62.1505 8.67402 62.4752 8.99773C62.7998 9.32144 63.0561 9.70716 63.2287 10.1319C63.4013 10.5566 63.4868 11.0116 63.48 11.47" stroke="#231F20" stroke-width="0.49" stroke-linecap="round" stroke-linejoin="round"/>
<path d="M63.48 11.4299V36.3899" stroke="#231F20" stroke-width="0.49" stroke-linecap="round" stroke-linejoin="round"/>
<path d="M63.48 36.3999C63.4868 36.8583 63.4013 37.3133 63.2287 37.738C63.0561 38.1628 62.7998 38.5485 62.4752 38.8722C62.1505 39.1959 61.7642 39.451 61.339 39.6224C60.9137 39.7938 60.4584 39.878 60 39.8699" stroke="#231F20" stroke-width="0.49" stroke-linecap="round" stroke-linejoin="round"/>
<path d="M60 39.8601H10.85" stroke="#231F20" stroke-width="0.49" stroke-linecap="round" stroke-linejoin="round"/>
<path d="M20.9 12.6699H19.99L19.12 13.5399V22.0299L19.99 22.8999H20.9L21.77 22.0299V13.5399L20.9 12.6699Z" fill="#231F20"/>
<path d="M32.74 12.6699H31.84L30.97 13.5399V22.0299L31.84 22.8999H32.74L33.61 22.0299V13.5399L32.74 12.6699Z" fill="#231F20"/>
<path d="M31.45 12.3501V11.4401L30.58 10.5701H22.09L21.23 11.4401V12.3501L22.09 13.2101H30.58L31.45 12.3501Z" fill="#231F20"/>
<path d="M31.45 24.25V23.34L30.58 22.47H22.09L21.23 23.34V24.25L22.09 25.12H30.58L31.45 24.25Z" fill="#231F20"/>
<path d="M20.9 24.8201H19.99L19.12 25.6801V34.1701L19.99 35.0401H20.9L21.77 34.1701V25.6801L20.9 24.8201Z" fill="#231F20"/>
<path d="M32.74 24.8201H31.84L30.97 25.6801V34.1701L31.84 35.0401H32.74L33.61 34.1701V25.6801L32.74 24.8201Z" fill="#231F20"/>
<path d="M31.45 36.3901V35.4801L30.58 34.6201H22.09L21.23 35.4801V36.3901L22.09 37.2601H30.58L31.45 36.3901Z" fill="#231F20"/>
<path d="M39.01 12.6699H38.1L37.23 13.5399V22.0299L38.1 22.8999H39.01L39.88 22.0299V13.5399L39.01 12.6699Z" fill="#231F20"/>
<path d="M50.86 12.6699H49.95L49.08 13.5399V22.0299L49.95 22.8999H50.86L51.73 22.0299V13.5399L50.86 12.6699Z" fill="#231F20"/>
<path d="M49.56 12.3501V11.4401L48.69 10.5701H40.21L39.34 11.4401V12.3501L40.21 13.2101H48.69L49.56 12.3501Z" fill="#231F20"/>
<path d="M49.56 24.25V23.34L48.69 22.47H40.21L39.34 23.34V24.25L40.21 25.12H48.69L49.56 24.25Z" fill="#231F20"/>
<path d="M39.01 24.8201H38.1L37.23 25.6801V34.1701L38.1 35.0401H39.01L39.88 34.1701V25.6801L39.01 24.8201Z" fill="#231F20"/>
<path d="M50.86 24.8201H49.95L49.08 25.6801V34.1701L49.95 35.0401H50.86L51.73 34.1701V25.6801L50.86 24.8201Z" fill="#231F20"/>
<path d="M49.56 36.3901V35.4801L48.69 34.6201H40.21L39.34 35.4801V36.3901L40.21 37.2601H48.69L49.56 36.3901Z" fill="#231F20"/>
</g>
<defs>
<clipPath id="clip0_8102_821">
<rect width="70.85" height="70.61" fill="white"/>
</clipPath>
</defs>
</svg>
