<svg width="71" height="71" viewBox="0 0 71 71" fill="none" xmlns="http://www.w3.org/2000/svg">
<g clip-path="url(#clip0_8102_763)">
<path d="M27.78 7.16003H25.23V9.67004H24.11V6.25H27.75L27.78 7.16003ZM27.01 8.98999C27.511 8.96111 28.0091 8.8943 28.5 8.79004L28.6 9.69995C28.1025 9.80491 27.5977 9.87184 27.09 9.90002C26.55 9.90002 25.8 9.90002 24.81 9.90002H24.14V9H24.81C25.76 9 26.5 9 27.01 9V8.98999ZM29.07 10.73C29.4496 10.8183 29.7964 11.0125 30.07 11.29C30.2888 11.5262 30.4071 11.8382 30.4 12.16C30.4066 12.4848 30.2885 12.7997 30.07 13.04C29.7973 13.3208 29.4505 13.5183 29.07 13.61C28.5992 13.7469 28.1102 13.811 27.62 13.8C27.1233 13.8101 26.6279 13.746 26.15 13.61C25.7691 13.5194 25.4221 13.3216 25.15 13.04C25.0382 12.9229 24.9506 12.7849 24.8923 12.6339C24.834 12.4829 24.806 12.3219 24.81 12.16C24.8062 11.9997 24.8343 11.8403 24.8927 11.6909C24.951 11.5416 25.0385 11.4053 25.15 11.29C25.4216 11.0098 25.7692 10.8151 26.15 10.73C26.6274 10.5906 27.1228 10.5232 27.62 10.53C28.1108 10.522 28.5998 10.5894 29.07 10.73ZM26.72 11.51C26.5151 11.5443 26.3223 11.6304 26.16 11.76C26.0997 11.8076 26.0513 11.8685 26.0183 11.9379C25.9854 12.0072 25.9688 12.0832 25.97 12.16C25.9695 12.2382 25.9863 12.3154 26.0191 12.3862C26.052 12.4571 26.1001 12.5198 26.16 12.5699C26.3285 12.6956 26.5235 12.7811 26.73 12.8199C27.0225 12.8814 27.3212 12.9084 27.62 12.9C27.9188 12.9079 28.2174 12.881 28.51 12.8199C28.7107 12.7817 28.8992 12.696 29.06 12.5699C29.1212 12.5203 29.1709 12.458 29.2054 12.3872C29.24 12.3164 29.2586 12.2388 29.26 12.16C29.2593 12.0825 29.2409 12.0062 29.2062 11.9369C29.1716 11.8676 29.1215 11.8071 29.06 11.76C28.9017 11.63 28.7121 11.5438 28.51 11.51C28.217 11.4528 27.9184 11.4292 27.62 11.4399C27.3183 11.4292 27.0164 11.4528 26.72 11.51ZM30.29 10.39H29.14V5.69995H30.29V10.39ZM31.37 8.55005H29.96V7.63H31.37V8.55005Z" fill="#231F20"/>
<path d="M34.34 8.46997C34.1725 8.93767 33.9065 9.36394 33.56 9.71997C33.2042 10.0812 32.7695 10.3551 32.29 10.52L31.7 9.62C32.1095 9.49555 32.4855 9.28018 32.8 8.98999C33.0877 8.70864 33.3097 8.36716 33.45 7.98999C33.5884 7.63975 33.6597 7.26661 33.66 6.89001V6.10999H34.6V6.89001C34.6074 7.42791 34.5194 7.96282 34.34 8.46997ZM34.23 13.23H33.08V11.05H34.23V13.23ZM38.73 13.67H33.08V12.75H38.73V13.67ZM35.04 7.98999C35.177 8.32958 35.3889 8.63384 35.66 8.88C35.9715 9.15157 36.3358 9.35582 36.73 9.47998L36.15 10.38C35.6787 10.23 35.2501 9.96942 34.9 9.62C34.5602 9.28573 34.3003 8.87897 34.14 8.43005C33.9656 7.95276 33.8775 7.4481 33.88 6.93994V6.16003H34.88V6.93994C34.8617 7.30043 34.9161 7.66098 35.04 8V7.98999ZM38.51 11.63H37.37V5.70996H38.51V11.63Z" fill="#231F20"/>
<path d="M41.42 11.22C41.95 11.22 42.52 11.22 43.12 11.15C43.72 11.08 44.29 11.06 44.82 10.99L44.9 11.8C44.3351 11.9128 43.7641 11.9929 43.19 12.04C42.59 12.04 42.03 12.13 41.51 12.14C40.99 12.15 40.41 12.14 39.77 12.14L39.64 11.21L41.42 11.22ZM43.42 6.5C43.7462 6.65965 44.0227 6.90505 44.22 7.20996C44.4136 7.5072 44.5146 7.85526 44.51 8.20996C44.5128 8.56442 44.412 8.91198 44.22 9.20996C44.0214 9.51119 43.7449 9.75314 43.42 9.91003C43.0641 10.0906 42.669 10.1799 42.27 10.17C41.8713 10.1779 41.4766 10.0886 41.12 9.91003C40.7914 9.75464 40.5114 9.51256 40.31 9.20996C40.1221 8.91013 40.0217 8.56379 40.02 8.20996C40.0201 7.8559 40.1206 7.50912 40.31 7.20996C40.5126 6.90596 40.7921 6.66104 41.12 6.5C41.4783 6.32607 41.8718 6.23709 42.27 6.23999C42.6549 6.24212 43.0343 6.331 43.38 6.5H43.42ZM41.69 7.33997C41.5275 7.41841 41.3893 7.53933 41.29 7.68994C41.1981 7.85507 41.1498 8.04098 41.1498 8.22998C41.1498 8.41898 41.1981 8.60489 41.29 8.77002C41.3893 8.92063 41.5275 9.04155 41.69 9.12C41.872 9.20276 42.0702 9.24375 42.27 9.23999C42.473 9.24294 42.6743 9.20201 42.86 9.12C43.0225 9.04155 43.1607 8.92063 43.26 8.77002C43.352 8.60489 43.4002 8.41898 43.4002 8.22998C43.4002 8.04098 43.352 7.85507 43.26 7.68994C43.1607 7.53933 43.0225 7.41841 42.86 7.33997C42.6743 7.25795 42.473 7.21703 42.27 7.21997C42.0567 7.21001 41.8442 7.25114 41.65 7.33997H41.69ZM46.45 13.83H45.32V5.69995H46.45V13.83Z" fill="#231F20"/>
<path d="M16.94 18.3899H12.44V17.4899H16.94V18.3899ZM15.73 18.8799C16.0055 18.9978 16.2414 19.1921 16.41 19.4398C16.5665 19.6865 16.6496 19.9727 16.6496 20.2649C16.6496 20.5571 16.5665 20.8431 16.41 21.0898C16.2389 21.3377 16.0039 21.5347 15.73 21.6599C15.4142 21.7954 15.0736 21.8635 14.73 21.8599C14.386 21.8672 14.0447 21.799 13.73 21.6599C13.4589 21.5345 13.2272 21.3373 13.06 21.0898C12.8923 20.8497 12.8048 20.5627 12.81 20.2699C12.8048 19.9739 12.8922 19.6837 13.06 19.4398C13.2271 19.1946 13.4591 19.0008 13.73 18.8799C14.0427 18.7338 14.3849 18.6619 14.73 18.6699C15.0748 18.6644 15.4165 18.7361 15.73 18.8799ZM15 24.1099H13.85V22.2899H15V24.1099ZM19.42 24.5999H13.85V23.6799H19.42V24.5999ZM14.3 19.5999C14.1804 19.6516 14.0768 19.7345 14 19.8398C13.9343 19.9593 13.8999 20.0935 13.8999 20.2299C13.8999 20.3662 13.9343 20.5004 14 20.6199C14.074 20.7279 14.1784 20.8114 14.3 20.8599C14.4379 20.9228 14.5884 20.9536 14.74 20.9498C14.8916 20.9536 15.0421 20.9228 15.18 20.8599C15.2682 20.8169 15.3465 20.7561 15.41 20.6814C15.4736 20.6067 15.5209 20.5196 15.5491 20.4257C15.5773 20.3317 15.5857 20.2329 15.5738 20.1355C15.5619 20.0381 15.53 19.9443 15.48 19.8599C15.401 19.7567 15.298 19.6743 15.18 19.6199C14.8964 19.5132 14.5836 19.5132 14.3 19.6199V19.5999ZM15.3 18.0099H14.23V16.5898H15.36L15.3 18.0099ZM18.53 19.5399H17.01V18.6199H18.53V19.5399ZM18.53 21.2499H17.01V20.3499H18.53V21.2499ZM19.24 22.7799H18.11V16.6099H19.23L19.24 22.7799Z" fill="#231F20"/>
<path d="M22.46 20.5698C22.3552 21.1154 22.1591 21.6395 21.88 22.1199C21.6433 22.556 21.2991 22.9242 20.88 23.1898L20.18 22.3198C20.5772 22.0994 20.9191 21.7918 21.18 21.4199C21.4293 21.0354 21.6055 20.6083 21.7 20.1599C21.8123 19.6612 21.866 19.1511 21.86 18.6399V17.8899H22.72V18.6399C22.6938 19.2899 22.6067 19.936 22.46 20.5698ZM24.12 18.3799H20.41V17.4799H24.12V18.3799ZM23.04 20.0399C23.1421 20.4596 23.3219 20.8563 23.57 21.2098C23.8277 21.5642 24.172 21.8467 24.57 22.0299L23.91 22.8999C23.4725 22.6614 23.1014 22.3177 22.83 21.8999C22.5461 21.4485 22.3431 20.9511 22.23 20.4299C22.1058 19.8381 22.0454 19.2346 22.05 18.6299V17.8799H22.91V18.6299C22.8974 19.0901 22.941 19.5502 23.04 19.9999V20.0399ZM25.59 24.3699H24.52V16.7599H25.59V24.3699ZM26.65 20.6799H25.28V19.7599H26.65V20.6799ZM27.37 24.7399H26.28V16.6299H27.37V24.7399Z" fill="#231F20"/>
<path d="M35.56 21.49H28.23V20.58H35.61L35.56 21.49ZM31.85 18.4C31.5587 18.8226 31.1669 19.1662 30.71 19.4C30.165 19.6901 29.5722 19.8797 28.96 19.96L28.55 19.0699C29.0675 19.0185 29.5718 18.8764 30.04 18.65C30.402 18.477 30.72 18.2239 30.97 17.91C31.1634 17.649 31.2716 17.3347 31.28 17.01V16.74H32.28V17.01C32.2789 17.5059 32.1291 17.9901 31.85 18.4ZM34.66 24.74H33.53V22.9399H28.99V22.0601H34.66V24.74ZM32.42 20.97H31.29V19.51H32.42V20.97ZM32.74 17.97C32.9906 18.2807 33.3086 18.5304 33.67 18.7C34.1436 18.9195 34.6506 19.0581 35.17 19.11L34.73 20C34.1178 19.9197 33.5251 19.73 32.98 19.4399C32.5243 19.2083 32.1353 18.8641 31.85 18.4399C31.5904 18.0305 31.455 17.5547 31.46 17.0699V16.8H32.46V17.0699C32.4541 17.4016 32.552 17.7268 32.74 18V17.97Z" fill="#231F20"/>
<path d="M43.46 23.8199H36.06V22.89H43.46V23.8199ZM42.59 18.11H38.06V20.67H36.93V17.21H42.59V18.11ZM42.65 21.17H36.93V20.26H42.65V21.17ZM40.3 23.17H39.23V20.66H40.35L40.3 23.17Z" fill="#231F20"/>
<path d="M44.75 19.1899C44.9857 18.4788 45.3225 17.8052 45.75 17.1899H47C46.7598 17.5544 46.5587 17.9433 46.4 18.35C46.2018 18.8428 46.0446 19.3513 45.93 19.87C45.8132 20.3886 45.7528 20.9183 45.75 21.45C45.7528 21.9849 45.8132 22.518 45.93 23.04C46.0446 23.5588 46.2018 24.0672 46.4 24.5601C46.5629 24.968 46.7637 25.3597 47 25.73H45.75C45.3247 25.1134 44.9881 24.4402 44.75 23.73C44.5157 22.9925 44.3943 22.2238 44.39 21.45C44.3945 20.6827 44.5159 19.9206 44.75 19.1899Z" fill="#231F20"/>
<path d="M54.88 21.4999H47.48V20.5999H54.88V21.4999ZM49.47 23.9099H48.33V22.1599H49.47V23.9099ZM54.11 24.5599H48.33V23.6399H54.11V24.5599ZM49.53 19.2999H48.4V16.9199H49.53V19.2999ZM54.06 19.7399H48.4V18.8499H54.06V19.7399Z" fill="#231F20"/>
<path d="M57.97 21.46C57.9657 22.2338 57.8443 23.0025 57.61 23.74C57.372 24.4502 57.0353 25.1234 56.61 25.74H55.36C55.5963 25.3697 55.7972 24.9779 55.96 24.5699C56.1583 24.0771 56.3155 23.5688 56.43 23.05C56.5469 22.528 56.6072 21.9949 56.61 21.46C56.6072 20.9283 56.5468 20.3986 56.43 19.88C56.3155 19.3613 56.1583 18.8529 55.96 18.36C55.8013 17.9533 55.6002 17.5645 55.36 17.2H56.61C57.0376 17.8152 57.3743 18.4888 57.61 19.2C57.8442 19.9306 57.9655 20.6927 57.97 21.46Z" fill="#231F20"/>
<path d="M5.84999 70.38C5.11283 70.3894 4.38125 70.2512 3.69825 69.9738C3.01525 69.6963 2.3946 69.2851 1.87284 68.7643C1.35109 68.2435 0.938743 67.6235 0.660044 66.941C0.381346 66.2585 0.241921 65.5272 0.249979 64.79" stroke="#231F20" stroke-width="0.49" stroke-linecap="round" stroke-linejoin="round"/>
<path d="M0.25 64.7901V5.83008" stroke="#231F20" stroke-width="0.49" stroke-linecap="round" stroke-linejoin="round"/>
<path d="M0.229996 5.8301C0.239568 4.36234 0.808148 2.95345 1.81999 1.89016C2.34479 1.36538 2.96866 0.950144 3.65535 0.668602C4.34204 0.387059 5.07785 0.244809 5.81999 0.250145" stroke="#231F20" stroke-width="0.49" stroke-linecap="round" stroke-linejoin="round"/>
<path d="M5.85001 0.23999H65" stroke="#231F20" stroke-width="0.49" stroke-linecap="round" stroke-linejoin="round"/>
<path d="M65 0.25C66.4819 0.252599 67.9027 0.84034 68.9534 1.88538C70.0041 2.93041 70.5995 4.34811 70.61 5.82996" stroke="#231F20" stroke-width="0.49" stroke-linecap="round" stroke-linejoin="round"/>
<path d="M70.6 5.83008V64.7901" stroke="#231F20" stroke-width="0.49" stroke-linecap="round" stroke-linejoin="round"/>
<path d="M70.61 64.79C70.6116 65.5236 70.4665 66.2501 70.1831 66.9268C69.8998 67.6034 69.4839 68.2165 68.96 68.73C68.4357 69.2561 67.8122 69.6729 67.1255 69.9562C66.4389 70.2394 65.7028 70.3835 64.96 70.38" stroke="#231F20" stroke-width="0.49" stroke-linecap="round" stroke-linejoin="round"/>
<path d="M65 70.3701H5.85001" stroke="#231F20" stroke-width="0.49" stroke-linecap="round" stroke-linejoin="round"/>
<path d="M5.84999 68.26C4.92157 68.2654 4.02864 67.9037 3.36562 67.2538C2.70259 66.6039 2.32315 65.7184 2.30998 64.79" stroke="#231F20" stroke-width="0.49" stroke-linecap="round" stroke-linejoin="round"/>
<path d="M2.3 64.7901V5.83008" stroke="#231F20" stroke-width="0.49" stroke-linecap="round" stroke-linejoin="round"/>
<path d="M2.30998 5.82989C2.32315 4.90155 2.70259 4.01606 3.36562 3.36615C4.02864 2.71623 4.92157 2.35455 5.84999 2.35992" stroke="#231F20" stroke-width="0.49" stroke-linecap="round" stroke-linejoin="round"/>
<path d="M5.85001 2.36011H65" stroke="#231F20" stroke-width="0.49" stroke-linecap="round" stroke-linejoin="round"/>
<path d="M65 2.35991C65.4584 2.35181 65.9137 2.43595 66.339 2.60734C66.7642 2.77874 67.1505 3.03388 67.4752 3.35759C67.7998 3.6813 68.0561 4.06703 68.2287 4.49174C68.4013 4.91646 68.4868 5.37147 68.48 5.82988" stroke="#231F20" stroke-width="0.49" stroke-linecap="round" stroke-linejoin="round"/>
<path d="M68.48 5.83008V64.7901" stroke="#231F20" stroke-width="0.49" stroke-linecap="round" stroke-linejoin="round"/>
<path d="M68.48 64.79C68.4868 65.2484 68.4013 65.7035 68.2287 66.1282C68.0561 66.5529 67.7998 66.9386 67.4752 67.2623C67.1505 67.586 66.7642 67.8412 66.339 68.0126C65.9137 68.184 65.4584 68.2681 65 68.26" stroke="#231F20" stroke-width="0.49" stroke-linecap="round" stroke-linejoin="round"/>
<path d="M65 68.25H5.85001" stroke="#231F20" stroke-width="0.49" stroke-linecap="round" stroke-linejoin="round"/>
<path d="M10.85 65.2098C10.1133 65.2206 9.38194 65.0837 8.69899 64.8074C8.01603 64.531 7.39532 64.1207 6.87343 63.6007C6.35153 63.0807 5.93901 62.4614 5.6602 61.7794C5.38138 61.0975 5.2419 60.3666 5.24998 59.6299" stroke="#231F20" stroke-width="0.49" stroke-linecap="round" stroke-linejoin="round"/>
<path d="M5.25 59.6299V34.6699" stroke="#231F20" stroke-width="0.49" stroke-linecap="round" stroke-linejoin="round"/>
<path d="M5.23 34.6701C5.23957 33.2023 5.80815 31.7933 6.81999 30.73C7.34479 30.2052 7.96866 29.79 8.65535 29.5084C9.34204 29.2269 10.0778 29.0847 10.82 29.09" stroke="#231F20" stroke-width="0.49" stroke-linecap="round" stroke-linejoin="round"/>
<path d="M10.85 29.0801H60" stroke="#231F20" stroke-width="0.49" stroke-linecap="round" stroke-linejoin="round"/>
<path d="M60 29.0898C61.4819 29.0924 62.9028 29.6803 63.9534 30.7253C65.0041 31.7704 65.5995 33.1881 65.61 34.6699" stroke="#231F20" stroke-width="0.49" stroke-linecap="round" stroke-linejoin="round"/>
<path d="M65.6 34.6699V59.6299" stroke="#231F20" stroke-width="0.49" stroke-linecap="round" stroke-linejoin="round"/>
<path d="M65.61 59.6299C65.6116 60.3635 65.4665 61.09 65.1831 61.7666C64.8998 62.4432 64.4839 63.0563 63.96 63.5698C63.4352 64.0946 62.8113 64.5098 62.1246 64.7914C61.4379 65.0729 60.7022 65.2152 59.96 65.2098" stroke="#231F20" stroke-width="0.49" stroke-linecap="round" stroke-linejoin="round"/>
<path d="M60 65.21H10.85" stroke="#231F20" stroke-width="0.49" stroke-linecap="round" stroke-linejoin="round"/>
<path d="M10.85 63.0999C10.391 63.1055 9.93551 63.02 9.50981 62.8484C9.08411 62.6767 8.6967 62.4223 8.37001 62.0999C7.70387 61.4491 7.32269 60.561 7.30998 59.6299" stroke="#231F20" stroke-width="0.49" stroke-linecap="round" stroke-linejoin="round"/>
<path d="M7.3 59.6299V34.6699" stroke="#231F20" stroke-width="0.49" stroke-linecap="round" stroke-linejoin="round"/>
<path d="M7.30998 34.6701C7.32315 33.7418 7.70259 32.8562 8.36562 32.2062C9.02864 31.5563 9.92157 31.1946 10.85 31.2" stroke="#231F20" stroke-width="0.49" stroke-linecap="round" stroke-linejoin="round"/>
<path d="M10.85 31.2H60" stroke="#231F20" stroke-width="0.49" stroke-linecap="round" stroke-linejoin="round"/>
<path d="M60 31.2C60.4584 31.1919 60.9137 31.2762 61.3389 31.4476C61.7641 31.6189 62.1506 31.874 62.4752 32.1977C62.7999 32.5214 63.0561 32.9071 63.2287 33.3318C63.4013 33.7565 63.4868 34.2117 63.48 34.6701" stroke="#231F20" stroke-width="0.49" stroke-linecap="round" stroke-linejoin="round"/>
<path d="M63.48 34.6699V59.6299" stroke="#231F20" stroke-width="0.49" stroke-linecap="round" stroke-linejoin="round"/>
<path d="M63.48 59.6299C63.4868 60.0883 63.4013 60.5434 63.2287 60.9681C63.0561 61.3929 62.7999 61.7785 62.4752 62.1022C62.1506 62.4259 61.7641 62.681 61.3389 62.8524C60.9137 63.0238 60.4584 63.1079 60 63.0999" stroke="#231F20" stroke-width="0.49" stroke-linecap="round" stroke-linejoin="round"/>
<path d="M60 63.0901H10.85" stroke="#231F20" stroke-width="0.49" stroke-linecap="round" stroke-linejoin="round"/>
<path d="M20.9 35.9099H19.99L19.12 36.7699V45.2599L19.99 46.1299H20.9L21.77 45.2599V36.7699L20.9 35.9099Z" fill="#231F20"/>
<path d="M32.74 35.9099H31.84L30.97 36.7699V45.2599L31.84 46.1299H32.74L33.61 45.2599V36.7699L32.74 35.9099Z" fill="#231F20"/>
<path d="M31.45 35.5801V34.67L30.58 33.8H22.09L21.23 34.67V35.5801L22.09 36.4501H30.58L31.45 35.5801Z" fill="#231F20"/>
<path d="M31.45 47.4799V46.58L30.58 45.7H22.09L21.23 46.58V47.4799L22.09 48.3499H30.58L31.45 47.4799Z" fill="#231F20"/>
<path d="M20.9 48.05H19.99L19.12 48.92V57.4001L19.99 58.2701H20.9L21.77 57.4001V48.92L20.9 48.05Z" fill="#231F20"/>
<path d="M32.74 48.05H31.84L30.97 48.92V57.4001L31.84 58.2701H32.74L33.61 57.4001V48.92L32.74 48.05Z" fill="#231F20"/>
<path d="M31.45 59.6201V58.7201L30.58 57.8501H22.09L21.23 58.7201V59.6201L22.09 60.4901H30.58L31.45 59.6201Z" fill="#231F20"/>
<path d="M39.01 35.9099H38.1L37.23 36.7699V45.2599L38.1 46.1299H39.01L39.88 45.2599V36.7699L39.01 35.9099Z" fill="#231F20"/>
<path d="M50.86 35.9099H49.95L49.08 36.7699V45.2599L49.95 46.1299H50.86L51.73 45.2599V36.7699L50.86 35.9099Z" fill="#231F20"/>
<path d="M49.56 35.5801V34.67L48.69 33.8H40.21L39.34 34.67V35.5801L40.21 36.4501H48.69L49.56 35.5801Z" fill="#231F20"/>
<path d="M49.56 47.4799V46.58L48.69 45.7H40.21L39.34 46.58V47.4799L40.21 48.3499H48.69L49.56 47.4799Z" fill="#231F20"/>
<path d="M39.01 48.05H38.1L37.23 48.92V57.4001L38.1 58.2701H39.01L39.88 57.4001V48.92L39.01 48.05Z" fill="#231F20"/>
<path d="M50.86 48.05H49.95L49.08 48.92V57.4001L49.95 58.2701H50.86L51.73 57.4001V48.92L50.86 48.05Z" fill="#231F20"/>
<path d="M49.56 59.6201V58.7201L48.69 57.8501H40.21L39.34 58.7201V59.6201L40.21 60.4901H48.69L49.56 59.6201Z" fill="#231F20"/>
</g>
<defs>
<clipPath id="clip0_8102_763">
<rect width="70.85" height="70.61" fill="white"/>
</clipPath>
</defs>
</svg>
