<svg width="71" height="71" viewBox="0 0 71 71" fill="none" xmlns="http://www.w3.org/2000/svg">
<g clip-path="url(#clip0_8102_731)">
<path d="M5.83999 70.38C5.10284 70.3894 4.37126 70.2512 3.68826 69.9738C3.00525 69.6963 2.38464 69.2851 1.86288 68.7643C1.34112 68.2435 0.928748 67.6235 0.65005 66.941C0.371351 66.2585 0.231957 65.5272 0.240016 64.79" stroke="#231F20" stroke-width="0.49" stroke-linecap="round" stroke-linejoin="round"/>
<path d="M0.25 64.7901V5.83008" stroke="#231F20" stroke-width="0.49" stroke-linecap="round" stroke-linejoin="round"/>
<path d="M0.240021 5.83005C0.249593 4.36228 0.818173 2.9534 1.83002 1.89011C2.35548 1.36622 2.97948 0.951615 3.66602 0.670135C4.35255 0.388655 5.08803 0.245861 5.83002 0.250091" stroke="#231F20" stroke-width="0.49" stroke-linecap="round" stroke-linejoin="round"/>
<path d="M5.85001 0.23999H65" stroke="#231F20" stroke-width="0.49" stroke-linecap="round" stroke-linejoin="round"/>
<path d="M65 0.25C66.4801 0.25523 67.8985 0.844163 68.947 1.88892C69.9955 2.93367 70.5895 4.34984 70.6 5.82996" stroke="#231F20" stroke-width="0.49" stroke-linecap="round" stroke-linejoin="round"/>
<path d="M70.6 5.83008V64.7901" stroke="#231F20" stroke-width="0.49" stroke-linecap="round" stroke-linejoin="round"/>
<path d="M70.6 64.79C70.6039 65.524 70.4598 66.2511 70.1763 66.9281C69.8928 67.6051 69.4757 68.2179 68.95 68.73C68.4323 69.251 67.817 69.665 67.1392 69.9481C66.4615 70.2312 65.7345 70.378 65 70.38" stroke="#231F20" stroke-width="0.49" stroke-linecap="round" stroke-linejoin="round"/>
<path d="M65 70.3701H5.85001" stroke="#231F20" stroke-width="0.49" stroke-linecap="round" stroke-linejoin="round"/>
<path d="M5.84 68.26C5.3811 68.2651 4.92575 68.1793 4.50012 68.0077C4.0745 67.8361 3.68704 67.582 3.36002 67.26C2.6957 66.608 2.31489 65.7207 2.30002 64.79" stroke="#231F20" stroke-width="0.49" stroke-linecap="round" stroke-linejoin="round"/>
<path d="M2.3 64.7901V5.83008" stroke="#231F20" stroke-width="0.49" stroke-linecap="round" stroke-linejoin="round"/>
<path d="M2.30002 5.83005C2.31702 4.89983 2.6975 4.01327 3.36002 3.36008C3.68704 3.0381 4.0745 2.78402 4.50012 2.6124C4.92575 2.44077 5.3811 2.355 5.84 2.36008" stroke="#231F20" stroke-width="0.49" stroke-linecap="round" stroke-linejoin="round"/>
<path d="M5.85001 2.36011H65" stroke="#231F20" stroke-width="0.49" stroke-linecap="round" stroke-linejoin="round"/>
<path d="M65 2.35999C65.4575 2.35325 65.9118 2.43836 66.3358 2.61036C66.7599 2.78235 67.1451 3.03776 67.4687 3.36133C67.7923 3.6849 68.0476 4.0701 68.2196 4.49415C68.3916 4.91819 68.4767 5.37241 68.47 5.82996" stroke="#231F20" stroke-width="0.49" stroke-linecap="round" stroke-linejoin="round"/>
<path d="M68.48 5.83008V64.7901" stroke="#231F20" stroke-width="0.49" stroke-linecap="round" stroke-linejoin="round"/>
<path d="M68.47 64.79C68.4767 65.2476 68.3916 65.7018 68.2196 66.1259C68.0476 66.5499 67.7923 66.9351 67.4687 67.2587C67.1451 67.5822 66.7599 67.8376 66.3358 68.0096C65.9118 68.1816 65.4575 68.2667 65 68.26" stroke="#231F20" stroke-width="0.49" stroke-linecap="round" stroke-linejoin="round"/>
<path d="M65 68.25H5.85001" stroke="#231F20" stroke-width="0.49" stroke-linecap="round" stroke-linejoin="round"/>
<path d="M12.94 17.9099H11.53L10.19 19.2499V32.3799L11.53 33.7299H12.94L14.28 32.3799V19.2499L12.94 17.9099Z" fill="#231F20"/>
<path d="M31.27 17.9099H29.87L28.52 19.2499V32.3799L29.87 33.7299H31.27L32.62 32.3799V19.2499L31.27 17.9099Z" fill="#231F20"/>
<path d="M29.27 17.3999V15.9899L27.92 14.6499H14.79L13.45 15.9899V17.3999L14.79 18.7399H27.92L29.27 17.3999Z" fill="#231F20"/>
<path d="M29.27 35.8301V34.4201L27.92 33.0801H14.79L13.45 34.4201V35.8301L14.79 37.1701H27.92L29.27 35.8301Z" fill="#231F20"/>
<path d="M12.94 36.7H11.53L10.19 38.0499V51.18L11.53 52.52H12.94L14.28 51.18V38.0499L12.94 36.7Z" fill="#231F20"/>
<path d="M31.27 36.7H29.87L28.52 38.0499V51.18L29.87 52.52H31.27L32.62 51.18V38.0499L31.27 36.7Z" fill="#231F20"/>
<path d="M29.27 54.6201V53.2201L27.92 51.8701H14.79L13.45 53.2201V54.6201L14.79 55.9701H27.92L29.27 54.6201Z" fill="#231F20"/>
<path d="M40.98 17.9099H39.57L38.23 19.2499V32.3799L39.57 33.7299H40.98L42.32 32.3799V19.2499L40.98 17.9099Z" fill="#231F20"/>
<path d="M59.32 17.9099H57.91L56.57 19.2499V32.3799L57.91 33.7299H59.32L60.66 32.3799V19.2499L59.32 17.9099Z" fill="#231F20"/>
<path d="M57.31 17.3999V15.9899L55.97 14.6499H42.83L41.49 15.9899V17.3999L42.83 18.7399H55.97L57.31 17.3999Z" fill="#231F20"/>
<path d="M57.31 35.8301V34.4201L55.97 33.0801H42.83L41.49 34.4201V35.8301L42.83 37.1701H55.97L57.31 35.8301Z" fill="#231F20"/>
<path d="M40.98 36.7H39.57L38.23 38.0499V51.18L39.57 52.52H40.98L42.32 51.18V38.0499L40.98 36.7Z" fill="#231F20"/>
<path d="M59.32 36.7H57.91L56.57 38.0499V51.18L57.91 52.52H59.32L60.66 51.18V38.0499L59.32 36.7Z" fill="#231F20"/>
<path d="M57.31 54.6201V53.2201L55.97 51.8701H42.83L41.49 53.2201V54.6201L42.83 55.9701H55.97L57.31 54.6201Z" fill="#231F20"/>
</g>
<defs>
<clipPath id="clip0_8102_731">
<rect width="70.85" height="70.61" fill="white"/>
</clipPath>
</defs>
</svg>
