<svg width="48" height="64" viewBox="0 0 48 64" fill="none" xmlns="http://www.w3.org/2000/svg">
<g clip-path="url(#clip0_8110_28)">
<mask id="mask0_8110_28" style="mask-type:luminance" maskUnits="userSpaceOnUse" x="0" y="0" width="11" height="64">
<path d="M10.9299 63.7799L10.9299 0.209961L0.289917 0.209961L0.289917 63.7799H10.9299Z" fill="white"/>
</mask>
<g mask="url(#mask0_8110_28)">
<path d="M10.97 9.52979H10.5V10.1898H10.97V9.52979Z" fill="#A3A3A3"/>
<path d="M10.83 6.3999H9.63V6.8699H10.83V6.3999Z" fill="#A3A3A3"/>
<path d="M10.1 8.57983H8.9V9.04983H10.1V8.57983Z" fill="#A3A3A3"/>
<path d="M10.82 7.11987H10.35V8.25987H10.82V7.11987Z" fill="#A3A3A3"/>
<path d="M10.1 7.11987H9.63V7.77987H10.1V7.11987Z" fill="#A3A3A3"/>
<path d="M9.37 7.58984H8.9V8.24984H9.37V7.58984Z" fill="#A3A3A3"/>
<path d="M9.22 9.85986H8.02V10.3299H9.22V9.85986Z" fill="#A3A3A3"/>
<path d="M8.5 12.0398H7.3V12.5098H8.5V12.0398Z" fill="#A3A3A3"/>
<path d="M9.22 10.5798H8.75V11.7198H9.22V10.5798Z" fill="#A3A3A3"/>
<path d="M8.49 10.5798H8.02V11.2398H8.49V10.5798Z" fill="#A3A3A3"/>
<path d="M7.77 11.0598H7.3V11.7198H7.77V11.0598Z" fill="#A3A3A3"/>
<path d="M7.62 8.19971H6.42V8.66971H7.62V8.19971Z" fill="#A3A3A3"/>
<path d="M6.89 10.3799H5.69V10.8499H6.89V10.3799Z" fill="#A3A3A3"/>
<path d="M7.61 8.91992H7.14V10.0599H7.61V8.91992Z" fill="#A3A3A3"/>
<path d="M6.89 8.91992H6.42V9.57992H6.89V8.91992Z" fill="#A3A3A3"/>
<path d="M6.16 9.3999H5.69V10.0599H6.16V9.3999Z" fill="#A3A3A3"/>
<path d="M10.66 3.92993H10.19V4.58993H10.66V3.92993Z" fill="#A3A3A3"/>
<path d="M10.51 0.799805H9.31V1.2698H10.51V0.799805Z" fill="#A3A3A3"/>
<path d="M9.79 2.97974H8.59V3.44974H9.79V2.97974Z" fill="#A3A3A3"/>
<path d="M10.51 1.51978H10.04V2.65978H10.51V1.51978Z" fill="#A3A3A3"/>
<path d="M9.78 1.51978H9.31V2.17978H9.78V1.51978Z" fill="#A3A3A3"/>
<path d="M9.06 1.98975H8.59V2.64975H9.06V1.98975Z" fill="#A3A3A3"/>
<path d="M8.91 4.25977H7.71V4.72977H8.91V4.25977Z" fill="#A3A3A3"/>
<path d="M8.18 6.43994H6.98V6.90994H8.18V6.43994Z" fill="#A3A3A3"/>
<path d="M8.91 4.97974H8.44V6.11974H8.91V4.97974Z" fill="#A3A3A3"/>
<path d="M8.18 4.97974H7.71V5.63974H8.18V4.97974Z" fill="#A3A3A3"/>
<path d="M7.45 5.44971H6.98V6.10971H7.45V5.44971Z" fill="#A3A3A3"/>
<path d="M7.31 2.59985H6.11V3.06985H7.31V2.59985Z" fill="#A3A3A3"/>
<path d="M6.58 4.77979H5.38V5.24978H6.58V4.77979Z" fill="#A3A3A3"/>
<path d="M7.3 3.31982H6.83V4.45982H7.3V3.31982Z" fill="#A3A3A3"/>
<path d="M6.58 3.31982H6.11V3.97982H6.58V3.31982Z" fill="#A3A3A3"/>
<path d="M5.85 3.78979H5.38V4.44979H5.85V3.78979Z" fill="#A3A3A3"/>
<path d="M5.85 6.16992H4.65V6.63992H5.85V6.16992Z" fill="#A3A3A3"/>
<path d="M5.13 8.34985H3.93V8.81985H5.13V8.34985Z" fill="#A3A3A3"/>
<path d="M5.85 6.88989H5.38V8.02989H5.85V6.88989Z" fill="#A3A3A3"/>
<path d="M5.12 6.88989H4.65V7.54989H5.12V6.88989Z" fill="#A3A3A3"/>
<path d="M4.4 7.36987H3.93V8.02987H4.4V7.36987Z" fill="#A3A3A3"/>
<path d="M4.25 4.23975H3.05V4.70975H4.25V4.23975Z" fill="#A3A3A3"/>
<path d="M3.52 6.41992H2.32V6.88992H3.52V6.41992Z" fill="#A3A3A3"/>
<path d="M4.25 4.95972H3.78V6.09972H4.25V4.95972Z" fill="#A3A3A3"/>
<path d="M3.52 4.95972H3.05V5.61972H3.52V4.95972Z" fill="#A3A3A3"/>
<path d="M2.79 5.42993H2.32V6.08993H2.79V5.42993Z" fill="#A3A3A3"/>
<path d="M2.65 7.69971H1.45V8.16971H2.65V7.69971Z" fill="#A3A3A3"/>
<path d="M1.92 9.87988H0.720001V10.3499H1.92V9.87988Z" fill="#A3A3A3"/>
<path d="M2.64 8.41992H2.17V9.55992H2.64V8.41992Z" fill="#A3A3A3"/>
<path d="M1.92 8.41992H1.45V9.07992H1.92V8.41992Z" fill="#A3A3A3"/>
<path d="M1.19 8.8999H0.720001V9.5599H1.19V8.8999Z" fill="#A3A3A3"/>
<path d="M1.04 6.75977H0.57V7.89977H1.04V6.75977Z" fill="#A3A3A3"/>
<path d="M5.54 0.569824H4.34V1.03982H5.54V0.569824Z" fill="#A3A3A3"/>
<path d="M4.82 2.74976H3.62V3.21976H4.82V2.74976Z" fill="#A3A3A3"/>
<path d="M5.54 1.28979H5.07V2.4298H5.54V1.28979Z" fill="#A3A3A3"/>
<path d="M4.81 1.28979H4.34V1.9498H4.81V1.28979Z" fill="#A3A3A3"/>
<path d="M4.09 1.76978H3.62V2.42978H4.09V1.76978Z" fill="#A3A3A3"/>
<path d="M3.21 0.819824H2.01V1.28982H3.21V0.819824Z" fill="#A3A3A3"/>
<path d="M2.34 2.09985H1.14V2.56985H2.34V2.09985Z" fill="#A3A3A3"/>
<path d="M1.61 4.27979H0.41V4.74978H1.61V4.27979Z" fill="#A3A3A3"/>
<path d="M2.33 2.81982H1.86V3.95982H2.33V2.81982Z" fill="#A3A3A3"/>
<path d="M1.61 2.81982H1.14V3.47982H1.61V2.81982Z" fill="#A3A3A3"/>
<path d="M0.88 3.28979H0.41V3.9498H0.88V3.28979Z" fill="#A3A3A3"/>
<path d="M6.32 17.5999H5.12V18.0699H6.32V17.5999Z" fill="#A3A3A3"/>
<path d="M5.6 19.7798H4.4V20.2498H5.6V19.7798Z" fill="#A3A3A3"/>
<path d="M6.32 18.3198H5.85V19.4598H6.32V18.3198Z" fill="#A3A3A3"/>
<path d="M5.59 18.3198H5.12V18.9798H5.59V18.3198Z" fill="#A3A3A3"/>
<path d="M4.87 18.7898H4.4V19.4498H4.87V18.7898Z" fill="#A3A3A3"/>
<path d="M4.72 15.6599H3.52V16.1299H4.72V15.6599Z" fill="#A3A3A3"/>
<path d="M3.99 17.8398H2.79V18.3098H3.99V17.8398Z" fill="#A3A3A3"/>
<path d="M4.71 16.3799H4.24V17.5199H4.71V16.3799Z" fill="#A3A3A3"/>
<path d="M3.99 16.3799H3.52V17.0399H3.99V16.3799Z" fill="#A3A3A3"/>
<path d="M3.26 16.8599H2.79V17.5199H3.26V16.8599Z" fill="#A3A3A3"/>
<path d="M3.12 19.1199H1.92V19.5899H3.12V19.1199Z" fill="#A3A3A3"/>
<path d="M3.11 19.8499H2.64V20.9899H3.11V19.8499Z" fill="#A3A3A3"/>
<path d="M2.39 19.8499H1.92V20.5099H2.39V19.8499Z" fill="#A3A3A3"/>
<path d="M1.66 20.3198H1.19V20.9798H1.66V20.3198Z" fill="#A3A3A3"/>
<path d="M1.51 17.4597H0.310001V17.9297H1.51V17.4597Z" fill="#A3A3A3"/>
<path d="M1.51 18.1899H1.04V19.3299H1.51V18.1899Z" fill="#A3A3A3"/>
<path d="M0.780001 18.1899H0.310001V18.8499H0.780001V18.1899Z" fill="#A3A3A3"/>
<path d="M6.01 11.9897H4.81V12.4597H6.01V11.9897Z" fill="#A3A3A3"/>
<path d="M5.28 14.1799H4.08V14.6499H5.28V14.1799Z" fill="#A3A3A3"/>
<path d="M6.01 12.7197H5.54V13.8597H6.01V12.7197Z" fill="#A3A3A3"/>
<path d="M5.28 12.7197H4.81V13.3797H5.28V12.7197Z" fill="#A3A3A3"/>
<path d="M4.55 13.1899H4.08V13.8499H4.55V13.1899Z" fill="#A3A3A3"/>
<path d="M4.41 10.0598H3.21V10.5298H4.41V10.0598Z" fill="#A3A3A3"/>
<path d="M3.68 12.2397H2.48V12.7097H3.68V12.2397Z" fill="#A3A3A3"/>
<path d="M4.4 10.7798H3.93V11.9198H4.4V10.7798Z" fill="#A3A3A3"/>
<path d="M3.68 10.7798H3.21V11.4398H3.68V10.7798Z" fill="#A3A3A3"/>
<path d="M2.95 11.2598H2.48V11.9198H2.95V11.2598Z" fill="#A3A3A3"/>
<path d="M2.8 13.5198H1.6V13.9898H2.8V13.5198Z" fill="#A3A3A3"/>
<path d="M2.08 15.7097H0.880001V16.1797H2.08V15.7097Z" fill="#A3A3A3"/>
<path d="M2.8 14.2397H2.33V15.3797H2.8V14.2397Z" fill="#A3A3A3"/>
<path d="M2.07 14.2397H1.6V14.8997H2.07V14.2397Z" fill="#A3A3A3"/>
<path d="M1.35 14.7197H0.880001V15.3797H1.35V14.7197Z" fill="#A3A3A3"/>
<path d="M1.2 11.8599H0V12.3299H1.2V11.8599Z" fill="#A3A3A3"/>
<path d="M1.2 12.5798H0.73V13.7198H1.2V12.5798Z" fill="#A3A3A3"/>
<path d="M0.47 12.5798H0V13.2398H0.47V12.5798Z" fill="#A3A3A3"/>
<path d="M8.01 0.879883H6.81V1.34988H8.01V0.879883Z" fill="#A3A3A3"/>
<path d="M10.98 20.2397H9.78V20.7097H10.98V20.2397Z" fill="#A3A3A3"/>
<path d="M10.25 19.2598H9.78V19.9198H10.25V19.2598Z" fill="#A3A3A3"/>
<path d="M8.5 19.8599H7.3V20.3299H8.5V19.8599Z" fill="#A3A3A3"/>
<path d="M8.5 20.5798H8.03V21.7198H8.5V20.5798Z" fill="#A3A3A3"/>
<path d="M7.77 20.5798H7.3V21.2398H7.77V20.5798Z" fill="#A3A3A3"/>
<path d="M10.67 14.6399H9.47V15.1099H10.67V14.6399Z" fill="#A3A3A3"/>
<path d="M10.67 13.1799H10.2V13.8399H10.67V13.1799Z" fill="#A3A3A3"/>
<path d="M9.94 13.6499H9.47V14.3099H9.94V13.6499Z" fill="#A3A3A3"/>
<path d="M9.79 15.9199H8.59V16.3899H9.79V15.9199Z" fill="#A3A3A3"/>
<path d="M9.07 18.0999H7.87V18.5699H9.07V18.0999Z" fill="#A3A3A3"/>
<path d="M9.79 16.6399H9.32V17.7799H9.79V16.6399Z" fill="#A3A3A3"/>
<path d="M9.06 16.6399H8.59V17.2999H9.06V16.6399Z" fill="#A3A3A3"/>
<path d="M8.34 17.1199H7.87V17.7799H8.34V17.1199Z" fill="#A3A3A3"/>
<path d="M8.19 14.2598H6.99V14.7298H8.19V14.2598Z" fill="#A3A3A3"/>
<path d="M7.46 16.4399H6.26V16.9099H7.46V16.4399Z" fill="#A3A3A3"/>
<path d="M8.18 14.9797H7.71V16.1197H8.18V14.9797Z" fill="#A3A3A3"/>
<path d="M7.46 14.9797H6.99V15.6397H7.46V14.9797Z" fill="#A3A3A3"/>
<path d="M6.73 15.4597H6.26V16.1197H6.73V15.4597Z" fill="#A3A3A3"/>
<path d="M10.97 30.4697H10.5V31.1297H10.97V30.4697Z" fill="#A3A3A3"/>
<path d="M10.83 27.3398H9.63V27.8098H10.83V27.3398Z" fill="#A3A3A3"/>
<path d="M10.1 29.5198H8.9V29.9898H10.1V29.5198Z" fill="#A3A3A3"/>
<path d="M10.82 28.0598H10.35V29.1998H10.82V28.0598Z" fill="#A3A3A3"/>
<path d="M10.1 28.0598H9.63V28.7198H10.1V28.0598Z" fill="#A3A3A3"/>
<path d="M9.37 28.5398H8.9V29.1998H9.37V28.5398Z" fill="#A3A3A3"/>
<path d="M9.22 30.7998H8.02V31.2698H9.22V30.7998Z" fill="#A3A3A3"/>
<path d="M8.5 32.9897H7.3V33.4597H8.5V32.9897Z" fill="#A3A3A3"/>
<path d="M9.22 31.5298H8.75V32.6698H9.22V31.5298Z" fill="#A3A3A3"/>
<path d="M8.49 31.5298H8.02V32.1898H8.49V31.5298Z" fill="#A3A3A3"/>
<path d="M7.77 31.9998H7.3V32.6598H7.77V31.9998Z" fill="#A3A3A3"/>
<path d="M7.62 29.1399H6.42V29.6099H7.62V29.1399Z" fill="#A3A3A3"/>
<path d="M6.89 31.3298H5.69V31.7998H6.89V31.3298Z" fill="#A3A3A3"/>
<path d="M7.61 29.8699H7.14V31.0099H7.61V29.8699Z" fill="#A3A3A3"/>
<path d="M6.89 29.8699H6.42V30.5299H6.89V29.8699Z" fill="#A3A3A3"/>
<path d="M6.16 30.3398H5.69V30.9998H6.16V30.3398Z" fill="#A3A3A3"/>
<path d="M10.66 24.8699H10.19V25.5299H10.66V24.8699Z" fill="#A3A3A3"/>
<path d="M10.51 21.7397H9.31V22.2097H10.51V21.7397Z" fill="#A3A3A3"/>
<path d="M9.79 23.9199H8.59V24.3899H9.79V23.9199Z" fill="#A3A3A3"/>
<path d="M10.51 22.4597H10.04V23.5997H10.51V22.4597Z" fill="#A3A3A3"/>
<path d="M9.78 22.4597H9.31V23.1197H9.78V22.4597Z" fill="#A3A3A3"/>
<path d="M9.06 22.9399H8.59V23.5999H9.06V22.9399Z" fill="#A3A3A3"/>
<path d="M8.91 25.1997H7.71V25.6697H8.91V25.1997Z" fill="#A3A3A3"/>
<path d="M8.18 27.3899H6.98V27.8599H8.18V27.3899Z" fill="#A3A3A3"/>
<path d="M8.91 25.9199H8.44V27.0599H8.91V25.9199Z" fill="#A3A3A3"/>
<path d="M8.18 25.9199H7.71V26.5799H8.18V25.9199Z" fill="#A3A3A3"/>
<path d="M7.45 26.3999H6.98V27.0599H7.45V26.3999Z" fill="#A3A3A3"/>
<path d="M7.31 23.5398H6.11V24.0098H7.31V23.5398Z" fill="#A3A3A3"/>
<path d="M6.58 25.7297H5.38V26.1997H6.58V25.7297Z" fill="#A3A3A3"/>
<path d="M7.3 24.2598H6.83V25.3998H7.3V24.2598Z" fill="#A3A3A3"/>
<path d="M6.58 24.2598H6.11V24.9198H6.58V24.2598Z" fill="#A3A3A3"/>
<path d="M5.85 24.7397H5.38V25.3997H5.85V24.7397Z" fill="#A3A3A3"/>
<path d="M5.85 27.1199H4.65V27.5899H5.85V27.1199Z" fill="#A3A3A3"/>
<path d="M5.13 29.2998H3.93V29.7698H5.13V29.2998Z" fill="#A3A3A3"/>
<path d="M5.85 27.8398H5.38V28.9798H5.85V27.8398Z" fill="#A3A3A3"/>
<path d="M5.12 27.8398H4.65V28.4998H5.12V27.8398Z" fill="#A3A3A3"/>
<path d="M4.4 28.3098H3.93V28.9698H4.4V28.3098Z" fill="#A3A3A3"/>
<path d="M4.25 25.1799H3.05V25.6499H4.25V25.1799Z" fill="#A3A3A3"/>
<path d="M3.52 27.3599H2.32V27.8299H3.52V27.3599Z" fill="#A3A3A3"/>
<path d="M4.25 25.8999H3.78V27.0399H4.25V25.8999Z" fill="#A3A3A3"/>
<path d="M3.52 25.8999H3.05V26.5599H3.52V25.8999Z" fill="#A3A3A3"/>
<path d="M2.79 26.3799H2.32V27.0399H2.79V26.3799Z" fill="#A3A3A3"/>
<path d="M2.65 28.6399H1.45V29.1099H2.65V28.6399Z" fill="#A3A3A3"/>
<path d="M1.92 30.8298H0.720001V31.2998H1.92V30.8298Z" fill="#A3A3A3"/>
<path d="M2.64 29.3699H2.17V30.5099H2.64V29.3699Z" fill="#A3A3A3"/>
<path d="M1.92 29.3699H1.45V30.0299H1.92V29.3699Z" fill="#A3A3A3"/>
<path d="M1.19 29.8398H0.720001V30.4998H1.19V29.8398Z" fill="#A3A3A3"/>
<path d="M1.04 27.7097H0.57V28.8497H1.04V27.7097Z" fill="#A3A3A3"/>
<path d="M5.54 21.5098H4.34V21.9798H5.54V21.5098Z" fill="#A3A3A3"/>
<path d="M4.82 23.6997H3.62V24.1697H4.82V23.6997Z" fill="#A3A3A3"/>
<path d="M5.54 22.2397H5.07V23.3797H5.54V22.2397Z" fill="#A3A3A3"/>
<path d="M4.81 22.2397H4.34V22.8997H4.81V22.2397Z" fill="#A3A3A3"/>
<path d="M4.09 22.7097H3.62V23.3697H4.09V22.7097Z" fill="#A3A3A3"/>
<path d="M3.21 21.7598H2.01V22.2298H3.21V21.7598Z" fill="#A3A3A3"/>
<path d="M2.34 23.0398H1.14V23.5098H2.34V23.0398Z" fill="#A3A3A3"/>
<path d="M1.61 25.2197H0.41V25.6897H1.61V25.2197Z" fill="#A3A3A3"/>
<path d="M2.33 23.7598H1.86V24.8998H2.33V23.7598Z" fill="#A3A3A3"/>
<path d="M1.61 23.7598H1.14V24.4198H1.61V23.7598Z" fill="#A3A3A3"/>
<path d="M0.88 24.2397H0.41V24.8997H0.88V24.2397Z" fill="#A3A3A3"/>
<path d="M6.32 38.5398H5.12V39.0098H6.32V38.5398Z" fill="#A3A3A3"/>
<path d="M5.6 40.7197H4.4V41.1897H5.6V40.7197Z" fill="#A3A3A3"/>
<path d="M6.32 39.2598H5.85V40.3998H6.32V39.2598Z" fill="#A3A3A3"/>
<path d="M5.59 39.2598H5.12V39.9198H5.59V39.2598Z" fill="#A3A3A3"/>
<path d="M4.87 39.7397H4.4V40.3997H4.87V39.7397Z" fill="#A3A3A3"/>
<path d="M4.72 36.6099H3.52V37.0799H4.72V36.6099Z" fill="#A3A3A3"/>
<path d="M3.99 38.7898H2.79V39.2598H3.99V38.7898Z" fill="#A3A3A3"/>
<path d="M4.71 37.3298H4.24V38.4698H4.71V37.3298Z" fill="#A3A3A3"/>
<path d="M3.99 37.3298H3.52V37.9898H3.99V37.3298Z" fill="#A3A3A3"/>
<path d="M3.26 37.7998H2.79V38.4598H3.26V37.7998Z" fill="#A3A3A3"/>
<path d="M3.12 40.0698H1.92V40.5398H3.12V40.0698Z" fill="#A3A3A3"/>
<path d="M3.11 40.7898H2.64V41.9298H3.11V40.7898Z" fill="#A3A3A3"/>
<path d="M2.39 40.7898H1.92V41.4498H2.39V40.7898Z" fill="#A3A3A3"/>
<path d="M1.66 41.2698H1.19V41.9298H1.66V41.2698Z" fill="#A3A3A3"/>
<path d="M1.51 38.4099H0.310001V38.8799H1.51V38.4099Z" fill="#A3A3A3"/>
<path d="M1.51 39.1299H1.04V40.2699H1.51V39.1299Z" fill="#A3A3A3"/>
<path d="M0.780001 39.1299H0.310001V39.7899H0.780001V39.1299Z" fill="#A3A3A3"/>
<path d="M6.01 32.9399H4.81V33.4099H6.01V32.9399Z" fill="#A3A3A3"/>
<path d="M5.28 35.1199H4.08V35.5899H5.28V35.1199Z" fill="#A3A3A3"/>
<path d="M6.01 33.6599H5.54V34.7999H6.01V33.6599Z" fill="#A3A3A3"/>
<path d="M5.28 33.6599H4.81V34.3199H5.28V33.6599Z" fill="#A3A3A3"/>
<path d="M4.55 34.1399H4.08V34.7999H4.55V34.1399Z" fill="#A3A3A3"/>
<path d="M4.41 31.0098H3.21V31.4798H4.41V31.0098Z" fill="#A3A3A3"/>
<path d="M3.68 33.1899H2.48V33.6599H3.68V33.1899Z" fill="#A3A3A3"/>
<path d="M4.4 31.7297H3.93V32.8697H4.4V31.7297Z" fill="#A3A3A3"/>
<path d="M3.68 31.7297H3.21V32.3897H3.68V31.7297Z" fill="#A3A3A3"/>
<path d="M2.95 32.1997H2.48V32.8597H2.95V32.1997Z" fill="#A3A3A3"/>
<path d="M2.8 34.4697H1.6V34.9397H2.8V34.4697Z" fill="#A3A3A3"/>
<path d="M2.08 36.6499H0.880001V37.1199H2.08V36.6499Z" fill="#A3A3A3"/>
<path d="M2.8 35.1899H2.33V36.3299H2.8V35.1899Z" fill="#A3A3A3"/>
<path d="M2.07 35.1899H1.6V35.8499H2.07V35.1899Z" fill="#A3A3A3"/>
<path d="M1.35 35.6599H0.880001V36.3199H1.35V35.6599Z" fill="#A3A3A3"/>
<path d="M1.2 32.8098H0V33.2798H1.2V32.8098Z" fill="#A3A3A3"/>
<path d="M1.2 33.5298H0.73V34.6698H1.2V33.5298Z" fill="#A3A3A3"/>
<path d="M0.47 33.5298H0V34.1898H0.47V33.5298Z" fill="#A3A3A3"/>
<path d="M8.01 21.8198H6.81V22.2898H8.01V21.8198Z" fill="#A3A3A3"/>
<path d="M10.98 41.1899H9.78V41.6599H10.98V41.1899Z" fill="#A3A3A3"/>
<path d="M10.25 40.1997H9.78V40.8597H10.25V40.1997Z" fill="#A3A3A3"/>
<path d="M8.5 40.8098H7.3V41.2798H8.5V40.8098Z" fill="#A3A3A3"/>
<path d="M8.5 41.5298H8.03V42.6698H8.5V41.5298Z" fill="#A3A3A3"/>
<path d="M7.77 41.5298H7.3V42.1898H7.77V41.5298Z" fill="#A3A3A3"/>
<path d="M10.67 35.5898H9.47V36.0598H10.67V35.5898Z" fill="#A3A3A3"/>
<path d="M10.67 34.1199H10.2V34.7799H10.67V34.1199Z" fill="#A3A3A3"/>
<path d="M9.94 34.5999H9.47V35.2599H9.94V34.5999Z" fill="#A3A3A3"/>
<path d="M9.79 36.8699H8.59V37.3399H9.79V36.8699Z" fill="#A3A3A3"/>
<path d="M9.07 39.0498H7.87V39.5198H9.07V39.0498Z" fill="#A3A3A3"/>
<path d="M9.79 37.5898H9.32V38.7298H9.79V37.5898Z" fill="#A3A3A3"/>
<path d="M9.06 37.5898H8.59V38.2498H9.06V37.5898Z" fill="#A3A3A3"/>
<path d="M8.34 38.0598H7.87V38.7198H8.34V38.0598Z" fill="#A3A3A3"/>
<path d="M8.19 35.2097H6.99V35.6797H8.19V35.2097Z" fill="#A3A3A3"/>
<path d="M7.46 37.3899H6.26V37.8599H7.46V37.3899Z" fill="#A3A3A3"/>
<path d="M8.18 35.9299H7.71V37.0699H8.18V35.9299Z" fill="#A3A3A3"/>
<path d="M7.46 35.9299H6.99V36.5899H7.46V35.9299Z" fill="#A3A3A3"/>
<path d="M6.73 36.3999H6.26V37.0599H6.73V36.3999Z" fill="#A3A3A3"/>
<path d="M10.97 51.5898H10.5V52.2498H10.97V51.5898Z" fill="#A3A3A3"/>
<path d="M10.83 48.4597H9.63V48.9297H10.83V48.4597Z" fill="#A3A3A3"/>
<path d="M10.1 50.6399H8.9V51.1099H10.1V50.6399Z" fill="#A3A3A3"/>
<path d="M10.82 49.1799H10.35V50.3199H10.82V49.1799Z" fill="#A3A3A3"/>
<path d="M10.1 49.1799H9.63V49.8399H10.1V49.1799Z" fill="#A3A3A3"/>
<path d="M9.37 49.6499H8.9V50.3099H9.37V49.6499Z" fill="#A3A3A3"/>
<path d="M9.22 51.9199H8.02V52.3899H9.22V51.9199Z" fill="#A3A3A3"/>
<path d="M8.5 54.0999H7.3V54.5699H8.5V54.0999Z" fill="#A3A3A3"/>
<path d="M9.22 52.6399H8.75V53.7799H9.22V52.6399Z" fill="#A3A3A3"/>
<path d="M8.49 52.6399H8.02V53.2999H8.49V52.6399Z" fill="#A3A3A3"/>
<path d="M7.77 53.1099H7.3V53.7699H7.77V53.1099Z" fill="#A3A3A3"/>
<path d="M7.62 50.2598H6.42V50.7298H7.62V50.2598Z" fill="#A3A3A3"/>
<path d="M6.89 52.4399H5.69V52.9099H6.89V52.4399Z" fill="#A3A3A3"/>
<path d="M7.61 50.9797H7.14V52.1197H7.61V50.9797Z" fill="#A3A3A3"/>
<path d="M6.89 50.9797H6.42V51.6397H6.89V50.9797Z" fill="#A3A3A3"/>
<path d="M6.16 51.4497H5.69V52.1097H6.16V51.4497Z" fill="#A3A3A3"/>
<path d="M10.66 45.9797H10.19V46.6397H10.66V45.9797Z" fill="#A3A3A3"/>
<path d="M10.51 42.8499H9.31V43.3199H10.51V42.8499Z" fill="#A3A3A3"/>
<path d="M9.79 45.0398H8.59V45.5098H9.79V45.0398Z" fill="#A3A3A3"/>
<path d="M10.51 43.5798H10.04V44.7198H10.51V43.5798Z" fill="#A3A3A3"/>
<path d="M9.78 43.5798H9.31V44.2398H9.78V43.5798Z" fill="#A3A3A3"/>
<path d="M9.06 44.0498H8.59V44.7098H9.06V44.0498Z" fill="#A3A3A3"/>
<path d="M8.91 46.3198H7.71V46.7898H8.91V46.3198Z" fill="#A3A3A3"/>
<path d="M8.18 48.4998H6.98V48.9698H8.18V48.4998Z" fill="#A3A3A3"/>
<path d="M8.91 47.0398H8.44V48.1798H8.91V47.0398Z" fill="#A3A3A3"/>
<path d="M8.18 47.0398H7.71V47.6998H8.18V47.0398Z" fill="#A3A3A3"/>
<path d="M7.45 47.5098H6.98V48.1698H7.45V47.5098Z" fill="#A3A3A3"/>
<path d="M7.31 44.6599H6.11V45.1299H7.31V44.6599Z" fill="#A3A3A3"/>
<path d="M6.58 46.8398H5.38V47.3098H6.58V46.8398Z" fill="#A3A3A3"/>
<path d="M7.3 45.3799H6.83V46.5199H7.3V45.3799Z" fill="#A3A3A3"/>
<path d="M6.58 45.3799H6.11V46.0399H6.58V45.3799Z" fill="#A3A3A3"/>
<path d="M5.85 45.8499H5.38V46.5099H5.85V45.8499Z" fill="#A3A3A3"/>
<path d="M5.85 48.2297H4.65V48.6997H5.85V48.2297Z" fill="#A3A3A3"/>
<path d="M5.13 50.4099H3.93V50.8799H5.13V50.4099Z" fill="#A3A3A3"/>
<path d="M5.85 48.9497H5.38V50.0897H5.85V48.9497Z" fill="#A3A3A3"/>
<path d="M5.12 48.9497H4.65V49.6097H5.12V48.9497Z" fill="#A3A3A3"/>
<path d="M4.4 49.4299H3.93V50.0899H4.4V49.4299Z" fill="#A3A3A3"/>
<path d="M4.25 46.2898H3.05V46.7598H4.25V46.2898Z" fill="#A3A3A3"/>
<path d="M3.52 48.4797H2.32V48.9497H3.52V48.4797Z" fill="#A3A3A3"/>
<path d="M4.25 47.0198H3.78V48.1598H4.25V47.0198Z" fill="#A3A3A3"/>
<path d="M3.52 47.0198H3.05V47.6798H3.52V47.0198Z" fill="#A3A3A3"/>
<path d="M2.79 47.4897H2.32V48.1497H2.79V47.4897Z" fill="#A3A3A3"/>
<path d="M2.65 49.7598H1.45V50.2298H2.65V49.7598Z" fill="#A3A3A3"/>
<path d="M1.92 51.9399H0.720001V52.4099H1.92V51.9399Z" fill="#A3A3A3"/>
<path d="M2.64 50.4797H2.17V51.6197H2.64V50.4797Z" fill="#A3A3A3"/>
<path d="M1.92 50.4797H1.45V51.1397H1.92V50.4797Z" fill="#A3A3A3"/>
<path d="M1.19 50.9497H0.720001V51.6097H1.19V50.9497Z" fill="#A3A3A3"/>
<path d="M1.04 48.8198H0.57V49.9598H1.04V48.8198Z" fill="#A3A3A3"/>
<path d="M5.54 42.6299H4.34V43.0999H5.54V42.6299Z" fill="#A3A3A3"/>
<path d="M4.82 44.8098H3.62V45.2798H4.82V44.8098Z" fill="#A3A3A3"/>
<path d="M5.54 43.3499H5.07V44.4899H5.54V43.3499Z" fill="#A3A3A3"/>
<path d="M4.81 43.3499H4.34V44.0099H4.81V43.3499Z" fill="#A3A3A3"/>
<path d="M4.09 43.8198H3.62V44.4798H4.09V43.8198Z" fill="#A3A3A3"/>
<path d="M3.21 42.8799H2.01V43.3499H3.21V42.8799Z" fill="#A3A3A3"/>
<path d="M2.34 44.1599H1.14V44.6299H2.34V44.1599Z" fill="#A3A3A3"/>
<path d="M1.61 46.3398H0.41V46.8098H1.61V46.3398Z" fill="#A3A3A3"/>
<path d="M2.33 44.8799H1.86V46.0199H2.33V44.8799Z" fill="#A3A3A3"/>
<path d="M1.61 44.8799H1.14V45.5399H1.61V44.8799Z" fill="#A3A3A3"/>
<path d="M0.88 45.3499H0.41V46.0099H0.88V45.3499Z" fill="#A3A3A3"/>
<path d="M6.32 59.6499H5.12V60.1199H6.32V59.6499Z" fill="#A3A3A3"/>
<path d="M5.6 61.8398H4.4V62.3098H5.6V61.8398Z" fill="#A3A3A3"/>
<path d="M6.32 60.3799H5.85V61.5199H6.32V60.3799Z" fill="#A3A3A3"/>
<path d="M5.59 60.3799H5.12V61.0399H5.59V60.3799Z" fill="#A3A3A3"/>
<path d="M4.87 60.8499H4.4V61.5099H4.87V60.8499Z" fill="#A3A3A3"/>
<path d="M4.72 57.7197H3.52V58.1897H4.72V57.7197Z" fill="#A3A3A3"/>
<path d="M3.99 59.8999H2.79V60.3699H3.99V59.8999Z" fill="#A3A3A3"/>
<path d="M4.71 58.4399H4.24V59.5799H4.71V58.4399Z" fill="#A3A3A3"/>
<path d="M3.99 58.4399H3.52V59.0999H3.99V58.4399Z" fill="#A3A3A3"/>
<path d="M3.26 58.9199H2.79V59.5799H3.26V58.9199Z" fill="#A3A3A3"/>
<path d="M3.12 61.1799H1.92V61.6499H3.12V61.1799Z" fill="#A3A3A3"/>
<path d="M3.11 61.8999H2.64V63.0399H3.11V61.8999Z" fill="#A3A3A3"/>
<path d="M2.39 61.8999H1.92V62.5599H2.39V61.8999Z" fill="#A3A3A3"/>
<path d="M1.66 62.3799H1.19V63.0399H1.66V62.3799Z" fill="#A3A3A3"/>
<path d="M1.51 59.5198H0.310001V59.9898H1.51V59.5198Z" fill="#A3A3A3"/>
<path d="M1.51 60.2397H1.04V61.3797H1.51V60.2397Z" fill="#A3A3A3"/>
<path d="M0.780001 60.2397H0.310001V60.8997H0.780001V60.2397Z" fill="#A3A3A3"/>
<path d="M6.01 54.0498H4.81V54.5198H6.01V54.0498Z" fill="#A3A3A3"/>
<path d="M5.28 56.2397H4.08V56.7097H5.28V56.2397Z" fill="#A3A3A3"/>
<path d="M6.01 54.7698H5.54V55.9098H6.01V54.7698Z" fill="#A3A3A3"/>
<path d="M5.28 54.7698H4.81V55.4298H5.28V54.7698Z" fill="#A3A3A3"/>
<path d="M4.55 55.2498H4.08V55.9098H4.55V55.2498Z" fill="#A3A3A3"/>
<path d="M4.41 52.1199H3.21V52.5899H4.41V52.1199Z" fill="#A3A3A3"/>
<path d="M3.68 54.2998H2.48V54.7698H3.68V54.2998Z" fill="#A3A3A3"/>
<path d="M4.4 52.8398H3.93V53.9798H4.4V52.8398Z" fill="#A3A3A3"/>
<path d="M3.68 52.8398H3.21V53.4998H3.68V52.8398Z" fill="#A3A3A3"/>
<path d="M2.95 53.3098H2.48V53.9698H2.95V53.3098Z" fill="#A3A3A3"/>
<path d="M2.8 55.5798H1.6V56.0498H2.8V55.5798Z" fill="#A3A3A3"/>
<path d="M2.08 57.7598H0.880001V58.2298H2.08V57.7598Z" fill="#A3A3A3"/>
<path d="M2.8 56.2998H2.33V57.4398H2.8V56.2998Z" fill="#A3A3A3"/>
<path d="M2.07 56.2998H1.6V56.9598H2.07V56.2998Z" fill="#A3A3A3"/>
<path d="M1.35 56.7798H0.880001V57.4398H1.35V56.7798Z" fill="#A3A3A3"/>
<path d="M1.2 53.9199H0V54.3899H1.2V53.9199Z" fill="#A3A3A3"/>
<path d="M1.2 54.6399H0.73V55.7799H1.2V54.6399Z" fill="#A3A3A3"/>
<path d="M0.47 54.6399H0V55.2999H0.47V54.6399Z" fill="#A3A3A3"/>
<path d="M8.01 42.9299H6.81V43.3999H8.01V42.9299Z" fill="#A3A3A3"/>
<path d="M10.98 62.2998H9.78V62.7698H10.98V62.2998Z" fill="#A3A3A3"/>
<path d="M10.25 61.3098H9.78V61.9698H10.25V61.3098Z" fill="#A3A3A3"/>
<path d="M8.5 61.9199H7.3V62.3899H8.5V61.9199Z" fill="#A3A3A3"/>
<path d="M8.5 62.6399H8.03V63.7799H8.5V62.6399Z" fill="#A3A3A3"/>
<path d="M7.77 62.6399H7.3V63.2999H7.77V62.6399Z" fill="#A3A3A3"/>
<path d="M10.67 56.6997H9.47V57.1697H10.67V56.6997Z" fill="#A3A3A3"/>
<path d="M10.67 55.2397H10.2V55.8997H10.67V55.2397Z" fill="#A3A3A3"/>
<path d="M9.94 55.7097H9.47V56.3697H9.94V55.7097Z" fill="#A3A3A3"/>
<path d="M9.79 57.9797H8.59V58.4497H9.79V57.9797Z" fill="#A3A3A3"/>
<path d="M9.07 60.1599H7.87V60.6299H9.07V60.1599Z" fill="#A3A3A3"/>
<path d="M9.79 58.6997H9.32V59.8397H9.79V58.6997Z" fill="#A3A3A3"/>
<path d="M9.06 58.6997H8.59V59.3597H9.06V58.6997Z" fill="#A3A3A3"/>
<path d="M8.34 59.1699H7.87V59.8299H8.34V59.1699Z" fill="#A3A3A3"/>
<path d="M8.19 56.3198H6.99V56.7898H8.19V56.3198Z" fill="#A3A3A3"/>
<path d="M7.46 58.4998H6.26V58.9698H7.46V58.4998Z" fill="#A3A3A3"/>
<path d="M8.18 57.0398H7.71V58.1798H8.18V57.0398Z" fill="#A3A3A3"/>
<path d="M7.46 57.0398H6.99V57.6998H7.46V57.0398Z" fill="#A3A3A3"/>
<path d="M6.73 57.5098H6.26V58.1698H6.73V57.5098Z" fill="#A3A3A3"/>
</g>
<path d="M10.93 63.7799L10.93 0.209961L0.289967 0.209961L0.289967 63.7799H10.93Z" stroke="#231F20" stroke-width="0.41"/>
<path d="M0 53.0401V48.0701L11.22 50.5601L0 53.0401Z" fill="#231F20"/>
<path d="M0 59.74V54.77L11.22 57.26L0 59.74Z" fill="#231F20"/>
<mask id="mask1_8110_28" style="mask-type:luminance" maskUnits="userSpaceOnUse" x="36" y="0" width="12" height="64">
<path d="M47.6299 63.7699L47.6299 0.199951L36.9899 0.199951V63.7699H47.6299Z" fill="white"/>
</mask>
<g mask="url(#mask1_8110_28)">
<path d="M47.67 9.53003H47.2V10.19H47.67V9.53003Z" fill="#A3A3A3"/>
<path d="M47.52 6.40015H46.32V6.87015H47.52V6.40015Z" fill="#A3A3A3"/>
<path d="M46.8 8.58008H45.6V9.05008H46.8V8.58008Z" fill="#A3A3A3"/>
<path d="M47.52 7.12012H47.05V8.26012H47.52V7.12012Z" fill="#A3A3A3"/>
<path d="M46.79 7.12012H46.32V7.78012H46.79V7.12012Z" fill="#A3A3A3"/>
<path d="M46.07 7.59009H45.6V8.25009H46.07V7.59009Z" fill="#A3A3A3"/>
<path d="M45.92 9.86011H44.72V10.3301H45.92V9.86011Z" fill="#A3A3A3"/>
<path d="M45.19 12.04H43.99V12.51H45.19V12.04Z" fill="#A3A3A3"/>
<path d="M45.91 10.5801H45.44V11.7201H45.91V10.5801Z" fill="#A3A3A3"/>
<path d="M45.19 10.5801H44.72V11.2401H45.19V10.5801Z" fill="#A3A3A3"/>
<path d="M44.46 11.0601H43.99V11.7201H44.46V11.0601Z" fill="#A3A3A3"/>
<path d="M44.31 8.19995H43.11V8.66995H44.31V8.19995Z" fill="#A3A3A3"/>
<path d="M43.59 10.3801H42.39V10.8501H43.59V10.3801Z" fill="#A3A3A3"/>
<path d="M44.31 8.92017H43.84V10.0602H44.31V8.92017Z" fill="#A3A3A3"/>
<path d="M43.58 8.92017H43.11V9.58017H43.58V8.92017Z" fill="#A3A3A3"/>
<path d="M42.86 9.40015H42.39V10.0601H42.86V9.40015Z" fill="#A3A3A3"/>
<path d="M47.36 3.93018H46.89V4.59018H47.36V3.93018Z" fill="#A3A3A3"/>
<path d="M47.21 0.800049H46.01V1.27005H47.21V0.800049Z" fill="#A3A3A3"/>
<path d="M46.48 2.97998H45.28V3.44998H46.48V2.97998Z" fill="#A3A3A3"/>
<path d="M47.21 1.52002H46.74V2.66002H47.21V1.52002Z" fill="#A3A3A3"/>
<path d="M46.48 1.52002H46.01V2.18002H46.48V1.52002Z" fill="#A3A3A3"/>
<path d="M45.75 1.98999H45.28V2.64999H45.75V1.98999Z" fill="#A3A3A3"/>
<path d="M45.61 4.26001H44.41V4.73001H45.61V4.26001Z" fill="#A3A3A3"/>
<path d="M44.88 6.44019H43.68V6.91019H44.88V6.44019Z" fill="#A3A3A3"/>
<path d="M45.6 4.97998H45.13V6.11998H45.6V4.97998Z" fill="#A3A3A3"/>
<path d="M44.88 4.97998H44.41V5.63998H44.88V4.97998Z" fill="#A3A3A3"/>
<path d="M44.15 5.44995H43.68V6.10995H44.15V5.44995Z" fill="#A3A3A3"/>
<path d="M44 2.6001H42.8V3.0701H44V2.6001Z" fill="#A3A3A3"/>
<path d="M43.28 4.78003H42.08V5.25003H43.28V4.78003Z" fill="#A3A3A3"/>
<path d="M44 3.32007H43.53V4.46007H44V3.32007Z" fill="#A3A3A3"/>
<path d="M43.27 3.32007H42.8V3.98007H43.27V3.32007Z" fill="#A3A3A3"/>
<path d="M42.55 3.79004H42.08V4.45004H42.55V3.79004Z" fill="#A3A3A3"/>
<path d="M42.55 6.17017H41.35V6.64017H42.55V6.17017Z" fill="#A3A3A3"/>
<path d="M41.83 8.3501H40.63V8.8201H41.83V8.3501Z" fill="#A3A3A3"/>
<path d="M42.55 6.89014H42.08V8.03014H42.55V6.89014Z" fill="#A3A3A3"/>
<path d="M41.82 6.89014H41.35V7.55014H41.82V6.89014Z" fill="#A3A3A3"/>
<path d="M41.1 7.37012H40.63V8.03012H41.1V7.37012Z" fill="#A3A3A3"/>
<path d="M40.95 4.23999H39.75V4.70999H40.95V4.23999Z" fill="#A3A3A3"/>
<path d="M40.22 6.42017H39.02V6.89017H40.22V6.42017Z" fill="#A3A3A3"/>
<path d="M40.94 4.95996H40.47V6.09996H40.94V4.95996Z" fill="#A3A3A3"/>
<path d="M40.22 4.95996H39.75V5.61996H40.22V4.95996Z" fill="#A3A3A3"/>
<path d="M39.49 5.43018H39.02V6.09018H39.49V5.43018Z" fill="#A3A3A3"/>
<path d="M39.34 7.69995H38.14V8.16995H39.34V7.69995Z" fill="#A3A3A3"/>
<path d="M38.62 9.88013H37.42V10.3501H38.62V9.88013Z" fill="#A3A3A3"/>
<path d="M39.34 8.42017H38.87V9.56017H39.34V8.42017Z" fill="#A3A3A3"/>
<path d="M38.61 8.42017H38.14V9.08017H38.61V8.42017Z" fill="#A3A3A3"/>
<path d="M37.89 8.90015H37.42V9.56015H37.89V8.90015Z" fill="#A3A3A3"/>
<path d="M37.74 6.76001H37.27V7.90001H37.74V6.76001Z" fill="#A3A3A3"/>
<path d="M42.24 0.570068H41.04V1.04007H42.24V0.570068Z" fill="#A3A3A3"/>
<path d="M41.51 2.75H40.31V3.22H41.51V2.75Z" fill="#A3A3A3"/>
<path d="M42.24 1.29004H41.77V2.43004H42.24V1.29004Z" fill="#A3A3A3"/>
<path d="M41.51 1.29004H41.04V1.95004H41.51V1.29004Z" fill="#A3A3A3"/>
<path d="M40.78 1.77002H40.31V2.43002H40.78V1.77002Z" fill="#A3A3A3"/>
<path d="M39.91 0.820068H38.71V1.29007H39.91V0.820068Z" fill="#A3A3A3"/>
<path d="M39.03 2.1001H37.83V2.5701H39.03V2.1001Z" fill="#A3A3A3"/>
<path d="M38.31 4.28003H37.11V4.75003H38.31V4.28003Z" fill="#A3A3A3"/>
<path d="M39.03 2.82007H38.56V3.96007H39.03V2.82007Z" fill="#A3A3A3"/>
<path d="M38.3 2.82007H37.83V3.48007H38.3V2.82007Z" fill="#A3A3A3"/>
<path d="M37.58 3.29004H37.11V3.95004H37.58V3.29004Z" fill="#A3A3A3"/>
<path d="M43.02 17.6001H41.82V18.0701H43.02V17.6001Z" fill="#A3A3A3"/>
<path d="M42.29 19.78H41.09V20.25H42.29V19.78Z" fill="#A3A3A3"/>
<path d="M43.01 18.3201H42.54V19.4601H43.01V18.3201Z" fill="#A3A3A3"/>
<path d="M42.29 18.3201H41.82V18.9801H42.29V18.3201Z" fill="#A3A3A3"/>
<path d="M41.56 18.79H41.09V19.45H41.56V18.79Z" fill="#A3A3A3"/>
<path d="M41.42 15.6602H40.22V16.1302H41.42V15.6602Z" fill="#A3A3A3"/>
<path d="M40.69 17.8401H39.49V18.3101H40.69V17.8401Z" fill="#A3A3A3"/>
<path d="M41.41 16.3801H40.94V17.5201H41.41V16.3801Z" fill="#A3A3A3"/>
<path d="M40.69 16.3801H40.22V17.0401H40.69V16.3801Z" fill="#A3A3A3"/>
<path d="M39.96 16.8601H39.49V17.5201H39.96V16.8601Z" fill="#A3A3A3"/>
<path d="M39.81 19.1201H38.61V19.5901H39.81V19.1201Z" fill="#A3A3A3"/>
<path d="M39.81 19.8501H39.34V20.9901H39.81V19.8501Z" fill="#A3A3A3"/>
<path d="M39.08 19.8501H38.61V20.5101H39.08V19.8501Z" fill="#A3A3A3"/>
<path d="M38.36 20.3201H37.89V20.9801H38.36V20.3201Z" fill="#A3A3A3"/>
<path d="M38.21 17.46H37.01V17.93H38.21V17.46Z" fill="#A3A3A3"/>
<path d="M38.2 18.1902H37.73V19.3302H38.2V18.1902Z" fill="#A3A3A3"/>
<path d="M37.48 18.1902H37.01V18.8502H37.48V18.1902Z" fill="#A3A3A3"/>
<path d="M42.71 11.99H41.51V12.46H42.71V11.99Z" fill="#A3A3A3"/>
<path d="M41.98 14.1802H40.78V14.6502H41.98V14.1802Z" fill="#A3A3A3"/>
<path d="M42.7 12.72H42.23V13.86H42.7V12.72Z" fill="#A3A3A3"/>
<path d="M41.98 12.72H41.51V13.38H41.98V12.72Z" fill="#A3A3A3"/>
<path d="M41.25 13.1902H40.78V13.8502H41.25V13.1902Z" fill="#A3A3A3"/>
<path d="M41.1 10.0601H39.9V10.5301H41.1V10.0601Z" fill="#A3A3A3"/>
<path d="M40.38 12.24H39.18V12.71H40.38V12.24Z" fill="#A3A3A3"/>
<path d="M41.1 10.78H40.63V11.92H41.1V10.78Z" fill="#A3A3A3"/>
<path d="M40.37 10.78H39.9V11.44H40.37V10.78Z" fill="#A3A3A3"/>
<path d="M39.65 11.26H39.18V11.92H39.65V11.26Z" fill="#A3A3A3"/>
<path d="M39.5 13.52H38.3V13.99H39.5V13.52Z" fill="#A3A3A3"/>
<path d="M38.77 15.71H37.57V16.18H38.77V15.71Z" fill="#A3A3A3"/>
<path d="M39.5 14.24H39.03V15.38H39.5V14.24Z" fill="#A3A3A3"/>
<path d="M38.77 14.24H38.3V14.9H38.77V14.24Z" fill="#A3A3A3"/>
<path d="M38.04 14.72H37.57V15.38H38.04V14.72Z" fill="#A3A3A3"/>
<path d="M37.9 11.8601H36.7V12.3301H37.9V11.8601Z" fill="#A3A3A3"/>
<path d="M37.89 12.5801H37.42V13.7201H37.89V12.5801Z" fill="#A3A3A3"/>
<path d="M37.17 12.5801H36.7V13.2401H37.17V12.5801Z" fill="#A3A3A3"/>
<path d="M44.7 0.880127H43.5V1.35013H44.7V0.880127Z" fill="#A3A3A3"/>
<path d="M47.68 20.24H46.48V20.71H47.68V20.24Z" fill="#A3A3A3"/>
<path d="M46.95 19.26H46.48V19.92H46.95V19.26Z" fill="#A3A3A3"/>
<path d="M45.2 19.8601H44V20.3301H45.2V19.8601Z" fill="#A3A3A3"/>
<path d="M45.19 20.5801H44.72V21.7201H45.19V20.5801Z" fill="#A3A3A3"/>
<path d="M44.47 20.5801H44V21.2401H44.47V20.5801Z" fill="#A3A3A3"/>
<path d="M47.37 14.6401H46.17V15.1101H47.37V14.6401Z" fill="#A3A3A3"/>
<path d="M47.36 13.1802H46.89V13.8402H47.36V13.1802Z" fill="#A3A3A3"/>
<path d="M46.64 13.6501H46.17V14.3101H46.64V13.6501Z" fill="#A3A3A3"/>
<path d="M46.49 15.9202H45.29V16.3902H46.49V15.9202Z" fill="#A3A3A3"/>
<path d="M45.76 18.1001H44.56V18.5701H45.76V18.1001Z" fill="#A3A3A3"/>
<path d="M46.48 16.6401H46.01V17.7801H46.48V16.6401Z" fill="#A3A3A3"/>
<path d="M45.76 16.6401H45.29V17.3001H45.76V16.6401Z" fill="#A3A3A3"/>
<path d="M45.03 17.1201H44.56V17.7801H45.03V17.1201Z" fill="#A3A3A3"/>
<path d="M44.89 14.26H43.69V14.73H44.89V14.26Z" fill="#A3A3A3"/>
<path d="M44.16 16.4402H42.96V16.9102H44.16V16.4402Z" fill="#A3A3A3"/>
<path d="M44.88 14.98H44.41V16.12H44.88V14.98Z" fill="#A3A3A3"/>
<path d="M44.16 14.98H43.69V15.64H44.16V14.98Z" fill="#A3A3A3"/>
<path d="M43.43 15.46H42.96V16.12H43.43V15.46Z" fill="#A3A3A3"/>
<path d="M47.67 30.47H47.2V31.13H47.67V30.47Z" fill="#A3A3A3"/>
<path d="M47.52 27.3401H46.32V27.8101H47.52V27.3401Z" fill="#A3A3A3"/>
<path d="M46.8 29.52H45.6V29.99H46.8V29.52Z" fill="#A3A3A3"/>
<path d="M47.52 28.0601H47.05V29.2001H47.52V28.0601Z" fill="#A3A3A3"/>
<path d="M46.79 28.0601H46.32V28.7201H46.79V28.0601Z" fill="#A3A3A3"/>
<path d="M46.07 28.54H45.6V29.2H46.07V28.54Z" fill="#A3A3A3"/>
<path d="M45.92 30.8H44.72V31.2701H45.92V30.8Z" fill="#A3A3A3"/>
<path d="M45.19 32.99H43.99V33.46H45.19V32.99Z" fill="#A3A3A3"/>
<path d="M45.91 31.53H45.44V32.67H45.91V31.53Z" fill="#A3A3A3"/>
<path d="M45.19 31.53H44.72V32.19H45.19V31.53Z" fill="#A3A3A3"/>
<path d="M44.46 32H43.99V32.66H44.46V32Z" fill="#A3A3A3"/>
<path d="M44.31 29.1401H43.11V29.6101H44.31V29.1401Z" fill="#A3A3A3"/>
<path d="M43.59 31.3301H42.39V31.8001H43.59V31.3301Z" fill="#A3A3A3"/>
<path d="M44.31 29.8701H43.84V31.0101H44.31V29.8701Z" fill="#A3A3A3"/>
<path d="M43.58 29.8701H43.11V30.5301H43.58V29.8701Z" fill="#A3A3A3"/>
<path d="M42.86 30.3401H42.39V31.0001H42.86V30.3401Z" fill="#A3A3A3"/>
<path d="M47.36 24.8701H46.89V25.5301H47.36V24.8701Z" fill="#A3A3A3"/>
<path d="M47.21 21.74H46.01V22.21H47.21V21.74Z" fill="#A3A3A3"/>
<path d="M46.48 23.9202H45.28V24.3902H46.48V23.9202Z" fill="#A3A3A3"/>
<path d="M47.21 22.46H46.74V23.6H47.21V22.46Z" fill="#A3A3A3"/>
<path d="M46.48 22.46H46.01V23.12H46.48V22.46Z" fill="#A3A3A3"/>
<path d="M45.75 22.9402H45.28V23.6002H45.75V22.9402Z" fill="#A3A3A3"/>
<path d="M45.61 25.2H44.41V25.67H45.61V25.2Z" fill="#A3A3A3"/>
<path d="M44.88 27.3901H43.68V27.8601H44.88V27.3901Z" fill="#A3A3A3"/>
<path d="M45.6 25.9202H45.13V27.0602H45.6V25.9202Z" fill="#A3A3A3"/>
<path d="M44.88 25.9202H44.41V26.5802H44.88V25.9202Z" fill="#A3A3A3"/>
<path d="M44.15 26.4001H43.68V27.0601H44.15V26.4001Z" fill="#A3A3A3"/>
<path d="M44 23.54H42.8V24.01H44V23.54Z" fill="#A3A3A3"/>
<path d="M43.28 25.73H42.08V26.2H43.28V25.73Z" fill="#A3A3A3"/>
<path d="M44 24.26H43.53V25.4H44V24.26Z" fill="#A3A3A3"/>
<path d="M43.27 24.26H42.8V24.92H43.27V24.26Z" fill="#A3A3A3"/>
<path d="M42.55 24.74H42.08V25.4H42.55V24.74Z" fill="#A3A3A3"/>
<path d="M42.55 27.1201H41.35V27.5901H42.55V27.1201Z" fill="#A3A3A3"/>
<path d="M41.83 29.3H40.63V29.7701H41.83V29.3Z" fill="#A3A3A3"/>
<path d="M42.55 27.8401H42.08V28.9801H42.55V27.8401Z" fill="#A3A3A3"/>
<path d="M41.82 27.8401H41.35V28.5001H41.82V27.8401Z" fill="#A3A3A3"/>
<path d="M41.1 28.3101H40.63V28.9701H41.1V28.3101Z" fill="#A3A3A3"/>
<path d="M40.95 25.1802H39.75V25.6502H40.95V25.1802Z" fill="#A3A3A3"/>
<path d="M40.22 27.3601H39.02V27.8301H40.22V27.3601Z" fill="#A3A3A3"/>
<path d="M40.94 25.9001H40.47V27.0401H40.94V25.9001Z" fill="#A3A3A3"/>
<path d="M40.22 25.9001H39.75V26.5601H40.22V25.9001Z" fill="#A3A3A3"/>
<path d="M39.49 26.3801H39.02V27.0401H39.49V26.3801Z" fill="#A3A3A3"/>
<path d="M39.34 28.6401H38.14V29.1101H39.34V28.6401Z" fill="#A3A3A3"/>
<path d="M38.62 30.8301H37.42V31.3001H38.62V30.8301Z" fill="#A3A3A3"/>
<path d="M39.34 29.3701H38.87V30.5101H39.34V29.3701Z" fill="#A3A3A3"/>
<path d="M38.61 29.3701H38.14V30.0301H38.61V29.3701Z" fill="#A3A3A3"/>
<path d="M37.89 29.8401H37.42V30.5001H37.89V29.8401Z" fill="#A3A3A3"/>
<path d="M37.74 27.71H37.27V28.85H37.74V27.71Z" fill="#A3A3A3"/>
<path d="M42.24 21.51H41.04V21.98H42.24V21.51Z" fill="#A3A3A3"/>
<path d="M41.51 23.7H40.31V24.17H41.51V23.7Z" fill="#A3A3A3"/>
<path d="M42.24 22.24H41.77V23.38H42.24V22.24Z" fill="#A3A3A3"/>
<path d="M41.51 22.24H41.04V22.9H41.51V22.24Z" fill="#A3A3A3"/>
<path d="M40.78 22.71H40.31V23.37H40.78V22.71Z" fill="#A3A3A3"/>
<path d="M39.91 21.76H38.71V22.23H39.91V21.76Z" fill="#A3A3A3"/>
<path d="M39.03 23.04H37.83V23.51H39.03V23.04Z" fill="#A3A3A3"/>
<path d="M38.31 25.22H37.11V25.69H38.31V25.22Z" fill="#A3A3A3"/>
<path d="M39.03 23.76H38.56V24.9H39.03V23.76Z" fill="#A3A3A3"/>
<path d="M38.3 23.76H37.83V24.42H38.3V23.76Z" fill="#A3A3A3"/>
<path d="M37.58 24.24H37.11V24.9H37.58V24.24Z" fill="#A3A3A3"/>
<path d="M43.02 38.54H41.82V39.01H43.02V38.54Z" fill="#A3A3A3"/>
<path d="M42.29 40.72H41.09V41.19H42.29V40.72Z" fill="#A3A3A3"/>
<path d="M43.01 39.26H42.54V40.4H43.01V39.26Z" fill="#A3A3A3"/>
<path d="M42.29 39.26H41.82V39.92H42.29V39.26Z" fill="#A3A3A3"/>
<path d="M41.56 39.74H41.09V40.4H41.56V39.74Z" fill="#A3A3A3"/>
<path d="M41.42 36.6101H40.22V37.0801H41.42V36.6101Z" fill="#A3A3A3"/>
<path d="M40.69 38.79H39.49V39.26H40.69V38.79Z" fill="#A3A3A3"/>
<path d="M41.41 37.3301H40.94V38.4701H41.41V37.3301Z" fill="#A3A3A3"/>
<path d="M40.69 37.3301H40.22V37.9901H40.69V37.3301Z" fill="#A3A3A3"/>
<path d="M39.96 37.8H39.49V38.46H39.96V37.8Z" fill="#A3A3A3"/>
<path d="M39.81 40.0701H38.61V40.5401H39.81V40.0701Z" fill="#A3A3A3"/>
<path d="M39.81 40.79H39.34V41.93H39.81V40.79Z" fill="#A3A3A3"/>
<path d="M39.08 40.79H38.61V41.45H39.08V40.79Z" fill="#A3A3A3"/>
<path d="M38.36 41.27H37.89V41.93H38.36V41.27Z" fill="#A3A3A3"/>
<path d="M38.21 38.4102H37.01V38.8802H38.21V38.4102Z" fill="#A3A3A3"/>
<path d="M38.2 39.1301H37.73V40.2701H38.2V39.1301Z" fill="#A3A3A3"/>
<path d="M37.48 39.1301H37.01V39.7901H37.48V39.1301Z" fill="#A3A3A3"/>
<path d="M42.71 32.9402H41.51V33.4102H42.71V32.9402Z" fill="#A3A3A3"/>
<path d="M41.98 35.1201H40.78V35.5901H41.98V35.1201Z" fill="#A3A3A3"/>
<path d="M42.7 33.6602H42.23V34.8002H42.7V33.6602Z" fill="#A3A3A3"/>
<path d="M41.98 33.6602H41.51V34.3202H41.98V33.6602Z" fill="#A3A3A3"/>
<path d="M41.25 34.1401H40.78V34.8001H41.25V34.1401Z" fill="#A3A3A3"/>
<path d="M41.1 31.01H39.9V31.48H41.1V31.01Z" fill="#A3A3A3"/>
<path d="M40.38 33.1902H39.18V33.6602H40.38V33.1902Z" fill="#A3A3A3"/>
<path d="M41.1 31.73H40.63V32.87H41.1V31.73Z" fill="#A3A3A3"/>
<path d="M40.37 31.73H39.9V32.39H40.37V31.73Z" fill="#A3A3A3"/>
<path d="M39.65 32.2H39.18V32.86H39.65V32.2Z" fill="#A3A3A3"/>
<path d="M39.5 34.47H38.3V34.94H39.5V34.47Z" fill="#A3A3A3"/>
<path d="M38.77 36.6501H37.57V37.1201H38.77V36.6501Z" fill="#A3A3A3"/>
<path d="M39.5 35.1902H39.03V36.3302H39.5V35.1902Z" fill="#A3A3A3"/>
<path d="M38.77 35.1902H38.3V35.8502H38.77V35.1902Z" fill="#A3A3A3"/>
<path d="M38.04 35.6602H37.57V36.3202H38.04V35.6602Z" fill="#A3A3A3"/>
<path d="M37.9 32.8101H36.7V33.2801H37.9V32.8101Z" fill="#A3A3A3"/>
<path d="M37.89 33.53H37.42V34.67H37.89V33.53Z" fill="#A3A3A3"/>
<path d="M37.17 33.53H36.7V34.19H37.17V33.53Z" fill="#A3A3A3"/>
<path d="M44.7 21.8201H43.5V22.2901H44.7V21.8201Z" fill="#A3A3A3"/>
<path d="M47.68 41.1902H46.48V41.6602H47.68V41.1902Z" fill="#A3A3A3"/>
<path d="M46.95 40.2H46.48V40.86H46.95V40.2Z" fill="#A3A3A3"/>
<path d="M45.2 40.8101H44V41.2801H45.2V40.8101Z" fill="#A3A3A3"/>
<path d="M45.19 41.53H44.72V42.67H45.19V41.53Z" fill="#A3A3A3"/>
<path d="M44.47 41.53H44V42.19H44.47V41.53Z" fill="#A3A3A3"/>
<path d="M47.37 35.5901H46.17V36.0601H47.37V35.5901Z" fill="#A3A3A3"/>
<path d="M47.36 34.1201H46.89V34.7801H47.36V34.1201Z" fill="#A3A3A3"/>
<path d="M46.64 34.6001H46.17V35.2601H46.64V34.6001Z" fill="#A3A3A3"/>
<path d="M46.49 36.8701H45.29V37.3401H46.49V36.8701Z" fill="#A3A3A3"/>
<path d="M45.76 39.05H44.56V39.5201H45.76V39.05Z" fill="#A3A3A3"/>
<path d="M46.48 37.5901H46.01V38.7301H46.48V37.5901Z" fill="#A3A3A3"/>
<path d="M45.76 37.5901H45.29V38.2501H45.76V37.5901Z" fill="#A3A3A3"/>
<path d="M45.03 38.0601H44.56V38.7201H45.03V38.0601Z" fill="#A3A3A3"/>
<path d="M44.89 35.21H43.69V35.68H44.89V35.21Z" fill="#A3A3A3"/>
<path d="M44.16 37.3901H42.96V37.8601H44.16V37.3901Z" fill="#A3A3A3"/>
<path d="M44.88 35.9302H44.41V37.0702H44.88V35.9302Z" fill="#A3A3A3"/>
<path d="M44.16 35.9302H43.69V36.5902H44.16V35.9302Z" fill="#A3A3A3"/>
<path d="M43.43 36.4001H42.96V37.0601H43.43V36.4001Z" fill="#A3A3A3"/>
<path d="M47.67 51.5901H47.2V52.2501H47.67V51.5901Z" fill="#A3A3A3"/>
<path d="M47.52 48.46H46.32V48.93H47.52V48.46Z" fill="#A3A3A3"/>
<path d="M46.8 50.6401H45.6V51.1101H46.8V50.6401Z" fill="#A3A3A3"/>
<path d="M47.52 49.1802H47.05V50.3202H47.52V49.1802Z" fill="#A3A3A3"/>
<path d="M46.79 49.1802H46.32V49.8402H46.79V49.1802Z" fill="#A3A3A3"/>
<path d="M46.07 49.6501H45.6V50.3101H46.07V49.6501Z" fill="#A3A3A3"/>
<path d="M45.92 51.9202H44.72V52.3902H45.92V51.9202Z" fill="#A3A3A3"/>
<path d="M45.19 54.1001H43.99V54.5701H45.19V54.1001Z" fill="#A3A3A3"/>
<path d="M45.91 52.6401H45.44V53.7801H45.91V52.6401Z" fill="#A3A3A3"/>
<path d="M45.19 52.6401H44.72V53.3001H45.19V52.6401Z" fill="#A3A3A3"/>
<path d="M44.46 53.1101H43.99V53.7701H44.46V53.1101Z" fill="#A3A3A3"/>
<path d="M44.31 50.26H43.11V50.73H44.31V50.26Z" fill="#A3A3A3"/>
<path d="M43.59 52.4402H42.39V52.9102H43.59V52.4402Z" fill="#A3A3A3"/>
<path d="M44.31 50.98H43.84V52.12H44.31V50.98Z" fill="#A3A3A3"/>
<path d="M43.58 50.98H43.11V51.64H43.58V50.98Z" fill="#A3A3A3"/>
<path d="M42.86 51.45H42.39V52.11H42.86V51.45Z" fill="#A3A3A3"/>
<path d="M47.36 45.98H46.89V46.64H47.36V45.98Z" fill="#A3A3A3"/>
<path d="M47.21 42.8501H46.01V43.3201H47.21V42.8501Z" fill="#A3A3A3"/>
<path d="M46.48 45.04H45.28V45.51H46.48V45.04Z" fill="#A3A3A3"/>
<path d="M47.21 43.5801H46.74V44.7201H47.21V43.5801Z" fill="#A3A3A3"/>
<path d="M46.48 43.5801H46.01V44.2401H46.48V43.5801Z" fill="#A3A3A3"/>
<path d="M45.75 44.05H45.28V44.71H45.75V44.05Z" fill="#A3A3A3"/>
<path d="M45.61 46.3201H44.41V46.7901H45.61V46.3201Z" fill="#A3A3A3"/>
<path d="M44.88 48.5H43.68V48.97H44.88V48.5Z" fill="#A3A3A3"/>
<path d="M45.6 47.04H45.13V48.18H45.6V47.04Z" fill="#A3A3A3"/>
<path d="M44.88 47.04H44.41V47.7H44.88V47.04Z" fill="#A3A3A3"/>
<path d="M44.15 47.51H43.68V48.17H44.15V47.51Z" fill="#A3A3A3"/>
<path d="M44 44.6602H42.8V45.1302H44V44.6602Z" fill="#A3A3A3"/>
<path d="M43.28 46.8401H42.08V47.3101H43.28V46.8401Z" fill="#A3A3A3"/>
<path d="M44 45.3801H43.53V46.5201H44V45.3801Z" fill="#A3A3A3"/>
<path d="M43.27 45.3801H42.8V46.0401H43.27V45.3801Z" fill="#A3A3A3"/>
<path d="M42.55 45.8501H42.08V46.5101H42.55V45.8501Z" fill="#A3A3A3"/>
<path d="M42.55 48.23H41.35V48.7H42.55V48.23Z" fill="#A3A3A3"/>
<path d="M41.83 50.4102H40.63V50.8802H41.83V50.4102Z" fill="#A3A3A3"/>
<path d="M42.55 48.95H42.08V50.09H42.55V48.95Z" fill="#A3A3A3"/>
<path d="M41.82 48.95H41.35V49.61H41.82V48.95Z" fill="#A3A3A3"/>
<path d="M41.1 49.4302H40.63V50.0902H41.1V49.4302Z" fill="#A3A3A3"/>
<path d="M40.95 46.29H39.75V46.76H40.95V46.29Z" fill="#A3A3A3"/>
<path d="M40.22 48.48H39.02V48.95H40.22V48.48Z" fill="#A3A3A3"/>
<path d="M40.94 47.02H40.47V48.16H40.94V47.02Z" fill="#A3A3A3"/>
<path d="M40.22 47.02H39.75V47.68H40.22V47.02Z" fill="#A3A3A3"/>
<path d="M39.49 47.49H39.02V48.15H39.49V47.49Z" fill="#A3A3A3"/>
<path d="M39.34 49.76H38.14V50.23H39.34V49.76Z" fill="#A3A3A3"/>
<path d="M38.62 51.9402H37.42V52.4102H38.62V51.9402Z" fill="#A3A3A3"/>
<path d="M39.34 50.48H38.87V51.62H39.34V50.48Z" fill="#A3A3A3"/>
<path d="M38.61 50.48H38.14V51.14H38.61V50.48Z" fill="#A3A3A3"/>
<path d="M37.89 50.95H37.42V51.61H37.89V50.95Z" fill="#A3A3A3"/>
<path d="M37.74 48.8201H37.27V49.9601H37.74V48.8201Z" fill="#A3A3A3"/>
<path d="M42.24 42.6301H41.04V43.1001H42.24V42.6301Z" fill="#A3A3A3"/>
<path d="M41.51 44.8101H40.31V45.2801H41.51V44.8101Z" fill="#A3A3A3"/>
<path d="M42.24 43.3501H41.77V44.4901H42.24V43.3501Z" fill="#A3A3A3"/>
<path d="M41.51 43.3501H41.04V44.0101H41.51V43.3501Z" fill="#A3A3A3"/>
<path d="M40.78 43.8201H40.31V44.4801H40.78V43.8201Z" fill="#A3A3A3"/>
<path d="M39.91 42.8801H38.71V43.3501H39.91V42.8801Z" fill="#A3A3A3"/>
<path d="M39.03 44.1602H37.83V44.6302H39.03V44.1602Z" fill="#A3A3A3"/>
<path d="M38.31 46.3401H37.11V46.8101H38.31V46.3401Z" fill="#A3A3A3"/>
<path d="M39.03 44.8801H38.56V46.0201H39.03V44.8801Z" fill="#A3A3A3"/>
<path d="M38.3 44.8801H37.83V45.5401H38.3V44.8801Z" fill="#A3A3A3"/>
<path d="M37.58 45.3501H37.11V46.0101H37.58V45.3501Z" fill="#A3A3A3"/>
<path d="M43.02 59.6501H41.82V60.1201H43.02V59.6501Z" fill="#A3A3A3"/>
<path d="M42.29 61.8401H41.09V62.3101H42.29V61.8401Z" fill="#A3A3A3"/>
<path d="M43.01 60.3801H42.54V61.5201H43.01V60.3801Z" fill="#A3A3A3"/>
<path d="M42.29 60.3801H41.82V61.0401H42.29V60.3801Z" fill="#A3A3A3"/>
<path d="M41.56 60.8501H41.09V61.5101H41.56V60.8501Z" fill="#A3A3A3"/>
<path d="M41.42 57.72H40.22V58.19H41.42V57.72Z" fill="#A3A3A3"/>
<path d="M40.69 59.9001H39.49V60.3701H40.69V59.9001Z" fill="#A3A3A3"/>
<path d="M41.41 58.4402H40.94V59.5802H41.41V58.4402Z" fill="#A3A3A3"/>
<path d="M40.69 58.4402H40.22V59.1002H40.69V58.4402Z" fill="#A3A3A3"/>
<path d="M39.96 58.9202H39.49V59.5802H39.96V58.9202Z" fill="#A3A3A3"/>
<path d="M39.81 61.1802H38.61V61.6502H39.81V61.1802Z" fill="#A3A3A3"/>
<path d="M39.81 61.9001H39.34V63.0401H39.81V61.9001Z" fill="#A3A3A3"/>
<path d="M39.08 61.9001H38.61V62.5601H39.08V61.9001Z" fill="#A3A3A3"/>
<path d="M38.36 62.3801H37.89V63.0401H38.36V62.3801Z" fill="#A3A3A3"/>
<path d="M38.21 59.52H37.01V59.99H38.21V59.52Z" fill="#A3A3A3"/>
<path d="M38.2 60.24H37.73V61.38H38.2V60.24Z" fill="#A3A3A3"/>
<path d="M37.48 60.24H37.01V60.9H37.48V60.24Z" fill="#A3A3A3"/>
<path d="M42.71 54.05H41.51V54.5201H42.71V54.05Z" fill="#A3A3A3"/>
<path d="M41.98 56.24H40.78V56.71H41.98V56.24Z" fill="#A3A3A3"/>
<path d="M42.7 54.77H42.23V55.91H42.7V54.77Z" fill="#A3A3A3"/>
<path d="M41.98 54.77H41.51V55.43H41.98V54.77Z" fill="#A3A3A3"/>
<path d="M41.25 55.25H40.78V55.91H41.25V55.25Z" fill="#A3A3A3"/>
<path d="M41.1 52.1201H39.9V52.5901H41.1V52.1201Z" fill="#A3A3A3"/>
<path d="M40.38 54.3H39.18V54.7701H40.38V54.3Z" fill="#A3A3A3"/>
<path d="M41.1 52.8401H40.63V53.9801H41.1V52.8401Z" fill="#A3A3A3"/>
<path d="M40.37 52.8401H39.9V53.5001H40.37V52.8401Z" fill="#A3A3A3"/>
<path d="M39.65 53.3101H39.18V53.9701H39.65V53.3101Z" fill="#A3A3A3"/>
<path d="M39.5 55.5801H38.3V56.0501H39.5V55.5801Z" fill="#A3A3A3"/>
<path d="M38.77 57.76H37.57V58.23H38.77V57.76Z" fill="#A3A3A3"/>
<path d="M39.5 56.3H39.03V57.44H39.5V56.3Z" fill="#A3A3A3"/>
<path d="M38.77 56.3H38.3V56.96H38.77V56.3Z" fill="#A3A3A3"/>
<path d="M38.04 56.78H37.57V57.44H38.04V56.78Z" fill="#A3A3A3"/>
<path d="M37.9 53.9202H36.7V54.3902H37.9V53.9202Z" fill="#A3A3A3"/>
<path d="M37.89 54.6401H37.42V55.7801H37.89V54.6401Z" fill="#A3A3A3"/>
<path d="M37.17 54.6401H36.7V55.3001H37.17V54.6401Z" fill="#A3A3A3"/>
<path d="M44.7 42.9302H43.5V43.4002H44.7V42.9302Z" fill="#A3A3A3"/>
<path d="M47.68 62.3H46.48V62.7701H47.68V62.3Z" fill="#A3A3A3"/>
<path d="M46.95 61.3101H46.48V61.9701H46.95V61.3101Z" fill="#A3A3A3"/>
<path d="M45.2 61.9202H44V62.3902H45.2V61.9202Z" fill="#A3A3A3"/>
<path d="M45.19 62.6401H44.72V63.7801H45.19V62.6401Z" fill="#A3A3A3"/>
<path d="M44.47 62.6401H44V63.3001H44.47V62.6401Z" fill="#A3A3A3"/>
<path d="M47.37 56.7H46.17V57.1699H47.37V56.7Z" fill="#A3A3A3"/>
<path d="M47.36 55.24H46.89V55.9H47.36V55.24Z" fill="#A3A3A3"/>
<path d="M46.64 55.71H46.17V56.37H46.64V55.71Z" fill="#A3A3A3"/>
<path d="M46.49 57.98H45.29V58.45H46.49V57.98Z" fill="#A3A3A3"/>
<path d="M45.76 60.1602H44.56V60.6302H45.76V60.1602Z" fill="#A3A3A3"/>
<path d="M46.48 58.7H46.01V59.84H46.48V58.7Z" fill="#A3A3A3"/>
<path d="M45.76 58.7H45.29V59.36H45.76V58.7Z" fill="#A3A3A3"/>
<path d="M45.03 59.1702H44.56V59.8302H45.03V59.1702Z" fill="#A3A3A3"/>
<path d="M44.89 56.3201H43.69V56.7901H44.89V56.3201Z" fill="#A3A3A3"/>
<path d="M44.16 58.5H42.96V58.97H44.16V58.5Z" fill="#A3A3A3"/>
<path d="M44.88 57.04H44.41V58.18H44.88V57.04Z" fill="#A3A3A3"/>
<path d="M44.16 57.04H43.69V57.7H44.16V57.04Z" fill="#A3A3A3"/>
<path d="M43.43 57.51H42.96V58.17H43.43V57.51Z" fill="#A3A3A3"/>
</g>
<path d="M47.62 63.7699L47.62 0.199951L36.98 0.199951V63.7699H47.62Z" stroke="#231F20" stroke-width="0.41"/>
<path d="M47.7 10.8101V15.7801L36.48 13.3001L47.7 10.8101Z" fill="#231F20"/>
<path d="M47.7 4.11011V9.08011L36.48 6.60011L47.7 4.11011Z" fill="#231F20"/>
</g>
<defs>
<clipPath id="clip0_8110_28">
<rect width="47.83" height="63.99" fill="white"/>
</clipPath>
</defs>
</svg>
