<svg width="69" height="37" viewBox="0 0 69 37" fill="none" xmlns="http://www.w3.org/2000/svg">
<g clip-path="url(#clip0_8102_1115)">
<path d="M9.07895 0H4.7863V32.2935H9.07895V0Z" fill="#74797F"/>
<path d="M13.8652 37H0V34.0119L2.72154 31.8618H11.1437L13.8652 34.0119V37Z" fill="#5A6167"/>
<path d="M69 6.14966H9.11758V8.26588H69V6.14966Z" fill="#74797F"/>
<path d="M17.162 7.52954H14.5306V10.6954H17.162V7.52954Z" fill="#74797F"/>
<path d="M64.5099 7.52954H61.8785V10.6954H64.5099V7.52954Z" fill="#74797F"/>
<path d="M68.9442 10.3484H11.4056V22.0172H68.9442V10.3484Z" fill="black"/>
<path d="M67.6306 11.4827H12.7234V20.8829H67.6306V11.4827Z" fill="#3D3D3D"/>
<path d="M17.9776 14.4115C18.1727 14.5668 18.3211 14.7717 18.4068 15.004C18.6187 15.5811 18.6187 16.2131 18.4068 16.7901C18.3211 17.0225 18.1727 17.2273 17.9776 17.3827C17.7902 17.5162 17.5649 17.5881 17.3337 17.5881C17.1025 17.5881 16.8772 17.5162 16.6898 17.3827C16.495 17.2288 16.3466 17.0254 16.2605 16.7943C16.1475 16.5086 16.0921 16.2038 16.0974 15.8971C16.0916 15.5917 16.147 15.2882 16.2605 15.004C16.3467 14.7719 16.495 14.5671 16.6898 14.4115C16.8761 14.2754 17.1018 14.202 17.3337 14.202C17.5655 14.202 17.7913 14.2754 17.9776 14.4115ZM17.0117 14.9278C16.9099 15.0334 16.8375 15.1632 16.8014 15.3045C16.7494 15.4977 16.7248 15.6972 16.7284 15.8971C16.7254 16.0969 16.75 16.2963 16.8014 16.4896C16.8381 16.6294 16.9105 16.7577 17.0117 16.8621C17.0984 16.9439 17.2138 16.9894 17.3337 16.989C17.3926 16.9905 17.4513 16.98 17.5059 16.9582C17.5606 16.9363 17.6101 16.9036 17.6513 16.8621C17.7541 16.7581 17.828 16.6299 17.866 16.4896C17.9174 16.2963 17.942 16.0969 17.939 15.8971C17.9432 15.6955 17.9171 15.4944 17.8617 15.3003C17.8268 15.1597 17.7542 15.0311 17.6513 14.9278C17.6097 14.887 17.56 14.8551 17.5054 14.834C17.4508 14.8129 17.3923 14.8031 17.3337 14.8051C17.2743 14.8025 17.2151 14.812 17.1597 14.8332C17.1042 14.8543 17.0539 14.8865 17.0117 14.9278ZM19.6903 16.1214H18.4026V15.5839H19.6903V16.1214ZM20.0724 18.6354H19.4028V13.8655H20.0724V18.6354Z" fill="#ED1C24"/>
<path d="M23.1717 15.6982H21.6092V16.3754H20.9438V15.1945H22.4935V14.7036H20.9266V14.1788H23.1589L23.1717 15.6982ZM22.6738 16.1976C22.9994 16.176 23.3233 16.1351 23.6439 16.0749L23.7126 16.6125C23.379 16.6729 23.0422 16.7138 22.7038 16.7352C22.3604 16.7563 21.914 16.7691 21.3688 16.7691H20.9395V16.2273H21.3688C21.914 16.2273 22.3475 16.2188 22.6738 16.1976ZM22.1543 18.28H21.4804V17.0822H22.1543V18.28ZM24.8501 18.5424H21.4804V18.0049H24.8501V18.5424ZM24.7213 17.37H24.0517V13.874H24.7213V17.37Z" fill="#ED1C24"/>
<path d="M27.4472 14.4115C27.6534 14.5618 27.8114 14.7675 27.9022 15.004C28.1215 15.5798 28.1215 16.2144 27.9022 16.7901C27.8114 17.0266 27.6534 17.2323 27.4472 17.3827C27.2587 17.5206 27.0294 17.5934 26.7947 17.59C26.5587 17.5934 26.328 17.5206 26.1379 17.3827C25.9341 17.2299 25.7768 17.0249 25.6829 16.7901C25.4635 16.2144 25.4635 15.5798 25.6829 15.004C25.7768 14.7692 25.9341 14.5642 26.1379 14.4115C26.3276 14.2723 26.5582 14.198 26.7947 14.1999C27.0298 14.198 27.2591 14.2724 27.4472 14.4115ZM26.4684 14.9278C26.3635 15.0302 26.2893 15.159 26.2538 15.3003C26.1507 15.6902 26.1507 16.0997 26.2538 16.4896C26.2893 16.6309 26.3635 16.7597 26.4684 16.8621C26.5569 16.9438 26.6735 16.9891 26.7947 16.989C26.916 16.99 27.033 16.9445 27.1209 16.8621C27.2237 16.7581 27.2976 16.6299 27.3356 16.4896C27.4386 16.0997 27.4386 15.6902 27.3356 15.3003C27.2976 15.16 27.2237 15.0318 27.1209 14.9278C27.0783 14.886 27.0272 14.8534 26.971 14.8323C26.9148 14.8112 26.8547 14.8019 26.7947 14.8051C26.7348 14.8032 26.675 14.813 26.619 14.8341C26.563 14.8551 26.5118 14.887 26.4684 14.9278ZM29.4175 18.6354H28.7307V13.8655H29.4175V18.6354Z" fill="#ED1C24"/>
<path d="M35.732 18.0682H31.3234V17.5307H35.732V18.0682ZM32.4696 14.9108H34.5687V14.1702H35.2426V16.6461H31.8085V14.1702H32.4868L32.4696 14.9108ZM34.5687 16.1171V15.4399H32.4696V16.1171H34.5687ZM33.8518 17.6619H33.1865V16.498H33.8518V17.6619Z" fill="#ED1C24"/>
<path d="M40.4196 18.1403H36.011V17.6028H40.4196V18.1403ZM40.2092 15.004H36.1956V14.4707H40.2092V15.004ZM39.0717 15.3172C39.286 15.3741 39.4823 15.4833 39.6426 15.6347C39.7718 15.7697 39.8437 15.9484 39.8437 16.1341C39.8437 16.3198 39.7718 16.4984 39.6426 16.6335C39.4854 16.7885 39.2902 16.9008 39.076 16.9594C38.7966 17.0371 38.5076 17.0755 38.2174 17.0737C37.9271 17.0772 37.6379 17.0387 37.3589 16.9594C37.1424 16.9032 36.9452 16.7906 36.788 16.6335C36.6607 16.4975 36.59 16.3192 36.59 16.1341C36.59 15.949 36.6607 15.7707 36.788 15.6347C36.9483 15.4833 37.1446 15.3741 37.3589 15.3172C37.6385 15.2414 37.9275 15.2044 38.2174 15.2072C38.506 15.2044 38.7935 15.2414 39.0717 15.3172ZM37.6723 15.7701C37.5572 15.7904 37.4484 15.8368 37.3546 15.9055C37.3212 15.9333 37.2943 15.968 37.2759 16.0071C37.2575 16.0462 37.2479 16.0889 37.2479 16.132C37.2479 16.1751 37.2575 16.2177 37.2759 16.2568C37.2943 16.2959 37.3212 16.3306 37.3546 16.3584C37.4484 16.4272 37.5572 16.4735 37.6723 16.4939C37.8462 16.5272 38.0231 16.5428 38.2002 16.5404C38.376 16.5428 38.5515 16.5272 38.724 16.4939C38.8391 16.4735 38.9478 16.4272 39.0416 16.3584C39.0751 16.3306 39.1019 16.2959 39.1203 16.2568C39.1388 16.2177 39.1483 16.1751 39.1483 16.132C39.1483 16.0889 39.1388 16.0462 39.1203 16.0071C39.1019 15.968 39.0751 15.9333 39.0416 15.9055C38.9466 15.836 38.8363 15.7896 38.7197 15.7701C38.5482 15.7407 38.3743 15.7265 38.2002 15.7278C38.0233 15.7264 37.8466 15.7405 37.6723 15.7701ZM38.5308 14.8009H37.8612V13.9163H38.5308V14.8009ZM38.5308 17.8101H37.8612V16.9636H38.5308V17.8101Z" fill="#ED1C24"/>
<path d="M45.0986 16.7096H40.6986V16.172H45.0986V16.7096ZM44.24 14.678H41.1837V14.1489H44.24V14.678ZM43.1969 18.6268H42.5187V16.5445H43.1969V18.6268ZM44.5534 15.1817C44.5468 15.3771 44.5296 15.5721 44.5019 15.7657C44.4718 15.9901 44.4289 16.2313 44.3688 16.4895L43.7034 16.4175C43.7593 16.172 43.8021 15.9392 43.8322 15.7234C43.8622 15.5075 43.8751 15.3002 43.8794 15.1562C43.8837 15.0123 43.8794 14.7965 43.8794 14.5764V14.1532H44.5534V14.5764C44.5791 14.8134 44.5792 15.0166 44.5706 15.1817H44.5534Z" fill="#ED1C24"/>
<path d="M47.3908 14.2591C47.5819 14.3539 47.7413 14.5008 47.8501 14.6823C47.9659 14.8617 48.0256 15.0707 48.0218 15.2834C48.0257 15.4973 47.966 15.7077 47.8501 15.8886C47.7403 16.0694 47.5812 16.2161 47.3908 16.3118C47.191 16.4151 46.9682 16.4675 46.7426 16.4642C46.5144 16.467 46.2889 16.4146 46.0858 16.3118C45.8962 16.215 45.7373 16.0685 45.6265 15.8886C45.5139 15.7064 45.4559 15.4966 45.4591 15.2834C45.4557 15.0714 45.5138 14.8629 45.6265 14.6823C45.7364 14.5016 45.8956 14.355 46.0858 14.2591C46.2885 14.1557 46.5145 14.1047 46.7426 14.111C46.9681 14.1035 47.1916 14.1546 47.3908 14.2591ZM46.4078 14.7458C46.314 14.7911 46.2352 14.8615 46.1803 14.949C46.1253 15.0489 46.0972 15.1612 46.0987 15.2749C46.0972 15.3899 46.1253 15.5035 46.1803 15.605C46.2335 15.696 46.3126 15.7695 46.4078 15.8166C46.5114 15.8686 46.6264 15.8947 46.7426 15.8928C46.8547 15.8947 46.9655 15.8686 47.0646 15.8166C47.1599 15.7678 47.2389 15.6928 47.2921 15.6008C47.3486 15.5014 47.3768 15.3888 47.3736 15.2749C47.3773 15.1623 47.3491 15.0509 47.2921 14.9532C47.2396 14.8627 47.1602 14.7903 47.0646 14.7458C46.9644 14.6973 46.8542 14.6727 46.7426 14.6739C46.6216 14.6747 46.5024 14.7037 46.3949 14.7585L46.4078 14.7458ZM49.4598 18.61H48.7902V17.4038H46.1502V16.8789H49.4598V18.61ZM48.9919 15.0336H47.5582V14.4919H48.9919V15.0336ZM48.9919 16.0621H47.5582V15.5288H48.9919V16.0621ZM49.4598 16.6673H48.7902V13.8528H49.4598V16.6673Z" fill="#ED1C24"/>
<path d="M52.1427 14.2042C52.3366 14.2998 52.5 14.4462 52.615 14.6274C52.7288 14.8029 52.7884 15.0073 52.7866 15.2157C52.7871 15.4186 52.7274 15.6172 52.615 15.7871C52.4955 15.9581 52.3327 16.0953 52.1427 16.185C51.9317 16.2817 51.7015 16.3308 51.4688 16.3288C51.2347 16.3307 51.0032 16.2816 50.7906 16.185C50.6007 16.0953 50.4378 15.9581 50.3184 15.7871C50.2059 15.6172 50.1463 15.4186 50.1467 15.2157C50.1449 15.0073 50.2045 14.8029 50.3184 14.6274C50.4334 14.4462 50.5968 14.2998 50.7906 14.2042C51.0035 14.1088 51.2351 14.0611 51.4688 14.0645C51.7012 14.0612 51.9314 14.1089 52.1427 14.2042ZM51.1254 14.6909C51.028 14.7319 50.9456 14.8013 50.8893 14.8898C50.8359 14.982 50.8077 15.0863 50.8077 15.1924C50.8077 15.2986 50.8359 15.4029 50.8893 15.4951C50.9471 15.5813 51.0291 15.649 51.1254 15.6897C51.2328 15.7392 51.3503 15.7639 51.4688 15.7617C51.5845 15.7629 51.699 15.7383 51.8037 15.6897C51.898 15.6477 51.9783 15.5802 52.0354 15.4951C52.0899 15.4041 52.1181 15.3002 52.117 15.1945C52.1195 15.0868 52.0897 14.9808 52.0312 14.8898C51.976 14.8036 51.8971 14.7346 51.8037 14.6909C51.6993 14.6417 51.5844 14.6184 51.4688 14.6232C51.3512 14.6149 51.2332 14.6353 51.1254 14.6824V14.6909ZM51.5547 17.0738H53.4391V16.6505H54.1131V18.589H50.8893V16.6505H51.5547V17.0738ZM53.4391 18.0345V17.5901H51.5547V18.0345H53.4391ZM54.1131 16.4262H53.4348V13.8867H54.1131V16.4262Z" fill="#ED1C24"/>
<path d="M55.6885 17.2725H55.0232V14.3098H55.6885V17.2725ZM56.5942 16.8493C56.9816 16.8164 57.367 16.7641 57.749 16.6927L57.8348 17.2429C57.4418 17.3211 57.0449 17.379 56.6458 17.4164C56.2509 17.4503 55.8516 17.4672 55.4481 17.4672H55.0189V16.9001H55.4481C55.8259 16.8888 56.2079 16.8662 56.5942 16.8323V16.8493ZM58.8135 18.6396H58.1439V13.8823H58.8135V18.6396Z" fill="#ED1C24"/>
<path d="M61.9043 14.8474H60.316V17.2218H59.642V14.3311H61.9043V14.8474ZM61.2131 16.9002C61.5479 16.8748 61.8871 16.8367 62.2262 16.7774L62.3035 17.3361C61.9613 17.3948 61.6158 17.433 61.2689 17.4504C60.9255 17.4504 60.5177 17.48 60.0498 17.48H59.6206V16.9298H60.0498C60.4877 16.9298 60.874 16.9213 61.2131 16.9002ZM63.2521 18.6354H62.5739V13.8655H63.2736L63.2521 18.6354ZM63.969 16.1764H63.1105V15.6304H63.969V16.1764Z" fill="#ED1C24"/>
<path d="M64.5614 18.1274C64.4939 18.0885 64.4377 18.0331 64.3983 17.9666C64.333 17.885 64.3005 17.7826 64.3069 17.6789C64.3133 17.5751 64.3581 17.4774 64.4329 17.4041C64.5077 17.3309 64.6072 17.2874 64.7124 17.2819C64.8177 17.2763 64.9213 17.3091 65.0036 17.374C65.0699 17.4126 65.1258 17.4663 65.1667 17.5306C65.2044 17.595 65.2242 17.668 65.2242 17.7422C65.2242 17.8165 65.2044 17.8895 65.1667 17.9539C65.126 18.0194 65.0701 18.0745 65.0036 18.1147C64.9383 18.1519 64.8643 18.1714 64.7889 18.1714C64.7136 18.1714 64.6396 18.1519 64.5743 18.1147L64.5614 18.1274Z" fill="#ED1C24"/>
</g>
<defs>
<clipPath id="clip0_8102_1115">
<rect width="69" height="37" fill="white"/>
</clipPath>
</defs>
</svg>
