<svg id="Layer_1" data-name="Layer 1" xmlns="http://www.w3.org/2000/svg" viewBox="0 0 85.04 85.04"><defs><style>.cls-1{fill:#bfbfbf;}.cls-2{fill:#231f20;}</style></defs><rect class="cls-1" y="0.17" width="85.04" height="85.04"/><path class="cls-2" d="M37,30.61a2.44,2.44,0,0,1,1,.88,2.36,2.36,0,0,1,.36,1.29A2.3,2.3,0,0,1,38,34.05a2.44,2.44,0,0,1-1,.88,3.17,3.17,0,0,1-1.43.32,3.24,3.24,0,0,1-1.44-.32,2.42,2.42,0,0,1-1-.88,2.23,2.23,0,0,1-.37-1.27,2.29,2.29,0,0,1,.37-1.29,2.42,2.42,0,0,1,1-.88,3.24,3.24,0,0,1,1.44-.31A3.16,3.16,0,0,1,37,30.61Zm-2.31.82a1.34,1.34,0,0,0-.61.54,1.49,1.49,0,0,0-.22.81,1.4,1.4,0,0,0,.22.79,1.46,1.46,0,0,0,.61.54,1.9,1.9,0,0,0,.88.2,1.86,1.86,0,0,0,.87-.2,1.52,1.52,0,0,0,.61-.54,1.49,1.49,0,0,0,.22-.79A1.58,1.58,0,0,0,37,32a1.42,1.42,0,0,0-.6-.54,1.93,1.93,0,0,0-.88-.19A1.9,1.9,0,0,0,34.67,31.43Zm6.57,8.7H34.35V36.29h6.89Zm-5.8-.9h4.71v-2H35.44Zm5.8-3.48H40.13v-6h1.11Z"/><path class="cls-2" d="M46.18,34.81a6.54,6.54,0,0,1-1.06,2,4.52,4.52,0,0,1-1.6,1.31l-.7-.93a4.15,4.15,0,0,0,1.46-1.1,5.69,5.69,0,0,0,1.36-3.65v-1.8h.92v1.8A7.28,7.28,0,0,1,46.18,34.81Zm.94-.51a5.13,5.13,0,0,0,1,1.63A4.17,4.17,0,0,0,49.54,37l-.67.89a4.71,4.71,0,0,1-1.58-1.26,6,6,0,0,1-1.07-1.92,6.74,6.74,0,0,1-.38-2.28v-1.8h.92v1.8A5.05,5.05,0,0,0,47.12,34.3Zm4.49,6H50.49V29.76h1.12Z"/><path class="cls-2" d="M31.56,45.41a3,3,0,0,1,.95,1.29,5.55,5.55,0,0,1,0,3.88,3,3,0,0,1-.95,1.29,2.37,2.37,0,0,1-2.78,0,2.93,2.93,0,0,1-1-1.29,5.7,5.7,0,0,1,0-3.88,2.93,2.93,0,0,1,1-1.29,2.33,2.33,0,0,1,2.78,0Zm-2.24.86a2.19,2.19,0,0,0-.58.94,5.18,5.18,0,0,0,0,2.85,2,2,0,0,0,.58.93,1.26,1.26,0,0,0,.85.33A1.25,1.25,0,0,0,31,51a2.11,2.11,0,0,0,.57-.93,5.18,5.18,0,0,0,0-2.85,2.28,2.28,0,0,0-.57-.94,1.28,1.28,0,0,0-.85-.32A1.27,1.27,0,0,0,29.32,46.27Zm6.21,8.39H34.42V44.16h1.11Zm1.69-5.44H35.28v-.95h1.94Z"/><path class="cls-2" d="M42.2,45.41a2.93,2.93,0,0,1,1,1.29,5.7,5.7,0,0,1,0,3.88,2.93,2.93,0,0,1-1,1.29,2.32,2.32,0,0,1-1.4.45,2.35,2.35,0,0,1-1.41-.45,2.93,2.93,0,0,1-1-1.29,5.55,5.55,0,0,1,0-3.88,2.93,2.93,0,0,1,1-1.29A2.29,2.29,0,0,1,40.8,45,2.26,2.26,0,0,1,42.2,45.41Zm-2.26.86a2.19,2.19,0,0,0-.58.94,5.18,5.18,0,0,0,0,2.85,2,2,0,0,0,.58.93,1.27,1.27,0,0,0,.86.33,1.25,1.25,0,0,0,.85-.33,2,2,0,0,0,.58-.93,5.18,5.18,0,0,0,0-2.85,2.19,2.19,0,0,0-.58-.94A1.27,1.27,0,0,0,40.8,46,1.31,1.31,0,0,0,39.94,46.27Zm6.48,8.42H45.3V44.16h1.12Z"/><path class="cls-2" d="M57.65,50.58H48.11v-.9h9.54ZM49.1,47.69,49,46.76l6.78-.2v.82ZM56,45.54H49.22v-.9H56ZM50.41,54H49.29v-2.6h1.12Zm6.32.51H49.29v-.9h7.44ZM53,50.26H51.89v-2H53Zm3.48-3.55c0,.31,0,.67-.08,1.06a12.58,12.58,0,0,1-.2,1.26l-1.1-.09a12,12,0,0,0,.21-1.22c0-.38.06-.73.07-1s0-.69,0-1.14v-.91h1.1v.91C56.5,46,56.5,46.39,56.49,46.71Z"/></svg>