<svg width="61" height="21" viewBox="0 0 61 21" fill="none" xmlns="http://www.w3.org/2000/svg">
<g clip-path="url(#clip0_8102_1017)">
<path d="M7.37999 20.26H43.46V0H7.37999V20.26ZM9.50999 1.94H41.33V18.28H9.50999V1.94Z" fill="#545554"/>
<path d="M12.61 14.5799H38.26V5.38989H12.61V14.5799ZM31.36 7.25989C31.8988 7.25791 32.4261 7.416 32.8749 7.71411C33.3237 8.01223 33.6739 8.43697 33.881 8.93439C34.0882 9.43181 34.1428 9.9795 34.0382 10.5081C33.9336 11.0366 33.6743 11.5222 33.2933 11.9032C32.9123 12.2842 32.4268 12.5434 31.8982 12.6481C31.3696 12.7527 30.8219 12.698 30.3245 12.4909C29.8271 12.2838 29.4024 11.9336 29.1042 11.4848C28.8061 11.036 28.648 10.5087 28.65 9.96991C28.6527 9.25198 28.939 8.56417 29.4467 8.05652C29.9543 7.54886 30.6421 7.26252 31.36 7.25989ZM19.48 7.25989C20.0184 7.25989 20.5447 7.41967 20.9922 7.71899C21.4397 8.01832 21.7883 8.44369 21.9939 8.94128C22.1995 9.43888 22.2528 9.98632 22.147 10.5142C22.0412 11.0421 21.7812 11.5267 21.3998 11.9067C21.0184 12.2867 20.5328 12.545 20.0045 12.6489C19.4762 12.7527 18.929 12.6973 18.4322 12.4899C17.9353 12.2825 17.5112 11.9324 17.2135 11.4838C16.9159 11.0351 16.758 10.5083 16.76 9.96991C16.7627 9.25025 17.0504 8.56098 17.5602 8.05304C18.07 7.5451 18.7604 7.25988 19.48 7.25989Z" fill="#545554"/>
<path d="M48.38 4.12012H45.31V15.8601H48.38V4.12012Z" fill="#545554"/>
<path d="M53.11 4.12012H50.04V15.8601H53.11V4.12012Z" fill="#545554"/>
<path d="M57.28 4.12012H54.76V15.8601H57.28L60.35 18.8601V1.12012L57.28 4.12012Z" fill="#545554"/>
<path d="M0 12.61L5.75 10.09V2.52L0 0V12.61Z" fill="#545554"/>
</g>
<defs>
<clipPath id="clip0_8102_1017">
<rect width="60.35" height="20.3" fill="white"/>
</clipPath>
</defs>
</svg>
