<svg width="71" height="71" viewBox="0 0 71 71" fill="none" xmlns="http://www.w3.org/2000/svg">
<g clip-path="url(#clip0_8102_1171)">
<path d="M5.85 70.3701C5.11249 70.3822 4.38004 70.2462 3.69592 69.9705C3.0118 69.6947 2.38988 69.2847 1.86691 68.7645C1.34395 68.2444 0.930524 67.6246 0.651091 66.942C0.371658 66.2594 0.231872 65.5276 0.239989 64.79" stroke="#231F20" stroke-width="0.49" stroke-linecap="round" stroke-linejoin="round"/>
<path d="M0.25 64.7901V5.83008" stroke="#231F20" stroke-width="0.49" stroke-linecap="round" stroke-linejoin="round"/>
<path d="M0.23999 5.83001C0.249562 4.36224 0.818173 2.95324 1.83002 1.88994C2.35613 1.36695 2.98024 0.952977 3.66663 0.671559C4.35301 0.390141 5.08819 0.246917 5.83002 0.25005" stroke="#231F20" stroke-width="0.49" stroke-linecap="round" stroke-linejoin="round"/>
<path d="M5.85001 0.23999H65" stroke="#231F20" stroke-width="0.49" stroke-linecap="round" stroke-linejoin="round"/>
<path d="M65 0.25C66.4801 0.25523 67.8985 0.844163 68.947 1.88892C69.9955 2.93367 70.5894 4.34984 70.6 5.82996" stroke="#231F20" stroke-width="0.49" stroke-linecap="round" stroke-linejoin="round"/>
<path d="M70.6 5.83008V64.7901" stroke="#231F20" stroke-width="0.49" stroke-linecap="round" stroke-linejoin="round"/>
<path d="M70.6 64.79C70.6039 65.524 70.4598 66.2511 70.1763 66.9281C69.8928 67.6051 69.4757 68.218 68.95 68.7301C68.4259 69.2558 67.8021 69.6715 67.1153 69.9531C66.4285 70.2347 65.6923 70.3766 64.95 70.3701" stroke="#231F20" stroke-width="0.49" stroke-linecap="round" stroke-linejoin="round"/>
<path d="M65 70.3701H5.85001" stroke="#231F20" stroke-width="0.49" stroke-linecap="round" stroke-linejoin="round"/>
<path d="M5.85001 68.26C5.39088 68.2667 4.93504 68.1818 4.50919 68.0101C4.08333 67.8384 3.69602 67.5833 3.37 67.26C2.70109 66.6103 2.31642 65.7224 2.29999 64.79" stroke="#231F20" stroke-width="0.49" stroke-linecap="round" stroke-linejoin="round"/>
<path d="M2.3 64.7901V5.83008" stroke="#231F20" stroke-width="0.49" stroke-linecap="round" stroke-linejoin="round"/>
<path d="M2.29999 5.83009C2.31642 4.89775 2.70109 4.00981 3.37 3.36012C3.69669 3.0377 4.0841 2.78324 4.5098 2.61159C4.9355 2.43994 5.39104 2.3545 5.85001 2.36012" stroke="#231F20" stroke-width="0.49" stroke-linecap="round" stroke-linejoin="round"/>
<path d="M5.85001 2.36011H65" stroke="#231F20" stroke-width="0.49" stroke-linecap="round" stroke-linejoin="round"/>
<path d="M65 2.36015C65.4584 2.35206 65.9137 2.4362 66.3389 2.60759C66.7641 2.77898 67.1506 3.03412 67.4752 3.35783C67.7999 3.68154 68.0561 4.06715 68.2287 4.49187C68.4013 4.91658 68.4868 5.37172 68.48 5.83012" stroke="#231F20" stroke-width="0.49" stroke-linecap="round" stroke-linejoin="round"/>
<path d="M68.48 5.83008V64.7901" stroke="#231F20" stroke-width="0.49" stroke-linecap="round" stroke-linejoin="round"/>
<path d="M68.48 64.79C68.4868 65.2484 68.4013 65.7036 68.2287 66.1283C68.0561 66.553 67.7999 66.9386 67.4752 67.2623C67.1506 67.586 66.7641 67.8412 66.3389 68.0126C65.9137 68.184 65.4584 68.2681 65 68.26" stroke="#231F20" stroke-width="0.49" stroke-linecap="round" stroke-linejoin="round"/>
<path d="M65 68.25H5.85001" stroke="#231F20" stroke-width="0.49" stroke-linecap="round" stroke-linejoin="round"/>
</g>
<defs>
<clipPath id="clip0_8102_1171">
<rect width="70.85" height="70.61" fill="white"/>
</clipPath>
</defs>
</svg>
