<svg width="77" height="30" viewBox="0 0 77 30" fill="none" xmlns="http://www.w3.org/2000/svg">
<g clip-path="url(#clip0_8102_1135)">
<path d="M5.80002 28.8801C5.05717 28.8842 4.32095 28.7403 3.63422 28.457C2.94749 28.1738 2.32399 27.7567 1.80002 27.2301C1.28817 26.7128 0.884079 26.099 0.611147 25.4244C0.338214 24.7498 0.201874 24.0277 0.210024 23.3" stroke="#231F20" stroke-width="0.49"/>
<path d="M0.240002 23.2901V5.83008" stroke="#231F20" stroke-width="0.49"/>
<path d="M0.250002 5.82005C0.240182 5.09214 0.375779 4.36965 0.648805 3.69481C0.921832 3.01997 1.32679 2.4063 1.84 1.89C2.36363 1.36296 2.98709 0.945645 3.67389 0.662338C4.3607 0.379031 5.09707 0.235514 5.84 0.240097" stroke="#231F20" stroke-width="0.49"/>
<path d="M5.79 0.23999H70.48" stroke="#231F20" stroke-width="0.49"/>
<path d="M70.49 0.25C71.9702 0.25523 73.3885 0.844163 74.437 1.88892C75.4855 2.93367 76.0795 4.34984 76.09 5.82996" stroke="#231F20" stroke-width="0.49"/>
<path d="M76.09 5.83008V23.2901" stroke="#231F20" stroke-width="0.49"/>
<path d="M76.09 23.3C76.087 24.0314 75.9397 24.7551 75.6565 25.4294C75.3734 26.1038 74.96 26.7158 74.44 27.2301C73.9257 27.7557 73.311 28.1725 72.6324 28.4559C71.9539 28.7394 71.2254 28.8837 70.49 28.8801" stroke="#231F20" stroke-width="0.49"/>
<path d="M70.48 28.8701H5.79" stroke="#231F20" stroke-width="0.49"/>
<path d="M5.80002 26.8201C4.88237 26.799 4.00967 26.4183 3.37 25.76C3.03248 25.4464 2.76462 25.0654 2.58375 24.6416C2.40287 24.2178 2.31301 23.7608 2.32001 23.3" stroke="#231F20" stroke-width="0.49"/>
<path d="M2.31 23.2901V5.83008" stroke="#231F20" stroke-width="0.49"/>
<path d="M2.32 5.82007C2.31474 5.35721 2.40631 4.89839 2.58886 4.47302C2.77141 4.04765 3.04089 3.66516 3.38 3.3501C4.02512 2.71352 4.89371 2.3546 5.80001 2.3501" stroke="#231F20" stroke-width="0.49"/>
<path d="M5.79 2.36011H70.48" stroke="#231F20" stroke-width="0.49"/>
<path d="M70.49 2.36017C71.4184 2.3548 72.3114 2.71635 72.9744 3.36627C73.6374 4.01619 74.0168 4.90179 74.03 5.83014" stroke="#231F20" stroke-width="0.49"/>
<path d="M74.02 5.83008V23.2901" stroke="#231F20" stroke-width="0.49"/>
<path d="M74.03 23.3C73.9997 24.2274 73.6165 25.1083 72.9585 25.7626C72.3005 26.4168 71.4176 26.7951 70.49 26.8201" stroke="#231F20" stroke-width="0.49"/>
<path d="M70.48 26.8201H5.79" stroke="#231F20" stroke-width="0.49"/>
</g>
<defs>
<clipPath id="clip0_8102_1135">
<rect width="76.33" height="29.12" fill="white"/>
</clipPath>
</defs>
</svg>
