<svg width="30" height="77" viewBox="0 0 30 77" fill="none" xmlns="http://www.w3.org/2000/svg">
<g clip-path="url(#clip0_8102_1153)">
<path d="M0.250008 5.8001C0.244116 5.05787 0.386098 4.32194 0.667672 3.63518C0.949246 2.94841 1.36476 2.32456 1.88999 1.8001C2.40881 1.2875 3.02423 0.882971 3.70057 0.610032C4.37691 0.337093 5.10071 0.201206 5.82999 0.210129" stroke="#231F20" stroke-width="0.49"/>
<path d="M5.82001 0.23999H23.29" stroke="#231F20" stroke-width="0.49"/>
<path d="M23.29 0.249924C24.0193 0.241001 24.7431 0.377009 25.4194 0.649948C26.0958 0.922887 26.7112 1.32741 27.23 1.84001C27.7511 2.35772 28.165 2.97304 28.4481 3.6508C28.7312 4.32857 28.878 5.05545 28.88 5.78996" stroke="#231F20" stroke-width="0.49"/>
<path d="M28.87 5.79004V70.48" stroke="#231F20" stroke-width="0.49"/>
<path d="M28.88 70.49C28.8903 71.2337 28.7493 71.9717 28.4657 72.6593C28.182 73.3469 27.7616 73.9698 27.23 74.49C26.7141 75.0107 26.1006 75.4245 25.4245 75.7076C24.7483 75.9908 24.023 76.1376 23.29 76.1399" stroke="#231F20" stroke-width="0.49"/>
<path d="M23.29 76.0901H5.82001" stroke="#231F20" stroke-width="0.49"/>
<path d="M5.83 76.09C5.097 76.0877 4.37165 75.9407 3.69554 75.6576C3.01943 75.3745 2.40586 74.9607 1.89 74.4399C1.35968 73.9193 0.940827 73.2962 0.658892 72.6085C0.376956 71.9209 0.237852 71.183 0.250017 70.4399" stroke="#231F20" stroke-width="0.49"/>
<path d="M0.240005 70.48V5.79004" stroke="#231F20" stroke-width="0.49"/>
<path d="M2.3 5.80002C2.32102 4.88236 2.70169 4.00963 3.36 3.36997C3.67507 3.03086 4.05756 2.76138 4.48293 2.57883C4.9083 2.39628 5.36715 2.30476 5.83 2.31003" stroke="#231F20" stroke-width="0.49"/>
<path d="M5.82001 2.31006H23.29" stroke="#231F20" stroke-width="0.49"/>
<path d="M23.29 2.31003C23.7532 2.30226 24.2128 2.39271 24.6386 2.57541C25.0643 2.75812 25.4465 3.02887 25.76 3.36997C26.4002 4.01266 26.7598 4.88285 26.76 5.79001" stroke="#231F20" stroke-width="0.49"/>
<path d="M26.76 5.79004V70.48" stroke="#231F20" stroke-width="0.49"/>
<path d="M26.76 70.49C26.766 70.9475 26.6806 71.4016 26.5089 71.8257C26.3372 72.2498 26.0826 72.6354 25.76 72.96C25.1103 73.6289 24.2223 74.0135 23.29 74.0299" stroke="#231F20" stroke-width="0.49"/>
<path d="M23.29 74.02H5.82001" stroke="#231F20" stroke-width="0.49"/>
<path d="M5.83 74.0299C4.90241 73.9974 4.02182 73.6138 3.36644 72.9565C2.71106 72.2993 2.32987 71.4177 2.3 70.49" stroke="#231F20" stroke-width="0.49"/>
<path d="M2.3 70.48V5.79004" stroke="#231F20" stroke-width="0.49"/>
</g>
<defs>
<clipPath id="clip0_8102_1153">
<rect width="29.12" height="76.33" fill="white"/>
</clipPath>
</defs>
</svg>
