<svg width="67" height="67" viewBox="0 0 67 67" fill="none" xmlns="http://www.w3.org/2000/svg">
<g clip-path="url(#clip0_8067_5211)">
<mask id="mask0_8067_5211" style="mask-type:luminance" maskUnits="userSpaceOnUse" x="0" y="0" width="67" height="67">
<path d="M66.82 0H0.00997925V66.6H66.82V0Z" fill="white"/>
</mask>
<g mask="url(#mask0_8067_5211)">
<path d="M61.75 66.3801C62.3798 66.3792 63.0039 66.2605 63.59 66.0302C64.1713 65.798 64.7039 65.4588 65.16 65.0302C65.6026 64.5789 65.9585 64.0501 66.21 63.4702C66.4506 62.8895 66.5795 62.2686 66.59 61.6401" stroke="#0F4C98" stroke-width="0.45"/>
<path d="M66.59 61.6001V5.06006" stroke="#0F4C98" stroke-width="0.45"/>
<path d="M66.59 5.06002C66.5828 3.77609 66.0689 2.54696 65.16 1.64004C64.7131 1.19123 64.1815 0.835497 63.5962 0.593471C63.0109 0.351445 62.3834 0.227904 61.75 0.230007" stroke="#0F4C98" stroke-width="0.45"/>
<path d="M61.75 0.22998H5.03" stroke="#0F4C98" stroke-width="0.45"/>
<path d="M5.02999 0.230032C4.39466 0.227057 3.76531 0.352982 3.17999 0.600088C2.59736 0.842616 2.06852 1.19808 1.62399 1.64605C1.17946 2.09401 0.828031 2.62559 0.589992 3.21007C0.346046 3.79603 0.223558 4.42538 0.229976 5.06005" stroke="#0F4C98" stroke-width="0.45"/>
<path d="M0.23999 5.06006V61.6001" stroke="#0F4C98" stroke-width="0.45"/>
<path d="M0.229992 61.6001C0.223773 62.2283 0.346307 62.851 0.590008 63.4301C0.830577 64.0111 1.18434 64.5384 1.63072 64.9814C2.07709 65.4243 2.60716 65.774 3.19001 66.0101C3.77395 66.2491 4.39905 66.3714 5.03001 66.3701" stroke="#0F4C98" stroke-width="0.45"/>
<path d="M5.03 66.3701H61.75" stroke="#0F4C98" stroke-width="0.45"/>
<path d="M60.07 64.42C60.6642 64.4104 61.2513 64.2883 61.8 64.06C62.3478 63.8261 62.844 63.4862 63.26 63.06C64.1059 62.2058 64.5803 61.0522 64.58 59.85V6.73996C64.5797 6.14574 64.4607 5.55757 64.23 5.00998C64.0005 4.4598 63.66 3.96278 63.23 3.54996C62.8103 3.12341 62.3108 2.78362 61.76 2.54996C61.2144 2.32634 60.6296 2.21418 60.04 2.22H6.73999C6.1439 2.2134 5.55238 2.32476 4.99951 2.5477C4.44664 2.77064 3.94335 3.10076 3.51859 3.51901C3.09382 3.93727 2.75599 4.43541 2.52454 4.98477C2.29309 5.53413 2.17258 6.12388 2.16998 6.72V59.85C2.17496 61.055 2.65672 62.2091 3.50998 63.06C4.37128 63.9099 5.52998 64.3906 6.73999 64.4" fill="#0F4C98"/>
</g>
<path d="M23.1 37.09H18.19V8.97991H30.29C32.4744 8.93353 34.5901 9.74527 36.1829 11.2409C37.7758 12.7365 38.7189 14.7969 38.81 16.9799V17.1199C38.81 20.6199 36.5 25.8199 30.15 25.8199L23.09 25.7599L23.1 37.09ZM23.1 20.85L30.19 20.9199C30.8401 20.9953 31.4976 20.8664 32.0711 20.551C32.6446 20.2356 33.1055 19.7494 33.39 19.16C33.6879 18.5321 33.8644 17.8535 33.91 17.16C33.9273 16.5688 33.7694 15.9856 33.4563 15.4839C33.1431 14.9821 32.6887 14.5842 32.15 14.34C31.5635 14.0736 30.933 13.9176 30.29 13.8799H23.1V20.85Z" fill="white"/>
<path d="M41.13 29.1399H44.38V27.6299H39.32L39.09 32.7899C39.09 32.7899 42.78 32.3899 42.78 34.5899V35.1999C42.7423 35.5959 42.5566 35.9631 42.26 36.2281C41.9634 36.4932 41.5777 36.6367 41.18 36.6299H40.46C39.843 36.5955 39.2446 36.4064 38.72 36.0799V37.7099C39.4307 38.0287 40.2011 38.1923 40.98 38.1899C41.8543 38.2088 42.7188 38.0022 43.49 37.5899C43.8606 37.319 44.1704 36.9735 44.3994 36.5756C44.6285 36.1778 44.7717 35.7364 44.82 35.2799V34.7099C44.7036 33.8991 44.3565 33.1389 43.82 32.5199C42.9876 31.909 41.9917 31.5607 40.96 31.5199L41.13 29.1399Z" fill="white"/>
<path d="M53.78 27.21H50.81H49.74H46.49V27.88H49.74V29.25H50.81V27.88H53.78V27.21Z" fill="white"/>
<path d="M48.8 30.17V28.49H47.74V30.17V30.84H48.8H52.8V30.17H48.8Z" fill="white"/>
<path d="M51.67 23.5701V24.4501H48.67V23.5701H47.61V26.4501H52.72V23.5701H51.67ZM48.67 25.7801V25.11H51.67V25.7801H48.67Z" fill="white"/>
<path d="M55.57 49.8901H57.17V48.7301H55.57V47.5601H54.41V48.7301H52.81V49.8901H54.41V51.2501L52.34 54.0001L53.27 54.7001L54.99 52.4101L56.71 54.7001L57.64 54.0001L55.57 51.2501V49.8901Z" fill="white"/>
<path d="M60.28 50.9801H59.14V47.5601H57.98V56.3401H59.14V52.1401H60.28V50.9801Z" fill="white"/>
<path d="M35.93 51.6901L38.44 49.9101L40.94 51.6901L41.62 50.7401L39.02 48.8901V47.5601H37.86V48.8901L35.26 50.7401L35.93 51.6901Z" fill="white"/>
<path d="M42.27 52.3101H34.6V53.4701H42.27V52.3101Z" fill="white"/>
<path d="M38.46 53.75C37.9961 53.785 37.5526 53.9547 37.1838 54.2381C36.8149 54.5215 36.5368 54.9064 36.3835 55.3456C36.2302 55.7848 36.2084 56.2592 36.3208 56.7106C36.4331 57.162 36.6748 57.5707 37.0161 57.8868C37.3574 58.2028 37.7835 58.4124 38.2422 58.4899C38.7008 58.5673 39.1721 58.5092 39.5983 58.3227C40.0244 58.1362 40.3869 57.8294 40.6412 57.4399C40.8955 57.0504 41.0306 56.5952 41.03 56.13C41.004 55.4739 40.7188 54.8549 40.237 54.4087C39.7552 53.9625 39.1162 53.7257 38.46 53.75ZM38.46 57.03C38.3288 57.0542 38.1938 57.0491 38.0647 57.0153C37.9356 56.9814 37.8156 56.9196 37.713 56.8342C37.6105 56.7488 37.528 56.642 37.4714 56.5211C37.4148 56.4003 37.3854 56.2684 37.3854 56.135C37.3854 56.0016 37.4148 55.8697 37.4714 55.7489C37.528 55.6281 37.6105 55.5212 37.713 55.4358C37.8156 55.3504 37.9356 55.2886 38.0647 55.2548C38.1938 55.2209 38.3288 55.2159 38.46 55.24C38.5912 55.2159 38.7262 55.2209 38.8553 55.2548C38.9843 55.2886 39.1044 55.3504 39.2069 55.4358C39.3095 55.5212 39.392 55.6281 39.4486 55.7489C39.5052 55.8697 39.5345 56.0016 39.5345 56.135C39.5345 56.2684 39.5052 56.4003 39.4486 56.5211C39.392 56.642 39.3095 56.7488 39.2069 56.8342C39.1044 56.9196 38.9843 56.9814 38.8553 57.0153C38.7262 57.0491 38.5912 57.0542 38.46 57.03Z" fill="white"/>
<path d="M46.85 47.5601H45.69V48.7301H43.81V49.8901H48.72V48.7301H46.85V47.5601Z" fill="white"/>
<path d="M51.45 50.9801H50.31V47.5601H49.15V56.3401H50.31V52.1401H51.45V50.9801Z" fill="white"/>
<path d="M46.26 50.1699C45.809 50.1699 45.3682 50.3037 44.9933 50.5542C44.6183 50.8047 44.3261 51.1608 44.1535 51.5775C43.981 51.9941 43.9358 52.4525 44.0238 52.8948C44.1118 53.3371 44.3289 53.7433 44.6478 54.0621C44.9667 54.381 45.3729 54.5982 45.8152 54.6862C46.2575 54.7741 46.7159 54.729 47.1325 54.5564C47.5491 54.3838 47.9052 54.0916 48.1557 53.7167C48.4063 53.3417 48.54 52.9009 48.54 52.45C48.54 51.8453 48.2998 51.2654 47.8722 50.8378C47.4446 50.4102 46.8647 50.1699 46.26 50.1699ZM46.26 53.2399C46.1037 53.2399 45.951 53.1936 45.8211 53.1068C45.6912 53.02 45.5899 52.8966 45.5301 52.7523C45.4703 52.6079 45.4547 52.4491 45.4852 52.2958C45.5156 52.1426 45.5909 52.0018 45.7014 51.8914C45.8119 51.7809 45.9526 51.7056 46.1059 51.6751C46.2591 51.6446 46.418 51.6603 46.5623 51.7201C46.7067 51.7799 46.83 51.8811 46.9168 52.011C47.0036 52.141 47.05 52.2937 47.05 52.45C47.05 52.6595 46.9667 52.8604 46.8186 53.0085C46.6704 53.1567 46.4695 53.2399 46.26 53.2399Z" fill="white"/>
<path d="M31.33 47.5601H30.17V56.3401H31.33V47.5601Z" fill="white"/>
<path d="M26.72 47.9999C26.1156 47.8936 25.4932 47.9753 24.9366 48.2338C24.38 48.4923 23.9161 48.9152 23.6075 49.4456C23.2988 49.976 23.1602 50.5883 23.2104 51.2C23.2606 51.8116 23.4971 52.393 23.8881 52.866C24.2791 53.339 24.8058 53.6807 25.397 53.845C25.9883 54.0094 26.6157 53.9884 27.1947 53.785C27.7737 53.5816 28.2764 53.2056 28.6349 52.7076C28.9935 52.2096 29.1907 51.6135 29.2 50.9999C29.2616 50.2748 29.0363 49.5544 28.5726 48.9935C28.109 48.4326 27.4438 48.0759 26.72 47.9999ZM26.72 51.9999C26.5187 52.0284 26.3134 51.9948 26.1317 51.9036C25.9499 51.8125 25.8003 51.668 25.7027 51.4896C25.6051 51.3112 25.5643 51.1073 25.5856 50.9051C25.6068 50.7029 25.6893 50.5119 25.8219 50.3577C25.9545 50.2036 26.1309 50.0935 26.3276 50.0422C26.5244 49.9909 26.7321 50.0007 26.9231 50.0705C27.1141 50.1403 27.2794 50.2666 27.3967 50.4327C27.5141 50.5987 27.578 50.7966 27.58 50.9999C27.5848 51.2443 27.5 51.482 27.3416 51.6681C27.1831 51.8542 26.962 51.9758 26.72 52.01V51.9999Z" fill="white"/>
<path d="M22.39 47.5601H21.23V54.9201H22.39V47.5601Z" fill="white"/>
<path d="M20.56 52.0699H17.16V51.16H19.91V47.9199H16V49.08H18.75V49.9899H16V53.2299H17.29C18.29 53.2299 20.56 53.08 20.56 53.08V52.0699Z" fill="white"/>
<path d="M18.54 56.3499V54.1699H17.38V56.3499V57.5199H18.54H22.63V56.3499H18.54Z" fill="white"/>
<path d="M12.46 47.5601V50.4001H11.46C11.3988 49.7776 11.1211 49.1963 10.6751 48.7577C10.2292 48.3191 9.64342 48.0509 9.02 48.0001C8.22435 48.0001 7.46131 48.3161 6.8987 48.8787C6.33609 49.4413 6.02 50.2044 6.02 51.0001C6.02 51.7957 6.33609 52.5588 6.8987 53.1214C7.46131 53.684 8.22435 54.0001 9.02 54.0001C9.64411 53.9511 10.231 53.6836 10.6773 53.2446C11.1236 52.8056 11.4007 52.2233 11.46 51.6001H12.46V56.3901H13.62V47.6001L12.46 47.5601ZM9.00999 52.0101C8.80865 52.0385 8.60343 52.0049 8.42168 51.9138C8.23992 51.8226 8.09026 51.6782 7.99269 51.4998C7.89512 51.3213 7.85427 51.1174 7.87556 50.9152C7.89686 50.713 7.97927 50.522 8.11186 50.3679C8.24445 50.2137 8.4209 50.1036 8.61766 50.0523C8.81442 50.001 9.02215 50.0109 9.21315 50.0806C9.40415 50.1504 9.56933 50.2767 9.68669 50.4428C9.80405 50.6089 9.86801 50.8067 9.87001 51.0101C9.87274 51.2512 9.7882 51.4852 9.632 51.669C9.4758 51.8528 9.25846 51.9739 9.02 52.0101H9.00999Z" fill="white"/>
</g>
<defs>
<clipPath id="clip0_8067_5211">
<rect width="66.81" height="66.6" fill="white"/>
</clipPath>
</defs>
</svg>
