<svg width="67" height="67" viewBox="0 0 67 67" fill="none" xmlns="http://www.w3.org/2000/svg">
<g clip-path="url(#clip0_8067_5134)">
<mask id="mask0_8067_5134" style="mask-type:luminance" maskUnits="userSpaceOnUse" x="0" y="0" width="67" height="67">
<path d="M66.82 0H0.0100098V66.6H66.82V0Z" fill="white"/>
</mask>
<g mask="url(#mask0_8067_5134)">
<path d="M61.75 66.3801C62.3798 66.3792 63.0039 66.2605 63.59 66.0302C64.1713 65.798 64.7039 65.4588 65.16 65.0302C65.6026 64.5789 65.9585 64.0501 66.21 63.4702C66.4506 62.8895 66.5795 62.2686 66.59 61.6401" stroke="#0F4C98" stroke-width="0.45"/>
<path d="M66.59 61.6001V5.06006" stroke="#0F4C98" stroke-width="0.45"/>
<path d="M66.59 5.06002C66.5828 3.77609 66.0689 2.54696 65.16 1.64004C64.7131 1.19123 64.1815 0.835497 63.5962 0.593471C63.0109 0.351445 62.3834 0.227904 61.75 0.230007" stroke="#0F4C98" stroke-width="0.45"/>
<path d="M61.75 0.22998H5.03003" stroke="#0F4C98" stroke-width="0.45"/>
<path d="M5.03001 0.230032C4.39467 0.227057 3.76532 0.352982 3.18 0.600088C2.59737 0.842616 2.06854 1.19808 1.624 1.64605C1.17947 2.09401 0.828046 2.62559 0.590007 3.21007C0.346062 3.79603 0.223589 4.42538 0.230007 5.06005" stroke="#0F4C98" stroke-width="0.45"/>
<path d="M0.23999 5.06006V61.6001" stroke="#0F4C98" stroke-width="0.45"/>
<path d="M0.230023 61.6001C0.223804 62.2283 0.346322 62.851 0.590023 63.4301C0.830592 64.0111 1.18437 64.5384 1.63075 64.9814C2.07712 65.4243 2.60718 65.774 3.19003 66.0101C3.77396 66.2491 4.39907 66.3714 5.03003 66.3701" stroke="#0F4C98" stroke-width="0.45"/>
<path d="M5.03003 66.3701H61.75" stroke="#0F4C98" stroke-width="0.45"/>
<path d="M60.07 64.42C60.6642 64.4105 61.2513 64.2883 61.8 64.06C62.3478 63.8262 62.844 63.4863 63.26 63.06C64.1059 62.2059 64.5803 61.0522 64.58 59.8501V6.74002C64.5783 6.14693 64.4629 5.55968 64.24 5.01004C63.7781 3.90476 62.8972 3.02744 61.79 2.57004C61.2444 2.34642 60.6596 2.2342 60.07 2.24002H6.77002C6.17393 2.23342 5.58241 2.34484 5.02954 2.56778C4.47667 2.79073 3.97338 3.12084 3.54861 3.5391C3.12385 3.95735 2.78602 4.45549 2.55457 5.00485C2.32312 5.55422 2.20261 6.1439 2.20001 6.74002V59.87C2.20499 61.0751 2.68675 62.2291 3.54001 63.0801C4.40131 63.93 5.56001 64.4106 6.77002 64.42" fill="#0F4C98"/>
</g>
<path d="M18.69 27.5H23.9C24.0299 27.5 24.1546 27.5516 24.2465 27.6435C24.3384 27.7354 24.39 27.86 24.39 27.99V28.28H18.2V28C18.1987 27.9348 18.2104 27.87 18.2344 27.8094C18.2584 27.7488 18.2943 27.6936 18.3399 27.647C18.3856 27.6005 18.44 27.5635 18.5001 27.5382C18.5602 27.513 18.6248 27.5 18.69 27.5Z" fill="white"/>
<path d="M38.67 27.5001H43.88C43.9443 27.5001 44.0081 27.5128 44.0675 27.5374C44.127 27.562 44.181 27.5981 44.2265 27.6436C44.272 27.6891 44.3081 27.7431 44.3327 27.8026C44.3573 27.862 44.37 27.9258 44.37 27.9901V28.2801H38.17V28.0001C38.1686 27.9341 38.1806 27.8684 38.2053 27.8072C38.2299 27.7459 38.2667 27.6902 38.3134 27.6435C38.3601 27.5968 38.4158 27.56 38.4771 27.5354C38.5383 27.5107 38.604 27.4987 38.67 27.5001Z" fill="white"/>
<path d="M44.37 38.51C43.8277 38.508 43.2969 38.6671 42.845 38.9669C42.3931 39.2668 42.0404 39.694 41.8314 40.1945C41.6225 40.695 41.5668 41.2462 41.6714 41.7784C41.776 42.3106 42.0362 42.7997 42.419 43.1839C42.8018 43.5681 43.29 43.8301 43.8218 43.9366C44.3535 44.0431 44.905 43.9895 45.4062 43.7824C45.9075 43.5753 46.336 43.2241 46.6375 42.7733C46.939 42.3225 47.1 41.7924 47.1 41.25C47.1 40.5251 46.8127 39.8296 46.301 39.3161C45.7893 38.8025 45.095 38.5127 44.37 38.51ZM44.37 42.51C44.1208 42.51 43.8772 42.4361 43.67 42.2977C43.4628 42.1592 43.3013 41.9624 43.2059 41.7322C43.1106 41.502 43.0856 41.2486 43.1342 41.0042C43.1828 40.7598 43.3028 40.5353 43.4791 40.3591C43.6553 40.1829 43.8798 40.0629 44.1242 40.0142C44.3686 39.9656 44.622 39.9906 44.8522 40.086C45.0824 40.1813 45.2792 40.3428 45.4177 40.55C45.5561 40.7572 45.63 41.0008 45.63 41.25C45.63 41.5842 45.4972 41.9047 45.2609 42.141C45.0246 42.3773 44.7042 42.51 44.37 42.51Z" fill="white"/>
<path d="M52.71 28.6299H13.85C13.6352 28.6299 13.4292 28.7152 13.2773 28.8671C13.1253 29.019 13.04 29.2251 13.04 29.4399V42.1699H18.27C18.1702 41.8459 18.1196 41.5088 18.12 41.1699C18.12 40.3265 18.455 39.5176 19.0514 38.9213C19.6478 38.3249 20.4566 37.9899 21.3 37.9899C22.1434 37.9899 22.9522 38.3249 23.5486 38.9213C24.145 39.5176 24.48 40.3265 24.48 41.1699C24.4804 41.5088 24.4299 41.8459 24.33 42.1699H41.33C41.2302 41.8459 41.1796 41.5088 41.18 41.1699C41.18 40.3265 41.5151 39.5176 42.1114 38.9213C42.7078 38.3249 43.5166 37.9899 44.36 37.9899C45.2034 37.9899 46.0122 38.3249 46.6086 38.9213C47.205 39.5176 47.54 40.3265 47.54 41.1699C47.5365 41.4921 47.486 41.8122 47.39 42.1199L53.51 41.2399V29.4399C53.51 29.2268 53.4261 29.0223 53.2763 28.8707C53.1266 28.719 52.9231 28.6325 52.71 28.6299ZM14.82 41.0599H13.88V39.3299L14.82 38.8299V41.0599ZM15.76 35.6099L13.88 36.7099V30.7899H15.76V35.6099ZM24.87 35.6099H17.54V30.7899H24.87V35.6099ZM33.1 35.6099H25.78V30.7899H33.1V35.6099ZM41.33 35.6099H34.01V30.7899H41.33V35.6099ZM49.56 35.6099H42.24V30.7899H49.56V35.6099ZM52.85 35.6099H50.47V30.7899H52.85V35.6099Z" fill="white"/>
<path d="M21.3 38.51C20.7581 38.51 20.2283 38.6707 19.7777 38.9718C19.3272 39.2729 18.976 39.7008 18.7686 40.2015C18.5612 40.7021 18.5069 41.253 18.6126 41.7845C18.7184 42.3161 18.9793 42.8043 19.3625 43.1875C19.7457 43.5707 20.2339 43.8317 20.7654 43.9374C21.297 44.0431 21.8479 43.9888 22.3486 43.7814C22.8492 43.574 23.2771 43.2229 23.5782 42.7723C23.8793 42.3217 24.04 41.7919 24.04 41.25C24.04 40.5233 23.7513 39.8264 23.2375 39.3126C22.7236 38.7987 22.0267 38.51 21.3 38.51ZM21.3 42.51C21.0508 42.51 20.8072 42.4361 20.6 42.2977C20.3928 42.1592 20.2313 41.9624 20.1359 41.7322C20.0405 41.5019 20.0156 41.2486 20.0642 41.0042C20.1128 40.7598 20.2328 40.5353 20.409 40.3591C20.5853 40.1829 20.8098 40.0628 21.0542 40.0142C21.2986 39.9656 21.552 39.9906 21.7822 40.0859C22.0124 40.1813 22.2092 40.3428 22.3477 40.55C22.4861 40.7572 22.56 41.0008 22.56 41.25C22.56 41.5842 22.4272 41.9047 22.191 42.141C21.9547 42.3773 21.6342 42.51 21.3 42.51Z" fill="white"/>
<path d="M11.63 23.1H8.69V6.94002H15.69C16.3463 6.91246 17.0013 7.01993 17.6145 7.25575C18.2276 7.49157 18.7858 7.85072 19.2545 8.31099C19.7232 8.77126 20.0925 9.32285 20.3394 9.93159C20.5863 10.5403 20.7056 11.1933 20.69 11.8501V12.06C20.7197 12.7349 20.6124 13.4088 20.3745 14.0411C20.1365 14.6733 19.7729 15.2508 19.3056 15.7387C18.8384 16.2265 18.2771 16.6146 17.6556 16.8795C17.0342 17.1444 16.3655 17.2807 15.69 17.28H11.69L11.63 23.1ZM11.63 14.3H15.63C15.9218 14.3032 16.2111 14.2444 16.4785 14.1275C16.7459 14.0105 16.9854 13.8381 17.1811 13.6215C17.3768 13.405 17.5243 13.1494 17.6137 12.8715C17.7032 12.5937 17.7326 12.3001 17.7 12.01V11.81C17.7193 11.5424 17.6809 11.2738 17.5872 11.0224C17.4936 10.7709 17.3469 10.5426 17.1572 10.3529C16.9674 10.1631 16.7391 10.0165 16.4877 9.9228C16.2362 9.82914 15.9676 9.79066 15.7 9.81001H11.7L11.63 14.3Z" fill="white"/>
<path d="M45.01 9.95001H49.14V8.03003H42.71L42.42 14.59C42.42 14.59 47.1 14.08 47.1 16.88V17.65C47.0549 18.1487 46.8245 18.6122 46.4542 18.9492C46.0839 19.2862 45.6007 19.4721 45.1 19.47H44.22C43.4374 19.4275 42.6778 19.1903 42.01 18.78V20.85C42.9175 21.2492 43.8986 21.4536 44.89 21.45C46.0001 21.4779 47.0987 21.2196 48.08 20.7C48.5502 20.3539 48.9432 19.9138 49.2341 19.4077C49.5251 18.9016 49.7076 18.3405 49.77 17.76V17.03C49.6306 16.0021 49.1965 15.0365 48.52 14.25C47.4673 13.4647 46.2022 13.0152 44.89 12.96L45.01 9.95001Z" fill="white"/>
<path d="M58.19 10.6699H55.22H54.16H50.9V11.3399H54.16V12.7199H55.22V11.3399H58.19V10.6699Z" fill="white"/>
<path d="M53.22 13.63V11.96H52.15V13.63V14.3H53.22H57.21V13.63H53.22Z" fill="white"/>
<path d="M56.09 7.03003V7.91003H53.09V7.03003H52.03V9.91003H57.14V7.03003H56.09ZM53.09 9.23999V8.58002H56.09V9.23999H53.09Z" fill="white"/>
<path d="M26.77 49.6599V52.1899H25.7V53.2099H26.77V57.3799H27.79V49.6599H26.77Z" fill="white"/>
<path d="M24.33 51.7499H23.06V49.97H22.06V55.2H25.37V49.97H24.37L24.33 51.7499ZM23.06 54.1799V52.77H24.33V54.1799H23.06Z" fill="white"/>
<path d="M36.07 55.45H29.33V56.47H36.07V55.45Z" fill="white"/>
<path d="M30.5 54.2399L32.66 52.3299L34.82 54.2399L35.5 53.4799L33.17 51.4199V49.9099H32.15V51.4199L29.82 53.4799L30.5 54.2399Z" fill="white"/>
<path d="M56.64 51.7099H58.05V50.6899H56.64V49.6599H55.62V50.6899H54.21V51.7099H55.62V52.8999L53.8 55.3299L54.61 55.9399L56.13 53.9199L57.64 55.9399L58.46 55.3299L56.64 52.8999V51.7099Z" fill="white"/>
<path d="M60.78 52.6699H59.78V49.6599H58.76V57.3799H59.78V53.6899H60.78V52.6699Z" fill="white"/>
<path d="M39.37 53.2899L41.58 51.7299L43.78 53.2899L44.37 52.4599L42.09 50.8299V49.6599H41.06V50.8299L38.78 52.4599L39.37 53.2899Z" fill="white"/>
<path d="M44.95 53.8401H38.21V54.8601H44.95V53.8401Z" fill="white"/>
<path d="M41.58 55.1001C41.1729 55.1312 40.7837 55.2802 40.4601 55.5291C40.1364 55.7779 39.8923 56.1157 39.7576 56.5011C39.6229 56.8865 39.6035 57.3028 39.7017 57.6991C39.7999 58.0953 40.0115 58.4544 40.3105 58.7323C40.6096 59.0102 40.9832 59.1949 41.3856 59.2638C41.788 59.3327 42.2018 59.2828 42.5763 59.1202C42.9508 58.9576 43.2698 58.6894 43.4942 58.3484C43.7187 58.0074 43.8388 57.6083 43.84 57.2C43.8166 56.6226 43.5659 56.0779 43.1425 55.6845C42.7192 55.2912 42.1576 55.0811 41.58 55.1001ZM41.58 57.98C41.4307 57.9515 41.2925 57.881 41.1818 57.7768C41.0711 57.6726 40.9923 57.539 40.9548 57.3917C40.9172 57.2443 40.9225 57.0893 40.9699 56.9448C41.0173 56.8004 41.1049 56.6724 41.2224 56.5759C41.3399 56.4795 41.4825 56.4185 41.6334 56.4001C41.7844 56.3817 41.9374 56.4068 42.0746 56.4722C42.2118 56.5377 42.3275 56.641 42.4082 56.7699C42.4888 56.8988 42.5311 57.048 42.53 57.2C42.5047 57.4283 42.3913 57.6377 42.2138 57.7834C42.0363 57.9291 41.8088 57.9997 41.58 57.98Z" fill="white"/>
<path d="M48.97 49.6599H47.95V50.6899H46.3V51.7099H50.62V50.6899H48.97V49.6599Z" fill="white"/>
<path d="M53.02 52.6699H52.02V49.6599H50.99V57.3799H52.02V53.6899H53.02V52.6699Z" fill="white"/>
<path d="M48.46 51.96C48.0645 51.96 47.6778 52.0772 47.3489 52.297C47.02 52.5168 46.7636 52.8291 46.6123 53.1946C46.4609 53.56 46.4213 53.9622 46.4985 54.3502C46.5756 54.7381 46.7661 55.0944 47.0458 55.3741C47.3255 55.6539 47.6819 55.8443 48.0698 55.9215C48.4578 55.9987 48.8599 55.9591 49.2254 55.8077C49.5908 55.6563 49.9032 55.4 50.123 55.0711C50.3427 54.7422 50.46 54.3555 50.46 53.96C50.46 53.4295 50.2493 52.9208 49.8742 52.5457C49.4992 52.1706 48.9905 51.96 48.46 51.96ZM48.46 54.65C48.3236 54.65 48.1901 54.6095 48.0767 54.5337C47.9632 54.4579 47.8748 54.3501 47.8226 54.224C47.7703 54.0979 47.7567 53.9592 47.7833 53.8253C47.8099 53.6915 47.8756 53.5685 47.9721 53.472C48.0686 53.3755 48.1916 53.3098 48.3254 53.2832C48.4593 53.2566 48.598 53.2702 48.7241 53.3224C48.8502 53.3747 48.9579 53.4631 49.0337 53.5766C49.1096 53.6901 49.15 53.8235 49.15 53.96C49.15 54.143 49.0773 54.3185 48.9479 54.4479C48.8185 54.5773 48.643 54.65 48.46 54.65Z" fill="white"/>
<path d="M9.38999 55.5999C9.00467 55.6367 8.63829 55.7845 8.33531 56.0254C8.03233 56.2663 7.80577 56.5899 7.6831 56.957C7.56043 57.3241 7.54694 57.719 7.64425 58.0936C7.74156 58.4683 7.9455 58.8067 8.23132 59.0677C8.51714 59.3287 8.87257 59.5011 9.25448 59.5641C9.6364 59.6271 10.0284 59.578 10.3829 59.4226C10.7374 59.2672 11.0392 59.0122 11.2517 58.6887C11.4642 58.3652 11.5782 57.987 11.58 57.5999C11.5489 57.0464 11.3023 56.527 10.8929 56.1532C10.4836 55.7793 9.94405 55.5807 9.38999 55.5999ZM9.38999 58.4798C9.22814 58.4531 9.07729 58.3807 8.95526 58.2711C8.83322 58.1615 8.74509 58.0192 8.70126 57.8611C8.65743 57.7031 8.65973 57.5357 8.70788 57.3789C8.75603 57.2221 8.84802 57.0823 8.97302 56.9761C9.09801 56.8698 9.25078 56.8015 9.41331 56.7793C9.57584 56.757 9.74135 56.7817 9.8903 56.8505C10.0393 56.9192 10.1654 57.0291 10.254 57.1672C10.3425 57.3053 10.3897 57.4658 10.39 57.6299C10.3824 57.7534 10.3504 57.8742 10.296 57.9853C10.2415 58.0965 10.1657 58.1958 10.0728 58.2776C9.97985 58.3593 9.87171 58.422 9.75454 58.4618C9.63737 58.5017 9.51349 58.518 9.38999 58.5099V58.4798Z" fill="white"/>
<path d="M9.77001 54.46V53.64H11.57V52.73H8.05001V52.19H11.39V51.28H8.05001V50.66H11.57V49.75H8.05001H7.36001H7.14001V53.64H7.36001H8.05001H8.85001V54.46H6.04001V55.37H12.73V54.46H9.77001Z" fill="white"/>
<path d="M15.36 55.45V56.4799H18.64V58.7999H19.66V56.4799V55.45H18.64H15.36Z" fill="white"/>
<path d="M20.66 51.9899H19.66V49.6599H18.64V54.9499H19.66V53.0099H20.66V51.9899Z" fill="white"/>
<path d="M18.22 50.2099H16.63V49.1799H15.61V50.2099H14.01V51.2299H18.22V50.2099Z" fill="white"/>
<path d="M17.95 53.2299C17.95 52.8699 17.8432 52.5181 17.6433 52.2188C17.4433 51.9195 17.159 51.6862 16.8265 51.5484C16.4939 51.4107 16.128 51.3747 15.7749 51.4449C15.4219 51.5151 15.0976 51.6884 14.8431 51.9429C14.5885 52.1975 14.4152 52.5218 14.345 52.8748C14.2747 53.2279 14.3108 53.5938 14.4485 53.9264C14.5863 54.259 14.8196 54.5432 15.1189 54.7432C15.4182 54.9432 15.77 55.0499 16.13 55.0499C16.3694 55.0512 16.6066 55.0051 16.828 54.9141C17.0495 54.8231 17.2506 54.6891 17.4199 54.5198C17.5892 54.3505 17.7232 54.1493 17.8142 53.9279C17.9052 53.7065 17.9513 53.4692 17.95 53.2299ZM15.49 53.2299C15.488 53.1005 15.5247 52.9735 15.5954 52.8651C15.666 52.7567 15.7674 52.6718 15.8866 52.6214C16.0058 52.5709 16.1373 52.5572 16.2643 52.582C16.3913 52.6067 16.508 52.6688 16.5995 52.7603C16.691 52.8518 16.7531 52.9686 16.7779 53.0956C16.8027 53.2226 16.789 53.3541 16.7385 53.4733C16.6881 53.5925 16.6032 53.6939 16.4948 53.7645C16.3864 53.8352 16.2594 53.8719 16.13 53.8699C15.9646 53.8623 15.8083 53.7918 15.6931 53.6729C15.5778 53.5539 15.5124 53.3955 15.51 53.2299H15.49Z" fill="white"/>
</g>
<defs>
<clipPath id="clip0_8067_5134">
<rect width="66.81" height="66.6" fill="white"/>
</clipPath>
</defs>
</svg>
