<svg width="67" height="67" viewBox="0 0 67 67" fill="none" xmlns="http://www.w3.org/2000/svg">
<g clip-path="url(#clip0_8068_5245)">
<mask id="mask0_8068_5245" style="mask-type:luminance" maskUnits="userSpaceOnUse" x="0" y="0" width="67" height="67">
<path d="M66.81 0H0V66.6H66.81V0Z" fill="white"/>
</mask>
<g mask="url(#mask0_8068_5245)">
<path d="M61.74 66.3799C62.3699 66.3802 62.9942 66.2614 63.58 66.0299C64.1669 65.7939 64.7009 65.4434 65.1507 64.9987C65.6006 64.554 65.9573 64.024 66.2 63.4399C66.45 62.8621 66.5793 62.2394 66.58 61.6099" stroke="#0F4C98" stroke-width="0.45"/>
<path d="M66.58 61.6001V5.06006" stroke="#0F4C98" stroke-width="0.45"/>
<path d="M66.58 5.06001C66.58 4.42488 66.4547 3.79602 66.2114 3.20936C65.968 2.62271 65.6113 2.08976 65.1618 1.64112C64.7122 1.19249 64.1786 0.836939 63.5914 0.594798C63.0043 0.352657 62.3751 0.228676 61.74 0.229991" stroke="#0F4C98" stroke-width="0.45"/>
<path d="M61.74 0.22998H5.01999" stroke="#0F4C98" stroke-width="0.45"/>
<path d="M5.02 0.22998C4.06643 0.235891 3.13597 0.52399 2.34584 1.05786C1.55571 1.59173 0.941275 2.34748 0.579998 3.22998C0.340925 3.8174 0.21866 4.44582 0.220012 5.08002" stroke="#0F4C98" stroke-width="0.45"/>
<path d="M0.22998 5.06006V61.6001" stroke="#0F4C98" stroke-width="0.45"/>
<path d="M0.220012 61.6001C0.218688 62.2278 0.341001 62.8496 0.579997 63.4301C0.822028 64.0122 1.17919 64.5394 1.63002 64.98C2.07172 65.4173 2.59956 65.7578 3.18 65.98C3.76416 66.2183 4.38911 66.3407 5.02 66.3401" stroke="#0F4C98" stroke-width="0.45"/>
<path d="M5.01999 66.3701H61.74" stroke="#0F4C98" stroke-width="0.45"/>
<path d="M60.06 64.42C60.6543 64.4114 61.2416 64.2892 61.79 64.06C62.3414 63.8354 62.8418 63.5017 63.2611 63.079C63.6804 62.6563 64.0099 62.1533 64.23 61.6C64.4568 61.0516 64.5724 60.4635 64.57 59.87V6.73996C64.5732 6.14639 64.4576 5.5582 64.23 5.00998C63.9961 4.46218 63.6563 3.96598 63.23 3.54996C62.8121 3.12586 62.3164 2.78632 61.77 2.54996C61.2209 2.32632 60.6329 2.21419 60.04 2.22H6.73999C6.1439 2.2134 5.55241 2.32476 4.99954 2.5477C4.44667 2.77064 3.94335 3.10076 3.51859 3.51901C3.09382 3.93727 2.75599 4.43541 2.52454 4.98477C2.29309 5.53413 2.17258 6.12388 2.16998 6.72V59.85C2.18049 61.057 2.66599 62.2112 3.52133 63.0628C4.37667 63.9144 5.53301 64.3948 6.73999 64.4" fill="#0F4C98"/>
</g>
<path d="M21.8 48.6099H17.8V49.1099H21.73V50.1099H17.8V50.6099H21.88V51.6099H19.88V52.1999H22.88V53.1999H15.88V52.1999H18.88V51.6099H16.88V47.6099H21.88L21.8 48.6099ZM19.33 56.9699C19.0111 56.9721 18.6928 56.9419 18.38 56.8799C18.1034 56.8294 17.8367 56.7349 17.59 56.5999C17.377 56.4765 17.1956 56.3054 17.06 56.0999C16.9251 55.888 16.8555 55.6411 16.86 55.3899V55.1099C16.8543 54.8585 16.924 54.6113 17.06 54.3999C17.1956 54.1945 17.377 54.0233 17.59 53.8999C17.8361 53.7616 18.1029 53.6637 18.38 53.6099C18.6928 53.5478 19.0111 53.5177 19.33 53.5199C19.6655 53.5155 20.0006 53.5456 20.33 53.6099C20.6071 53.6637 20.8739 53.7616 21.12 53.8999C21.333 54.0233 21.5144 54.1945 21.65 54.3999C21.7825 54.6124 21.8486 54.8596 21.84 55.1099V55.3899C21.8474 55.64 21.7814 55.8869 21.65 56.0999C21.5144 56.3054 21.333 56.4765 21.12 56.5999C20.8733 56.7349 20.6066 56.8294 20.33 56.8799C20.0006 56.9441 19.6655 56.9743 19.33 56.9699ZM19.33 54.5299C19.1536 54.5147 18.9763 54.5147 18.8 54.5299C18.6397 54.5587 18.4823 54.6022 18.33 54.6599C18.212 54.7109 18.1037 54.7819 18.01 54.8699C17.9718 54.9057 17.9414 54.9491 17.9207 54.9973C17.9001 55.0455 17.8896 55.0975 17.89 55.1499V55.2699C17.8902 55.3222 17.9009 55.374 17.9215 55.4221C17.9422 55.4702 17.9722 55.5136 18.01 55.5499C18.0984 55.6444 18.2081 55.7165 18.33 55.7599C18.4827 55.814 18.64 55.8542 18.8 55.8799C18.9749 55.9119 19.1522 55.9286 19.33 55.9299C19.5111 55.9286 19.6917 55.9118 19.87 55.8799C20.027 55.8555 20.1811 55.8153 20.33 55.7599C20.456 55.7191 20.5696 55.6468 20.66 55.5499C20.6978 55.5136 20.7279 55.4702 20.7485 55.4221C20.7691 55.374 20.7798 55.3222 20.78 55.2699V55.1499C20.7804 55.0975 20.7699 55.0455 20.7493 54.9973C20.7286 54.9491 20.6982 54.9057 20.66 54.8699C20.5649 54.7788 20.4527 54.7075 20.33 54.6599C20.1816 54.6008 20.0274 54.5572 19.87 54.5299C19.6909 54.508 19.5102 54.5013 19.33 54.5099V54.5299Z" fill="white"/>
<path d="M26.12 48.23H27.77V49.23H23.39V48.23H25.12V47.23H26.12V48.23ZM25.6 52.76C25.3357 52.7671 25.0721 52.7299 24.82 52.65C24.611 52.5913 24.4167 52.4891 24.25 52.35C24.0998 52.2254 23.9801 52.068 23.9 51.89C23.8191 51.7075 23.7782 51.5097 23.78 51.31V51.01C23.7782 50.8103 23.8191 50.6126 23.9 50.43C23.9801 50.252 24.0998 50.0947 24.25 49.97C24.4167 49.831 24.611 49.7287 24.82 49.67C25.3297 49.5233 25.8704 49.5233 26.38 49.67C26.5881 49.7311 26.7818 49.8331 26.95 49.97C27.0959 50.0929 27.2135 50.2458 27.2947 50.4185C27.3758 50.5911 27.4185 50.7793 27.42 50.97V51.27C27.4185 51.4608 27.3758 51.6489 27.2947 51.8215C27.2135 51.9942 27.0959 52.1472 26.95 52.27C26.7818 52.4069 26.5881 52.5089 26.38 52.57C26.1358 52.6761 25.8755 52.7404 25.61 52.76H25.6ZM29.39 53.11V56.7H24.63V53.11H25.63V53.91H28.34V53.11H29.39ZM25.61 50.51C25.388 50.4917 25.1663 50.548 24.98 50.67C24.9176 50.7124 24.8661 50.7689 24.8296 50.8349C24.7931 50.9009 24.7727 50.9746 24.77 51.05V51.23C24.7734 51.3038 24.7942 51.3758 24.8307 51.4401C24.8672 51.5044 24.9183 51.5592 24.98 51.6C25.1712 51.7116 25.3886 51.7704 25.61 51.7704C25.8314 51.7704 26.0488 51.7116 26.24 51.6C26.3016 51.5592 26.3528 51.5044 26.3893 51.4401C26.4257 51.3758 26.4465 51.3038 26.45 51.23V51.05C26.4473 50.9746 26.4269 50.9009 26.3904 50.8349C26.3539 50.7689 26.3024 50.7124 26.24 50.67C26.0537 50.548 25.8319 50.4917 25.61 50.51ZM28.37 55.66V54.91H25.66V55.66H28.37ZM29.37 49.47H30.37V50.57H29.37V52.67H28.37V47.34H29.37V49.47Z" fill="white"/>
<path d="M32.7 54.4499V52.7199H31.53V51.6699H32.53V49.1399H31.59V48.1399H37.05V49.1399H36.12V51.6699H37.12V52.7199H35.95V54.4499H37.84V55.5099H30.84V54.4499H32.7ZM33.55 51.6699H35.12V49.1399H33.56L33.55 51.6699ZM33.72 54.4499H34.92V52.7199H33.72V54.4499Z" fill="white"/>
<path d="M38.68 48.1599H42.76V49.2399H41.28V50.3099C41.28 50.4999 41.28 50.6799 41.28 50.8299C41.2985 50.982 41.3285 51.1324 41.37 51.2799C41.4137 51.4248 41.4706 51.5654 41.54 51.6999C41.6308 51.8581 41.7345 52.0086 41.85 52.1499C42.03 52.3899 42.22 52.6299 42.42 52.8699C42.63 53.1199 42.83 53.3599 43.04 53.5799L42.38 54.4299C42.2 54.2299 42.03 54.0199 41.85 53.8099C41.67 53.5999 41.51 53.3999 41.36 53.1999C41.21 52.9999 41.06 52.8299 40.95 52.6799C40.8656 52.5706 40.7981 52.4493 40.75 52.3199C40.6846 52.4615 40.6042 52.5956 40.51 52.7199C40.3889 52.8997 40.2587 53.0732 40.12 53.2399L39.65 53.8399L39.05 54.5299L38.37 53.6699C38.8027 53.2091 39.21 52.7251 39.59 52.2199C39.71 52.0499 39.81 51.8999 39.89 51.7599C39.9747 51.6257 40.042 51.4812 40.09 51.3299C40.1396 51.1771 40.1732 51.0196 40.19 50.8599C40.2011 50.6767 40.2011 50.493 40.19 50.3099V49.2399H38.65L38.68 48.1599ZM44.75 56.6799H43.75V47.3599H44.75V56.6799Z" fill="white"/>
<path d="M45.91 51.6501H46.63V48.9501H45.96V47.9501H50.17V48.9501H49.53V51.5601H49.94H50.38L50.44 52.5601C50.12 52.6001 49.77 52.6301 49.39 52.6501C49.01 52.6701 48.62 52.6901 48.22 52.7101C47.82 52.7101 47.43 52.7101 47.03 52.7101H45.91V51.6501ZM48.12 55.5101H52.02V56.5901H47.12V53.5101H48.12V55.5101ZM48.49 51.6201V48.9601H47.6V51.6501L48.49 51.6201ZM51.84 49.8801H52.84V50.98H51.84V53.98H50.84V47.3401H51.84V49.8801Z" fill="white"/>
<path d="M44.12 36.9C41.1691 35.036 37.7399 34.0701 34.25 34.1199C30.8999 34.082 27.6035 34.964 24.72 36.6699L23.72 34.9999C26.9132 33.1033 30.5662 32.1208 34.28 32.16C38.1701 32.1014 41.9929 33.1787 45.28 35.26L44.12 36.9Z" fill="white"/>
<path d="M34.58 16.8099C30.7819 16.8466 27.0512 15.8064 23.82 13.8099L24.88 12.1599C27.8154 13.9028 31.1662 14.8225 34.58 14.8225C37.9938 14.8225 41.3446 13.9028 44.28 12.1599L45.34 13.8099C42.1088 15.8064 38.3781 16.8466 34.58 16.8099Z" fill="white"/>
<path d="M44.12 36.9C41.1691 35.036 37.7399 34.0701 34.25 34.1199C30.8999 34.082 27.6035 34.964 24.72 36.6699L23.72 34.9999C26.9132 33.1033 30.5662 32.1208 34.28 32.16C38.1701 32.1014 41.9929 33.1787 45.28 35.26L44.12 36.9Z" fill="white"/>
<path d="M49.97 23.5H19.2V25.46H49.97V23.5Z" fill="white"/>
<path d="M34.58 40.8499C31.341 40.8499 28.1749 39.889 25.4822 38.0889C22.7895 36.2888 20.6914 33.7304 19.4533 30.7375C18.2151 27.7445 17.8927 24.4515 18.5268 21.2752C19.1608 18.0989 20.7229 15.1821 23.0153 12.8939C25.3077 10.6057 28.2274 9.04901 31.4048 8.42076C34.5822 7.79251 37.8746 8.121 40.8653 9.36461C43.856 10.6082 46.4106 12.7111 48.2058 15.407C50.0009 18.103 50.9559 21.2709 50.95 24.5099C50.9394 28.8455 49.2104 33 46.1418 36.0629C43.0733 39.1258 38.9156 40.8473 34.58 40.8499ZM34.58 10.0799C31.7308 10.0799 28.9456 10.9245 26.5763 12.507C24.2071 14.0895 22.3601 16.3389 21.2688 18.9708C20.1776 21.6027 19.891 24.499 20.4454 27.2937C20.9998 30.0885 22.3703 32.6562 24.3836 34.6722C26.3968 36.6883 28.9626 38.0623 31.7565 38.6205C34.5505 39.1788 37.4472 38.8963 40.0806 37.8087C42.7141 36.7211 44.966 34.8773 46.5518 32.5102C48.1376 30.1431 48.986 27.359 48.99 24.5099C48.99 20.6863 47.4725 17.019 44.7706 14.3134C42.0688 11.6078 38.4036 10.0852 34.58 10.0799Z" fill="white"/>
<path d="M34.58 40.8499C30.19 40.8499 27.83 32.4199 27.83 24.4899C27.83 16.5599 30.19 8.11987 34.58 8.11987C38.97 8.11987 41.33 16.5499 41.33 24.4899C41.33 32.4299 38.96 40.8499 34.58 40.8499ZM34.58 10.0799C32.32 10.0799 29.79 16.2399 29.79 24.4899C29.79 32.7399 32.32 38.8899 34.58 38.8899C36.84 38.8899 39.37 32.7299 39.37 24.4899C39.37 16.2499 36.84 10.0799 34.58 10.0799Z" fill="white"/>
</g>
<defs>
<clipPath id="clip0_8068_5245">
<rect width="66.81" height="66.6" fill="white"/>
</clipPath>
</defs>
</svg>
