<svg width="16" height="16" viewBox="0 0 16 16" fill="none" xmlns="http://www.w3.org/2000/svg">
<path d="M2.04374 15.625C1.59046 15.625 1.20433 15.4667 0.885354 15.15C0.566379 14.8333 0.406891 14.45 0.406891 14C0.406891 13.55 0.566379 13.1667 0.885354 12.85C1.20433 12.5333 1.59046 12.375 2.04374 12.375C2.49702 12.375 2.88315 12.5333 3.20213 12.85C3.5211 13.1667 3.68059 13.55 3.68059 14C3.68059 14.45 3.5211 14.8333 3.20213 15.15C2.88315 15.4667 2.49702 15.625 2.04374 15.625ZM8.08749 15.625C7.63421 15.625 7.24808 15.4667 6.9291 15.15C6.61013 14.8333 6.45064 14.45 6.45064 14C6.45064 13.55 6.61013 13.1667 6.9291 12.85C7.24808 12.5333 7.63421 12.375 8.08749 12.375C8.54077 12.375 8.9269 12.5333 9.24588 12.85C9.56485 13.1667 9.72434 13.55 9.72434 14C9.72434 14.45 9.56485 14.8333 9.24588 15.15C8.9269 15.4667 8.54077 15.625 8.08749 15.625ZM14.1312 15.625C13.678 15.625 13.2918 15.4667 12.9729 15.15C12.6539 14.8333 12.4944 14.45 12.4944 14C12.4944 13.55 12.6539 13.1667 12.9729 12.85C13.2918 12.5333 13.678 12.375 14.1312 12.375C14.5845 12.375 14.9706 12.5333 15.2896 12.85C15.6086 13.1667 15.7681 13.55 15.7681 14C15.7681 14.45 15.6086 14.8333 15.2896 15.15C14.9706 15.4667 14.5845 15.625 14.1312 15.625ZM2.04374 9.625C1.59046 9.625 1.20433 9.46667 0.885354 9.15C0.566379 8.83333 0.406891 8.45 0.406891 8C0.406891 7.55 0.566379 7.16667 0.885354 6.85C1.20433 6.53333 1.59046 6.375 2.04374 6.375C2.49702 6.375 2.88315 6.53333 3.20213 6.85C3.5211 7.16667 3.68059 7.55 3.68059 8C3.68059 8.45 3.5211 8.83333 3.20213 9.15C2.88315 9.46667 2.49702 9.625 2.04374 9.625ZM8.08749 9.625C7.63421 9.625 7.24808 9.46667 6.9291 9.15C6.61013 8.83333 6.45064 8.45 6.45064 8C6.45064 7.55 6.61013 7.16667 6.9291 6.85C7.24808 6.53333 7.63421 6.375 8.08749 6.375C8.54077 6.375 8.9269 6.53333 9.24588 6.85C9.56485 7.16667 9.72434 7.55 9.72434 8C9.72434 8.45 9.56485 8.83333 9.24588 9.15C8.9269 9.46667 8.54077 9.625 8.08749 9.625ZM14.1312 9.625C13.678 9.625 13.2918 9.46667 12.9729 9.15C12.6539 8.83333 12.4944 8.45 12.4944 8C12.4944 7.55 12.6539 7.16667 12.9729 6.85C13.2918 6.53333 13.678 6.375 14.1312 6.375C14.5845 6.375 14.9706 6.53333 15.2896 6.85C15.6086 7.16667 15.7681 7.55 15.7681 8C15.7681 8.45 15.6086 8.83333 15.2896 9.15C14.9706 9.46667 14.5845 9.625 14.1312 9.625ZM2.04374 3.625C1.59046 3.625 1.20433 3.46667 0.885354 3.15C0.566379 2.83333 0.406891 2.45 0.406891 2C0.406891 1.55 0.566379 1.16667 0.885354 0.85C1.20433 0.533333 1.59046 0.375 2.04374 0.375C2.49702 0.375 2.88315 0.533333 3.20213 0.85C3.5211 1.16667 3.68059 1.55 3.68059 2C3.68059 2.45 3.5211 2.83333 3.20213 3.15C2.88315 3.46667 2.49702 3.625 2.04374 3.625ZM8.08749 3.625C7.63421 3.625 7.24808 3.46667 6.9291 3.15C6.61013 2.83333 6.45064 2.45 6.45064 2C6.45064 1.55 6.61013 1.16667 6.9291 0.85C7.24808 0.533333 7.63421 0.375 8.08749 0.375C8.54077 0.375 8.9269 0.533333 9.24588 0.85C9.56485 1.16667 9.72434 1.55 9.72434 2C9.72434 2.45 9.56485 2.83333 9.24588 3.15C8.9269 3.46667 8.54077 3.625 8.08749 3.625ZM14.1312 3.625C13.678 3.625 13.2918 3.46667 12.9729 3.15C12.6539 2.83333 12.4944 2.45 12.4944 2C12.4944 1.55 12.6539 1.16667 12.9729 0.85C13.2918 0.533333 13.678 0.375 14.1312 0.375C14.5845 0.375 14.9706 0.533333 15.2896 0.85C15.6086 1.16667 15.7681 1.55 15.7681 2C15.7681 2.45 15.6086 2.83333 15.2896 3.15C14.9706 3.46667 14.5845 3.625 14.1312 3.625Z" fill="#5A6A85"/>
</svg>
