<?xml version="1.0" encoding="utf-8"?>
<!-- Generator: Adobe Illustrator 26.0.2, SVG Export Plug-In . SVG Version: 6.00 Build 0)  -->
<svg version="1.1" id="Layer_1" xmlns="http://www.w3.org/2000/svg" xmlns:xlink="http://www.w3.org/1999/xlink" x="0px" y="0px"
	 viewBox="0 0 42.43 42.43" style="enable-background:new 0 0 42.43 42.43;" xml:space="preserve">
<style type="text/css">
	.st0{fill:#F6EC1B;}
	.st1{fill:#222221;}
	.st2{fill:#010101;}
</style>
<g>
	<g>
		<path class="st0" d="M21.22,2c10.6,0,19.22,8.62,19.22,19.22c0,10.6-8.62,19.22-19.22,19.22C10.62,40.43,2,31.81,2,21.22
			C2,10.62,10.62,2,21.22,2z"/>
		<path class="st1" d="M21.22,42.43C9.52,42.43,0,32.92,0,21.22S9.52,0,21.22,0s21.22,9.52,21.22,21.22S32.92,42.43,21.22,42.43z
			 M21.22,4C11.72,4,4,11.72,4,21.22c0,9.49,7.72,17.22,17.22,17.22c9.49,0,17.22-7.72,17.22-17.22C38.43,11.72,30.71,4,21.22,4z"/>
	</g>
</g>
<circle class="st2" cx="21.22" cy="30.53" r="2.4"/>
<path class="st1" d="M21.22,27.43c-1.1,0-2-0.9-2-2v-1.2c0-2.17,0.45-3.26,3.09-5.45c1.31-1.08,1.86-1.92,1.86-2.81
	c0-1.63-1.33-2.95-2.95-2.95c-1.63,0-2.95,1.33-2.95,2.95c0,1.1-0.9,2-2,2s-2-0.9-2-2c0-3.83,3.12-6.95,6.95-6.95
	s6.95,3.12,6.95,6.95c0,2.82-1.89,4.71-3.32,5.89c-1.64,1.36-1.64,1.47-1.64,2.37v1.2C23.22,26.54,22.32,27.43,21.22,27.43z"/>
</svg>
