<svg width="25" height="24" viewBox="0 0 25 24" fill="none" xmlns="http://www.w3.org/2000/svg">
<path d="M10.0853 10.87C9.98529 10.86 9.86529 10.86 9.75529 10.87C7.37529 10.79 5.48529 8.84 5.48529 6.44C5.48529 3.99 7.46529 2 9.92529 2C12.3753 2 14.3653 3.99 14.3653 6.44C14.3553 8.84 12.4653 10.79 10.0853 10.87Z" stroke="#5A6A85" stroke-width="1.5" stroke-linecap="round" stroke-linejoin="round"/>
<path opacity="0.4" d="M17.3353 4C19.2753 4 20.8353 5.57 20.8353 7.5C20.8353 9.39 19.3353 10.93 17.4653 11C17.3853 10.99 17.2953 10.99 17.2053 11" stroke="#52526C" stroke-opacity="0.8" stroke-width="1.5" stroke-linecap="round" stroke-linejoin="round"/>
<path d="M5.08529 14.56C2.66529 16.18 2.66529 18.82 5.08529 20.43C7.83529 22.27 12.3453 22.27 15.0953 20.43C17.5153 18.81 17.5153 16.17 15.0953 14.56C12.3553 12.73 7.84529 12.73 5.08529 14.56Z" stroke="#5A6A85" stroke-width="1.5" stroke-linecap="round" stroke-linejoin="round"/>
<path opacity="0.4" d="M19.2653 20C19.9853 19.85 20.6653 19.56 21.2253 19.13C22.7853 17.96 22.7853 16.03 21.2253 14.86C20.6753 14.44 20.0053 14.16 19.2953 14" stroke="#52526C" stroke-opacity="0.8" stroke-width="1.5" stroke-linecap="round" stroke-linejoin="round"/>
</svg>
