<svg width="30" height="30" viewBox="0 0 30 30" fill="none" xmlns="http://www.w3.org/2000/svg">
<circle cx="15" cy="15" r="15" fill="#D9D9D9"/>
<path d="M15.5 14.9979C18.5377 14.9979 21 12.5356 21 9.49794C21 6.46026 18.5356 4 15.5 4C12.4644 4 10 6.46232 10 9.5C10 12.5377 12.4623 15 15.5 15V14.9979ZM15.5 6.74897C17.0178 6.74897 18.249 7.98013 18.249 9.49794C18.249 11.0158 17.0178 12.2469 15.5 12.2469C13.9822 12.2469 12.751 11.0158 12.751 9.49794C12.751 7.98013 13.9822 6.74897 15.5 6.74897Z" fill="#9E9E9E"/>
<path d="M23.6423 25.9979C24.3914 25.9979 25 25.3595 25 24.569C24.9959 19.8389 21.3523 16.0043 16.8577 16H14.1443C9.64774 16.0064 6.00407 19.8389 6 24.5711C6 25.3595 6.6066 26 7.35772 26C8.10885 26 8.71545 25.3616 8.71545 24.5711C8.71545 21.4156 11.1459 18.8578 14.1443 18.8578H16.8577C19.8561 18.8578 22.2866 21.4156 22.2866 24.5711C22.2866 25.3595 22.8932 26 23.6443 26L23.6423 25.9979Z" fill="#9E9E9E"/>
</svg>
