<svg width="29" height="27" viewBox="0 0 29 27" fill="none" xmlns="http://www.w3.org/2000/svg">
<g clip-path="url(#clip0_9_24150)">
<path d="M25.575 25.6949H3.42497C2.26497 25.6949 1.50497 24.4649 2.03497 23.4249L12.815 2.16488C13.385 1.03488 14.985 1.02488 15.585 2.13488L26.945 23.4049C27.505 24.4449 26.745 25.7049 25.565 25.7049L25.575 25.6949Z" stroke="#2A3547" stroke-width="2" stroke-linecap="round" stroke-linejoin="round"/>
<path d="M14.505 22.0049C15.3223 22.0049 15.985 21.3423 15.985 20.5249C15.985 19.7075 15.3223 19.0449 14.505 19.0449C13.6876 19.0449 13.025 19.7075 13.025 20.5249C13.025 21.3423 13.6876 22.0049 14.505 22.0049Z" fill="#2A3547"/>
<path d="M14.545 17.4349C14.165 17.4349 13.855 17.1449 13.825 16.7749L13.275 10.1149C13.215 9.39491 13.775 8.78491 14.495 8.78491C15.215 8.78491 15.785 9.38491 15.735 10.1049L15.255 16.7749C15.225 17.1449 14.915 17.4449 14.545 17.4449V17.4349Z" fill="#2A3547"/>
</g>
<defs>
<clipPath id="clip0_9_24150">
<rect width="27.27" height="26.39" fill="white" transform="translate(0.86499 0.304932)"/>
</clipPath>
</defs>
</svg>
